G04 EAGLE Gerber RS-274X export*
G75*
%MOMM*%
%FSLAX34Y34*%
%LPD*%
%INBottom Copper*%
%IPPOS*%
%AMOC8*
5,1,8,0,0,1.08239X$1,22.5*%
G01*
%ADD10C,1.524000*%
%ADD11C,1.524000*%
%ADD12C,0.654800*%
%ADD13C,0.711200*%
%ADD14C,0.304800*%
%ADD15C,0.228600*%

G36*
X144956Y4574D02*
X144956Y4574D01*
X144965Y4573D01*
X145159Y4594D01*
X145348Y4613D01*
X145356Y4615D01*
X145365Y4616D01*
X145550Y4675D01*
X145733Y4731D01*
X145741Y4735D01*
X145749Y4738D01*
X145918Y4831D01*
X146087Y4923D01*
X146094Y4928D01*
X146102Y4933D01*
X146249Y5057D01*
X146396Y5180D01*
X146402Y5187D01*
X146409Y5193D01*
X146528Y5345D01*
X146649Y5494D01*
X146653Y5502D01*
X146658Y5509D01*
X146746Y5682D01*
X146834Y5851D01*
X146836Y5860D01*
X146841Y5868D01*
X146892Y6054D01*
X146945Y6238D01*
X146946Y6247D01*
X146949Y6256D01*
X146963Y6449D01*
X146978Y6640D01*
X146977Y6648D01*
X146978Y6657D01*
X146954Y6850D01*
X146931Y7039D01*
X146929Y7048D01*
X146928Y7057D01*
X146866Y7239D01*
X146807Y7422D01*
X146802Y7430D01*
X146799Y7438D01*
X146703Y7605D01*
X146609Y7773D01*
X146603Y7780D01*
X146598Y7787D01*
X146384Y8040D01*
X63551Y90873D01*
X63527Y90893D01*
X63506Y90917D01*
X63371Y91021D01*
X63239Y91128D01*
X63212Y91143D01*
X63187Y91162D01*
X62892Y91314D01*
X61493Y91893D01*
X60143Y93243D01*
X59412Y95007D01*
X59412Y96916D01*
X60143Y98679D01*
X61493Y100029D01*
X63257Y100760D01*
X65166Y100760D01*
X66564Y100181D01*
X66578Y100176D01*
X66585Y100173D01*
X66598Y100170D01*
X66622Y100158D01*
X66787Y100113D01*
X66950Y100064D01*
X66981Y100061D01*
X67011Y100053D01*
X67342Y100026D01*
X74386Y100026D01*
X74413Y100029D01*
X74439Y100027D01*
X74613Y100049D01*
X74787Y100066D01*
X74812Y100074D01*
X74839Y100077D01*
X75005Y100133D01*
X75172Y100184D01*
X75195Y100197D01*
X75221Y100205D01*
X75372Y100293D01*
X75526Y100376D01*
X75546Y100393D01*
X75569Y100406D01*
X75822Y100621D01*
X77918Y102717D01*
X77935Y102737D01*
X77956Y102755D01*
X78063Y102893D01*
X78173Y103028D01*
X78186Y103052D01*
X78202Y103073D01*
X78280Y103230D01*
X78362Y103384D01*
X78370Y103409D01*
X78382Y103434D01*
X78427Y103603D01*
X78477Y103770D01*
X78479Y103796D01*
X78486Y103822D01*
X78513Y104153D01*
X78513Y106297D01*
X79132Y107791D01*
X83979Y112638D01*
X84343Y112789D01*
X84363Y112799D01*
X84384Y112806D01*
X84540Y112895D01*
X84698Y112979D01*
X84715Y112993D01*
X84735Y113004D01*
X84871Y113121D01*
X85009Y113235D01*
X85023Y113253D01*
X85040Y113267D01*
X85149Y113408D01*
X85262Y113548D01*
X85273Y113568D01*
X85286Y113585D01*
X85366Y113746D01*
X85449Y113905D01*
X85456Y113926D01*
X85466Y113946D01*
X85512Y114119D01*
X85562Y114291D01*
X85564Y114313D01*
X85570Y114335D01*
X85597Y114666D01*
X85597Y116220D01*
X87067Y119768D01*
X89782Y122483D01*
X93330Y123953D01*
X97170Y123953D01*
X100718Y122483D01*
X103433Y119768D01*
X104903Y116220D01*
X104903Y112380D01*
X103433Y108832D01*
X100718Y106117D01*
X97170Y104647D01*
X93330Y104647D01*
X92338Y105058D01*
X92313Y105066D01*
X92289Y105078D01*
X92120Y105124D01*
X91953Y105175D01*
X91926Y105177D01*
X91900Y105184D01*
X91726Y105196D01*
X91552Y105213D01*
X91525Y105210D01*
X91499Y105212D01*
X91326Y105189D01*
X91151Y105171D01*
X91126Y105163D01*
X91099Y105160D01*
X90999Y105127D01*
X88806Y105127D01*
X88780Y105125D01*
X88753Y105127D01*
X88579Y105105D01*
X88406Y105087D01*
X88380Y105080D01*
X88354Y105076D01*
X88188Y105021D01*
X88021Y104969D01*
X87997Y104956D01*
X87972Y104948D01*
X87820Y104861D01*
X87667Y104777D01*
X87646Y104760D01*
X87623Y104747D01*
X87370Y104532D01*
X87238Y104400D01*
X87221Y104379D01*
X87200Y104362D01*
X87093Y104223D01*
X86983Y104088D01*
X86970Y104065D01*
X86954Y104044D01*
X86876Y103887D01*
X86794Y103733D01*
X86786Y103707D01*
X86774Y103683D01*
X86729Y103514D01*
X86679Y103347D01*
X86677Y103320D01*
X86670Y103294D01*
X86643Y102964D01*
X86643Y100819D01*
X86024Y99326D01*
X79214Y92515D01*
X77915Y91977D01*
X77904Y91971D01*
X77891Y91967D01*
X77726Y91876D01*
X77560Y91787D01*
X77550Y91779D01*
X77538Y91772D01*
X77396Y91651D01*
X77250Y91531D01*
X77242Y91520D01*
X77231Y91512D01*
X77115Y91364D01*
X76996Y91218D01*
X76990Y91206D01*
X76982Y91196D01*
X76896Y91027D01*
X76809Y90862D01*
X76806Y90849D01*
X76799Y90837D01*
X76749Y90655D01*
X76696Y90475D01*
X76695Y90462D01*
X76691Y90449D01*
X76678Y90260D01*
X76662Y90074D01*
X76663Y90061D01*
X76662Y90048D01*
X76686Y89859D01*
X76707Y89674D01*
X76711Y89661D01*
X76712Y89648D01*
X76772Y89469D01*
X76830Y89291D01*
X76836Y89279D01*
X76841Y89266D01*
X76935Y89103D01*
X77026Y88939D01*
X77035Y88929D01*
X77042Y88918D01*
X77256Y88665D01*
X154149Y11772D01*
X154170Y11755D01*
X154187Y11734D01*
X154325Y11627D01*
X154461Y11517D01*
X154484Y11504D01*
X154505Y11488D01*
X154662Y11410D01*
X154816Y11328D01*
X154842Y11320D01*
X154866Y11308D01*
X155035Y11263D01*
X155202Y11213D01*
X155229Y11211D01*
X155255Y11204D01*
X155585Y11177D01*
X159332Y11177D01*
X159340Y11178D01*
X159349Y11177D01*
X159543Y11198D01*
X159732Y11217D01*
X159741Y11219D01*
X159750Y11220D01*
X159935Y11279D01*
X160117Y11335D01*
X160125Y11339D01*
X160133Y11342D01*
X160303Y11435D01*
X160471Y11527D01*
X160478Y11532D01*
X160486Y11537D01*
X160633Y11661D01*
X160780Y11784D01*
X160786Y11791D01*
X160793Y11797D01*
X160912Y11949D01*
X161033Y12098D01*
X161037Y12106D01*
X161042Y12113D01*
X161130Y12286D01*
X161218Y12455D01*
X161221Y12464D01*
X161225Y12472D01*
X161276Y12658D01*
X161330Y12842D01*
X161330Y12851D01*
X161333Y12860D01*
X161347Y13053D01*
X161362Y13244D01*
X161361Y13252D01*
X161362Y13261D01*
X161338Y13454D01*
X161316Y13643D01*
X161313Y13652D01*
X161312Y13661D01*
X161250Y13844D01*
X161191Y14026D01*
X161186Y14034D01*
X161183Y14042D01*
X161087Y14209D01*
X160993Y14377D01*
X160987Y14384D01*
X160983Y14391D01*
X160768Y14644D01*
X142350Y33062D01*
X141731Y34556D01*
X141731Y61229D01*
X141729Y61256D01*
X141731Y61282D01*
X141709Y61456D01*
X141691Y61630D01*
X141684Y61655D01*
X141680Y61682D01*
X141625Y61847D01*
X141573Y62014D01*
X141560Y62038D01*
X141552Y62063D01*
X141465Y62215D01*
X141381Y62369D01*
X141364Y62389D01*
X141351Y62412D01*
X141136Y62665D01*
X128508Y75293D01*
X128498Y75302D01*
X128489Y75312D01*
X128342Y75429D01*
X128197Y75548D01*
X128185Y75555D01*
X128175Y75563D01*
X128008Y75649D01*
X127841Y75737D01*
X127828Y75741D01*
X127816Y75747D01*
X127636Y75798D01*
X127455Y75852D01*
X127442Y75853D01*
X127429Y75856D01*
X127243Y75871D01*
X127054Y75888D01*
X127041Y75887D01*
X127028Y75888D01*
X126843Y75865D01*
X126654Y75845D01*
X126641Y75841D01*
X126628Y75839D01*
X126451Y75780D01*
X126270Y75723D01*
X126258Y75717D01*
X126246Y75712D01*
X126083Y75619D01*
X125918Y75528D01*
X125908Y75520D01*
X125896Y75513D01*
X125754Y75389D01*
X125611Y75268D01*
X125603Y75257D01*
X125593Y75249D01*
X125478Y75099D01*
X125361Y74952D01*
X125355Y74940D01*
X125347Y74929D01*
X125196Y74634D01*
X124718Y73482D01*
X123368Y72132D01*
X121605Y71401D01*
X119695Y71401D01*
X117932Y72132D01*
X116582Y73482D01*
X115851Y75245D01*
X115851Y77155D01*
X115875Y77212D01*
X115882Y77234D01*
X115892Y77254D01*
X115940Y77427D01*
X115992Y77598D01*
X115994Y77620D01*
X116000Y77641D01*
X116013Y77821D01*
X116030Y77999D01*
X116028Y78021D01*
X116029Y78043D01*
X116007Y78221D01*
X115988Y78399D01*
X115982Y78420D01*
X115979Y78442D01*
X115922Y78612D01*
X115868Y78783D01*
X115858Y78803D01*
X115851Y78824D01*
X115761Y78980D01*
X115675Y79137D01*
X115661Y79154D01*
X115650Y79173D01*
X115435Y79426D01*
X104532Y90329D01*
X103913Y91823D01*
X103913Y98677D01*
X104532Y100171D01*
X109379Y105018D01*
X110873Y105637D01*
X140537Y105637D01*
X142030Y105018D01*
X178461Y68588D01*
X178485Y68568D01*
X178505Y68545D01*
X178640Y68441D01*
X178772Y68333D01*
X178800Y68318D01*
X178824Y68299D01*
X179120Y68148D01*
X180518Y67568D01*
X181868Y66218D01*
X182599Y64455D01*
X182599Y62441D01*
X182600Y62432D01*
X182599Y62423D01*
X182620Y62230D01*
X182639Y62040D01*
X182641Y62032D01*
X182642Y62023D01*
X182701Y61838D01*
X182757Y61655D01*
X182761Y61648D01*
X182764Y61639D01*
X182857Y61471D01*
X182949Y61301D01*
X182954Y61295D01*
X182959Y61287D01*
X183083Y61140D01*
X183206Y60992D01*
X183213Y60987D01*
X183219Y60980D01*
X183371Y60860D01*
X183520Y60740D01*
X183528Y60736D01*
X183535Y60730D01*
X183708Y60642D01*
X183877Y60554D01*
X183886Y60552D01*
X183894Y60548D01*
X184080Y60496D01*
X184264Y60443D01*
X184273Y60442D01*
X184282Y60440D01*
X184475Y60426D01*
X184666Y60410D01*
X184674Y60411D01*
X184683Y60410D01*
X184876Y60435D01*
X185065Y60457D01*
X185074Y60460D01*
X185083Y60461D01*
X185265Y60522D01*
X185448Y60582D01*
X185456Y60586D01*
X185464Y60589D01*
X185631Y60685D01*
X185799Y60780D01*
X185806Y60785D01*
X185813Y60790D01*
X186066Y61005D01*
X200131Y75069D01*
X200151Y75094D01*
X200174Y75114D01*
X200278Y75249D01*
X200386Y75381D01*
X200401Y75408D01*
X200420Y75433D01*
X200571Y75728D01*
X201433Y77808D01*
X202527Y78903D01*
X202539Y78916D01*
X202552Y78928D01*
X202667Y79073D01*
X202783Y79214D01*
X202791Y79230D01*
X202802Y79244D01*
X202885Y79408D01*
X202971Y79570D01*
X202976Y79587D01*
X202984Y79603D01*
X203034Y79780D01*
X203086Y79956D01*
X203088Y79974D01*
X203092Y79991D01*
X203106Y80174D01*
X203122Y80357D01*
X203120Y80375D01*
X203122Y80392D01*
X203099Y80574D01*
X203079Y80757D01*
X203074Y80774D01*
X203071Y80792D01*
X203013Y80965D01*
X202957Y81141D01*
X202949Y81157D01*
X202943Y81173D01*
X202852Y81332D01*
X202763Y81493D01*
X202751Y81507D01*
X202742Y81522D01*
X202527Y81775D01*
X202372Y81930D01*
X202352Y81947D01*
X202334Y81968D01*
X202196Y82075D01*
X202061Y82186D01*
X202037Y82198D01*
X202016Y82214D01*
X201859Y82293D01*
X201705Y82374D01*
X201680Y82382D01*
X201655Y82394D01*
X201486Y82439D01*
X201319Y82489D01*
X201293Y82491D01*
X201267Y82498D01*
X200936Y82525D01*
X200895Y82525D01*
X199028Y83299D01*
X197599Y84728D01*
X196825Y86595D01*
X196825Y88216D01*
X196825Y88225D01*
X196825Y88234D01*
X196805Y88425D01*
X196786Y88617D01*
X196783Y88625D01*
X196782Y88634D01*
X196724Y88818D01*
X196667Y89002D01*
X196663Y89010D01*
X196660Y89018D01*
X196567Y89187D01*
X196476Y89356D01*
X196470Y89363D01*
X196466Y89371D01*
X196340Y89518D01*
X196218Y89665D01*
X196211Y89671D01*
X196205Y89678D01*
X196053Y89798D01*
X195904Y89917D01*
X195896Y89922D01*
X195889Y89927D01*
X195717Y90015D01*
X195547Y90103D01*
X195538Y90105D01*
X195530Y90110D01*
X195345Y90161D01*
X195160Y90214D01*
X195151Y90215D01*
X195142Y90218D01*
X194951Y90232D01*
X194759Y90247D01*
X194750Y90246D01*
X194741Y90247D01*
X194548Y90223D01*
X194359Y90200D01*
X194350Y90198D01*
X194341Y90196D01*
X194159Y90135D01*
X193976Y90076D01*
X193968Y90071D01*
X193960Y90068D01*
X193793Y89973D01*
X193625Y89878D01*
X193619Y89872D01*
X193611Y89867D01*
X193385Y89676D01*
X191511Y88899D01*
X189489Y88899D01*
X187622Y89673D01*
X186193Y91102D01*
X185419Y92969D01*
X185419Y94991D01*
X186193Y96858D01*
X187622Y98287D01*
X189702Y99149D01*
X189729Y99163D01*
X189759Y99173D01*
X189906Y99258D01*
X190056Y99339D01*
X190081Y99359D01*
X190108Y99374D01*
X190361Y99589D01*
X191936Y101165D01*
X191953Y101185D01*
X191974Y101203D01*
X192081Y101341D01*
X192191Y101476D01*
X192204Y101500D01*
X192220Y101521D01*
X192298Y101677D01*
X192380Y101832D01*
X192388Y101858D01*
X192400Y101882D01*
X192445Y102050D01*
X192495Y102218D01*
X192497Y102244D01*
X192504Y102270D01*
X192531Y102601D01*
X192531Y107684D01*
X193150Y109178D01*
X201305Y117333D01*
X202551Y118579D01*
X202556Y118586D01*
X202563Y118591D01*
X202684Y118741D01*
X202806Y118890D01*
X202810Y118898D01*
X202816Y118905D01*
X202904Y119075D01*
X202995Y119246D01*
X202997Y119255D01*
X203001Y119262D01*
X203054Y119447D01*
X203109Y119632D01*
X203110Y119641D01*
X203113Y119649D01*
X203128Y119840D01*
X203146Y120033D01*
X203145Y120042D01*
X203145Y120051D01*
X203123Y120240D01*
X203102Y120433D01*
X203100Y120442D01*
X203099Y120450D01*
X203039Y120632D01*
X202981Y120817D01*
X202976Y120825D01*
X202974Y120833D01*
X202879Y121000D01*
X202786Y121169D01*
X202780Y121176D01*
X202776Y121184D01*
X202651Y121328D01*
X202525Y121476D01*
X202518Y121482D01*
X202513Y121489D01*
X202362Y121605D01*
X202210Y121726D01*
X202202Y121730D01*
X202195Y121735D01*
X202024Y121820D01*
X201851Y121908D01*
X201842Y121911D01*
X201834Y121915D01*
X201648Y121964D01*
X201463Y122016D01*
X201454Y122017D01*
X201445Y122019D01*
X201115Y122046D01*
X127080Y122046D01*
X125587Y122665D01*
X124157Y124094D01*
X101461Y146791D01*
X101436Y146811D01*
X101416Y146834D01*
X101281Y146938D01*
X101149Y147046D01*
X101122Y147061D01*
X101097Y147080D01*
X100802Y147231D01*
X98722Y148093D01*
X97293Y149522D01*
X96519Y151389D01*
X96519Y153411D01*
X97293Y155278D01*
X98722Y156707D01*
X100589Y157481D01*
X102611Y157481D01*
X104478Y156707D01*
X105907Y155278D01*
X106073Y154877D01*
X106078Y154869D01*
X106080Y154860D01*
X106172Y154692D01*
X106264Y154522D01*
X106269Y154515D01*
X106274Y154507D01*
X106397Y154360D01*
X106520Y154212D01*
X106527Y154206D01*
X106533Y154199D01*
X106684Y154078D01*
X106833Y153958D01*
X106841Y153954D01*
X106848Y153948D01*
X107020Y153860D01*
X107189Y153771D01*
X107198Y153768D01*
X107206Y153764D01*
X107391Y153712D01*
X107576Y153658D01*
X107584Y153657D01*
X107593Y153655D01*
X107785Y153640D01*
X107977Y153623D01*
X107986Y153624D01*
X107995Y153623D01*
X108187Y153647D01*
X108377Y153668D01*
X108385Y153671D01*
X108394Y153672D01*
X108577Y153733D01*
X108760Y153791D01*
X108768Y153796D01*
X108776Y153799D01*
X108943Y153894D01*
X109112Y153988D01*
X109118Y153994D01*
X109126Y153998D01*
X109271Y154124D01*
X109417Y154250D01*
X109423Y154257D01*
X109430Y154263D01*
X109547Y154415D01*
X109666Y154567D01*
X109670Y154575D01*
X109675Y154582D01*
X109827Y154877D01*
X109993Y155278D01*
X111422Y156707D01*
X113502Y157569D01*
X113529Y157583D01*
X113559Y157593D01*
X113706Y157678D01*
X113856Y157759D01*
X113880Y157779D01*
X113908Y157794D01*
X114161Y158009D01*
X123522Y167371D01*
X124952Y168800D01*
X126445Y169419D01*
X194044Y169419D01*
X195878Y168659D01*
X195908Y168650D01*
X195936Y168636D01*
X196101Y168592D01*
X196264Y168543D01*
X196295Y168540D01*
X196325Y168531D01*
X196655Y168504D01*
X266848Y168504D01*
X268342Y167886D01*
X269771Y166457D01*
X269771Y166456D01*
X271520Y164708D01*
X271541Y164691D01*
X271558Y164670D01*
X271696Y164564D01*
X271832Y164453D01*
X271855Y164440D01*
X271876Y164424D01*
X272033Y164346D01*
X272187Y164264D01*
X272213Y164256D01*
X272237Y164244D01*
X272406Y164199D01*
X272573Y164149D01*
X272600Y164147D01*
X272626Y164140D01*
X272956Y164113D01*
X407764Y164113D01*
X407790Y164115D01*
X407817Y164113D01*
X407991Y164135D01*
X408164Y164153D01*
X408190Y164160D01*
X408216Y164164D01*
X408382Y164219D01*
X408549Y164271D01*
X408573Y164284D01*
X408598Y164292D01*
X408750Y164379D01*
X408903Y164463D01*
X408924Y164480D01*
X408947Y164493D01*
X409200Y164708D01*
X413292Y168800D01*
X414786Y169419D01*
X473979Y169419D01*
X473988Y169420D01*
X473997Y169419D01*
X474189Y169440D01*
X474380Y169459D01*
X474388Y169461D01*
X474397Y169462D01*
X474579Y169520D01*
X474765Y169577D01*
X474772Y169581D01*
X474781Y169584D01*
X474949Y169677D01*
X475119Y169769D01*
X475125Y169774D01*
X475133Y169779D01*
X475281Y169904D01*
X475428Y170026D01*
X475433Y170033D01*
X475440Y170039D01*
X475560Y170190D01*
X475680Y170340D01*
X475684Y170348D01*
X475690Y170355D01*
X475777Y170526D01*
X475866Y170697D01*
X475868Y170706D01*
X475872Y170714D01*
X475924Y170899D01*
X475977Y171084D01*
X475978Y171093D01*
X475980Y171102D01*
X475994Y171293D01*
X476010Y171486D01*
X476009Y171494D01*
X476010Y171503D01*
X475985Y171694D01*
X475963Y171885D01*
X475960Y171894D01*
X475959Y171903D01*
X475898Y172084D01*
X475838Y172268D01*
X475834Y172276D01*
X475831Y172284D01*
X475736Y172450D01*
X475640Y172619D01*
X475634Y172626D01*
X475630Y172633D01*
X475415Y172886D01*
X474268Y174033D01*
X466881Y181421D01*
X466860Y181438D01*
X466843Y181458D01*
X466705Y181565D01*
X466569Y181676D01*
X466546Y181688D01*
X466525Y181705D01*
X466368Y181783D01*
X466214Y181864D01*
X466188Y181872D01*
X466164Y181884D01*
X465995Y181929D01*
X465828Y181979D01*
X465801Y181982D01*
X465775Y181989D01*
X465445Y182016D01*
X413872Y182016D01*
X412378Y182634D01*
X410949Y184064D01*
X410470Y184542D01*
X410449Y184559D01*
X410432Y184580D01*
X410294Y184687D01*
X410158Y184797D01*
X410135Y184810D01*
X410114Y184826D01*
X409957Y184904D01*
X409803Y184986D01*
X409777Y184994D01*
X409753Y185006D01*
X409584Y185051D01*
X409417Y185101D01*
X409390Y185103D01*
X409364Y185110D01*
X409034Y185137D01*
X115527Y185137D01*
X115500Y185135D01*
X115474Y185137D01*
X115300Y185115D01*
X115126Y185097D01*
X115101Y185090D01*
X115074Y185086D01*
X114909Y185031D01*
X114742Y184979D01*
X114718Y184966D01*
X114693Y184958D01*
X114541Y184871D01*
X114387Y184787D01*
X114367Y184770D01*
X114344Y184757D01*
X114091Y184542D01*
X69109Y139561D01*
X69089Y139536D01*
X69066Y139516D01*
X68962Y139381D01*
X68854Y139249D01*
X68839Y139222D01*
X68820Y139197D01*
X68669Y138902D01*
X67807Y136822D01*
X66733Y135748D01*
X66722Y135734D01*
X66708Y135723D01*
X66594Y135578D01*
X66478Y135437D01*
X66470Y135421D01*
X66459Y135407D01*
X66376Y135244D01*
X66290Y135081D01*
X66285Y135064D01*
X66276Y135048D01*
X66227Y134871D01*
X66175Y134695D01*
X66173Y134677D01*
X66168Y134660D01*
X66155Y134477D01*
X66138Y134294D01*
X66140Y134276D01*
X66139Y134258D01*
X66162Y134077D01*
X66182Y133894D01*
X66187Y133877D01*
X66190Y133859D01*
X66248Y133686D01*
X66303Y133510D01*
X66312Y133494D01*
X66318Y133477D01*
X66409Y133319D01*
X66498Y133158D01*
X66510Y133144D01*
X66519Y133128D01*
X66733Y132875D01*
X67184Y132425D01*
X67184Y130944D01*
X67186Y130918D01*
X67184Y130891D01*
X67206Y130717D01*
X67224Y130543D01*
X67231Y130518D01*
X67235Y130491D01*
X67290Y130326D01*
X67342Y130159D01*
X67355Y130135D01*
X67363Y130110D01*
X67450Y129958D01*
X67529Y129813D01*
X67973Y128740D01*
X67978Y128732D01*
X67980Y128724D01*
X68073Y128553D01*
X68164Y128385D01*
X68169Y128378D01*
X68174Y128370D01*
X68299Y128221D01*
X68420Y128075D01*
X68427Y128069D01*
X68433Y128062D01*
X68583Y127942D01*
X68733Y127821D01*
X68741Y127817D01*
X68748Y127811D01*
X68918Y127724D01*
X69089Y127634D01*
X69098Y127631D01*
X69106Y127627D01*
X69290Y127575D01*
X69476Y127521D01*
X69485Y127520D01*
X69493Y127518D01*
X69684Y127503D01*
X69877Y127486D01*
X69886Y127487D01*
X69894Y127487D01*
X70086Y127510D01*
X70277Y127531D01*
X70285Y127534D01*
X70294Y127535D01*
X70476Y127595D01*
X70660Y127655D01*
X70668Y127659D01*
X70676Y127662D01*
X70842Y127756D01*
X71012Y127851D01*
X71018Y127857D01*
X71026Y127861D01*
X71170Y127987D01*
X71317Y128113D01*
X71323Y128120D01*
X71330Y128126D01*
X71447Y128278D01*
X71566Y128430D01*
X71570Y128438D01*
X71575Y128445D01*
X71727Y128740D01*
X72132Y129718D01*
X73482Y131068D01*
X75245Y131799D01*
X77155Y131799D01*
X78918Y131068D01*
X80268Y129718D01*
X80999Y127955D01*
X80999Y126045D01*
X80268Y124282D01*
X78918Y122932D01*
X77520Y122352D01*
X77492Y122338D01*
X77462Y122328D01*
X77315Y122243D01*
X77165Y122162D01*
X77141Y122142D01*
X77114Y122127D01*
X76861Y121912D01*
X72152Y117204D01*
X70659Y116585D01*
X59675Y116585D01*
X59648Y116583D01*
X59622Y116585D01*
X59448Y116563D01*
X59274Y116545D01*
X59249Y116538D01*
X59222Y116534D01*
X59057Y116479D01*
X58890Y116427D01*
X58866Y116414D01*
X58841Y116406D01*
X58689Y116319D01*
X58535Y116235D01*
X58515Y116218D01*
X58492Y116205D01*
X58239Y115990D01*
X42760Y100511D01*
X42743Y100491D01*
X42722Y100473D01*
X42615Y100335D01*
X42505Y100200D01*
X42492Y100176D01*
X42476Y100155D01*
X42398Y99998D01*
X42316Y99844D01*
X42308Y99819D01*
X42296Y99794D01*
X42251Y99625D01*
X42201Y99458D01*
X42199Y99432D01*
X42192Y99406D01*
X42165Y99075D01*
X42165Y91425D01*
X42167Y91398D01*
X42165Y91372D01*
X42187Y91198D01*
X42205Y91024D01*
X42212Y90999D01*
X42216Y90972D01*
X42272Y90807D01*
X42323Y90640D01*
X42336Y90616D01*
X42344Y90591D01*
X42431Y90439D01*
X42515Y90285D01*
X42532Y90265D01*
X42545Y90242D01*
X42760Y89989D01*
X45539Y87210D01*
X45559Y87193D01*
X45577Y87172D01*
X45715Y87065D01*
X45850Y86955D01*
X45874Y86942D01*
X45895Y86926D01*
X46052Y86848D01*
X46206Y86766D01*
X46231Y86758D01*
X46256Y86746D01*
X46425Y86701D01*
X46592Y86651D01*
X46618Y86649D01*
X46644Y86642D01*
X46975Y86615D01*
X57959Y86615D01*
X59452Y85996D01*
X60882Y84567D01*
X121311Y24138D01*
X121335Y24118D01*
X121355Y24095D01*
X121490Y23991D01*
X121622Y23883D01*
X121650Y23868D01*
X121674Y23849D01*
X121970Y23698D01*
X123368Y23118D01*
X124718Y21768D01*
X125449Y20005D01*
X125449Y18095D01*
X124718Y16332D01*
X123368Y14982D01*
X121605Y14251D01*
X119695Y14251D01*
X117932Y14982D01*
X116582Y16332D01*
X116002Y17730D01*
X115988Y17758D01*
X115978Y17788D01*
X115893Y17935D01*
X115812Y18085D01*
X115792Y18109D01*
X115777Y18136D01*
X115562Y18389D01*
X56061Y77890D01*
X56041Y77907D01*
X56023Y77928D01*
X55885Y78035D01*
X55750Y78145D01*
X55726Y78158D01*
X55705Y78174D01*
X55548Y78252D01*
X55394Y78334D01*
X55369Y78342D01*
X55344Y78354D01*
X55175Y78399D01*
X55008Y78449D01*
X54982Y78451D01*
X54956Y78458D01*
X54625Y78485D01*
X43641Y78485D01*
X42148Y79104D01*
X34654Y86598D01*
X34035Y88091D01*
X34035Y102409D01*
X34654Y103902D01*
X54848Y124096D01*
X56341Y124715D01*
X56670Y124715D01*
X56688Y124717D01*
X56706Y124715D01*
X56888Y124736D01*
X57071Y124755D01*
X57088Y124760D01*
X57105Y124762D01*
X57280Y124819D01*
X57456Y124873D01*
X57471Y124881D01*
X57488Y124887D01*
X57648Y124977D01*
X57810Y125065D01*
X57823Y125076D01*
X57839Y125085D01*
X57978Y125205D01*
X58119Y125322D01*
X58130Y125336D01*
X58144Y125348D01*
X58256Y125493D01*
X58371Y125636D01*
X58379Y125652D01*
X58390Y125666D01*
X58472Y125831D01*
X58557Y125993D01*
X58562Y126010D01*
X58570Y126026D01*
X58617Y126205D01*
X58668Y126380D01*
X58670Y126398D01*
X58674Y126415D01*
X58701Y126746D01*
X58701Y127955D01*
X58924Y128492D01*
X58930Y128514D01*
X58941Y128534D01*
X58989Y128707D01*
X59040Y128878D01*
X59043Y128900D01*
X59049Y128921D01*
X59062Y129101D01*
X59079Y129279D01*
X59076Y129301D01*
X59078Y129323D01*
X59055Y129501D01*
X59037Y129679D01*
X59030Y129700D01*
X59028Y129722D01*
X58971Y129892D01*
X58917Y130063D01*
X58906Y130083D01*
X58899Y130104D01*
X58810Y130259D01*
X58724Y130417D01*
X58710Y130434D01*
X58698Y130453D01*
X58484Y130706D01*
X53593Y135596D01*
X53593Y143804D01*
X110450Y200661D01*
X214135Y200661D01*
X214161Y200663D01*
X214188Y200661D01*
X214362Y200683D01*
X214535Y200701D01*
X214561Y200708D01*
X214588Y200712D01*
X214753Y200768D01*
X214920Y200819D01*
X214944Y200831D01*
X214969Y200840D01*
X215121Y200927D01*
X215274Y201011D01*
X215295Y201028D01*
X215318Y201041D01*
X215571Y201256D01*
X217123Y202808D01*
X217129Y202815D01*
X217136Y202820D01*
X217257Y202971D01*
X217378Y203119D01*
X217382Y203127D01*
X217388Y203134D01*
X217476Y203304D01*
X217567Y203475D01*
X217569Y203484D01*
X217573Y203491D01*
X217626Y203675D01*
X217682Y203861D01*
X217682Y203870D01*
X217685Y203878D01*
X217701Y204069D01*
X217718Y204262D01*
X217717Y204271D01*
X217718Y204280D01*
X217696Y204469D01*
X217675Y204662D01*
X217672Y204671D01*
X217671Y204679D01*
X217611Y204861D01*
X217553Y205046D01*
X217549Y205054D01*
X217546Y205062D01*
X217452Y205229D01*
X217358Y205398D01*
X217352Y205405D01*
X217348Y205413D01*
X217223Y205558D01*
X217098Y205705D01*
X217091Y205711D01*
X217085Y205718D01*
X216934Y205834D01*
X216782Y205955D01*
X216774Y205959D01*
X216767Y205964D01*
X216596Y206049D01*
X216423Y206137D01*
X216414Y206140D01*
X216406Y206144D01*
X216221Y206193D01*
X216035Y206245D01*
X216026Y206246D01*
X216018Y206248D01*
X215687Y206275D01*
X105042Y206275D01*
X105011Y206272D01*
X104980Y206274D01*
X104812Y206252D01*
X104642Y206235D01*
X104612Y206226D01*
X104581Y206222D01*
X104550Y206212D01*
X102383Y206212D01*
X102301Y206237D01*
X102270Y206240D01*
X102240Y206248D01*
X101950Y206272D01*
X101934Y206290D01*
X101799Y206394D01*
X101667Y206501D01*
X101640Y206516D01*
X101615Y206535D01*
X101320Y206687D01*
X100598Y206986D01*
X99168Y208415D01*
X98395Y210282D01*
X98395Y212304D01*
X99168Y214171D01*
X100598Y215600D01*
X101078Y215799D01*
X101094Y215808D01*
X101111Y215813D01*
X101272Y215903D01*
X101433Y215990D01*
X101447Y216001D01*
X101463Y216010D01*
X101602Y216129D01*
X101744Y216246D01*
X101755Y216260D01*
X101769Y216272D01*
X101882Y216417D01*
X101997Y216559D01*
X102006Y216574D01*
X102017Y216589D01*
X102099Y216753D01*
X102185Y216915D01*
X102190Y216932D01*
X102198Y216948D01*
X102246Y217125D01*
X102298Y217302D01*
X102299Y217319D01*
X102304Y217337D01*
X102316Y217520D01*
X102332Y217703D01*
X102330Y217720D01*
X102331Y217738D01*
X102308Y217921D01*
X102287Y218103D01*
X102282Y218120D01*
X102279Y218138D01*
X102178Y218453D01*
X101564Y219934D01*
X101564Y221956D01*
X102338Y223823D01*
X103767Y225252D01*
X105634Y226026D01*
X105791Y226026D01*
X105809Y226028D01*
X105827Y226026D01*
X106009Y226048D01*
X106192Y226066D01*
X106209Y226071D01*
X106226Y226073D01*
X106401Y226130D01*
X106577Y226184D01*
X106592Y226192D01*
X106609Y226198D01*
X106769Y226288D01*
X106931Y226376D01*
X106944Y226387D01*
X106960Y226396D01*
X107099Y226516D01*
X107240Y226633D01*
X107251Y226647D01*
X107265Y226659D01*
X107377Y226804D01*
X107492Y226947D01*
X107500Y226963D01*
X107511Y226977D01*
X107593Y227142D01*
X107678Y227304D01*
X107683Y227321D01*
X107691Y227338D01*
X107738Y227516D01*
X107789Y227691D01*
X107791Y227709D01*
X107795Y227726D01*
X107822Y228057D01*
X107822Y229348D01*
X108596Y231215D01*
X110025Y232644D01*
X111892Y233418D01*
X113914Y233418D01*
X115052Y232946D01*
X115082Y232937D01*
X115110Y232923D01*
X115274Y232879D01*
X115437Y232830D01*
X115468Y232827D01*
X115499Y232819D01*
X115829Y232792D01*
X117222Y232792D01*
X117227Y232792D01*
X117231Y232792D01*
X117426Y232812D01*
X117623Y232832D01*
X117627Y232833D01*
X117632Y232833D01*
X117818Y232892D01*
X118008Y232950D01*
X118012Y232952D01*
X118016Y232953D01*
X118188Y233047D01*
X118362Y233142D01*
X118365Y233144D01*
X118369Y233147D01*
X118522Y233275D01*
X118671Y233399D01*
X118674Y233403D01*
X118678Y233406D01*
X118801Y233561D01*
X118924Y233713D01*
X118926Y233717D01*
X118928Y233721D01*
X119019Y233898D01*
X119109Y234070D01*
X119110Y234075D01*
X119112Y234079D01*
X119167Y234270D01*
X119221Y234457D01*
X119221Y234462D01*
X119222Y234466D01*
X119237Y234661D01*
X119253Y234859D01*
X119253Y234863D01*
X119253Y234867D01*
X119230Y235062D01*
X119206Y235258D01*
X119205Y235263D01*
X119205Y235267D01*
X119143Y235454D01*
X119082Y235641D01*
X119079Y235645D01*
X119078Y235649D01*
X118980Y235821D01*
X118884Y235992D01*
X118881Y235995D01*
X118879Y235999D01*
X118749Y236147D01*
X118621Y236296D01*
X118617Y236299D01*
X118614Y236303D01*
X118458Y236422D01*
X118302Y236543D01*
X118298Y236545D01*
X118295Y236548D01*
X118000Y236700D01*
X117292Y236993D01*
X115863Y238422D01*
X115089Y240289D01*
X115089Y242311D01*
X115863Y244178D01*
X117292Y245607D01*
X119159Y246381D01*
X119614Y246381D01*
X119645Y246384D01*
X119676Y246382D01*
X119845Y246404D01*
X120015Y246421D01*
X120045Y246430D01*
X120076Y246434D01*
X120392Y246535D01*
X120631Y246635D01*
X189245Y246635D01*
X189272Y246637D01*
X189298Y246635D01*
X189472Y246657D01*
X189646Y246675D01*
X189671Y246682D01*
X189698Y246686D01*
X189863Y246741D01*
X190030Y246793D01*
X190054Y246806D01*
X190079Y246814D01*
X190231Y246901D01*
X190385Y246985D01*
X190405Y247002D01*
X190428Y247015D01*
X190681Y247230D01*
X196011Y252559D01*
X196019Y252569D01*
X196029Y252578D01*
X196146Y252725D01*
X196266Y252870D01*
X196272Y252882D01*
X196280Y252893D01*
X196366Y253060D01*
X196454Y253226D01*
X196458Y253239D01*
X196464Y253251D01*
X196515Y253431D01*
X196569Y253612D01*
X196570Y253625D01*
X196574Y253638D01*
X196588Y253824D01*
X196605Y254013D01*
X196604Y254026D01*
X196605Y254040D01*
X196583Y254224D01*
X196562Y254413D01*
X196558Y254426D01*
X196556Y254439D01*
X196498Y254617D01*
X196441Y254797D01*
X196434Y254809D01*
X196430Y254822D01*
X196336Y254986D01*
X196246Y255149D01*
X196237Y255160D01*
X196230Y255171D01*
X196107Y255313D01*
X195985Y255456D01*
X195975Y255465D01*
X195966Y255475D01*
X195817Y255590D01*
X195669Y255706D01*
X195657Y255712D01*
X195647Y255720D01*
X195352Y255872D01*
X192032Y257247D01*
X189279Y260000D01*
X189278Y260002D01*
X189186Y260173D01*
X189181Y260180D01*
X189176Y260188D01*
X189052Y260336D01*
X188930Y260483D01*
X188923Y260489D01*
X188917Y260496D01*
X188766Y260616D01*
X188617Y260737D01*
X188609Y260741D01*
X188602Y260747D01*
X188431Y260834D01*
X188261Y260924D01*
X188252Y260926D01*
X188244Y260930D01*
X188060Y260983D01*
X187874Y261037D01*
X187865Y261038D01*
X187857Y261040D01*
X187665Y261055D01*
X187473Y261072D01*
X187464Y261071D01*
X187455Y261071D01*
X187264Y261048D01*
X187073Y261026D01*
X187065Y261024D01*
X187056Y261023D01*
X186874Y260962D01*
X186690Y260903D01*
X186682Y260899D01*
X186673Y260896D01*
X186507Y260801D01*
X186338Y260707D01*
X186332Y260701D01*
X186324Y260696D01*
X186178Y260570D01*
X186033Y260445D01*
X186027Y260438D01*
X186020Y260432D01*
X185902Y260279D01*
X185784Y260128D01*
X185780Y260120D01*
X185775Y260113D01*
X185713Y259992D01*
X182968Y257247D01*
X180657Y256290D01*
X179420Y255777D01*
X175580Y255777D01*
X172032Y257247D01*
X169317Y259962D01*
X167847Y263510D01*
X167847Y282590D01*
X169317Y286138D01*
X172032Y288853D01*
X175580Y290323D01*
X179420Y290323D01*
X182968Y288853D01*
X185721Y286100D01*
X185723Y286096D01*
X185813Y285928D01*
X185819Y285921D01*
X185824Y285913D01*
X185949Y285763D01*
X186070Y285617D01*
X186077Y285611D01*
X186083Y285604D01*
X186233Y285484D01*
X186382Y285363D01*
X186390Y285359D01*
X186397Y285354D01*
X186570Y285265D01*
X186739Y285176D01*
X186747Y285174D01*
X186756Y285170D01*
X186942Y285117D01*
X187125Y285063D01*
X187134Y285062D01*
X187143Y285060D01*
X187333Y285045D01*
X187526Y285028D01*
X187536Y285029D01*
X187544Y285029D01*
X187734Y285052D01*
X187926Y285074D01*
X187935Y285076D01*
X187944Y285077D01*
X188126Y285138D01*
X188310Y285197D01*
X188318Y285201D01*
X188326Y285204D01*
X188493Y285299D01*
X188661Y285393D01*
X188668Y285399D01*
X188676Y285403D01*
X188820Y285529D01*
X188967Y285655D01*
X188973Y285662D01*
X188980Y285668D01*
X189097Y285821D01*
X189215Y285972D01*
X189219Y285980D01*
X189225Y285987D01*
X189287Y286108D01*
X192032Y288853D01*
X195580Y290323D01*
X199420Y290323D01*
X202968Y288853D01*
X205721Y286100D01*
X205723Y286096D01*
X205813Y285928D01*
X205819Y285921D01*
X205824Y285913D01*
X205949Y285763D01*
X206070Y285617D01*
X206077Y285611D01*
X206083Y285604D01*
X206233Y285484D01*
X206382Y285363D01*
X206390Y285359D01*
X206397Y285354D01*
X206570Y285265D01*
X206739Y285176D01*
X206747Y285174D01*
X206756Y285170D01*
X206942Y285117D01*
X207125Y285063D01*
X207134Y285062D01*
X207143Y285060D01*
X207333Y285045D01*
X207526Y285028D01*
X207536Y285029D01*
X207544Y285029D01*
X207734Y285052D01*
X207926Y285074D01*
X207935Y285076D01*
X207944Y285077D01*
X208126Y285138D01*
X208310Y285197D01*
X208318Y285201D01*
X208326Y285204D01*
X208493Y285299D01*
X208661Y285393D01*
X208668Y285399D01*
X208676Y285403D01*
X208820Y285529D01*
X208967Y285655D01*
X208973Y285662D01*
X208980Y285668D01*
X209097Y285821D01*
X209215Y285972D01*
X209219Y285980D01*
X209225Y285987D01*
X209287Y286108D01*
X212032Y288853D01*
X215580Y290323D01*
X219420Y290323D01*
X222968Y288853D01*
X225721Y286100D01*
X225723Y286096D01*
X225813Y285928D01*
X225819Y285921D01*
X225824Y285913D01*
X225949Y285763D01*
X226070Y285617D01*
X226077Y285611D01*
X226083Y285604D01*
X226233Y285484D01*
X226382Y285363D01*
X226390Y285359D01*
X226397Y285354D01*
X226570Y285265D01*
X226739Y285176D01*
X226747Y285174D01*
X226756Y285170D01*
X226942Y285117D01*
X227125Y285063D01*
X227134Y285062D01*
X227143Y285060D01*
X227333Y285045D01*
X227526Y285028D01*
X227536Y285029D01*
X227544Y285029D01*
X227734Y285052D01*
X227926Y285074D01*
X227935Y285076D01*
X227944Y285077D01*
X228126Y285138D01*
X228310Y285197D01*
X228318Y285201D01*
X228326Y285204D01*
X228493Y285299D01*
X228661Y285393D01*
X228668Y285399D01*
X228676Y285403D01*
X228820Y285529D01*
X228967Y285655D01*
X228973Y285662D01*
X228980Y285668D01*
X229097Y285821D01*
X229215Y285972D01*
X229219Y285980D01*
X229225Y285987D01*
X229287Y286108D01*
X232032Y288853D01*
X235580Y290323D01*
X239420Y290323D01*
X242968Y288853D01*
X245721Y286100D01*
X245723Y286096D01*
X245813Y285928D01*
X245819Y285921D01*
X245824Y285913D01*
X245949Y285763D01*
X246070Y285617D01*
X246077Y285611D01*
X246083Y285604D01*
X246233Y285484D01*
X246382Y285363D01*
X246390Y285359D01*
X246397Y285354D01*
X246570Y285265D01*
X246739Y285176D01*
X246747Y285174D01*
X246756Y285170D01*
X246942Y285117D01*
X247125Y285063D01*
X247134Y285062D01*
X247143Y285060D01*
X247333Y285045D01*
X247526Y285028D01*
X247536Y285029D01*
X247544Y285029D01*
X247734Y285052D01*
X247926Y285074D01*
X247935Y285076D01*
X247944Y285077D01*
X248126Y285138D01*
X248310Y285197D01*
X248318Y285201D01*
X248326Y285204D01*
X248493Y285299D01*
X248661Y285393D01*
X248668Y285399D01*
X248676Y285403D01*
X248820Y285529D01*
X248967Y285655D01*
X248973Y285662D01*
X248980Y285668D01*
X249097Y285821D01*
X249215Y285972D01*
X249219Y285980D01*
X249225Y285987D01*
X249287Y286108D01*
X252032Y288853D01*
X255580Y290323D01*
X259420Y290323D01*
X262968Y288853D01*
X265721Y286100D01*
X265723Y286096D01*
X265813Y285928D01*
X265819Y285921D01*
X265824Y285913D01*
X265949Y285763D01*
X266070Y285617D01*
X266077Y285611D01*
X266083Y285604D01*
X266233Y285484D01*
X266382Y285363D01*
X266390Y285359D01*
X266397Y285354D01*
X266570Y285265D01*
X266739Y285176D01*
X266747Y285174D01*
X266756Y285170D01*
X266942Y285117D01*
X267125Y285063D01*
X267134Y285062D01*
X267143Y285060D01*
X267333Y285045D01*
X267526Y285028D01*
X267536Y285029D01*
X267544Y285029D01*
X267734Y285052D01*
X267926Y285074D01*
X267935Y285076D01*
X267944Y285077D01*
X268126Y285138D01*
X268310Y285197D01*
X268318Y285201D01*
X268326Y285204D01*
X268493Y285299D01*
X268661Y285393D01*
X268668Y285399D01*
X268676Y285403D01*
X268820Y285529D01*
X268967Y285655D01*
X268973Y285662D01*
X268980Y285668D01*
X269097Y285821D01*
X269215Y285972D01*
X269219Y285980D01*
X269225Y285987D01*
X269287Y286108D01*
X272032Y288853D01*
X275580Y290323D01*
X279420Y290323D01*
X282968Y288853D01*
X285721Y286100D01*
X285723Y286096D01*
X285813Y285928D01*
X285819Y285921D01*
X285824Y285913D01*
X285949Y285763D01*
X286070Y285617D01*
X286077Y285611D01*
X286083Y285604D01*
X286233Y285484D01*
X286382Y285363D01*
X286390Y285359D01*
X286397Y285354D01*
X286570Y285265D01*
X286739Y285176D01*
X286747Y285174D01*
X286756Y285170D01*
X286942Y285117D01*
X287125Y285063D01*
X287134Y285062D01*
X287143Y285060D01*
X287333Y285045D01*
X287526Y285028D01*
X287536Y285029D01*
X287544Y285029D01*
X287734Y285052D01*
X287926Y285074D01*
X287935Y285076D01*
X287944Y285077D01*
X288126Y285138D01*
X288310Y285197D01*
X288318Y285201D01*
X288326Y285204D01*
X288493Y285299D01*
X288661Y285393D01*
X288668Y285399D01*
X288676Y285403D01*
X288820Y285529D01*
X288967Y285655D01*
X288973Y285662D01*
X288980Y285668D01*
X289097Y285821D01*
X289215Y285972D01*
X289219Y285980D01*
X289225Y285987D01*
X289287Y286108D01*
X292032Y288853D01*
X295580Y290323D01*
X299420Y290323D01*
X302968Y288853D01*
X305721Y286100D01*
X305723Y286096D01*
X305813Y285928D01*
X305819Y285921D01*
X305824Y285913D01*
X305949Y285763D01*
X306070Y285617D01*
X306077Y285611D01*
X306083Y285604D01*
X306233Y285484D01*
X306382Y285363D01*
X306390Y285359D01*
X306397Y285354D01*
X306570Y285265D01*
X306739Y285176D01*
X306747Y285174D01*
X306756Y285170D01*
X306942Y285117D01*
X307125Y285063D01*
X307134Y285062D01*
X307143Y285060D01*
X307333Y285045D01*
X307526Y285028D01*
X307536Y285029D01*
X307544Y285029D01*
X307734Y285052D01*
X307926Y285074D01*
X307935Y285076D01*
X307944Y285077D01*
X308126Y285138D01*
X308310Y285197D01*
X308318Y285201D01*
X308326Y285204D01*
X308493Y285299D01*
X308661Y285393D01*
X308668Y285399D01*
X308676Y285403D01*
X308820Y285529D01*
X308967Y285655D01*
X308973Y285662D01*
X308980Y285668D01*
X309097Y285821D01*
X309215Y285972D01*
X309219Y285980D01*
X309225Y285987D01*
X309287Y286108D01*
X312032Y288853D01*
X315580Y290323D01*
X319420Y290323D01*
X322968Y288853D01*
X325721Y286100D01*
X325723Y286096D01*
X325813Y285928D01*
X325819Y285921D01*
X325824Y285913D01*
X325949Y285763D01*
X326070Y285617D01*
X326077Y285611D01*
X326083Y285604D01*
X326233Y285484D01*
X326382Y285363D01*
X326390Y285359D01*
X326397Y285354D01*
X326570Y285265D01*
X326739Y285176D01*
X326747Y285174D01*
X326756Y285170D01*
X326942Y285117D01*
X327125Y285063D01*
X327134Y285062D01*
X327143Y285060D01*
X327333Y285045D01*
X327526Y285028D01*
X327536Y285029D01*
X327544Y285029D01*
X327734Y285052D01*
X327926Y285074D01*
X327935Y285076D01*
X327944Y285077D01*
X328126Y285138D01*
X328310Y285197D01*
X328318Y285201D01*
X328326Y285204D01*
X328493Y285299D01*
X328661Y285393D01*
X328668Y285399D01*
X328676Y285403D01*
X328820Y285529D01*
X328967Y285655D01*
X328973Y285662D01*
X328980Y285668D01*
X329097Y285821D01*
X329215Y285972D01*
X329219Y285980D01*
X329225Y285987D01*
X329287Y286108D01*
X332032Y288853D01*
X335580Y290323D01*
X339420Y290323D01*
X342968Y288853D01*
X345721Y286100D01*
X345723Y286096D01*
X345813Y285928D01*
X345819Y285921D01*
X345824Y285913D01*
X345949Y285763D01*
X346070Y285617D01*
X346077Y285611D01*
X346083Y285604D01*
X346233Y285484D01*
X346382Y285363D01*
X346390Y285359D01*
X346397Y285354D01*
X346570Y285265D01*
X346739Y285176D01*
X346747Y285174D01*
X346756Y285170D01*
X346942Y285117D01*
X347125Y285063D01*
X347134Y285062D01*
X347143Y285060D01*
X347333Y285045D01*
X347526Y285028D01*
X347536Y285029D01*
X347544Y285029D01*
X347734Y285052D01*
X347926Y285074D01*
X347935Y285076D01*
X347944Y285077D01*
X348126Y285138D01*
X348310Y285197D01*
X348318Y285201D01*
X348326Y285204D01*
X348493Y285299D01*
X348661Y285393D01*
X348668Y285399D01*
X348676Y285403D01*
X348820Y285529D01*
X348967Y285655D01*
X348973Y285662D01*
X348980Y285668D01*
X349097Y285821D01*
X349215Y285972D01*
X349219Y285980D01*
X349225Y285987D01*
X349287Y286108D01*
X352032Y288853D01*
X355580Y290323D01*
X359420Y290323D01*
X362968Y288853D01*
X365721Y286100D01*
X365723Y286096D01*
X365813Y285928D01*
X365819Y285921D01*
X365824Y285913D01*
X365949Y285763D01*
X366070Y285617D01*
X366077Y285611D01*
X366083Y285604D01*
X366233Y285484D01*
X366382Y285363D01*
X366390Y285359D01*
X366397Y285354D01*
X366570Y285265D01*
X366739Y285176D01*
X366747Y285174D01*
X366756Y285170D01*
X366942Y285117D01*
X367125Y285063D01*
X367134Y285062D01*
X367143Y285060D01*
X367333Y285045D01*
X367526Y285028D01*
X367536Y285029D01*
X367544Y285029D01*
X367734Y285052D01*
X367926Y285074D01*
X367935Y285076D01*
X367944Y285077D01*
X368126Y285138D01*
X368310Y285197D01*
X368318Y285201D01*
X368326Y285204D01*
X368493Y285299D01*
X368661Y285393D01*
X368668Y285399D01*
X368676Y285403D01*
X368820Y285529D01*
X368967Y285655D01*
X368973Y285662D01*
X368980Y285668D01*
X369097Y285821D01*
X369215Y285972D01*
X369219Y285980D01*
X369225Y285987D01*
X369287Y286108D01*
X372032Y288853D01*
X375580Y290323D01*
X379420Y290323D01*
X382968Y288853D01*
X385721Y286100D01*
X385723Y286096D01*
X385813Y285928D01*
X385819Y285921D01*
X385824Y285913D01*
X385949Y285763D01*
X386070Y285617D01*
X386077Y285611D01*
X386083Y285604D01*
X386233Y285484D01*
X386382Y285363D01*
X386390Y285359D01*
X386397Y285354D01*
X386570Y285265D01*
X386739Y285176D01*
X386747Y285174D01*
X386756Y285170D01*
X386942Y285117D01*
X387125Y285063D01*
X387134Y285062D01*
X387143Y285060D01*
X387333Y285045D01*
X387526Y285028D01*
X387536Y285029D01*
X387544Y285029D01*
X387734Y285052D01*
X387926Y285074D01*
X387935Y285076D01*
X387944Y285077D01*
X388126Y285138D01*
X388310Y285197D01*
X388318Y285201D01*
X388326Y285204D01*
X388493Y285299D01*
X388661Y285393D01*
X388668Y285399D01*
X388676Y285403D01*
X388820Y285529D01*
X388967Y285655D01*
X388973Y285662D01*
X388980Y285668D01*
X389097Y285821D01*
X389215Y285972D01*
X389219Y285980D01*
X389225Y285987D01*
X389287Y286108D01*
X392032Y288853D01*
X395580Y290323D01*
X399420Y290323D01*
X402968Y288853D01*
X405721Y286100D01*
X405723Y286096D01*
X405813Y285928D01*
X405819Y285921D01*
X405824Y285913D01*
X405949Y285763D01*
X406070Y285617D01*
X406077Y285611D01*
X406083Y285604D01*
X406233Y285484D01*
X406382Y285363D01*
X406390Y285359D01*
X406397Y285354D01*
X406570Y285265D01*
X406739Y285176D01*
X406747Y285174D01*
X406756Y285170D01*
X406942Y285117D01*
X407125Y285063D01*
X407134Y285062D01*
X407143Y285060D01*
X407333Y285045D01*
X407526Y285028D01*
X407536Y285029D01*
X407544Y285029D01*
X407734Y285052D01*
X407926Y285074D01*
X407935Y285076D01*
X407944Y285077D01*
X408126Y285138D01*
X408310Y285197D01*
X408318Y285201D01*
X408326Y285204D01*
X408493Y285299D01*
X408661Y285393D01*
X408668Y285399D01*
X408676Y285403D01*
X408820Y285529D01*
X408967Y285655D01*
X408973Y285662D01*
X408980Y285668D01*
X409097Y285821D01*
X409215Y285972D01*
X409219Y285980D01*
X409225Y285987D01*
X409287Y286108D01*
X412032Y288853D01*
X415580Y290323D01*
X419420Y290323D01*
X422968Y288853D01*
X425872Y285949D01*
X426009Y285836D01*
X426144Y285721D01*
X426165Y285709D01*
X426184Y285694D01*
X426340Y285611D01*
X426495Y285524D01*
X426518Y285516D01*
X426540Y285505D01*
X426709Y285454D01*
X426878Y285400D01*
X426902Y285397D01*
X426925Y285390D01*
X427102Y285374D01*
X427278Y285354D01*
X427302Y285356D01*
X427326Y285354D01*
X427502Y285373D01*
X427679Y285388D01*
X427702Y285395D01*
X427727Y285397D01*
X427895Y285451D01*
X428066Y285500D01*
X428087Y285511D01*
X428111Y285519D01*
X428265Y285604D01*
X428423Y285686D01*
X428442Y285702D01*
X428463Y285714D01*
X428598Y285828D01*
X428736Y285939D01*
X428753Y285960D01*
X428770Y285974D01*
X428821Y286038D01*
X428952Y286191D01*
X429750Y287289D01*
X430881Y288420D01*
X432175Y289360D01*
X433600Y290086D01*
X434961Y290529D01*
X434961Y273558D01*
X434962Y273540D01*
X434961Y273523D01*
X434982Y273340D01*
X435001Y273158D01*
X435006Y273141D01*
X435008Y273123D01*
X435033Y273045D01*
X434994Y272908D01*
X434992Y272890D01*
X434988Y272873D01*
X434961Y272542D01*
X434961Y255571D01*
X433600Y256014D01*
X432175Y256740D01*
X430881Y257680D01*
X429750Y258811D01*
X428952Y259909D01*
X428834Y260041D01*
X428720Y260176D01*
X428701Y260191D01*
X428684Y260210D01*
X428542Y260316D01*
X428404Y260426D01*
X428382Y260437D01*
X428362Y260452D01*
X428203Y260528D01*
X428045Y260608D01*
X428021Y260615D01*
X427999Y260625D01*
X427828Y260669D01*
X427657Y260716D01*
X427632Y260718D01*
X427609Y260724D01*
X427433Y260733D01*
X427255Y260746D01*
X427231Y260743D01*
X427207Y260744D01*
X427032Y260717D01*
X426856Y260695D01*
X426833Y260687D01*
X426809Y260684D01*
X426642Y260623D01*
X426474Y260567D01*
X426453Y260555D01*
X426430Y260546D01*
X426279Y260454D01*
X426125Y260366D01*
X426105Y260348D01*
X426086Y260337D01*
X426026Y260282D01*
X425872Y260151D01*
X422968Y257247D01*
X420657Y256290D01*
X419420Y255777D01*
X415580Y255777D01*
X412032Y257247D01*
X409279Y260000D01*
X409278Y260002D01*
X409186Y260173D01*
X409181Y260180D01*
X409176Y260188D01*
X409052Y260336D01*
X408930Y260483D01*
X408923Y260489D01*
X408917Y260496D01*
X408766Y260616D01*
X408617Y260737D01*
X408609Y260741D01*
X408602Y260747D01*
X408431Y260834D01*
X408261Y260924D01*
X408252Y260926D01*
X408244Y260930D01*
X408060Y260983D01*
X407874Y261037D01*
X407865Y261038D01*
X407857Y261040D01*
X407665Y261055D01*
X407473Y261072D01*
X407464Y261071D01*
X407455Y261071D01*
X407264Y261048D01*
X407073Y261026D01*
X407065Y261024D01*
X407056Y261023D01*
X406874Y260962D01*
X406690Y260903D01*
X406682Y260899D01*
X406673Y260896D01*
X406507Y260801D01*
X406338Y260707D01*
X406332Y260701D01*
X406324Y260696D01*
X406178Y260570D01*
X406033Y260445D01*
X406027Y260438D01*
X406020Y260432D01*
X405902Y260279D01*
X405784Y260128D01*
X405780Y260120D01*
X405775Y260113D01*
X405713Y259992D01*
X402968Y257247D01*
X400657Y256290D01*
X399420Y255777D01*
X395580Y255777D01*
X392032Y257247D01*
X389279Y260000D01*
X389278Y260002D01*
X389186Y260173D01*
X389181Y260180D01*
X389176Y260188D01*
X389052Y260336D01*
X388930Y260483D01*
X388923Y260489D01*
X388917Y260496D01*
X388766Y260616D01*
X388617Y260737D01*
X388609Y260741D01*
X388602Y260747D01*
X388431Y260834D01*
X388261Y260924D01*
X388252Y260926D01*
X388244Y260930D01*
X388060Y260983D01*
X387874Y261037D01*
X387865Y261038D01*
X387857Y261040D01*
X387665Y261055D01*
X387473Y261072D01*
X387464Y261071D01*
X387455Y261071D01*
X387264Y261048D01*
X387073Y261026D01*
X387065Y261024D01*
X387056Y261023D01*
X386874Y260962D01*
X386690Y260903D01*
X386682Y260899D01*
X386673Y260896D01*
X386507Y260801D01*
X386338Y260707D01*
X386332Y260701D01*
X386324Y260696D01*
X386178Y260570D01*
X386033Y260445D01*
X386027Y260438D01*
X386020Y260432D01*
X385902Y260279D01*
X385784Y260128D01*
X385780Y260120D01*
X385775Y260113D01*
X385713Y259992D01*
X382968Y257247D01*
X380657Y256290D01*
X379420Y255777D01*
X375580Y255777D01*
X372032Y257247D01*
X369279Y260000D01*
X369278Y260002D01*
X369186Y260173D01*
X369181Y260180D01*
X369176Y260188D01*
X369052Y260336D01*
X368930Y260483D01*
X368923Y260489D01*
X368917Y260496D01*
X368766Y260616D01*
X368617Y260737D01*
X368609Y260741D01*
X368602Y260747D01*
X368431Y260834D01*
X368261Y260924D01*
X368252Y260926D01*
X368244Y260930D01*
X368060Y260983D01*
X367874Y261037D01*
X367865Y261038D01*
X367857Y261040D01*
X367665Y261055D01*
X367473Y261072D01*
X367464Y261071D01*
X367455Y261071D01*
X367264Y261048D01*
X367073Y261026D01*
X367065Y261024D01*
X367056Y261023D01*
X366874Y260962D01*
X366690Y260903D01*
X366682Y260899D01*
X366673Y260896D01*
X366507Y260801D01*
X366338Y260707D01*
X366332Y260701D01*
X366324Y260696D01*
X366178Y260570D01*
X366033Y260445D01*
X366027Y260438D01*
X366020Y260432D01*
X365902Y260279D01*
X365784Y260128D01*
X365780Y260120D01*
X365775Y260113D01*
X365713Y259992D01*
X362968Y257247D01*
X360657Y256290D01*
X359420Y255777D01*
X355580Y255777D01*
X352032Y257247D01*
X349279Y260000D01*
X349278Y260002D01*
X349186Y260173D01*
X349181Y260180D01*
X349176Y260188D01*
X349052Y260336D01*
X348930Y260483D01*
X348923Y260489D01*
X348917Y260496D01*
X348766Y260616D01*
X348617Y260737D01*
X348609Y260741D01*
X348602Y260747D01*
X348431Y260834D01*
X348261Y260924D01*
X348252Y260926D01*
X348244Y260930D01*
X348060Y260983D01*
X347874Y261037D01*
X347865Y261038D01*
X347857Y261040D01*
X347665Y261055D01*
X347473Y261072D01*
X347464Y261071D01*
X347455Y261071D01*
X347264Y261048D01*
X347073Y261026D01*
X347065Y261024D01*
X347056Y261023D01*
X346874Y260962D01*
X346690Y260903D01*
X346682Y260899D01*
X346673Y260896D01*
X346507Y260801D01*
X346338Y260707D01*
X346332Y260701D01*
X346324Y260696D01*
X346178Y260570D01*
X346033Y260445D01*
X346027Y260438D01*
X346020Y260432D01*
X345902Y260279D01*
X345784Y260128D01*
X345780Y260120D01*
X345775Y260113D01*
X345713Y259992D01*
X342968Y257247D01*
X340657Y256290D01*
X339420Y255777D01*
X335580Y255777D01*
X332032Y257247D01*
X329279Y260000D01*
X329278Y260002D01*
X329186Y260173D01*
X329181Y260180D01*
X329176Y260188D01*
X329052Y260336D01*
X328930Y260483D01*
X328923Y260489D01*
X328917Y260496D01*
X328766Y260616D01*
X328617Y260737D01*
X328609Y260741D01*
X328602Y260747D01*
X328431Y260834D01*
X328261Y260924D01*
X328252Y260926D01*
X328244Y260930D01*
X328060Y260983D01*
X327874Y261037D01*
X327865Y261038D01*
X327857Y261040D01*
X327665Y261055D01*
X327473Y261072D01*
X327464Y261071D01*
X327455Y261071D01*
X327264Y261048D01*
X327073Y261026D01*
X327065Y261024D01*
X327056Y261023D01*
X326874Y260962D01*
X326690Y260903D01*
X326682Y260899D01*
X326673Y260896D01*
X326507Y260801D01*
X326338Y260707D01*
X326332Y260701D01*
X326324Y260696D01*
X326178Y260570D01*
X326033Y260445D01*
X326027Y260438D01*
X326020Y260432D01*
X325902Y260279D01*
X325784Y260128D01*
X325780Y260120D01*
X325775Y260113D01*
X325713Y259992D01*
X322968Y257247D01*
X320657Y256290D01*
X319420Y255777D01*
X315580Y255777D01*
X312032Y257247D01*
X309279Y260000D01*
X309278Y260002D01*
X309186Y260173D01*
X309181Y260180D01*
X309176Y260188D01*
X309052Y260336D01*
X308930Y260483D01*
X308923Y260489D01*
X308917Y260496D01*
X308766Y260616D01*
X308617Y260737D01*
X308609Y260741D01*
X308602Y260747D01*
X308431Y260834D01*
X308261Y260924D01*
X308252Y260926D01*
X308244Y260930D01*
X308060Y260983D01*
X307874Y261037D01*
X307865Y261038D01*
X307857Y261040D01*
X307665Y261055D01*
X307473Y261072D01*
X307464Y261071D01*
X307455Y261071D01*
X307264Y261048D01*
X307073Y261026D01*
X307065Y261024D01*
X307056Y261023D01*
X306874Y260962D01*
X306690Y260903D01*
X306682Y260899D01*
X306673Y260896D01*
X306507Y260801D01*
X306338Y260707D01*
X306332Y260701D01*
X306324Y260696D01*
X306178Y260570D01*
X306033Y260445D01*
X306027Y260438D01*
X306020Y260432D01*
X305902Y260279D01*
X305784Y260128D01*
X305780Y260120D01*
X305775Y260113D01*
X305713Y259992D01*
X302968Y257247D01*
X300657Y256290D01*
X299420Y255777D01*
X295580Y255777D01*
X292032Y257247D01*
X289279Y260000D01*
X289278Y260002D01*
X289186Y260173D01*
X289181Y260180D01*
X289176Y260188D01*
X289052Y260336D01*
X288930Y260483D01*
X288923Y260489D01*
X288917Y260496D01*
X288766Y260616D01*
X288617Y260737D01*
X288609Y260741D01*
X288602Y260747D01*
X288431Y260834D01*
X288261Y260924D01*
X288252Y260926D01*
X288244Y260930D01*
X288060Y260983D01*
X287874Y261037D01*
X287865Y261038D01*
X287857Y261040D01*
X287665Y261055D01*
X287473Y261072D01*
X287464Y261071D01*
X287455Y261071D01*
X287264Y261048D01*
X287073Y261026D01*
X287065Y261024D01*
X287056Y261023D01*
X286874Y260962D01*
X286690Y260903D01*
X286682Y260899D01*
X286673Y260896D01*
X286507Y260801D01*
X286338Y260707D01*
X286332Y260701D01*
X286324Y260696D01*
X286178Y260570D01*
X286033Y260445D01*
X286027Y260438D01*
X286020Y260432D01*
X285902Y260279D01*
X285784Y260128D01*
X285780Y260120D01*
X285775Y260113D01*
X285713Y259992D01*
X282968Y257247D01*
X280657Y256290D01*
X279420Y255777D01*
X275580Y255777D01*
X274597Y256184D01*
X274576Y256191D01*
X274556Y256201D01*
X274384Y256249D01*
X274212Y256301D01*
X274190Y256303D01*
X274168Y256309D01*
X273989Y256322D01*
X273811Y256339D01*
X273789Y256337D01*
X273767Y256338D01*
X273588Y256316D01*
X273411Y256297D01*
X273389Y256291D01*
X273367Y256288D01*
X273197Y256231D01*
X273026Y256177D01*
X273007Y256167D01*
X272985Y256160D01*
X272830Y256070D01*
X272673Y255984D01*
X272656Y255970D01*
X272637Y255959D01*
X272384Y255744D01*
X259122Y242482D01*
X259116Y242475D01*
X259109Y242470D01*
X258989Y242320D01*
X258867Y242171D01*
X258863Y242163D01*
X258857Y242156D01*
X258768Y241985D01*
X258678Y241815D01*
X258676Y241807D01*
X258672Y241799D01*
X258618Y241613D01*
X258563Y241429D01*
X258563Y241420D01*
X258560Y241412D01*
X258544Y241220D01*
X258527Y241028D01*
X258528Y241019D01*
X258527Y241010D01*
X258549Y240821D01*
X258570Y240628D01*
X258573Y240619D01*
X258574Y240611D01*
X258634Y240429D01*
X258692Y240244D01*
X258696Y240236D01*
X258699Y240228D01*
X258794Y240059D01*
X258887Y239892D01*
X258892Y239885D01*
X258897Y239877D01*
X259023Y239731D01*
X259147Y239585D01*
X259154Y239579D01*
X259160Y239572D01*
X259311Y239455D01*
X259463Y239335D01*
X259471Y239331D01*
X259478Y239326D01*
X259650Y239240D01*
X259822Y239153D01*
X259831Y239150D01*
X259839Y239146D01*
X260025Y239096D01*
X260210Y239045D01*
X260219Y239044D01*
X260227Y239042D01*
X260558Y239015D01*
X492775Y239015D01*
X492802Y239017D01*
X492828Y239015D01*
X493002Y239037D01*
X493176Y239055D01*
X493201Y239062D01*
X493228Y239066D01*
X493393Y239121D01*
X493560Y239173D01*
X493584Y239186D01*
X493609Y239194D01*
X493761Y239281D01*
X493915Y239365D01*
X493935Y239382D01*
X493958Y239395D01*
X494211Y239610D01*
X513515Y258914D01*
X513527Y258928D01*
X513540Y258939D01*
X513654Y259083D01*
X513770Y259225D01*
X513779Y259241D01*
X513790Y259255D01*
X513873Y259419D01*
X513959Y259581D01*
X513964Y259598D01*
X513972Y259614D01*
X514022Y259791D01*
X514074Y259967D01*
X514075Y259985D01*
X514080Y260002D01*
X514094Y260185D01*
X514110Y260368D01*
X514108Y260386D01*
X514110Y260403D01*
X514087Y260585D01*
X514067Y260768D01*
X514061Y260785D01*
X514059Y260803D01*
X514001Y260977D01*
X513945Y261152D01*
X513937Y261168D01*
X513931Y261184D01*
X513839Y261344D01*
X513750Y261504D01*
X513739Y261518D01*
X513730Y261533D01*
X513515Y261786D01*
X506911Y268390D01*
X506891Y268407D01*
X506873Y268428D01*
X506735Y268535D01*
X506600Y268645D01*
X506576Y268658D01*
X506555Y268674D01*
X506398Y268752D01*
X506244Y268834D01*
X506219Y268842D01*
X506194Y268854D01*
X506025Y268899D01*
X505858Y268949D01*
X505832Y268951D01*
X505806Y268958D01*
X505475Y268985D01*
X505422Y268985D01*
X505399Y268983D01*
X505377Y268985D01*
X505200Y268963D01*
X505021Y268945D01*
X505000Y268939D01*
X504977Y268936D01*
X504808Y268880D01*
X504636Y268827D01*
X504616Y268817D01*
X504595Y268810D01*
X504440Y268721D01*
X504282Y268635D01*
X504265Y268621D01*
X504246Y268610D01*
X504111Y268493D01*
X503973Y268378D01*
X503959Y268360D01*
X503942Y268346D01*
X503833Y268204D01*
X503720Y268064D01*
X503710Y268044D01*
X503697Y268026D01*
X503545Y267731D01*
X503483Y267582D01*
X500768Y264867D01*
X497220Y263397D01*
X493380Y263397D01*
X489832Y264867D01*
X487117Y267582D01*
X485647Y271130D01*
X485647Y274970D01*
X487117Y278518D01*
X489832Y281233D01*
X493380Y282703D01*
X497220Y282703D01*
X500768Y281233D01*
X503483Y278518D01*
X503545Y278369D01*
X503555Y278349D01*
X503562Y278328D01*
X503651Y278172D01*
X503735Y278014D01*
X503749Y277997D01*
X503760Y277977D01*
X503877Y277842D01*
X503992Y277703D01*
X504009Y277689D01*
X504023Y277672D01*
X504165Y277563D01*
X504304Y277450D01*
X504324Y277439D01*
X504342Y277426D01*
X504502Y277346D01*
X504661Y277263D01*
X504682Y277256D01*
X504702Y277246D01*
X504875Y277200D01*
X505047Y277150D01*
X505069Y277148D01*
X505091Y277142D01*
X505422Y277115D01*
X508809Y277115D01*
X510302Y276496D01*
X521789Y265010D01*
X521809Y264993D01*
X521827Y264972D01*
X521965Y264865D01*
X522100Y264755D01*
X522124Y264742D01*
X522145Y264726D01*
X522302Y264648D01*
X522456Y264566D01*
X522481Y264558D01*
X522506Y264546D01*
X522675Y264501D01*
X522842Y264451D01*
X522868Y264449D01*
X522894Y264442D01*
X523225Y264415D01*
X552096Y264415D01*
X552127Y264418D01*
X552159Y264416D01*
X552328Y264438D01*
X552497Y264455D01*
X552527Y264464D01*
X552558Y264468D01*
X552874Y264569D01*
X555610Y265703D01*
X574690Y265703D01*
X578238Y264233D01*
X580953Y261518D01*
X582423Y257970D01*
X582423Y254130D01*
X580953Y250582D01*
X578200Y247829D01*
X578197Y247827D01*
X578027Y247736D01*
X578020Y247731D01*
X578012Y247726D01*
X577864Y247602D01*
X577717Y247480D01*
X577711Y247473D01*
X577704Y247467D01*
X577584Y247316D01*
X577463Y247167D01*
X577459Y247159D01*
X577453Y247152D01*
X577365Y246979D01*
X577276Y246811D01*
X577274Y246802D01*
X577270Y246794D01*
X577217Y246610D01*
X577163Y246424D01*
X577162Y246415D01*
X577160Y246407D01*
X577145Y246215D01*
X577128Y246023D01*
X577129Y246014D01*
X577129Y246005D01*
X577152Y245814D01*
X577174Y245623D01*
X577176Y245615D01*
X577177Y245606D01*
X577238Y245424D01*
X577297Y245240D01*
X577301Y245232D01*
X577304Y245223D01*
X577399Y245057D01*
X577493Y244888D01*
X577499Y244882D01*
X577504Y244874D01*
X577630Y244728D01*
X577755Y244583D01*
X577762Y244577D01*
X577768Y244570D01*
X577921Y244452D01*
X578072Y244334D01*
X578080Y244330D01*
X578087Y244325D01*
X578208Y244263D01*
X580953Y241518D01*
X582423Y237970D01*
X582423Y234130D01*
X580953Y230582D01*
X578200Y227829D01*
X578197Y227827D01*
X578027Y227736D01*
X578020Y227731D01*
X578012Y227726D01*
X577864Y227602D01*
X577717Y227480D01*
X577711Y227473D01*
X577704Y227467D01*
X577584Y227316D01*
X577463Y227167D01*
X577459Y227159D01*
X577453Y227152D01*
X577365Y226981D01*
X577276Y226811D01*
X577274Y226802D01*
X577270Y226794D01*
X577217Y226608D01*
X577163Y226424D01*
X577162Y226415D01*
X577160Y226407D01*
X577145Y226215D01*
X577128Y226023D01*
X577129Y226014D01*
X577129Y226005D01*
X577152Y225813D01*
X577174Y225623D01*
X577176Y225615D01*
X577177Y225606D01*
X577239Y225421D01*
X577297Y225240D01*
X577301Y225232D01*
X577304Y225223D01*
X577399Y225057D01*
X577493Y224888D01*
X577499Y224882D01*
X577504Y224874D01*
X577630Y224728D01*
X577755Y224583D01*
X577762Y224577D01*
X577768Y224570D01*
X577921Y224452D01*
X578072Y224334D01*
X578080Y224330D01*
X578087Y224325D01*
X578208Y224263D01*
X580953Y221518D01*
X582423Y217970D01*
X582423Y214130D01*
X580953Y210582D01*
X578049Y207678D01*
X577936Y207541D01*
X577821Y207406D01*
X577809Y207385D01*
X577794Y207366D01*
X577711Y207210D01*
X577624Y207055D01*
X577616Y207032D01*
X577605Y207010D01*
X577554Y206841D01*
X577500Y206672D01*
X577497Y206648D01*
X577490Y206625D01*
X577474Y206447D01*
X577454Y206272D01*
X577456Y206248D01*
X577454Y206224D01*
X577473Y206048D01*
X577488Y205871D01*
X577495Y205848D01*
X577497Y205823D01*
X577551Y205655D01*
X577600Y205484D01*
X577611Y205463D01*
X577619Y205439D01*
X577704Y205285D01*
X577786Y205127D01*
X577802Y205108D01*
X577814Y205087D01*
X577928Y204952D01*
X578039Y204814D01*
X578060Y204797D01*
X578074Y204780D01*
X578138Y204729D01*
X578291Y204598D01*
X579389Y203800D01*
X580520Y202669D01*
X581460Y201375D01*
X582186Y199950D01*
X582629Y198589D01*
X565658Y198589D01*
X565640Y198587D01*
X565623Y198589D01*
X565440Y198568D01*
X565258Y198549D01*
X565241Y198544D01*
X565223Y198542D01*
X565048Y198485D01*
X564873Y198431D01*
X564857Y198423D01*
X564840Y198417D01*
X564680Y198327D01*
X564519Y198239D01*
X564505Y198228D01*
X564489Y198219D01*
X564350Y198099D01*
X564209Y197982D01*
X564198Y197968D01*
X564185Y197956D01*
X564072Y197811D01*
X563957Y197668D01*
X563949Y197652D01*
X563938Y197638D01*
X563856Y197473D01*
X563772Y197311D01*
X563767Y197294D01*
X563759Y197278D01*
X563711Y197099D01*
X563660Y196924D01*
X563659Y196906D01*
X563654Y196889D01*
X563627Y196558D01*
X563627Y195542D01*
X563629Y195524D01*
X563627Y195506D01*
X563649Y195324D01*
X563667Y195141D01*
X563672Y195124D01*
X563674Y195107D01*
X563731Y194932D01*
X563785Y194756D01*
X563793Y194741D01*
X563799Y194724D01*
X563889Y194564D01*
X563977Y194402D01*
X563988Y194389D01*
X563997Y194373D01*
X564117Y194234D01*
X564235Y194093D01*
X564248Y194082D01*
X564260Y194068D01*
X564405Y193956D01*
X564548Y193841D01*
X564564Y193833D01*
X564578Y193822D01*
X564743Y193740D01*
X564906Y193655D01*
X564923Y193650D01*
X564939Y193642D01*
X565117Y193594D01*
X565292Y193544D01*
X565310Y193542D01*
X565327Y193538D01*
X565658Y193511D01*
X582629Y193511D01*
X582186Y192150D01*
X581460Y190725D01*
X580520Y189431D01*
X579389Y188300D01*
X578291Y187502D01*
X578159Y187384D01*
X578024Y187270D01*
X578009Y187251D01*
X577990Y187234D01*
X577884Y187092D01*
X577774Y186954D01*
X577763Y186932D01*
X577748Y186912D01*
X577672Y186753D01*
X577592Y186595D01*
X577585Y186571D01*
X577575Y186549D01*
X577531Y186378D01*
X577484Y186207D01*
X577482Y186182D01*
X577476Y186159D01*
X577467Y185983D01*
X577454Y185805D01*
X577457Y185781D01*
X577456Y185757D01*
X577483Y185582D01*
X577505Y185406D01*
X577513Y185383D01*
X577516Y185359D01*
X577577Y185192D01*
X577633Y185024D01*
X577645Y185003D01*
X577654Y184980D01*
X577746Y184829D01*
X577834Y184675D01*
X577852Y184655D01*
X577863Y184636D01*
X577918Y184576D01*
X578049Y184422D01*
X580953Y181518D01*
X582423Y177970D01*
X582423Y174130D01*
X580953Y170582D01*
X578200Y167829D01*
X578196Y167827D01*
X578028Y167737D01*
X578021Y167731D01*
X578013Y167726D01*
X577865Y167602D01*
X577717Y167480D01*
X577711Y167473D01*
X577704Y167467D01*
X577584Y167317D01*
X577463Y167168D01*
X577459Y167160D01*
X577454Y167153D01*
X577365Y166980D01*
X577276Y166811D01*
X577274Y166803D01*
X577270Y166794D01*
X577217Y166608D01*
X577163Y166425D01*
X577162Y166416D01*
X577160Y166407D01*
X577145Y166217D01*
X577128Y166024D01*
X577129Y166014D01*
X577129Y166006D01*
X577152Y165816D01*
X577174Y165624D01*
X577176Y165615D01*
X577177Y165606D01*
X577238Y165424D01*
X577297Y165240D01*
X577301Y165232D01*
X577304Y165224D01*
X577399Y165057D01*
X577493Y164889D01*
X577499Y164882D01*
X577503Y164874D01*
X577629Y164730D01*
X577755Y164583D01*
X577762Y164577D01*
X577768Y164570D01*
X577921Y164453D01*
X578072Y164335D01*
X578080Y164331D01*
X578087Y164325D01*
X578208Y164263D01*
X580953Y161518D01*
X582423Y157970D01*
X582423Y154130D01*
X580953Y150582D01*
X578049Y147678D01*
X577937Y147541D01*
X577821Y147406D01*
X577809Y147385D01*
X577794Y147366D01*
X577711Y147210D01*
X577624Y147055D01*
X577616Y147032D01*
X577605Y147010D01*
X577555Y146841D01*
X577500Y146672D01*
X577497Y146648D01*
X577490Y146625D01*
X577474Y146448D01*
X577454Y146272D01*
X577456Y146248D01*
X577454Y146224D01*
X577473Y146047D01*
X577488Y145871D01*
X577495Y145848D01*
X577497Y145823D01*
X577551Y145654D01*
X577600Y145484D01*
X577611Y145463D01*
X577619Y145439D01*
X577704Y145284D01*
X577786Y145127D01*
X577802Y145108D01*
X577814Y145087D01*
X577928Y144952D01*
X578039Y144814D01*
X578060Y144797D01*
X578074Y144780D01*
X578138Y144729D01*
X578291Y144598D01*
X579389Y143800D01*
X580520Y142669D01*
X581460Y141375D01*
X582186Y139950D01*
X582629Y138589D01*
X565658Y138589D01*
X565640Y138587D01*
X565623Y138589D01*
X565440Y138568D01*
X565258Y138549D01*
X565241Y138544D01*
X565223Y138542D01*
X565145Y138517D01*
X565008Y138556D01*
X564990Y138558D01*
X564973Y138562D01*
X564642Y138589D01*
X547671Y138589D01*
X548114Y139950D01*
X548840Y141375D01*
X549780Y142669D01*
X550911Y143800D01*
X552009Y144598D01*
X552141Y144716D01*
X552276Y144830D01*
X552291Y144850D01*
X552310Y144866D01*
X552416Y145007D01*
X552526Y145146D01*
X552537Y145168D01*
X552552Y145188D01*
X552628Y145347D01*
X552708Y145505D01*
X552715Y145529D01*
X552725Y145551D01*
X552769Y145722D01*
X552816Y145893D01*
X552818Y145918D01*
X552824Y145941D01*
X552833Y146117D01*
X552846Y146295D01*
X552842Y146319D01*
X552844Y146343D01*
X552817Y146518D01*
X552795Y146694D01*
X552787Y146717D01*
X552784Y146741D01*
X552723Y146908D01*
X552667Y147076D01*
X552655Y147097D01*
X552646Y147120D01*
X552554Y147271D01*
X552466Y147425D01*
X552448Y147445D01*
X552437Y147464D01*
X552382Y147524D01*
X552251Y147678D01*
X549347Y150582D01*
X549285Y150731D01*
X549275Y150751D01*
X549268Y150772D01*
X549179Y150928D01*
X549095Y151086D01*
X549081Y151103D01*
X549070Y151123D01*
X548953Y151258D01*
X548838Y151397D01*
X548821Y151411D01*
X548807Y151428D01*
X548665Y151537D01*
X548526Y151650D01*
X548506Y151661D01*
X548488Y151674D01*
X548328Y151754D01*
X548169Y151837D01*
X548148Y151844D01*
X548128Y151854D01*
X547955Y151900D01*
X547783Y151950D01*
X547761Y151952D01*
X547739Y151958D01*
X547408Y151985D01*
X484491Y151985D01*
X482998Y152604D01*
X474907Y160694D01*
X474887Y160711D01*
X474869Y160732D01*
X474731Y160839D01*
X474596Y160949D01*
X474572Y160962D01*
X474551Y160978D01*
X474394Y161056D01*
X474240Y161138D01*
X474215Y161146D01*
X474190Y161158D01*
X474021Y161203D01*
X473854Y161253D01*
X473828Y161255D01*
X473802Y161262D01*
X473471Y161289D01*
X418120Y161289D01*
X418093Y161287D01*
X418066Y161289D01*
X417893Y161267D01*
X417719Y161249D01*
X417694Y161242D01*
X417667Y161238D01*
X417501Y161183D01*
X417334Y161131D01*
X417311Y161118D01*
X417285Y161110D01*
X417134Y161023D01*
X416980Y160939D01*
X416960Y160922D01*
X416936Y160909D01*
X416683Y160694D01*
X412591Y156602D01*
X411097Y155983D01*
X327160Y155983D01*
X327151Y155982D01*
X327142Y155983D01*
X326950Y155962D01*
X326759Y155943D01*
X326750Y155941D01*
X326742Y155940D01*
X326559Y155882D01*
X326374Y155825D01*
X326366Y155821D01*
X326358Y155818D01*
X326189Y155725D01*
X326020Y155633D01*
X326013Y155628D01*
X326005Y155623D01*
X325858Y155498D01*
X325711Y155376D01*
X325705Y155369D01*
X325698Y155363D01*
X325579Y155211D01*
X325459Y155062D01*
X325454Y155054D01*
X325449Y155047D01*
X325361Y154874D01*
X325273Y154705D01*
X325271Y154696D01*
X325266Y154688D01*
X325215Y154502D01*
X325162Y154318D01*
X325161Y154309D01*
X325158Y154300D01*
X325144Y154108D01*
X325129Y153916D01*
X325130Y153908D01*
X325129Y153899D01*
X325154Y153704D01*
X325176Y153517D01*
X325178Y153508D01*
X325180Y153499D01*
X325241Y153315D01*
X325300Y153134D01*
X325305Y153126D01*
X325308Y153118D01*
X325403Y152952D01*
X325498Y152783D01*
X325504Y152776D01*
X325509Y152769D01*
X325723Y152516D01*
X327529Y150710D01*
X327550Y150693D01*
X327568Y150672D01*
X327705Y150566D01*
X327841Y150455D01*
X327865Y150442D01*
X327886Y150426D01*
X328042Y150348D01*
X328197Y150266D01*
X328222Y150258D01*
X328246Y150246D01*
X328415Y150201D01*
X328583Y150151D01*
X328609Y150149D01*
X328635Y150142D01*
X328966Y150115D01*
X384219Y150115D01*
X384250Y150118D01*
X384282Y150116D01*
X384451Y150138D01*
X384620Y150155D01*
X384650Y150164D01*
X384681Y150168D01*
X384997Y150269D01*
X386395Y150849D01*
X388305Y150849D01*
X390068Y150118D01*
X391418Y148768D01*
X392149Y147005D01*
X392149Y145796D01*
X392151Y145778D01*
X392149Y145760D01*
X392170Y145578D01*
X392189Y145395D01*
X392194Y145378D01*
X392196Y145361D01*
X392253Y145186D01*
X392307Y145010D01*
X392315Y144995D01*
X392321Y144978D01*
X392411Y144818D01*
X392499Y144656D01*
X392510Y144643D01*
X392519Y144627D01*
X392639Y144488D01*
X392756Y144347D01*
X392770Y144336D01*
X392782Y144322D01*
X392927Y144210D01*
X393070Y144095D01*
X393086Y144087D01*
X393100Y144076D01*
X393265Y143994D01*
X393427Y143909D01*
X393444Y143904D01*
X393460Y143896D01*
X393639Y143849D01*
X393814Y143798D01*
X393832Y143796D01*
X393849Y143792D01*
X394180Y143765D01*
X396919Y143765D01*
X396950Y143768D01*
X396982Y143766D01*
X397151Y143788D01*
X397320Y143805D01*
X397350Y143814D01*
X397381Y143818D01*
X397697Y143919D01*
X399095Y144499D01*
X401005Y144499D01*
X402768Y143768D01*
X404118Y142418D01*
X404849Y140655D01*
X404849Y139065D01*
X404851Y139047D01*
X404849Y139029D01*
X404870Y138847D01*
X404889Y138664D01*
X404894Y138647D01*
X404896Y138630D01*
X404953Y138455D01*
X405007Y138279D01*
X405015Y138264D01*
X405021Y138247D01*
X405111Y138087D01*
X405199Y137925D01*
X405210Y137912D01*
X405219Y137896D01*
X405339Y137757D01*
X405456Y137616D01*
X405470Y137605D01*
X405482Y137591D01*
X405627Y137479D01*
X405770Y137364D01*
X405786Y137356D01*
X405800Y137345D01*
X405965Y137263D01*
X406127Y137178D01*
X406144Y137173D01*
X406160Y137165D01*
X406339Y137118D01*
X406514Y137067D01*
X406532Y137065D01*
X406549Y137061D01*
X406880Y137034D01*
X457423Y137034D01*
X457450Y137036D01*
X457477Y137034D01*
X457651Y137056D01*
X457824Y137074D01*
X457850Y137081D01*
X457876Y137085D01*
X458042Y137140D01*
X458209Y137192D01*
X458233Y137205D01*
X458258Y137213D01*
X458410Y137300D01*
X458563Y137384D01*
X458583Y137401D01*
X458607Y137414D01*
X458860Y137629D01*
X468977Y147746D01*
X468994Y147766D01*
X469014Y147784D01*
X469121Y147922D01*
X469232Y148057D01*
X469244Y148081D01*
X469261Y148102D01*
X469339Y148259D01*
X469420Y148413D01*
X469428Y148438D01*
X469440Y148462D01*
X469485Y148632D01*
X469532Y148790D01*
X470302Y150648D01*
X471652Y151998D01*
X473416Y152728D01*
X475325Y152728D01*
X477089Y151998D01*
X478439Y150648D01*
X479169Y148884D01*
X479169Y146975D01*
X478439Y145211D01*
X477089Y143861D01*
X475231Y143092D01*
X475222Y143091D01*
X475196Y143083D01*
X475170Y143080D01*
X475004Y143024D01*
X474837Y142973D01*
X474813Y142960D01*
X474788Y142952D01*
X474636Y142864D01*
X474483Y142781D01*
X474463Y142764D01*
X474439Y142751D01*
X474186Y142536D01*
X465294Y133643D01*
X465288Y133636D01*
X465281Y133631D01*
X465161Y133481D01*
X465038Y133332D01*
X465034Y133324D01*
X465029Y133317D01*
X464940Y133145D01*
X464850Y132976D01*
X464847Y132967D01*
X464843Y132960D01*
X464790Y132775D01*
X464735Y132590D01*
X464734Y132581D01*
X464732Y132573D01*
X464716Y132381D01*
X464699Y132189D01*
X464700Y132180D01*
X464699Y132171D01*
X464721Y131980D01*
X464742Y131789D01*
X464745Y131780D01*
X464746Y131772D01*
X464805Y131590D01*
X464864Y131405D01*
X464868Y131397D01*
X464871Y131389D01*
X464966Y131219D01*
X465058Y131053D01*
X465064Y131046D01*
X465069Y131038D01*
X465195Y130892D01*
X465319Y130746D01*
X465326Y130740D01*
X465332Y130733D01*
X465483Y130616D01*
X465635Y130496D01*
X465643Y130492D01*
X465650Y130487D01*
X465822Y130401D01*
X465994Y130314D01*
X466002Y130311D01*
X466010Y130307D01*
X466197Y130257D01*
X466382Y130206D01*
X466391Y130205D01*
X466399Y130203D01*
X466730Y130176D01*
X522398Y130176D01*
X523891Y129557D01*
X532739Y120710D01*
X532759Y120693D01*
X532777Y120672D01*
X532915Y120565D01*
X533050Y120455D01*
X533074Y120442D01*
X533095Y120426D01*
X533252Y120348D01*
X533406Y120266D01*
X533431Y120258D01*
X533456Y120246D01*
X533625Y120201D01*
X533792Y120151D01*
X533818Y120149D01*
X533844Y120142D01*
X534175Y120115D01*
X547408Y120115D01*
X547431Y120117D01*
X547453Y120115D01*
X547630Y120137D01*
X547809Y120155D01*
X547830Y120161D01*
X547853Y120164D01*
X548022Y120220D01*
X548194Y120273D01*
X548214Y120283D01*
X548235Y120290D01*
X548390Y120379D01*
X548548Y120465D01*
X548565Y120479D01*
X548584Y120490D01*
X548719Y120607D01*
X548857Y120722D01*
X548871Y120740D01*
X548888Y120754D01*
X548997Y120896D01*
X549110Y121036D01*
X549120Y121056D01*
X549133Y121074D01*
X549285Y121369D01*
X549347Y121518D01*
X552251Y124422D01*
X552363Y124559D01*
X552479Y124694D01*
X552491Y124715D01*
X552506Y124734D01*
X552589Y124890D01*
X552676Y125045D01*
X552684Y125068D01*
X552695Y125090D01*
X552745Y125259D01*
X552800Y125428D01*
X552803Y125452D01*
X552810Y125475D01*
X552826Y125652D01*
X552846Y125828D01*
X552844Y125852D01*
X552846Y125876D01*
X552827Y126053D01*
X552812Y126229D01*
X552805Y126252D01*
X552803Y126277D01*
X552749Y126446D01*
X552700Y126616D01*
X552689Y126637D01*
X552681Y126661D01*
X552596Y126816D01*
X552514Y126973D01*
X552498Y126992D01*
X552486Y127013D01*
X552372Y127148D01*
X552261Y127286D01*
X552240Y127303D01*
X552226Y127320D01*
X552162Y127371D01*
X552009Y127502D01*
X550911Y128300D01*
X549780Y129431D01*
X548840Y130725D01*
X548114Y132150D01*
X547671Y133511D01*
X564642Y133511D01*
X564660Y133512D01*
X564677Y133511D01*
X564860Y133532D01*
X565042Y133551D01*
X565059Y133556D01*
X565077Y133558D01*
X565155Y133583D01*
X565292Y133544D01*
X565310Y133542D01*
X565327Y133538D01*
X565658Y133511D01*
X582629Y133511D01*
X582186Y132150D01*
X581460Y130725D01*
X580520Y129431D01*
X579389Y128300D01*
X578291Y127502D01*
X578159Y127384D01*
X578024Y127270D01*
X578009Y127250D01*
X577990Y127234D01*
X577884Y127093D01*
X577774Y126954D01*
X577763Y126932D01*
X577748Y126912D01*
X577672Y126753D01*
X577592Y126595D01*
X577585Y126571D01*
X577575Y126549D01*
X577531Y126378D01*
X577484Y126207D01*
X577482Y126182D01*
X577476Y126159D01*
X577467Y125983D01*
X577454Y125805D01*
X577458Y125781D01*
X577456Y125757D01*
X577483Y125582D01*
X577505Y125406D01*
X577513Y125383D01*
X577516Y125359D01*
X577577Y125192D01*
X577633Y125024D01*
X577645Y125003D01*
X577654Y124980D01*
X577746Y124829D01*
X577834Y124675D01*
X577852Y124655D01*
X577863Y124636D01*
X577918Y124576D01*
X578049Y124422D01*
X580953Y121518D01*
X582423Y117970D01*
X582423Y114130D01*
X580953Y110582D01*
X578200Y107829D01*
X578197Y107828D01*
X578027Y107736D01*
X578020Y107731D01*
X578013Y107726D01*
X577866Y107603D01*
X577717Y107480D01*
X577711Y107473D01*
X577704Y107467D01*
X577585Y107317D01*
X577463Y107167D01*
X577459Y107159D01*
X577453Y107152D01*
X577365Y106979D01*
X577276Y106811D01*
X577274Y106802D01*
X577270Y106794D01*
X577217Y106609D01*
X577163Y106424D01*
X577162Y106415D01*
X577160Y106407D01*
X577145Y106215D01*
X577129Y106023D01*
X577130Y106014D01*
X577129Y106005D01*
X577152Y105815D01*
X577174Y105623D01*
X577176Y105615D01*
X577178Y105606D01*
X577237Y105425D01*
X577297Y105240D01*
X577301Y105232D01*
X577304Y105224D01*
X577399Y105057D01*
X577493Y104888D01*
X577499Y104882D01*
X577504Y104874D01*
X577630Y104729D01*
X577755Y104583D01*
X577762Y104577D01*
X577768Y104570D01*
X577921Y104453D01*
X578072Y104334D01*
X578080Y104330D01*
X578087Y104325D01*
X578208Y104263D01*
X580953Y101518D01*
X582423Y97970D01*
X582423Y94130D01*
X580953Y90582D01*
X578049Y87678D01*
X577937Y87541D01*
X577821Y87406D01*
X577809Y87385D01*
X577794Y87366D01*
X577711Y87210D01*
X577624Y87055D01*
X577616Y87032D01*
X577605Y87010D01*
X577555Y86841D01*
X577500Y86672D01*
X577497Y86648D01*
X577490Y86625D01*
X577474Y86448D01*
X577454Y86272D01*
X577456Y86248D01*
X577454Y86224D01*
X577473Y86047D01*
X577488Y85871D01*
X577495Y85848D01*
X577497Y85823D01*
X577551Y85654D01*
X577600Y85484D01*
X577611Y85463D01*
X577619Y85439D01*
X577704Y85284D01*
X577786Y85127D01*
X577802Y85108D01*
X577814Y85087D01*
X577928Y84952D01*
X578039Y84814D01*
X578060Y84797D01*
X578074Y84780D01*
X578138Y84729D01*
X578291Y84598D01*
X579389Y83800D01*
X580520Y82669D01*
X581460Y81375D01*
X582186Y79950D01*
X582629Y78589D01*
X565658Y78589D01*
X565640Y78587D01*
X565623Y78589D01*
X565440Y78568D01*
X565258Y78549D01*
X565241Y78544D01*
X565223Y78542D01*
X565145Y78517D01*
X565008Y78556D01*
X564990Y78558D01*
X564973Y78562D01*
X564642Y78589D01*
X547671Y78589D01*
X548114Y79950D01*
X548840Y81375D01*
X549780Y82669D01*
X550911Y83800D01*
X552009Y84598D01*
X552141Y84716D01*
X552276Y84830D01*
X552291Y84850D01*
X552310Y84866D01*
X552416Y85007D01*
X552526Y85146D01*
X552537Y85168D01*
X552552Y85188D01*
X552628Y85347D01*
X552708Y85505D01*
X552715Y85529D01*
X552725Y85551D01*
X552769Y85722D01*
X552816Y85893D01*
X552818Y85918D01*
X552824Y85941D01*
X552833Y86117D01*
X552846Y86295D01*
X552842Y86319D01*
X552844Y86343D01*
X552817Y86518D01*
X552795Y86694D01*
X552787Y86717D01*
X552784Y86741D01*
X552723Y86908D01*
X552667Y87076D01*
X552655Y87097D01*
X552646Y87120D01*
X552554Y87271D01*
X552466Y87425D01*
X552448Y87445D01*
X552437Y87464D01*
X552382Y87524D01*
X552251Y87678D01*
X549347Y90582D01*
X549285Y90731D01*
X549275Y90751D01*
X549268Y90772D01*
X549179Y90928D01*
X549095Y91086D01*
X549081Y91103D01*
X549070Y91123D01*
X548953Y91258D01*
X548838Y91397D01*
X548821Y91411D01*
X548807Y91428D01*
X548665Y91537D01*
X548526Y91650D01*
X548506Y91661D01*
X548488Y91674D01*
X548328Y91754D01*
X548169Y91837D01*
X548148Y91844D01*
X548128Y91854D01*
X547955Y91900D01*
X547783Y91950D01*
X547761Y91952D01*
X547739Y91958D01*
X547408Y91985D01*
X429813Y91985D01*
X429787Y91983D01*
X429760Y91985D01*
X429586Y91963D01*
X429412Y91945D01*
X429387Y91938D01*
X429360Y91934D01*
X429195Y91879D01*
X429028Y91827D01*
X429004Y91814D01*
X428979Y91806D01*
X428827Y91719D01*
X428674Y91635D01*
X428653Y91618D01*
X428630Y91605D01*
X428377Y91390D01*
X428168Y91182D01*
X426405Y90451D01*
X424495Y90451D01*
X422732Y91182D01*
X421382Y92532D01*
X420651Y94295D01*
X420651Y96205D01*
X421382Y97968D01*
X422732Y99318D01*
X424495Y100049D01*
X424878Y100049D01*
X424909Y100052D01*
X424941Y100050D01*
X425109Y100072D01*
X425279Y100089D01*
X425309Y100098D01*
X425340Y100102D01*
X425380Y100115D01*
X547408Y100115D01*
X547431Y100117D01*
X547453Y100115D01*
X547630Y100137D01*
X547809Y100155D01*
X547830Y100161D01*
X547853Y100164D01*
X548022Y100220D01*
X548194Y100273D01*
X548214Y100283D01*
X548235Y100290D01*
X548390Y100379D01*
X548548Y100465D01*
X548565Y100479D01*
X548584Y100490D01*
X548719Y100607D01*
X548857Y100722D01*
X548871Y100740D01*
X548888Y100754D01*
X548997Y100896D01*
X549110Y101036D01*
X549120Y101056D01*
X549133Y101074D01*
X549285Y101369D01*
X549347Y101518D01*
X552100Y104271D01*
X552104Y104273D01*
X552272Y104363D01*
X552279Y104369D01*
X552287Y104373D01*
X552435Y104498D01*
X552583Y104620D01*
X552589Y104627D01*
X552595Y104633D01*
X552715Y104783D01*
X552837Y104932D01*
X552841Y104940D01*
X552846Y104947D01*
X552934Y105118D01*
X553024Y105289D01*
X553026Y105298D01*
X553030Y105306D01*
X553082Y105489D01*
X553137Y105675D01*
X553138Y105684D01*
X553140Y105693D01*
X553155Y105885D01*
X553171Y106076D01*
X553170Y106085D01*
X553171Y106094D01*
X553148Y106285D01*
X553126Y106477D01*
X553124Y106485D01*
X553123Y106494D01*
X553062Y106676D01*
X553003Y106860D01*
X552999Y106868D01*
X552996Y106876D01*
X552901Y107043D01*
X552807Y107211D01*
X552801Y107218D01*
X552797Y107226D01*
X552671Y107371D01*
X552545Y107517D01*
X552538Y107523D01*
X552532Y107530D01*
X552380Y107646D01*
X552228Y107765D01*
X552220Y107770D01*
X552213Y107775D01*
X552092Y107837D01*
X549347Y110582D01*
X549285Y110731D01*
X549275Y110751D01*
X549268Y110772D01*
X549179Y110928D01*
X549095Y111086D01*
X549081Y111103D01*
X549070Y111123D01*
X548953Y111258D01*
X548838Y111397D01*
X548821Y111411D01*
X548807Y111428D01*
X548665Y111537D01*
X548526Y111650D01*
X548506Y111661D01*
X548488Y111674D01*
X548328Y111754D01*
X548169Y111837D01*
X548148Y111844D01*
X548128Y111854D01*
X547955Y111900D01*
X547783Y111950D01*
X547761Y111952D01*
X547739Y111958D01*
X547408Y111985D01*
X530841Y111985D01*
X529348Y112604D01*
X520500Y121451D01*
X520480Y121468D01*
X520462Y121489D01*
X520324Y121596D01*
X520189Y121706D01*
X520165Y121719D01*
X520144Y121735D01*
X519987Y121813D01*
X519833Y121895D01*
X519808Y121903D01*
X519783Y121915D01*
X519614Y121960D01*
X519447Y122010D01*
X519421Y122012D01*
X519395Y122019D01*
X519064Y122046D01*
X373918Y122046D01*
X373905Y122045D01*
X373891Y122046D01*
X373705Y122025D01*
X373517Y122006D01*
X373505Y122002D01*
X373491Y122001D01*
X373313Y121944D01*
X373133Y121888D01*
X373121Y121882D01*
X373108Y121878D01*
X372944Y121786D01*
X372779Y121696D01*
X372768Y121688D01*
X372757Y121681D01*
X372613Y121559D01*
X372469Y121439D01*
X372461Y121428D01*
X372451Y121420D01*
X372334Y121271D01*
X372217Y121125D01*
X372211Y121113D01*
X372202Y121103D01*
X372118Y120933D01*
X372031Y120768D01*
X372028Y120755D01*
X372022Y120743D01*
X371972Y120560D01*
X371920Y120381D01*
X371919Y120367D01*
X371915Y120354D01*
X371902Y120166D01*
X371887Y119979D01*
X371889Y119966D01*
X371888Y119953D01*
X371912Y119764D01*
X371934Y119580D01*
X371938Y119567D01*
X371940Y119554D01*
X372041Y119238D01*
X372619Y117844D01*
X372619Y102021D01*
X372621Y101994D01*
X372619Y101968D01*
X372641Y101794D01*
X372659Y101620D01*
X372666Y101595D01*
X372670Y101568D01*
X372725Y101403D01*
X372777Y101236D01*
X372790Y101212D01*
X372798Y101187D01*
X372885Y101035D01*
X372969Y100881D01*
X372986Y100861D01*
X372999Y100838D01*
X373214Y100585D01*
X379289Y94509D01*
X379314Y94489D01*
X379334Y94466D01*
X379469Y94362D01*
X379601Y94254D01*
X379628Y94239D01*
X379653Y94220D01*
X379948Y94069D01*
X382028Y93207D01*
X383457Y91778D01*
X384231Y89911D01*
X384231Y87889D01*
X383457Y86022D01*
X381972Y84537D01*
X381885Y84490D01*
X381875Y84482D01*
X381863Y84475D01*
X381720Y84354D01*
X381575Y84234D01*
X381566Y84224D01*
X381556Y84215D01*
X381440Y84067D01*
X381321Y83921D01*
X381315Y83909D01*
X381306Y83899D01*
X381221Y83732D01*
X381134Y83565D01*
X381130Y83552D01*
X381124Y83540D01*
X381073Y83358D01*
X381021Y83178D01*
X381020Y83165D01*
X381016Y83152D01*
X381002Y82963D01*
X380986Y82777D01*
X380988Y82764D01*
X380987Y82751D01*
X381010Y82563D01*
X381031Y82377D01*
X381035Y82364D01*
X381037Y82351D01*
X381097Y82173D01*
X381154Y81994D01*
X381161Y81982D01*
X381165Y81969D01*
X381259Y81807D01*
X381351Y81642D01*
X381359Y81632D01*
X381366Y81621D01*
X381581Y81368D01*
X394789Y68160D01*
X394809Y68143D01*
X394827Y68122D01*
X394965Y68015D01*
X395100Y67905D01*
X395124Y67892D01*
X395145Y67876D01*
X395302Y67798D01*
X395456Y67716D01*
X395481Y67708D01*
X395506Y67696D01*
X395675Y67651D01*
X395842Y67601D01*
X395868Y67599D01*
X395894Y67592D01*
X396225Y67565D01*
X407209Y67565D01*
X408702Y66946D01*
X420946Y54702D01*
X421565Y53209D01*
X421565Y49492D01*
X421567Y49469D01*
X421565Y49447D01*
X421587Y49270D01*
X421605Y49091D01*
X421611Y49070D01*
X421614Y49047D01*
X421670Y48878D01*
X421723Y48706D01*
X421733Y48686D01*
X421740Y48665D01*
X421829Y48510D01*
X421915Y48352D01*
X421929Y48335D01*
X421940Y48316D01*
X422057Y48181D01*
X422172Y48043D01*
X422190Y48029D01*
X422204Y48012D01*
X422346Y47903D01*
X422486Y47790D01*
X422506Y47780D01*
X422524Y47767D01*
X422819Y47615D01*
X422968Y47553D01*
X425721Y44800D01*
X425723Y44796D01*
X425813Y44628D01*
X425819Y44621D01*
X425824Y44613D01*
X425949Y44463D01*
X426070Y44317D01*
X426077Y44311D01*
X426083Y44304D01*
X426233Y44184D01*
X426382Y44063D01*
X426390Y44059D01*
X426397Y44054D01*
X426570Y43965D01*
X426739Y43876D01*
X426747Y43874D01*
X426756Y43870D01*
X426942Y43817D01*
X427125Y43763D01*
X427134Y43762D01*
X427143Y43760D01*
X427333Y43745D01*
X427526Y43728D01*
X427536Y43729D01*
X427544Y43729D01*
X427734Y43752D01*
X427926Y43774D01*
X427935Y43776D01*
X427944Y43777D01*
X428126Y43838D01*
X428310Y43897D01*
X428318Y43901D01*
X428326Y43904D01*
X428493Y43999D01*
X428661Y44093D01*
X428668Y44099D01*
X428676Y44103D01*
X428820Y44229D01*
X428967Y44355D01*
X428973Y44362D01*
X428980Y44368D01*
X429097Y44521D01*
X429215Y44672D01*
X429219Y44680D01*
X429225Y44687D01*
X429287Y44808D01*
X432032Y47553D01*
X435580Y49023D01*
X439420Y49023D01*
X442968Y47553D01*
X445721Y44800D01*
X445723Y44796D01*
X445813Y44628D01*
X445819Y44621D01*
X445824Y44613D01*
X445949Y44463D01*
X446070Y44317D01*
X446077Y44311D01*
X446083Y44304D01*
X446233Y44184D01*
X446382Y44063D01*
X446390Y44059D01*
X446397Y44054D01*
X446570Y43965D01*
X446739Y43876D01*
X446747Y43874D01*
X446756Y43870D01*
X446942Y43817D01*
X447125Y43763D01*
X447134Y43762D01*
X447143Y43760D01*
X447333Y43745D01*
X447526Y43728D01*
X447536Y43729D01*
X447544Y43729D01*
X447734Y43752D01*
X447926Y43774D01*
X447935Y43776D01*
X447944Y43777D01*
X448126Y43838D01*
X448310Y43897D01*
X448318Y43901D01*
X448326Y43904D01*
X448493Y43999D01*
X448661Y44093D01*
X448668Y44099D01*
X448676Y44103D01*
X448820Y44229D01*
X448967Y44355D01*
X448973Y44362D01*
X448980Y44368D01*
X449097Y44521D01*
X449215Y44672D01*
X449219Y44680D01*
X449225Y44687D01*
X449287Y44808D01*
X452032Y47553D01*
X455580Y49023D01*
X459420Y49023D01*
X462968Y47553D01*
X465683Y44838D01*
X467153Y41290D01*
X467153Y28630D01*
X467154Y28621D01*
X467153Y28612D01*
X467174Y28419D01*
X467193Y28229D01*
X467195Y28221D01*
X467196Y28212D01*
X467255Y28026D01*
X467311Y27844D01*
X467315Y27836D01*
X467318Y27828D01*
X467411Y27659D01*
X467503Y27490D01*
X467508Y27483D01*
X467513Y27475D01*
X467637Y27328D01*
X467760Y27181D01*
X467767Y27175D01*
X467773Y27168D01*
X467925Y27048D01*
X468074Y26929D01*
X468082Y26924D01*
X468089Y26919D01*
X468262Y26831D01*
X468431Y26743D01*
X468440Y26741D01*
X468448Y26736D01*
X468634Y26685D01*
X468818Y26632D01*
X468827Y26631D01*
X468836Y26628D01*
X469029Y26614D01*
X469220Y26599D01*
X469228Y26600D01*
X469237Y26599D01*
X469430Y26623D01*
X469619Y26646D01*
X469628Y26648D01*
X469637Y26650D01*
X469819Y26711D01*
X470002Y26770D01*
X470010Y26775D01*
X470018Y26778D01*
X470185Y26874D01*
X470353Y26968D01*
X470360Y26974D01*
X470367Y26979D01*
X470620Y27193D01*
X502923Y59496D01*
X504417Y60115D01*
X547408Y60115D01*
X547431Y60117D01*
X547453Y60115D01*
X547630Y60137D01*
X547809Y60155D01*
X547830Y60161D01*
X547853Y60164D01*
X548022Y60220D01*
X548194Y60273D01*
X548214Y60283D01*
X548235Y60290D01*
X548390Y60379D01*
X548548Y60465D01*
X548565Y60479D01*
X548584Y60490D01*
X548719Y60607D01*
X548857Y60722D01*
X548871Y60740D01*
X548888Y60754D01*
X548997Y60896D01*
X549110Y61036D01*
X549120Y61056D01*
X549133Y61074D01*
X549285Y61369D01*
X549347Y61518D01*
X552251Y64422D01*
X552364Y64559D01*
X552479Y64694D01*
X552491Y64715D01*
X552506Y64734D01*
X552589Y64890D01*
X552676Y65045D01*
X552684Y65068D01*
X552695Y65090D01*
X552745Y65259D01*
X552800Y65428D01*
X552803Y65452D01*
X552810Y65475D01*
X552826Y65652D01*
X552846Y65828D01*
X552844Y65852D01*
X552846Y65876D01*
X552827Y66052D01*
X552812Y66229D01*
X552805Y66252D01*
X552803Y66277D01*
X552749Y66445D01*
X552700Y66616D01*
X552689Y66637D01*
X552681Y66661D01*
X552596Y66815D01*
X552514Y66973D01*
X552498Y66991D01*
X552486Y67013D01*
X552372Y67148D01*
X552261Y67286D01*
X552240Y67303D01*
X552226Y67320D01*
X552162Y67371D01*
X552009Y67502D01*
X550911Y68300D01*
X549780Y69431D01*
X548840Y70725D01*
X548114Y72150D01*
X547671Y73511D01*
X564642Y73511D01*
X564660Y73512D01*
X564677Y73511D01*
X564860Y73532D01*
X565042Y73551D01*
X565059Y73556D01*
X565077Y73558D01*
X565155Y73583D01*
X565292Y73544D01*
X565310Y73542D01*
X565327Y73538D01*
X565658Y73511D01*
X582629Y73511D01*
X582186Y72150D01*
X581460Y70725D01*
X580520Y69431D01*
X579389Y68300D01*
X578291Y67502D01*
X578159Y67384D01*
X578024Y67270D01*
X578009Y67250D01*
X577990Y67234D01*
X577884Y67092D01*
X577774Y66954D01*
X577763Y66932D01*
X577748Y66912D01*
X577672Y66753D01*
X577592Y66595D01*
X577585Y66571D01*
X577575Y66549D01*
X577531Y66378D01*
X577484Y66207D01*
X577482Y66182D01*
X577476Y66159D01*
X577467Y65983D01*
X577454Y65805D01*
X577457Y65781D01*
X577456Y65757D01*
X577483Y65582D01*
X577505Y65406D01*
X577513Y65383D01*
X577516Y65359D01*
X577577Y65192D01*
X577633Y65024D01*
X577645Y65003D01*
X577654Y64980D01*
X577746Y64829D01*
X577834Y64675D01*
X577852Y64655D01*
X577863Y64636D01*
X577918Y64576D01*
X578049Y64422D01*
X580953Y61518D01*
X582423Y57970D01*
X582423Y54130D01*
X580953Y50582D01*
X578049Y47678D01*
X577936Y47541D01*
X577821Y47406D01*
X577809Y47385D01*
X577794Y47366D01*
X577711Y47210D01*
X577624Y47055D01*
X577616Y47032D01*
X577605Y47010D01*
X577554Y46841D01*
X577500Y46672D01*
X577497Y46648D01*
X577490Y46625D01*
X577474Y46448D01*
X577454Y46272D01*
X577456Y46248D01*
X577454Y46224D01*
X577473Y46048D01*
X577488Y45871D01*
X577495Y45848D01*
X577497Y45823D01*
X577551Y45655D01*
X577600Y45484D01*
X577611Y45463D01*
X577619Y45439D01*
X577704Y45285D01*
X577786Y45127D01*
X577802Y45108D01*
X577814Y45087D01*
X577928Y44952D01*
X578039Y44814D01*
X578060Y44797D01*
X578074Y44780D01*
X578138Y44729D01*
X578291Y44598D01*
X579389Y43800D01*
X580520Y42669D01*
X581460Y41375D01*
X582186Y39950D01*
X582629Y38589D01*
X565658Y38589D01*
X565640Y38587D01*
X565623Y38589D01*
X565440Y38568D01*
X565258Y38549D01*
X565241Y38544D01*
X565223Y38542D01*
X565145Y38517D01*
X565008Y38556D01*
X564990Y38558D01*
X564973Y38562D01*
X564642Y38589D01*
X547671Y38589D01*
X548114Y39950D01*
X548840Y41375D01*
X549780Y42669D01*
X550911Y43800D01*
X552009Y44598D01*
X552141Y44716D01*
X552276Y44830D01*
X552291Y44849D01*
X552310Y44866D01*
X552416Y45008D01*
X552526Y45146D01*
X552537Y45168D01*
X552552Y45188D01*
X552628Y45347D01*
X552708Y45505D01*
X552715Y45529D01*
X552725Y45551D01*
X552769Y45722D01*
X552816Y45893D01*
X552818Y45918D01*
X552824Y45941D01*
X552833Y46117D01*
X552846Y46295D01*
X552843Y46319D01*
X552844Y46343D01*
X552817Y46518D01*
X552795Y46694D01*
X552787Y46717D01*
X552784Y46741D01*
X552723Y46908D01*
X552667Y47076D01*
X552655Y47097D01*
X552646Y47120D01*
X552554Y47271D01*
X552466Y47425D01*
X552448Y47445D01*
X552437Y47464D01*
X552382Y47524D01*
X552251Y47678D01*
X549347Y50582D01*
X549285Y50731D01*
X549275Y50751D01*
X549268Y50772D01*
X549179Y50928D01*
X549095Y51086D01*
X549081Y51103D01*
X549070Y51123D01*
X548953Y51258D01*
X548838Y51397D01*
X548821Y51411D01*
X548807Y51428D01*
X548665Y51537D01*
X548526Y51650D01*
X548506Y51661D01*
X548488Y51674D01*
X548328Y51754D01*
X548169Y51837D01*
X548148Y51844D01*
X548128Y51854D01*
X547955Y51900D01*
X547783Y51950D01*
X547761Y51952D01*
X547739Y51958D01*
X547408Y51985D01*
X507750Y51985D01*
X507724Y51983D01*
X507697Y51985D01*
X507523Y51963D01*
X507350Y51945D01*
X507324Y51938D01*
X507298Y51934D01*
X507132Y51879D01*
X506965Y51827D01*
X506941Y51814D01*
X506916Y51806D01*
X506764Y51719D01*
X506611Y51635D01*
X506590Y51618D01*
X506567Y51605D01*
X506314Y51390D01*
X462964Y8040D01*
X462958Y8033D01*
X462951Y8028D01*
X462831Y7878D01*
X462709Y7729D01*
X462705Y7721D01*
X462699Y7714D01*
X462610Y7543D01*
X462520Y7373D01*
X462518Y7365D01*
X462514Y7357D01*
X462460Y7171D01*
X462406Y6987D01*
X462405Y6978D01*
X462402Y6970D01*
X462387Y6778D01*
X462369Y6586D01*
X462370Y6577D01*
X462369Y6568D01*
X462392Y6379D01*
X462413Y6186D01*
X462415Y6177D01*
X462416Y6169D01*
X462476Y5987D01*
X462534Y5802D01*
X462538Y5794D01*
X462541Y5786D01*
X462636Y5617D01*
X462729Y5450D01*
X462735Y5443D01*
X462739Y5435D01*
X462865Y5289D01*
X462989Y5143D01*
X462996Y5137D01*
X463002Y5130D01*
X463154Y5013D01*
X463305Y4893D01*
X463313Y4889D01*
X463320Y4884D01*
X463492Y4798D01*
X463664Y4711D01*
X463673Y4708D01*
X463681Y4704D01*
X463867Y4654D01*
X464052Y4603D01*
X464061Y4602D01*
X464070Y4600D01*
X464400Y4573D01*
X593396Y4573D01*
X593414Y4575D01*
X593432Y4573D01*
X593614Y4594D01*
X593797Y4613D01*
X593814Y4618D01*
X593831Y4620D01*
X594006Y4677D01*
X594182Y4731D01*
X594197Y4739D01*
X594214Y4745D01*
X594374Y4835D01*
X594536Y4923D01*
X594549Y4934D01*
X594565Y4943D01*
X594704Y5063D01*
X594845Y5180D01*
X594856Y5194D01*
X594870Y5206D01*
X594982Y5351D01*
X595097Y5494D01*
X595105Y5510D01*
X595116Y5524D01*
X595198Y5689D01*
X595283Y5851D01*
X595288Y5868D01*
X595296Y5884D01*
X595343Y6063D01*
X595394Y6238D01*
X595396Y6256D01*
X595400Y6273D01*
X595427Y6604D01*
X595427Y293396D01*
X595425Y293414D01*
X595427Y293432D01*
X595406Y293614D01*
X595387Y293797D01*
X595382Y293814D01*
X595380Y293831D01*
X595323Y294006D01*
X595269Y294182D01*
X595261Y294197D01*
X595255Y294214D01*
X595165Y294374D01*
X595077Y294536D01*
X595066Y294549D01*
X595057Y294565D01*
X594937Y294704D01*
X594820Y294845D01*
X594806Y294856D01*
X594794Y294870D01*
X594649Y294982D01*
X594506Y295097D01*
X594490Y295105D01*
X594476Y295116D01*
X594311Y295198D01*
X594149Y295283D01*
X594132Y295288D01*
X594116Y295296D01*
X593937Y295343D01*
X593762Y295394D01*
X593744Y295396D01*
X593727Y295400D01*
X593396Y295427D01*
X6604Y295427D01*
X6586Y295425D01*
X6568Y295427D01*
X6386Y295406D01*
X6203Y295387D01*
X6186Y295382D01*
X6169Y295380D01*
X5994Y295323D01*
X5818Y295269D01*
X5803Y295261D01*
X5786Y295255D01*
X5626Y295165D01*
X5464Y295077D01*
X5451Y295066D01*
X5435Y295057D01*
X5296Y294937D01*
X5155Y294820D01*
X5144Y294806D01*
X5130Y294794D01*
X5018Y294649D01*
X4903Y294506D01*
X4895Y294490D01*
X4884Y294476D01*
X4802Y294311D01*
X4717Y294149D01*
X4712Y294132D01*
X4704Y294116D01*
X4657Y293937D01*
X4606Y293762D01*
X4604Y293744D01*
X4600Y293727D01*
X4573Y293396D01*
X4573Y6604D01*
X4575Y6586D01*
X4573Y6568D01*
X4594Y6386D01*
X4613Y6203D01*
X4618Y6186D01*
X4620Y6169D01*
X4677Y5994D01*
X4731Y5818D01*
X4739Y5803D01*
X4745Y5786D01*
X4835Y5626D01*
X4923Y5464D01*
X4934Y5451D01*
X4943Y5435D01*
X5063Y5296D01*
X5180Y5155D01*
X5194Y5144D01*
X5206Y5130D01*
X5351Y5018D01*
X5494Y4903D01*
X5510Y4895D01*
X5524Y4884D01*
X5689Y4802D01*
X5851Y4717D01*
X5868Y4712D01*
X5884Y4704D01*
X6063Y4657D01*
X6238Y4606D01*
X6256Y4604D01*
X6273Y4600D01*
X6604Y4573D01*
X144947Y4573D01*
X144956Y4574D01*
G37*
G36*
X337010Y29212D02*
X337010Y29212D01*
X337027Y29211D01*
X337210Y29232D01*
X337392Y29251D01*
X337409Y29256D01*
X337427Y29258D01*
X337602Y29315D01*
X337777Y29369D01*
X337793Y29377D01*
X337810Y29383D01*
X337970Y29473D01*
X338131Y29560D01*
X338145Y29572D01*
X338161Y29581D01*
X338299Y29700D01*
X338441Y29818D01*
X338452Y29832D01*
X338465Y29844D01*
X338578Y29989D01*
X338693Y30132D01*
X338701Y30148D01*
X338712Y30162D01*
X338794Y30327D01*
X338834Y30403D01*
X338986Y30489D01*
X339148Y30577D01*
X339161Y30588D01*
X339177Y30597D01*
X339316Y30717D01*
X339457Y30835D01*
X339468Y30848D01*
X339482Y30860D01*
X339594Y31005D01*
X339709Y31148D01*
X339717Y31164D01*
X339728Y31178D01*
X339810Y31343D01*
X339895Y31506D01*
X339900Y31523D01*
X339908Y31539D01*
X339955Y31717D01*
X340006Y31892D01*
X340008Y31910D01*
X340012Y31927D01*
X340039Y32258D01*
X340039Y49229D01*
X341400Y48786D01*
X342825Y48060D01*
X344119Y47120D01*
X345250Y45989D01*
X346048Y44891D01*
X346166Y44759D01*
X346280Y44624D01*
X346299Y44609D01*
X346316Y44590D01*
X346458Y44484D01*
X346596Y44374D01*
X346618Y44363D01*
X346638Y44348D01*
X346797Y44272D01*
X346955Y44192D01*
X346979Y44185D01*
X347001Y44175D01*
X347172Y44131D01*
X347343Y44084D01*
X347368Y44082D01*
X347391Y44076D01*
X347567Y44067D01*
X347745Y44054D01*
X347769Y44057D01*
X347793Y44056D01*
X347968Y44083D01*
X348144Y44105D01*
X348167Y44113D01*
X348191Y44116D01*
X348358Y44177D01*
X348526Y44233D01*
X348547Y44245D01*
X348570Y44254D01*
X348721Y44346D01*
X348875Y44434D01*
X348895Y44452D01*
X348914Y44463D01*
X348974Y44518D01*
X349128Y44649D01*
X352032Y47553D01*
X355580Y49023D01*
X359420Y49023D01*
X362968Y47553D01*
X365721Y44800D01*
X365723Y44796D01*
X365813Y44628D01*
X365819Y44621D01*
X365824Y44613D01*
X365949Y44463D01*
X366070Y44317D01*
X366077Y44311D01*
X366083Y44304D01*
X366233Y44184D01*
X366382Y44063D01*
X366390Y44059D01*
X366397Y44054D01*
X366570Y43965D01*
X366739Y43876D01*
X366747Y43874D01*
X366756Y43870D01*
X366942Y43817D01*
X367125Y43763D01*
X367134Y43762D01*
X367143Y43760D01*
X367333Y43745D01*
X367526Y43728D01*
X367536Y43729D01*
X367544Y43729D01*
X367734Y43752D01*
X367926Y43774D01*
X367935Y43776D01*
X367944Y43777D01*
X368126Y43838D01*
X368310Y43897D01*
X368318Y43901D01*
X368326Y43904D01*
X368493Y43999D01*
X368661Y44093D01*
X368668Y44099D01*
X368676Y44103D01*
X368820Y44229D01*
X368967Y44355D01*
X368973Y44362D01*
X368980Y44368D01*
X369097Y44521D01*
X369215Y44672D01*
X369219Y44680D01*
X369225Y44687D01*
X369287Y44808D01*
X372032Y47553D01*
X375580Y49023D01*
X379420Y49023D01*
X382968Y47553D01*
X385872Y44649D01*
X386009Y44536D01*
X386144Y44421D01*
X386165Y44409D01*
X386184Y44394D01*
X386340Y44311D01*
X386495Y44224D01*
X386518Y44216D01*
X386540Y44205D01*
X386709Y44154D01*
X386878Y44100D01*
X386902Y44097D01*
X386925Y44090D01*
X387102Y44074D01*
X387278Y44054D01*
X387302Y44056D01*
X387326Y44054D01*
X387502Y44073D01*
X387679Y44088D01*
X387702Y44095D01*
X387727Y44097D01*
X387895Y44151D01*
X388066Y44200D01*
X388087Y44211D01*
X388111Y44219D01*
X388265Y44304D01*
X388423Y44386D01*
X388442Y44402D01*
X388463Y44414D01*
X388598Y44528D01*
X388736Y44639D01*
X388753Y44660D01*
X388770Y44674D01*
X388821Y44738D01*
X388952Y44891D01*
X389750Y45989D01*
X390881Y47120D01*
X392175Y48060D01*
X393600Y48786D01*
X394961Y49229D01*
X394961Y32258D01*
X394962Y32240D01*
X394961Y32223D01*
X394982Y32040D01*
X395001Y31858D01*
X395006Y31841D01*
X395008Y31823D01*
X395065Y31648D01*
X395119Y31473D01*
X395127Y31457D01*
X395133Y31440D01*
X395223Y31280D01*
X395310Y31119D01*
X395322Y31105D01*
X395331Y31089D01*
X395451Y30950D01*
X395568Y30809D01*
X395582Y30798D01*
X395594Y30785D01*
X395739Y30672D01*
X395882Y30557D01*
X395898Y30549D01*
X395912Y30538D01*
X396077Y30456D01*
X396239Y30372D01*
X396256Y30367D01*
X396272Y30359D01*
X396451Y30311D01*
X396626Y30260D01*
X396644Y30259D01*
X396661Y30254D01*
X396992Y30227D01*
X398008Y30227D01*
X398026Y30229D01*
X398044Y30227D01*
X398226Y30249D01*
X398409Y30267D01*
X398426Y30272D01*
X398443Y30274D01*
X398618Y30331D01*
X398794Y30385D01*
X398809Y30393D01*
X398826Y30399D01*
X398986Y30489D01*
X399148Y30577D01*
X399161Y30588D01*
X399177Y30597D01*
X399316Y30717D01*
X399457Y30835D01*
X399468Y30848D01*
X399482Y30860D01*
X399594Y31005D01*
X399709Y31148D01*
X399717Y31164D01*
X399728Y31178D01*
X399810Y31343D01*
X399895Y31506D01*
X399900Y31523D01*
X399908Y31539D01*
X399955Y31717D01*
X400006Y31892D01*
X400008Y31910D01*
X400012Y31927D01*
X400039Y32258D01*
X400039Y49229D01*
X401400Y48786D01*
X402825Y48060D01*
X404119Y47120D01*
X405250Y45989D01*
X406048Y44891D01*
X406166Y44759D01*
X406280Y44624D01*
X406299Y44609D01*
X406316Y44590D01*
X406458Y44484D01*
X406596Y44374D01*
X406618Y44363D01*
X406638Y44348D01*
X406797Y44272D01*
X406955Y44192D01*
X406979Y44185D01*
X407001Y44175D01*
X407172Y44131D01*
X407343Y44084D01*
X407368Y44082D01*
X407391Y44076D01*
X407567Y44067D01*
X407745Y44054D01*
X407769Y44057D01*
X407793Y44056D01*
X407968Y44083D01*
X408144Y44105D01*
X408167Y44113D01*
X408191Y44116D01*
X408358Y44177D01*
X408526Y44233D01*
X408547Y44245D01*
X408570Y44254D01*
X408721Y44346D01*
X408875Y44434D01*
X408895Y44452D01*
X408914Y44463D01*
X408974Y44518D01*
X409128Y44649D01*
X412032Y47553D01*
X412181Y47615D01*
X412201Y47625D01*
X412222Y47632D01*
X412378Y47721D01*
X412536Y47805D01*
X412553Y47819D01*
X412573Y47830D01*
X412708Y47947D01*
X412847Y48062D01*
X412861Y48079D01*
X412878Y48093D01*
X412987Y48235D01*
X413100Y48374D01*
X413111Y48394D01*
X413124Y48412D01*
X413204Y48572D01*
X413287Y48731D01*
X413294Y48752D01*
X413304Y48772D01*
X413350Y48945D01*
X413400Y49117D01*
X413402Y49139D01*
X413408Y49161D01*
X413435Y49492D01*
X413435Y49875D01*
X413433Y49902D01*
X413435Y49928D01*
X413413Y50102D01*
X413395Y50276D01*
X413388Y50301D01*
X413384Y50328D01*
X413329Y50493D01*
X413277Y50660D01*
X413264Y50684D01*
X413256Y50709D01*
X413169Y50861D01*
X413085Y51015D01*
X413068Y51035D01*
X413055Y51058D01*
X412840Y51311D01*
X405311Y58840D01*
X405299Y58850D01*
X405292Y58859D01*
X405284Y58865D01*
X405273Y58878D01*
X405135Y58985D01*
X405000Y59095D01*
X404976Y59108D01*
X404955Y59124D01*
X404798Y59202D01*
X404644Y59284D01*
X404619Y59292D01*
X404594Y59304D01*
X404425Y59349D01*
X404258Y59399D01*
X404232Y59401D01*
X404206Y59408D01*
X403875Y59435D01*
X392891Y59435D01*
X391398Y60054D01*
X371813Y79639D01*
X371792Y79656D01*
X371774Y79676D01*
X371636Y79783D01*
X371501Y79894D01*
X371477Y79907D01*
X371456Y79923D01*
X371299Y80001D01*
X371145Y80083D01*
X371120Y80090D01*
X371096Y80102D01*
X370926Y80148D01*
X370759Y80198D01*
X370733Y80200D01*
X370707Y80207D01*
X370376Y80234D01*
X364207Y80234D01*
X364189Y80232D01*
X364171Y80234D01*
X363989Y80212D01*
X363806Y80194D01*
X363789Y80189D01*
X363771Y80187D01*
X363597Y80130D01*
X363421Y80076D01*
X363406Y80067D01*
X363389Y80062D01*
X363228Y79972D01*
X363067Y79884D01*
X363054Y79873D01*
X363038Y79864D01*
X362899Y79744D01*
X362758Y79626D01*
X362747Y79613D01*
X362733Y79601D01*
X362621Y79456D01*
X362506Y79313D01*
X362497Y79297D01*
X362486Y79283D01*
X362404Y79118D01*
X362320Y78955D01*
X362315Y78938D01*
X362307Y78922D01*
X362259Y78744D01*
X362209Y78568D01*
X362207Y78551D01*
X362203Y78533D01*
X362175Y78203D01*
X362175Y76684D01*
X361402Y74817D01*
X359973Y73387D01*
X358105Y72614D01*
X357968Y72614D01*
X357937Y72611D01*
X357906Y72613D01*
X357737Y72591D01*
X357568Y72574D01*
X357538Y72565D01*
X357507Y72561D01*
X357191Y72459D01*
X356409Y72135D01*
X262875Y72135D01*
X262848Y72133D01*
X262822Y72135D01*
X262648Y72113D01*
X262474Y72095D01*
X262449Y72088D01*
X262422Y72084D01*
X262257Y72029D01*
X262090Y71977D01*
X262066Y71964D01*
X262041Y71956D01*
X261889Y71869D01*
X261735Y71785D01*
X261715Y71768D01*
X261692Y71755D01*
X261439Y71540D01*
X254259Y64361D01*
X254242Y64340D01*
X254222Y64323D01*
X254115Y64185D01*
X254004Y64049D01*
X253992Y64026D01*
X253975Y64005D01*
X253897Y63848D01*
X253816Y63694D01*
X253808Y63668D01*
X253796Y63644D01*
X253751Y63475D01*
X253701Y63308D01*
X253698Y63281D01*
X253691Y63255D01*
X253664Y62925D01*
X253664Y56617D01*
X253667Y56586D01*
X253665Y56555D01*
X253687Y56386D01*
X253704Y56217D01*
X253713Y56187D01*
X253717Y56156D01*
X253819Y55840D01*
X254680Y53760D01*
X254680Y51709D01*
X254657Y51626D01*
X254602Y51446D01*
X254601Y51433D01*
X254597Y51420D01*
X254582Y51231D01*
X254564Y51045D01*
X254565Y51032D01*
X254564Y51018D01*
X254586Y50832D01*
X254606Y50645D01*
X254610Y50632D01*
X254611Y50619D01*
X254669Y50440D01*
X254725Y50260D01*
X254732Y50249D01*
X254736Y50236D01*
X254828Y50072D01*
X254919Y49907D01*
X254927Y49897D01*
X254934Y49885D01*
X255057Y49743D01*
X255178Y49599D01*
X255188Y49591D01*
X255197Y49580D01*
X255345Y49466D01*
X255493Y49348D01*
X255505Y49342D01*
X255515Y49334D01*
X255684Y49250D01*
X255851Y49164D01*
X255864Y49160D01*
X255876Y49154D01*
X256058Y49105D01*
X256238Y49054D01*
X256252Y49053D01*
X256265Y49050D01*
X256595Y49023D01*
X259420Y49023D01*
X262968Y47553D01*
X265721Y44800D01*
X265723Y44796D01*
X265813Y44628D01*
X265819Y44621D01*
X265823Y44613D01*
X265949Y44463D01*
X266070Y44317D01*
X266077Y44311D01*
X266083Y44305D01*
X266234Y44184D01*
X266382Y44063D01*
X266390Y44059D01*
X266397Y44054D01*
X266568Y43966D01*
X266739Y43876D01*
X266748Y43874D01*
X266756Y43870D01*
X266939Y43818D01*
X267125Y43763D01*
X267134Y43762D01*
X267143Y43760D01*
X267335Y43745D01*
X267526Y43729D01*
X267535Y43730D01*
X267544Y43729D01*
X267735Y43752D01*
X267927Y43774D01*
X267935Y43776D01*
X267944Y43777D01*
X268126Y43838D01*
X268310Y43897D01*
X268318Y43901D01*
X268326Y43904D01*
X268493Y43999D01*
X268661Y44093D01*
X268668Y44099D01*
X268676Y44103D01*
X268821Y44229D01*
X268967Y44355D01*
X268973Y44362D01*
X268980Y44368D01*
X269096Y44520D01*
X269215Y44672D01*
X269220Y44680D01*
X269225Y44687D01*
X269287Y44808D01*
X272032Y47553D01*
X275580Y49023D01*
X279420Y49023D01*
X282968Y47553D01*
X285721Y44800D01*
X285723Y44796D01*
X285813Y44628D01*
X285819Y44621D01*
X285823Y44613D01*
X285949Y44463D01*
X286070Y44317D01*
X286077Y44311D01*
X286083Y44305D01*
X286234Y44184D01*
X286382Y44063D01*
X286390Y44059D01*
X286397Y44054D01*
X286568Y43966D01*
X286739Y43876D01*
X286748Y43874D01*
X286756Y43870D01*
X286939Y43818D01*
X287125Y43763D01*
X287134Y43762D01*
X287143Y43760D01*
X287335Y43745D01*
X287526Y43729D01*
X287535Y43730D01*
X287544Y43729D01*
X287735Y43752D01*
X287927Y43774D01*
X287935Y43776D01*
X287944Y43777D01*
X288126Y43838D01*
X288310Y43897D01*
X288318Y43901D01*
X288326Y43904D01*
X288493Y43999D01*
X288661Y44093D01*
X288668Y44099D01*
X288676Y44103D01*
X288821Y44229D01*
X288967Y44355D01*
X288973Y44362D01*
X288980Y44368D01*
X289096Y44520D01*
X289215Y44672D01*
X289220Y44680D01*
X289225Y44687D01*
X289287Y44808D01*
X292032Y47553D01*
X295580Y49023D01*
X299420Y49023D01*
X302968Y47553D01*
X305872Y44649D01*
X306009Y44537D01*
X306144Y44421D01*
X306165Y44409D01*
X306184Y44394D01*
X306340Y44311D01*
X306495Y44224D01*
X306518Y44216D01*
X306540Y44205D01*
X306709Y44155D01*
X306878Y44100D01*
X306902Y44097D01*
X306925Y44090D01*
X307102Y44074D01*
X307278Y44054D01*
X307302Y44056D01*
X307326Y44054D01*
X307503Y44073D01*
X307679Y44088D01*
X307702Y44095D01*
X307727Y44097D01*
X307896Y44151D01*
X308066Y44200D01*
X308087Y44211D01*
X308111Y44219D01*
X308266Y44304D01*
X308423Y44386D01*
X308442Y44402D01*
X308463Y44414D01*
X308598Y44528D01*
X308736Y44639D01*
X308753Y44660D01*
X308770Y44674D01*
X308821Y44738D01*
X308952Y44891D01*
X309750Y45989D01*
X310881Y47120D01*
X312175Y48060D01*
X313600Y48786D01*
X314961Y49229D01*
X314961Y32258D01*
X314962Y32240D01*
X314961Y32223D01*
X314982Y32040D01*
X315001Y31858D01*
X315006Y31841D01*
X315008Y31823D01*
X315065Y31648D01*
X315119Y31473D01*
X315127Y31457D01*
X315133Y31440D01*
X315223Y31280D01*
X315310Y31119D01*
X315322Y31105D01*
X315331Y31089D01*
X315451Y30950D01*
X315568Y30809D01*
X315582Y30798D01*
X315594Y30785D01*
X315739Y30672D01*
X315882Y30557D01*
X315898Y30549D01*
X315912Y30538D01*
X316077Y30456D01*
X316153Y30416D01*
X316239Y30264D01*
X316327Y30102D01*
X316338Y30089D01*
X316347Y30073D01*
X316467Y29934D01*
X316585Y29793D01*
X316598Y29782D01*
X316610Y29768D01*
X316755Y29656D01*
X316898Y29541D01*
X316914Y29533D01*
X316928Y29522D01*
X317093Y29440D01*
X317256Y29355D01*
X317273Y29350D01*
X317289Y29342D01*
X317467Y29294D01*
X317642Y29244D01*
X317660Y29242D01*
X317677Y29238D01*
X318008Y29211D01*
X336992Y29211D01*
X337010Y29212D01*
G37*
G36*
X366077Y193268D02*
X366077Y193268D01*
X366086Y193267D01*
X366279Y193288D01*
X366469Y193307D01*
X366477Y193309D01*
X366486Y193310D01*
X366671Y193369D01*
X366853Y193425D01*
X366861Y193429D01*
X366870Y193432D01*
X367038Y193525D01*
X367208Y193617D01*
X367214Y193622D01*
X367222Y193627D01*
X367369Y193751D01*
X367517Y193874D01*
X367522Y193881D01*
X367529Y193887D01*
X367649Y194039D01*
X367769Y194188D01*
X367773Y194196D01*
X367779Y194203D01*
X367867Y194376D01*
X367955Y194545D01*
X367957Y194554D01*
X367961Y194562D01*
X368013Y194748D01*
X368066Y194932D01*
X368067Y194941D01*
X368069Y194950D01*
X368083Y195141D01*
X368099Y195334D01*
X368098Y195342D01*
X368099Y195351D01*
X368074Y195542D01*
X368052Y195733D01*
X368049Y195742D01*
X368048Y195751D01*
X367987Y195933D01*
X367927Y196116D01*
X367923Y196124D01*
X367920Y196132D01*
X367824Y196299D01*
X367729Y196467D01*
X367723Y196474D01*
X367719Y196481D01*
X367504Y196734D01*
X344588Y219650D01*
X344567Y219667D01*
X344550Y219688D01*
X344412Y219795D01*
X344277Y219905D01*
X344253Y219918D01*
X344232Y219934D01*
X344075Y220012D01*
X343921Y220094D01*
X343895Y220102D01*
X343871Y220114D01*
X343702Y220159D01*
X343535Y220209D01*
X343508Y220211D01*
X343483Y220218D01*
X343152Y220245D01*
X311642Y220245D01*
X311616Y220243D01*
X311589Y220245D01*
X311415Y220223D01*
X311242Y220205D01*
X311216Y220198D01*
X311190Y220194D01*
X311024Y220139D01*
X310857Y220087D01*
X310833Y220074D01*
X310808Y220066D01*
X310656Y219979D01*
X310511Y219900D01*
X308653Y219130D01*
X306744Y219130D01*
X304980Y219861D01*
X303630Y221211D01*
X302900Y222974D01*
X302900Y224884D01*
X303630Y226647D01*
X304401Y227418D01*
X304406Y227425D01*
X304413Y227430D01*
X304533Y227579D01*
X304656Y227729D01*
X304660Y227737D01*
X304665Y227744D01*
X304754Y227914D01*
X304844Y228085D01*
X304847Y228094D01*
X304851Y228101D01*
X304904Y228285D01*
X304959Y228471D01*
X304960Y228480D01*
X304962Y228488D01*
X304978Y228679D01*
X304995Y228872D01*
X304995Y228881D01*
X304995Y228890D01*
X304973Y229079D01*
X304952Y229272D01*
X304949Y229281D01*
X304948Y229289D01*
X304889Y229472D01*
X304831Y229656D01*
X304826Y229664D01*
X304823Y229672D01*
X304729Y229839D01*
X304636Y230008D01*
X304630Y230015D01*
X304626Y230023D01*
X304500Y230168D01*
X304375Y230315D01*
X304368Y230321D01*
X304362Y230328D01*
X304211Y230445D01*
X304059Y230565D01*
X304051Y230569D01*
X304044Y230574D01*
X303872Y230660D01*
X303700Y230747D01*
X303692Y230750D01*
X303684Y230754D01*
X303498Y230803D01*
X303313Y230855D01*
X303304Y230856D01*
X303295Y230858D01*
X302964Y230885D01*
X257000Y230885D01*
X256973Y230883D01*
X256947Y230885D01*
X256773Y230863D01*
X256599Y230845D01*
X256574Y230838D01*
X256547Y230834D01*
X256382Y230779D01*
X256215Y230727D01*
X256191Y230714D01*
X256166Y230706D01*
X256014Y230619D01*
X255860Y230535D01*
X255840Y230518D01*
X255817Y230505D01*
X255564Y230290D01*
X237877Y212604D01*
X237331Y212378D01*
X237303Y212363D01*
X237274Y212353D01*
X237126Y212268D01*
X236976Y212188D01*
X236952Y212168D01*
X236925Y212152D01*
X236672Y211937D01*
X221469Y196734D01*
X221463Y196727D01*
X221456Y196722D01*
X221336Y196572D01*
X221214Y196423D01*
X221210Y196415D01*
X221204Y196408D01*
X221116Y196238D01*
X221025Y196067D01*
X221023Y196058D01*
X221019Y196051D01*
X220965Y195866D01*
X220910Y195681D01*
X220910Y195672D01*
X220907Y195664D01*
X220891Y195472D01*
X220874Y195280D01*
X220875Y195271D01*
X220874Y195262D01*
X220896Y195073D01*
X220917Y194880D01*
X220920Y194871D01*
X220921Y194863D01*
X220981Y194681D01*
X221039Y194496D01*
X221043Y194488D01*
X221046Y194480D01*
X221141Y194311D01*
X221234Y194144D01*
X221239Y194137D01*
X221244Y194129D01*
X221370Y193983D01*
X221494Y193837D01*
X221501Y193831D01*
X221507Y193824D01*
X221658Y193707D01*
X221810Y193587D01*
X221818Y193583D01*
X221825Y193578D01*
X221997Y193492D01*
X222169Y193405D01*
X222178Y193402D01*
X222186Y193398D01*
X222372Y193348D01*
X222557Y193297D01*
X222566Y193296D01*
X222574Y193294D01*
X222905Y193267D01*
X366068Y193267D01*
X366077Y193268D01*
G37*
G36*
X237435Y78362D02*
X237435Y78362D01*
X237462Y78360D01*
X237636Y78382D01*
X237809Y78400D01*
X237835Y78407D01*
X237862Y78411D01*
X238027Y78466D01*
X238194Y78518D01*
X238218Y78531D01*
X238243Y78539D01*
X238395Y78626D01*
X238548Y78710D01*
X238569Y78727D01*
X238592Y78740D01*
X238845Y78955D01*
X258599Y98709D01*
X259870Y98709D01*
X259888Y98711D01*
X259906Y98709D01*
X260088Y98731D01*
X260271Y98749D01*
X260288Y98754D01*
X260305Y98756D01*
X260480Y98813D01*
X260656Y98867D01*
X260671Y98876D01*
X260688Y98881D01*
X260848Y98971D01*
X261010Y99059D01*
X261023Y99070D01*
X261039Y99079D01*
X261178Y99199D01*
X261319Y99317D01*
X261330Y99330D01*
X261344Y99342D01*
X261456Y99487D01*
X261571Y99630D01*
X261579Y99646D01*
X261590Y99660D01*
X261672Y99825D01*
X261757Y99988D01*
X261762Y100005D01*
X261770Y100021D01*
X261817Y100199D01*
X261868Y100375D01*
X261870Y100392D01*
X261874Y100410D01*
X261901Y100740D01*
X261901Y102555D01*
X262632Y104318D01*
X263982Y105668D01*
X265840Y106438D01*
X265848Y106439D01*
X265874Y106446D01*
X265901Y106450D01*
X266066Y106505D01*
X266233Y106557D01*
X266257Y106570D01*
X266282Y106578D01*
X266434Y106665D01*
X266587Y106749D01*
X266608Y106766D01*
X266631Y106779D01*
X266884Y106994D01*
X273008Y113118D01*
X273014Y113125D01*
X273021Y113130D01*
X273141Y113280D01*
X273263Y113429D01*
X273267Y113437D01*
X273273Y113444D01*
X273361Y113614D01*
X273452Y113785D01*
X273454Y113794D01*
X273458Y113801D01*
X273512Y113986D01*
X273567Y114171D01*
X273567Y114180D01*
X273570Y114188D01*
X273586Y114380D01*
X273603Y114572D01*
X273602Y114581D01*
X273603Y114590D01*
X273581Y114778D01*
X273560Y114972D01*
X273557Y114981D01*
X273556Y114989D01*
X273496Y115171D01*
X273438Y115356D01*
X273434Y115364D01*
X273431Y115372D01*
X273336Y115541D01*
X273243Y115708D01*
X273238Y115715D01*
X273233Y115723D01*
X273107Y115869D01*
X272983Y116015D01*
X272976Y116021D01*
X272970Y116028D01*
X272819Y116145D01*
X272667Y116265D01*
X272659Y116269D01*
X272652Y116274D01*
X272480Y116360D01*
X272308Y116447D01*
X272299Y116450D01*
X272291Y116454D01*
X272105Y116504D01*
X271920Y116555D01*
X271911Y116556D01*
X271903Y116558D01*
X271572Y116585D01*
X254435Y116585D01*
X254408Y116583D01*
X254381Y116585D01*
X254207Y116563D01*
X254034Y116545D01*
X254008Y116538D01*
X253982Y116534D01*
X253816Y116479D01*
X253649Y116427D01*
X253625Y116414D01*
X253600Y116406D01*
X253448Y116319D01*
X253295Y116235D01*
X253275Y116218D01*
X253251Y116205D01*
X252998Y115990D01*
X248878Y111870D01*
X247384Y111251D01*
X207562Y111251D01*
X207535Y111249D01*
X207508Y111251D01*
X207334Y111229D01*
X207161Y111211D01*
X207135Y111204D01*
X207109Y111200D01*
X206943Y111145D01*
X206776Y111093D01*
X206752Y111080D01*
X206727Y111072D01*
X206575Y110985D01*
X206422Y110901D01*
X206402Y110884D01*
X206378Y110871D01*
X206125Y110656D01*
X201256Y105787D01*
X201239Y105766D01*
X201218Y105749D01*
X201111Y105611D01*
X201001Y105475D01*
X200988Y105452D01*
X200972Y105430D01*
X200894Y105274D01*
X200812Y105120D01*
X200804Y105094D01*
X200792Y105070D01*
X200747Y104901D01*
X200697Y104734D01*
X200695Y104707D01*
X200688Y104681D01*
X200661Y104350D01*
X200661Y99267D01*
X200042Y97774D01*
X198613Y96344D01*
X197976Y95707D01*
X197973Y95704D01*
X197969Y95701D01*
X197847Y95550D01*
X197721Y95396D01*
X197719Y95392D01*
X197716Y95388D01*
X197626Y95218D01*
X197532Y95040D01*
X197531Y95036D01*
X197529Y95032D01*
X197474Y94847D01*
X197417Y94654D01*
X197417Y94650D01*
X197416Y94645D01*
X197399Y94449D01*
X197381Y94253D01*
X197381Y94249D01*
X197381Y94244D01*
X197402Y94054D01*
X197424Y93853D01*
X197426Y93849D01*
X197426Y93844D01*
X197486Y93658D01*
X197546Y93469D01*
X197548Y93465D01*
X197549Y93461D01*
X197646Y93288D01*
X197741Y93117D01*
X197743Y93113D01*
X197746Y93109D01*
X197874Y92960D01*
X198001Y92810D01*
X198005Y92807D01*
X198007Y92804D01*
X198163Y92681D01*
X198317Y92560D01*
X198321Y92558D01*
X198324Y92555D01*
X198503Y92466D01*
X198676Y92378D01*
X198680Y92377D01*
X198684Y92375D01*
X198876Y92322D01*
X199064Y92270D01*
X199068Y92270D01*
X199073Y92268D01*
X199271Y92255D01*
X199465Y92240D01*
X199470Y92241D01*
X199474Y92241D01*
X199671Y92266D01*
X199865Y92291D01*
X199869Y92292D01*
X199873Y92293D01*
X200189Y92394D01*
X200895Y92687D01*
X202917Y92687D01*
X204784Y91913D01*
X206213Y90484D01*
X206987Y88617D01*
X206987Y88576D01*
X206990Y88550D01*
X206988Y88523D01*
X207010Y88349D01*
X207027Y88176D01*
X207035Y88150D01*
X207038Y88124D01*
X207094Y87958D01*
X207145Y87791D01*
X207158Y87767D01*
X207166Y87742D01*
X207254Y87590D01*
X207337Y87437D01*
X207354Y87416D01*
X207367Y87393D01*
X207582Y87140D01*
X215767Y78955D01*
X215788Y78938D01*
X215805Y78917D01*
X215943Y78810D01*
X216079Y78700D01*
X216102Y78687D01*
X216123Y78671D01*
X216280Y78593D01*
X216434Y78511D01*
X216460Y78503D01*
X216484Y78491D01*
X216653Y78446D01*
X216820Y78396D01*
X216847Y78394D01*
X216873Y78387D01*
X217204Y78360D01*
X237409Y78360D01*
X237435Y78362D01*
G37*
G36*
X308601Y150117D02*
X308601Y150117D01*
X308628Y150115D01*
X308801Y150137D01*
X308975Y150155D01*
X309000Y150162D01*
X309027Y150166D01*
X309193Y150222D01*
X309360Y150273D01*
X309383Y150285D01*
X309409Y150294D01*
X309560Y150381D01*
X309714Y150465D01*
X309734Y150482D01*
X309758Y150495D01*
X310011Y150710D01*
X311817Y152516D01*
X311822Y152523D01*
X311829Y152528D01*
X311949Y152678D01*
X312072Y152827D01*
X312076Y152835D01*
X312081Y152842D01*
X312170Y153012D01*
X312260Y153183D01*
X312263Y153192D01*
X312267Y153199D01*
X312320Y153384D01*
X312375Y153569D01*
X312376Y153578D01*
X312378Y153586D01*
X312394Y153775D01*
X312412Y153970D01*
X312411Y153979D01*
X312411Y153988D01*
X312389Y154177D01*
X312368Y154370D01*
X312365Y154379D01*
X312364Y154387D01*
X312305Y154569D01*
X312247Y154754D01*
X312242Y154762D01*
X312240Y154770D01*
X312145Y154937D01*
X312052Y155106D01*
X312046Y155113D01*
X312042Y155121D01*
X311916Y155266D01*
X311791Y155413D01*
X311784Y155419D01*
X311778Y155426D01*
X311628Y155542D01*
X311475Y155663D01*
X311467Y155667D01*
X311460Y155672D01*
X311289Y155758D01*
X311116Y155845D01*
X311108Y155848D01*
X311100Y155852D01*
X310914Y155902D01*
X310729Y155953D01*
X310720Y155954D01*
X310711Y155956D01*
X310380Y155983D01*
X269623Y155983D01*
X268129Y156602D01*
X266700Y158031D01*
X264951Y159780D01*
X264930Y159797D01*
X264913Y159817D01*
X264775Y159924D01*
X264639Y160035D01*
X264616Y160048D01*
X264595Y160064D01*
X264438Y160142D01*
X264284Y160224D01*
X264258Y160231D01*
X264234Y160243D01*
X264065Y160289D01*
X263898Y160338D01*
X263871Y160341D01*
X263845Y160348D01*
X263515Y160375D01*
X193341Y160375D01*
X191507Y161135D01*
X191477Y161144D01*
X191449Y161158D01*
X191285Y161202D01*
X191122Y161251D01*
X191091Y161254D01*
X191061Y161262D01*
X190730Y161289D01*
X129779Y161289D01*
X129753Y161287D01*
X129726Y161289D01*
X129552Y161267D01*
X129378Y161249D01*
X129353Y161242D01*
X129326Y161238D01*
X129161Y161183D01*
X128994Y161131D01*
X128970Y161118D01*
X128945Y161110D01*
X128794Y161023D01*
X128639Y160939D01*
X128619Y160922D01*
X128596Y160909D01*
X128343Y160694D01*
X128123Y160474D01*
X128114Y160464D01*
X128104Y160455D01*
X127987Y160308D01*
X127868Y160163D01*
X127861Y160151D01*
X127853Y160140D01*
X127767Y159973D01*
X127679Y159807D01*
X127675Y159794D01*
X127669Y159782D01*
X127618Y159602D01*
X127564Y159421D01*
X127563Y159408D01*
X127559Y159395D01*
X127545Y159209D01*
X127528Y159020D01*
X127529Y159007D01*
X127528Y158994D01*
X127551Y158808D01*
X127571Y158620D01*
X127575Y158607D01*
X127577Y158594D01*
X127636Y158415D01*
X127693Y158236D01*
X127699Y158224D01*
X127703Y158212D01*
X127796Y158049D01*
X127887Y157884D01*
X127896Y157874D01*
X127903Y157862D01*
X128025Y157721D01*
X128148Y157577D01*
X128159Y157568D01*
X128167Y157558D01*
X128317Y157444D01*
X128464Y157327D01*
X128476Y157321D01*
X128487Y157313D01*
X128782Y157161D01*
X129878Y156707D01*
X131307Y155278D01*
X132169Y153198D01*
X132183Y153171D01*
X132193Y153141D01*
X132278Y152994D01*
X132359Y152844D01*
X132379Y152819D01*
X132394Y152792D01*
X132609Y152539D01*
X134439Y150710D01*
X134459Y150693D01*
X134477Y150672D01*
X134615Y150566D01*
X134750Y150455D01*
X134774Y150442D01*
X134795Y150426D01*
X134951Y150348D01*
X135106Y150266D01*
X135132Y150258D01*
X135156Y150246D01*
X135324Y150201D01*
X135492Y150151D01*
X135518Y150149D01*
X135544Y150142D01*
X135875Y150115D01*
X308574Y150115D01*
X308601Y150117D01*
G37*
G36*
X157926Y42167D02*
X157926Y42167D01*
X157953Y42165D01*
X158127Y42187D01*
X158300Y42205D01*
X158326Y42212D01*
X158352Y42216D01*
X158518Y42271D01*
X158685Y42323D01*
X158709Y42336D01*
X158734Y42344D01*
X158886Y42431D01*
X159039Y42515D01*
X159060Y42532D01*
X159083Y42545D01*
X159336Y42760D01*
X170568Y53992D01*
X172062Y54611D01*
X178831Y54611D01*
X178857Y54613D01*
X178883Y54611D01*
X179058Y54633D01*
X179232Y54651D01*
X179257Y54658D01*
X179283Y54662D01*
X179449Y54717D01*
X179616Y54769D01*
X179640Y54781D01*
X179664Y54790D01*
X179816Y54877D01*
X179971Y54961D01*
X179991Y54977D01*
X180013Y54990D01*
X180266Y55205D01*
X180295Y55233D01*
X180301Y55240D01*
X180308Y55246D01*
X180428Y55396D01*
X180550Y55544D01*
X180554Y55553D01*
X180560Y55560D01*
X180647Y55728D01*
X180739Y55900D01*
X180741Y55909D01*
X180746Y55917D01*
X180798Y56101D01*
X180854Y56286D01*
X180854Y56295D01*
X180857Y56304D01*
X180873Y56496D01*
X180890Y56687D01*
X180889Y56696D01*
X180890Y56706D01*
X180868Y56895D01*
X180847Y57087D01*
X180844Y57096D01*
X180843Y57105D01*
X180784Y57287D01*
X180726Y57471D01*
X180721Y57479D01*
X180718Y57488D01*
X180624Y57655D01*
X180531Y57823D01*
X180525Y57831D01*
X180520Y57839D01*
X180396Y57983D01*
X180271Y58130D01*
X180263Y58136D01*
X180257Y58144D01*
X180106Y58261D01*
X179955Y58380D01*
X179947Y58385D01*
X179939Y58390D01*
X179768Y58476D01*
X179596Y58563D01*
X179587Y58565D01*
X179579Y58570D01*
X179392Y58620D01*
X179208Y58671D01*
X179199Y58672D01*
X179190Y58674D01*
X178859Y58701D01*
X176845Y58701D01*
X175082Y59432D01*
X173732Y60782D01*
X173152Y62180D01*
X173138Y62208D01*
X173128Y62238D01*
X173043Y62385D01*
X172962Y62535D01*
X172942Y62559D01*
X172927Y62586D01*
X172712Y62839D01*
X138639Y96912D01*
X138619Y96929D01*
X138601Y96950D01*
X138463Y97057D01*
X138328Y97167D01*
X138304Y97180D01*
X138283Y97196D01*
X138126Y97274D01*
X137972Y97356D01*
X137947Y97364D01*
X137922Y97376D01*
X137753Y97421D01*
X137586Y97471D01*
X137560Y97473D01*
X137534Y97480D01*
X137203Y97507D01*
X122695Y97507D01*
X122686Y97506D01*
X122677Y97507D01*
X122484Y97486D01*
X122294Y97467D01*
X122286Y97465D01*
X122277Y97464D01*
X122092Y97405D01*
X121909Y97349D01*
X121902Y97345D01*
X121893Y97342D01*
X121725Y97249D01*
X121555Y97157D01*
X121549Y97152D01*
X121541Y97147D01*
X121394Y97023D01*
X121246Y96900D01*
X121241Y96893D01*
X121234Y96887D01*
X121114Y96735D01*
X120994Y96586D01*
X120990Y96578D01*
X120984Y96571D01*
X120896Y96398D01*
X120808Y96229D01*
X120806Y96220D01*
X120802Y96212D01*
X120750Y96026D01*
X120697Y95842D01*
X120696Y95833D01*
X120694Y95824D01*
X120680Y95631D01*
X120664Y95440D01*
X120665Y95432D01*
X120664Y95423D01*
X120689Y95230D01*
X120711Y95041D01*
X120714Y95032D01*
X120715Y95023D01*
X120776Y94841D01*
X120836Y94658D01*
X120840Y94650D01*
X120843Y94642D01*
X120939Y94475D01*
X121034Y94307D01*
X121039Y94300D01*
X121044Y94293D01*
X121259Y94040D01*
X147813Y67486D01*
X149242Y66056D01*
X149861Y64563D01*
X149861Y45212D01*
X149863Y45194D01*
X149861Y45176D01*
X149882Y44994D01*
X149901Y44811D01*
X149906Y44794D01*
X149908Y44777D01*
X149965Y44602D01*
X150019Y44426D01*
X150027Y44411D01*
X150033Y44394D01*
X150124Y44233D01*
X150211Y44072D01*
X150222Y44059D01*
X150231Y44043D01*
X150351Y43904D01*
X150468Y43763D01*
X150482Y43752D01*
X150494Y43738D01*
X150639Y43626D01*
X150782Y43511D01*
X150798Y43503D01*
X150812Y43492D01*
X150977Y43410D01*
X151139Y43325D01*
X151156Y43320D01*
X151172Y43312D01*
X151351Y43265D01*
X151526Y43214D01*
X151544Y43212D01*
X151561Y43208D01*
X151892Y43181D01*
X153411Y43181D01*
X155490Y42319D01*
X155520Y42310D01*
X155548Y42296D01*
X155713Y42252D01*
X155876Y42203D01*
X155907Y42200D01*
X155937Y42192D01*
X156268Y42165D01*
X157900Y42165D01*
X157926Y42167D01*
G37*
G36*
X547431Y240117D02*
X547431Y240117D01*
X547453Y240115D01*
X547630Y240137D01*
X547809Y240155D01*
X547830Y240161D01*
X547853Y240164D01*
X548022Y240220D01*
X548194Y240273D01*
X548214Y240283D01*
X548235Y240290D01*
X548390Y240379D01*
X548548Y240465D01*
X548565Y240479D01*
X548584Y240490D01*
X548719Y240607D01*
X548857Y240722D01*
X548871Y240740D01*
X548888Y240754D01*
X548997Y240896D01*
X549110Y241036D01*
X549120Y241056D01*
X549133Y241074D01*
X549285Y241369D01*
X549347Y241518D01*
X552100Y244271D01*
X552104Y244273D01*
X552272Y244363D01*
X552279Y244369D01*
X552287Y244374D01*
X552435Y244498D01*
X552583Y244620D01*
X552589Y244627D01*
X552596Y244633D01*
X552716Y244783D01*
X552837Y244932D01*
X552841Y244940D01*
X552846Y244947D01*
X552935Y245120D01*
X553024Y245289D01*
X553026Y245297D01*
X553030Y245306D01*
X553083Y245492D01*
X553137Y245675D01*
X553138Y245684D01*
X553140Y245693D01*
X553155Y245883D01*
X553172Y246076D01*
X553171Y246086D01*
X553171Y246094D01*
X553148Y246284D01*
X553126Y246476D01*
X553124Y246485D01*
X553123Y246494D01*
X553062Y246676D01*
X553003Y246860D01*
X552999Y246868D01*
X552996Y246876D01*
X552901Y247043D01*
X552807Y247211D01*
X552801Y247218D01*
X552797Y247226D01*
X552671Y247370D01*
X552545Y247517D01*
X552538Y247523D01*
X552532Y247530D01*
X552379Y247647D01*
X552228Y247765D01*
X552220Y247769D01*
X552213Y247775D01*
X552092Y247837D01*
X549347Y250582D01*
X547877Y254130D01*
X547877Y254254D01*
X547875Y254272D01*
X547877Y254290D01*
X547856Y254472D01*
X547837Y254655D01*
X547832Y254672D01*
X547830Y254689D01*
X547773Y254863D01*
X547719Y255040D01*
X547711Y255055D01*
X547705Y255072D01*
X547615Y255232D01*
X547527Y255394D01*
X547516Y255407D01*
X547507Y255423D01*
X547387Y255562D01*
X547270Y255703D01*
X547256Y255714D01*
X547244Y255728D01*
X547099Y255840D01*
X546956Y255955D01*
X546940Y255963D01*
X546926Y255974D01*
X546761Y256056D01*
X546599Y256141D01*
X546582Y256146D01*
X546566Y256154D01*
X546387Y256201D01*
X546212Y256252D01*
X546194Y256254D01*
X546177Y256258D01*
X545846Y256285D01*
X523225Y256285D01*
X523198Y256283D01*
X523172Y256285D01*
X522998Y256263D01*
X522824Y256245D01*
X522799Y256238D01*
X522772Y256234D01*
X522607Y256179D01*
X522440Y256127D01*
X522416Y256114D01*
X522391Y256106D01*
X522239Y256019D01*
X522085Y255935D01*
X522065Y255918D01*
X522042Y255905D01*
X521789Y255690D01*
X509681Y243582D01*
X509675Y243575D01*
X509668Y243570D01*
X509548Y243420D01*
X509426Y243271D01*
X509421Y243263D01*
X509416Y243256D01*
X509327Y243086D01*
X509237Y242915D01*
X509234Y242906D01*
X509230Y242899D01*
X509177Y242714D01*
X509122Y242529D01*
X509121Y242520D01*
X509119Y242512D01*
X509103Y242320D01*
X509086Y242128D01*
X509087Y242119D01*
X509086Y242110D01*
X509108Y241921D01*
X509129Y241728D01*
X509132Y241719D01*
X509133Y241711D01*
X509192Y241529D01*
X509251Y241344D01*
X509255Y241336D01*
X509258Y241328D01*
X509353Y241159D01*
X509446Y240992D01*
X509451Y240985D01*
X509456Y240977D01*
X509582Y240831D01*
X509706Y240685D01*
X509713Y240679D01*
X509719Y240672D01*
X509870Y240555D01*
X510022Y240435D01*
X510030Y240431D01*
X510037Y240426D01*
X510209Y240340D01*
X510381Y240253D01*
X510389Y240250D01*
X510397Y240246D01*
X510584Y240196D01*
X510769Y240145D01*
X510778Y240144D01*
X510786Y240142D01*
X511117Y240115D01*
X547408Y240115D01*
X547431Y240117D01*
G37*
G36*
X219048Y213645D02*
X219048Y213645D01*
X219075Y213643D01*
X219249Y213665D01*
X219422Y213683D01*
X219448Y213690D01*
X219475Y213694D01*
X219640Y213749D01*
X219807Y213801D01*
X219831Y213814D01*
X219856Y213822D01*
X220008Y213909D01*
X220161Y213993D01*
X220182Y214010D01*
X220205Y214023D01*
X220458Y214238D01*
X258530Y252310D01*
X258536Y252317D01*
X258543Y252322D01*
X258663Y252472D01*
X258785Y252621D01*
X258789Y252629D01*
X258795Y252636D01*
X258884Y252807D01*
X258974Y252977D01*
X258976Y252985D01*
X258980Y252993D01*
X259034Y253179D01*
X259089Y253363D01*
X259089Y253372D01*
X259092Y253380D01*
X259108Y253572D01*
X259125Y253764D01*
X259124Y253773D01*
X259125Y253782D01*
X259103Y253971D01*
X259082Y254164D01*
X259079Y254173D01*
X259078Y254181D01*
X259018Y254363D01*
X258960Y254548D01*
X258956Y254556D01*
X258953Y254564D01*
X258858Y254733D01*
X258765Y254900D01*
X258760Y254907D01*
X258755Y254915D01*
X258629Y255061D01*
X258505Y255207D01*
X258498Y255213D01*
X258492Y255220D01*
X258341Y255337D01*
X258189Y255457D01*
X258181Y255461D01*
X258174Y255466D01*
X258003Y255551D01*
X257830Y255639D01*
X257821Y255642D01*
X257813Y255646D01*
X257627Y255696D01*
X257442Y255747D01*
X257433Y255748D01*
X257425Y255750D01*
X257094Y255777D01*
X255580Y255777D01*
X254533Y256211D01*
X254511Y256217D01*
X254492Y256228D01*
X254318Y256276D01*
X254147Y256327D01*
X254125Y256330D01*
X254104Y256336D01*
X253924Y256349D01*
X253747Y256366D01*
X253725Y256363D01*
X253702Y256365D01*
X253524Y256342D01*
X253346Y256324D01*
X253325Y256317D01*
X253303Y256315D01*
X253133Y256258D01*
X252962Y256204D01*
X252942Y256193D01*
X252921Y256186D01*
X252766Y256097D01*
X252609Y256011D01*
X252592Y255997D01*
X252572Y255985D01*
X252319Y255771D01*
X216754Y220205D01*
X215324Y218776D01*
X213831Y218157D01*
X181516Y218157D01*
X181490Y218155D01*
X181463Y218157D01*
X181289Y218135D01*
X181116Y218117D01*
X181090Y218110D01*
X181064Y218106D01*
X180898Y218051D01*
X180731Y217999D01*
X180707Y217986D01*
X180682Y217978D01*
X180530Y217891D01*
X180377Y217807D01*
X180356Y217790D01*
X180333Y217777D01*
X180080Y217562D01*
X179628Y217110D01*
X179622Y217103D01*
X179615Y217098D01*
X179495Y216948D01*
X179373Y216799D01*
X179369Y216791D01*
X179363Y216784D01*
X179275Y216615D01*
X179184Y216443D01*
X179182Y216434D01*
X179178Y216427D01*
X179125Y216242D01*
X179070Y216057D01*
X179069Y216048D01*
X179066Y216040D01*
X179050Y215847D01*
X179033Y215656D01*
X179034Y215647D01*
X179033Y215638D01*
X179056Y215449D01*
X179077Y215256D01*
X179079Y215247D01*
X179080Y215239D01*
X179140Y215055D01*
X179198Y214872D01*
X179202Y214864D01*
X179205Y214856D01*
X179300Y214688D01*
X179393Y214520D01*
X179399Y214513D01*
X179403Y214505D01*
X179528Y214361D01*
X179653Y214213D01*
X179660Y214207D01*
X179666Y214200D01*
X179817Y214083D01*
X179969Y213963D01*
X179977Y213959D01*
X179984Y213954D01*
X180156Y213868D01*
X180328Y213781D01*
X180337Y213778D01*
X180345Y213774D01*
X180532Y213724D01*
X180716Y213673D01*
X180725Y213672D01*
X180734Y213670D01*
X181064Y213643D01*
X219022Y213643D01*
X219048Y213645D01*
G37*
%LPC*%
G36*
X440039Y275589D02*
X440039Y275589D01*
X440039Y290529D01*
X441400Y290086D01*
X442825Y289360D01*
X444119Y288420D01*
X445250Y287289D01*
X445857Y286454D01*
X445947Y286354D01*
X446030Y286247D01*
X446080Y286203D01*
X446124Y286154D01*
X446232Y286073D01*
X446335Y285984D01*
X446393Y285952D01*
X446446Y285912D01*
X446568Y285854D01*
X446686Y285787D01*
X446750Y285767D01*
X446809Y285738D01*
X446940Y285705D01*
X447069Y285663D01*
X447135Y285656D01*
X447200Y285639D01*
X447335Y285633D01*
X447469Y285617D01*
X447535Y285623D01*
X447602Y285620D01*
X447736Y285640D01*
X447870Y285651D01*
X447934Y285670D01*
X448000Y285680D01*
X448127Y285726D01*
X448257Y285763D01*
X448316Y285794D01*
X448378Y285817D01*
X448494Y285887D01*
X448614Y285950D01*
X448666Y285992D01*
X448722Y286026D01*
X448822Y286118D01*
X448927Y286203D01*
X448977Y286261D01*
X449018Y286299D01*
X449065Y286363D01*
X449143Y286454D01*
X449750Y287289D01*
X450881Y288420D01*
X452175Y289360D01*
X453600Y290086D01*
X454961Y290529D01*
X454961Y275589D01*
X440039Y275589D01*
G37*
%LPD*%
%LPC*%
G36*
X320039Y34289D02*
X320039Y34289D01*
X320039Y49229D01*
X321400Y48786D01*
X322825Y48060D01*
X324119Y47120D01*
X325250Y45989D01*
X325857Y45154D01*
X325947Y45054D01*
X326030Y44947D01*
X326080Y44903D01*
X326124Y44854D01*
X326232Y44773D01*
X326335Y44684D01*
X326393Y44652D01*
X326446Y44612D01*
X326568Y44554D01*
X326686Y44487D01*
X326750Y44467D01*
X326809Y44438D01*
X326940Y44405D01*
X327069Y44363D01*
X327135Y44356D01*
X327200Y44339D01*
X327335Y44333D01*
X327469Y44317D01*
X327535Y44323D01*
X327602Y44320D01*
X327736Y44340D01*
X327870Y44351D01*
X327934Y44370D01*
X328000Y44380D01*
X328127Y44426D01*
X328257Y44463D01*
X328316Y44494D01*
X328378Y44517D01*
X328494Y44587D01*
X328614Y44650D01*
X328666Y44692D01*
X328722Y44726D01*
X328822Y44818D01*
X328927Y44903D01*
X328977Y44961D01*
X329018Y44999D01*
X329065Y45063D01*
X329143Y45154D01*
X329750Y45989D01*
X330881Y47120D01*
X332175Y48060D01*
X333600Y48786D01*
X334961Y49229D01*
X334961Y34289D01*
X320039Y34289D01*
G37*
%LPD*%
%LPC*%
G36*
X453600Y256014D02*
X453600Y256014D01*
X452175Y256740D01*
X450881Y257680D01*
X449750Y258811D01*
X449143Y259646D01*
X449053Y259746D01*
X448970Y259853D01*
X448920Y259897D01*
X448876Y259946D01*
X448767Y260028D01*
X448665Y260116D01*
X448607Y260148D01*
X448554Y260188D01*
X448431Y260247D01*
X448314Y260313D01*
X448251Y260333D01*
X448191Y260362D01*
X448059Y260395D01*
X447931Y260437D01*
X447865Y260444D01*
X447800Y260461D01*
X447665Y260467D01*
X447531Y260483D01*
X447464Y260477D01*
X447398Y260480D01*
X447264Y260460D01*
X447130Y260449D01*
X447066Y260430D01*
X447000Y260420D01*
X446873Y260374D01*
X446743Y260337D01*
X446684Y260306D01*
X446621Y260283D01*
X446506Y260213D01*
X446386Y260150D01*
X446334Y260108D01*
X446277Y260074D01*
X446178Y259982D01*
X446073Y259897D01*
X446023Y259839D01*
X445982Y259801D01*
X445935Y259737D01*
X445857Y259646D01*
X445250Y258811D01*
X444119Y257680D01*
X442825Y256740D01*
X441400Y256014D01*
X440039Y255571D01*
X440039Y270511D01*
X454961Y270511D01*
X454961Y255571D01*
X453600Y256014D01*
G37*
%LPD*%
%LPC*%
G36*
X460039Y275589D02*
X460039Y275589D01*
X460039Y290529D01*
X461400Y290086D01*
X462825Y289360D01*
X464119Y288420D01*
X465250Y287289D01*
X466190Y285995D01*
X466916Y284570D01*
X467411Y283049D01*
X467661Y281470D01*
X467661Y275589D01*
X460039Y275589D01*
G37*
%LPD*%
%LPC*%
G36*
X460039Y270511D02*
X460039Y270511D01*
X467661Y270511D01*
X467661Y264630D01*
X467411Y263051D01*
X466916Y261530D01*
X466190Y260105D01*
X465250Y258811D01*
X464119Y257680D01*
X462825Y256740D01*
X461400Y256014D01*
X460039Y255571D01*
X460039Y270511D01*
G37*
%LPD*%
%LPC*%
G36*
X567689Y25889D02*
X567689Y25889D01*
X567689Y33511D01*
X582629Y33511D01*
X582186Y32150D01*
X581460Y30725D01*
X580520Y29431D01*
X579389Y28300D01*
X578095Y27360D01*
X576670Y26634D01*
X575149Y26139D01*
X573570Y25889D01*
X567689Y25889D01*
G37*
%LPD*%
%LPC*%
G36*
X556730Y25889D02*
X556730Y25889D01*
X555151Y26139D01*
X553630Y26634D01*
X552205Y27360D01*
X550911Y28300D01*
X549780Y29431D01*
X548840Y30725D01*
X548114Y32150D01*
X547671Y33511D01*
X562611Y33511D01*
X562611Y25889D01*
X556730Y25889D01*
G37*
%LPD*%
G36*
X244077Y119383D02*
X244077Y119383D01*
X244104Y119381D01*
X244277Y119403D01*
X244451Y119421D01*
X244477Y119428D01*
X244503Y119432D01*
X244669Y119487D01*
X244836Y119539D01*
X244860Y119552D01*
X244885Y119560D01*
X245036Y119647D01*
X245190Y119731D01*
X245210Y119748D01*
X245234Y119761D01*
X245487Y119976D01*
X245995Y120484D01*
X246006Y120497D01*
X246020Y120509D01*
X246134Y120653D01*
X246250Y120795D01*
X246258Y120811D01*
X246269Y120825D01*
X246353Y120989D01*
X246438Y121151D01*
X246444Y121168D01*
X246452Y121184D01*
X246501Y121360D01*
X246553Y121537D01*
X246555Y121555D01*
X246560Y121572D01*
X246573Y121755D01*
X246590Y121938D01*
X246588Y121955D01*
X246589Y121973D01*
X246566Y122156D01*
X246546Y122338D01*
X246541Y122355D01*
X246539Y122373D01*
X246480Y122547D01*
X246425Y122722D01*
X246416Y122737D01*
X246410Y122754D01*
X246319Y122914D01*
X246230Y123074D01*
X246218Y123088D01*
X246209Y123103D01*
X245995Y123356D01*
X245487Y123864D01*
X245466Y123881D01*
X245449Y123902D01*
X245311Y124009D01*
X245175Y124119D01*
X245152Y124132D01*
X245130Y124148D01*
X244974Y124226D01*
X244820Y124308D01*
X244794Y124316D01*
X244770Y124328D01*
X244601Y124373D01*
X244434Y124423D01*
X244407Y124425D01*
X244381Y124432D01*
X244050Y124459D01*
X243630Y124459D01*
X243603Y124457D01*
X243576Y124459D01*
X243402Y124437D01*
X243229Y124419D01*
X243203Y124412D01*
X243177Y124408D01*
X243011Y124352D01*
X242844Y124301D01*
X242821Y124289D01*
X242795Y124280D01*
X242643Y124193D01*
X242490Y124109D01*
X242469Y124092D01*
X242446Y124079D01*
X242193Y123864D01*
X241177Y122848D01*
X241171Y122841D01*
X241165Y122836D01*
X241045Y122687D01*
X240922Y122537D01*
X240918Y122529D01*
X240912Y122522D01*
X240824Y122352D01*
X240733Y122181D01*
X240731Y122172D01*
X240727Y122165D01*
X240673Y121979D01*
X240619Y121795D01*
X240618Y121786D01*
X240615Y121778D01*
X240600Y121587D01*
X240582Y121394D01*
X240583Y121385D01*
X240583Y121376D01*
X240605Y121187D01*
X240626Y120994D01*
X240628Y120985D01*
X240629Y120977D01*
X240689Y120794D01*
X240747Y120610D01*
X240752Y120602D01*
X240754Y120594D01*
X240849Y120427D01*
X240942Y120258D01*
X240948Y120251D01*
X240952Y120243D01*
X241077Y120098D01*
X241203Y119951D01*
X241210Y119945D01*
X241215Y119938D01*
X241367Y119821D01*
X241518Y119701D01*
X241526Y119697D01*
X241533Y119692D01*
X241705Y119606D01*
X241877Y119519D01*
X241886Y119516D01*
X241894Y119512D01*
X242080Y119463D01*
X242265Y119411D01*
X242274Y119410D01*
X242283Y119408D01*
X242613Y119381D01*
X244050Y119381D01*
X244077Y119383D01*
G37*
%LPC*%
G36*
X35559Y175259D02*
X35559Y175259D01*
X35559Y180896D01*
X35650Y180866D01*
X37075Y180140D01*
X38369Y179200D01*
X39500Y178069D01*
X40440Y176775D01*
X41166Y175350D01*
X41196Y175259D01*
X35559Y175259D01*
G37*
%LPD*%
%LPC*%
G36*
X22304Y175259D02*
X22304Y175259D01*
X22334Y175350D01*
X23060Y176775D01*
X24000Y178069D01*
X25131Y179200D01*
X26425Y180140D01*
X27850Y180866D01*
X27941Y180896D01*
X27941Y175259D01*
X22304Y175259D01*
G37*
%LPD*%
%LPC*%
G36*
X35559Y167641D02*
X35559Y167641D01*
X41196Y167641D01*
X41166Y167550D01*
X40440Y166125D01*
X39500Y164831D01*
X38369Y163700D01*
X37075Y162760D01*
X35650Y162034D01*
X35559Y162004D01*
X35559Y167641D01*
G37*
%LPD*%
%LPC*%
G36*
X27850Y162034D02*
X27850Y162034D01*
X26425Y162760D01*
X25131Y163700D01*
X24000Y164831D01*
X23060Y166125D01*
X22334Y167550D01*
X22304Y167641D01*
X27941Y167641D01*
X27941Y162004D01*
X27850Y162034D01*
G37*
%LPD*%
G36*
X409495Y200944D02*
X409495Y200944D01*
X409504Y200943D01*
X409694Y200964D01*
X409886Y200983D01*
X409895Y200985D01*
X409904Y200986D01*
X410088Y201045D01*
X410271Y201101D01*
X410279Y201105D01*
X410288Y201108D01*
X410457Y201201D01*
X410625Y201293D01*
X410632Y201298D01*
X410640Y201303D01*
X410787Y201428D01*
X410935Y201550D01*
X410940Y201557D01*
X410947Y201563D01*
X411067Y201714D01*
X411187Y201864D01*
X411191Y201872D01*
X411197Y201879D01*
X411284Y202052D01*
X411372Y202221D01*
X411375Y202230D01*
X411379Y202238D01*
X411431Y202424D01*
X411484Y202608D01*
X411485Y202617D01*
X411487Y202626D01*
X411501Y202818D01*
X411517Y203010D01*
X411516Y203018D01*
X411516Y203027D01*
X411492Y203219D01*
X411470Y203409D01*
X411467Y203418D01*
X411466Y203427D01*
X411405Y203608D01*
X411345Y203792D01*
X411340Y203800D01*
X411338Y203808D01*
X411242Y203974D01*
X411147Y204143D01*
X411141Y204150D01*
X411137Y204157D01*
X410922Y204410D01*
X410470Y204862D01*
X410449Y204879D01*
X410432Y204900D01*
X410294Y205006D01*
X410158Y205117D01*
X410135Y205130D01*
X410114Y205146D01*
X409957Y205224D01*
X409803Y205306D01*
X409777Y205314D01*
X409753Y205326D01*
X409584Y205371D01*
X409417Y205421D01*
X409390Y205423D01*
X409364Y205430D01*
X409034Y205457D01*
X408846Y205457D01*
X408820Y205455D01*
X408793Y205457D01*
X408619Y205435D01*
X408446Y205417D01*
X408420Y205410D01*
X408394Y205406D01*
X408228Y205351D01*
X408061Y205299D01*
X408037Y205286D01*
X408012Y205278D01*
X407860Y205191D01*
X407707Y205107D01*
X407686Y205090D01*
X407663Y205077D01*
X407410Y204862D01*
X406958Y204410D01*
X406952Y204403D01*
X406945Y204398D01*
X406825Y204248D01*
X406703Y204099D01*
X406699Y204091D01*
X406693Y204084D01*
X406605Y203915D01*
X406514Y203743D01*
X406512Y203734D01*
X406508Y203727D01*
X406455Y203542D01*
X406400Y203357D01*
X406399Y203348D01*
X406396Y203340D01*
X406380Y203147D01*
X406363Y202956D01*
X406364Y202947D01*
X406363Y202938D01*
X406386Y202749D01*
X406407Y202556D01*
X406409Y202547D01*
X406410Y202539D01*
X406470Y202355D01*
X406528Y202172D01*
X406532Y202164D01*
X406535Y202156D01*
X406630Y201988D01*
X406723Y201820D01*
X406729Y201813D01*
X406733Y201805D01*
X406858Y201661D01*
X406983Y201513D01*
X406990Y201507D01*
X406996Y201500D01*
X407147Y201383D01*
X407299Y201263D01*
X407307Y201259D01*
X407314Y201254D01*
X407486Y201168D01*
X407658Y201081D01*
X407667Y201078D01*
X407675Y201074D01*
X407862Y201024D01*
X408046Y200973D01*
X408055Y200972D01*
X408064Y200970D01*
X408394Y200943D01*
X409486Y200943D01*
X409495Y200944D01*
G37*
G36*
X318890Y142525D02*
X318890Y142525D01*
X318917Y142523D01*
X319091Y142545D01*
X319264Y142563D01*
X319290Y142570D01*
X319316Y142574D01*
X319482Y142630D01*
X319649Y142681D01*
X319673Y142693D01*
X319698Y142702D01*
X319849Y142789D01*
X320003Y142873D01*
X320024Y142890D01*
X320047Y142903D01*
X320300Y143118D01*
X320526Y143344D01*
X320537Y143357D01*
X320551Y143369D01*
X320665Y143513D01*
X320781Y143655D01*
X320789Y143671D01*
X320800Y143685D01*
X320884Y143848D01*
X320970Y144011D01*
X320975Y144028D01*
X320983Y144044D01*
X321032Y144221D01*
X321084Y144397D01*
X321086Y144414D01*
X321091Y144432D01*
X321104Y144615D01*
X321121Y144798D01*
X321119Y144815D01*
X321120Y144833D01*
X321097Y145016D01*
X321077Y145198D01*
X321072Y145215D01*
X321070Y145233D01*
X321011Y145407D01*
X320956Y145582D01*
X320947Y145597D01*
X320942Y145614D01*
X320850Y145774D01*
X320761Y145934D01*
X320750Y145948D01*
X320741Y145963D01*
X320526Y146216D01*
X320300Y146442D01*
X320279Y146459D01*
X320262Y146480D01*
X320124Y146587D01*
X319988Y146697D01*
X319965Y146710D01*
X319944Y146726D01*
X319787Y146804D01*
X319633Y146886D01*
X319607Y146894D01*
X319583Y146906D01*
X319414Y146951D01*
X319247Y147001D01*
X319220Y147003D01*
X319194Y147010D01*
X318864Y147037D01*
X318676Y147037D01*
X318650Y147035D01*
X318623Y147037D01*
X318449Y147015D01*
X318276Y146997D01*
X318250Y146990D01*
X318224Y146986D01*
X318058Y146931D01*
X317891Y146879D01*
X317867Y146866D01*
X317842Y146858D01*
X317690Y146771D01*
X317537Y146687D01*
X317516Y146670D01*
X317493Y146657D01*
X317240Y146442D01*
X317014Y146216D01*
X317003Y146202D01*
X316989Y146191D01*
X316876Y146047D01*
X316759Y145905D01*
X316751Y145889D01*
X316739Y145875D01*
X316656Y145711D01*
X316570Y145549D01*
X316565Y145532D01*
X316557Y145516D01*
X316508Y145339D01*
X316456Y145163D01*
X316454Y145145D01*
X316449Y145128D01*
X316436Y144946D01*
X316419Y144762D01*
X316421Y144744D01*
X316420Y144727D01*
X316443Y144545D01*
X316463Y144362D01*
X316468Y144345D01*
X316470Y144327D01*
X316528Y144154D01*
X316584Y143978D01*
X316593Y143962D01*
X316598Y143945D01*
X316690Y143787D01*
X316779Y143626D01*
X316790Y143612D01*
X316799Y143597D01*
X317014Y143344D01*
X317240Y143118D01*
X317261Y143101D01*
X317278Y143080D01*
X317416Y142974D01*
X317552Y142863D01*
X317575Y142850D01*
X317596Y142834D01*
X317753Y142756D01*
X317907Y142674D01*
X317933Y142666D01*
X317957Y142654D01*
X318126Y142609D01*
X318293Y142559D01*
X318320Y142557D01*
X318346Y142550D01*
X318676Y142523D01*
X318864Y142523D01*
X318890Y142525D01*
G37*
D10*
X177500Y265430D02*
X177500Y280670D01*
X197500Y280670D02*
X197500Y265430D01*
X217500Y265430D02*
X217500Y280670D01*
X237500Y280670D02*
X237500Y265430D01*
X257500Y265430D02*
X257500Y280670D01*
X277500Y280670D02*
X277500Y265430D01*
X297500Y265430D02*
X297500Y280670D01*
X317500Y280670D02*
X317500Y265430D01*
X337500Y265430D02*
X337500Y280670D01*
X357500Y280670D02*
X357500Y265430D01*
X377500Y265430D02*
X377500Y280670D01*
X397500Y280670D02*
X397500Y265430D01*
X417500Y265430D02*
X417500Y280670D01*
X437500Y280670D02*
X437500Y265430D01*
X457500Y265430D02*
X457500Y280670D01*
X177500Y39370D02*
X177500Y24130D01*
X197500Y24130D02*
X197500Y39370D01*
X217500Y39370D02*
X217500Y24130D01*
X237500Y24130D02*
X237500Y39370D01*
X257500Y39370D02*
X257500Y24130D01*
X277500Y24130D02*
X277500Y39370D01*
X297500Y39370D02*
X297500Y24130D01*
X317500Y24130D02*
X317500Y39370D01*
X337500Y39370D02*
X337500Y24130D01*
X357500Y24130D02*
X357500Y39370D01*
X377500Y39370D02*
X377500Y24130D01*
X397500Y24130D02*
X397500Y39370D01*
X417500Y39370D02*
X417500Y24130D01*
X437500Y24130D02*
X437500Y39370D01*
X457500Y39370D02*
X457500Y24130D01*
X557530Y36050D02*
X572770Y36050D01*
X572770Y56050D02*
X557530Y56050D01*
X557530Y76050D02*
X572770Y76050D01*
X572770Y96050D02*
X557530Y96050D01*
X557530Y116050D02*
X572770Y116050D01*
X572770Y136050D02*
X557530Y136050D01*
X557530Y156050D02*
X572770Y156050D01*
X572770Y176050D02*
X557530Y176050D01*
X557530Y196050D02*
X572770Y196050D01*
X572770Y216050D02*
X557530Y216050D01*
X557530Y236050D02*
X572770Y236050D01*
X572770Y256050D02*
X557530Y256050D01*
D11*
X441960Y219710D03*
X504190Y196850D03*
X95250Y114300D03*
X31750Y171450D03*
X495300Y273050D03*
D12*
X123190Y270510D03*
X76200Y260350D03*
X78740Y245110D03*
X57150Y90170D03*
X88900Y102870D03*
X207010Y215900D03*
X273050Y166370D03*
X311150Y171450D03*
X408940Y203200D03*
X408940Y182880D03*
X408940Y167640D03*
X476250Y88900D03*
X447040Y152400D03*
D13*
X158750Y254000D03*
X187960Y156210D03*
X533400Y247650D03*
X243840Y121920D03*
X203200Y104140D03*
X229870Y107950D03*
X238760Y86360D03*
X158750Y62230D03*
X140970Y203200D03*
D12*
X318770Y144780D03*
X247650Y218440D03*
X422910Y109220D03*
X453390Y107950D03*
D13*
X148590Y177800D03*
X138430Y154940D03*
X115570Y175260D03*
X170180Y251460D03*
X287020Y207010D03*
X281940Y179070D03*
X359410Y176530D03*
X374650Y176530D03*
X356870Y200660D03*
X151130Y113030D03*
X104140Y165100D03*
X510540Y118110D03*
X514350Y102870D03*
X514350Y86360D03*
D12*
X510540Y226060D03*
D14*
X527050Y209550D01*
X527050Y203200D01*
D12*
X527050Y203200D03*
X64211Y95961D03*
D14*
X153060Y7112D02*
X456287Y7112D01*
X505225Y56050D02*
X565150Y56050D01*
X505225Y56050D02*
X456287Y7112D01*
X153060Y7112D02*
X64211Y95961D01*
D12*
X307698Y223929D03*
D15*
X372189Y197259D02*
X481739Y197259D01*
X345519Y223929D02*
X307698Y223929D01*
X345519Y223929D02*
X372189Y197259D01*
X481739Y197259D02*
X510540Y226060D01*
D14*
X76911Y95961D02*
X64211Y95961D01*
X76911Y95961D02*
X82578Y101628D01*
X82578Y105489D01*
X86281Y109192D01*
X90142Y109192D01*
X95250Y114300D01*
D12*
X361950Y133350D03*
D15*
X459791Y133350D01*
X474370Y147930D01*
D12*
X474370Y147930D03*
X292100Y133350D03*
D14*
X298450Y139700D01*
D12*
X400050Y139700D03*
D14*
X314909Y139700D02*
X298450Y139700D01*
X314909Y139700D02*
X316151Y138458D01*
X321389Y138458D01*
X322631Y139700D01*
X400050Y139700D01*
D12*
X374650Y203200D03*
D14*
X457200Y203200D02*
X469900Y215900D01*
D12*
X469900Y215900D03*
D14*
X411559Y209522D02*
X406321Y209522D01*
X399999Y203200D02*
X374650Y203200D01*
X417881Y203200D02*
X457200Y203200D01*
X406321Y209522D02*
X399999Y203200D01*
X411559Y209522D02*
X417881Y203200D01*
D12*
X266700Y101600D03*
D15*
X279400Y114300D02*
X361950Y114300D01*
D13*
X361950Y114300D03*
D15*
X279400Y114300D02*
X266700Y101600D01*
D12*
X63500Y127000D03*
D15*
X57277Y137122D02*
X57277Y142278D01*
X216502Y196977D02*
X235575Y216050D01*
X111976Y196977D02*
X57277Y142278D01*
X111976Y196977D02*
X216502Y196977D01*
X63500Y130899D02*
X63500Y127000D01*
X63500Y130899D02*
X57277Y137122D01*
D14*
X235575Y216050D02*
X254475Y234950D01*
X495300Y234950D02*
X520700Y260350D01*
X560850Y260350D01*
X565150Y256050D01*
X495300Y234950D02*
X254475Y234950D01*
X495300Y273050D02*
X508000Y273050D01*
X520700Y260350D01*
D13*
X63500Y139700D03*
D14*
X411559Y189202D02*
X414680Y186080D01*
X411559Y189202D02*
X113002Y189202D01*
X63500Y139700D01*
X414680Y186080D02*
X467970Y186080D01*
X476250Y177800D01*
X478000Y176050D01*
X492412Y161638D01*
X547313Y161638D02*
X552901Y167226D01*
X556326Y167226D01*
X565150Y176050D01*
X547313Y161638D02*
X492412Y161638D01*
D13*
X205740Y74930D03*
X152400Y38100D03*
D14*
X181356Y50546D02*
X205740Y74930D01*
X181356Y50546D02*
X172871Y50546D01*
X160425Y38100D02*
X152400Y38100D01*
X160425Y38100D02*
X172871Y50546D01*
D13*
X103476Y211293D03*
D15*
X103476Y209959D01*
X221389Y209959D01*
X277500Y266070D02*
X277500Y273050D01*
X277500Y266070D02*
X221389Y209959D01*
D13*
X127000Y152400D03*
D14*
X133350Y146050D01*
D12*
X387350Y146050D03*
D14*
X321389Y151102D02*
X316151Y151102D01*
X311099Y146050D02*
X133350Y146050D01*
X326441Y146050D02*
X387350Y146050D01*
X316151Y151102D02*
X311099Y146050D01*
X321389Y151102D02*
X326441Y146050D01*
D12*
X425450Y95250D03*
D14*
X426250Y96050D02*
X565150Y96050D01*
X426250Y96050D02*
X425450Y95250D01*
D13*
X114300Y152400D03*
D14*
X415595Y165354D02*
X475996Y165354D01*
X270431Y160048D02*
X266040Y164440D01*
X270431Y160048D02*
X410289Y160048D01*
X415595Y165354D01*
X194150Y164440D02*
X193236Y165354D01*
X194150Y164440D02*
X266040Y164440D01*
X127254Y165354D02*
X114300Y152400D01*
X127254Y165354D02*
X193236Y165354D01*
X475996Y165354D02*
X485300Y156050D01*
X565150Y156050D01*
X556326Y207226D02*
X565150Y216050D01*
X556326Y207226D02*
X552901Y207226D01*
X542525Y196850D02*
X504190Y196850D01*
X542525Y196850D02*
X552901Y207226D01*
D12*
X469900Y203200D03*
D14*
X476250Y203200D01*
X509100Y236050D02*
X565150Y236050D01*
X492125Y219075D02*
X476250Y203200D01*
X492125Y219075D02*
X509100Y236050D01*
X464769Y219710D02*
X441960Y219710D01*
X464769Y219710D02*
X467281Y222222D01*
X488978Y222222D01*
X492125Y219075D01*
D13*
X101600Y152400D03*
D14*
X367381Y126111D02*
X521589Y126111D01*
X531650Y116050D02*
X565150Y116050D01*
X531650Y116050D02*
X521589Y126111D01*
X127889Y126111D02*
X101600Y152400D01*
X367000Y126492D02*
X367381Y126111D01*
X246576Y128524D02*
X241105Y128524D01*
X238692Y126111D01*
X127889Y126111D01*
X246576Y128524D02*
X248608Y126492D01*
X367000Y126492D01*
D13*
X120170Y241300D03*
D14*
X121440Y242570D02*
X191770Y242570D01*
X121440Y242570D02*
X120170Y241300D01*
X217500Y268300D02*
X217500Y273050D01*
X217500Y268300D02*
X191770Y242570D01*
D13*
X112903Y228337D03*
D14*
X113293Y228727D01*
X203327Y228727D01*
X237500Y262900D02*
X237500Y273050D01*
X237500Y262900D02*
X203327Y228727D01*
D13*
X106645Y220945D03*
D14*
X112165Y215425D01*
X172194Y215425D01*
X257500Y266700D02*
X257500Y273050D01*
X257500Y266700D02*
X213022Y222222D01*
X178991Y222222D02*
X172194Y215425D01*
X178991Y222222D02*
X213022Y222222D01*
D13*
X190500Y93980D03*
X379150Y88900D03*
D14*
X368554Y117036D02*
X364686Y120904D01*
X359215Y120904D01*
X368554Y99496D02*
X379150Y88900D01*
X368554Y99496D02*
X368554Y117036D01*
X359215Y120904D02*
X358961Y120650D01*
X196596Y100076D02*
X190500Y93980D01*
X246576Y115316D02*
X251910Y120650D01*
X196596Y106876D02*
X196596Y100076D01*
X196596Y106876D02*
X205037Y115316D01*
X246576Y115316D01*
X251910Y120650D02*
X358961Y120650D01*
D13*
X201906Y87606D03*
D15*
X260125Y95025D02*
X321085Y95025D01*
D13*
X321085Y95025D03*
D15*
X239776Y74676D02*
X214836Y74676D01*
X239776Y74676D02*
X260125Y95025D01*
X214836Y74676D02*
X201906Y87606D01*
D13*
X249600Y52750D03*
D14*
X249600Y65450D01*
X355600Y76200D02*
X357095Y77695D01*
D13*
X357095Y77695D03*
D14*
X260350Y76200D02*
X249600Y65450D01*
X260350Y76200D02*
X355600Y76200D01*
D12*
X120650Y76200D03*
X177800Y63500D03*
D14*
X107978Y92631D02*
X107978Y97869D01*
X111681Y101572D01*
X120650Y79959D02*
X120650Y76200D01*
X120650Y79959D02*
X107978Y92631D01*
X111681Y101572D02*
X139728Y101572D01*
X177800Y63500D01*
D12*
X196850Y51788D03*
D14*
X228035Y51788D01*
X260546Y84299D01*
X393700Y63500D02*
X406400Y63500D01*
X417500Y52400D01*
X417500Y31750D01*
X372901Y84299D02*
X260546Y84299D01*
X372901Y84299D02*
X393700Y63500D01*
D12*
X114300Y95250D03*
D14*
X145796Y63754D01*
X145796Y35365D01*
X168461Y12700D01*
X292100Y12700D01*
X297500Y18100D01*
X297500Y31750D01*
D12*
X120650Y19050D03*
D14*
X57150Y82550D01*
X44450Y82550D01*
X38100Y88900D01*
X38100Y101600D01*
X57150Y120650D01*
X69850Y120650D01*
X76200Y127000D01*
D12*
X76200Y127000D03*
M02*
