G04 EAGLE Gerber RS-274X export*
G75*
%MOMM*%
%FSLAX34Y34*%
%LPD*%
%INSoldermask Top*%
%IPNEG*%
%AMOC8*
5,1,8,0,0,1.08239X$1,22.5*%
G01*
%ADD10C,0.360766*%
%ADD11C,0.252575*%
%ADD12C,0.518219*%
%ADD13R,0.401600X1.601600*%
%ADD14R,1.501600X1.301600*%
%ADD15C,0.343781*%
%ADD16C,0.189431*%
%ADD17C,1.625600*%
%ADD18R,0.901600X0.901600*%
%ADD19C,0.751600*%


D10*
X250832Y165519D02*
X248069Y168282D01*
X250832Y171045D01*
X253595Y168282D01*
X250832Y165519D01*
X252930Y168947D02*
X248734Y168947D01*
X241705Y161918D02*
X244468Y159155D01*
X241705Y161918D02*
X244468Y164681D01*
X247231Y161918D01*
X244468Y159155D01*
X246566Y162583D02*
X242370Y162583D01*
X303016Y141654D02*
X303016Y137746D01*
X299108Y137746D01*
X299108Y141654D01*
X303016Y141654D01*
X303016Y141174D02*
X299108Y141174D01*
X312016Y141654D02*
X312016Y137746D01*
X308108Y137746D01*
X308108Y141654D01*
X312016Y141654D01*
X312016Y141174D02*
X308108Y141174D01*
X262304Y133356D02*
X258396Y133356D01*
X258396Y137264D01*
X262304Y137264D01*
X262304Y133356D01*
X262304Y136784D02*
X258396Y136784D01*
X258396Y124356D02*
X262304Y124356D01*
X258396Y124356D02*
X258396Y128264D01*
X262304Y128264D01*
X262304Y124356D01*
X262304Y127784D02*
X258396Y127784D01*
X307346Y207596D02*
X307346Y211504D01*
X311254Y211504D01*
X311254Y207596D01*
X307346Y207596D01*
X307346Y211024D02*
X311254Y211024D01*
X298346Y211504D02*
X298346Y207596D01*
X298346Y211504D02*
X302254Y211504D01*
X302254Y207596D01*
X298346Y207596D01*
X298346Y211024D02*
X302254Y211024D01*
X282568Y94831D02*
X285331Y92068D01*
X282568Y89305D01*
X279805Y92068D01*
X282568Y94831D01*
X284666Y92733D02*
X280470Y92733D01*
X288932Y101195D02*
X291695Y98432D01*
X288932Y95669D01*
X286169Y98432D01*
X288932Y101195D01*
X291030Y99097D02*
X286834Y99097D01*
X65784Y280717D02*
X63021Y283480D01*
X65784Y286243D01*
X68547Y283480D01*
X65784Y280717D01*
X67882Y284145D02*
X63686Y284145D01*
X56657Y277116D02*
X59420Y274353D01*
X56657Y277116D02*
X59420Y279879D01*
X62183Y277116D01*
X59420Y274353D01*
X61518Y277781D02*
X57322Y277781D01*
X261658Y112021D02*
X264421Y109258D01*
X261658Y106495D01*
X258895Y109258D01*
X261658Y112021D01*
X263756Y109923D02*
X259560Y109923D01*
X268022Y118385D02*
X270785Y115622D01*
X268022Y112859D01*
X265259Y115622D01*
X268022Y118385D01*
X270120Y116287D02*
X265924Y116287D01*
X229451Y117468D02*
X226688Y120231D01*
X229451Y117468D02*
X226688Y114705D01*
X223925Y117468D01*
X226688Y120231D01*
X228786Y118133D02*
X224590Y118133D01*
X233052Y126595D02*
X235815Y123832D01*
X233052Y121069D01*
X230289Y123832D01*
X233052Y126595D01*
X235150Y124497D02*
X230954Y124497D01*
X234308Y101181D02*
X237071Y98418D01*
X234308Y95655D01*
X231545Y98418D01*
X234308Y101181D01*
X236406Y99083D02*
X232210Y99083D01*
X240672Y107545D02*
X243435Y104782D01*
X240672Y102019D01*
X237909Y104782D01*
X240672Y107545D01*
X242770Y105447D02*
X238574Y105447D01*
X229019Y219068D02*
X231782Y221831D01*
X234545Y219068D01*
X231782Y216305D01*
X229019Y219068D01*
X229684Y219733D02*
X233880Y219733D01*
X225418Y228195D02*
X222655Y225432D01*
X225418Y228195D02*
X228181Y225432D01*
X225418Y222669D01*
X222655Y225432D01*
X223320Y226097D02*
X227516Y226097D01*
X221831Y66682D02*
X219068Y63919D01*
X216305Y66682D01*
X219068Y69445D01*
X221831Y66682D01*
X221166Y67347D02*
X216970Y67347D01*
X225432Y57555D02*
X228195Y60318D01*
X225432Y57555D02*
X222669Y60318D01*
X225432Y63081D01*
X228195Y60318D01*
X227530Y60983D02*
X223334Y60983D01*
X73032Y82969D02*
X70269Y85732D01*
X73032Y88495D01*
X75795Y85732D01*
X73032Y82969D01*
X75130Y86397D02*
X70934Y86397D01*
X63905Y79368D02*
X66668Y76605D01*
X63905Y79368D02*
X66668Y82131D01*
X69431Y79368D01*
X66668Y76605D01*
X68766Y80033D02*
X64570Y80033D01*
X241719Y66668D02*
X244482Y69431D01*
X247245Y66668D01*
X244482Y63905D01*
X241719Y66668D01*
X242384Y67333D02*
X246580Y67333D01*
X238118Y75795D02*
X235355Y73032D01*
X238118Y75795D02*
X240881Y73032D01*
X238118Y70269D01*
X235355Y73032D01*
X236020Y73697D02*
X240216Y73697D01*
X455246Y135388D02*
X459154Y135388D01*
X455246Y135388D02*
X455246Y139296D01*
X459154Y139296D01*
X459154Y135388D01*
X459154Y138816D02*
X455246Y138816D01*
X455246Y126388D02*
X459154Y126388D01*
X455246Y126388D02*
X455246Y130296D01*
X459154Y130296D01*
X459154Y126388D01*
X459154Y129816D02*
X455246Y129816D01*
X455246Y181604D02*
X459154Y181604D01*
X459154Y177696D01*
X455246Y177696D01*
X455246Y181604D01*
X455246Y181124D02*
X459154Y181124D01*
X459154Y190604D02*
X455246Y190604D01*
X459154Y190604D02*
X459154Y186696D01*
X455246Y186696D01*
X455246Y190604D01*
X455246Y190124D02*
X459154Y190124D01*
D11*
X59491Y248357D02*
X47124Y235990D01*
X43949Y239165D01*
X56316Y251532D01*
X59491Y248357D01*
X49524Y238390D02*
X44724Y238390D01*
X45574Y240790D02*
X51924Y240790D01*
X54324Y243190D02*
X47974Y243190D01*
X50374Y245590D02*
X56724Y245590D01*
X59124Y247990D02*
X52774Y247990D01*
X55174Y250390D02*
X57458Y250390D01*
X68471Y239377D02*
X56104Y227010D01*
X52929Y230185D01*
X65296Y242552D01*
X68471Y239377D01*
X58504Y229410D02*
X53704Y229410D01*
X54554Y231810D02*
X60904Y231810D01*
X63304Y234210D02*
X56954Y234210D01*
X59354Y236610D02*
X65704Y236610D01*
X68104Y239010D02*
X61754Y239010D01*
X64154Y241410D02*
X66438Y241410D01*
X77452Y230396D02*
X65085Y218029D01*
X61910Y221204D01*
X74277Y233571D01*
X77452Y230396D01*
X67485Y220429D02*
X62685Y220429D01*
X63535Y222829D02*
X69885Y222829D01*
X72285Y225229D02*
X65935Y225229D01*
X68335Y227629D02*
X74685Y227629D01*
X77085Y230029D02*
X70735Y230029D01*
X73135Y232429D02*
X75419Y232429D01*
X86432Y221416D02*
X74065Y209049D01*
X70890Y212224D01*
X83257Y224591D01*
X86432Y221416D01*
X76465Y211449D02*
X71665Y211449D01*
X72515Y213849D02*
X78865Y213849D01*
X81265Y216249D02*
X74915Y216249D01*
X77315Y218649D02*
X83665Y218649D01*
X86065Y221049D02*
X79715Y221049D01*
X82115Y223449D02*
X84399Y223449D01*
X108784Y243768D02*
X121151Y256135D01*
X108784Y243768D02*
X105609Y246943D01*
X117976Y259310D01*
X121151Y256135D01*
X111184Y246168D02*
X106384Y246168D01*
X107234Y248568D02*
X113584Y248568D01*
X115984Y250968D02*
X109634Y250968D01*
X112034Y253368D02*
X118384Y253368D01*
X120784Y255768D02*
X114434Y255768D01*
X116834Y258168D02*
X119118Y258168D01*
X112171Y265115D02*
X99804Y252748D01*
X96629Y255923D01*
X108996Y268290D01*
X112171Y265115D01*
X102204Y255148D02*
X97404Y255148D01*
X98254Y257548D02*
X104604Y257548D01*
X107004Y259948D02*
X100654Y259948D01*
X103054Y262348D02*
X109404Y262348D01*
X111804Y264748D02*
X105454Y264748D01*
X107854Y267148D02*
X110138Y267148D01*
X103190Y274096D02*
X90823Y261729D01*
X87648Y264904D01*
X100015Y277271D01*
X103190Y274096D01*
X93223Y264129D02*
X88423Y264129D01*
X89273Y266529D02*
X95623Y266529D01*
X98023Y268929D02*
X91673Y268929D01*
X94073Y271329D02*
X100423Y271329D01*
X102823Y273729D02*
X96473Y273729D01*
X98873Y276129D02*
X101157Y276129D01*
X94210Y283076D02*
X81843Y270709D01*
X78668Y273884D01*
X91035Y286251D01*
X94210Y283076D01*
X84243Y273109D02*
X79443Y273109D01*
X80293Y275509D02*
X86643Y275509D01*
X89043Y277909D02*
X82693Y277909D01*
X85093Y280309D02*
X91443Y280309D01*
X93843Y282709D02*
X87493Y282709D01*
X89893Y285109D02*
X92177Y285109D01*
D12*
X134955Y49798D02*
X128002Y42845D01*
X134955Y49798D02*
X139434Y45319D01*
X132481Y38366D01*
X128002Y42845D01*
X128446Y43289D02*
X137404Y43289D01*
X136541Y48212D02*
X133369Y48212D01*
X121519Y63234D02*
X114566Y56281D01*
X121519Y63234D02*
X125998Y58755D01*
X119045Y51802D01*
X114566Y56281D01*
X115010Y56725D02*
X123968Y56725D01*
X123105Y61648D02*
X119933Y61648D01*
X209742Y89902D02*
X216695Y96855D01*
X209742Y89902D02*
X205263Y94381D01*
X212216Y101334D01*
X216695Y96855D01*
X214665Y94825D02*
X205707Y94825D01*
X210630Y99748D02*
X213802Y99748D01*
X230130Y83419D02*
X223177Y76466D01*
X218698Y80945D01*
X225651Y87898D01*
X230130Y83419D01*
X228100Y81389D02*
X219142Y81389D01*
X224065Y86312D02*
X227237Y86312D01*
X261352Y74595D02*
X268305Y81548D01*
X272784Y77069D01*
X265831Y70116D01*
X261352Y74595D01*
X261796Y75039D02*
X270754Y75039D01*
X269891Y79962D02*
X266719Y79962D01*
X254869Y94984D02*
X247916Y88031D01*
X254869Y94984D02*
X259348Y90505D01*
X252395Y83552D01*
X247916Y88031D01*
X248360Y88475D02*
X257318Y88475D01*
X256455Y93398D02*
X253283Y93398D01*
D13*
G36*
X81336Y137879D02*
X78496Y140719D01*
X89820Y152043D01*
X92660Y149203D01*
X81336Y137879D01*
G37*
G36*
X84872Y134344D02*
X82032Y137184D01*
X93356Y148508D01*
X96196Y145668D01*
X84872Y134344D01*
G37*
G36*
X88407Y130808D02*
X85567Y133648D01*
X96891Y144972D01*
X99731Y142132D01*
X88407Y130808D01*
G37*
G36*
X91943Y127273D02*
X89103Y130113D01*
X100427Y141437D01*
X103267Y138597D01*
X91943Y127273D01*
G37*
G36*
X95479Y123737D02*
X92639Y126577D01*
X103963Y137901D01*
X106803Y135061D01*
X95479Y123737D01*
G37*
G36*
X99014Y120202D02*
X96174Y123042D01*
X107498Y134366D01*
X110338Y131526D01*
X99014Y120202D01*
G37*
G36*
X102550Y116666D02*
X99710Y119506D01*
X111034Y130830D01*
X113874Y127990D01*
X102550Y116666D01*
G37*
G36*
X106085Y113131D02*
X103245Y115971D01*
X114569Y127295D01*
X117409Y124455D01*
X106085Y113131D01*
G37*
G36*
X109621Y109595D02*
X106781Y112435D01*
X118105Y123759D01*
X120945Y120919D01*
X109621Y109595D01*
G37*
G36*
X113156Y106060D02*
X110316Y108900D01*
X121640Y120224D01*
X124480Y117384D01*
X113156Y106060D01*
G37*
G36*
X116692Y102524D02*
X113852Y105364D01*
X125176Y116688D01*
X128016Y113848D01*
X116692Y102524D01*
G37*
G36*
X120227Y98989D02*
X117387Y101829D01*
X128711Y113153D01*
X131551Y110313D01*
X120227Y98989D01*
G37*
G36*
X123763Y95453D02*
X120923Y98293D01*
X132247Y109617D01*
X135087Y106777D01*
X123763Y95453D01*
G37*
G36*
X127298Y91917D02*
X124458Y94757D01*
X135782Y106081D01*
X138622Y103241D01*
X127298Y91917D01*
G37*
G36*
X130834Y88382D02*
X127994Y91222D01*
X139318Y102546D01*
X142158Y99706D01*
X130834Y88382D01*
G37*
G36*
X134369Y84846D02*
X131529Y87686D01*
X142853Y99010D01*
X145693Y96170D01*
X134369Y84846D01*
G37*
G36*
X159107Y96170D02*
X161947Y99010D01*
X173271Y87686D01*
X170431Y84846D01*
X159107Y96170D01*
G37*
G36*
X162642Y99706D02*
X165482Y102546D01*
X176806Y91222D01*
X173966Y88382D01*
X162642Y99706D01*
G37*
G36*
X166178Y103241D02*
X169018Y106081D01*
X180342Y94757D01*
X177502Y91917D01*
X166178Y103241D01*
G37*
G36*
X169713Y106777D02*
X172553Y109617D01*
X183877Y98293D01*
X181037Y95453D01*
X169713Y106777D01*
G37*
G36*
X173249Y110313D02*
X176089Y113153D01*
X187413Y101829D01*
X184573Y98989D01*
X173249Y110313D01*
G37*
G36*
X176784Y113848D02*
X179624Y116688D01*
X190948Y105364D01*
X188108Y102524D01*
X176784Y113848D01*
G37*
G36*
X180320Y117384D02*
X183160Y120224D01*
X194484Y108900D01*
X191644Y106060D01*
X180320Y117384D01*
G37*
G36*
X183855Y120919D02*
X186695Y123759D01*
X198019Y112435D01*
X195179Y109595D01*
X183855Y120919D01*
G37*
G36*
X187391Y124455D02*
X190231Y127295D01*
X201555Y115971D01*
X198715Y113131D01*
X187391Y124455D01*
G37*
G36*
X190926Y127990D02*
X193766Y130830D01*
X205090Y119506D01*
X202250Y116666D01*
X190926Y127990D01*
G37*
G36*
X194462Y131526D02*
X197302Y134366D01*
X208626Y123042D01*
X205786Y120202D01*
X194462Y131526D01*
G37*
G36*
X197997Y135061D02*
X200837Y137901D01*
X212161Y126577D01*
X209321Y123737D01*
X197997Y135061D01*
G37*
G36*
X201533Y138597D02*
X204373Y141437D01*
X215697Y130113D01*
X212857Y127273D01*
X201533Y138597D01*
G37*
G36*
X205069Y142132D02*
X207909Y144972D01*
X219233Y133648D01*
X216393Y130808D01*
X205069Y142132D01*
G37*
G36*
X208604Y145668D02*
X211444Y148508D01*
X222768Y137184D01*
X219928Y134344D01*
X208604Y145668D01*
G37*
G36*
X212140Y149203D02*
X214980Y152043D01*
X226304Y140719D01*
X223464Y137879D01*
X212140Y149203D01*
G37*
G36*
X214980Y165457D02*
X212140Y168297D01*
X223464Y179621D01*
X226304Y176781D01*
X214980Y165457D01*
G37*
G36*
X211444Y168992D02*
X208604Y171832D01*
X219928Y183156D01*
X222768Y180316D01*
X211444Y168992D01*
G37*
G36*
X207909Y172528D02*
X205069Y175368D01*
X216393Y186692D01*
X219233Y183852D01*
X207909Y172528D01*
G37*
G36*
X204373Y176063D02*
X201533Y178903D01*
X212857Y190227D01*
X215697Y187387D01*
X204373Y176063D01*
G37*
G36*
X200837Y179599D02*
X197997Y182439D01*
X209321Y193763D01*
X212161Y190923D01*
X200837Y179599D01*
G37*
G36*
X197302Y183134D02*
X194462Y185974D01*
X205786Y197298D01*
X208626Y194458D01*
X197302Y183134D01*
G37*
G36*
X193766Y186670D02*
X190926Y189510D01*
X202250Y200834D01*
X205090Y197994D01*
X193766Y186670D01*
G37*
G36*
X190231Y190205D02*
X187391Y193045D01*
X198715Y204369D01*
X201555Y201529D01*
X190231Y190205D01*
G37*
G36*
X186695Y193741D02*
X183855Y196581D01*
X195179Y207905D01*
X198019Y205065D01*
X186695Y193741D01*
G37*
G36*
X183160Y197276D02*
X180320Y200116D01*
X191644Y211440D01*
X194484Y208600D01*
X183160Y197276D01*
G37*
G36*
X179624Y200812D02*
X176784Y203652D01*
X188108Y214976D01*
X190948Y212136D01*
X179624Y200812D01*
G37*
G36*
X176089Y204347D02*
X173249Y207187D01*
X184573Y218511D01*
X187413Y215671D01*
X176089Y204347D01*
G37*
G36*
X172553Y207883D02*
X169713Y210723D01*
X181037Y222047D01*
X183877Y219207D01*
X172553Y207883D01*
G37*
G36*
X169018Y211419D02*
X166178Y214259D01*
X177502Y225583D01*
X180342Y222743D01*
X169018Y211419D01*
G37*
G36*
X165482Y214954D02*
X162642Y217794D01*
X173966Y229118D01*
X176806Y226278D01*
X165482Y214954D01*
G37*
G36*
X161947Y218490D02*
X159107Y221330D01*
X170431Y232654D01*
X173271Y229814D01*
X161947Y218490D01*
G37*
G36*
X131529Y229814D02*
X134369Y232654D01*
X145693Y221330D01*
X142853Y218490D01*
X131529Y229814D01*
G37*
G36*
X127994Y226278D02*
X130834Y229118D01*
X142158Y217794D01*
X139318Y214954D01*
X127994Y226278D01*
G37*
G36*
X124458Y222743D02*
X127298Y225583D01*
X138622Y214259D01*
X135782Y211419D01*
X124458Y222743D01*
G37*
G36*
X120923Y219207D02*
X123763Y222047D01*
X135087Y210723D01*
X132247Y207883D01*
X120923Y219207D01*
G37*
G36*
X117387Y215671D02*
X120227Y218511D01*
X131551Y207187D01*
X128711Y204347D01*
X117387Y215671D01*
G37*
G36*
X113852Y212136D02*
X116692Y214976D01*
X128016Y203652D01*
X125176Y200812D01*
X113852Y212136D01*
G37*
G36*
X110316Y208600D02*
X113156Y211440D01*
X124480Y200116D01*
X121640Y197276D01*
X110316Y208600D01*
G37*
G36*
X106781Y205065D02*
X109621Y207905D01*
X120945Y196581D01*
X118105Y193741D01*
X106781Y205065D01*
G37*
G36*
X103245Y201529D02*
X106085Y204369D01*
X117409Y193045D01*
X114569Y190205D01*
X103245Y201529D01*
G37*
G36*
X99710Y197994D02*
X102550Y200834D01*
X113874Y189510D01*
X111034Y186670D01*
X99710Y197994D01*
G37*
G36*
X96174Y194458D02*
X99014Y197298D01*
X110338Y185974D01*
X107498Y183134D01*
X96174Y194458D01*
G37*
G36*
X92639Y190923D02*
X95479Y193763D01*
X106803Y182439D01*
X103963Y179599D01*
X92639Y190923D01*
G37*
G36*
X89103Y187387D02*
X91943Y190227D01*
X103267Y178903D01*
X100427Y176063D01*
X89103Y187387D01*
G37*
G36*
X85567Y183852D02*
X88407Y186692D01*
X99731Y175368D01*
X96891Y172528D01*
X85567Y183852D01*
G37*
G36*
X82032Y180316D02*
X84872Y183156D01*
X96196Y171832D01*
X93356Y168992D01*
X82032Y180316D01*
G37*
G36*
X78496Y176781D02*
X81336Y179621D01*
X92660Y168297D01*
X89820Y165457D01*
X78496Y176781D01*
G37*
D14*
G36*
X247622Y189061D02*
X237005Y199678D01*
X246208Y208881D01*
X256825Y198264D01*
X247622Y189061D01*
G37*
G36*
X263178Y173505D02*
X252561Y184122D01*
X261764Y193325D01*
X272381Y182708D01*
X263178Y173505D01*
G37*
G36*
X273078Y204639D02*
X283695Y194022D01*
X274492Y184819D01*
X263875Y195436D01*
X273078Y204639D01*
G37*
G36*
X257522Y220195D02*
X268139Y209578D01*
X258936Y200375D01*
X248319Y210992D01*
X257522Y220195D01*
G37*
D15*
X340189Y90689D02*
X340189Y87111D01*
X336611Y87111D01*
X336611Y90689D01*
X340189Y90689D01*
X340189Y90377D02*
X336611Y90377D01*
X349189Y90689D02*
X349189Y87111D01*
X345611Y87111D01*
X345611Y90689D01*
X349189Y90689D01*
X349189Y90377D02*
X345611Y90377D01*
X364661Y90689D02*
X364661Y87111D01*
X364661Y90689D02*
X368239Y90689D01*
X368239Y87111D01*
X364661Y87111D01*
X364661Y90377D02*
X368239Y90377D01*
X355661Y90689D02*
X355661Y87111D01*
X355661Y90689D02*
X359239Y90689D01*
X359239Y87111D01*
X355661Y87111D01*
X355661Y90377D02*
X359239Y90377D01*
X345611Y99811D02*
X345611Y103389D01*
X349189Y103389D01*
X349189Y99811D01*
X345611Y99811D01*
X345611Y103077D02*
X349189Y103077D01*
X336611Y103389D02*
X336611Y99811D01*
X336611Y103389D02*
X340189Y103389D01*
X340189Y99811D01*
X336611Y99811D01*
X336611Y103077D02*
X340189Y103077D01*
X359239Y103389D02*
X359239Y99811D01*
X355661Y99811D01*
X355661Y103389D01*
X359239Y103389D01*
X359239Y103077D02*
X355661Y103077D01*
X368239Y103389D02*
X368239Y99811D01*
X364661Y99811D01*
X364661Y103389D01*
X368239Y103389D01*
X368239Y103077D02*
X364661Y103077D01*
X75548Y104768D02*
X73018Y107298D01*
X75548Y104768D02*
X73018Y102238D01*
X70488Y104768D01*
X73018Y107298D01*
X74812Y105504D02*
X71224Y105504D01*
X79382Y113662D02*
X81912Y111132D01*
X79382Y108602D01*
X76852Y111132D01*
X79382Y113662D01*
X81176Y111868D02*
X77588Y111868D01*
X95902Y92082D02*
X98432Y89552D01*
X95902Y92082D02*
X98432Y94612D01*
X100962Y92082D01*
X98432Y89552D01*
X100226Y92818D02*
X96638Y92818D01*
X89538Y85718D02*
X92068Y83188D01*
X89538Y85718D02*
X92068Y88248D01*
X94598Y85718D01*
X92068Y83188D01*
X93862Y86454D02*
X90274Y86454D01*
X479889Y182361D02*
X479889Y185939D01*
X479889Y182361D02*
X476311Y182361D01*
X476311Y185939D01*
X479889Y185939D01*
X479889Y185627D02*
X476311Y185627D01*
X488889Y185939D02*
X488889Y182361D01*
X485311Y182361D01*
X485311Y185939D01*
X488889Y185939D01*
X488889Y185627D02*
X485311Y185627D01*
X282111Y141489D02*
X282111Y137911D01*
X282111Y141489D02*
X285689Y141489D01*
X285689Y137911D01*
X282111Y137911D01*
X282111Y141177D02*
X285689Y141177D01*
X273111Y141489D02*
X273111Y137911D01*
X273111Y141489D02*
X276689Y141489D01*
X276689Y137911D01*
X273111Y137911D01*
X273111Y141177D02*
X276689Y141177D01*
X302089Y182361D02*
X302089Y185939D01*
X302089Y182361D02*
X298511Y182361D01*
X298511Y185939D01*
X302089Y185939D01*
X302089Y185627D02*
X298511Y185627D01*
X311089Y185939D02*
X311089Y182361D01*
X307511Y182361D01*
X307511Y185939D01*
X311089Y185939D01*
X311089Y185627D02*
X307511Y185627D01*
X302089Y160539D02*
X302089Y156961D01*
X298511Y156961D01*
X298511Y160539D01*
X302089Y160539D01*
X302089Y160227D02*
X298511Y160227D01*
X311089Y160539D02*
X311089Y156961D01*
X307511Y156961D01*
X307511Y160539D01*
X311089Y160539D01*
X311089Y160227D02*
X307511Y160227D01*
X457029Y160539D02*
X457029Y156961D01*
X453451Y156961D01*
X453451Y160539D01*
X457029Y160539D01*
X457029Y160227D02*
X453451Y160227D01*
X466029Y160539D02*
X466029Y156961D01*
X462451Y156961D01*
X462451Y160539D01*
X466029Y160539D01*
X466029Y160227D02*
X462451Y160227D01*
D16*
X344261Y206989D02*
X324639Y206989D01*
X324639Y212111D01*
X344261Y212111D01*
X344261Y206989D01*
X344261Y208788D02*
X324639Y208788D01*
X324639Y210587D02*
X344261Y210587D01*
X344261Y194289D02*
X324639Y194289D01*
X324639Y199411D01*
X344261Y199411D01*
X344261Y194289D01*
X344261Y196088D02*
X324639Y196088D01*
X324639Y197887D02*
X344261Y197887D01*
X344261Y181589D02*
X324639Y181589D01*
X324639Y186711D01*
X344261Y186711D01*
X344261Y181589D01*
X344261Y183388D02*
X324639Y183388D01*
X324639Y185187D02*
X344261Y185187D01*
X344261Y168889D02*
X324639Y168889D01*
X324639Y174011D01*
X344261Y174011D01*
X344261Y168889D01*
X344261Y170688D02*
X324639Y170688D01*
X324639Y172487D02*
X344261Y172487D01*
X344261Y156189D02*
X324639Y156189D01*
X324639Y161311D01*
X344261Y161311D01*
X344261Y156189D01*
X344261Y157988D02*
X324639Y157988D01*
X324639Y159787D02*
X344261Y159787D01*
X344261Y143489D02*
X324639Y143489D01*
X324639Y148611D01*
X344261Y148611D01*
X344261Y143489D01*
X344261Y145288D02*
X324639Y145288D01*
X324639Y147087D02*
X344261Y147087D01*
X344261Y130789D02*
X324639Y130789D01*
X324639Y135911D01*
X344261Y135911D01*
X344261Y130789D01*
X344261Y132588D02*
X324639Y132588D01*
X324639Y134387D02*
X344261Y134387D01*
X344261Y118089D02*
X324639Y118089D01*
X324639Y123211D01*
X344261Y123211D01*
X344261Y118089D01*
X344261Y119888D02*
X324639Y119888D01*
X324639Y121687D02*
X344261Y121687D01*
X417739Y118089D02*
X437361Y118089D01*
X417739Y118089D02*
X417739Y123211D01*
X437361Y123211D01*
X437361Y118089D01*
X437361Y119888D02*
X417739Y119888D01*
X417739Y121687D02*
X437361Y121687D01*
X437361Y130789D02*
X417739Y130789D01*
X417739Y135911D01*
X437361Y135911D01*
X437361Y130789D01*
X437361Y132588D02*
X417739Y132588D01*
X417739Y134387D02*
X437361Y134387D01*
X437361Y143489D02*
X417739Y143489D01*
X417739Y148611D01*
X437361Y148611D01*
X437361Y143489D01*
X437361Y145288D02*
X417739Y145288D01*
X417739Y147087D02*
X437361Y147087D01*
X437361Y156189D02*
X417739Y156189D01*
X417739Y161311D01*
X437361Y161311D01*
X437361Y156189D01*
X437361Y157988D02*
X417739Y157988D01*
X417739Y159787D02*
X437361Y159787D01*
X437361Y168889D02*
X417739Y168889D01*
X417739Y174011D01*
X437361Y174011D01*
X437361Y168889D01*
X437361Y170688D02*
X417739Y170688D01*
X417739Y172487D02*
X437361Y172487D01*
X437361Y181589D02*
X417739Y181589D01*
X417739Y186711D01*
X437361Y186711D01*
X437361Y181589D01*
X437361Y183388D02*
X417739Y183388D01*
X417739Y185187D02*
X437361Y185187D01*
X437361Y194289D02*
X417739Y194289D01*
X417739Y199411D01*
X437361Y199411D01*
X437361Y194289D01*
X437361Y196088D02*
X417739Y196088D01*
X417739Y197887D02*
X437361Y197887D01*
X437361Y206989D02*
X417739Y206989D01*
X417739Y212111D01*
X437361Y212111D01*
X437361Y206989D01*
X437361Y208788D02*
X417739Y208788D01*
X417739Y210587D02*
X437361Y210587D01*
D17*
X177500Y265430D02*
X177500Y280670D01*
X197500Y280670D02*
X197500Y265430D01*
X217500Y265430D02*
X217500Y280670D01*
X237500Y280670D02*
X237500Y265430D01*
X257500Y265430D02*
X257500Y280670D01*
X277500Y280670D02*
X277500Y265430D01*
X297500Y265430D02*
X297500Y280670D01*
X317500Y280670D02*
X317500Y265430D01*
X337500Y265430D02*
X337500Y280670D01*
X357500Y280670D02*
X357500Y265430D01*
X377500Y265430D02*
X377500Y280670D01*
X397500Y280670D02*
X397500Y265430D01*
X417500Y265430D02*
X417500Y280670D01*
X437500Y280670D02*
X437500Y265430D01*
X457500Y265430D02*
X457500Y280670D01*
X177500Y39370D02*
X177500Y24130D01*
X197500Y24130D02*
X197500Y39370D01*
X217500Y39370D02*
X217500Y24130D01*
X237500Y24130D02*
X237500Y39370D01*
X257500Y39370D02*
X257500Y24130D01*
X277500Y24130D02*
X277500Y39370D01*
X297500Y39370D02*
X297500Y24130D01*
X317500Y24130D02*
X317500Y39370D01*
X337500Y39370D02*
X337500Y24130D01*
X357500Y24130D02*
X357500Y39370D01*
X377500Y39370D02*
X377500Y24130D01*
X397500Y24130D02*
X397500Y39370D01*
X417500Y39370D02*
X417500Y24130D01*
X437500Y24130D02*
X437500Y39370D01*
X457500Y39370D02*
X457500Y24130D01*
X557530Y36050D02*
X572770Y36050D01*
X572770Y56050D02*
X557530Y56050D01*
X557530Y76050D02*
X572770Y76050D01*
X572770Y96050D02*
X557530Y96050D01*
X557530Y116050D02*
X572770Y116050D01*
X572770Y136050D02*
X557530Y136050D01*
X557530Y156050D02*
X572770Y156050D01*
X572770Y176050D02*
X557530Y176050D01*
X557530Y196050D02*
X572770Y196050D01*
X572770Y216050D02*
X557530Y216050D01*
X557530Y236050D02*
X572770Y236050D01*
X572770Y256050D02*
X557530Y256050D01*
D18*
X38100Y94100D03*
X38100Y109100D03*
D19*
X77600Y28600D02*
X85100Y28600D01*
X85100Y47600D02*
X77600Y47600D01*
X62100Y38100D02*
X54600Y38100D01*
D15*
X105239Y33539D02*
X105239Y29961D01*
X101661Y29961D01*
X101661Y33539D01*
X105239Y33539D01*
X105239Y33227D02*
X101661Y33227D01*
X114239Y33539D02*
X114239Y29961D01*
X110661Y29961D01*
X110661Y33539D01*
X114239Y33539D01*
X114239Y33227D02*
X110661Y33227D01*
X58939Y105239D02*
X55361Y105239D01*
X58939Y105239D02*
X58939Y101661D01*
X55361Y101661D01*
X55361Y105239D01*
X55361Y104927D02*
X58939Y104927D01*
X58939Y114239D02*
X55361Y114239D01*
X58939Y114239D02*
X58939Y110661D01*
X55361Y110661D01*
X55361Y114239D01*
X55361Y113927D02*
X58939Y113927D01*
M02*
