M48
;GenerationSoftware,Autodesk,EAGLE,9.2.1*%
;CreationDate,2018-10-16T05:27:10Z*%
FMAT,2
ICI,OFF
METRIC,TZ,000.000
T9C0.305
T8C0.350
T7C0.500
T6C0.800
T5C0.813
T4C0.900
T3C1.000
T2C1.016
T1C3.000
%
G90
M71
T1
X171450Y34925
X4445Y38100
X107950Y34925
T2
X18415Y28575
X190761Y12673
X18415Y26575
X18415Y24575
X18415Y22575
X18415Y20575
X18415Y18575
X18415Y16575
X18415Y14575
X183141Y12927
X214155Y19685
X216155Y19685
X218155Y19685
X268605Y20955
X18415Y42575
X233680Y31750
X188221Y12927
X185681Y12673
X220155Y19685
X222155Y19685
X224155Y19685
X226155Y19685
X228155Y19685
X230155Y19685
X232155Y19685
X234155Y19685
X18415Y40575
X18415Y38575
X18415Y36575
X18415Y34575
X18415Y32575
X18415Y30575
X236155Y19685
X238155Y19685
X264795Y41275
X264795Y43815
X220155Y42545
X210155Y42545
X212155Y42545
X214155Y42545
X216155Y42545
X218155Y42545
X222155Y42545
X224155Y42545
X226155Y42545
X228155Y42545
X230155Y42545
X232155Y42545
X234155Y42545
X236155Y42545
X238155Y42545
X210155Y19685
X212155Y19685
T3
X266065Y15240
X266065Y12700
X266065Y10160
X266065Y17780
T4
X76200Y45720
X78740Y45720
X81280Y45720
X83820Y45720
X88900Y45720
X73660Y45720
X86360Y45720
X91440Y45720
T5
X184150Y30480
X186690Y30480
X184150Y22860
X186690Y22860
T6
X187960Y45720
X185420Y45720
X182880Y45720
X182880Y38100
X185420Y38100
X187960Y38100
T7
X33315Y40882
X31248Y38494
X33610Y35847
X22225Y43180
X31115Y45720
X32619Y39227
X33610Y33942
X26035Y32385
X29845Y44450
X22860Y45720
X25400Y46355
X24130Y46355
X21590Y45720
X17145Y46990
X18415Y48260
X18415Y46990
X54229Y46609
X54610Y47625
X55880Y47625
X57150Y47625
X58420Y47625
X36166Y14198
X37064Y37322
X37148Y36111
X48135Y27022
X47500Y30197
X47523Y29173
X51002Y23583
X51024Y27816
X51180Y26584
X57374Y31626
X51024Y31626
X49348Y37875
X47230Y45876
X34938Y44646
X36187Y44785
X50040Y43532
X48770Y42897
X48770Y39087
X47443Y32795
X52967Y44127
X53004Y43137
X55909Y42365
X111739Y48574
X113644Y48574
X113009Y47304
X118089Y47304
X119359Y46034
X120629Y21904
X118724Y21269
X100944Y50479
X102214Y49209
X102214Y47304
X92075Y26035
X93345Y26035
X93980Y24765
X90805Y26035
X90680Y18767
X90680Y17497
X90680Y15592
X90680Y13687
X85090Y43815
X87630Y43815
X96520Y41275
X91948Y38862
X39976Y17373
X58930Y22577
X60200Y22577
X59565Y21942
X62740Y20672
X64010Y21307
X64645Y22577
X64645Y20672
X60835Y24482
X61470Y25117
X62105Y25752
X62740Y26387
X63375Y27022
X75596Y39370
X74537Y39612
X48895Y45157
X229870Y3175
X20444Y25132
X36069Y49347
X24313Y39553
X23043Y27488
X50288Y34402
X47314Y41199
X46990Y34866
X227965Y55245
X19685Y49530
X19685Y56043
X70437Y39081
X70491Y38018
X48260Y31115
X45809Y41721
X31661Y47208
X189865Y3175
X14605Y23495
X14605Y25536
X14605Y29614
X16510Y44450
X73539Y40280
X71212Y37197
X72390Y32385
X67945Y27377
X69850Y26670
X35412Y37384
X113658Y5540
X25819Y35792
X23495Y22860
X27998Y37762
X41127Y38486
X46990Y46990
X48332Y47697
X71052Y25962
X69850Y21590
X71120Y20320
X34456Y33004
X78193Y6611
X70233Y34326
X71366Y33632
X50967Y30220
X151765Y4445
X23495Y26035
X31750Y42545
X45158Y32915
X45720Y46990
X43503Y45642
X72390Y20320
X76411Y21590
X77584Y21549
X36195Y24765
X40005Y7620
X78740Y21590
X85088Y21440
X85870Y20697
X25627Y18839
X30480Y15240
X24765Y16510
X22826Y19782
X86593Y19880
X89584Y24941
X92075Y15875
X88265Y31115
X89535Y32385
X90805Y33655
X92075Y34925
X93345Y36195
X94615Y37465
X95885Y38735
X77542Y39370
X77470Y40640
X65405Y49530
X95250Y15240
X27305Y20320
X42545Y48895
X22860Y49530
X128905Y42545
X127635Y42545
X130175Y42545
X127635Y40640
X128905Y40640
X130175Y40640
X127635Y38735
X128905Y38735
X130175Y38735
X127635Y36830
X128905Y36830
X130175Y36830
X127635Y34925
X128905Y34925
X130175Y34925
X127635Y30480
X128905Y30480
X130175Y30480
X127635Y28575
X128905Y28575
X130175Y28575
X127635Y26670
X128905Y26670
X130175Y26670
X127635Y24765
X128905Y24765
X130175Y24765
X133152Y43009
X133132Y41834
X133161Y40639
X133185Y39382
X133185Y38246
X133185Y37014
X26006Y16738
X133126Y30284
X133150Y29130
X133150Y27946
X133174Y26689
X133150Y25505
X133158Y24307
X133168Y23132
X163830Y43815
X163830Y42545
X163830Y40640
X163830Y39370
X161462Y44222
X161462Y43098
X161412Y41898
X161412Y40574
X161427Y39439
X161462Y38138
X161410Y37045
X163830Y36830
X163830Y35560
X161290Y34290
X162560Y34290
X161290Y33020
X162560Y33020
X163830Y31750
X161495Y31481
X161437Y30397
X163830Y30480
X161423Y29139
X163830Y28575
X161445Y27868
X163830Y27305
X161495Y26693
X161435Y24294
X161485Y25538
X163830Y25400
X138430Y43180
X140335Y43180
X142240Y43180
X144145Y43180
X138430Y41275
X140335Y41275
X142240Y41275
X144145Y41275
X138430Y39370
X140335Y39370
X142240Y39370
X144145Y39370
X140335Y37465
X142240Y37465
X138430Y37465
X139065Y33655
X142240Y34290
X142240Y33020
X147320Y33655
X152400Y34290
X152400Y33020
X155575Y33655
X147320Y43815
X147320Y41275
X147320Y38100
X147320Y30480
X147320Y27305
X147320Y24765
X138430Y30480
X140335Y30480
X142240Y30480
X150495Y30480
X152400Y30480
X154305Y30480
X151130Y27940
X156210Y30480
X156210Y27940
X151130Y25400
X153670Y25400
X156210Y25400
X150495Y43180
X152400Y43180
X154305Y43180
X156210Y43180
X150495Y41275
X152400Y41275
X154305Y41275
X156210Y41275
X150495Y39370
X152400Y39370
X154305Y39370
X156210Y39370
X150495Y37465
X152400Y37465
X154305Y37465
X156210Y37465
X144145Y37465
X138430Y28575
X144145Y30480
X140335Y28575
X142240Y28575
X144145Y28575
X138430Y26670
X140335Y26670
X142240Y26670
X144145Y26670
X138430Y24765
X140335Y24765
X144145Y24765
X219075Y35560
X248920Y56515
X37465Y57150
X67310Y57150
X61595Y44450
X78105Y51435
X25328Y31115
X30480Y29210
X23750Y35560
X23750Y37465
X20315Y37850
X26035Y37465
X116205Y52705
X26016Y39915
X35743Y43670
X154305Y53340
X190703Y53929
X20955Y36195
X20710Y41335
X23495Y41910
X31750Y43604
X45014Y36693
X133185Y35854
X78105Y30480
X79375Y31750
X80645Y33020
X79375Y29210
X80645Y30480
X81915Y31750
X81915Y29210
X80645Y27940
X75565Y30480
X80917Y24989
X86496Y30543
X80900Y35925
X77933Y27766
X83799Y33334
X78052Y33403
X83670Y27655
X51246Y38152
X51310Y35912
X48389Y23212
X83185Y30480
X27372Y35942
X26670Y34925
X26035Y33655
X27305Y33655
X33516Y31958
X33501Y30800
X34925Y26035
X33655Y26035
X33655Y23495
X36830Y20955
X33655Y20320
X21590Y16510
X22506Y17449
X23495Y17780
X25400Y17780
X33655Y15875
X32234Y16137
X28174Y16137
X29181Y16103
X34139Y10422
X35409Y10422
X36679Y10422
X37949Y10422
X34774Y9152
X27154Y10422
T8
X133985Y50800
X197485Y20955
X195580Y26035
X212090Y27940
X213364Y26031
X182245Y26035
X189865Y25400
X191135Y39370
X179070Y36195
X189230Y44450
X179705Y40640
X249555Y33401
X172085Y53340
X207010Y25400
X208915Y29845
X200660Y29845
X200660Y24765
X221615Y37465
X231010Y38865
X191135Y30480
X249555Y32131
X248285Y32131
X184785Y34290
X248285Y34671
X249555Y34671
X249555Y35941
X248285Y35941
X194945Y36195
X236855Y34925
X235585Y34925
X234950Y36195
X236220Y37465
X242570Y41910
X253365Y38481
X252349Y38481
X251333Y38481
X248285Y33401
X244348Y31369
X191355Y25993
X191698Y33957
X225425Y26670
X223520Y32385
X220345Y31115
X215900Y31115
X208915Y31750
X234950Y46990
X236220Y36195
X250952Y30099
X192405Y24130
X200660Y26670
X206375Y33655
X205105Y41910
X226060Y22860
X226695Y46355
X251079Y32893
X252222Y32893
X252095Y30099
X253111Y30099
X245872Y26924
X245872Y25146
X245872Y23495
X245872Y21844
X244364Y35449
X254635Y41910
X245745Y33655
X240030Y37465
X239921Y12809
X206375Y43815
X220980Y25263
X221615Y26452
X240792Y36703
X256413Y24511
X262255Y47625
X227330Y51435
T9
X179705Y20320
X36195Y17145
X201930Y13970
X172720Y44450
X232410Y34925
X239395Y17145
X167640Y46990
X193675Y49530
X147955Y48260
X189865Y50800
X135890Y18415
X132080Y49530
X175260Y45720
X205105Y32385
X34925Y17780
X180340Y45720
X206375Y22225
X195580Y13970
X232410Y27305
X148590Y52705
X177800Y52070
M30