G04 EAGLE Gerber RS-274X export*
G75*
%MOMM*%
%FSLAX34Y34*%
%LPD*%
%INEAGLE Copper Layer 15*%
%IPPOS*%
%AMOC8*
5,1,8,0,0,1.08239X$1,22.5*%
G01*
%ADD10C,1.524000*%
%ADD11C,0.654800*%
%ADD12C,0.711200*%

G36*
X593414Y4575D02*
X593414Y4575D01*
X593432Y4573D01*
X593614Y4594D01*
X593797Y4613D01*
X593814Y4618D01*
X593831Y4620D01*
X594006Y4677D01*
X594182Y4731D01*
X594197Y4739D01*
X594214Y4745D01*
X594374Y4835D01*
X594536Y4923D01*
X594549Y4934D01*
X594565Y4943D01*
X594704Y5063D01*
X594845Y5180D01*
X594856Y5194D01*
X594870Y5206D01*
X594982Y5351D01*
X595097Y5494D01*
X595105Y5510D01*
X595116Y5524D01*
X595198Y5689D01*
X595283Y5851D01*
X595288Y5868D01*
X595296Y5884D01*
X595343Y6063D01*
X595394Y6238D01*
X595396Y6256D01*
X595400Y6273D01*
X595427Y6604D01*
X595427Y293396D01*
X595425Y293414D01*
X595427Y293432D01*
X595406Y293614D01*
X595387Y293797D01*
X595382Y293814D01*
X595380Y293831D01*
X595323Y294006D01*
X595269Y294182D01*
X595261Y294197D01*
X595255Y294214D01*
X595165Y294374D01*
X595077Y294536D01*
X595066Y294549D01*
X595057Y294565D01*
X594937Y294704D01*
X594820Y294845D01*
X594806Y294856D01*
X594794Y294870D01*
X594649Y294982D01*
X594506Y295097D01*
X594490Y295105D01*
X594476Y295116D01*
X594311Y295198D01*
X594149Y295283D01*
X594132Y295288D01*
X594116Y295296D01*
X593937Y295343D01*
X593762Y295394D01*
X593744Y295396D01*
X593727Y295400D01*
X593396Y295427D01*
X6604Y295427D01*
X6586Y295425D01*
X6568Y295427D01*
X6386Y295406D01*
X6203Y295387D01*
X6186Y295382D01*
X6169Y295380D01*
X5994Y295323D01*
X5818Y295269D01*
X5803Y295261D01*
X5786Y295255D01*
X5626Y295165D01*
X5464Y295077D01*
X5451Y295066D01*
X5435Y295057D01*
X5296Y294937D01*
X5155Y294820D01*
X5144Y294806D01*
X5130Y294794D01*
X5018Y294649D01*
X4903Y294506D01*
X4895Y294490D01*
X4884Y294476D01*
X4802Y294311D01*
X4717Y294149D01*
X4712Y294132D01*
X4704Y294116D01*
X4657Y293937D01*
X4606Y293762D01*
X4604Y293744D01*
X4600Y293727D01*
X4573Y293396D01*
X4573Y6604D01*
X4575Y6586D01*
X4573Y6568D01*
X4594Y6386D01*
X4613Y6203D01*
X4618Y6186D01*
X4620Y6169D01*
X4677Y5994D01*
X4731Y5818D01*
X4739Y5803D01*
X4745Y5786D01*
X4835Y5626D01*
X4923Y5464D01*
X4934Y5451D01*
X4943Y5435D01*
X5063Y5296D01*
X5180Y5155D01*
X5194Y5144D01*
X5206Y5130D01*
X5351Y5018D01*
X5494Y4903D01*
X5510Y4895D01*
X5524Y4884D01*
X5689Y4802D01*
X5851Y4717D01*
X5868Y4712D01*
X5884Y4704D01*
X6063Y4657D01*
X6238Y4606D01*
X6256Y4604D01*
X6273Y4600D01*
X6604Y4573D01*
X593396Y4573D01*
X593414Y4575D01*
G37*
%LPC*%
G36*
X175580Y22097D02*
X175580Y22097D01*
X172032Y23567D01*
X169317Y26282D01*
X167847Y29830D01*
X167847Y33670D01*
X169317Y37218D01*
X172032Y39933D01*
X175580Y41403D01*
X179420Y41403D01*
X182968Y39933D01*
X185721Y37180D01*
X185723Y37176D01*
X185813Y37008D01*
X185819Y37001D01*
X185823Y36993D01*
X185948Y36845D01*
X186070Y36697D01*
X186077Y36691D01*
X186083Y36685D01*
X186234Y36564D01*
X186382Y36443D01*
X186390Y36439D01*
X186397Y36434D01*
X186568Y36346D01*
X186739Y36256D01*
X186748Y36254D01*
X186756Y36250D01*
X186939Y36198D01*
X187125Y36143D01*
X187134Y36142D01*
X187143Y36140D01*
X187335Y36125D01*
X187526Y36109D01*
X187535Y36110D01*
X187544Y36109D01*
X187735Y36132D01*
X187927Y36154D01*
X187935Y36156D01*
X187944Y36157D01*
X188126Y36218D01*
X188310Y36277D01*
X188318Y36281D01*
X188326Y36284D01*
X188493Y36379D01*
X188661Y36473D01*
X188668Y36479D01*
X188676Y36483D01*
X188821Y36609D01*
X188967Y36735D01*
X188973Y36742D01*
X188980Y36748D01*
X189096Y36900D01*
X189215Y37052D01*
X189220Y37060D01*
X189225Y37067D01*
X189287Y37188D01*
X192032Y39933D01*
X195580Y41403D01*
X199420Y41403D01*
X202968Y39933D01*
X205721Y37180D01*
X205723Y37176D01*
X205813Y37008D01*
X205819Y37001D01*
X205823Y36993D01*
X205948Y36845D01*
X206070Y36697D01*
X206077Y36691D01*
X206083Y36685D01*
X206234Y36564D01*
X206382Y36443D01*
X206390Y36439D01*
X206397Y36434D01*
X206568Y36346D01*
X206739Y36256D01*
X206748Y36254D01*
X206756Y36250D01*
X206939Y36198D01*
X207125Y36143D01*
X207134Y36142D01*
X207143Y36140D01*
X207335Y36125D01*
X207526Y36109D01*
X207535Y36110D01*
X207544Y36109D01*
X207735Y36132D01*
X207927Y36154D01*
X207935Y36156D01*
X207944Y36157D01*
X208126Y36218D01*
X208310Y36277D01*
X208318Y36281D01*
X208326Y36284D01*
X208493Y36379D01*
X208661Y36473D01*
X208668Y36479D01*
X208676Y36483D01*
X208821Y36609D01*
X208967Y36735D01*
X208973Y36742D01*
X208980Y36748D01*
X209096Y36900D01*
X209215Y37052D01*
X209220Y37060D01*
X209225Y37067D01*
X209287Y37188D01*
X212032Y39933D01*
X215580Y41403D01*
X219420Y41403D01*
X222968Y39933D01*
X225721Y37180D01*
X225723Y37176D01*
X225813Y37008D01*
X225819Y37001D01*
X225823Y36993D01*
X225948Y36845D01*
X226070Y36697D01*
X226077Y36691D01*
X226083Y36685D01*
X226234Y36564D01*
X226382Y36443D01*
X226390Y36439D01*
X226397Y36434D01*
X226568Y36346D01*
X226739Y36256D01*
X226748Y36254D01*
X226756Y36250D01*
X226939Y36198D01*
X227125Y36143D01*
X227134Y36142D01*
X227143Y36140D01*
X227335Y36125D01*
X227526Y36109D01*
X227535Y36110D01*
X227544Y36109D01*
X227735Y36132D01*
X227927Y36154D01*
X227935Y36156D01*
X227944Y36157D01*
X228126Y36218D01*
X228310Y36277D01*
X228318Y36281D01*
X228326Y36284D01*
X228493Y36379D01*
X228661Y36473D01*
X228668Y36479D01*
X228676Y36483D01*
X228821Y36609D01*
X228967Y36735D01*
X228973Y36742D01*
X228980Y36748D01*
X229096Y36900D01*
X229215Y37052D01*
X229220Y37060D01*
X229225Y37067D01*
X229287Y37188D01*
X232032Y39933D01*
X235580Y41403D01*
X239420Y41403D01*
X242968Y39933D01*
X245721Y37180D01*
X245723Y37176D01*
X245813Y37008D01*
X245819Y37001D01*
X245823Y36993D01*
X245948Y36845D01*
X246070Y36697D01*
X246077Y36691D01*
X246083Y36685D01*
X246234Y36564D01*
X246382Y36443D01*
X246390Y36439D01*
X246397Y36434D01*
X246568Y36346D01*
X246739Y36256D01*
X246748Y36254D01*
X246756Y36250D01*
X246939Y36198D01*
X247125Y36143D01*
X247134Y36142D01*
X247143Y36140D01*
X247335Y36125D01*
X247526Y36109D01*
X247535Y36110D01*
X247544Y36109D01*
X247735Y36132D01*
X247927Y36154D01*
X247935Y36156D01*
X247944Y36157D01*
X248126Y36218D01*
X248310Y36277D01*
X248318Y36281D01*
X248326Y36284D01*
X248493Y36379D01*
X248661Y36473D01*
X248668Y36479D01*
X248676Y36483D01*
X248821Y36609D01*
X248967Y36735D01*
X248973Y36742D01*
X248980Y36748D01*
X249096Y36900D01*
X249215Y37052D01*
X249220Y37060D01*
X249225Y37067D01*
X249287Y37188D01*
X252032Y39933D01*
X255580Y41403D01*
X259420Y41403D01*
X262968Y39933D01*
X265721Y37180D01*
X265723Y37176D01*
X265813Y37008D01*
X265819Y37001D01*
X265823Y36993D01*
X265948Y36845D01*
X266070Y36697D01*
X266077Y36691D01*
X266083Y36685D01*
X266234Y36564D01*
X266382Y36443D01*
X266390Y36439D01*
X266397Y36434D01*
X266568Y36346D01*
X266739Y36256D01*
X266748Y36254D01*
X266756Y36250D01*
X266939Y36198D01*
X267125Y36143D01*
X267134Y36142D01*
X267143Y36140D01*
X267335Y36125D01*
X267526Y36109D01*
X267535Y36110D01*
X267544Y36109D01*
X267735Y36132D01*
X267927Y36154D01*
X267935Y36156D01*
X267944Y36157D01*
X268126Y36218D01*
X268310Y36277D01*
X268318Y36281D01*
X268326Y36284D01*
X268493Y36379D01*
X268661Y36473D01*
X268668Y36479D01*
X268676Y36483D01*
X268821Y36609D01*
X268967Y36735D01*
X268973Y36742D01*
X268980Y36748D01*
X269096Y36900D01*
X269215Y37052D01*
X269220Y37060D01*
X269225Y37067D01*
X269287Y37188D01*
X272032Y39933D01*
X275580Y41403D01*
X279420Y41403D01*
X282968Y39933D01*
X285721Y37180D01*
X285723Y37176D01*
X285813Y37008D01*
X285819Y37001D01*
X285823Y36993D01*
X285948Y36845D01*
X286070Y36697D01*
X286077Y36691D01*
X286083Y36685D01*
X286234Y36564D01*
X286382Y36443D01*
X286390Y36439D01*
X286397Y36434D01*
X286568Y36346D01*
X286739Y36256D01*
X286748Y36254D01*
X286756Y36250D01*
X286939Y36198D01*
X287125Y36143D01*
X287134Y36142D01*
X287143Y36140D01*
X287335Y36125D01*
X287526Y36109D01*
X287535Y36110D01*
X287544Y36109D01*
X287735Y36132D01*
X287927Y36154D01*
X287935Y36156D01*
X287944Y36157D01*
X288126Y36218D01*
X288310Y36277D01*
X288318Y36281D01*
X288326Y36284D01*
X288493Y36379D01*
X288661Y36473D01*
X288668Y36479D01*
X288676Y36483D01*
X288821Y36609D01*
X288967Y36735D01*
X288973Y36742D01*
X288980Y36748D01*
X289096Y36900D01*
X289215Y37052D01*
X289220Y37060D01*
X289225Y37067D01*
X289287Y37188D01*
X292032Y39933D01*
X295580Y41403D01*
X299420Y41403D01*
X302968Y39933D01*
X305721Y37180D01*
X305723Y37176D01*
X305813Y37008D01*
X305819Y37001D01*
X305823Y36993D01*
X305948Y36845D01*
X306070Y36697D01*
X306077Y36691D01*
X306083Y36685D01*
X306234Y36564D01*
X306382Y36443D01*
X306390Y36439D01*
X306397Y36434D01*
X306568Y36346D01*
X306739Y36256D01*
X306748Y36254D01*
X306756Y36250D01*
X306939Y36198D01*
X307125Y36143D01*
X307134Y36142D01*
X307143Y36140D01*
X307335Y36125D01*
X307526Y36109D01*
X307535Y36110D01*
X307544Y36109D01*
X307735Y36132D01*
X307927Y36154D01*
X307935Y36156D01*
X307944Y36157D01*
X308126Y36218D01*
X308310Y36277D01*
X308318Y36281D01*
X308326Y36284D01*
X308493Y36379D01*
X308661Y36473D01*
X308668Y36479D01*
X308676Y36483D01*
X308821Y36609D01*
X308967Y36735D01*
X308973Y36742D01*
X308980Y36748D01*
X309096Y36900D01*
X309215Y37052D01*
X309220Y37060D01*
X309225Y37067D01*
X309287Y37188D01*
X312032Y39933D01*
X315580Y41403D01*
X319420Y41403D01*
X322968Y39933D01*
X325721Y37180D01*
X325723Y37176D01*
X325813Y37008D01*
X325819Y37001D01*
X325823Y36993D01*
X325948Y36845D01*
X326070Y36697D01*
X326077Y36691D01*
X326083Y36685D01*
X326234Y36564D01*
X326382Y36443D01*
X326390Y36439D01*
X326397Y36434D01*
X326568Y36346D01*
X326739Y36256D01*
X326748Y36254D01*
X326756Y36250D01*
X326939Y36198D01*
X327125Y36143D01*
X327134Y36142D01*
X327143Y36140D01*
X327335Y36125D01*
X327526Y36109D01*
X327535Y36110D01*
X327544Y36109D01*
X327735Y36132D01*
X327927Y36154D01*
X327935Y36156D01*
X327944Y36157D01*
X328126Y36218D01*
X328310Y36277D01*
X328318Y36281D01*
X328326Y36284D01*
X328493Y36379D01*
X328661Y36473D01*
X328668Y36479D01*
X328676Y36483D01*
X328821Y36609D01*
X328967Y36735D01*
X328973Y36742D01*
X328980Y36748D01*
X329096Y36900D01*
X329215Y37052D01*
X329220Y37060D01*
X329225Y37067D01*
X329287Y37188D01*
X332032Y39933D01*
X335580Y41403D01*
X339420Y41403D01*
X342968Y39933D01*
X345721Y37180D01*
X345723Y37176D01*
X345813Y37008D01*
X345819Y37001D01*
X345823Y36993D01*
X345948Y36845D01*
X346070Y36697D01*
X346077Y36691D01*
X346083Y36685D01*
X346234Y36564D01*
X346382Y36443D01*
X346390Y36439D01*
X346397Y36434D01*
X346568Y36346D01*
X346739Y36256D01*
X346748Y36254D01*
X346756Y36250D01*
X346939Y36198D01*
X347125Y36143D01*
X347134Y36142D01*
X347143Y36140D01*
X347335Y36125D01*
X347526Y36109D01*
X347535Y36110D01*
X347544Y36109D01*
X347735Y36132D01*
X347927Y36154D01*
X347935Y36156D01*
X347944Y36157D01*
X348126Y36218D01*
X348310Y36277D01*
X348318Y36281D01*
X348326Y36284D01*
X348493Y36379D01*
X348661Y36473D01*
X348668Y36479D01*
X348676Y36483D01*
X348821Y36609D01*
X348967Y36735D01*
X348973Y36742D01*
X348980Y36748D01*
X349096Y36900D01*
X349215Y37052D01*
X349220Y37060D01*
X349225Y37067D01*
X349287Y37188D01*
X352032Y39933D01*
X355580Y41403D01*
X359420Y41403D01*
X362968Y39933D01*
X365721Y37180D01*
X365723Y37177D01*
X365814Y37007D01*
X365819Y37000D01*
X365824Y36992D01*
X365948Y36844D01*
X366070Y36697D01*
X366077Y36691D01*
X366083Y36684D01*
X366234Y36564D01*
X366383Y36443D01*
X366391Y36439D01*
X366398Y36433D01*
X366569Y36346D01*
X366739Y36256D01*
X366748Y36254D01*
X366756Y36250D01*
X366940Y36197D01*
X367126Y36143D01*
X367135Y36142D01*
X367143Y36140D01*
X367335Y36125D01*
X367527Y36108D01*
X367536Y36109D01*
X367545Y36109D01*
X367736Y36132D01*
X367927Y36154D01*
X367935Y36156D01*
X367944Y36157D01*
X368126Y36218D01*
X368310Y36277D01*
X368318Y36281D01*
X368327Y36284D01*
X368493Y36379D01*
X368662Y36473D01*
X368668Y36479D01*
X368676Y36484D01*
X368822Y36610D01*
X368967Y36735D01*
X368973Y36742D01*
X368980Y36748D01*
X369098Y36901D01*
X369216Y37052D01*
X369220Y37060D01*
X369225Y37067D01*
X369287Y37188D01*
X372032Y39933D01*
X375580Y41403D01*
X379420Y41403D01*
X382968Y39933D01*
X385721Y37180D01*
X385723Y37176D01*
X385813Y37008D01*
X385819Y37001D01*
X385824Y36993D01*
X385948Y36845D01*
X386070Y36697D01*
X386077Y36691D01*
X386083Y36684D01*
X386233Y36564D01*
X386382Y36443D01*
X386390Y36439D01*
X386397Y36434D01*
X386570Y36345D01*
X386739Y36256D01*
X386747Y36254D01*
X386756Y36250D01*
X386942Y36197D01*
X387125Y36143D01*
X387134Y36142D01*
X387143Y36140D01*
X387333Y36125D01*
X387526Y36108D01*
X387536Y36109D01*
X387544Y36109D01*
X387734Y36132D01*
X387926Y36154D01*
X387935Y36156D01*
X387944Y36157D01*
X388126Y36218D01*
X388310Y36277D01*
X388318Y36281D01*
X388326Y36284D01*
X388493Y36379D01*
X388661Y36473D01*
X388668Y36479D01*
X388676Y36483D01*
X388820Y36609D01*
X388967Y36735D01*
X388973Y36742D01*
X388980Y36748D01*
X389097Y36901D01*
X389215Y37052D01*
X389219Y37060D01*
X389225Y37067D01*
X389287Y37188D01*
X392032Y39933D01*
X395580Y41403D01*
X399420Y41403D01*
X402968Y39933D01*
X405721Y37180D01*
X405723Y37176D01*
X405813Y37008D01*
X405819Y37001D01*
X405824Y36993D01*
X405948Y36845D01*
X406070Y36697D01*
X406077Y36691D01*
X406083Y36684D01*
X406233Y36564D01*
X406382Y36443D01*
X406390Y36439D01*
X406397Y36434D01*
X406570Y36345D01*
X406739Y36256D01*
X406747Y36254D01*
X406756Y36250D01*
X406942Y36197D01*
X407125Y36143D01*
X407134Y36142D01*
X407143Y36140D01*
X407333Y36125D01*
X407526Y36108D01*
X407536Y36109D01*
X407544Y36109D01*
X407734Y36132D01*
X407926Y36154D01*
X407935Y36156D01*
X407944Y36157D01*
X408126Y36218D01*
X408310Y36277D01*
X408318Y36281D01*
X408326Y36284D01*
X408493Y36379D01*
X408661Y36473D01*
X408668Y36479D01*
X408676Y36483D01*
X408820Y36609D01*
X408967Y36735D01*
X408973Y36742D01*
X408980Y36748D01*
X409097Y36901D01*
X409215Y37052D01*
X409219Y37060D01*
X409225Y37067D01*
X409287Y37188D01*
X412032Y39933D01*
X415580Y41403D01*
X419420Y41403D01*
X422968Y39933D01*
X425721Y37180D01*
X425723Y37176D01*
X425813Y37008D01*
X425819Y37001D01*
X425824Y36993D01*
X425948Y36845D01*
X426070Y36697D01*
X426077Y36691D01*
X426083Y36684D01*
X426233Y36564D01*
X426382Y36443D01*
X426390Y36439D01*
X426397Y36434D01*
X426570Y36345D01*
X426739Y36256D01*
X426747Y36254D01*
X426756Y36250D01*
X426942Y36197D01*
X427125Y36143D01*
X427134Y36142D01*
X427143Y36140D01*
X427333Y36125D01*
X427526Y36108D01*
X427536Y36109D01*
X427544Y36109D01*
X427734Y36132D01*
X427926Y36154D01*
X427935Y36156D01*
X427944Y36157D01*
X428126Y36218D01*
X428310Y36277D01*
X428318Y36281D01*
X428326Y36284D01*
X428493Y36379D01*
X428661Y36473D01*
X428668Y36479D01*
X428676Y36483D01*
X428820Y36609D01*
X428967Y36735D01*
X428973Y36742D01*
X428980Y36748D01*
X429097Y36901D01*
X429215Y37052D01*
X429219Y37060D01*
X429225Y37067D01*
X429287Y37188D01*
X432032Y39933D01*
X435580Y41403D01*
X439420Y41403D01*
X442968Y39933D01*
X445721Y37180D01*
X445723Y37176D01*
X445813Y37008D01*
X445819Y37001D01*
X445824Y36993D01*
X445948Y36845D01*
X446070Y36697D01*
X446077Y36691D01*
X446083Y36684D01*
X446233Y36564D01*
X446382Y36443D01*
X446390Y36439D01*
X446397Y36434D01*
X446570Y36345D01*
X446739Y36256D01*
X446747Y36254D01*
X446756Y36250D01*
X446942Y36197D01*
X447125Y36143D01*
X447134Y36142D01*
X447143Y36140D01*
X447333Y36125D01*
X447526Y36108D01*
X447536Y36109D01*
X447544Y36109D01*
X447734Y36132D01*
X447926Y36154D01*
X447935Y36156D01*
X447944Y36157D01*
X448126Y36218D01*
X448310Y36277D01*
X448318Y36281D01*
X448326Y36284D01*
X448493Y36379D01*
X448661Y36473D01*
X448668Y36479D01*
X448676Y36483D01*
X448820Y36609D01*
X448967Y36735D01*
X448973Y36742D01*
X448980Y36748D01*
X449097Y36901D01*
X449215Y37052D01*
X449219Y37060D01*
X449225Y37067D01*
X449287Y37188D01*
X452032Y39933D01*
X455580Y41403D01*
X459420Y41403D01*
X462968Y39933D01*
X465683Y37218D01*
X467153Y33670D01*
X467153Y29830D01*
X465683Y26282D01*
X462968Y23567D01*
X460866Y22696D01*
X460865Y22696D01*
X459420Y22097D01*
X455580Y22097D01*
X452032Y23567D01*
X449279Y26320D01*
X449277Y26323D01*
X449186Y26493D01*
X449181Y26500D01*
X449176Y26508D01*
X449052Y26656D01*
X448930Y26803D01*
X448923Y26809D01*
X448917Y26816D01*
X448766Y26936D01*
X448617Y27057D01*
X448609Y27061D01*
X448602Y27067D01*
X448431Y27154D01*
X448261Y27244D01*
X448252Y27246D01*
X448244Y27250D01*
X448060Y27303D01*
X447874Y27357D01*
X447865Y27358D01*
X447857Y27360D01*
X447665Y27375D01*
X447473Y27392D01*
X447464Y27391D01*
X447455Y27391D01*
X447264Y27368D01*
X447073Y27346D01*
X447065Y27344D01*
X447056Y27343D01*
X446874Y27282D01*
X446690Y27223D01*
X446682Y27219D01*
X446673Y27216D01*
X446507Y27121D01*
X446338Y27027D01*
X446332Y27021D01*
X446324Y27016D01*
X446178Y26890D01*
X446033Y26765D01*
X446027Y26758D01*
X446020Y26752D01*
X445902Y26599D01*
X445784Y26448D01*
X445780Y26440D01*
X445775Y26433D01*
X445713Y26312D01*
X442968Y23567D01*
X440866Y22696D01*
X440865Y22696D01*
X439420Y22097D01*
X435580Y22097D01*
X432032Y23567D01*
X429279Y26320D01*
X429277Y26323D01*
X429186Y26493D01*
X429181Y26500D01*
X429176Y26508D01*
X429052Y26656D01*
X428930Y26803D01*
X428923Y26809D01*
X428917Y26816D01*
X428766Y26936D01*
X428617Y27057D01*
X428609Y27061D01*
X428602Y27067D01*
X428431Y27154D01*
X428261Y27244D01*
X428252Y27246D01*
X428244Y27250D01*
X428060Y27303D01*
X427874Y27357D01*
X427865Y27358D01*
X427857Y27360D01*
X427665Y27375D01*
X427473Y27392D01*
X427464Y27391D01*
X427455Y27391D01*
X427264Y27368D01*
X427073Y27346D01*
X427065Y27344D01*
X427056Y27343D01*
X426874Y27282D01*
X426690Y27223D01*
X426682Y27219D01*
X426673Y27216D01*
X426507Y27121D01*
X426338Y27027D01*
X426332Y27021D01*
X426324Y27016D01*
X426178Y26890D01*
X426033Y26765D01*
X426027Y26758D01*
X426020Y26752D01*
X425902Y26599D01*
X425784Y26448D01*
X425780Y26440D01*
X425775Y26433D01*
X425713Y26312D01*
X422968Y23567D01*
X420866Y22696D01*
X420865Y22696D01*
X419420Y22097D01*
X415580Y22097D01*
X412032Y23567D01*
X409279Y26320D01*
X409277Y26323D01*
X409186Y26493D01*
X409181Y26500D01*
X409176Y26508D01*
X409052Y26656D01*
X408930Y26803D01*
X408923Y26809D01*
X408917Y26816D01*
X408766Y26936D01*
X408617Y27057D01*
X408609Y27061D01*
X408602Y27067D01*
X408431Y27154D01*
X408261Y27244D01*
X408252Y27246D01*
X408244Y27250D01*
X408060Y27303D01*
X407874Y27357D01*
X407865Y27358D01*
X407857Y27360D01*
X407665Y27375D01*
X407473Y27392D01*
X407464Y27391D01*
X407455Y27391D01*
X407264Y27368D01*
X407073Y27346D01*
X407065Y27344D01*
X407056Y27343D01*
X406874Y27282D01*
X406690Y27223D01*
X406682Y27219D01*
X406673Y27216D01*
X406507Y27121D01*
X406338Y27027D01*
X406332Y27021D01*
X406324Y27016D01*
X406178Y26890D01*
X406033Y26765D01*
X406027Y26758D01*
X406020Y26752D01*
X405902Y26599D01*
X405784Y26448D01*
X405780Y26440D01*
X405775Y26433D01*
X405713Y26312D01*
X402968Y23567D01*
X400866Y22696D01*
X400865Y22696D01*
X399420Y22097D01*
X395580Y22097D01*
X392032Y23567D01*
X389279Y26320D01*
X389277Y26323D01*
X389186Y26493D01*
X389181Y26500D01*
X389176Y26508D01*
X389052Y26656D01*
X388930Y26803D01*
X388923Y26809D01*
X388917Y26816D01*
X388766Y26936D01*
X388617Y27057D01*
X388609Y27061D01*
X388602Y27067D01*
X388431Y27154D01*
X388261Y27244D01*
X388252Y27246D01*
X388244Y27250D01*
X388060Y27303D01*
X387874Y27357D01*
X387865Y27358D01*
X387857Y27360D01*
X387665Y27375D01*
X387473Y27392D01*
X387464Y27391D01*
X387455Y27391D01*
X387264Y27368D01*
X387073Y27346D01*
X387065Y27344D01*
X387056Y27343D01*
X386874Y27282D01*
X386690Y27223D01*
X386682Y27219D01*
X386673Y27216D01*
X386507Y27121D01*
X386338Y27027D01*
X386332Y27021D01*
X386324Y27016D01*
X386178Y26890D01*
X386033Y26765D01*
X386027Y26758D01*
X386020Y26752D01*
X385902Y26599D01*
X385784Y26448D01*
X385780Y26440D01*
X385775Y26433D01*
X385713Y26312D01*
X382968Y23567D01*
X380866Y22696D01*
X380865Y22696D01*
X379420Y22097D01*
X375580Y22097D01*
X372032Y23567D01*
X369279Y26320D01*
X369277Y26324D01*
X369187Y26492D01*
X369181Y26499D01*
X369176Y26507D01*
X369052Y26655D01*
X368930Y26803D01*
X368923Y26809D01*
X368917Y26816D01*
X368767Y26936D01*
X368618Y27057D01*
X368610Y27061D01*
X368603Y27066D01*
X368430Y27155D01*
X368261Y27244D01*
X368253Y27246D01*
X368244Y27250D01*
X368058Y27303D01*
X367875Y27357D01*
X367866Y27358D01*
X367857Y27360D01*
X367667Y27375D01*
X367474Y27392D01*
X367464Y27391D01*
X367456Y27391D01*
X367266Y27368D01*
X367074Y27346D01*
X367065Y27344D01*
X367056Y27343D01*
X366874Y27282D01*
X366690Y27223D01*
X366682Y27219D01*
X366674Y27216D01*
X366507Y27121D01*
X366339Y27027D01*
X366332Y27021D01*
X366324Y27017D01*
X366180Y26891D01*
X366033Y26765D01*
X366027Y26758D01*
X366020Y26752D01*
X365902Y26598D01*
X365785Y26448D01*
X365781Y26440D01*
X365775Y26433D01*
X365713Y26312D01*
X362968Y23567D01*
X360866Y22696D01*
X360865Y22696D01*
X359420Y22097D01*
X355580Y22097D01*
X352032Y23567D01*
X349279Y26320D01*
X349278Y26323D01*
X349186Y26493D01*
X349181Y26500D01*
X349176Y26507D01*
X349053Y26654D01*
X348930Y26803D01*
X348923Y26809D01*
X348917Y26816D01*
X348767Y26935D01*
X348617Y27057D01*
X348609Y27061D01*
X348602Y27067D01*
X348431Y27154D01*
X348261Y27244D01*
X348252Y27246D01*
X348244Y27250D01*
X348059Y27303D01*
X347874Y27357D01*
X347865Y27358D01*
X347857Y27360D01*
X347665Y27375D01*
X347473Y27391D01*
X347464Y27390D01*
X347455Y27391D01*
X347265Y27368D01*
X347073Y27346D01*
X347065Y27344D01*
X347056Y27342D01*
X346875Y27283D01*
X346690Y27223D01*
X346682Y27219D01*
X346674Y27216D01*
X346507Y27121D01*
X346338Y27027D01*
X346332Y27021D01*
X346324Y27016D01*
X346179Y26890D01*
X346033Y26765D01*
X346027Y26758D01*
X346020Y26752D01*
X345903Y26600D01*
X345784Y26448D01*
X345780Y26440D01*
X345775Y26433D01*
X345713Y26312D01*
X342968Y23567D01*
X340866Y22696D01*
X340865Y22696D01*
X339420Y22097D01*
X335580Y22097D01*
X332032Y23567D01*
X329279Y26320D01*
X329278Y26323D01*
X329186Y26493D01*
X329181Y26500D01*
X329176Y26507D01*
X329053Y26654D01*
X328930Y26803D01*
X328923Y26809D01*
X328917Y26816D01*
X328767Y26935D01*
X328617Y27057D01*
X328609Y27061D01*
X328602Y27067D01*
X328431Y27154D01*
X328261Y27244D01*
X328252Y27246D01*
X328244Y27250D01*
X328059Y27303D01*
X327874Y27357D01*
X327865Y27358D01*
X327857Y27360D01*
X327665Y27375D01*
X327473Y27391D01*
X327464Y27390D01*
X327455Y27391D01*
X327265Y27368D01*
X327073Y27346D01*
X327065Y27344D01*
X327056Y27342D01*
X326875Y27283D01*
X326690Y27223D01*
X326682Y27219D01*
X326674Y27216D01*
X326507Y27121D01*
X326338Y27027D01*
X326332Y27021D01*
X326324Y27016D01*
X326179Y26890D01*
X326033Y26765D01*
X326027Y26758D01*
X326020Y26752D01*
X325903Y26600D01*
X325784Y26448D01*
X325780Y26440D01*
X325775Y26433D01*
X325713Y26312D01*
X322968Y23567D01*
X320866Y22696D01*
X320865Y22696D01*
X319420Y22097D01*
X315580Y22097D01*
X312032Y23567D01*
X309279Y26320D01*
X309278Y26323D01*
X309186Y26493D01*
X309181Y26500D01*
X309176Y26507D01*
X309053Y26654D01*
X308930Y26803D01*
X308923Y26809D01*
X308917Y26816D01*
X308767Y26935D01*
X308617Y27057D01*
X308609Y27061D01*
X308602Y27067D01*
X308431Y27154D01*
X308261Y27244D01*
X308252Y27246D01*
X308244Y27250D01*
X308059Y27303D01*
X307874Y27357D01*
X307865Y27358D01*
X307857Y27360D01*
X307665Y27375D01*
X307473Y27391D01*
X307464Y27390D01*
X307455Y27391D01*
X307265Y27368D01*
X307073Y27346D01*
X307065Y27344D01*
X307056Y27342D01*
X306875Y27283D01*
X306690Y27223D01*
X306682Y27219D01*
X306674Y27216D01*
X306507Y27121D01*
X306338Y27027D01*
X306332Y27021D01*
X306324Y27016D01*
X306179Y26890D01*
X306033Y26765D01*
X306027Y26758D01*
X306020Y26752D01*
X305903Y26600D01*
X305784Y26448D01*
X305780Y26440D01*
X305775Y26433D01*
X305713Y26312D01*
X302968Y23567D01*
X300866Y22696D01*
X300865Y22696D01*
X299420Y22097D01*
X295580Y22097D01*
X292032Y23567D01*
X289279Y26320D01*
X289278Y26323D01*
X289186Y26493D01*
X289181Y26500D01*
X289176Y26507D01*
X289053Y26654D01*
X288930Y26803D01*
X288923Y26809D01*
X288917Y26816D01*
X288767Y26935D01*
X288617Y27057D01*
X288609Y27061D01*
X288602Y27067D01*
X288431Y27154D01*
X288261Y27244D01*
X288252Y27246D01*
X288244Y27250D01*
X288059Y27303D01*
X287874Y27357D01*
X287865Y27358D01*
X287857Y27360D01*
X287665Y27375D01*
X287473Y27391D01*
X287464Y27390D01*
X287455Y27391D01*
X287265Y27368D01*
X287073Y27346D01*
X287065Y27344D01*
X287056Y27342D01*
X286875Y27283D01*
X286690Y27223D01*
X286682Y27219D01*
X286674Y27216D01*
X286507Y27121D01*
X286338Y27027D01*
X286332Y27021D01*
X286324Y27016D01*
X286179Y26890D01*
X286033Y26765D01*
X286027Y26758D01*
X286020Y26752D01*
X285903Y26600D01*
X285784Y26448D01*
X285780Y26440D01*
X285775Y26433D01*
X285713Y26312D01*
X282968Y23567D01*
X280866Y22696D01*
X280865Y22696D01*
X279420Y22097D01*
X275580Y22097D01*
X272032Y23567D01*
X269279Y26320D01*
X269278Y26323D01*
X269186Y26493D01*
X269181Y26500D01*
X269176Y26507D01*
X269053Y26654D01*
X268930Y26803D01*
X268923Y26809D01*
X268917Y26816D01*
X268767Y26935D01*
X268617Y27057D01*
X268609Y27061D01*
X268602Y27067D01*
X268431Y27154D01*
X268261Y27244D01*
X268252Y27246D01*
X268244Y27250D01*
X268059Y27303D01*
X267874Y27357D01*
X267865Y27358D01*
X267857Y27360D01*
X267665Y27375D01*
X267473Y27391D01*
X267464Y27390D01*
X267455Y27391D01*
X267265Y27368D01*
X267073Y27346D01*
X267065Y27344D01*
X267056Y27342D01*
X266875Y27283D01*
X266690Y27223D01*
X266682Y27219D01*
X266674Y27216D01*
X266507Y27121D01*
X266338Y27027D01*
X266332Y27021D01*
X266324Y27016D01*
X266179Y26890D01*
X266033Y26765D01*
X266027Y26758D01*
X266020Y26752D01*
X265903Y26600D01*
X265784Y26448D01*
X265780Y26440D01*
X265775Y26433D01*
X265713Y26312D01*
X262968Y23567D01*
X260866Y22696D01*
X260865Y22696D01*
X259420Y22097D01*
X255580Y22097D01*
X252032Y23567D01*
X249279Y26320D01*
X249278Y26323D01*
X249186Y26493D01*
X249181Y26500D01*
X249176Y26507D01*
X249053Y26654D01*
X248930Y26803D01*
X248923Y26809D01*
X248917Y26816D01*
X248767Y26935D01*
X248617Y27057D01*
X248609Y27061D01*
X248602Y27067D01*
X248431Y27154D01*
X248261Y27244D01*
X248252Y27246D01*
X248244Y27250D01*
X248059Y27303D01*
X247874Y27357D01*
X247865Y27358D01*
X247857Y27360D01*
X247665Y27375D01*
X247473Y27391D01*
X247464Y27390D01*
X247455Y27391D01*
X247265Y27368D01*
X247073Y27346D01*
X247065Y27344D01*
X247056Y27342D01*
X246875Y27283D01*
X246690Y27223D01*
X246682Y27219D01*
X246674Y27216D01*
X246507Y27121D01*
X246338Y27027D01*
X246332Y27021D01*
X246324Y27016D01*
X246179Y26890D01*
X246033Y26765D01*
X246027Y26758D01*
X246020Y26752D01*
X245903Y26600D01*
X245784Y26448D01*
X245780Y26440D01*
X245775Y26433D01*
X245713Y26312D01*
X242968Y23567D01*
X240866Y22696D01*
X240865Y22696D01*
X239420Y22097D01*
X235580Y22097D01*
X232032Y23567D01*
X229279Y26320D01*
X229278Y26323D01*
X229186Y26493D01*
X229181Y26500D01*
X229176Y26507D01*
X229053Y26654D01*
X228930Y26803D01*
X228923Y26809D01*
X228917Y26816D01*
X228767Y26935D01*
X228617Y27057D01*
X228609Y27061D01*
X228602Y27067D01*
X228431Y27154D01*
X228261Y27244D01*
X228252Y27246D01*
X228244Y27250D01*
X228059Y27303D01*
X227874Y27357D01*
X227865Y27358D01*
X227857Y27360D01*
X227665Y27375D01*
X227473Y27391D01*
X227464Y27390D01*
X227455Y27391D01*
X227265Y27368D01*
X227073Y27346D01*
X227065Y27344D01*
X227056Y27342D01*
X226875Y27283D01*
X226690Y27223D01*
X226682Y27219D01*
X226674Y27216D01*
X226507Y27121D01*
X226338Y27027D01*
X226332Y27021D01*
X226324Y27016D01*
X226179Y26890D01*
X226033Y26765D01*
X226027Y26758D01*
X226020Y26752D01*
X225903Y26600D01*
X225784Y26448D01*
X225780Y26440D01*
X225775Y26433D01*
X225713Y26312D01*
X222968Y23567D01*
X220866Y22696D01*
X220865Y22696D01*
X219420Y22097D01*
X215580Y22097D01*
X212032Y23567D01*
X209279Y26320D01*
X209278Y26323D01*
X209186Y26493D01*
X209181Y26500D01*
X209176Y26507D01*
X209053Y26654D01*
X208930Y26803D01*
X208923Y26809D01*
X208917Y26816D01*
X208767Y26935D01*
X208617Y27057D01*
X208609Y27061D01*
X208602Y27067D01*
X208431Y27154D01*
X208261Y27244D01*
X208252Y27246D01*
X208244Y27250D01*
X208059Y27303D01*
X207874Y27357D01*
X207865Y27358D01*
X207857Y27360D01*
X207665Y27375D01*
X207473Y27391D01*
X207464Y27390D01*
X207455Y27391D01*
X207265Y27368D01*
X207073Y27346D01*
X207065Y27344D01*
X207056Y27342D01*
X206875Y27283D01*
X206690Y27223D01*
X206682Y27219D01*
X206674Y27216D01*
X206507Y27121D01*
X206338Y27027D01*
X206332Y27021D01*
X206324Y27016D01*
X206179Y26890D01*
X206033Y26765D01*
X206027Y26758D01*
X206020Y26752D01*
X205903Y26600D01*
X205784Y26448D01*
X205780Y26440D01*
X205775Y26433D01*
X205713Y26312D01*
X202968Y23567D01*
X200866Y22696D01*
X200865Y22696D01*
X199420Y22097D01*
X195580Y22097D01*
X192032Y23567D01*
X189279Y26320D01*
X189278Y26323D01*
X189186Y26493D01*
X189181Y26500D01*
X189176Y26507D01*
X189053Y26654D01*
X188930Y26803D01*
X188923Y26809D01*
X188917Y26816D01*
X188767Y26935D01*
X188617Y27057D01*
X188609Y27061D01*
X188602Y27067D01*
X188431Y27154D01*
X188261Y27244D01*
X188252Y27246D01*
X188244Y27250D01*
X188059Y27303D01*
X187874Y27357D01*
X187865Y27358D01*
X187857Y27360D01*
X187665Y27375D01*
X187473Y27391D01*
X187464Y27390D01*
X187455Y27391D01*
X187265Y27368D01*
X187073Y27346D01*
X187065Y27344D01*
X187056Y27342D01*
X186875Y27283D01*
X186690Y27223D01*
X186682Y27219D01*
X186674Y27216D01*
X186507Y27121D01*
X186338Y27027D01*
X186332Y27021D01*
X186324Y27016D01*
X186179Y26890D01*
X186033Y26765D01*
X186027Y26758D01*
X186020Y26752D01*
X185903Y26600D01*
X185784Y26448D01*
X185780Y26440D01*
X185775Y26433D01*
X185713Y26312D01*
X182968Y23567D01*
X180866Y22696D01*
X180865Y22696D01*
X179420Y22097D01*
X175580Y22097D01*
G37*
%LPD*%
%LPC*%
G36*
X565008Y58556D02*
X565008Y58556D01*
X564990Y58558D01*
X564973Y58562D01*
X564642Y58589D01*
X555291Y58589D01*
X555734Y59950D01*
X556460Y61375D01*
X557400Y62669D01*
X558531Y63800D01*
X559629Y64598D01*
X559761Y64716D01*
X559896Y64830D01*
X559911Y64849D01*
X559930Y64866D01*
X560036Y65008D01*
X560146Y65146D01*
X560157Y65168D01*
X560172Y65188D01*
X560248Y65347D01*
X560328Y65505D01*
X560335Y65529D01*
X560345Y65551D01*
X560389Y65722D01*
X560436Y65893D01*
X560438Y65918D01*
X560444Y65941D01*
X560453Y66117D01*
X560466Y66295D01*
X560463Y66319D01*
X560464Y66343D01*
X560437Y66518D01*
X560415Y66694D01*
X560407Y66717D01*
X560404Y66741D01*
X560344Y66907D01*
X560287Y67076D01*
X560275Y67097D01*
X560266Y67120D01*
X560174Y67271D01*
X560086Y67425D01*
X560068Y67445D01*
X560057Y67464D01*
X560002Y67524D01*
X559871Y67678D01*
X556967Y70582D01*
X555497Y74130D01*
X555497Y77970D01*
X556967Y81518D01*
X559720Y84271D01*
X559724Y84273D01*
X559892Y84363D01*
X559899Y84369D01*
X559907Y84374D01*
X560055Y84498D01*
X560203Y84620D01*
X560209Y84627D01*
X560216Y84633D01*
X560336Y84783D01*
X560457Y84932D01*
X560461Y84940D01*
X560466Y84947D01*
X560555Y85120D01*
X560644Y85289D01*
X560646Y85297D01*
X560650Y85306D01*
X560703Y85492D01*
X560757Y85675D01*
X560758Y85684D01*
X560760Y85693D01*
X560775Y85882D01*
X560792Y86076D01*
X560791Y86086D01*
X560791Y86094D01*
X560768Y86282D01*
X560746Y86476D01*
X560744Y86485D01*
X560743Y86494D01*
X560682Y86676D01*
X560623Y86860D01*
X560619Y86868D01*
X560616Y86876D01*
X560521Y87043D01*
X560427Y87211D01*
X560421Y87218D01*
X560417Y87226D01*
X560291Y87370D01*
X560165Y87517D01*
X560158Y87523D01*
X560152Y87530D01*
X559999Y87647D01*
X559848Y87765D01*
X559840Y87769D01*
X559833Y87775D01*
X559712Y87837D01*
X556967Y90582D01*
X555497Y94130D01*
X555497Y97970D01*
X556967Y101518D01*
X559720Y104271D01*
X559724Y104273D01*
X559892Y104363D01*
X559899Y104369D01*
X559907Y104374D01*
X560055Y104498D01*
X560203Y104620D01*
X560209Y104627D01*
X560216Y104633D01*
X560336Y104783D01*
X560457Y104932D01*
X560461Y104940D01*
X560466Y104947D01*
X560555Y105120D01*
X560644Y105289D01*
X560646Y105297D01*
X560650Y105306D01*
X560703Y105491D01*
X560757Y105675D01*
X560758Y105684D01*
X560760Y105693D01*
X560775Y105882D01*
X560792Y106076D01*
X560791Y106086D01*
X560791Y106094D01*
X560768Y106284D01*
X560746Y106476D01*
X560744Y106485D01*
X560743Y106494D01*
X560682Y106676D01*
X560623Y106860D01*
X560619Y106868D01*
X560616Y106876D01*
X560521Y107042D01*
X560427Y107211D01*
X560421Y107218D01*
X560417Y107226D01*
X560291Y107370D01*
X560165Y107517D01*
X560158Y107523D01*
X560152Y107530D01*
X559999Y107647D01*
X559848Y107765D01*
X559840Y107769D01*
X559833Y107775D01*
X559712Y107837D01*
X556967Y110582D01*
X555497Y114130D01*
X555497Y117970D01*
X556967Y121518D01*
X559720Y124271D01*
X559724Y124273D01*
X559892Y124363D01*
X559899Y124369D01*
X559907Y124374D01*
X560055Y124498D01*
X560203Y124620D01*
X560209Y124627D01*
X560216Y124633D01*
X560336Y124783D01*
X560457Y124932D01*
X560461Y124940D01*
X560466Y124947D01*
X560555Y125119D01*
X560644Y125289D01*
X560646Y125297D01*
X560650Y125306D01*
X560703Y125492D01*
X560757Y125675D01*
X560758Y125684D01*
X560760Y125693D01*
X560775Y125883D01*
X560792Y126076D01*
X560791Y126086D01*
X560791Y126094D01*
X560768Y126284D01*
X560746Y126476D01*
X560744Y126485D01*
X560743Y126494D01*
X560682Y126676D01*
X560623Y126860D01*
X560619Y126868D01*
X560616Y126876D01*
X560521Y127043D01*
X560427Y127211D01*
X560421Y127218D01*
X560417Y127226D01*
X560292Y127369D01*
X560165Y127517D01*
X560158Y127523D01*
X560152Y127530D01*
X559999Y127647D01*
X559848Y127765D01*
X559840Y127769D01*
X559833Y127775D01*
X559712Y127837D01*
X556967Y130582D01*
X555497Y134130D01*
X555497Y137970D01*
X556967Y141518D01*
X559720Y144271D01*
X559724Y144273D01*
X559892Y144363D01*
X559899Y144369D01*
X559907Y144374D01*
X560055Y144498D01*
X560203Y144620D01*
X560209Y144627D01*
X560216Y144633D01*
X560336Y144783D01*
X560457Y144932D01*
X560461Y144940D01*
X560466Y144947D01*
X560554Y145118D01*
X560644Y145289D01*
X560646Y145297D01*
X560650Y145306D01*
X560703Y145491D01*
X560757Y145675D01*
X560758Y145684D01*
X560760Y145693D01*
X560775Y145883D01*
X560792Y146076D01*
X560791Y146086D01*
X560791Y146094D01*
X560768Y146284D01*
X560746Y146476D01*
X560744Y146485D01*
X560743Y146494D01*
X560683Y146675D01*
X560623Y146860D01*
X560619Y146868D01*
X560616Y146876D01*
X560521Y147043D01*
X560427Y147211D01*
X560421Y147218D01*
X560417Y147226D01*
X560291Y147370D01*
X560165Y147517D01*
X560158Y147523D01*
X560152Y147530D01*
X559999Y147647D01*
X559848Y147765D01*
X559840Y147769D01*
X559833Y147775D01*
X559712Y147837D01*
X556967Y150582D01*
X555497Y154130D01*
X555497Y157970D01*
X556967Y161518D01*
X559720Y164271D01*
X559724Y164273D01*
X559892Y164363D01*
X559899Y164369D01*
X559907Y164374D01*
X560055Y164498D01*
X560203Y164620D01*
X560209Y164627D01*
X560216Y164633D01*
X560336Y164783D01*
X560457Y164932D01*
X560461Y164940D01*
X560466Y164947D01*
X560555Y165120D01*
X560644Y165289D01*
X560646Y165297D01*
X560650Y165306D01*
X560703Y165492D01*
X560757Y165675D01*
X560758Y165684D01*
X560760Y165693D01*
X560775Y165883D01*
X560792Y166076D01*
X560791Y166086D01*
X560791Y166094D01*
X560768Y166284D01*
X560746Y166476D01*
X560744Y166485D01*
X560743Y166494D01*
X560682Y166676D01*
X560623Y166860D01*
X560619Y166868D01*
X560616Y166876D01*
X560521Y167042D01*
X560427Y167211D01*
X560421Y167218D01*
X560417Y167226D01*
X560291Y167370D01*
X560165Y167517D01*
X560158Y167523D01*
X560152Y167530D01*
X559999Y167647D01*
X559848Y167765D01*
X559840Y167769D01*
X559833Y167775D01*
X559712Y167837D01*
X556967Y170582D01*
X555497Y174130D01*
X555497Y177970D01*
X556967Y181518D01*
X559720Y184271D01*
X559724Y184273D01*
X559892Y184363D01*
X559899Y184369D01*
X559907Y184374D01*
X560055Y184498D01*
X560203Y184620D01*
X560209Y184627D01*
X560216Y184633D01*
X560336Y184783D01*
X560457Y184932D01*
X560461Y184940D01*
X560466Y184947D01*
X560555Y185120D01*
X560644Y185289D01*
X560646Y185297D01*
X560650Y185306D01*
X560703Y185492D01*
X560757Y185675D01*
X560758Y185684D01*
X560760Y185693D01*
X560775Y185883D01*
X560792Y186076D01*
X560791Y186086D01*
X560791Y186094D01*
X560768Y186284D01*
X560746Y186476D01*
X560744Y186485D01*
X560743Y186494D01*
X560682Y186676D01*
X560623Y186860D01*
X560619Y186868D01*
X560616Y186876D01*
X560521Y187043D01*
X560427Y187211D01*
X560421Y187218D01*
X560417Y187226D01*
X560291Y187370D01*
X560165Y187517D01*
X560158Y187523D01*
X560152Y187530D01*
X559999Y187647D01*
X559848Y187765D01*
X559840Y187769D01*
X559833Y187775D01*
X559712Y187837D01*
X556967Y190582D01*
X555497Y194130D01*
X555497Y197970D01*
X556967Y201518D01*
X559720Y204271D01*
X559724Y204273D01*
X559892Y204363D01*
X559899Y204369D01*
X559907Y204374D01*
X560055Y204498D01*
X560203Y204620D01*
X560209Y204627D01*
X560216Y204633D01*
X560336Y204783D01*
X560457Y204932D01*
X560461Y204940D01*
X560466Y204947D01*
X560555Y205120D01*
X560644Y205289D01*
X560646Y205297D01*
X560650Y205306D01*
X560703Y205492D01*
X560757Y205675D01*
X560758Y205684D01*
X560760Y205693D01*
X560775Y205883D01*
X560792Y206076D01*
X560791Y206086D01*
X560791Y206094D01*
X560768Y206284D01*
X560746Y206476D01*
X560744Y206485D01*
X560743Y206494D01*
X560682Y206676D01*
X560623Y206860D01*
X560619Y206868D01*
X560616Y206876D01*
X560521Y207043D01*
X560427Y207211D01*
X560421Y207218D01*
X560417Y207226D01*
X560291Y207370D01*
X560165Y207517D01*
X560158Y207523D01*
X560152Y207530D01*
X559999Y207647D01*
X559848Y207765D01*
X559840Y207769D01*
X559833Y207775D01*
X559712Y207837D01*
X556967Y210582D01*
X555497Y214130D01*
X555497Y217970D01*
X556967Y221518D01*
X559720Y224271D01*
X559724Y224273D01*
X559892Y224363D01*
X559899Y224369D01*
X559907Y224374D01*
X560055Y224498D01*
X560203Y224620D01*
X560209Y224627D01*
X560216Y224633D01*
X560336Y224783D01*
X560457Y224932D01*
X560461Y224940D01*
X560466Y224947D01*
X560555Y225120D01*
X560644Y225289D01*
X560646Y225297D01*
X560650Y225306D01*
X560703Y225492D01*
X560757Y225675D01*
X560758Y225684D01*
X560760Y225693D01*
X560775Y225883D01*
X560792Y226076D01*
X560791Y226086D01*
X560791Y226094D01*
X560768Y226284D01*
X560746Y226476D01*
X560744Y226485D01*
X560743Y226494D01*
X560682Y226676D01*
X560623Y226860D01*
X560619Y226868D01*
X560616Y226876D01*
X560521Y227043D01*
X560427Y227211D01*
X560421Y227218D01*
X560417Y227226D01*
X560291Y227370D01*
X560165Y227517D01*
X560158Y227523D01*
X560152Y227530D01*
X559999Y227647D01*
X559848Y227765D01*
X559840Y227769D01*
X559833Y227775D01*
X559712Y227837D01*
X556967Y230582D01*
X555497Y234130D01*
X555497Y237970D01*
X556967Y241518D01*
X559720Y244271D01*
X559724Y244273D01*
X559892Y244363D01*
X559899Y244369D01*
X559907Y244374D01*
X560055Y244498D01*
X560203Y244620D01*
X560209Y244627D01*
X560216Y244633D01*
X560336Y244783D01*
X560457Y244932D01*
X560461Y244940D01*
X560466Y244947D01*
X560555Y245120D01*
X560644Y245289D01*
X560646Y245297D01*
X560650Y245306D01*
X560703Y245492D01*
X560757Y245675D01*
X560758Y245684D01*
X560760Y245693D01*
X560775Y245883D01*
X560792Y246076D01*
X560791Y246086D01*
X560791Y246094D01*
X560768Y246284D01*
X560746Y246476D01*
X560744Y246485D01*
X560743Y246494D01*
X560682Y246676D01*
X560623Y246860D01*
X560619Y246868D01*
X560616Y246876D01*
X560521Y247043D01*
X560427Y247211D01*
X560421Y247218D01*
X560417Y247226D01*
X560291Y247370D01*
X560165Y247517D01*
X560158Y247523D01*
X560152Y247530D01*
X559999Y247647D01*
X559848Y247765D01*
X559840Y247769D01*
X559833Y247775D01*
X559712Y247837D01*
X556967Y250582D01*
X555497Y254130D01*
X555497Y257970D01*
X556967Y261518D01*
X559682Y264233D01*
X560883Y264731D01*
X563230Y265703D01*
X567070Y265703D01*
X570618Y264233D01*
X573333Y261518D01*
X574803Y257970D01*
X574803Y254130D01*
X573333Y250582D01*
X570580Y247829D01*
X570577Y247827D01*
X570407Y247736D01*
X570400Y247731D01*
X570392Y247726D01*
X570244Y247602D01*
X570097Y247480D01*
X570091Y247473D01*
X570084Y247467D01*
X569964Y247316D01*
X569843Y247167D01*
X569839Y247159D01*
X569833Y247152D01*
X569745Y246979D01*
X569656Y246811D01*
X569654Y246802D01*
X569650Y246794D01*
X569597Y246610D01*
X569543Y246424D01*
X569542Y246415D01*
X569540Y246407D01*
X569525Y246215D01*
X569508Y246023D01*
X569509Y246014D01*
X569509Y246005D01*
X569532Y245814D01*
X569554Y245623D01*
X569556Y245615D01*
X569557Y245606D01*
X569618Y245424D01*
X569677Y245240D01*
X569681Y245232D01*
X569684Y245223D01*
X569779Y245056D01*
X569873Y244888D01*
X569879Y244882D01*
X569884Y244874D01*
X570010Y244728D01*
X570135Y244583D01*
X570142Y244577D01*
X570148Y244570D01*
X570301Y244452D01*
X570452Y244334D01*
X570460Y244330D01*
X570467Y244325D01*
X570588Y244263D01*
X573333Y241518D01*
X574803Y237970D01*
X574803Y234130D01*
X573333Y230582D01*
X570580Y227829D01*
X570577Y227827D01*
X570407Y227736D01*
X570400Y227731D01*
X570392Y227726D01*
X570244Y227602D01*
X570097Y227480D01*
X570091Y227473D01*
X570084Y227467D01*
X569964Y227316D01*
X569843Y227167D01*
X569839Y227159D01*
X569833Y227152D01*
X569745Y226979D01*
X569656Y226811D01*
X569654Y226802D01*
X569650Y226794D01*
X569597Y226608D01*
X569543Y226424D01*
X569542Y226415D01*
X569540Y226407D01*
X569525Y226215D01*
X569508Y226023D01*
X569509Y226014D01*
X569509Y226005D01*
X569532Y225813D01*
X569554Y225623D01*
X569556Y225615D01*
X569557Y225606D01*
X569619Y225421D01*
X569677Y225240D01*
X569681Y225232D01*
X569684Y225223D01*
X569779Y225056D01*
X569873Y224888D01*
X569879Y224882D01*
X569884Y224874D01*
X570010Y224728D01*
X570135Y224583D01*
X570142Y224577D01*
X570148Y224570D01*
X570302Y224452D01*
X570452Y224334D01*
X570460Y224330D01*
X570467Y224325D01*
X570588Y224263D01*
X573333Y221518D01*
X574803Y217970D01*
X574803Y214130D01*
X573333Y210582D01*
X570580Y207829D01*
X570577Y207827D01*
X570407Y207736D01*
X570400Y207731D01*
X570392Y207726D01*
X570244Y207602D01*
X570097Y207480D01*
X570091Y207473D01*
X570084Y207467D01*
X569964Y207316D01*
X569843Y207167D01*
X569839Y207159D01*
X569833Y207152D01*
X569746Y206981D01*
X569656Y206811D01*
X569654Y206802D01*
X569650Y206794D01*
X569597Y206607D01*
X569543Y206424D01*
X569542Y206415D01*
X569540Y206407D01*
X569525Y206215D01*
X569508Y206023D01*
X569509Y206014D01*
X569509Y206005D01*
X569532Y205813D01*
X569554Y205623D01*
X569556Y205615D01*
X569557Y205606D01*
X569618Y205424D01*
X569677Y205240D01*
X569681Y205232D01*
X569684Y205223D01*
X569779Y205057D01*
X569873Y204888D01*
X569879Y204882D01*
X569884Y204874D01*
X570010Y204728D01*
X570135Y204583D01*
X570142Y204577D01*
X570148Y204570D01*
X570301Y204452D01*
X570452Y204334D01*
X570460Y204330D01*
X570467Y204325D01*
X570588Y204263D01*
X573333Y201518D01*
X574803Y197970D01*
X574803Y194130D01*
X573333Y190582D01*
X570580Y187829D01*
X570577Y187827D01*
X570407Y187736D01*
X570400Y187731D01*
X570392Y187726D01*
X570244Y187602D01*
X570097Y187480D01*
X570091Y187473D01*
X570084Y187467D01*
X569964Y187316D01*
X569843Y187167D01*
X569839Y187159D01*
X569833Y187152D01*
X569746Y186981D01*
X569656Y186811D01*
X569654Y186802D01*
X569650Y186794D01*
X569597Y186610D01*
X569543Y186424D01*
X569542Y186415D01*
X569540Y186407D01*
X569525Y186215D01*
X569508Y186023D01*
X569509Y186014D01*
X569509Y186005D01*
X569532Y185814D01*
X569554Y185623D01*
X569556Y185615D01*
X569557Y185606D01*
X569618Y185424D01*
X569677Y185240D01*
X569681Y185232D01*
X569684Y185223D01*
X569779Y185057D01*
X569873Y184888D01*
X569879Y184882D01*
X569884Y184874D01*
X570010Y184728D01*
X570135Y184583D01*
X570142Y184577D01*
X570148Y184570D01*
X570302Y184452D01*
X570452Y184334D01*
X570460Y184330D01*
X570467Y184325D01*
X570588Y184263D01*
X573333Y181518D01*
X574803Y177970D01*
X574803Y174130D01*
X573333Y170582D01*
X570580Y167829D01*
X570577Y167827D01*
X570407Y167736D01*
X570400Y167731D01*
X570392Y167726D01*
X570244Y167602D01*
X570097Y167480D01*
X570091Y167473D01*
X570084Y167467D01*
X569964Y167316D01*
X569843Y167167D01*
X569839Y167159D01*
X569833Y167152D01*
X569745Y166979D01*
X569656Y166811D01*
X569654Y166802D01*
X569650Y166794D01*
X569597Y166610D01*
X569543Y166424D01*
X569542Y166415D01*
X569540Y166407D01*
X569525Y166215D01*
X569508Y166023D01*
X569509Y166014D01*
X569509Y166005D01*
X569532Y165814D01*
X569554Y165623D01*
X569556Y165615D01*
X569557Y165606D01*
X569619Y165421D01*
X569677Y165240D01*
X569681Y165232D01*
X569684Y165223D01*
X569780Y165055D01*
X569873Y164888D01*
X569879Y164882D01*
X569884Y164874D01*
X570010Y164728D01*
X570135Y164583D01*
X570142Y164577D01*
X570148Y164570D01*
X570301Y164452D01*
X570452Y164334D01*
X570460Y164330D01*
X570467Y164325D01*
X570588Y164263D01*
X573333Y161518D01*
X574803Y157970D01*
X574803Y154130D01*
X573333Y150582D01*
X570580Y147829D01*
X570577Y147827D01*
X570407Y147736D01*
X570400Y147731D01*
X570392Y147726D01*
X570244Y147601D01*
X570097Y147480D01*
X570091Y147473D01*
X570084Y147467D01*
X569964Y147316D01*
X569843Y147167D01*
X569839Y147159D01*
X569833Y147152D01*
X569745Y146980D01*
X569656Y146811D01*
X569654Y146802D01*
X569650Y146794D01*
X569597Y146608D01*
X569543Y146424D01*
X569542Y146415D01*
X569540Y146407D01*
X569525Y146215D01*
X569508Y146023D01*
X569509Y146014D01*
X569509Y146005D01*
X569532Y145814D01*
X569554Y145623D01*
X569556Y145615D01*
X569557Y145606D01*
X569619Y145421D01*
X569677Y145240D01*
X569681Y145232D01*
X569684Y145223D01*
X569779Y145056D01*
X569873Y144888D01*
X569879Y144882D01*
X569884Y144874D01*
X570010Y144728D01*
X570135Y144583D01*
X570142Y144577D01*
X570148Y144570D01*
X570301Y144452D01*
X570452Y144334D01*
X570460Y144330D01*
X570467Y144325D01*
X570588Y144263D01*
X573333Y141518D01*
X574803Y137970D01*
X574803Y134130D01*
X573333Y130582D01*
X570580Y127829D01*
X570577Y127827D01*
X570407Y127736D01*
X570400Y127731D01*
X570392Y127726D01*
X570244Y127602D01*
X570097Y127480D01*
X570091Y127473D01*
X570084Y127467D01*
X569964Y127316D01*
X569843Y127167D01*
X569839Y127159D01*
X569833Y127152D01*
X569745Y126979D01*
X569656Y126811D01*
X569654Y126802D01*
X569650Y126794D01*
X569597Y126610D01*
X569543Y126424D01*
X569542Y126415D01*
X569540Y126407D01*
X569525Y126215D01*
X569508Y126023D01*
X569509Y126014D01*
X569509Y126005D01*
X569532Y125814D01*
X569554Y125623D01*
X569556Y125615D01*
X569557Y125606D01*
X569618Y125424D01*
X569677Y125240D01*
X569681Y125232D01*
X569684Y125223D01*
X569779Y125057D01*
X569873Y124888D01*
X569879Y124882D01*
X569884Y124874D01*
X570010Y124728D01*
X570135Y124583D01*
X570142Y124577D01*
X570148Y124570D01*
X570302Y124452D01*
X570452Y124334D01*
X570460Y124330D01*
X570467Y124325D01*
X570588Y124263D01*
X573333Y121518D01*
X574803Y117970D01*
X574803Y114130D01*
X573333Y110582D01*
X570580Y107829D01*
X570577Y107827D01*
X570407Y107736D01*
X570400Y107731D01*
X570392Y107726D01*
X570244Y107602D01*
X570097Y107480D01*
X570091Y107473D01*
X570084Y107467D01*
X569964Y107316D01*
X569843Y107167D01*
X569839Y107159D01*
X569833Y107152D01*
X569745Y106979D01*
X569656Y106811D01*
X569654Y106802D01*
X569650Y106794D01*
X569597Y106610D01*
X569543Y106424D01*
X569542Y106415D01*
X569540Y106407D01*
X569525Y106213D01*
X569508Y106023D01*
X569509Y106014D01*
X569509Y106005D01*
X569532Y105813D01*
X569554Y105623D01*
X569556Y105615D01*
X569557Y105606D01*
X569618Y105424D01*
X569677Y105240D01*
X569681Y105232D01*
X569684Y105223D01*
X569779Y105057D01*
X569873Y104888D01*
X569879Y104882D01*
X569884Y104874D01*
X570010Y104728D01*
X570135Y104583D01*
X570142Y104577D01*
X570148Y104570D01*
X570301Y104452D01*
X570452Y104334D01*
X570460Y104330D01*
X570467Y104325D01*
X570588Y104263D01*
X573333Y101518D01*
X574803Y97970D01*
X574803Y94130D01*
X573333Y90582D01*
X570580Y87829D01*
X570576Y87827D01*
X570407Y87736D01*
X570400Y87731D01*
X570392Y87726D01*
X570244Y87602D01*
X570097Y87480D01*
X570091Y87473D01*
X570084Y87467D01*
X569964Y87316D01*
X569843Y87167D01*
X569839Y87159D01*
X569833Y87152D01*
X569745Y86979D01*
X569656Y86811D01*
X569654Y86802D01*
X569650Y86794D01*
X569597Y86610D01*
X569543Y86424D01*
X569542Y86415D01*
X569540Y86407D01*
X569525Y86215D01*
X569508Y86023D01*
X569509Y86014D01*
X569509Y86005D01*
X569532Y85814D01*
X569554Y85623D01*
X569556Y85615D01*
X569557Y85606D01*
X569618Y85423D01*
X569677Y85240D01*
X569681Y85232D01*
X569684Y85223D01*
X569779Y85057D01*
X569873Y84888D01*
X569879Y84882D01*
X569884Y84874D01*
X570010Y84728D01*
X570135Y84583D01*
X570142Y84577D01*
X570148Y84570D01*
X570301Y84452D01*
X570452Y84334D01*
X570460Y84330D01*
X570467Y84325D01*
X570588Y84263D01*
X573333Y81518D01*
X574803Y77970D01*
X574803Y74130D01*
X573333Y70582D01*
X570429Y67678D01*
X570316Y67541D01*
X570201Y67406D01*
X570189Y67385D01*
X570174Y67366D01*
X570090Y67209D01*
X570004Y67055D01*
X569996Y67032D01*
X569985Y67010D01*
X569934Y66841D01*
X569880Y66672D01*
X569877Y66648D01*
X569870Y66625D01*
X569854Y66448D01*
X569834Y66272D01*
X569836Y66248D01*
X569834Y66224D01*
X569853Y66048D01*
X569868Y65871D01*
X569875Y65848D01*
X569877Y65823D01*
X569931Y65655D01*
X569980Y65484D01*
X569991Y65463D01*
X569999Y65439D01*
X570084Y65285D01*
X570166Y65127D01*
X570182Y65108D01*
X570194Y65087D01*
X570308Y64952D01*
X570419Y64814D01*
X570440Y64797D01*
X570454Y64780D01*
X570518Y64729D01*
X570671Y64598D01*
X571769Y63800D01*
X572900Y62669D01*
X573840Y61375D01*
X574566Y59950D01*
X575009Y58589D01*
X565658Y58589D01*
X565640Y58587D01*
X565623Y58589D01*
X565440Y58568D01*
X565258Y58549D01*
X565241Y58544D01*
X565223Y58542D01*
X565145Y58517D01*
X565008Y58556D01*
G37*
%LPD*%
%LPC*%
G36*
X293600Y263634D02*
X293600Y263634D01*
X292175Y264360D01*
X290881Y265300D01*
X289750Y266431D01*
X288952Y267529D01*
X288834Y267661D01*
X288720Y267796D01*
X288701Y267811D01*
X288684Y267830D01*
X288542Y267936D01*
X288404Y268046D01*
X288382Y268057D01*
X288362Y268072D01*
X288203Y268148D01*
X288045Y268228D01*
X288021Y268235D01*
X287999Y268245D01*
X287828Y268289D01*
X287657Y268336D01*
X287632Y268338D01*
X287609Y268344D01*
X287433Y268353D01*
X287255Y268366D01*
X287231Y268363D01*
X287207Y268364D01*
X287032Y268337D01*
X286856Y268315D01*
X286833Y268307D01*
X286809Y268304D01*
X286642Y268243D01*
X286474Y268187D01*
X286453Y268175D01*
X286430Y268166D01*
X286279Y268074D01*
X286125Y267986D01*
X286105Y267968D01*
X286086Y267957D01*
X286026Y267902D01*
X285872Y267771D01*
X282968Y264867D01*
X279420Y263397D01*
X275580Y263397D01*
X272032Y264867D01*
X269279Y267620D01*
X269277Y267623D01*
X269186Y267793D01*
X269181Y267800D01*
X269176Y267808D01*
X269052Y267956D01*
X268930Y268103D01*
X268923Y268109D01*
X268917Y268116D01*
X268766Y268236D01*
X268617Y268357D01*
X268609Y268361D01*
X268602Y268367D01*
X268431Y268454D01*
X268261Y268544D01*
X268252Y268546D01*
X268244Y268550D01*
X268060Y268603D01*
X267874Y268657D01*
X267865Y268658D01*
X267857Y268660D01*
X267665Y268675D01*
X267473Y268692D01*
X267464Y268691D01*
X267455Y268691D01*
X267264Y268668D01*
X267073Y268646D01*
X267065Y268644D01*
X267056Y268643D01*
X266874Y268582D01*
X266690Y268523D01*
X266682Y268519D01*
X266673Y268516D01*
X266507Y268421D01*
X266338Y268327D01*
X266332Y268321D01*
X266324Y268316D01*
X266178Y268190D01*
X266033Y268065D01*
X266027Y268058D01*
X266020Y268052D01*
X265902Y267899D01*
X265784Y267748D01*
X265780Y267740D01*
X265775Y267733D01*
X265713Y267612D01*
X262968Y264867D01*
X259420Y263397D01*
X255580Y263397D01*
X252032Y264867D01*
X249279Y267620D01*
X249277Y267623D01*
X249186Y267793D01*
X249181Y267800D01*
X249176Y267808D01*
X249052Y267956D01*
X248930Y268103D01*
X248923Y268109D01*
X248917Y268116D01*
X248766Y268236D01*
X248617Y268357D01*
X248609Y268361D01*
X248602Y268367D01*
X248431Y268454D01*
X248261Y268544D01*
X248252Y268546D01*
X248244Y268550D01*
X248060Y268603D01*
X247874Y268657D01*
X247865Y268658D01*
X247857Y268660D01*
X247665Y268675D01*
X247473Y268692D01*
X247464Y268691D01*
X247455Y268691D01*
X247264Y268668D01*
X247073Y268646D01*
X247065Y268644D01*
X247056Y268643D01*
X246874Y268582D01*
X246690Y268523D01*
X246682Y268519D01*
X246673Y268516D01*
X246507Y268421D01*
X246338Y268327D01*
X246332Y268321D01*
X246324Y268316D01*
X246178Y268190D01*
X246033Y268065D01*
X246027Y268058D01*
X246020Y268052D01*
X245902Y267899D01*
X245784Y267748D01*
X245780Y267740D01*
X245775Y267733D01*
X245713Y267612D01*
X242968Y264867D01*
X239420Y263397D01*
X235580Y263397D01*
X232032Y264867D01*
X229279Y267620D01*
X229277Y267623D01*
X229186Y267793D01*
X229181Y267800D01*
X229176Y267808D01*
X229052Y267956D01*
X228930Y268103D01*
X228923Y268109D01*
X228917Y268116D01*
X228766Y268236D01*
X228617Y268357D01*
X228609Y268361D01*
X228602Y268367D01*
X228431Y268454D01*
X228261Y268544D01*
X228252Y268546D01*
X228244Y268550D01*
X228060Y268603D01*
X227874Y268657D01*
X227865Y268658D01*
X227857Y268660D01*
X227665Y268675D01*
X227473Y268692D01*
X227464Y268691D01*
X227455Y268691D01*
X227264Y268668D01*
X227073Y268646D01*
X227065Y268644D01*
X227056Y268643D01*
X226874Y268582D01*
X226690Y268523D01*
X226682Y268519D01*
X226673Y268516D01*
X226507Y268421D01*
X226338Y268327D01*
X226332Y268321D01*
X226324Y268316D01*
X226178Y268190D01*
X226033Y268065D01*
X226027Y268058D01*
X226020Y268052D01*
X225902Y267899D01*
X225784Y267748D01*
X225780Y267740D01*
X225775Y267733D01*
X225713Y267612D01*
X222968Y264867D01*
X219420Y263397D01*
X215580Y263397D01*
X212032Y264867D01*
X209279Y267620D01*
X209277Y267623D01*
X209186Y267793D01*
X209181Y267800D01*
X209176Y267808D01*
X209052Y267956D01*
X208930Y268103D01*
X208923Y268109D01*
X208917Y268116D01*
X208766Y268236D01*
X208617Y268357D01*
X208609Y268361D01*
X208602Y268367D01*
X208431Y268454D01*
X208261Y268544D01*
X208252Y268546D01*
X208244Y268550D01*
X208060Y268603D01*
X207874Y268657D01*
X207865Y268658D01*
X207857Y268660D01*
X207665Y268675D01*
X207473Y268692D01*
X207464Y268691D01*
X207455Y268691D01*
X207264Y268668D01*
X207073Y268646D01*
X207065Y268644D01*
X207056Y268643D01*
X206874Y268582D01*
X206690Y268523D01*
X206682Y268519D01*
X206673Y268516D01*
X206507Y268421D01*
X206338Y268327D01*
X206332Y268321D01*
X206324Y268316D01*
X206178Y268190D01*
X206033Y268065D01*
X206027Y268058D01*
X206020Y268052D01*
X205902Y267899D01*
X205784Y267748D01*
X205780Y267740D01*
X205775Y267733D01*
X205713Y267612D01*
X202968Y264867D01*
X199420Y263397D01*
X195580Y263397D01*
X192032Y264867D01*
X189279Y267620D01*
X189277Y267623D01*
X189186Y267793D01*
X189181Y267800D01*
X189176Y267808D01*
X189052Y267956D01*
X188930Y268103D01*
X188923Y268109D01*
X188917Y268116D01*
X188766Y268236D01*
X188617Y268357D01*
X188609Y268361D01*
X188602Y268367D01*
X188431Y268454D01*
X188261Y268544D01*
X188252Y268546D01*
X188244Y268550D01*
X188060Y268603D01*
X187874Y268657D01*
X187865Y268658D01*
X187857Y268660D01*
X187665Y268675D01*
X187473Y268692D01*
X187464Y268691D01*
X187455Y268691D01*
X187264Y268668D01*
X187073Y268646D01*
X187065Y268644D01*
X187056Y268643D01*
X186874Y268582D01*
X186690Y268523D01*
X186682Y268519D01*
X186673Y268516D01*
X186507Y268421D01*
X186338Y268327D01*
X186332Y268321D01*
X186324Y268316D01*
X186178Y268190D01*
X186033Y268065D01*
X186027Y268058D01*
X186020Y268052D01*
X185902Y267899D01*
X185784Y267748D01*
X185780Y267740D01*
X185775Y267733D01*
X185713Y267612D01*
X182968Y264867D01*
X179420Y263397D01*
X175580Y263397D01*
X172032Y264867D01*
X169317Y267582D01*
X167847Y271130D01*
X167847Y274970D01*
X169317Y278518D01*
X172032Y281233D01*
X175580Y282703D01*
X179420Y282703D01*
X182968Y281233D01*
X185721Y278480D01*
X185723Y278476D01*
X185813Y278308D01*
X185819Y278301D01*
X185824Y278293D01*
X185948Y278145D01*
X186070Y277997D01*
X186077Y277991D01*
X186083Y277984D01*
X186233Y277864D01*
X186382Y277743D01*
X186390Y277739D01*
X186397Y277734D01*
X186570Y277645D01*
X186739Y277556D01*
X186747Y277554D01*
X186756Y277550D01*
X186942Y277497D01*
X187125Y277443D01*
X187134Y277442D01*
X187143Y277440D01*
X187333Y277425D01*
X187526Y277408D01*
X187536Y277409D01*
X187544Y277409D01*
X187734Y277432D01*
X187926Y277454D01*
X187935Y277456D01*
X187944Y277457D01*
X188126Y277518D01*
X188310Y277577D01*
X188318Y277581D01*
X188326Y277584D01*
X188493Y277679D01*
X188661Y277773D01*
X188668Y277779D01*
X188676Y277783D01*
X188820Y277909D01*
X188967Y278035D01*
X188973Y278042D01*
X188980Y278048D01*
X189097Y278201D01*
X189215Y278352D01*
X189219Y278360D01*
X189225Y278367D01*
X189287Y278488D01*
X192032Y281233D01*
X195580Y282703D01*
X199420Y282703D01*
X202968Y281233D01*
X205721Y278480D01*
X205723Y278476D01*
X205813Y278308D01*
X205819Y278301D01*
X205824Y278293D01*
X205948Y278145D01*
X206070Y277997D01*
X206077Y277991D01*
X206083Y277984D01*
X206233Y277864D01*
X206382Y277743D01*
X206390Y277739D01*
X206397Y277734D01*
X206570Y277645D01*
X206739Y277556D01*
X206747Y277554D01*
X206756Y277550D01*
X206942Y277497D01*
X207125Y277443D01*
X207134Y277442D01*
X207143Y277440D01*
X207333Y277425D01*
X207526Y277408D01*
X207536Y277409D01*
X207544Y277409D01*
X207734Y277432D01*
X207926Y277454D01*
X207935Y277456D01*
X207944Y277457D01*
X208126Y277518D01*
X208310Y277577D01*
X208318Y277581D01*
X208326Y277584D01*
X208493Y277679D01*
X208661Y277773D01*
X208668Y277779D01*
X208676Y277783D01*
X208820Y277909D01*
X208967Y278035D01*
X208973Y278042D01*
X208980Y278048D01*
X209097Y278201D01*
X209215Y278352D01*
X209219Y278360D01*
X209225Y278367D01*
X209287Y278488D01*
X212032Y281233D01*
X215580Y282703D01*
X219420Y282703D01*
X222968Y281233D01*
X225721Y278480D01*
X225723Y278476D01*
X225813Y278308D01*
X225819Y278301D01*
X225824Y278293D01*
X225948Y278145D01*
X226070Y277997D01*
X226077Y277991D01*
X226083Y277984D01*
X226233Y277864D01*
X226382Y277743D01*
X226390Y277739D01*
X226397Y277734D01*
X226570Y277645D01*
X226739Y277556D01*
X226747Y277554D01*
X226756Y277550D01*
X226942Y277497D01*
X227125Y277443D01*
X227134Y277442D01*
X227143Y277440D01*
X227333Y277425D01*
X227526Y277408D01*
X227536Y277409D01*
X227544Y277409D01*
X227734Y277432D01*
X227926Y277454D01*
X227935Y277456D01*
X227944Y277457D01*
X228126Y277518D01*
X228310Y277577D01*
X228318Y277581D01*
X228326Y277584D01*
X228493Y277679D01*
X228661Y277773D01*
X228668Y277779D01*
X228676Y277783D01*
X228820Y277909D01*
X228967Y278035D01*
X228973Y278042D01*
X228980Y278048D01*
X229097Y278201D01*
X229215Y278352D01*
X229219Y278360D01*
X229225Y278367D01*
X229287Y278488D01*
X232032Y281233D01*
X235580Y282703D01*
X239420Y282703D01*
X242968Y281233D01*
X245721Y278480D01*
X245723Y278476D01*
X245813Y278308D01*
X245819Y278301D01*
X245824Y278293D01*
X245948Y278145D01*
X246070Y277997D01*
X246077Y277991D01*
X246083Y277984D01*
X246233Y277864D01*
X246382Y277743D01*
X246390Y277739D01*
X246397Y277734D01*
X246570Y277645D01*
X246739Y277556D01*
X246747Y277554D01*
X246756Y277550D01*
X246942Y277497D01*
X247125Y277443D01*
X247134Y277442D01*
X247143Y277440D01*
X247333Y277425D01*
X247526Y277408D01*
X247536Y277409D01*
X247544Y277409D01*
X247734Y277432D01*
X247926Y277454D01*
X247935Y277456D01*
X247944Y277457D01*
X248126Y277518D01*
X248310Y277577D01*
X248318Y277581D01*
X248326Y277584D01*
X248493Y277679D01*
X248661Y277773D01*
X248668Y277779D01*
X248676Y277783D01*
X248820Y277909D01*
X248967Y278035D01*
X248973Y278042D01*
X248980Y278048D01*
X249097Y278201D01*
X249215Y278352D01*
X249219Y278360D01*
X249225Y278367D01*
X249287Y278488D01*
X252032Y281233D01*
X255580Y282703D01*
X259420Y282703D01*
X262968Y281233D01*
X265721Y278480D01*
X265723Y278476D01*
X265813Y278308D01*
X265819Y278301D01*
X265824Y278293D01*
X265948Y278145D01*
X266070Y277997D01*
X266077Y277991D01*
X266083Y277984D01*
X266233Y277864D01*
X266382Y277743D01*
X266390Y277739D01*
X266397Y277734D01*
X266570Y277645D01*
X266739Y277556D01*
X266747Y277554D01*
X266756Y277550D01*
X266942Y277497D01*
X267125Y277443D01*
X267134Y277442D01*
X267143Y277440D01*
X267333Y277425D01*
X267526Y277408D01*
X267536Y277409D01*
X267544Y277409D01*
X267734Y277432D01*
X267926Y277454D01*
X267935Y277456D01*
X267944Y277457D01*
X268126Y277518D01*
X268310Y277577D01*
X268318Y277581D01*
X268326Y277584D01*
X268493Y277679D01*
X268661Y277773D01*
X268668Y277779D01*
X268676Y277783D01*
X268820Y277909D01*
X268967Y278035D01*
X268973Y278042D01*
X268980Y278048D01*
X269097Y278201D01*
X269215Y278352D01*
X269219Y278360D01*
X269225Y278367D01*
X269287Y278488D01*
X272032Y281233D01*
X275580Y282703D01*
X279420Y282703D01*
X282968Y281233D01*
X285872Y278329D01*
X286009Y278216D01*
X286144Y278101D01*
X286165Y278089D01*
X286184Y278074D01*
X286340Y277991D01*
X286495Y277904D01*
X286518Y277896D01*
X286540Y277885D01*
X286709Y277834D01*
X286878Y277780D01*
X286902Y277777D01*
X286925Y277770D01*
X287102Y277754D01*
X287278Y277734D01*
X287302Y277736D01*
X287326Y277734D01*
X287502Y277753D01*
X287679Y277768D01*
X287702Y277775D01*
X287727Y277777D01*
X287895Y277831D01*
X288066Y277880D01*
X288087Y277891D01*
X288111Y277899D01*
X288265Y277984D01*
X288423Y278066D01*
X288442Y278082D01*
X288463Y278094D01*
X288598Y278208D01*
X288736Y278319D01*
X288753Y278340D01*
X288770Y278354D01*
X288821Y278418D01*
X288952Y278571D01*
X289750Y279669D01*
X290881Y280800D01*
X292175Y281740D01*
X293600Y282466D01*
X294961Y282909D01*
X294961Y273558D01*
X294962Y273540D01*
X294961Y273523D01*
X294982Y273340D01*
X295001Y273158D01*
X295006Y273141D01*
X295008Y273123D01*
X295033Y273045D01*
X294994Y272908D01*
X294992Y272890D01*
X294988Y272873D01*
X294961Y272542D01*
X294961Y263191D01*
X293600Y263634D01*
G37*
%LPD*%
%LPC*%
G36*
X413600Y263634D02*
X413600Y263634D01*
X412175Y264360D01*
X410881Y265300D01*
X409750Y266431D01*
X408952Y267529D01*
X408834Y267661D01*
X408720Y267796D01*
X408701Y267811D01*
X408684Y267830D01*
X408542Y267936D01*
X408404Y268046D01*
X408382Y268057D01*
X408362Y268072D01*
X408203Y268148D01*
X408045Y268228D01*
X408021Y268235D01*
X407999Y268245D01*
X407828Y268289D01*
X407657Y268336D01*
X407632Y268338D01*
X407609Y268344D01*
X407433Y268353D01*
X407255Y268366D01*
X407231Y268363D01*
X407207Y268364D01*
X407032Y268337D01*
X406856Y268315D01*
X406833Y268307D01*
X406809Y268304D01*
X406642Y268243D01*
X406474Y268187D01*
X406453Y268175D01*
X406430Y268166D01*
X406279Y268074D01*
X406125Y267986D01*
X406105Y267968D01*
X406086Y267957D01*
X406026Y267902D01*
X405872Y267771D01*
X402968Y264867D01*
X399420Y263397D01*
X395580Y263397D01*
X392032Y264867D01*
X389279Y267620D01*
X389277Y267623D01*
X389186Y267793D01*
X389181Y267800D01*
X389176Y267808D01*
X389052Y267956D01*
X388930Y268103D01*
X388923Y268109D01*
X388917Y268116D01*
X388766Y268236D01*
X388617Y268357D01*
X388609Y268361D01*
X388602Y268367D01*
X388431Y268454D01*
X388261Y268544D01*
X388252Y268546D01*
X388244Y268550D01*
X388060Y268603D01*
X387874Y268657D01*
X387865Y268658D01*
X387857Y268660D01*
X387665Y268675D01*
X387473Y268692D01*
X387464Y268691D01*
X387455Y268691D01*
X387264Y268668D01*
X387073Y268646D01*
X387065Y268644D01*
X387056Y268643D01*
X386874Y268582D01*
X386690Y268523D01*
X386682Y268519D01*
X386673Y268516D01*
X386507Y268421D01*
X386338Y268327D01*
X386332Y268321D01*
X386324Y268316D01*
X386178Y268190D01*
X386033Y268065D01*
X386027Y268058D01*
X386020Y268052D01*
X385902Y267899D01*
X385784Y267748D01*
X385780Y267740D01*
X385775Y267733D01*
X385713Y267612D01*
X382968Y264867D01*
X379420Y263397D01*
X375580Y263397D01*
X372032Y264867D01*
X369279Y267620D01*
X369277Y267623D01*
X369186Y267793D01*
X369181Y267800D01*
X369176Y267808D01*
X369052Y267956D01*
X368930Y268103D01*
X368923Y268109D01*
X368917Y268116D01*
X368766Y268236D01*
X368617Y268357D01*
X368609Y268361D01*
X368602Y268367D01*
X368431Y268454D01*
X368261Y268544D01*
X368252Y268546D01*
X368244Y268550D01*
X368060Y268603D01*
X367874Y268657D01*
X367865Y268658D01*
X367857Y268660D01*
X367665Y268675D01*
X367473Y268692D01*
X367464Y268691D01*
X367455Y268691D01*
X367264Y268668D01*
X367073Y268646D01*
X367065Y268644D01*
X367056Y268643D01*
X366874Y268582D01*
X366690Y268523D01*
X366682Y268519D01*
X366673Y268516D01*
X366507Y268421D01*
X366338Y268327D01*
X366332Y268321D01*
X366324Y268316D01*
X366178Y268190D01*
X366033Y268065D01*
X366027Y268058D01*
X366020Y268052D01*
X365902Y267899D01*
X365784Y267748D01*
X365780Y267740D01*
X365775Y267733D01*
X365713Y267612D01*
X362968Y264867D01*
X359420Y263397D01*
X355580Y263397D01*
X352032Y264867D01*
X349279Y267620D01*
X349277Y267623D01*
X349186Y267793D01*
X349181Y267800D01*
X349176Y267808D01*
X349052Y267956D01*
X348930Y268103D01*
X348923Y268109D01*
X348917Y268116D01*
X348766Y268236D01*
X348617Y268357D01*
X348609Y268361D01*
X348602Y268367D01*
X348431Y268454D01*
X348261Y268544D01*
X348252Y268546D01*
X348244Y268550D01*
X348060Y268603D01*
X347874Y268657D01*
X347865Y268658D01*
X347857Y268660D01*
X347665Y268675D01*
X347473Y268692D01*
X347464Y268691D01*
X347455Y268691D01*
X347264Y268668D01*
X347073Y268646D01*
X347065Y268644D01*
X347056Y268643D01*
X346874Y268582D01*
X346690Y268523D01*
X346682Y268519D01*
X346673Y268516D01*
X346507Y268421D01*
X346338Y268327D01*
X346332Y268321D01*
X346324Y268316D01*
X346178Y268190D01*
X346033Y268065D01*
X346027Y268058D01*
X346020Y268052D01*
X345902Y267899D01*
X345784Y267748D01*
X345780Y267740D01*
X345775Y267733D01*
X345713Y267612D01*
X342968Y264867D01*
X339420Y263397D01*
X335580Y263397D01*
X332032Y264867D01*
X329279Y267620D01*
X329277Y267623D01*
X329186Y267793D01*
X329181Y267800D01*
X329176Y267808D01*
X329052Y267956D01*
X328930Y268103D01*
X328923Y268109D01*
X328917Y268116D01*
X328766Y268236D01*
X328617Y268357D01*
X328609Y268361D01*
X328602Y268367D01*
X328431Y268454D01*
X328261Y268544D01*
X328252Y268546D01*
X328244Y268550D01*
X328060Y268603D01*
X327874Y268657D01*
X327865Y268658D01*
X327857Y268660D01*
X327665Y268675D01*
X327473Y268692D01*
X327464Y268691D01*
X327455Y268691D01*
X327264Y268668D01*
X327073Y268646D01*
X327065Y268644D01*
X327056Y268643D01*
X326874Y268582D01*
X326690Y268523D01*
X326682Y268519D01*
X326673Y268516D01*
X326507Y268421D01*
X326338Y268327D01*
X326332Y268321D01*
X326324Y268316D01*
X326178Y268190D01*
X326033Y268065D01*
X326027Y268058D01*
X326020Y268052D01*
X325902Y267899D01*
X325784Y267748D01*
X325780Y267740D01*
X325775Y267733D01*
X325713Y267612D01*
X322968Y264867D01*
X319420Y263397D01*
X315580Y263397D01*
X312032Y264867D01*
X309128Y267771D01*
X308991Y267884D01*
X308856Y267999D01*
X308835Y268011D01*
X308816Y268026D01*
X308660Y268109D01*
X308505Y268196D01*
X308482Y268204D01*
X308460Y268215D01*
X308291Y268266D01*
X308122Y268320D01*
X308098Y268323D01*
X308075Y268330D01*
X307898Y268346D01*
X307722Y268366D01*
X307698Y268364D01*
X307674Y268366D01*
X307498Y268347D01*
X307321Y268332D01*
X307298Y268325D01*
X307273Y268323D01*
X307105Y268269D01*
X306934Y268220D01*
X306913Y268209D01*
X306889Y268201D01*
X306735Y268116D01*
X306577Y268034D01*
X306558Y268018D01*
X306537Y268006D01*
X306402Y267892D01*
X306264Y267781D01*
X306247Y267760D01*
X306230Y267746D01*
X306179Y267682D01*
X306048Y267529D01*
X305250Y266431D01*
X304119Y265300D01*
X302825Y264360D01*
X301400Y263634D01*
X300039Y263191D01*
X300039Y272542D01*
X300037Y272560D01*
X300039Y272577D01*
X300018Y272760D01*
X299999Y272942D01*
X299994Y272959D01*
X299992Y272977D01*
X299967Y273055D01*
X300006Y273192D01*
X300008Y273210D01*
X300012Y273227D01*
X300039Y273558D01*
X300039Y282909D01*
X301400Y282466D01*
X302825Y281740D01*
X304119Y280800D01*
X305250Y279669D01*
X306048Y278571D01*
X306166Y278439D01*
X306280Y278304D01*
X306299Y278289D01*
X306316Y278270D01*
X306458Y278164D01*
X306596Y278054D01*
X306618Y278043D01*
X306638Y278028D01*
X306797Y277952D01*
X306955Y277872D01*
X306979Y277865D01*
X307001Y277855D01*
X307172Y277811D01*
X307343Y277764D01*
X307368Y277762D01*
X307391Y277756D01*
X307567Y277747D01*
X307745Y277734D01*
X307769Y277737D01*
X307793Y277736D01*
X307968Y277763D01*
X308144Y277785D01*
X308167Y277793D01*
X308191Y277796D01*
X308358Y277857D01*
X308526Y277913D01*
X308547Y277925D01*
X308570Y277934D01*
X308721Y278026D01*
X308875Y278114D01*
X308895Y278132D01*
X308914Y278143D01*
X308974Y278198D01*
X309128Y278329D01*
X312032Y281233D01*
X315580Y282703D01*
X319420Y282703D01*
X322968Y281233D01*
X325721Y278480D01*
X325723Y278476D01*
X325813Y278308D01*
X325819Y278301D01*
X325824Y278293D01*
X325948Y278145D01*
X326070Y277997D01*
X326077Y277991D01*
X326083Y277984D01*
X326233Y277864D01*
X326382Y277743D01*
X326390Y277739D01*
X326397Y277734D01*
X326570Y277645D01*
X326739Y277556D01*
X326747Y277554D01*
X326756Y277550D01*
X326942Y277497D01*
X327125Y277443D01*
X327134Y277442D01*
X327143Y277440D01*
X327333Y277425D01*
X327526Y277408D01*
X327536Y277409D01*
X327544Y277409D01*
X327734Y277432D01*
X327926Y277454D01*
X327935Y277456D01*
X327944Y277457D01*
X328126Y277518D01*
X328310Y277577D01*
X328318Y277581D01*
X328326Y277584D01*
X328493Y277679D01*
X328661Y277773D01*
X328668Y277779D01*
X328676Y277783D01*
X328820Y277909D01*
X328967Y278035D01*
X328973Y278042D01*
X328980Y278048D01*
X329097Y278201D01*
X329215Y278352D01*
X329219Y278360D01*
X329225Y278367D01*
X329287Y278488D01*
X332032Y281233D01*
X335580Y282703D01*
X339420Y282703D01*
X342968Y281233D01*
X345721Y278480D01*
X345723Y278476D01*
X345813Y278308D01*
X345819Y278301D01*
X345824Y278293D01*
X345948Y278145D01*
X346070Y277997D01*
X346077Y277991D01*
X346083Y277984D01*
X346233Y277864D01*
X346382Y277743D01*
X346390Y277739D01*
X346397Y277734D01*
X346570Y277645D01*
X346739Y277556D01*
X346747Y277554D01*
X346756Y277550D01*
X346942Y277497D01*
X347125Y277443D01*
X347134Y277442D01*
X347143Y277440D01*
X347333Y277425D01*
X347526Y277408D01*
X347536Y277409D01*
X347544Y277409D01*
X347734Y277432D01*
X347926Y277454D01*
X347935Y277456D01*
X347944Y277457D01*
X348126Y277518D01*
X348310Y277577D01*
X348318Y277581D01*
X348326Y277584D01*
X348493Y277679D01*
X348661Y277773D01*
X348668Y277779D01*
X348676Y277783D01*
X348820Y277909D01*
X348967Y278035D01*
X348973Y278042D01*
X348980Y278048D01*
X349097Y278201D01*
X349215Y278352D01*
X349219Y278360D01*
X349225Y278367D01*
X349287Y278488D01*
X352032Y281233D01*
X355580Y282703D01*
X359420Y282703D01*
X362968Y281233D01*
X365721Y278480D01*
X365723Y278476D01*
X365813Y278308D01*
X365819Y278301D01*
X365824Y278293D01*
X365948Y278145D01*
X366070Y277997D01*
X366077Y277991D01*
X366083Y277984D01*
X366233Y277864D01*
X366382Y277743D01*
X366390Y277739D01*
X366397Y277734D01*
X366570Y277645D01*
X366739Y277556D01*
X366747Y277554D01*
X366756Y277550D01*
X366942Y277497D01*
X367125Y277443D01*
X367134Y277442D01*
X367143Y277440D01*
X367333Y277425D01*
X367526Y277408D01*
X367536Y277409D01*
X367544Y277409D01*
X367734Y277432D01*
X367926Y277454D01*
X367935Y277456D01*
X367944Y277457D01*
X368126Y277518D01*
X368310Y277577D01*
X368318Y277581D01*
X368326Y277584D01*
X368493Y277679D01*
X368661Y277773D01*
X368668Y277779D01*
X368676Y277783D01*
X368820Y277909D01*
X368967Y278035D01*
X368973Y278042D01*
X368980Y278048D01*
X369097Y278201D01*
X369215Y278352D01*
X369219Y278360D01*
X369225Y278367D01*
X369287Y278488D01*
X372032Y281233D01*
X375580Y282703D01*
X379420Y282703D01*
X382968Y281233D01*
X385721Y278480D01*
X385723Y278476D01*
X385813Y278308D01*
X385819Y278301D01*
X385824Y278293D01*
X385948Y278145D01*
X386070Y277997D01*
X386077Y277991D01*
X386083Y277984D01*
X386233Y277864D01*
X386382Y277743D01*
X386390Y277739D01*
X386397Y277734D01*
X386570Y277645D01*
X386739Y277556D01*
X386747Y277554D01*
X386756Y277550D01*
X386942Y277497D01*
X387125Y277443D01*
X387134Y277442D01*
X387143Y277440D01*
X387333Y277425D01*
X387526Y277408D01*
X387536Y277409D01*
X387544Y277409D01*
X387734Y277432D01*
X387926Y277454D01*
X387935Y277456D01*
X387944Y277457D01*
X388126Y277518D01*
X388310Y277577D01*
X388318Y277581D01*
X388326Y277584D01*
X388493Y277679D01*
X388661Y277773D01*
X388668Y277779D01*
X388676Y277783D01*
X388820Y277909D01*
X388967Y278035D01*
X388973Y278042D01*
X388980Y278048D01*
X389097Y278201D01*
X389215Y278352D01*
X389219Y278360D01*
X389225Y278367D01*
X389287Y278488D01*
X392032Y281233D01*
X395580Y282703D01*
X399420Y282703D01*
X402968Y281233D01*
X405872Y278329D01*
X406009Y278216D01*
X406144Y278101D01*
X406165Y278089D01*
X406184Y278074D01*
X406340Y277991D01*
X406495Y277904D01*
X406518Y277896D01*
X406540Y277885D01*
X406709Y277834D01*
X406878Y277780D01*
X406902Y277777D01*
X406925Y277770D01*
X407102Y277754D01*
X407278Y277734D01*
X407302Y277736D01*
X407326Y277734D01*
X407502Y277753D01*
X407679Y277768D01*
X407702Y277775D01*
X407727Y277777D01*
X407895Y277831D01*
X408066Y277880D01*
X408087Y277891D01*
X408111Y277899D01*
X408265Y277984D01*
X408423Y278066D01*
X408442Y278082D01*
X408463Y278094D01*
X408598Y278208D01*
X408736Y278319D01*
X408753Y278340D01*
X408770Y278354D01*
X408821Y278418D01*
X408952Y278571D01*
X409750Y279669D01*
X410881Y280800D01*
X412175Y281740D01*
X413600Y282466D01*
X414961Y282909D01*
X414961Y273558D01*
X414962Y273540D01*
X414961Y273523D01*
X414982Y273340D01*
X415001Y273158D01*
X415006Y273141D01*
X415008Y273123D01*
X415033Y273045D01*
X414994Y272908D01*
X414992Y272890D01*
X414988Y272873D01*
X414961Y272542D01*
X414961Y263191D01*
X413600Y263634D01*
G37*
%LPD*%
%LPC*%
G36*
X420039Y272542D02*
X420039Y272542D01*
X420037Y272560D01*
X420039Y272577D01*
X420018Y272760D01*
X419999Y272942D01*
X419994Y272959D01*
X419992Y272977D01*
X419967Y273055D01*
X420006Y273192D01*
X420008Y273210D01*
X420012Y273227D01*
X420039Y273558D01*
X420039Y282909D01*
X421400Y282466D01*
X422825Y281740D01*
X424119Y280800D01*
X425250Y279669D01*
X426048Y278571D01*
X426166Y278439D01*
X426280Y278304D01*
X426299Y278289D01*
X426316Y278270D01*
X426458Y278164D01*
X426596Y278054D01*
X426618Y278043D01*
X426638Y278028D01*
X426797Y277952D01*
X426955Y277872D01*
X426979Y277865D01*
X427001Y277855D01*
X427172Y277811D01*
X427343Y277764D01*
X427368Y277762D01*
X427391Y277756D01*
X427567Y277747D01*
X427745Y277734D01*
X427769Y277737D01*
X427793Y277736D01*
X427968Y277763D01*
X428144Y277785D01*
X428167Y277793D01*
X428191Y277796D01*
X428358Y277857D01*
X428526Y277913D01*
X428547Y277925D01*
X428570Y277934D01*
X428721Y278026D01*
X428875Y278114D01*
X428895Y278132D01*
X428914Y278143D01*
X428974Y278198D01*
X429128Y278329D01*
X432032Y281233D01*
X435580Y282703D01*
X439420Y282703D01*
X442968Y281233D01*
X445721Y278480D01*
X445723Y278476D01*
X445813Y278308D01*
X445819Y278301D01*
X445823Y278293D01*
X445948Y278145D01*
X446070Y277997D01*
X446077Y277991D01*
X446083Y277985D01*
X446234Y277864D01*
X446382Y277743D01*
X446390Y277739D01*
X446397Y277734D01*
X446568Y277646D01*
X446739Y277556D01*
X446748Y277554D01*
X446756Y277550D01*
X446939Y277498D01*
X447125Y277443D01*
X447134Y277442D01*
X447143Y277440D01*
X447335Y277425D01*
X447526Y277409D01*
X447535Y277410D01*
X447544Y277409D01*
X447735Y277432D01*
X447927Y277454D01*
X447935Y277456D01*
X447944Y277457D01*
X448126Y277518D01*
X448310Y277577D01*
X448318Y277581D01*
X448326Y277584D01*
X448493Y277679D01*
X448661Y277773D01*
X448668Y277779D01*
X448676Y277783D01*
X448821Y277909D01*
X448967Y278035D01*
X448973Y278042D01*
X448980Y278048D01*
X449096Y278200D01*
X449215Y278352D01*
X449220Y278360D01*
X449225Y278367D01*
X449287Y278488D01*
X452032Y281233D01*
X455580Y282703D01*
X459420Y282703D01*
X462968Y281233D01*
X465683Y278518D01*
X467153Y274970D01*
X467153Y271130D01*
X465683Y267582D01*
X462968Y264867D01*
X459420Y263397D01*
X455580Y263397D01*
X452032Y264867D01*
X449279Y267620D01*
X449278Y267623D01*
X449186Y267793D01*
X449181Y267800D01*
X449176Y267807D01*
X449053Y267954D01*
X448930Y268103D01*
X448923Y268109D01*
X448917Y268116D01*
X448767Y268235D01*
X448617Y268357D01*
X448609Y268361D01*
X448602Y268367D01*
X448431Y268454D01*
X448261Y268544D01*
X448252Y268546D01*
X448244Y268550D01*
X448059Y268603D01*
X447874Y268657D01*
X447865Y268658D01*
X447857Y268660D01*
X447665Y268675D01*
X447473Y268691D01*
X447464Y268690D01*
X447455Y268691D01*
X447265Y268668D01*
X447073Y268646D01*
X447065Y268644D01*
X447056Y268642D01*
X446875Y268583D01*
X446690Y268523D01*
X446682Y268519D01*
X446674Y268516D01*
X446507Y268421D01*
X446338Y268327D01*
X446332Y268321D01*
X446324Y268316D01*
X446179Y268190D01*
X446033Y268065D01*
X446027Y268058D01*
X446020Y268052D01*
X445903Y267900D01*
X445784Y267748D01*
X445780Y267740D01*
X445775Y267733D01*
X445713Y267612D01*
X442968Y264867D01*
X439420Y263397D01*
X435580Y263397D01*
X432032Y264867D01*
X429128Y267771D01*
X428991Y267884D01*
X428856Y267999D01*
X428835Y268011D01*
X428816Y268026D01*
X428660Y268109D01*
X428505Y268196D01*
X428482Y268204D01*
X428460Y268215D01*
X428291Y268266D01*
X428122Y268320D01*
X428098Y268323D01*
X428075Y268330D01*
X427898Y268346D01*
X427722Y268366D01*
X427698Y268364D01*
X427674Y268366D01*
X427498Y268347D01*
X427321Y268332D01*
X427298Y268325D01*
X427273Y268323D01*
X427105Y268269D01*
X426934Y268220D01*
X426913Y268209D01*
X426889Y268201D01*
X426735Y268116D01*
X426577Y268034D01*
X426558Y268018D01*
X426537Y268006D01*
X426402Y267892D01*
X426264Y267781D01*
X426247Y267760D01*
X426230Y267746D01*
X426179Y267682D01*
X426048Y267529D01*
X425250Y266431D01*
X424119Y265300D01*
X422825Y264360D01*
X421400Y263634D01*
X420039Y263191D01*
X420039Y272542D01*
G37*
%LPD*%
%LPC*%
G36*
X100589Y147319D02*
X100589Y147319D01*
X98722Y148093D01*
X97293Y149522D01*
X96519Y151389D01*
X96519Y153411D01*
X97293Y155278D01*
X98722Y156707D01*
X99609Y157074D01*
X99609Y157075D01*
X100598Y157484D01*
X100610Y157491D01*
X100623Y157495D01*
X100787Y157586D01*
X100953Y157675D01*
X100964Y157683D01*
X100975Y157690D01*
X101118Y157811D01*
X101264Y157931D01*
X101272Y157941D01*
X101282Y157950D01*
X101399Y158098D01*
X101517Y158244D01*
X101524Y158256D01*
X101532Y158266D01*
X101617Y158434D01*
X101704Y158600D01*
X101708Y158613D01*
X101714Y158625D01*
X101765Y158807D01*
X101817Y158987D01*
X101819Y159000D01*
X101822Y159013D01*
X101836Y159201D01*
X101852Y159388D01*
X101851Y159401D01*
X101852Y159414D01*
X101828Y159601D01*
X101807Y159788D01*
X101803Y159801D01*
X101801Y159814D01*
X101742Y159991D01*
X101684Y160171D01*
X101677Y160183D01*
X101673Y160196D01*
X101579Y160359D01*
X101487Y160523D01*
X101479Y160533D01*
X101472Y160544D01*
X101257Y160797D01*
X99833Y162222D01*
X99059Y164089D01*
X99059Y166111D01*
X99833Y167978D01*
X101262Y169407D01*
X103129Y170181D01*
X105151Y170181D01*
X107018Y169407D01*
X108447Y167978D01*
X109221Y166111D01*
X109221Y164089D01*
X108447Y162222D01*
X107018Y160793D01*
X105142Y160016D01*
X105130Y160009D01*
X105117Y160005D01*
X104953Y159914D01*
X104787Y159825D01*
X104776Y159817D01*
X104765Y159810D01*
X104621Y159688D01*
X104476Y159569D01*
X104468Y159559D01*
X104458Y159550D01*
X104341Y159402D01*
X104223Y159256D01*
X104216Y159244D01*
X104208Y159234D01*
X104123Y159067D01*
X104036Y158900D01*
X104032Y158887D01*
X104026Y158875D01*
X103975Y158694D01*
X103922Y158513D01*
X103921Y158500D01*
X103918Y158487D01*
X103904Y158299D01*
X103888Y158112D01*
X103889Y158099D01*
X103888Y158086D01*
X103912Y157898D01*
X103933Y157712D01*
X103937Y157699D01*
X103939Y157686D01*
X103999Y157508D01*
X104056Y157329D01*
X104063Y157317D01*
X104067Y157304D01*
X104160Y157142D01*
X104253Y156977D01*
X104261Y156967D01*
X104268Y156956D01*
X104483Y156703D01*
X105907Y155278D01*
X106073Y154877D01*
X106078Y154869D01*
X106080Y154860D01*
X106172Y154692D01*
X106264Y154522D01*
X106269Y154515D01*
X106274Y154507D01*
X106397Y154360D01*
X106520Y154212D01*
X106527Y154206D01*
X106533Y154199D01*
X106684Y154079D01*
X106833Y153958D01*
X106841Y153954D01*
X106848Y153948D01*
X107020Y153860D01*
X107189Y153771D01*
X107198Y153768D01*
X107206Y153764D01*
X107391Y153712D01*
X107576Y153658D01*
X107584Y153657D01*
X107593Y153655D01*
X107785Y153640D01*
X107977Y153623D01*
X107986Y153624D01*
X107995Y153623D01*
X108187Y153647D01*
X108377Y153668D01*
X108385Y153671D01*
X108394Y153672D01*
X108577Y153733D01*
X108760Y153791D01*
X108768Y153796D01*
X108776Y153799D01*
X108943Y153894D01*
X109112Y153988D01*
X109118Y153994D01*
X109126Y153998D01*
X109271Y154124D01*
X109417Y154250D01*
X109423Y154257D01*
X109430Y154263D01*
X109547Y154415D01*
X109666Y154567D01*
X109670Y154575D01*
X109675Y154582D01*
X109827Y154877D01*
X109993Y155278D01*
X111422Y156707D01*
X113289Y157481D01*
X115311Y157481D01*
X117178Y156707D01*
X118607Y155278D01*
X118773Y154877D01*
X118778Y154869D01*
X118780Y154860D01*
X118872Y154692D01*
X118964Y154522D01*
X118969Y154515D01*
X118974Y154507D01*
X119097Y154360D01*
X119220Y154212D01*
X119227Y154206D01*
X119233Y154199D01*
X119384Y154079D01*
X119533Y153958D01*
X119541Y153954D01*
X119548Y153948D01*
X119720Y153860D01*
X119889Y153771D01*
X119898Y153768D01*
X119906Y153764D01*
X120091Y153712D01*
X120276Y153658D01*
X120284Y153657D01*
X120293Y153655D01*
X120485Y153640D01*
X120677Y153623D01*
X120686Y153624D01*
X120695Y153623D01*
X120887Y153647D01*
X121077Y153668D01*
X121085Y153671D01*
X121094Y153672D01*
X121277Y153733D01*
X121460Y153791D01*
X121468Y153796D01*
X121476Y153799D01*
X121643Y153894D01*
X121812Y153988D01*
X121818Y153994D01*
X121826Y153998D01*
X121971Y154124D01*
X122117Y154250D01*
X122123Y154257D01*
X122130Y154263D01*
X122247Y154415D01*
X122366Y154567D01*
X122370Y154575D01*
X122375Y154582D01*
X122527Y154877D01*
X122693Y155278D01*
X124122Y156707D01*
X125989Y157481D01*
X128011Y157481D01*
X129878Y156707D01*
X130405Y156181D01*
X130415Y156172D01*
X130424Y156162D01*
X130570Y156045D01*
X130716Y155926D01*
X130728Y155919D01*
X130738Y155911D01*
X130906Y155825D01*
X131072Y155737D01*
X131085Y155733D01*
X131097Y155727D01*
X131278Y155676D01*
X131458Y155622D01*
X131471Y155621D01*
X131484Y155617D01*
X131671Y155603D01*
X131859Y155586D01*
X131872Y155587D01*
X131885Y155586D01*
X132070Y155609D01*
X132259Y155629D01*
X132272Y155633D01*
X132285Y155635D01*
X132463Y155694D01*
X132643Y155751D01*
X132654Y155757D01*
X132667Y155761D01*
X132830Y155854D01*
X132995Y155945D01*
X133005Y155954D01*
X133017Y155961D01*
X133159Y156085D01*
X133302Y156206D01*
X133310Y156216D01*
X133321Y156225D01*
X133436Y156375D01*
X133552Y156522D01*
X133558Y156534D01*
X133566Y156545D01*
X133718Y156840D01*
X134123Y157818D01*
X135552Y159247D01*
X137419Y160021D01*
X139441Y160021D01*
X141308Y159247D01*
X142737Y157818D01*
X143511Y155951D01*
X143511Y153929D01*
X142737Y152062D01*
X141308Y150633D01*
X139441Y149859D01*
X137419Y149859D01*
X135552Y150633D01*
X135025Y151159D01*
X135015Y151168D01*
X135006Y151178D01*
X134860Y151295D01*
X134714Y151414D01*
X134702Y151421D01*
X134692Y151429D01*
X134524Y151515D01*
X134358Y151603D01*
X134345Y151607D01*
X134333Y151613D01*
X134152Y151664D01*
X133972Y151718D01*
X133959Y151719D01*
X133946Y151723D01*
X133759Y151737D01*
X133571Y151754D01*
X133558Y151753D01*
X133545Y151754D01*
X133360Y151731D01*
X133171Y151711D01*
X133158Y151707D01*
X133145Y151705D01*
X132967Y151646D01*
X132787Y151589D01*
X132776Y151583D01*
X132763Y151579D01*
X132600Y151486D01*
X132435Y151395D01*
X132425Y151386D01*
X132413Y151379D01*
X132271Y151255D01*
X132128Y151134D01*
X132120Y151124D01*
X132109Y151115D01*
X131994Y150965D01*
X131878Y150818D01*
X131872Y150806D01*
X131864Y150795D01*
X131712Y150500D01*
X131307Y149522D01*
X129878Y148093D01*
X128011Y147319D01*
X125989Y147319D01*
X124122Y148093D01*
X122693Y149522D01*
X122527Y149923D01*
X122522Y149931D01*
X122520Y149939D01*
X122428Y150107D01*
X122337Y150278D01*
X122331Y150285D01*
X122326Y150293D01*
X122203Y150439D01*
X122080Y150588D01*
X122073Y150594D01*
X122067Y150601D01*
X121917Y150720D01*
X121767Y150842D01*
X121759Y150846D01*
X121753Y150852D01*
X121584Y150938D01*
X121411Y151029D01*
X121402Y151032D01*
X121394Y151036D01*
X121211Y151088D01*
X121025Y151142D01*
X121016Y151143D01*
X121007Y151145D01*
X120815Y151160D01*
X120623Y151177D01*
X120615Y151176D01*
X120606Y151177D01*
X120415Y151153D01*
X120223Y151132D01*
X120215Y151129D01*
X120206Y151128D01*
X120024Y151068D01*
X119840Y151009D01*
X119832Y151004D01*
X119824Y151001D01*
X119657Y150906D01*
X119489Y150812D01*
X119482Y150806D01*
X119474Y150802D01*
X119328Y150675D01*
X119183Y150550D01*
X119177Y150543D01*
X119170Y150537D01*
X119053Y150385D01*
X118934Y150233D01*
X118930Y150225D01*
X118925Y150218D01*
X118773Y149923D01*
X118607Y149522D01*
X117178Y148093D01*
X115311Y147319D01*
X113289Y147319D01*
X111422Y148093D01*
X109993Y149522D01*
X109827Y149923D01*
X109822Y149931D01*
X109820Y149939D01*
X109728Y150107D01*
X109637Y150278D01*
X109631Y150285D01*
X109626Y150293D01*
X109503Y150439D01*
X109380Y150588D01*
X109373Y150594D01*
X109367Y150601D01*
X109217Y150720D01*
X109067Y150842D01*
X109059Y150846D01*
X109053Y150852D01*
X108884Y150938D01*
X108711Y151029D01*
X108702Y151032D01*
X108694Y151036D01*
X108511Y151088D01*
X108325Y151142D01*
X108316Y151143D01*
X108307Y151145D01*
X108115Y151160D01*
X107923Y151177D01*
X107915Y151176D01*
X107906Y151177D01*
X107715Y151153D01*
X107523Y151132D01*
X107515Y151129D01*
X107506Y151128D01*
X107324Y151068D01*
X107140Y151009D01*
X107132Y151004D01*
X107124Y151001D01*
X106957Y150906D01*
X106789Y150812D01*
X106782Y150806D01*
X106774Y150802D01*
X106628Y150675D01*
X106483Y150550D01*
X106477Y150543D01*
X106470Y150537D01*
X106353Y150385D01*
X106234Y150233D01*
X106230Y150225D01*
X106225Y150218D01*
X106073Y149923D01*
X105907Y149522D01*
X104478Y148093D01*
X102611Y147319D01*
X100589Y147319D01*
G37*
%LPD*%
%LPC*%
G36*
X563230Y26397D02*
X563230Y26397D01*
X559682Y27867D01*
X556967Y30582D01*
X555497Y34130D01*
X555497Y37970D01*
X556967Y41518D01*
X559871Y44422D01*
X559984Y44559D01*
X560099Y44694D01*
X560111Y44715D01*
X560126Y44734D01*
X560209Y44890D01*
X560296Y45045D01*
X560304Y45068D01*
X560315Y45090D01*
X560365Y45259D01*
X560420Y45428D01*
X560423Y45452D01*
X560430Y45475D01*
X560446Y45652D01*
X560466Y45828D01*
X560464Y45852D01*
X560466Y45876D01*
X560447Y46052D01*
X560432Y46229D01*
X560425Y46252D01*
X560423Y46277D01*
X560369Y46445D01*
X560320Y46616D01*
X560309Y46637D01*
X560301Y46661D01*
X560216Y46815D01*
X560134Y46973D01*
X560118Y46992D01*
X560106Y47013D01*
X559992Y47148D01*
X559881Y47286D01*
X559860Y47303D01*
X559846Y47320D01*
X559782Y47371D01*
X559629Y47502D01*
X558531Y48300D01*
X557400Y49431D01*
X556460Y50725D01*
X555734Y52150D01*
X555291Y53511D01*
X564642Y53511D01*
X564660Y53512D01*
X564677Y53511D01*
X564860Y53532D01*
X565042Y53551D01*
X565059Y53556D01*
X565077Y53558D01*
X565155Y53583D01*
X565292Y53544D01*
X565310Y53542D01*
X565327Y53538D01*
X565658Y53511D01*
X575009Y53511D01*
X574566Y52150D01*
X573840Y50725D01*
X572900Y49431D01*
X571769Y48300D01*
X570671Y47502D01*
X570539Y47384D01*
X570404Y47270D01*
X570389Y47251D01*
X570370Y47234D01*
X570264Y47092D01*
X570154Y46954D01*
X570143Y46932D01*
X570128Y46912D01*
X570052Y46753D01*
X569972Y46595D01*
X569965Y46571D01*
X569955Y46549D01*
X569911Y46378D01*
X569864Y46207D01*
X569862Y46182D01*
X569856Y46159D01*
X569847Y45983D01*
X569834Y45805D01*
X569837Y45781D01*
X569836Y45757D01*
X569863Y45582D01*
X569885Y45406D01*
X569893Y45383D01*
X569896Y45359D01*
X569957Y45192D01*
X570013Y45024D01*
X570025Y45003D01*
X570034Y44980D01*
X570126Y44829D01*
X570214Y44675D01*
X570232Y44655D01*
X570243Y44636D01*
X570298Y44576D01*
X570429Y44422D01*
X573333Y41518D01*
X574803Y37970D01*
X574803Y34130D01*
X573333Y30582D01*
X570618Y27867D01*
X567070Y26397D01*
X563230Y26397D01*
G37*
%LPD*%
%LPC*%
G36*
X204729Y69849D02*
X204729Y69849D01*
X202862Y70623D01*
X201433Y72052D01*
X200659Y73919D01*
X200659Y75941D01*
X201433Y77808D01*
X202683Y79058D01*
X202688Y79065D01*
X202695Y79070D01*
X202816Y79221D01*
X202938Y79369D01*
X202942Y79377D01*
X202947Y79384D01*
X203036Y79555D01*
X203126Y79725D01*
X203129Y79734D01*
X203133Y79742D01*
X203186Y79926D01*
X203241Y80111D01*
X203242Y80120D01*
X203244Y80128D01*
X203260Y80317D01*
X203278Y80512D01*
X203277Y80521D01*
X203277Y80530D01*
X203255Y80719D01*
X203234Y80912D01*
X203231Y80921D01*
X203230Y80930D01*
X203171Y81112D01*
X203113Y81296D01*
X203108Y81304D01*
X203106Y81312D01*
X203011Y81479D01*
X202918Y81648D01*
X202912Y81655D01*
X202908Y81663D01*
X202782Y81808D01*
X202657Y81955D01*
X202650Y81961D01*
X202644Y81968D01*
X202494Y82084D01*
X202341Y82205D01*
X202333Y82209D01*
X202326Y82214D01*
X202156Y82299D01*
X201982Y82387D01*
X201974Y82390D01*
X201966Y82394D01*
X201780Y82444D01*
X201595Y82495D01*
X201586Y82496D01*
X201577Y82498D01*
X201246Y82525D01*
X200895Y82525D01*
X199028Y83299D01*
X197599Y84728D01*
X196825Y86595D01*
X196825Y88216D01*
X196825Y88225D01*
X196825Y88234D01*
X196805Y88425D01*
X196786Y88617D01*
X196783Y88625D01*
X196782Y88634D01*
X196724Y88818D01*
X196667Y89002D01*
X196663Y89010D01*
X196660Y89018D01*
X196567Y89187D01*
X196476Y89356D01*
X196470Y89363D01*
X196466Y89371D01*
X196340Y89518D01*
X196218Y89665D01*
X196211Y89671D01*
X196205Y89678D01*
X196053Y89798D01*
X195904Y89917D01*
X195896Y89922D01*
X195889Y89927D01*
X195717Y90015D01*
X195547Y90103D01*
X195538Y90105D01*
X195530Y90110D01*
X195345Y90161D01*
X195160Y90214D01*
X195151Y90215D01*
X195142Y90218D01*
X194951Y90232D01*
X194759Y90247D01*
X194750Y90246D01*
X194741Y90247D01*
X194548Y90223D01*
X194359Y90200D01*
X194350Y90198D01*
X194341Y90196D01*
X194159Y90135D01*
X193976Y90076D01*
X193968Y90071D01*
X193960Y90068D01*
X193793Y89973D01*
X193625Y89878D01*
X193619Y89872D01*
X193611Y89867D01*
X193385Y89676D01*
X191511Y88899D01*
X189489Y88899D01*
X187622Y89673D01*
X186193Y91102D01*
X185419Y92969D01*
X185419Y94991D01*
X186193Y96858D01*
X187622Y98287D01*
X189489Y99061D01*
X191511Y99061D01*
X193378Y98287D01*
X194807Y96858D01*
X195581Y94991D01*
X195581Y93370D01*
X195582Y93361D01*
X195581Y93352D01*
X195602Y93161D01*
X195621Y92969D01*
X195623Y92961D01*
X195624Y92952D01*
X195683Y92767D01*
X195739Y92584D01*
X195743Y92576D01*
X195746Y92568D01*
X195839Y92399D01*
X195931Y92230D01*
X195936Y92223D01*
X195941Y92215D01*
X196066Y92067D01*
X196188Y91921D01*
X196195Y91915D01*
X196201Y91909D01*
X196353Y91789D01*
X196502Y91669D01*
X196510Y91665D01*
X196517Y91659D01*
X196689Y91572D01*
X196859Y91483D01*
X196868Y91481D01*
X196876Y91477D01*
X197061Y91425D01*
X197246Y91372D01*
X197255Y91371D01*
X197264Y91369D01*
X197456Y91355D01*
X197648Y91339D01*
X197656Y91340D01*
X197665Y91339D01*
X197858Y91364D01*
X198047Y91386D01*
X198056Y91389D01*
X198065Y91390D01*
X198248Y91451D01*
X198430Y91511D01*
X198438Y91515D01*
X198447Y91518D01*
X198613Y91614D01*
X198781Y91709D01*
X198788Y91714D01*
X198795Y91719D01*
X199021Y91911D01*
X200895Y92687D01*
X202917Y92687D01*
X204784Y91913D01*
X206213Y90484D01*
X206987Y88617D01*
X206987Y86595D01*
X206213Y84728D01*
X204964Y83478D01*
X204958Y83471D01*
X204951Y83466D01*
X204830Y83315D01*
X204708Y83167D01*
X204704Y83159D01*
X204699Y83152D01*
X204610Y82981D01*
X204520Y82811D01*
X204517Y82802D01*
X204513Y82795D01*
X204460Y82610D01*
X204405Y82425D01*
X204404Y82416D01*
X204402Y82408D01*
X204386Y82214D01*
X204369Y82024D01*
X204370Y82015D01*
X204369Y82006D01*
X204391Y81817D01*
X204412Y81624D01*
X204415Y81615D01*
X204416Y81607D01*
X204476Y81422D01*
X204534Y81240D01*
X204538Y81232D01*
X204541Y81224D01*
X204635Y81057D01*
X204728Y80888D01*
X204734Y80881D01*
X204739Y80873D01*
X204864Y80728D01*
X204989Y80581D01*
X204996Y80575D01*
X205002Y80568D01*
X205152Y80452D01*
X205305Y80331D01*
X205313Y80327D01*
X205320Y80322D01*
X205490Y80237D01*
X205664Y80149D01*
X205672Y80146D01*
X205680Y80142D01*
X205866Y80093D01*
X206052Y80041D01*
X206061Y80040D01*
X206069Y80038D01*
X206400Y80011D01*
X206751Y80011D01*
X208618Y79237D01*
X210047Y77808D01*
X210821Y75941D01*
X210821Y73919D01*
X210047Y72052D01*
X208618Y70623D01*
X206751Y69849D01*
X204729Y69849D01*
G37*
%LPD*%
%LPC*%
G36*
X102465Y206212D02*
X102465Y206212D01*
X100598Y206986D01*
X99168Y208415D01*
X98395Y210282D01*
X98395Y212304D01*
X99168Y214171D01*
X100598Y215600D01*
X101078Y215799D01*
X101094Y215808D01*
X101111Y215813D01*
X101272Y215903D01*
X101433Y215990D01*
X101447Y216001D01*
X101463Y216010D01*
X101602Y216129D01*
X101744Y216246D01*
X101755Y216260D01*
X101769Y216272D01*
X101882Y216417D01*
X101997Y216559D01*
X102006Y216574D01*
X102017Y216589D01*
X102099Y216753D01*
X102185Y216915D01*
X102190Y216932D01*
X102198Y216948D01*
X102246Y217125D01*
X102298Y217302D01*
X102299Y217319D01*
X102304Y217337D01*
X102316Y217520D01*
X102332Y217703D01*
X102330Y217720D01*
X102331Y217738D01*
X102308Y217921D01*
X102287Y218103D01*
X102282Y218120D01*
X102279Y218138D01*
X102178Y218453D01*
X101564Y219934D01*
X101564Y221956D01*
X102338Y223823D01*
X103767Y225252D01*
X105634Y226026D01*
X105791Y226026D01*
X105809Y226028D01*
X105827Y226026D01*
X106009Y226048D01*
X106192Y226066D01*
X106209Y226071D01*
X106226Y226073D01*
X106401Y226130D01*
X106577Y226184D01*
X106592Y226192D01*
X106609Y226198D01*
X106769Y226288D01*
X106931Y226376D01*
X106944Y226387D01*
X106960Y226396D01*
X107099Y226516D01*
X107240Y226633D01*
X107251Y226647D01*
X107265Y226659D01*
X107377Y226804D01*
X107492Y226947D01*
X107500Y226963D01*
X107511Y226977D01*
X107593Y227142D01*
X107678Y227304D01*
X107683Y227321D01*
X107691Y227338D01*
X107738Y227516D01*
X107789Y227691D01*
X107791Y227709D01*
X107795Y227726D01*
X107822Y228057D01*
X107822Y229348D01*
X108596Y231215D01*
X110025Y232644D01*
X111892Y233418D01*
X113914Y233418D01*
X115781Y232644D01*
X117210Y231215D01*
X117984Y229348D01*
X117984Y227326D01*
X117210Y225459D01*
X115781Y224030D01*
X113914Y223256D01*
X113757Y223256D01*
X113739Y223255D01*
X113722Y223256D01*
X113539Y223235D01*
X113356Y223216D01*
X113339Y223211D01*
X113322Y223209D01*
X113147Y223152D01*
X112972Y223098D01*
X112956Y223090D01*
X112939Y223084D01*
X112779Y222994D01*
X112617Y222907D01*
X112604Y222895D01*
X112588Y222886D01*
X112448Y222766D01*
X112308Y222649D01*
X112297Y222635D01*
X112284Y222623D01*
X112171Y222478D01*
X112056Y222335D01*
X112048Y222319D01*
X112037Y222305D01*
X111955Y222140D01*
X111870Y221978D01*
X111865Y221961D01*
X111857Y221945D01*
X111809Y221765D01*
X111759Y221591D01*
X111758Y221573D01*
X111753Y221556D01*
X111726Y221225D01*
X111726Y219934D01*
X110952Y218067D01*
X109523Y216638D01*
X109042Y216439D01*
X109027Y216430D01*
X109010Y216425D01*
X108849Y216335D01*
X108687Y216249D01*
X108674Y216237D01*
X108658Y216228D01*
X108519Y216109D01*
X108377Y215992D01*
X108366Y215978D01*
X108352Y215967D01*
X108239Y215822D01*
X108123Y215679D01*
X108115Y215664D01*
X108104Y215650D01*
X108021Y215485D01*
X107936Y215323D01*
X107931Y215306D01*
X107923Y215290D01*
X107875Y215113D01*
X107823Y214937D01*
X107822Y214919D01*
X107817Y214902D01*
X107804Y214718D01*
X107789Y214535D01*
X107791Y214518D01*
X107789Y214500D01*
X107813Y214317D01*
X107834Y214135D01*
X107839Y214118D01*
X107841Y214101D01*
X107943Y213785D01*
X108556Y212304D01*
X108556Y210282D01*
X107783Y208415D01*
X106354Y206986D01*
X104486Y206212D01*
X102465Y206212D01*
G37*
%LPD*%
%LPC*%
G36*
X62545Y122201D02*
X62545Y122201D01*
X60782Y122932D01*
X59432Y124282D01*
X58701Y126045D01*
X58701Y127955D01*
X59432Y129718D01*
X60782Y131068D01*
X61392Y131321D01*
X61399Y131325D01*
X61408Y131328D01*
X61577Y131420D01*
X61746Y131511D01*
X61753Y131517D01*
X61761Y131521D01*
X61909Y131645D01*
X62057Y131767D01*
X62062Y131774D01*
X62069Y131780D01*
X62189Y131930D01*
X62311Y132080D01*
X62315Y132088D01*
X62320Y132095D01*
X62408Y132266D01*
X62498Y132437D01*
X62500Y132445D01*
X62504Y132453D01*
X62557Y132639D01*
X62611Y132823D01*
X62611Y132832D01*
X62614Y132840D01*
X62629Y133033D01*
X62645Y133224D01*
X62644Y133233D01*
X62645Y133242D01*
X62622Y133433D01*
X62600Y133624D01*
X62597Y133633D01*
X62596Y133642D01*
X62536Y133823D01*
X62477Y134007D01*
X62473Y134015D01*
X62470Y134024D01*
X62375Y134190D01*
X62281Y134359D01*
X62275Y134366D01*
X62270Y134373D01*
X62144Y134519D01*
X62019Y134665D01*
X62012Y134670D01*
X62006Y134677D01*
X61853Y134795D01*
X61702Y134913D01*
X61694Y134917D01*
X61687Y134922D01*
X61391Y135074D01*
X60622Y135393D01*
X59193Y136822D01*
X58419Y138689D01*
X58419Y140711D01*
X59193Y142578D01*
X60622Y144007D01*
X62489Y144781D01*
X64511Y144781D01*
X66378Y144007D01*
X67807Y142578D01*
X68581Y140711D01*
X68581Y138689D01*
X67807Y136822D01*
X66378Y135393D01*
X65609Y135074D01*
X65601Y135070D01*
X65592Y135067D01*
X65423Y134974D01*
X65254Y134884D01*
X65247Y134878D01*
X65239Y134874D01*
X65091Y134749D01*
X64943Y134627D01*
X64938Y134620D01*
X64931Y134615D01*
X64811Y134465D01*
X64690Y134315D01*
X64685Y134307D01*
X64680Y134300D01*
X64592Y134129D01*
X64502Y133958D01*
X64500Y133950D01*
X64496Y133942D01*
X64444Y133757D01*
X64389Y133572D01*
X64389Y133563D01*
X64386Y133554D01*
X64371Y133363D01*
X64355Y133171D01*
X64356Y133162D01*
X64355Y133153D01*
X64378Y132962D01*
X64400Y132771D01*
X64403Y132762D01*
X64404Y132753D01*
X64465Y132569D01*
X64523Y132387D01*
X64527Y132380D01*
X64530Y132371D01*
X64626Y132203D01*
X64719Y132036D01*
X64725Y132029D01*
X64730Y132021D01*
X64856Y131876D01*
X64981Y131730D01*
X64988Y131725D01*
X64994Y131718D01*
X65148Y131599D01*
X65298Y131482D01*
X65306Y131478D01*
X65313Y131472D01*
X65608Y131321D01*
X66218Y131068D01*
X67568Y129718D01*
X67973Y128740D01*
X67978Y128732D01*
X67980Y128724D01*
X68073Y128553D01*
X68164Y128385D01*
X68169Y128378D01*
X68174Y128370D01*
X68298Y128222D01*
X68420Y128075D01*
X68427Y128069D01*
X68433Y128062D01*
X68583Y127942D01*
X68733Y127821D01*
X68741Y127817D01*
X68748Y127811D01*
X68918Y127724D01*
X69089Y127634D01*
X69098Y127631D01*
X69106Y127627D01*
X69290Y127575D01*
X69476Y127521D01*
X69485Y127520D01*
X69493Y127518D01*
X69684Y127503D01*
X69877Y127486D01*
X69886Y127487D01*
X69894Y127487D01*
X70086Y127510D01*
X70277Y127531D01*
X70285Y127534D01*
X70294Y127535D01*
X70476Y127595D01*
X70660Y127655D01*
X70668Y127659D01*
X70676Y127662D01*
X70842Y127756D01*
X71012Y127851D01*
X71018Y127857D01*
X71026Y127861D01*
X71170Y127986D01*
X71317Y128113D01*
X71323Y128120D01*
X71330Y128126D01*
X71447Y128278D01*
X71566Y128430D01*
X71570Y128438D01*
X71575Y128445D01*
X71727Y128740D01*
X72132Y129718D01*
X73482Y131068D01*
X75245Y131799D01*
X77155Y131799D01*
X78918Y131068D01*
X80268Y129718D01*
X80999Y127955D01*
X80999Y126045D01*
X80268Y124282D01*
X78918Y122932D01*
X77155Y122201D01*
X75245Y122201D01*
X73482Y122932D01*
X72132Y124282D01*
X71727Y125260D01*
X71722Y125268D01*
X71720Y125276D01*
X71627Y125445D01*
X71536Y125615D01*
X71531Y125622D01*
X71527Y125630D01*
X71402Y125778D01*
X71280Y125925D01*
X71273Y125931D01*
X71267Y125938D01*
X71116Y126058D01*
X70967Y126179D01*
X70960Y126183D01*
X70953Y126189D01*
X70781Y126277D01*
X70611Y126366D01*
X70602Y126369D01*
X70594Y126373D01*
X70410Y126425D01*
X70225Y126479D01*
X70216Y126480D01*
X70207Y126482D01*
X70016Y126497D01*
X69823Y126514D01*
X69815Y126513D01*
X69806Y126513D01*
X69615Y126490D01*
X69423Y126469D01*
X69415Y126466D01*
X69406Y126465D01*
X69223Y126404D01*
X69040Y126345D01*
X69032Y126341D01*
X69024Y126338D01*
X68856Y126243D01*
X68689Y126149D01*
X68682Y126143D01*
X68674Y126139D01*
X68529Y126012D01*
X68383Y125887D01*
X68377Y125880D01*
X68370Y125874D01*
X68253Y125721D01*
X68134Y125570D01*
X68130Y125562D01*
X68125Y125555D01*
X67973Y125260D01*
X67568Y124282D01*
X66218Y122932D01*
X64455Y122201D01*
X62545Y122201D01*
G37*
%LPD*%
%LPC*%
G36*
X169169Y246379D02*
X169169Y246379D01*
X167302Y247153D01*
X165873Y248582D01*
X165468Y249560D01*
X165461Y249572D01*
X165457Y249585D01*
X165366Y249749D01*
X165277Y249915D01*
X165269Y249926D01*
X165262Y249937D01*
X165141Y250080D01*
X165021Y250226D01*
X165011Y250234D01*
X165002Y250244D01*
X164854Y250361D01*
X164708Y250479D01*
X164696Y250486D01*
X164686Y250494D01*
X164518Y250579D01*
X164352Y250666D01*
X164339Y250670D01*
X164327Y250676D01*
X164146Y250727D01*
X163965Y250779D01*
X163952Y250781D01*
X163939Y250784D01*
X163751Y250798D01*
X163564Y250814D01*
X163551Y250813D01*
X163538Y250814D01*
X163350Y250790D01*
X163164Y250769D01*
X163151Y250765D01*
X163138Y250763D01*
X162961Y250703D01*
X162781Y250646D01*
X162769Y250639D01*
X162756Y250635D01*
X162594Y250541D01*
X162429Y250449D01*
X162419Y250441D01*
X162408Y250434D01*
X162155Y250219D01*
X161628Y249693D01*
X159761Y248919D01*
X157739Y248919D01*
X155872Y249693D01*
X154443Y251122D01*
X153669Y252989D01*
X153669Y255011D01*
X154443Y256878D01*
X155872Y258307D01*
X157739Y259081D01*
X159761Y259081D01*
X161628Y258307D01*
X163057Y256878D01*
X163462Y255900D01*
X163469Y255888D01*
X163473Y255875D01*
X163564Y255710D01*
X163653Y255545D01*
X163661Y255534D01*
X163668Y255523D01*
X163789Y255380D01*
X163909Y255234D01*
X163919Y255226D01*
X163928Y255216D01*
X164076Y255099D01*
X164222Y254981D01*
X164234Y254974D01*
X164244Y254966D01*
X164412Y254881D01*
X164578Y254794D01*
X164591Y254790D01*
X164603Y254784D01*
X164784Y254733D01*
X164965Y254681D01*
X164978Y254679D01*
X164991Y254676D01*
X165179Y254662D01*
X165366Y254646D01*
X165379Y254647D01*
X165392Y254646D01*
X165580Y254670D01*
X165766Y254691D01*
X165779Y254695D01*
X165792Y254697D01*
X165969Y254757D01*
X166149Y254814D01*
X166161Y254821D01*
X166174Y254825D01*
X166336Y254919D01*
X166501Y255011D01*
X166511Y255019D01*
X166522Y255026D01*
X166775Y255241D01*
X167302Y255767D01*
X169169Y256541D01*
X171191Y256541D01*
X173058Y255767D01*
X174487Y254338D01*
X175261Y252471D01*
X175261Y250449D01*
X174487Y248582D01*
X173058Y247153D01*
X171191Y246379D01*
X169169Y246379D01*
G37*
%LPD*%
%LPC*%
G36*
X468945Y198401D02*
X468945Y198401D01*
X467182Y199132D01*
X465832Y200482D01*
X465101Y202245D01*
X465101Y204155D01*
X465832Y205918D01*
X467182Y207268D01*
X468160Y207673D01*
X468168Y207678D01*
X468176Y207680D01*
X468345Y207773D01*
X468515Y207864D01*
X468522Y207869D01*
X468530Y207873D01*
X468677Y207998D01*
X468825Y208120D01*
X468831Y208127D01*
X468838Y208133D01*
X468958Y208284D01*
X469079Y208433D01*
X469083Y208440D01*
X469089Y208447D01*
X469177Y208619D01*
X469266Y208789D01*
X469269Y208798D01*
X469273Y208806D01*
X469325Y208990D01*
X469379Y209175D01*
X469380Y209184D01*
X469382Y209193D01*
X469397Y209384D01*
X469414Y209577D01*
X469413Y209585D01*
X469413Y209594D01*
X469390Y209785D01*
X469369Y209977D01*
X469366Y209985D01*
X469365Y209994D01*
X469304Y210177D01*
X469245Y210360D01*
X469241Y210368D01*
X469238Y210376D01*
X469143Y210544D01*
X469049Y210711D01*
X469043Y210718D01*
X469039Y210726D01*
X468913Y210870D01*
X468787Y211017D01*
X468780Y211023D01*
X468774Y211030D01*
X468621Y211147D01*
X468470Y211266D01*
X468462Y211270D01*
X468455Y211275D01*
X468160Y211427D01*
X467182Y211832D01*
X465832Y213182D01*
X465101Y214945D01*
X465101Y216855D01*
X465832Y218618D01*
X467182Y219968D01*
X468945Y220699D01*
X470855Y220699D01*
X472618Y219968D01*
X473968Y218618D01*
X474699Y216855D01*
X474699Y214945D01*
X473968Y213182D01*
X472618Y211832D01*
X471640Y211427D01*
X471632Y211422D01*
X471624Y211420D01*
X471453Y211327D01*
X471285Y211236D01*
X471278Y211231D01*
X471270Y211226D01*
X471122Y211101D01*
X470975Y210980D01*
X470969Y210973D01*
X470962Y210967D01*
X470842Y210817D01*
X470721Y210667D01*
X470717Y210659D01*
X470711Y210652D01*
X470624Y210482D01*
X470534Y210311D01*
X470531Y210302D01*
X470527Y210294D01*
X470474Y210108D01*
X470421Y209924D01*
X470420Y209915D01*
X470418Y209907D01*
X470403Y209714D01*
X470386Y209523D01*
X470387Y209514D01*
X470387Y209506D01*
X470410Y209314D01*
X470431Y209123D01*
X470434Y209115D01*
X470435Y209106D01*
X470495Y208924D01*
X470555Y208740D01*
X470559Y208732D01*
X470562Y208724D01*
X470657Y208556D01*
X470751Y208388D01*
X470757Y208382D01*
X470761Y208374D01*
X470887Y208230D01*
X471013Y208083D01*
X471020Y208077D01*
X471026Y208070D01*
X471178Y207953D01*
X471330Y207834D01*
X471338Y207830D01*
X471345Y207825D01*
X471640Y207673D01*
X472618Y207268D01*
X473968Y205918D01*
X474699Y204155D01*
X474699Y202245D01*
X473968Y200482D01*
X472618Y199132D01*
X470855Y198401D01*
X468945Y198401D01*
G37*
%LPD*%
%LPC*%
G36*
X280929Y173989D02*
X280929Y173989D01*
X279062Y174763D01*
X277633Y176192D01*
X276859Y178059D01*
X276859Y180081D01*
X277633Y181948D01*
X279062Y183377D01*
X280929Y184151D01*
X282951Y184151D01*
X284818Y183377D01*
X286247Y181948D01*
X287021Y180081D01*
X287021Y178059D01*
X286247Y176192D01*
X284818Y174763D01*
X282951Y173989D01*
X280929Y173989D01*
G37*
%LPD*%
%LPC*%
G36*
X147579Y172719D02*
X147579Y172719D01*
X145712Y173493D01*
X144283Y174922D01*
X143509Y176789D01*
X143509Y178811D01*
X144283Y180678D01*
X145712Y182107D01*
X147579Y182881D01*
X149601Y182881D01*
X151468Y182107D01*
X152897Y180678D01*
X153671Y178811D01*
X153671Y176789D01*
X152897Y174922D01*
X151468Y173493D01*
X149601Y172719D01*
X147579Y172719D01*
G37*
%LPD*%
%LPC*%
G36*
X119159Y236219D02*
X119159Y236219D01*
X117292Y236993D01*
X115863Y238422D01*
X115089Y240289D01*
X115089Y242311D01*
X115863Y244178D01*
X117292Y245607D01*
X119159Y246381D01*
X121181Y246381D01*
X123048Y245607D01*
X124477Y244178D01*
X125251Y242311D01*
X125251Y240289D01*
X124477Y238422D01*
X123048Y236993D01*
X121181Y236219D01*
X119159Y236219D01*
G37*
%LPD*%
%LPC*%
G36*
X114559Y170179D02*
X114559Y170179D01*
X112692Y170953D01*
X111263Y172382D01*
X110489Y174249D01*
X110489Y176271D01*
X111263Y178138D01*
X112692Y179567D01*
X114559Y180341D01*
X116581Y180341D01*
X118448Y179567D01*
X119877Y178138D01*
X120651Y176271D01*
X120651Y174249D01*
X119877Y172382D01*
X118448Y170953D01*
X116581Y170179D01*
X114559Y170179D01*
G37*
%LPD*%
%LPC*%
G36*
X186949Y151129D02*
X186949Y151129D01*
X185082Y151903D01*
X183653Y153332D01*
X182879Y155199D01*
X182879Y157221D01*
X183653Y159088D01*
X185082Y160517D01*
X186949Y161291D01*
X188971Y161291D01*
X190838Y160517D01*
X192267Y159088D01*
X193041Y157221D01*
X193041Y155199D01*
X192267Y153332D01*
X190838Y151903D01*
X188971Y151129D01*
X186949Y151129D01*
G37*
%LPD*%
%LPC*%
G36*
X150119Y107949D02*
X150119Y107949D01*
X148252Y108723D01*
X146823Y110152D01*
X146049Y112019D01*
X146049Y114041D01*
X146823Y115908D01*
X148252Y117337D01*
X150119Y118111D01*
X152141Y118111D01*
X154008Y117337D01*
X155437Y115908D01*
X156211Y114041D01*
X156211Y112019D01*
X155437Y110152D01*
X154008Y108723D01*
X152141Y107949D01*
X150119Y107949D01*
G37*
%LPD*%
%LPC*%
G36*
X242829Y116839D02*
X242829Y116839D01*
X240962Y117613D01*
X239533Y119042D01*
X238759Y120909D01*
X238759Y122931D01*
X239533Y124798D01*
X240962Y126227D01*
X242829Y127001D01*
X244851Y127001D01*
X246718Y126227D01*
X248147Y124798D01*
X248921Y122931D01*
X248921Y120909D01*
X248147Y119042D01*
X246718Y117613D01*
X244851Y116839D01*
X242829Y116839D01*
G37*
%LPD*%
%LPC*%
G36*
X509529Y113029D02*
X509529Y113029D01*
X507662Y113803D01*
X506233Y115232D01*
X505459Y117099D01*
X505459Y119121D01*
X506233Y120988D01*
X507662Y122417D01*
X509529Y123191D01*
X511551Y123191D01*
X513418Y122417D01*
X514847Y120988D01*
X515621Y119121D01*
X515621Y117099D01*
X514847Y115232D01*
X513418Y113803D01*
X511551Y113029D01*
X509529Y113029D01*
G37*
%LPD*%
%LPC*%
G36*
X360939Y109219D02*
X360939Y109219D01*
X359072Y109993D01*
X357643Y111422D01*
X356869Y113289D01*
X356869Y115311D01*
X357643Y117178D01*
X359072Y118607D01*
X360939Y119381D01*
X362961Y119381D01*
X364828Y118607D01*
X366257Y117178D01*
X367031Y115311D01*
X367031Y113289D01*
X366257Y111422D01*
X364828Y109993D01*
X362961Y109219D01*
X360939Y109219D01*
G37*
%LPD*%
%LPC*%
G36*
X228859Y102869D02*
X228859Y102869D01*
X226992Y103643D01*
X225563Y105072D01*
X224789Y106939D01*
X224789Y108961D01*
X225563Y110828D01*
X226992Y112257D01*
X228859Y113031D01*
X230881Y113031D01*
X232748Y112257D01*
X234177Y110828D01*
X234951Y108961D01*
X234951Y106939D01*
X234177Y105072D01*
X232748Y103643D01*
X230881Y102869D01*
X228859Y102869D01*
G37*
%LPD*%
%LPC*%
G36*
X202189Y99059D02*
X202189Y99059D01*
X200322Y99833D01*
X198893Y101262D01*
X198119Y103129D01*
X198119Y105151D01*
X198893Y107018D01*
X200322Y108447D01*
X202189Y109221D01*
X204211Y109221D01*
X206078Y108447D01*
X207507Y107018D01*
X208281Y105151D01*
X208281Y103129D01*
X207507Y101262D01*
X206078Y99833D01*
X204211Y99059D01*
X202189Y99059D01*
G37*
%LPD*%
%LPC*%
G36*
X513339Y97789D02*
X513339Y97789D01*
X511472Y98563D01*
X510043Y99992D01*
X509269Y101859D01*
X509269Y103881D01*
X510043Y105748D01*
X511472Y107177D01*
X513339Y107951D01*
X515361Y107951D01*
X517228Y107177D01*
X518657Y105748D01*
X519431Y103881D01*
X519431Y101859D01*
X518657Y99992D01*
X517228Y98563D01*
X515361Y97789D01*
X513339Y97789D01*
G37*
%LPD*%
%LPC*%
G36*
X320075Y89945D02*
X320075Y89945D01*
X318207Y90718D01*
X316778Y92147D01*
X316005Y94015D01*
X316005Y96036D01*
X316778Y97903D01*
X318207Y99333D01*
X320075Y100106D01*
X322096Y100106D01*
X323963Y99333D01*
X325393Y97903D01*
X326166Y96036D01*
X326166Y94015D01*
X325393Y92147D01*
X323963Y90718D01*
X322096Y89945D01*
X320075Y89945D01*
G37*
%LPD*%
%LPC*%
G36*
X378139Y83819D02*
X378139Y83819D01*
X376272Y84593D01*
X374843Y86022D01*
X374069Y87889D01*
X374069Y89911D01*
X374843Y91778D01*
X376272Y93207D01*
X378139Y93981D01*
X380161Y93981D01*
X382028Y93207D01*
X383457Y91778D01*
X384231Y89911D01*
X384231Y87889D01*
X383457Y86022D01*
X382028Y84593D01*
X380161Y83819D01*
X378139Y83819D01*
G37*
%LPD*%
%LPC*%
G36*
X513339Y81279D02*
X513339Y81279D01*
X511472Y82053D01*
X510043Y83482D01*
X509269Y85349D01*
X509269Y87371D01*
X510043Y89238D01*
X511472Y90667D01*
X513339Y91441D01*
X515361Y91441D01*
X517228Y90667D01*
X518657Y89238D01*
X519431Y87371D01*
X519431Y85349D01*
X518657Y83482D01*
X517228Y82053D01*
X515361Y81279D01*
X513339Y81279D01*
G37*
%LPD*%
%LPC*%
G36*
X237749Y81279D02*
X237749Y81279D01*
X235882Y82053D01*
X234453Y83482D01*
X233679Y85349D01*
X233679Y87371D01*
X234453Y89238D01*
X235882Y90667D01*
X237749Y91441D01*
X239771Y91441D01*
X241638Y90667D01*
X243067Y89238D01*
X243841Y87371D01*
X243841Y85349D01*
X243067Y83482D01*
X241638Y82053D01*
X239771Y81279D01*
X237749Y81279D01*
G37*
%LPD*%
%LPC*%
G36*
X356084Y72614D02*
X356084Y72614D01*
X354217Y73387D01*
X352787Y74817D01*
X352014Y76684D01*
X352014Y78705D01*
X352787Y80573D01*
X354217Y82002D01*
X356084Y82775D01*
X358105Y82775D01*
X359973Y82002D01*
X361402Y80573D01*
X362175Y78705D01*
X362175Y76684D01*
X361402Y74817D01*
X359973Y73387D01*
X358105Y72614D01*
X356084Y72614D01*
G37*
%LPD*%
%LPC*%
G36*
X151389Y33019D02*
X151389Y33019D01*
X149522Y33793D01*
X148093Y35222D01*
X147319Y37089D01*
X147319Y39111D01*
X148093Y40978D01*
X149522Y42407D01*
X151389Y43181D01*
X153411Y43181D01*
X155278Y42407D01*
X156707Y40978D01*
X157481Y39111D01*
X157481Y37089D01*
X156707Y35222D01*
X155278Y33793D01*
X153411Y33019D01*
X151389Y33019D01*
G37*
%LPD*%
%LPC*%
G36*
X355859Y195579D02*
X355859Y195579D01*
X353992Y196353D01*
X352563Y197782D01*
X351789Y199649D01*
X351789Y201671D01*
X352563Y203538D01*
X353992Y204967D01*
X355859Y205741D01*
X357881Y205741D01*
X359748Y204967D01*
X361177Y203538D01*
X361951Y201671D01*
X361951Y199649D01*
X361177Y197782D01*
X359748Y196353D01*
X357881Y195579D01*
X355859Y195579D01*
G37*
%LPD*%
%LPC*%
G36*
X373639Y171449D02*
X373639Y171449D01*
X371772Y172223D01*
X370343Y173652D01*
X369569Y175519D01*
X369569Y177541D01*
X370343Y179408D01*
X371772Y180837D01*
X373250Y181449D01*
X373250Y181450D01*
X373639Y181611D01*
X375661Y181611D01*
X377528Y180837D01*
X378957Y179408D01*
X379731Y177541D01*
X379731Y175519D01*
X378957Y173652D01*
X377528Y172223D01*
X375661Y171449D01*
X373639Y171449D01*
G37*
%LPD*%
%LPC*%
G36*
X358399Y171449D02*
X358399Y171449D01*
X356532Y172223D01*
X355103Y173652D01*
X354329Y175519D01*
X354329Y177541D01*
X355103Y179408D01*
X356532Y180837D01*
X358010Y181449D01*
X358010Y181450D01*
X358399Y181611D01*
X360421Y181611D01*
X362288Y180837D01*
X363717Y179408D01*
X364491Y177541D01*
X364491Y175519D01*
X363717Y173652D01*
X362288Y172223D01*
X360421Y171449D01*
X358399Y171449D01*
G37*
%LPD*%
%LPC*%
G36*
X157739Y57149D02*
X157739Y57149D01*
X155872Y57923D01*
X154443Y59352D01*
X153669Y61219D01*
X153669Y63241D01*
X154443Y65108D01*
X155872Y66537D01*
X157739Y67311D01*
X159761Y67311D01*
X161628Y66537D01*
X163057Y65108D01*
X163831Y63241D01*
X163831Y61219D01*
X163057Y59352D01*
X161628Y57923D01*
X159949Y57227D01*
X159761Y57149D01*
X157739Y57149D01*
G37*
%LPD*%
%LPC*%
G36*
X286009Y201929D02*
X286009Y201929D01*
X284142Y202703D01*
X282713Y204132D01*
X281939Y205999D01*
X281939Y208021D01*
X282713Y209888D01*
X284142Y211317D01*
X285593Y211918D01*
X286009Y212091D01*
X288031Y212091D01*
X289898Y211317D01*
X291327Y209888D01*
X292101Y208021D01*
X292101Y205999D01*
X291327Y204132D01*
X289898Y202703D01*
X288031Y201929D01*
X286009Y201929D01*
G37*
%LPD*%
%LPC*%
G36*
X248589Y47669D02*
X248589Y47669D01*
X246722Y48442D01*
X245292Y49872D01*
X244519Y51739D01*
X244519Y53760D01*
X245292Y55628D01*
X246722Y57057D01*
X247896Y57543D01*
X248589Y57830D01*
X250610Y57830D01*
X252478Y57057D01*
X253907Y55628D01*
X254680Y53760D01*
X254680Y51739D01*
X253907Y49872D01*
X252478Y48442D01*
X250610Y47669D01*
X248589Y47669D01*
G37*
%LPD*%
%LPC*%
G36*
X139959Y198119D02*
X139959Y198119D01*
X138092Y198893D01*
X136663Y200322D01*
X135889Y202189D01*
X135889Y204211D01*
X136663Y206078D01*
X138092Y207507D01*
X138933Y207856D01*
X139959Y208281D01*
X141981Y208281D01*
X143848Y207507D01*
X145277Y206078D01*
X146051Y204211D01*
X146051Y202189D01*
X145277Y200322D01*
X143848Y198893D01*
X141981Y198119D01*
X139959Y198119D01*
G37*
%LPD*%
%LPC*%
G36*
X532389Y242569D02*
X532389Y242569D01*
X530522Y243343D01*
X529093Y244772D01*
X528319Y246639D01*
X528319Y248661D01*
X529093Y250528D01*
X530522Y251957D01*
X531937Y252543D01*
X532389Y252731D01*
X534411Y252731D01*
X536278Y251957D01*
X537707Y250528D01*
X538481Y248661D01*
X538481Y246639D01*
X537707Y244772D01*
X536278Y243343D01*
X534411Y242569D01*
X532389Y242569D01*
G37*
%LPD*%
%LPC*%
G36*
X291145Y128551D02*
X291145Y128551D01*
X289382Y129282D01*
X288032Y130632D01*
X287301Y132395D01*
X287301Y134305D01*
X288032Y136068D01*
X289382Y137418D01*
X291145Y138149D01*
X293055Y138149D01*
X294818Y137418D01*
X296168Y136068D01*
X296899Y134305D01*
X296899Y132395D01*
X296168Y130632D01*
X294818Y129282D01*
X293055Y128551D01*
X291145Y128551D01*
G37*
%LPD*%
%LPC*%
G36*
X75245Y255551D02*
X75245Y255551D01*
X73482Y256282D01*
X72132Y257632D01*
X71401Y259395D01*
X71401Y261305D01*
X72132Y263068D01*
X73482Y264418D01*
X75245Y265149D01*
X77155Y265149D01*
X78918Y264418D01*
X80268Y263068D01*
X80999Y261305D01*
X80999Y259395D01*
X80268Y257632D01*
X78918Y256282D01*
X77155Y255551D01*
X75245Y255551D01*
G37*
%LPD*%
%LPC*%
G36*
X77785Y240311D02*
X77785Y240311D01*
X76022Y241042D01*
X74672Y242392D01*
X73941Y244155D01*
X73941Y246065D01*
X74672Y247828D01*
X76022Y249178D01*
X77785Y249909D01*
X79695Y249909D01*
X81458Y249178D01*
X82808Y247828D01*
X83539Y246065D01*
X83539Y244155D01*
X82808Y242392D01*
X81458Y241042D01*
X79695Y240311D01*
X77785Y240311D01*
G37*
%LPD*%
%LPC*%
G36*
X246695Y213641D02*
X246695Y213641D01*
X244932Y214372D01*
X243582Y215722D01*
X242851Y217485D01*
X242851Y219395D01*
X243582Y221158D01*
X244932Y222508D01*
X246695Y223239D01*
X248605Y223239D01*
X250368Y222508D01*
X251718Y221158D01*
X252449Y219395D01*
X252449Y217485D01*
X251718Y215722D01*
X250368Y214372D01*
X248605Y213641D01*
X246695Y213641D01*
G37*
%LPD*%
%LPC*%
G36*
X317815Y139981D02*
X317815Y139981D01*
X316052Y140712D01*
X314702Y142062D01*
X313971Y143825D01*
X313971Y145735D01*
X314702Y147498D01*
X316052Y148848D01*
X317815Y149579D01*
X319725Y149579D01*
X321488Y148848D01*
X322838Y147498D01*
X323569Y145735D01*
X323569Y143825D01*
X322838Y142062D01*
X321488Y140712D01*
X319725Y139981D01*
X317815Y139981D01*
G37*
%LPD*%
%LPC*%
G36*
X421955Y104421D02*
X421955Y104421D01*
X420192Y105152D01*
X418842Y106502D01*
X418111Y108265D01*
X418111Y110175D01*
X418842Y111938D01*
X420192Y113288D01*
X421955Y114019D01*
X423865Y114019D01*
X425628Y113288D01*
X426978Y111938D01*
X427709Y110175D01*
X427709Y108265D01*
X426978Y106502D01*
X425628Y105152D01*
X423865Y104421D01*
X421955Y104421D01*
G37*
%LPD*%
%LPC*%
G36*
X206055Y211101D02*
X206055Y211101D01*
X204292Y211832D01*
X202942Y213182D01*
X202211Y214945D01*
X202211Y216855D01*
X202942Y218618D01*
X204292Y219968D01*
X206055Y220699D01*
X207965Y220699D01*
X209728Y219968D01*
X211078Y218618D01*
X211809Y216855D01*
X211809Y214945D01*
X211078Y213182D01*
X209728Y211832D01*
X207965Y211101D01*
X206055Y211101D01*
G37*
%LPD*%
%LPC*%
G36*
X452435Y103151D02*
X452435Y103151D01*
X450672Y103882D01*
X449322Y105232D01*
X448591Y106995D01*
X448591Y108905D01*
X449322Y110668D01*
X450672Y112018D01*
X452435Y112749D01*
X454345Y112749D01*
X456108Y112018D01*
X457458Y110668D01*
X458189Y108905D01*
X458189Y106995D01*
X457458Y105232D01*
X456108Y103882D01*
X454345Y103151D01*
X452435Y103151D01*
G37*
%LPD*%
%LPC*%
G36*
X407985Y198401D02*
X407985Y198401D01*
X406222Y199132D01*
X404872Y200482D01*
X404141Y202245D01*
X404141Y204155D01*
X404872Y205918D01*
X406222Y207268D01*
X407985Y207999D01*
X409895Y207999D01*
X411658Y207268D01*
X413008Y205918D01*
X413739Y204155D01*
X413739Y202245D01*
X413008Y200482D01*
X411658Y199132D01*
X409895Y198401D01*
X407985Y198401D01*
G37*
%LPD*%
%LPC*%
G36*
X373695Y198401D02*
X373695Y198401D01*
X371932Y199132D01*
X370582Y200482D01*
X369851Y202245D01*
X369851Y204155D01*
X370582Y205918D01*
X371932Y207268D01*
X373695Y207999D01*
X375605Y207999D01*
X377368Y207268D01*
X378718Y205918D01*
X379449Y204155D01*
X379449Y202245D01*
X378718Y200482D01*
X377368Y199132D01*
X375605Y198401D01*
X373695Y198401D01*
G37*
%LPD*%
%LPC*%
G36*
X87945Y98071D02*
X87945Y98071D01*
X86182Y98802D01*
X84832Y100152D01*
X84101Y101915D01*
X84101Y103825D01*
X84832Y105588D01*
X86182Y106938D01*
X87945Y107669D01*
X89855Y107669D01*
X91618Y106938D01*
X92968Y105588D01*
X93699Y103825D01*
X93699Y101915D01*
X92968Y100152D01*
X91618Y98802D01*
X89855Y98071D01*
X87945Y98071D01*
G37*
%LPD*%
%LPC*%
G36*
X265745Y96801D02*
X265745Y96801D01*
X263982Y97532D01*
X262632Y98882D01*
X261901Y100645D01*
X261901Y102555D01*
X262632Y104318D01*
X263982Y105668D01*
X265745Y106399D01*
X267655Y106399D01*
X269418Y105668D01*
X270768Y104318D01*
X271499Y102555D01*
X271499Y100645D01*
X270768Y98882D01*
X269418Y97532D01*
X267655Y96801D01*
X265745Y96801D01*
G37*
%LPD*%
%LPC*%
G36*
X407985Y178081D02*
X407985Y178081D01*
X406222Y178812D01*
X404872Y180162D01*
X404141Y181925D01*
X404141Y183835D01*
X404872Y185598D01*
X406222Y186948D01*
X407985Y187679D01*
X409895Y187679D01*
X411658Y186948D01*
X413008Y185598D01*
X413739Y183835D01*
X413739Y181925D01*
X413008Y180162D01*
X411658Y178812D01*
X409895Y178081D01*
X407985Y178081D01*
G37*
%LPD*%
%LPC*%
G36*
X424495Y90451D02*
X424495Y90451D01*
X422732Y91182D01*
X421382Y92532D01*
X420651Y94295D01*
X420651Y96205D01*
X421382Y97968D01*
X422732Y99318D01*
X424495Y100049D01*
X426405Y100049D01*
X428168Y99318D01*
X429518Y97968D01*
X430249Y96205D01*
X430249Y94295D01*
X429518Y92532D01*
X428168Y91182D01*
X426405Y90451D01*
X424495Y90451D01*
G37*
%LPD*%
%LPC*%
G36*
X113345Y90451D02*
X113345Y90451D01*
X111582Y91182D01*
X110232Y92532D01*
X109501Y94295D01*
X109501Y96205D01*
X110232Y97968D01*
X111582Y99318D01*
X113345Y100049D01*
X115255Y100049D01*
X117018Y99318D01*
X118368Y97968D01*
X119099Y96205D01*
X119099Y94295D01*
X118368Y92532D01*
X117018Y91182D01*
X115255Y90451D01*
X113345Y90451D01*
G37*
%LPD*%
%LPC*%
G36*
X310195Y166651D02*
X310195Y166651D01*
X308432Y167382D01*
X307082Y168732D01*
X306351Y170495D01*
X306351Y172405D01*
X307082Y174168D01*
X308432Y175518D01*
X310195Y176249D01*
X312105Y176249D01*
X313868Y175518D01*
X315218Y174168D01*
X315949Y172405D01*
X315949Y170495D01*
X315218Y168732D01*
X313868Y167382D01*
X312105Y166651D01*
X310195Y166651D01*
G37*
%LPD*%
%LPC*%
G36*
X56195Y85371D02*
X56195Y85371D01*
X54432Y86102D01*
X53082Y87452D01*
X52351Y89215D01*
X52351Y91125D01*
X53082Y92888D01*
X54432Y94238D01*
X56195Y94969D01*
X58105Y94969D01*
X59868Y94238D01*
X61218Y92888D01*
X61949Y91125D01*
X61949Y89215D01*
X61218Y87452D01*
X59868Y86102D01*
X58105Y85371D01*
X56195Y85371D01*
G37*
%LPD*%
%LPC*%
G36*
X407985Y162841D02*
X407985Y162841D01*
X406222Y163572D01*
X404872Y164922D01*
X404141Y166685D01*
X404141Y168595D01*
X404872Y170358D01*
X406222Y171708D01*
X407985Y172439D01*
X409895Y172439D01*
X411658Y171708D01*
X413008Y170358D01*
X413739Y168595D01*
X413739Y166685D01*
X413008Y164922D01*
X411658Y163572D01*
X409895Y162841D01*
X407985Y162841D01*
G37*
%LPD*%
%LPC*%
G36*
X475295Y84101D02*
X475295Y84101D01*
X473532Y84832D01*
X472182Y86182D01*
X471451Y87945D01*
X471451Y89855D01*
X472182Y91618D01*
X473532Y92968D01*
X475295Y93699D01*
X477205Y93699D01*
X478968Y92968D01*
X480318Y91618D01*
X481049Y89855D01*
X481049Y87945D01*
X480318Y86182D01*
X478968Y84832D01*
X477205Y84101D01*
X475295Y84101D01*
G37*
%LPD*%
%LPC*%
G36*
X272095Y161571D02*
X272095Y161571D01*
X270332Y162302D01*
X268982Y163652D01*
X268251Y165415D01*
X268251Y167325D01*
X268982Y169088D01*
X270332Y170438D01*
X272095Y171169D01*
X274005Y171169D01*
X275768Y170438D01*
X277118Y169088D01*
X277849Y167325D01*
X277849Y165415D01*
X277118Y163652D01*
X275768Y162302D01*
X274005Y161571D01*
X272095Y161571D01*
G37*
%LPD*%
%LPC*%
G36*
X446085Y147601D02*
X446085Y147601D01*
X444322Y148332D01*
X442972Y149682D01*
X442241Y151445D01*
X442241Y153355D01*
X442972Y155118D01*
X444322Y156468D01*
X446085Y157199D01*
X447995Y157199D01*
X449758Y156468D01*
X451108Y155118D01*
X451839Y153355D01*
X451839Y151445D01*
X451108Y149682D01*
X449758Y148332D01*
X447995Y147601D01*
X446085Y147601D01*
G37*
%LPD*%
%LPC*%
G36*
X473416Y143131D02*
X473416Y143131D01*
X471652Y143861D01*
X470302Y145211D01*
X469572Y146975D01*
X469572Y148884D01*
X470302Y150648D01*
X471652Y151998D01*
X473416Y152728D01*
X475325Y152728D01*
X477089Y151998D01*
X478439Y150648D01*
X479169Y148884D01*
X479169Y146975D01*
X478439Y145211D01*
X477089Y143861D01*
X475325Y143131D01*
X473416Y143131D01*
G37*
%LPD*%
%LPC*%
G36*
X119695Y71401D02*
X119695Y71401D01*
X117932Y72132D01*
X116582Y73482D01*
X115851Y75245D01*
X115851Y77155D01*
X116582Y78918D01*
X117932Y80268D01*
X119695Y80999D01*
X121605Y80999D01*
X123368Y80268D01*
X124718Y78918D01*
X125449Y77155D01*
X125449Y75245D01*
X124718Y73482D01*
X123368Y72132D01*
X121605Y71401D01*
X119695Y71401D01*
G37*
%LPD*%
%LPC*%
G36*
X176845Y58701D02*
X176845Y58701D01*
X175082Y59432D01*
X173732Y60782D01*
X173001Y62545D01*
X173001Y64455D01*
X173732Y66218D01*
X175082Y67568D01*
X176845Y68299D01*
X178755Y68299D01*
X180518Y67568D01*
X181868Y66218D01*
X182599Y64455D01*
X182599Y62545D01*
X181868Y60782D01*
X180518Y59432D01*
X178755Y58701D01*
X176845Y58701D01*
G37*
%LPD*%
%LPC*%
G36*
X386395Y141251D02*
X386395Y141251D01*
X384632Y141982D01*
X383282Y143332D01*
X382551Y145095D01*
X382551Y147005D01*
X383282Y148768D01*
X384632Y150118D01*
X386395Y150849D01*
X388305Y150849D01*
X390068Y150118D01*
X391418Y148768D01*
X392149Y147005D01*
X392149Y145095D01*
X391418Y143332D01*
X390068Y141982D01*
X388305Y141251D01*
X386395Y141251D01*
G37*
%LPD*%
%LPC*%
G36*
X496885Y162841D02*
X496885Y162841D01*
X495122Y163572D01*
X493772Y164922D01*
X493041Y166685D01*
X493041Y168595D01*
X493772Y170358D01*
X495122Y171708D01*
X496885Y172439D01*
X498795Y172439D01*
X500558Y171708D01*
X501908Y170358D01*
X502639Y168595D01*
X502639Y166685D01*
X501908Y164922D01*
X500558Y163572D01*
X498795Y162841D01*
X496885Y162841D01*
G37*
%LPD*%
%LPC*%
G36*
X195895Y46989D02*
X195895Y46989D01*
X194132Y47720D01*
X192782Y49070D01*
X192051Y50833D01*
X192051Y52743D01*
X192782Y54506D01*
X194132Y55856D01*
X195895Y56587D01*
X197805Y56587D01*
X199568Y55856D01*
X200918Y54506D01*
X201649Y52743D01*
X201649Y50833D01*
X200918Y49070D01*
X199568Y47720D01*
X197805Y46989D01*
X195895Y46989D01*
G37*
%LPD*%
%LPC*%
G36*
X122235Y265711D02*
X122235Y265711D01*
X120472Y266442D01*
X119122Y267792D01*
X118391Y269555D01*
X118391Y271465D01*
X119122Y273228D01*
X120472Y274578D01*
X122235Y275309D01*
X124145Y275309D01*
X125908Y274578D01*
X127258Y273228D01*
X127989Y271465D01*
X127989Y269555D01*
X127258Y267792D01*
X125908Y266442D01*
X124145Y265711D01*
X122235Y265711D01*
G37*
%LPD*%
%LPC*%
G36*
X399095Y134901D02*
X399095Y134901D01*
X397332Y135632D01*
X395982Y136982D01*
X395251Y138745D01*
X395251Y140655D01*
X395982Y142418D01*
X397332Y143768D01*
X399095Y144499D01*
X401005Y144499D01*
X402768Y143768D01*
X404118Y142418D01*
X404849Y140655D01*
X404849Y138745D01*
X404118Y136982D01*
X402768Y135632D01*
X401005Y134901D01*
X399095Y134901D01*
G37*
%LPD*%
%LPC*%
G36*
X360995Y128551D02*
X360995Y128551D01*
X359232Y129282D01*
X357882Y130632D01*
X357151Y132395D01*
X357151Y134305D01*
X357882Y136068D01*
X359232Y137418D01*
X360995Y138149D01*
X362905Y138149D01*
X364668Y137418D01*
X366018Y136068D01*
X366749Y134305D01*
X366749Y132395D01*
X366018Y130632D01*
X364668Y129282D01*
X362905Y128551D01*
X360995Y128551D01*
G37*
%LPD*%
%LPC*%
G36*
X119695Y14251D02*
X119695Y14251D01*
X117932Y14982D01*
X116582Y16332D01*
X115851Y18095D01*
X115851Y20005D01*
X116582Y21768D01*
X117932Y23118D01*
X119695Y23849D01*
X121605Y23849D01*
X123368Y23118D01*
X124718Y21768D01*
X125449Y20005D01*
X125449Y18095D01*
X124718Y16332D01*
X123368Y14982D01*
X121605Y14251D01*
X119695Y14251D01*
G37*
%LPD*%
D10*
X177500Y273050D03*
X197500Y273050D03*
X217500Y273050D03*
X237500Y273050D03*
X257500Y273050D03*
X277500Y273050D03*
X297500Y273050D03*
X317500Y273050D03*
X337500Y273050D03*
X357500Y273050D03*
X377500Y273050D03*
X397500Y273050D03*
X417500Y273050D03*
X437500Y273050D03*
X457500Y273050D03*
X177500Y31750D03*
X197500Y31750D03*
X217500Y31750D03*
X237500Y31750D03*
X257500Y31750D03*
X277500Y31750D03*
X297500Y31750D03*
X317500Y31750D03*
X337500Y31750D03*
X357500Y31750D03*
X377500Y31750D03*
X397500Y31750D03*
X417500Y31750D03*
X437500Y31750D03*
X457500Y31750D03*
X565150Y36050D03*
X565150Y56050D03*
X565150Y76050D03*
X565150Y96050D03*
X565150Y116050D03*
X565150Y136050D03*
X565150Y156050D03*
X565150Y176050D03*
X565150Y196050D03*
X565150Y216050D03*
X565150Y236050D03*
X565150Y256050D03*
D11*
X123190Y270510D03*
X76200Y260350D03*
X78740Y245110D03*
X57150Y90170D03*
X88900Y102870D03*
X207010Y215900D03*
X273050Y166370D03*
X311150Y171450D03*
X408940Y203200D03*
X408940Y182880D03*
X408940Y167640D03*
X476250Y88900D03*
X447040Y152400D03*
D12*
X158750Y254000D03*
X187960Y156210D03*
X533400Y247650D03*
X243840Y121920D03*
X203200Y104140D03*
X229870Y107950D03*
X238760Y86360D03*
X158750Y62230D03*
X140970Y203200D03*
D11*
X318770Y144780D03*
X247650Y218440D03*
X422910Y109220D03*
X453390Y107950D03*
D12*
X148590Y177800D03*
X138430Y154940D03*
X115570Y175260D03*
X170180Y251460D03*
X287020Y207010D03*
X281940Y179070D03*
X359410Y176530D03*
X374650Y176530D03*
X356870Y200660D03*
X151130Y113030D03*
X104140Y165100D03*
X510540Y118110D03*
X514350Y102870D03*
X514350Y86360D03*
D11*
X510540Y226060D03*
X527050Y203200D03*
X64211Y95961D03*
X307698Y223929D03*
X285750Y107950D03*
X114300Y285750D03*
X361950Y133350D03*
X474370Y147930D03*
X497840Y167640D03*
X292100Y133350D03*
X400050Y139700D03*
X374650Y203200D03*
X469900Y215900D03*
X266700Y101600D03*
D12*
X361950Y114300D03*
D11*
X63500Y127000D03*
D12*
X63500Y139700D03*
X205740Y74930D03*
X152400Y38100D03*
X103476Y211293D03*
X127000Y152400D03*
D11*
X387350Y146050D03*
X425450Y95250D03*
D12*
X114300Y152400D03*
D11*
X469900Y203200D03*
D12*
X101600Y152400D03*
X120170Y241300D03*
X112903Y228337D03*
X106645Y220945D03*
X190500Y93980D03*
X379150Y88900D03*
X201906Y87606D03*
X321085Y95025D03*
X249600Y52750D03*
X357095Y77695D03*
D11*
X120650Y76200D03*
X177800Y63500D03*
X196850Y51788D03*
X114300Y95250D03*
X120650Y19050D03*
X76200Y127000D03*
M02*
