M48
;GenerationSoftware,Autodesk,EAGLE,9.2.1*%
;CreationDate,2018-10-16T04:53:55Z*%
FMAT,2
ICI,OFF
METRIC,TZ,000.000
T3C0.350
T2C0.406
T1C1.016
%
G90
M71
T1
X33750Y27305
X56515Y3605
X45750Y3175
X43750Y3175
X41750Y3175
X37750Y3175
X35750Y3175
X33750Y3175
X31750Y3175
X29750Y3175
X27750Y3175
X25750Y3175
X23750Y3175
X17750Y27305
X31750Y27305
X39750Y3175
X29750Y27305
X27750Y27305
X25750Y27305
X23750Y27305
X19750Y27305
X21750Y27305
X21750Y3175
X19750Y3175
X17750Y3175
X45750Y27305
X41750Y27305
X39750Y27305
X37750Y27305
X35750Y27305
X43750Y27305
X56515Y5605
X56515Y7605
X56515Y9605
X56515Y11605
X56515Y13605
X56515Y15605
X56515Y17605
X56515Y19605
X56515Y21605
X56515Y23605
X56515Y25605
T2
X11557Y17526
X17018Y25146
X28194Y17907
X35941Y17653
X37465Y17653
X35687Y20066
X15113Y11303
X10414Y16510
X51054Y11811
X51435Y10287
X51435Y8636
X11430Y15240
X36195Y11430
X6350Y13970
X20574Y7493
X15240Y3810
X10348Y21129
X12700Y15240
X28702Y20701
X10160Y15240
X12017Y24130
X11290Y22834
X10665Y22095
X19050Y9398
X37915Y8890
X20191Y8761
X32109Y9503
X24960Y5275
X35709Y7769
X53340Y24765
X15875Y25400
X18796Y15621
X24384Y12192
X20320Y10414
X22987Y10795
X23876Y8636
X15875Y6223
X14097Y20320
X14859Y17780
X13843Y15494
T3
X46990Y21590
X37465Y20320
X40005Y13970
X29210Y13335
X36195Y13335
X30770Y22393
X6421Y9596
X52705Y20320
X51054Y22606
X12319Y27051
X45339Y10795
X42291Y10922
X24765Y21844
X31877Y14478
X44704Y15240
X47625Y8890
X40894Y16764
X40894Y18288
X40894Y20320
X31115Y17145
X27305Y16637
X20701Y21590
X47437Y14793
X8890Y10287
X5715Y9017
X7874Y24511
X7620Y26035
X46990Y20320
X12065Y7620
X17780Y6350
X19685Y5179
X11430Y9525
X12065Y1905
X7620Y12700
X42545Y9525
X38735Y14605
X6350Y12700
X26670Y10160
M30