G04 EAGLE Gerber RS-274X export*
G75*
%MOMM*%
%FSLAX34Y34*%
%LPD*%
%INSilkscreen Top*%
%IPPOS*%
%AMOC8*
5,1,8,0,0,1.08239X$1,22.5*%
G01*
%ADD10C,0.101600*%
%ADD11C,0.050800*%
%ADD12C,0.076200*%
%ADD13C,0.200000*%
%ADD14C,0.127000*%
%ADD15C,0.500000*%
%ADD16C,0.700000*%
%ADD17C,0.400000*%
%ADD18C,0.300000*%
%ADD19C,0.152400*%
%ADD20R,0.150000X0.300000*%
%ADD21R,0.300000X0.300000*%
%ADD22C,0.500000*%


D10*
X241391Y148783D02*
X240353Y147745D01*
X240354Y147745D02*
X240300Y147694D01*
X240244Y147645D01*
X240185Y147600D01*
X240124Y147557D01*
X240061Y147518D01*
X239996Y147482D01*
X239929Y147449D01*
X239861Y147420D01*
X239791Y147394D01*
X239720Y147372D01*
X239648Y147353D01*
X239575Y147338D01*
X239501Y147327D01*
X239427Y147319D01*
X239353Y147315D01*
X239279Y147315D01*
X239205Y147319D01*
X239131Y147327D01*
X239057Y147338D01*
X238984Y147353D01*
X238912Y147372D01*
X238841Y147394D01*
X238771Y147420D01*
X238703Y147449D01*
X238636Y147482D01*
X238571Y147518D01*
X238508Y147557D01*
X238447Y147600D01*
X238388Y147645D01*
X238332Y147694D01*
X238278Y147745D01*
X235684Y150340D01*
X235683Y150339D02*
X235632Y150393D01*
X235583Y150449D01*
X235538Y150508D01*
X235495Y150569D01*
X235456Y150632D01*
X235420Y150697D01*
X235387Y150764D01*
X235358Y150832D01*
X235332Y150902D01*
X235310Y150973D01*
X235291Y151045D01*
X235276Y151118D01*
X235265Y151192D01*
X235257Y151266D01*
X235253Y151340D01*
X235253Y151414D01*
X235257Y151488D01*
X235265Y151562D01*
X235276Y151636D01*
X235291Y151709D01*
X235310Y151781D01*
X235332Y151852D01*
X235358Y151922D01*
X235387Y151990D01*
X235420Y152057D01*
X235456Y152122D01*
X235495Y152185D01*
X235538Y152246D01*
X235583Y152305D01*
X235632Y152361D01*
X235683Y152415D01*
X236721Y153453D01*
X239743Y154399D02*
X240003Y156734D01*
X244673Y152065D01*
X245970Y153362D02*
X243375Y150767D01*
D11*
X299702Y147589D02*
X300718Y147589D01*
X299702Y147589D02*
X299641Y147591D01*
X299580Y147596D01*
X299519Y147606D01*
X299459Y147619D01*
X299400Y147635D01*
X299342Y147655D01*
X299285Y147679D01*
X299230Y147705D01*
X299176Y147736D01*
X299125Y147769D01*
X299075Y147805D01*
X299028Y147845D01*
X298984Y147887D01*
X298942Y147931D01*
X298902Y147978D01*
X298866Y148028D01*
X298833Y148079D01*
X298802Y148133D01*
X298776Y148188D01*
X298752Y148245D01*
X298732Y148303D01*
X298716Y148362D01*
X298703Y148422D01*
X298693Y148483D01*
X298688Y148544D01*
X298686Y148605D01*
X298686Y151145D01*
X298688Y151206D01*
X298693Y151267D01*
X298703Y151328D01*
X298716Y151388D01*
X298732Y151447D01*
X298752Y151505D01*
X298776Y151562D01*
X298802Y151617D01*
X298833Y151671D01*
X298866Y151722D01*
X298902Y151772D01*
X298942Y151819D01*
X298984Y151863D01*
X299028Y151905D01*
X299075Y151945D01*
X299125Y151981D01*
X299176Y152014D01*
X299230Y152045D01*
X299285Y152071D01*
X299342Y152095D01*
X299400Y152115D01*
X299459Y152131D01*
X299519Y152144D01*
X299580Y152154D01*
X299641Y152159D01*
X299702Y152161D01*
X300718Y152161D01*
X302511Y151145D02*
X303781Y152161D01*
X303781Y147589D01*
X302511Y147589D02*
X305051Y147589D01*
X307083Y149875D02*
X307085Y149997D01*
X307091Y150119D01*
X307101Y150241D01*
X307115Y150362D01*
X307132Y150483D01*
X307154Y150603D01*
X307179Y150722D01*
X307209Y150841D01*
X307242Y150958D01*
X307279Y151075D01*
X307320Y151190D01*
X307364Y151303D01*
X307412Y151416D01*
X307464Y151526D01*
X307484Y151580D01*
X307508Y151634D01*
X307536Y151685D01*
X307566Y151735D01*
X307599Y151783D01*
X307636Y151828D01*
X307675Y151872D01*
X307716Y151912D01*
X307760Y151951D01*
X307807Y151986D01*
X307855Y152018D01*
X307905Y152048D01*
X307958Y152074D01*
X308011Y152097D01*
X308066Y152116D01*
X308122Y152132D01*
X308179Y152145D01*
X308237Y152154D01*
X308295Y152159D01*
X308353Y152161D01*
X308411Y152159D01*
X308469Y152154D01*
X308527Y152145D01*
X308584Y152132D01*
X308640Y152116D01*
X308695Y152097D01*
X308748Y152074D01*
X308801Y152048D01*
X308851Y152018D01*
X308899Y151986D01*
X308946Y151951D01*
X308990Y151912D01*
X309031Y151872D01*
X309070Y151828D01*
X309107Y151783D01*
X309140Y151735D01*
X309170Y151685D01*
X309198Y151634D01*
X309222Y151580D01*
X309242Y151526D01*
X309294Y151416D01*
X309342Y151303D01*
X309386Y151190D01*
X309427Y151075D01*
X309464Y150958D01*
X309497Y150841D01*
X309527Y150722D01*
X309552Y150603D01*
X309574Y150483D01*
X309591Y150362D01*
X309605Y150241D01*
X309615Y150119D01*
X309621Y149997D01*
X309623Y149875D01*
X307083Y149875D02*
X307085Y149753D01*
X307091Y149631D01*
X307101Y149509D01*
X307115Y149388D01*
X307132Y149267D01*
X307154Y149147D01*
X307179Y149028D01*
X307209Y148909D01*
X307242Y148792D01*
X307279Y148675D01*
X307320Y148560D01*
X307364Y148447D01*
X307412Y148334D01*
X307464Y148224D01*
X307484Y148170D01*
X307508Y148116D01*
X307536Y148065D01*
X307566Y148015D01*
X307599Y147967D01*
X307636Y147922D01*
X307675Y147878D01*
X307716Y147838D01*
X307760Y147799D01*
X307807Y147764D01*
X307855Y147732D01*
X307905Y147702D01*
X307958Y147676D01*
X308011Y147653D01*
X308066Y147634D01*
X308122Y147618D01*
X308179Y147605D01*
X308237Y147596D01*
X308295Y147591D01*
X308353Y147589D01*
X309242Y148224D02*
X309294Y148334D01*
X309342Y148447D01*
X309386Y148560D01*
X309427Y148675D01*
X309464Y148792D01*
X309497Y148909D01*
X309527Y149028D01*
X309552Y149147D01*
X309574Y149267D01*
X309591Y149388D01*
X309605Y149509D01*
X309615Y149631D01*
X309621Y149753D01*
X309623Y149875D01*
X309242Y148224D02*
X309222Y148170D01*
X309198Y148116D01*
X309170Y148065D01*
X309140Y148015D01*
X309107Y147967D01*
X309070Y147922D01*
X309031Y147878D01*
X308990Y147838D01*
X308946Y147799D01*
X308899Y147764D01*
X308851Y147732D01*
X308801Y147702D01*
X308748Y147676D01*
X308695Y147653D01*
X308640Y147634D01*
X308584Y147618D01*
X308527Y147605D01*
X308469Y147596D01*
X308411Y147591D01*
X308353Y147589D01*
X307337Y148605D02*
X309369Y151145D01*
D10*
X252222Y113159D02*
X252222Y111691D01*
X252220Y111617D01*
X252214Y111542D01*
X252205Y111469D01*
X252192Y111395D01*
X252175Y111323D01*
X252155Y111252D01*
X252131Y111181D01*
X252103Y111112D01*
X252072Y111045D01*
X252038Y110979D01*
X252000Y110914D01*
X251959Y110852D01*
X251915Y110792D01*
X251868Y110735D01*
X251818Y110680D01*
X251765Y110627D01*
X251710Y110577D01*
X251653Y110530D01*
X251593Y110486D01*
X251531Y110445D01*
X251466Y110407D01*
X251401Y110373D01*
X251333Y110342D01*
X251264Y110314D01*
X251193Y110290D01*
X251122Y110270D01*
X251050Y110253D01*
X250976Y110240D01*
X250903Y110231D01*
X250828Y110225D01*
X250754Y110223D01*
X250754Y110224D02*
X247086Y110224D01*
X247086Y110223D02*
X247012Y110225D01*
X246937Y110231D01*
X246864Y110240D01*
X246790Y110253D01*
X246718Y110270D01*
X246647Y110290D01*
X246576Y110314D01*
X246507Y110342D01*
X246440Y110373D01*
X246374Y110407D01*
X246309Y110445D01*
X246247Y110486D01*
X246187Y110530D01*
X246130Y110577D01*
X246075Y110627D01*
X246022Y110680D01*
X245972Y110735D01*
X245925Y110792D01*
X245881Y110852D01*
X245840Y110914D01*
X245802Y110979D01*
X245768Y111044D01*
X245737Y111112D01*
X245709Y111181D01*
X245685Y111252D01*
X245665Y111323D01*
X245648Y111395D01*
X245635Y111469D01*
X245626Y111542D01*
X245620Y111617D01*
X245618Y111691D01*
X245618Y113159D01*
X247086Y115965D02*
X245618Y117800D01*
X252222Y117800D01*
X252222Y119634D02*
X252222Y115965D01*
X247086Y122823D02*
X245618Y124658D01*
X252222Y124658D01*
X252222Y126492D02*
X252222Y122823D01*
X295841Y189738D02*
X297309Y189738D01*
X295841Y189738D02*
X295767Y189740D01*
X295692Y189746D01*
X295619Y189755D01*
X295545Y189768D01*
X295473Y189785D01*
X295402Y189805D01*
X295331Y189829D01*
X295262Y189857D01*
X295195Y189888D01*
X295129Y189922D01*
X295064Y189960D01*
X295002Y190001D01*
X294942Y190045D01*
X294885Y190092D01*
X294830Y190142D01*
X294777Y190195D01*
X294727Y190250D01*
X294680Y190307D01*
X294636Y190367D01*
X294595Y190429D01*
X294557Y190494D01*
X294523Y190560D01*
X294492Y190627D01*
X294464Y190696D01*
X294440Y190767D01*
X294420Y190838D01*
X294403Y190910D01*
X294390Y190984D01*
X294381Y191057D01*
X294375Y191132D01*
X294373Y191206D01*
X294374Y191206D02*
X294374Y194874D01*
X294373Y194874D02*
X294375Y194948D01*
X294381Y195023D01*
X294390Y195096D01*
X294403Y195170D01*
X294420Y195242D01*
X294440Y195313D01*
X294464Y195384D01*
X294492Y195453D01*
X294523Y195520D01*
X294557Y195586D01*
X294595Y195651D01*
X294636Y195713D01*
X294680Y195773D01*
X294727Y195830D01*
X294777Y195885D01*
X294830Y195938D01*
X294885Y195988D01*
X294942Y196035D01*
X295002Y196079D01*
X295064Y196120D01*
X295129Y196158D01*
X295194Y196192D01*
X295262Y196223D01*
X295331Y196251D01*
X295402Y196275D01*
X295473Y196295D01*
X295545Y196312D01*
X295619Y196325D01*
X295692Y196334D01*
X295767Y196340D01*
X295841Y196342D01*
X297309Y196342D01*
X300115Y194874D02*
X301950Y196342D01*
X301950Y189738D01*
X303784Y189738D02*
X300115Y189738D01*
X308991Y196342D02*
X309070Y196340D01*
X309148Y196335D01*
X309226Y196325D01*
X309303Y196312D01*
X309380Y196295D01*
X309456Y196275D01*
X309531Y196251D01*
X309605Y196224D01*
X309677Y196193D01*
X309748Y196158D01*
X309817Y196121D01*
X309884Y196080D01*
X309949Y196036D01*
X310012Y195989D01*
X310072Y195939D01*
X310130Y195886D01*
X310186Y195830D01*
X310239Y195772D01*
X310289Y195712D01*
X310336Y195649D01*
X310380Y195584D01*
X310421Y195517D01*
X310458Y195448D01*
X310493Y195377D01*
X310524Y195305D01*
X310551Y195231D01*
X310575Y195156D01*
X310595Y195080D01*
X310612Y195003D01*
X310625Y194926D01*
X310635Y194848D01*
X310640Y194770D01*
X310642Y194691D01*
X308991Y196342D02*
X308902Y196340D01*
X308813Y196335D01*
X308725Y196325D01*
X308637Y196312D01*
X308550Y196296D01*
X308463Y196275D01*
X308378Y196251D01*
X308293Y196224D01*
X308210Y196193D01*
X308128Y196158D01*
X308047Y196120D01*
X307968Y196079D01*
X307892Y196035D01*
X307816Y195987D01*
X307743Y195936D01*
X307673Y195883D01*
X307604Y195826D01*
X307538Y195766D01*
X307475Y195704D01*
X307414Y195639D01*
X307356Y195572D01*
X307301Y195502D01*
X307248Y195430D01*
X307199Y195356D01*
X307153Y195280D01*
X307111Y195202D01*
X307071Y195122D01*
X307035Y195041D01*
X307002Y194958D01*
X306973Y194874D01*
X310092Y193407D02*
X310148Y193463D01*
X310202Y193522D01*
X310253Y193583D01*
X310302Y193647D01*
X310347Y193712D01*
X310390Y193780D01*
X310429Y193849D01*
X310466Y193920D01*
X310499Y193993D01*
X310528Y194067D01*
X310555Y194142D01*
X310578Y194218D01*
X310597Y194296D01*
X310613Y194374D01*
X310626Y194452D01*
X310635Y194532D01*
X310640Y194611D01*
X310642Y194691D01*
X310092Y193407D02*
X306973Y189738D01*
X310642Y189738D01*
X300525Y91694D02*
X299488Y90656D01*
X299434Y90605D01*
X299378Y90556D01*
X299319Y90511D01*
X299258Y90468D01*
X299195Y90429D01*
X299130Y90393D01*
X299063Y90360D01*
X298995Y90331D01*
X298925Y90305D01*
X298854Y90283D01*
X298782Y90264D01*
X298709Y90249D01*
X298635Y90238D01*
X298561Y90230D01*
X298487Y90226D01*
X298413Y90226D01*
X298339Y90230D01*
X298265Y90238D01*
X298191Y90249D01*
X298118Y90264D01*
X298046Y90283D01*
X297975Y90305D01*
X297905Y90331D01*
X297837Y90360D01*
X297770Y90393D01*
X297705Y90429D01*
X297642Y90468D01*
X297581Y90511D01*
X297522Y90556D01*
X297466Y90605D01*
X297412Y90656D01*
X294818Y93250D01*
X294767Y93304D01*
X294718Y93360D01*
X294673Y93419D01*
X294630Y93480D01*
X294591Y93543D01*
X294555Y93608D01*
X294522Y93675D01*
X294493Y93743D01*
X294467Y93813D01*
X294445Y93884D01*
X294426Y93956D01*
X294411Y94029D01*
X294400Y94103D01*
X294392Y94177D01*
X294388Y94251D01*
X294388Y94325D01*
X294392Y94399D01*
X294400Y94473D01*
X294411Y94547D01*
X294426Y94620D01*
X294445Y94692D01*
X294467Y94763D01*
X294493Y94833D01*
X294522Y94901D01*
X294555Y94968D01*
X294591Y95033D01*
X294630Y95096D01*
X294673Y95157D01*
X294718Y95216D01*
X294767Y95272D01*
X294818Y95326D01*
X295856Y96364D01*
X298878Y97310D02*
X299137Y99645D01*
X303807Y94975D01*
X302510Y93678D02*
X305104Y96273D01*
X307359Y98528D02*
X308656Y99825D01*
X308714Y99886D01*
X308770Y99950D01*
X308823Y100017D01*
X308872Y100086D01*
X308918Y100157D01*
X308961Y100230D01*
X309001Y100305D01*
X309037Y100381D01*
X309069Y100459D01*
X309098Y100539D01*
X309123Y100620D01*
X309144Y100702D01*
X309162Y100785D01*
X309175Y100869D01*
X309185Y100953D01*
X309191Y101037D01*
X309193Y101122D01*
X309191Y101207D01*
X309185Y101291D01*
X309175Y101375D01*
X309162Y101459D01*
X309144Y101542D01*
X309123Y101624D01*
X309098Y101705D01*
X309069Y101785D01*
X309037Y101863D01*
X309001Y101939D01*
X308961Y102014D01*
X308918Y102087D01*
X308872Y102158D01*
X308823Y102227D01*
X308770Y102294D01*
X308714Y102358D01*
X308656Y102419D01*
X308595Y102477D01*
X308531Y102533D01*
X308464Y102586D01*
X308395Y102635D01*
X308324Y102681D01*
X308251Y102724D01*
X308176Y102764D01*
X308100Y102800D01*
X308022Y102832D01*
X307942Y102861D01*
X307861Y102886D01*
X307779Y102907D01*
X307696Y102925D01*
X307612Y102938D01*
X307528Y102948D01*
X307444Y102954D01*
X307359Y102956D01*
X307274Y102954D01*
X307190Y102948D01*
X307106Y102938D01*
X307022Y102925D01*
X306939Y102907D01*
X306857Y102886D01*
X306776Y102861D01*
X306696Y102832D01*
X306618Y102800D01*
X306542Y102764D01*
X306467Y102724D01*
X306394Y102681D01*
X306323Y102635D01*
X306254Y102586D01*
X306187Y102533D01*
X306123Y102477D01*
X306062Y102419D01*
X304246Y104754D02*
X302689Y103197D01*
X304246Y104754D02*
X304301Y104806D01*
X304358Y104855D01*
X304418Y104901D01*
X304480Y104944D01*
X304545Y104984D01*
X304611Y105021D01*
X304679Y105053D01*
X304749Y105083D01*
X304820Y105109D01*
X304892Y105131D01*
X304965Y105149D01*
X305039Y105163D01*
X305114Y105174D01*
X305190Y105181D01*
X305265Y105184D01*
X305341Y105183D01*
X305416Y105178D01*
X305491Y105169D01*
X305566Y105157D01*
X305640Y105140D01*
X305712Y105120D01*
X305784Y105096D01*
X305854Y105069D01*
X305923Y105037D01*
X305991Y105003D01*
X306056Y104965D01*
X306119Y104923D01*
X306180Y104879D01*
X306239Y104831D01*
X306295Y104780D01*
X306348Y104727D01*
X306399Y104671D01*
X306447Y104612D01*
X306491Y104551D01*
X306533Y104488D01*
X306571Y104423D01*
X306605Y104355D01*
X306637Y104286D01*
X306664Y104216D01*
X306688Y104144D01*
X306708Y104072D01*
X306725Y103998D01*
X306737Y103923D01*
X306746Y103848D01*
X306751Y103773D01*
X306752Y103697D01*
X306749Y103622D01*
X306742Y103546D01*
X306731Y103471D01*
X306717Y103397D01*
X306699Y103324D01*
X306677Y103252D01*
X306651Y103181D01*
X306621Y103111D01*
X306589Y103043D01*
X306552Y102977D01*
X306512Y102912D01*
X306469Y102850D01*
X306423Y102790D01*
X306374Y102733D01*
X306322Y102678D01*
X306321Y102678D02*
X305284Y101641D01*
D12*
X39854Y270917D02*
X38777Y269839D01*
X38721Y269786D01*
X38662Y269736D01*
X38601Y269689D01*
X38538Y269645D01*
X38472Y269604D01*
X38405Y269566D01*
X38335Y269532D01*
X38264Y269502D01*
X38192Y269475D01*
X38118Y269452D01*
X38044Y269432D01*
X37968Y269417D01*
X37892Y269405D01*
X37815Y269397D01*
X37738Y269393D01*
X37660Y269393D01*
X37583Y269397D01*
X37506Y269405D01*
X37430Y269417D01*
X37355Y269432D01*
X37280Y269452D01*
X37206Y269475D01*
X37134Y269502D01*
X37063Y269532D01*
X36993Y269566D01*
X36926Y269604D01*
X36860Y269644D01*
X36797Y269689D01*
X36736Y269736D01*
X36677Y269786D01*
X36621Y269839D01*
X33927Y272533D01*
X33874Y272589D01*
X33824Y272648D01*
X33777Y272709D01*
X33733Y272772D01*
X33692Y272838D01*
X33654Y272905D01*
X33620Y272975D01*
X33590Y273046D01*
X33563Y273118D01*
X33540Y273192D01*
X33520Y273267D01*
X33505Y273342D01*
X33493Y273418D01*
X33485Y273495D01*
X33481Y273572D01*
X33481Y273650D01*
X33485Y273727D01*
X33493Y273804D01*
X33505Y273880D01*
X33520Y273956D01*
X33540Y274030D01*
X33563Y274104D01*
X33590Y274176D01*
X33620Y274247D01*
X33654Y274317D01*
X33692Y274384D01*
X33733Y274450D01*
X33777Y274513D01*
X33824Y274574D01*
X33874Y274633D01*
X33927Y274689D01*
X33927Y274688D02*
X35005Y275766D01*
X37984Y276590D02*
X38254Y279015D01*
X43103Y274165D01*
X41756Y272818D02*
X44450Y275512D01*
X45528Y278745D02*
X42833Y283595D01*
X45528Y278745D02*
X48222Y281439D01*
X48491Y279554D02*
X46336Y281709D01*
D10*
X280438Y109706D02*
X281475Y110744D01*
X280438Y109706D02*
X280384Y109655D01*
X280328Y109606D01*
X280269Y109561D01*
X280208Y109518D01*
X280145Y109479D01*
X280080Y109443D01*
X280013Y109410D01*
X279945Y109381D01*
X279875Y109355D01*
X279804Y109333D01*
X279732Y109314D01*
X279659Y109299D01*
X279585Y109288D01*
X279511Y109280D01*
X279437Y109276D01*
X279363Y109276D01*
X279289Y109280D01*
X279215Y109288D01*
X279141Y109299D01*
X279068Y109314D01*
X278996Y109333D01*
X278925Y109355D01*
X278855Y109381D01*
X278787Y109410D01*
X278720Y109443D01*
X278655Y109479D01*
X278592Y109518D01*
X278531Y109561D01*
X278472Y109606D01*
X278416Y109655D01*
X278362Y109706D01*
X275768Y112300D01*
X275717Y112354D01*
X275668Y112410D01*
X275623Y112469D01*
X275580Y112530D01*
X275541Y112593D01*
X275505Y112658D01*
X275472Y112725D01*
X275443Y112793D01*
X275417Y112863D01*
X275395Y112934D01*
X275376Y113006D01*
X275361Y113079D01*
X275350Y113153D01*
X275342Y113227D01*
X275338Y113301D01*
X275338Y113375D01*
X275342Y113449D01*
X275350Y113523D01*
X275361Y113597D01*
X275376Y113670D01*
X275395Y113742D01*
X275417Y113813D01*
X275443Y113883D01*
X275472Y113951D01*
X275505Y114018D01*
X275541Y114083D01*
X275580Y114146D01*
X275623Y114207D01*
X275668Y114266D01*
X275717Y114322D01*
X275768Y114376D01*
X276806Y115414D01*
X279828Y116360D02*
X280087Y118695D01*
X284757Y114025D01*
X283460Y112728D02*
X286054Y115323D01*
X284158Y121728D02*
X283639Y122247D01*
X286234Y124842D01*
X289606Y118875D01*
X240926Y113374D02*
X239888Y112336D01*
X239834Y112285D01*
X239778Y112236D01*
X239719Y112191D01*
X239658Y112148D01*
X239595Y112109D01*
X239530Y112073D01*
X239463Y112040D01*
X239395Y112011D01*
X239325Y111985D01*
X239254Y111963D01*
X239182Y111944D01*
X239109Y111929D01*
X239035Y111918D01*
X238961Y111910D01*
X238887Y111906D01*
X238813Y111906D01*
X238739Y111910D01*
X238665Y111918D01*
X238591Y111929D01*
X238518Y111944D01*
X238446Y111963D01*
X238375Y111985D01*
X238305Y112011D01*
X238237Y112040D01*
X238170Y112073D01*
X238105Y112109D01*
X238042Y112148D01*
X237981Y112191D01*
X237922Y112236D01*
X237866Y112285D01*
X237812Y112336D01*
X237813Y112336D02*
X235218Y114931D01*
X235218Y114930D02*
X235167Y114984D01*
X235118Y115040D01*
X235073Y115099D01*
X235030Y115160D01*
X234991Y115223D01*
X234955Y115288D01*
X234922Y115355D01*
X234893Y115423D01*
X234867Y115493D01*
X234845Y115564D01*
X234826Y115636D01*
X234811Y115709D01*
X234800Y115783D01*
X234792Y115857D01*
X234788Y115931D01*
X234788Y116005D01*
X234792Y116079D01*
X234800Y116153D01*
X234811Y116227D01*
X234826Y116300D01*
X234845Y116372D01*
X234867Y116443D01*
X234893Y116513D01*
X234922Y116581D01*
X234955Y116648D01*
X234991Y116713D01*
X235030Y116776D01*
X235073Y116837D01*
X235118Y116896D01*
X235167Y116952D01*
X235218Y117006D01*
X236256Y118044D01*
X239278Y118991D02*
X239537Y121325D01*
X244207Y116656D01*
X242910Y115359D02*
X245504Y117953D01*
X246462Y121505D02*
X246404Y121566D01*
X246348Y121630D01*
X246295Y121697D01*
X246246Y121766D01*
X246200Y121837D01*
X246157Y121910D01*
X246117Y121985D01*
X246081Y122061D01*
X246049Y122139D01*
X246020Y122219D01*
X245995Y122300D01*
X245974Y122382D01*
X245956Y122465D01*
X245943Y122549D01*
X245933Y122633D01*
X245927Y122717D01*
X245925Y122802D01*
X245927Y122887D01*
X245933Y122971D01*
X245943Y123055D01*
X245956Y123139D01*
X245974Y123222D01*
X245995Y123304D01*
X246020Y123385D01*
X246049Y123465D01*
X246081Y123543D01*
X246117Y123619D01*
X246157Y123694D01*
X246200Y123767D01*
X246246Y123838D01*
X246295Y123907D01*
X246348Y123974D01*
X246404Y124038D01*
X246462Y124099D01*
X246523Y124157D01*
X246587Y124213D01*
X246654Y124266D01*
X246723Y124315D01*
X246794Y124361D01*
X246867Y124404D01*
X246942Y124444D01*
X247018Y124480D01*
X247096Y124512D01*
X247176Y124541D01*
X247257Y124566D01*
X247339Y124587D01*
X247422Y124605D01*
X247506Y124618D01*
X247590Y124628D01*
X247674Y124634D01*
X247759Y124636D01*
X247844Y124634D01*
X247928Y124628D01*
X248012Y124618D01*
X248096Y124605D01*
X248179Y124587D01*
X248261Y124566D01*
X248342Y124541D01*
X248422Y124512D01*
X248500Y124480D01*
X248576Y124444D01*
X248651Y124404D01*
X248724Y124361D01*
X248795Y124315D01*
X248864Y124266D01*
X248931Y124213D01*
X248995Y124157D01*
X249056Y124099D01*
X249114Y124038D01*
X249170Y123974D01*
X249223Y123907D01*
X249272Y123838D01*
X249318Y123767D01*
X249361Y123694D01*
X249401Y123619D01*
X249437Y123543D01*
X249469Y123465D01*
X249498Y123385D01*
X249523Y123304D01*
X249544Y123222D01*
X249562Y123139D01*
X249575Y123055D01*
X249585Y122971D01*
X249591Y122887D01*
X249593Y122802D01*
X249591Y122717D01*
X249585Y122633D01*
X249575Y122549D01*
X249562Y122465D01*
X249544Y122382D01*
X249523Y122300D01*
X249498Y122219D01*
X249469Y122139D01*
X249437Y122061D01*
X249401Y121985D01*
X249361Y121910D01*
X249318Y121837D01*
X249272Y121766D01*
X249223Y121697D01*
X249170Y121630D01*
X249114Y121566D01*
X249056Y121505D01*
X248995Y121447D01*
X248931Y121391D01*
X248864Y121338D01*
X248795Y121289D01*
X248724Y121243D01*
X248651Y121200D01*
X248576Y121160D01*
X248500Y121124D01*
X248422Y121092D01*
X248342Y121063D01*
X248261Y121038D01*
X248179Y121017D01*
X248096Y120999D01*
X248012Y120986D01*
X247928Y120976D01*
X247844Y120970D01*
X247759Y120968D01*
X247674Y120970D01*
X247590Y120976D01*
X247506Y120986D01*
X247422Y120999D01*
X247339Y121017D01*
X247257Y121038D01*
X247176Y121063D01*
X247096Y121092D01*
X247018Y121124D01*
X246942Y121160D01*
X246867Y121200D01*
X246794Y121243D01*
X246723Y121289D01*
X246654Y121338D01*
X246587Y121391D01*
X246523Y121447D01*
X246462Y121505D01*
X244386Y124099D02*
X244334Y124154D01*
X244285Y124211D01*
X244239Y124271D01*
X244196Y124333D01*
X244156Y124398D01*
X244119Y124464D01*
X244087Y124532D01*
X244057Y124602D01*
X244031Y124673D01*
X244009Y124745D01*
X243991Y124818D01*
X243977Y124892D01*
X243966Y124967D01*
X243959Y125043D01*
X243956Y125118D01*
X243957Y125194D01*
X243962Y125269D01*
X243971Y125344D01*
X243983Y125419D01*
X244000Y125493D01*
X244020Y125565D01*
X244044Y125637D01*
X244071Y125707D01*
X244103Y125776D01*
X244137Y125844D01*
X244175Y125909D01*
X244217Y125972D01*
X244261Y126033D01*
X244309Y126092D01*
X244360Y126148D01*
X244413Y126201D01*
X244469Y126252D01*
X244528Y126300D01*
X244589Y126344D01*
X244652Y126386D01*
X244717Y126424D01*
X244785Y126458D01*
X244853Y126490D01*
X244924Y126517D01*
X244996Y126541D01*
X245068Y126561D01*
X245142Y126578D01*
X245217Y126590D01*
X245292Y126599D01*
X245367Y126604D01*
X245443Y126605D01*
X245518Y126602D01*
X245594Y126595D01*
X245669Y126584D01*
X245743Y126570D01*
X245816Y126552D01*
X245888Y126530D01*
X245959Y126504D01*
X246029Y126474D01*
X246097Y126442D01*
X246163Y126405D01*
X246228Y126365D01*
X246290Y126322D01*
X246350Y126276D01*
X246407Y126227D01*
X246462Y126175D01*
X246514Y126120D01*
X246563Y126063D01*
X246609Y126003D01*
X246652Y125941D01*
X246692Y125876D01*
X246729Y125810D01*
X246761Y125742D01*
X246791Y125673D01*
X246817Y125601D01*
X246839Y125529D01*
X246857Y125456D01*
X246871Y125382D01*
X246882Y125307D01*
X246889Y125231D01*
X246892Y125156D01*
X246891Y125080D01*
X246886Y125005D01*
X246877Y124930D01*
X246865Y124855D01*
X246848Y124781D01*
X246828Y124709D01*
X246804Y124637D01*
X246777Y124567D01*
X246745Y124498D01*
X246711Y124430D01*
X246673Y124365D01*
X246631Y124302D01*
X246587Y124241D01*
X246539Y124182D01*
X246488Y124126D01*
X246435Y124073D01*
X246379Y124022D01*
X246320Y123974D01*
X246259Y123930D01*
X246196Y123888D01*
X246131Y123850D01*
X246063Y123816D01*
X245995Y123784D01*
X245924Y123757D01*
X245852Y123733D01*
X245780Y123713D01*
X245706Y123696D01*
X245631Y123684D01*
X245556Y123675D01*
X245481Y123670D01*
X245405Y123669D01*
X245330Y123672D01*
X245254Y123679D01*
X245179Y123690D01*
X245105Y123704D01*
X245032Y123722D01*
X244960Y123744D01*
X244889Y123770D01*
X244819Y123800D01*
X244751Y123832D01*
X244685Y123869D01*
X244620Y123909D01*
X244558Y123952D01*
X244498Y123998D01*
X244441Y124047D01*
X244386Y124099D01*
X254896Y107024D02*
X253858Y105986D01*
X253804Y105935D01*
X253748Y105886D01*
X253689Y105841D01*
X253628Y105798D01*
X253565Y105759D01*
X253500Y105723D01*
X253433Y105690D01*
X253365Y105661D01*
X253295Y105635D01*
X253224Y105613D01*
X253152Y105594D01*
X253079Y105579D01*
X253005Y105568D01*
X252931Y105560D01*
X252857Y105556D01*
X252783Y105556D01*
X252709Y105560D01*
X252635Y105568D01*
X252561Y105579D01*
X252488Y105594D01*
X252416Y105613D01*
X252345Y105635D01*
X252275Y105661D01*
X252207Y105690D01*
X252140Y105723D01*
X252075Y105759D01*
X252012Y105798D01*
X251951Y105841D01*
X251892Y105886D01*
X251836Y105935D01*
X251782Y105986D01*
X251783Y105986D02*
X249188Y108581D01*
X249188Y108580D02*
X249137Y108634D01*
X249088Y108690D01*
X249043Y108749D01*
X249000Y108810D01*
X248961Y108873D01*
X248925Y108938D01*
X248892Y109005D01*
X248863Y109073D01*
X248837Y109143D01*
X248815Y109214D01*
X248796Y109286D01*
X248781Y109359D01*
X248770Y109433D01*
X248762Y109507D01*
X248758Y109581D01*
X248758Y109655D01*
X248762Y109729D01*
X248770Y109803D01*
X248781Y109877D01*
X248796Y109950D01*
X248815Y110022D01*
X248837Y110093D01*
X248863Y110163D01*
X248892Y110231D01*
X248925Y110298D01*
X248961Y110363D01*
X249000Y110426D01*
X249043Y110487D01*
X249088Y110546D01*
X249137Y110602D01*
X249188Y110656D01*
X250226Y111694D01*
X253248Y112641D02*
X253507Y114975D01*
X258177Y110306D01*
X256880Y109009D02*
X259474Y111603D01*
X260692Y116971D02*
X262248Y118527D01*
X260692Y116971D02*
X260638Y116920D01*
X260582Y116871D01*
X260523Y116826D01*
X260462Y116783D01*
X260399Y116744D01*
X260334Y116708D01*
X260267Y116675D01*
X260199Y116646D01*
X260129Y116620D01*
X260058Y116598D01*
X259986Y116579D01*
X259913Y116564D01*
X259839Y116553D01*
X259765Y116545D01*
X259691Y116541D01*
X259617Y116541D01*
X259543Y116545D01*
X259469Y116553D01*
X259395Y116564D01*
X259322Y116579D01*
X259250Y116598D01*
X259179Y116620D01*
X259109Y116646D01*
X259041Y116675D01*
X258974Y116708D01*
X258909Y116744D01*
X258846Y116783D01*
X258785Y116826D01*
X258726Y116871D01*
X258670Y116920D01*
X258616Y116971D01*
X258357Y117230D01*
X258299Y117291D01*
X258243Y117355D01*
X258190Y117422D01*
X258141Y117491D01*
X258095Y117562D01*
X258052Y117635D01*
X258012Y117710D01*
X257976Y117786D01*
X257944Y117864D01*
X257915Y117944D01*
X257890Y118025D01*
X257869Y118107D01*
X257851Y118190D01*
X257838Y118274D01*
X257828Y118358D01*
X257822Y118442D01*
X257820Y118527D01*
X257822Y118612D01*
X257828Y118696D01*
X257838Y118780D01*
X257851Y118864D01*
X257869Y118947D01*
X257890Y119029D01*
X257915Y119110D01*
X257944Y119190D01*
X257976Y119268D01*
X258012Y119344D01*
X258052Y119419D01*
X258095Y119492D01*
X258141Y119563D01*
X258190Y119632D01*
X258243Y119699D01*
X258299Y119763D01*
X258357Y119824D01*
X258418Y119882D01*
X258482Y119938D01*
X258549Y119991D01*
X258618Y120040D01*
X258689Y120086D01*
X258762Y120129D01*
X258837Y120169D01*
X258913Y120205D01*
X258991Y120237D01*
X259071Y120266D01*
X259152Y120291D01*
X259234Y120312D01*
X259317Y120330D01*
X259401Y120343D01*
X259485Y120353D01*
X259569Y120359D01*
X259654Y120361D01*
X259739Y120359D01*
X259823Y120353D01*
X259907Y120343D01*
X259991Y120330D01*
X260074Y120312D01*
X260156Y120291D01*
X260237Y120266D01*
X260317Y120237D01*
X260395Y120205D01*
X260471Y120169D01*
X260546Y120129D01*
X260619Y120086D01*
X260690Y120040D01*
X260759Y119991D01*
X260826Y119938D01*
X260890Y119882D01*
X260951Y119824D01*
X260951Y119825D02*
X262248Y118527D01*
X262323Y118450D01*
X262394Y118370D01*
X262463Y118288D01*
X262528Y118203D01*
X262591Y118116D01*
X262650Y118026D01*
X262706Y117935D01*
X262758Y117841D01*
X262807Y117746D01*
X262853Y117649D01*
X262895Y117550D01*
X262933Y117450D01*
X262968Y117349D01*
X262999Y117246D01*
X263026Y117142D01*
X263049Y117038D01*
X263068Y116932D01*
X263084Y116826D01*
X263096Y116720D01*
X263104Y116613D01*
X263108Y116506D01*
X263108Y116398D01*
X263104Y116291D01*
X263096Y116184D01*
X263084Y116078D01*
X263068Y115972D01*
X263049Y115866D01*
X263026Y115762D01*
X262999Y115658D01*
X262968Y115555D01*
X262933Y115454D01*
X262895Y115354D01*
X262853Y115255D01*
X262807Y115158D01*
X262758Y115063D01*
X262706Y114969D01*
X262650Y114878D01*
X262591Y114788D01*
X262528Y114701D01*
X262463Y114616D01*
X262394Y114534D01*
X262323Y114454D01*
X262248Y114377D01*
X212283Y215809D02*
X211245Y216847D01*
X211245Y216846D02*
X211194Y216900D01*
X211145Y216956D01*
X211100Y217015D01*
X211057Y217076D01*
X211018Y217139D01*
X210982Y217204D01*
X210949Y217271D01*
X210920Y217339D01*
X210894Y217409D01*
X210872Y217480D01*
X210853Y217552D01*
X210838Y217625D01*
X210827Y217699D01*
X210819Y217773D01*
X210815Y217847D01*
X210815Y217921D01*
X210819Y217995D01*
X210827Y218069D01*
X210838Y218143D01*
X210853Y218216D01*
X210872Y218288D01*
X210894Y218359D01*
X210920Y218429D01*
X210949Y218497D01*
X210982Y218564D01*
X211018Y218629D01*
X211057Y218692D01*
X211100Y218753D01*
X211145Y218812D01*
X211194Y218868D01*
X211245Y218922D01*
X213840Y221516D01*
X213839Y221517D02*
X213893Y221568D01*
X213949Y221617D01*
X214008Y221662D01*
X214069Y221705D01*
X214132Y221744D01*
X214197Y221780D01*
X214264Y221813D01*
X214332Y221842D01*
X214402Y221868D01*
X214473Y221890D01*
X214545Y221909D01*
X214618Y221924D01*
X214692Y221935D01*
X214766Y221943D01*
X214840Y221947D01*
X214914Y221947D01*
X214988Y221943D01*
X215062Y221935D01*
X215136Y221924D01*
X215209Y221909D01*
X215281Y221890D01*
X215352Y221868D01*
X215422Y221842D01*
X215490Y221813D01*
X215557Y221780D01*
X215622Y221744D01*
X215685Y221705D01*
X215746Y221662D01*
X215805Y221617D01*
X215861Y221568D01*
X215915Y221517D01*
X215915Y221516D02*
X216953Y220479D01*
X220364Y217067D02*
X220419Y217011D01*
X220470Y216951D01*
X220519Y216889D01*
X220564Y216825D01*
X220607Y216759D01*
X220646Y216691D01*
X220682Y216621D01*
X220715Y216550D01*
X220744Y216477D01*
X220770Y216403D01*
X220792Y216327D01*
X220810Y216251D01*
X220825Y216174D01*
X220836Y216096D01*
X220844Y216018D01*
X220848Y215939D01*
X220848Y215861D01*
X220844Y215782D01*
X220836Y215704D01*
X220825Y215626D01*
X220810Y215549D01*
X220792Y215473D01*
X220770Y215397D01*
X220744Y215323D01*
X220715Y215250D01*
X220682Y215179D01*
X220646Y215109D01*
X220607Y215041D01*
X220564Y214975D01*
X220519Y214911D01*
X220470Y214849D01*
X220419Y214789D01*
X220364Y214733D01*
X220364Y217068D02*
X220300Y217129D01*
X220233Y217188D01*
X220164Y217244D01*
X220092Y217297D01*
X220019Y217347D01*
X219943Y217394D01*
X219866Y217437D01*
X219787Y217478D01*
X219706Y217515D01*
X219623Y217548D01*
X219540Y217578D01*
X219455Y217605D01*
X219369Y217628D01*
X219282Y217647D01*
X219195Y217663D01*
X219107Y217675D01*
X219018Y217683D01*
X218929Y217688D01*
X218840Y217689D01*
X218752Y217686D01*
X218663Y217679D01*
X218575Y217669D01*
X218487Y217655D01*
X218400Y217638D01*
X218313Y217616D01*
X218228Y217591D01*
X218144Y217563D01*
X218061Y217531D01*
X217979Y217496D01*
X217899Y217457D01*
X219067Y214214D02*
X219147Y214213D01*
X219226Y214217D01*
X219306Y214224D01*
X219385Y214234D01*
X219463Y214249D01*
X219541Y214266D01*
X219618Y214287D01*
X219694Y214312D01*
X219769Y214340D01*
X219842Y214371D01*
X219914Y214406D01*
X219984Y214444D01*
X220053Y214484D01*
X220120Y214528D01*
X220184Y214575D01*
X220247Y214625D01*
X220307Y214677D01*
X220364Y214733D01*
X219067Y214214D02*
X214267Y213824D01*
X216862Y211230D01*
X230356Y49762D02*
X231394Y48725D01*
X230356Y49762D02*
X230305Y49816D01*
X230256Y49872D01*
X230211Y49931D01*
X230168Y49992D01*
X230129Y50055D01*
X230093Y50120D01*
X230060Y50187D01*
X230031Y50255D01*
X230005Y50325D01*
X229983Y50396D01*
X229964Y50468D01*
X229949Y50541D01*
X229938Y50615D01*
X229930Y50689D01*
X229926Y50763D01*
X229926Y50837D01*
X229930Y50911D01*
X229938Y50985D01*
X229949Y51059D01*
X229964Y51132D01*
X229983Y51204D01*
X230005Y51275D01*
X230031Y51345D01*
X230060Y51413D01*
X230093Y51480D01*
X230129Y51545D01*
X230168Y51608D01*
X230211Y51669D01*
X230256Y51728D01*
X230305Y51784D01*
X230356Y51838D01*
X232950Y54432D01*
X233004Y54483D01*
X233060Y54532D01*
X233119Y54577D01*
X233180Y54620D01*
X233243Y54659D01*
X233308Y54695D01*
X233375Y54728D01*
X233443Y54757D01*
X233513Y54783D01*
X233584Y54805D01*
X233656Y54824D01*
X233729Y54839D01*
X233803Y54850D01*
X233877Y54858D01*
X233951Y54862D01*
X234025Y54862D01*
X234099Y54858D01*
X234173Y54850D01*
X234247Y54839D01*
X234320Y54824D01*
X234392Y54805D01*
X234463Y54783D01*
X234533Y54757D01*
X234601Y54728D01*
X234668Y54695D01*
X234733Y54659D01*
X234796Y54620D01*
X234857Y54577D01*
X234916Y54532D01*
X234972Y54483D01*
X235026Y54432D01*
X236064Y53394D01*
X239474Y49983D02*
X239529Y49927D01*
X239580Y49867D01*
X239629Y49805D01*
X239674Y49741D01*
X239717Y49675D01*
X239756Y49607D01*
X239792Y49537D01*
X239825Y49466D01*
X239854Y49393D01*
X239880Y49319D01*
X239902Y49243D01*
X239920Y49167D01*
X239935Y49090D01*
X239946Y49012D01*
X239954Y48934D01*
X239958Y48855D01*
X239958Y48777D01*
X239954Y48698D01*
X239946Y48620D01*
X239935Y48542D01*
X239920Y48465D01*
X239902Y48389D01*
X239880Y48313D01*
X239854Y48239D01*
X239825Y48166D01*
X239792Y48095D01*
X239756Y48025D01*
X239717Y47957D01*
X239674Y47891D01*
X239629Y47827D01*
X239580Y47765D01*
X239529Y47705D01*
X239474Y47649D01*
X239475Y49983D02*
X239411Y50044D01*
X239344Y50103D01*
X239275Y50159D01*
X239203Y50212D01*
X239130Y50262D01*
X239054Y50309D01*
X238977Y50352D01*
X238898Y50393D01*
X238817Y50430D01*
X238734Y50463D01*
X238651Y50493D01*
X238566Y50520D01*
X238480Y50543D01*
X238393Y50562D01*
X238306Y50578D01*
X238218Y50590D01*
X238129Y50598D01*
X238040Y50603D01*
X237951Y50604D01*
X237863Y50601D01*
X237774Y50594D01*
X237686Y50584D01*
X237598Y50570D01*
X237511Y50553D01*
X237424Y50531D01*
X237339Y50506D01*
X237255Y50478D01*
X237172Y50446D01*
X237090Y50411D01*
X237010Y50372D01*
X238178Y47129D02*
X238258Y47128D01*
X238337Y47132D01*
X238417Y47139D01*
X238496Y47149D01*
X238574Y47164D01*
X238652Y47181D01*
X238729Y47202D01*
X238805Y47227D01*
X238880Y47255D01*
X238953Y47286D01*
X239025Y47321D01*
X239095Y47359D01*
X239164Y47399D01*
X239231Y47443D01*
X239295Y47490D01*
X239358Y47540D01*
X239418Y47592D01*
X239475Y47648D01*
X238178Y47129D02*
X233378Y46740D01*
X235973Y44146D01*
X240563Y44225D02*
X240667Y44326D01*
X240774Y44425D01*
X240883Y44520D01*
X240995Y44613D01*
X241109Y44703D01*
X241226Y44789D01*
X241344Y44873D01*
X241465Y44953D01*
X241589Y45030D01*
X241714Y45104D01*
X241841Y45174D01*
X241970Y45241D01*
X242100Y45304D01*
X242233Y45364D01*
X242366Y45420D01*
X242502Y45473D01*
X242638Y45522D01*
X242637Y45523D02*
X242704Y45553D01*
X242772Y45580D01*
X242841Y45603D01*
X242912Y45622D01*
X242984Y45638D01*
X243056Y45649D01*
X243129Y45657D01*
X243202Y45661D01*
X243275Y45660D01*
X243348Y45656D01*
X243421Y45648D01*
X243493Y45636D01*
X243565Y45620D01*
X243635Y45600D01*
X243705Y45577D01*
X243773Y45550D01*
X243839Y45519D01*
X243904Y45484D01*
X243966Y45447D01*
X244027Y45405D01*
X244085Y45361D01*
X244141Y45314D01*
X244194Y45263D01*
X244195Y45263D02*
X244245Y45209D01*
X244292Y45154D01*
X244337Y45095D01*
X244378Y45035D01*
X244416Y44972D01*
X244450Y44908D01*
X244481Y44841D01*
X244508Y44773D01*
X244531Y44704D01*
X244551Y44634D01*
X244567Y44562D01*
X244579Y44490D01*
X244587Y44417D01*
X244591Y44344D01*
X244592Y44271D01*
X244588Y44198D01*
X244580Y44125D01*
X244569Y44053D01*
X244553Y43981D01*
X244534Y43911D01*
X244511Y43841D01*
X244484Y43773D01*
X244454Y43706D01*
X244405Y43570D01*
X244352Y43434D01*
X244296Y43301D01*
X244236Y43168D01*
X244173Y43038D01*
X244106Y42909D01*
X244036Y42782D01*
X243962Y42657D01*
X243885Y42533D01*
X243805Y42412D01*
X243721Y42294D01*
X243635Y42177D01*
X243545Y42063D01*
X243452Y41951D01*
X243357Y41842D01*
X243258Y41735D01*
X243157Y41631D01*
X240563Y44225D02*
X240462Y44121D01*
X240363Y44014D01*
X240268Y43905D01*
X240175Y43793D01*
X240085Y43679D01*
X239999Y43562D01*
X239915Y43444D01*
X239835Y43323D01*
X239758Y43200D01*
X239685Y43074D01*
X239614Y42947D01*
X239547Y42818D01*
X239484Y42688D01*
X239424Y42556D01*
X239368Y42422D01*
X239315Y42286D01*
X239266Y42150D01*
X239236Y42083D01*
X239209Y42015D01*
X239186Y41945D01*
X239167Y41875D01*
X239151Y41803D01*
X239140Y41731D01*
X239132Y41658D01*
X239128Y41585D01*
X239129Y41512D01*
X239133Y41439D01*
X239141Y41366D01*
X239153Y41294D01*
X239169Y41222D01*
X239189Y41152D01*
X239212Y41083D01*
X239239Y41015D01*
X239270Y40948D01*
X239304Y40884D01*
X239342Y40821D01*
X239383Y40761D01*
X239428Y40702D01*
X239475Y40647D01*
X239525Y40593D01*
X241081Y40335D02*
X241217Y40384D01*
X241353Y40437D01*
X241486Y40493D01*
X241619Y40553D01*
X241749Y40616D01*
X241878Y40683D01*
X242005Y40753D01*
X242130Y40827D01*
X242254Y40904D01*
X242375Y40984D01*
X242493Y41068D01*
X242610Y41154D01*
X242724Y41244D01*
X242836Y41337D01*
X242945Y41432D01*
X243052Y41531D01*
X243156Y41632D01*
X241081Y40334D02*
X241015Y40304D01*
X240947Y40277D01*
X240877Y40254D01*
X240807Y40235D01*
X240735Y40219D01*
X240663Y40208D01*
X240590Y40200D01*
X240517Y40196D01*
X240444Y40197D01*
X240371Y40201D01*
X240298Y40209D01*
X240226Y40221D01*
X240154Y40237D01*
X240084Y40257D01*
X240015Y40280D01*
X239947Y40307D01*
X239880Y40338D01*
X239816Y40372D01*
X239753Y40410D01*
X239693Y40451D01*
X239634Y40496D01*
X239579Y40543D01*
X239525Y40593D01*
X239525Y42669D02*
X244194Y43188D01*
X52392Y61384D02*
X51354Y60346D01*
X51300Y60295D01*
X51244Y60246D01*
X51185Y60201D01*
X51124Y60158D01*
X51061Y60119D01*
X50996Y60083D01*
X50929Y60050D01*
X50861Y60021D01*
X50791Y59995D01*
X50720Y59973D01*
X50648Y59954D01*
X50575Y59939D01*
X50501Y59928D01*
X50427Y59920D01*
X50353Y59916D01*
X50279Y59916D01*
X50205Y59920D01*
X50131Y59928D01*
X50057Y59939D01*
X49984Y59954D01*
X49912Y59973D01*
X49841Y59995D01*
X49771Y60021D01*
X49703Y60050D01*
X49636Y60083D01*
X49571Y60119D01*
X49508Y60158D01*
X49447Y60201D01*
X49388Y60246D01*
X49332Y60295D01*
X49278Y60346D01*
X46684Y62940D01*
X46633Y62994D01*
X46584Y63050D01*
X46539Y63109D01*
X46496Y63170D01*
X46457Y63233D01*
X46421Y63298D01*
X46388Y63365D01*
X46359Y63433D01*
X46333Y63503D01*
X46311Y63574D01*
X46292Y63646D01*
X46277Y63719D01*
X46266Y63793D01*
X46258Y63867D01*
X46254Y63941D01*
X46254Y64015D01*
X46258Y64089D01*
X46266Y64163D01*
X46277Y64237D01*
X46292Y64310D01*
X46311Y64382D01*
X46333Y64453D01*
X46359Y64523D01*
X46388Y64591D01*
X46421Y64658D01*
X46457Y64723D01*
X46496Y64786D01*
X46539Y64847D01*
X46584Y64906D01*
X46633Y64962D01*
X46684Y65016D01*
X47722Y66053D01*
X51134Y69464D02*
X51190Y69519D01*
X51250Y69570D01*
X51312Y69619D01*
X51376Y69664D01*
X51442Y69707D01*
X51510Y69746D01*
X51580Y69782D01*
X51651Y69815D01*
X51724Y69844D01*
X51798Y69870D01*
X51874Y69892D01*
X51950Y69910D01*
X52027Y69925D01*
X52105Y69936D01*
X52183Y69944D01*
X52262Y69948D01*
X52340Y69948D01*
X52419Y69944D01*
X52497Y69936D01*
X52575Y69925D01*
X52652Y69910D01*
X52728Y69892D01*
X52804Y69870D01*
X52878Y69844D01*
X52951Y69815D01*
X53022Y69782D01*
X53092Y69746D01*
X53160Y69707D01*
X53226Y69664D01*
X53290Y69619D01*
X53352Y69570D01*
X53412Y69519D01*
X53468Y69464D01*
X51133Y69465D02*
X51072Y69401D01*
X51013Y69334D01*
X50957Y69265D01*
X50904Y69193D01*
X50854Y69120D01*
X50807Y69044D01*
X50764Y68967D01*
X50723Y68888D01*
X50686Y68807D01*
X50653Y68724D01*
X50623Y68641D01*
X50596Y68556D01*
X50573Y68470D01*
X50554Y68383D01*
X50538Y68296D01*
X50526Y68208D01*
X50518Y68119D01*
X50513Y68030D01*
X50512Y67941D01*
X50515Y67853D01*
X50522Y67764D01*
X50532Y67676D01*
X50546Y67588D01*
X50563Y67501D01*
X50585Y67414D01*
X50610Y67329D01*
X50638Y67245D01*
X50670Y67162D01*
X50705Y67080D01*
X50744Y67000D01*
X53987Y68168D02*
X53988Y68248D01*
X53984Y68327D01*
X53977Y68407D01*
X53967Y68486D01*
X53952Y68564D01*
X53935Y68642D01*
X53914Y68719D01*
X53889Y68795D01*
X53861Y68870D01*
X53830Y68943D01*
X53795Y69015D01*
X53757Y69085D01*
X53717Y69154D01*
X53673Y69221D01*
X53626Y69285D01*
X53576Y69348D01*
X53524Y69408D01*
X53468Y69465D01*
X53987Y68168D02*
X54376Y63368D01*
X56970Y65962D01*
X55593Y71849D02*
X55853Y74184D01*
X60522Y69515D01*
X59225Y68217D02*
X61820Y70812D01*
X228858Y61380D02*
X229895Y60342D01*
X228857Y61380D02*
X228806Y61434D01*
X228757Y61490D01*
X228712Y61549D01*
X228669Y61610D01*
X228630Y61673D01*
X228594Y61738D01*
X228561Y61805D01*
X228532Y61873D01*
X228506Y61943D01*
X228484Y62014D01*
X228465Y62086D01*
X228450Y62159D01*
X228439Y62233D01*
X228431Y62307D01*
X228427Y62381D01*
X228427Y62455D01*
X228431Y62529D01*
X228439Y62603D01*
X228450Y62677D01*
X228465Y62750D01*
X228484Y62822D01*
X228506Y62893D01*
X228532Y62963D01*
X228561Y63031D01*
X228594Y63098D01*
X228630Y63163D01*
X228669Y63226D01*
X228712Y63287D01*
X228757Y63346D01*
X228806Y63402D01*
X228857Y63456D01*
X228858Y63456D02*
X231452Y66050D01*
X231506Y66101D01*
X231562Y66150D01*
X231621Y66195D01*
X231682Y66238D01*
X231745Y66277D01*
X231810Y66313D01*
X231877Y66346D01*
X231945Y66375D01*
X232015Y66401D01*
X232086Y66423D01*
X232158Y66442D01*
X232231Y66457D01*
X232305Y66468D01*
X232379Y66476D01*
X232453Y66480D01*
X232527Y66480D01*
X232601Y66476D01*
X232675Y66468D01*
X232749Y66457D01*
X232822Y66442D01*
X232894Y66423D01*
X232965Y66401D01*
X233035Y66375D01*
X233103Y66346D01*
X233170Y66313D01*
X233235Y66277D01*
X233298Y66238D01*
X233359Y66195D01*
X233418Y66150D01*
X233474Y66101D01*
X233528Y66050D01*
X233527Y66050D02*
X234565Y65012D01*
X237976Y61600D02*
X238031Y61544D01*
X238082Y61484D01*
X238131Y61422D01*
X238176Y61358D01*
X238219Y61292D01*
X238258Y61224D01*
X238294Y61154D01*
X238327Y61083D01*
X238356Y61010D01*
X238382Y60936D01*
X238404Y60860D01*
X238422Y60784D01*
X238437Y60707D01*
X238448Y60629D01*
X238456Y60551D01*
X238460Y60472D01*
X238460Y60394D01*
X238456Y60315D01*
X238448Y60237D01*
X238437Y60159D01*
X238422Y60082D01*
X238404Y60006D01*
X238382Y59930D01*
X238356Y59856D01*
X238327Y59783D01*
X238294Y59712D01*
X238258Y59642D01*
X238219Y59574D01*
X238176Y59508D01*
X238131Y59444D01*
X238082Y59382D01*
X238031Y59322D01*
X237976Y59266D01*
X237977Y61601D02*
X237913Y61662D01*
X237846Y61721D01*
X237777Y61777D01*
X237705Y61830D01*
X237632Y61880D01*
X237556Y61927D01*
X237479Y61970D01*
X237400Y62011D01*
X237319Y62048D01*
X237236Y62081D01*
X237153Y62111D01*
X237068Y62138D01*
X236982Y62161D01*
X236895Y62180D01*
X236808Y62196D01*
X236720Y62208D01*
X236631Y62216D01*
X236542Y62221D01*
X236453Y62222D01*
X236365Y62219D01*
X236276Y62212D01*
X236188Y62202D01*
X236100Y62188D01*
X236013Y62171D01*
X235926Y62149D01*
X235841Y62124D01*
X235757Y62096D01*
X235674Y62064D01*
X235592Y62029D01*
X235512Y61990D01*
X236679Y58747D02*
X236759Y58746D01*
X236838Y58750D01*
X236918Y58757D01*
X236997Y58767D01*
X237075Y58782D01*
X237153Y58799D01*
X237230Y58820D01*
X237306Y58845D01*
X237381Y58873D01*
X237454Y58904D01*
X237526Y58939D01*
X237596Y58977D01*
X237665Y59017D01*
X237732Y59061D01*
X237796Y59108D01*
X237859Y59158D01*
X237919Y59210D01*
X237976Y59266D01*
X236679Y58747D02*
X231880Y58358D01*
X234474Y55764D01*
X242825Y56751D02*
X242880Y56695D01*
X242931Y56635D01*
X242980Y56573D01*
X243025Y56509D01*
X243068Y56443D01*
X243107Y56375D01*
X243143Y56305D01*
X243176Y56234D01*
X243205Y56161D01*
X243231Y56087D01*
X243253Y56011D01*
X243271Y55935D01*
X243286Y55858D01*
X243297Y55780D01*
X243305Y55702D01*
X243309Y55623D01*
X243309Y55545D01*
X243305Y55466D01*
X243297Y55388D01*
X243286Y55310D01*
X243271Y55233D01*
X243253Y55157D01*
X243231Y55081D01*
X243205Y55007D01*
X243176Y54934D01*
X243143Y54863D01*
X243107Y54793D01*
X243068Y54725D01*
X243025Y54659D01*
X242980Y54595D01*
X242931Y54533D01*
X242880Y54473D01*
X242825Y54417D01*
X242826Y56752D02*
X242762Y56813D01*
X242695Y56872D01*
X242626Y56928D01*
X242554Y56981D01*
X242481Y57031D01*
X242405Y57078D01*
X242328Y57121D01*
X242249Y57162D01*
X242168Y57199D01*
X242085Y57232D01*
X242002Y57262D01*
X241917Y57289D01*
X241831Y57312D01*
X241744Y57331D01*
X241657Y57347D01*
X241569Y57359D01*
X241480Y57367D01*
X241391Y57372D01*
X241302Y57373D01*
X241214Y57370D01*
X241125Y57363D01*
X241037Y57353D01*
X240949Y57339D01*
X240862Y57322D01*
X240775Y57300D01*
X240690Y57275D01*
X240606Y57247D01*
X240523Y57215D01*
X240441Y57180D01*
X240361Y57141D01*
X241529Y53898D02*
X241609Y53897D01*
X241688Y53901D01*
X241768Y53908D01*
X241847Y53918D01*
X241925Y53933D01*
X242003Y53950D01*
X242080Y53971D01*
X242156Y53996D01*
X242231Y54024D01*
X242304Y54055D01*
X242376Y54090D01*
X242446Y54128D01*
X242515Y54168D01*
X242582Y54212D01*
X242646Y54259D01*
X242709Y54309D01*
X242769Y54361D01*
X242826Y54417D01*
X241529Y53898D02*
X236729Y53509D01*
X239323Y50914D01*
X464312Y112199D02*
X464312Y113667D01*
X464312Y112199D02*
X464310Y112125D01*
X464304Y112050D01*
X464295Y111977D01*
X464282Y111903D01*
X464265Y111831D01*
X464245Y111760D01*
X464221Y111689D01*
X464193Y111620D01*
X464162Y111553D01*
X464128Y111487D01*
X464090Y111422D01*
X464049Y111360D01*
X464005Y111300D01*
X463958Y111243D01*
X463908Y111188D01*
X463855Y111135D01*
X463800Y111085D01*
X463743Y111038D01*
X463683Y110994D01*
X463621Y110953D01*
X463556Y110915D01*
X463491Y110881D01*
X463423Y110850D01*
X463354Y110822D01*
X463283Y110798D01*
X463212Y110778D01*
X463140Y110761D01*
X463066Y110748D01*
X462993Y110739D01*
X462918Y110733D01*
X462844Y110731D01*
X462844Y110732D02*
X459176Y110732D01*
X459176Y110731D02*
X459102Y110733D01*
X459027Y110739D01*
X458954Y110748D01*
X458880Y110761D01*
X458808Y110778D01*
X458737Y110798D01*
X458666Y110822D01*
X458597Y110850D01*
X458530Y110881D01*
X458464Y110915D01*
X458399Y110953D01*
X458337Y110994D01*
X458277Y111038D01*
X458220Y111085D01*
X458165Y111135D01*
X458112Y111188D01*
X458062Y111243D01*
X458015Y111300D01*
X457971Y111360D01*
X457930Y111422D01*
X457892Y111487D01*
X457858Y111552D01*
X457827Y111620D01*
X457799Y111689D01*
X457775Y111760D01*
X457755Y111831D01*
X457738Y111903D01*
X457725Y111977D01*
X457716Y112050D01*
X457710Y112125D01*
X457708Y112199D01*
X457708Y113667D01*
X462478Y116474D02*
X462393Y116476D01*
X462309Y116482D01*
X462225Y116492D01*
X462141Y116505D01*
X462058Y116523D01*
X461976Y116544D01*
X461895Y116569D01*
X461815Y116598D01*
X461737Y116630D01*
X461661Y116666D01*
X461586Y116706D01*
X461513Y116749D01*
X461442Y116795D01*
X461373Y116844D01*
X461306Y116897D01*
X461242Y116953D01*
X461181Y117011D01*
X461123Y117072D01*
X461067Y117136D01*
X461014Y117203D01*
X460965Y117272D01*
X460919Y117343D01*
X460876Y117416D01*
X460836Y117491D01*
X460800Y117567D01*
X460768Y117645D01*
X460739Y117725D01*
X460714Y117806D01*
X460693Y117888D01*
X460675Y117971D01*
X460662Y118055D01*
X460652Y118139D01*
X460646Y118223D01*
X460644Y118308D01*
X460646Y118393D01*
X460652Y118477D01*
X460662Y118561D01*
X460675Y118645D01*
X460693Y118728D01*
X460714Y118810D01*
X460739Y118891D01*
X460768Y118971D01*
X460800Y119049D01*
X460836Y119125D01*
X460876Y119200D01*
X460919Y119273D01*
X460965Y119344D01*
X461014Y119413D01*
X461067Y119480D01*
X461123Y119544D01*
X461181Y119605D01*
X461242Y119663D01*
X461306Y119719D01*
X461373Y119772D01*
X461442Y119821D01*
X461513Y119867D01*
X461586Y119910D01*
X461661Y119950D01*
X461737Y119986D01*
X461815Y120018D01*
X461895Y120047D01*
X461976Y120072D01*
X462058Y120093D01*
X462141Y120111D01*
X462225Y120124D01*
X462309Y120134D01*
X462393Y120140D01*
X462478Y120142D01*
X462563Y120140D01*
X462647Y120134D01*
X462731Y120124D01*
X462815Y120111D01*
X462898Y120093D01*
X462980Y120072D01*
X463061Y120047D01*
X463141Y120018D01*
X463219Y119986D01*
X463295Y119950D01*
X463370Y119910D01*
X463443Y119867D01*
X463514Y119821D01*
X463583Y119772D01*
X463650Y119719D01*
X463714Y119663D01*
X463775Y119605D01*
X463833Y119544D01*
X463889Y119480D01*
X463942Y119413D01*
X463991Y119344D01*
X464037Y119273D01*
X464080Y119200D01*
X464120Y119125D01*
X464156Y119049D01*
X464188Y118971D01*
X464217Y118891D01*
X464242Y118810D01*
X464263Y118728D01*
X464281Y118645D01*
X464294Y118561D01*
X464304Y118477D01*
X464310Y118393D01*
X464312Y118308D01*
X464310Y118223D01*
X464304Y118139D01*
X464294Y118055D01*
X464281Y117971D01*
X464263Y117888D01*
X464242Y117806D01*
X464217Y117725D01*
X464188Y117645D01*
X464156Y117567D01*
X464120Y117491D01*
X464080Y117416D01*
X464037Y117343D01*
X463991Y117272D01*
X463942Y117203D01*
X463889Y117136D01*
X463833Y117072D01*
X463775Y117011D01*
X463714Y116953D01*
X463650Y116897D01*
X463583Y116844D01*
X463514Y116795D01*
X463443Y116749D01*
X463370Y116706D01*
X463295Y116666D01*
X463219Y116630D01*
X463141Y116598D01*
X463061Y116569D01*
X462980Y116544D01*
X462898Y116523D01*
X462815Y116505D01*
X462731Y116492D01*
X462647Y116482D01*
X462563Y116476D01*
X462478Y116474D01*
X459176Y116840D02*
X459100Y116842D01*
X459025Y116848D01*
X458950Y116857D01*
X458876Y116871D01*
X458802Y116888D01*
X458730Y116910D01*
X458658Y116934D01*
X458588Y116963D01*
X458520Y116995D01*
X458453Y117030D01*
X458388Y117069D01*
X458325Y117112D01*
X458265Y117157D01*
X458207Y117205D01*
X458151Y117257D01*
X458099Y117311D01*
X458049Y117368D01*
X458002Y117427D01*
X457958Y117488D01*
X457917Y117552D01*
X457880Y117618D01*
X457846Y117686D01*
X457816Y117755D01*
X457789Y117826D01*
X457766Y117898D01*
X457747Y117971D01*
X457732Y118045D01*
X457720Y118120D01*
X457712Y118195D01*
X457708Y118270D01*
X457708Y118346D01*
X457712Y118421D01*
X457720Y118496D01*
X457732Y118571D01*
X457747Y118645D01*
X457766Y118718D01*
X457789Y118790D01*
X457816Y118861D01*
X457846Y118930D01*
X457880Y118998D01*
X457917Y119064D01*
X457958Y119128D01*
X458002Y119189D01*
X458049Y119248D01*
X458099Y119305D01*
X458151Y119359D01*
X458207Y119411D01*
X458265Y119459D01*
X458325Y119504D01*
X458388Y119547D01*
X458453Y119586D01*
X458520Y119621D01*
X458588Y119653D01*
X458658Y119682D01*
X458730Y119706D01*
X458802Y119728D01*
X458876Y119745D01*
X458950Y119759D01*
X459025Y119768D01*
X459100Y119774D01*
X459176Y119776D01*
X459252Y119774D01*
X459327Y119768D01*
X459402Y119759D01*
X459476Y119745D01*
X459550Y119728D01*
X459622Y119706D01*
X459694Y119682D01*
X459764Y119653D01*
X459832Y119621D01*
X459899Y119586D01*
X459964Y119547D01*
X460027Y119504D01*
X460087Y119459D01*
X460145Y119411D01*
X460201Y119359D01*
X460253Y119305D01*
X460303Y119248D01*
X460350Y119189D01*
X460394Y119128D01*
X460435Y119064D01*
X460472Y118998D01*
X460506Y118930D01*
X460536Y118861D01*
X460563Y118790D01*
X460586Y118718D01*
X460605Y118645D01*
X460620Y118571D01*
X460632Y118496D01*
X460640Y118421D01*
X460644Y118346D01*
X460644Y118270D01*
X460640Y118195D01*
X460632Y118120D01*
X460620Y118045D01*
X460605Y117971D01*
X460586Y117898D01*
X460563Y117826D01*
X460536Y117755D01*
X460506Y117686D01*
X460472Y117618D01*
X460435Y117552D01*
X460394Y117488D01*
X460350Y117427D01*
X460303Y117368D01*
X460253Y117311D01*
X460201Y117257D01*
X460145Y117205D01*
X460087Y117157D01*
X460027Y117112D01*
X459964Y117069D01*
X459899Y117030D01*
X459832Y116995D01*
X459764Y116963D01*
X459694Y116934D01*
X459622Y116910D01*
X459550Y116888D01*
X459476Y116871D01*
X459402Y116857D01*
X459327Y116848D01*
X459252Y116842D01*
X459176Y116840D01*
X473187Y187886D02*
X473187Y189353D01*
X473187Y187886D02*
X473185Y187812D01*
X473179Y187737D01*
X473170Y187664D01*
X473157Y187590D01*
X473140Y187518D01*
X473120Y187447D01*
X473096Y187376D01*
X473068Y187307D01*
X473037Y187240D01*
X473003Y187174D01*
X472965Y187109D01*
X472924Y187047D01*
X472880Y186987D01*
X472833Y186930D01*
X472783Y186875D01*
X472730Y186822D01*
X472675Y186772D01*
X472618Y186725D01*
X472558Y186681D01*
X472496Y186640D01*
X472431Y186602D01*
X472366Y186568D01*
X472298Y186537D01*
X472229Y186509D01*
X472158Y186485D01*
X472087Y186465D01*
X472015Y186448D01*
X471941Y186435D01*
X471868Y186426D01*
X471793Y186420D01*
X471719Y186418D01*
X468051Y186418D01*
X467977Y186420D01*
X467902Y186426D01*
X467829Y186435D01*
X467755Y186448D01*
X467683Y186465D01*
X467612Y186485D01*
X467541Y186509D01*
X467472Y186537D01*
X467405Y186568D01*
X467339Y186602D01*
X467274Y186640D01*
X467212Y186681D01*
X467152Y186725D01*
X467095Y186772D01*
X467040Y186822D01*
X466987Y186875D01*
X466937Y186930D01*
X466890Y186987D01*
X466846Y187047D01*
X466805Y187109D01*
X466767Y187174D01*
X466733Y187239D01*
X466702Y187307D01*
X466674Y187376D01*
X466650Y187447D01*
X466630Y187518D01*
X466613Y187590D01*
X466600Y187664D01*
X466591Y187737D01*
X466585Y187812D01*
X466583Y187886D01*
X466583Y189353D01*
X470252Y193627D02*
X470252Y195828D01*
X470252Y193627D02*
X470250Y193553D01*
X470244Y193478D01*
X470235Y193405D01*
X470222Y193331D01*
X470205Y193259D01*
X470185Y193188D01*
X470161Y193117D01*
X470133Y193048D01*
X470102Y192980D01*
X470068Y192915D01*
X470030Y192850D01*
X469989Y192788D01*
X469945Y192728D01*
X469898Y192671D01*
X469848Y192616D01*
X469795Y192563D01*
X469740Y192513D01*
X469683Y192466D01*
X469623Y192422D01*
X469561Y192381D01*
X469496Y192343D01*
X469430Y192309D01*
X469363Y192278D01*
X469294Y192250D01*
X469223Y192226D01*
X469152Y192206D01*
X469079Y192189D01*
X469006Y192176D01*
X468932Y192167D01*
X468858Y192161D01*
X468784Y192159D01*
X468784Y192160D02*
X468417Y192160D01*
X468332Y192162D01*
X468248Y192168D01*
X468164Y192178D01*
X468080Y192191D01*
X467997Y192209D01*
X467915Y192230D01*
X467834Y192255D01*
X467754Y192284D01*
X467676Y192316D01*
X467600Y192352D01*
X467525Y192392D01*
X467452Y192435D01*
X467381Y192481D01*
X467312Y192530D01*
X467245Y192583D01*
X467181Y192639D01*
X467120Y192697D01*
X467062Y192758D01*
X467006Y192822D01*
X466953Y192889D01*
X466904Y192958D01*
X466858Y193029D01*
X466815Y193102D01*
X466775Y193177D01*
X466739Y193253D01*
X466707Y193331D01*
X466678Y193411D01*
X466653Y193492D01*
X466632Y193574D01*
X466614Y193657D01*
X466601Y193741D01*
X466591Y193825D01*
X466585Y193909D01*
X466583Y193994D01*
X466585Y194079D01*
X466591Y194163D01*
X466601Y194247D01*
X466614Y194331D01*
X466632Y194414D01*
X466653Y194496D01*
X466678Y194577D01*
X466707Y194657D01*
X466739Y194735D01*
X466775Y194811D01*
X466815Y194886D01*
X466858Y194959D01*
X466904Y195030D01*
X466953Y195099D01*
X467006Y195166D01*
X467062Y195230D01*
X467120Y195291D01*
X467181Y195349D01*
X467245Y195405D01*
X467312Y195458D01*
X467381Y195507D01*
X467452Y195553D01*
X467525Y195596D01*
X467600Y195636D01*
X467676Y195672D01*
X467754Y195704D01*
X467834Y195733D01*
X467915Y195758D01*
X467997Y195779D01*
X468080Y195797D01*
X468164Y195810D01*
X468248Y195820D01*
X468332Y195826D01*
X468417Y195828D01*
X470252Y195828D01*
X470359Y195826D01*
X470466Y195820D01*
X470573Y195810D01*
X470679Y195797D01*
X470785Y195779D01*
X470890Y195758D01*
X470994Y195733D01*
X471098Y195704D01*
X471200Y195671D01*
X471300Y195634D01*
X471400Y195594D01*
X471498Y195550D01*
X471594Y195503D01*
X471688Y195452D01*
X471781Y195398D01*
X471871Y195341D01*
X471960Y195280D01*
X472046Y195216D01*
X472129Y195149D01*
X472211Y195079D01*
X472289Y195006D01*
X472365Y194930D01*
X472438Y194852D01*
X472508Y194770D01*
X472575Y194687D01*
X472639Y194601D01*
X472700Y194512D01*
X472757Y194422D01*
X472811Y194329D01*
X472862Y194235D01*
X472910Y194139D01*
X472953Y194041D01*
X472993Y193941D01*
X473030Y193841D01*
X473063Y193739D01*
X473092Y193635D01*
X473117Y193531D01*
X473138Y193426D01*
X473156Y193320D01*
X473169Y193214D01*
X473179Y193107D01*
X473185Y193000D01*
X473187Y192893D01*
D13*
X37179Y231634D02*
X37181Y231697D01*
X37187Y231759D01*
X37197Y231821D01*
X37210Y231883D01*
X37228Y231943D01*
X37249Y232002D01*
X37274Y232060D01*
X37303Y232116D01*
X37335Y232170D01*
X37370Y232222D01*
X37408Y232271D01*
X37450Y232319D01*
X37494Y232363D01*
X37542Y232405D01*
X37591Y232443D01*
X37643Y232478D01*
X37697Y232510D01*
X37753Y232539D01*
X37811Y232564D01*
X37870Y232585D01*
X37930Y232603D01*
X37992Y232616D01*
X38054Y232626D01*
X38116Y232632D01*
X38179Y232634D01*
X38242Y232632D01*
X38304Y232626D01*
X38366Y232616D01*
X38428Y232603D01*
X38488Y232585D01*
X38547Y232564D01*
X38605Y232539D01*
X38661Y232510D01*
X38715Y232478D01*
X38767Y232443D01*
X38816Y232405D01*
X38864Y232363D01*
X38908Y232319D01*
X38950Y232271D01*
X38988Y232222D01*
X39023Y232170D01*
X39055Y232116D01*
X39084Y232060D01*
X39109Y232002D01*
X39130Y231943D01*
X39148Y231883D01*
X39161Y231821D01*
X39171Y231759D01*
X39177Y231697D01*
X39179Y231634D01*
X39177Y231571D01*
X39171Y231509D01*
X39161Y231447D01*
X39148Y231385D01*
X39130Y231325D01*
X39109Y231266D01*
X39084Y231208D01*
X39055Y231152D01*
X39023Y231098D01*
X38988Y231046D01*
X38950Y230997D01*
X38908Y230949D01*
X38864Y230905D01*
X38816Y230863D01*
X38767Y230825D01*
X38715Y230790D01*
X38661Y230758D01*
X38605Y230729D01*
X38547Y230704D01*
X38488Y230683D01*
X38428Y230665D01*
X38366Y230652D01*
X38304Y230642D01*
X38242Y230636D01*
X38179Y230634D01*
X38116Y230636D01*
X38054Y230642D01*
X37992Y230652D01*
X37930Y230665D01*
X37870Y230683D01*
X37811Y230704D01*
X37753Y230729D01*
X37697Y230758D01*
X37643Y230790D01*
X37591Y230825D01*
X37542Y230863D01*
X37494Y230905D01*
X37450Y230949D01*
X37408Y230997D01*
X37370Y231046D01*
X37335Y231098D01*
X37303Y231152D01*
X37274Y231208D01*
X37249Y231266D01*
X37228Y231325D01*
X37210Y231385D01*
X37197Y231447D01*
X37187Y231509D01*
X37181Y231571D01*
X37179Y231634D01*
D14*
X51437Y251186D02*
X79014Y278763D01*
X113663Y244114D02*
X86086Y216537D01*
D10*
X36366Y240145D02*
X31697Y244815D01*
X36885Y240664D02*
X35848Y239626D01*
X31178Y244296D02*
X32216Y245334D01*
X39968Y243746D02*
X41005Y244784D01*
X39968Y243746D02*
X39914Y243695D01*
X39858Y243646D01*
X39799Y243601D01*
X39738Y243558D01*
X39675Y243519D01*
X39610Y243483D01*
X39543Y243450D01*
X39475Y243421D01*
X39405Y243395D01*
X39334Y243373D01*
X39262Y243354D01*
X39189Y243339D01*
X39115Y243328D01*
X39041Y243320D01*
X38967Y243316D01*
X38893Y243316D01*
X38819Y243320D01*
X38745Y243328D01*
X38671Y243339D01*
X38598Y243354D01*
X38526Y243373D01*
X38455Y243395D01*
X38385Y243421D01*
X38317Y243450D01*
X38250Y243483D01*
X38185Y243519D01*
X38122Y243558D01*
X38061Y243601D01*
X38002Y243646D01*
X37946Y243695D01*
X37892Y243746D01*
X35298Y246341D01*
X35298Y246340D02*
X35247Y246394D01*
X35198Y246450D01*
X35153Y246509D01*
X35110Y246570D01*
X35071Y246633D01*
X35035Y246698D01*
X35002Y246765D01*
X34973Y246833D01*
X34947Y246903D01*
X34925Y246974D01*
X34906Y247046D01*
X34891Y247119D01*
X34880Y247193D01*
X34872Y247267D01*
X34868Y247341D01*
X34868Y247415D01*
X34872Y247489D01*
X34880Y247563D01*
X34891Y247637D01*
X34906Y247710D01*
X34925Y247782D01*
X34947Y247853D01*
X34973Y247923D01*
X35002Y247991D01*
X35035Y248058D01*
X35071Y248123D01*
X35110Y248186D01*
X35153Y248247D01*
X35198Y248306D01*
X35247Y248362D01*
X35298Y248416D01*
X36336Y249454D01*
X39747Y252865D02*
X39803Y252920D01*
X39863Y252971D01*
X39925Y253020D01*
X39989Y253065D01*
X40055Y253108D01*
X40123Y253147D01*
X40193Y253183D01*
X40264Y253216D01*
X40337Y253245D01*
X40411Y253271D01*
X40487Y253293D01*
X40563Y253311D01*
X40640Y253326D01*
X40718Y253337D01*
X40796Y253345D01*
X40875Y253349D01*
X40953Y253349D01*
X41032Y253345D01*
X41110Y253337D01*
X41188Y253326D01*
X41265Y253311D01*
X41341Y253293D01*
X41417Y253271D01*
X41491Y253245D01*
X41564Y253216D01*
X41635Y253183D01*
X41705Y253147D01*
X41773Y253108D01*
X41839Y253065D01*
X41903Y253020D01*
X41965Y252971D01*
X42025Y252920D01*
X42081Y252865D01*
X39747Y252865D02*
X39686Y252801D01*
X39627Y252734D01*
X39571Y252665D01*
X39518Y252593D01*
X39468Y252520D01*
X39421Y252444D01*
X39378Y252367D01*
X39337Y252288D01*
X39300Y252207D01*
X39267Y252124D01*
X39237Y252041D01*
X39210Y251956D01*
X39187Y251870D01*
X39168Y251783D01*
X39152Y251696D01*
X39140Y251608D01*
X39132Y251519D01*
X39127Y251430D01*
X39126Y251341D01*
X39129Y251253D01*
X39136Y251164D01*
X39146Y251076D01*
X39160Y250988D01*
X39177Y250901D01*
X39199Y250814D01*
X39224Y250729D01*
X39252Y250645D01*
X39284Y250562D01*
X39319Y250480D01*
X39358Y250400D01*
X42601Y251568D02*
X42602Y251648D01*
X42598Y251727D01*
X42591Y251807D01*
X42581Y251886D01*
X42566Y251964D01*
X42549Y252042D01*
X42528Y252119D01*
X42503Y252195D01*
X42475Y252270D01*
X42444Y252343D01*
X42409Y252415D01*
X42371Y252485D01*
X42331Y252554D01*
X42287Y252621D01*
X42240Y252685D01*
X42190Y252748D01*
X42138Y252808D01*
X42082Y252865D01*
X42601Y251568D02*
X42990Y246769D01*
X45584Y249363D01*
X106959Y51073D02*
X102289Y46403D01*
X104365Y44327D01*
X112414Y43283D02*
X112469Y43339D01*
X112520Y43399D01*
X112569Y43461D01*
X112614Y43525D01*
X112657Y43591D01*
X112696Y43659D01*
X112732Y43729D01*
X112765Y43800D01*
X112794Y43873D01*
X112820Y43947D01*
X112842Y44023D01*
X112860Y44099D01*
X112875Y44176D01*
X112886Y44254D01*
X112894Y44332D01*
X112898Y44411D01*
X112898Y44489D01*
X112894Y44568D01*
X112886Y44646D01*
X112875Y44724D01*
X112860Y44801D01*
X112842Y44877D01*
X112820Y44953D01*
X112794Y45027D01*
X112765Y45100D01*
X112732Y45171D01*
X112696Y45241D01*
X112657Y45309D01*
X112614Y45375D01*
X112569Y45439D01*
X112520Y45501D01*
X112469Y45561D01*
X112414Y45617D01*
X112414Y45618D02*
X112350Y45679D01*
X112283Y45738D01*
X112214Y45794D01*
X112142Y45847D01*
X112069Y45897D01*
X111993Y45944D01*
X111916Y45987D01*
X111837Y46028D01*
X111756Y46065D01*
X111673Y46098D01*
X111590Y46128D01*
X111505Y46155D01*
X111419Y46178D01*
X111332Y46197D01*
X111245Y46213D01*
X111157Y46225D01*
X111068Y46233D01*
X110979Y46238D01*
X110890Y46239D01*
X110802Y46236D01*
X110713Y46229D01*
X110625Y46219D01*
X110537Y46205D01*
X110450Y46188D01*
X110363Y46166D01*
X110278Y46141D01*
X110194Y46113D01*
X110111Y46081D01*
X110029Y46046D01*
X109949Y46007D01*
X111117Y42764D02*
X111197Y42763D01*
X111276Y42767D01*
X111356Y42774D01*
X111435Y42784D01*
X111513Y42799D01*
X111591Y42816D01*
X111668Y42837D01*
X111744Y42862D01*
X111819Y42890D01*
X111892Y42921D01*
X111964Y42956D01*
X112034Y42994D01*
X112103Y43034D01*
X112170Y43078D01*
X112234Y43125D01*
X112297Y43175D01*
X112357Y43227D01*
X112414Y43283D01*
X111117Y42764D02*
X106317Y42374D01*
X108912Y39780D01*
D12*
X191039Y95250D02*
X194990Y99201D01*
X191039Y95250D02*
X192795Y93494D01*
X194396Y91892D02*
X195494Y90795D01*
X195495Y90795D02*
X195551Y90741D01*
X195609Y90691D01*
X195670Y90643D01*
X195734Y90599D01*
X195799Y90558D01*
X195867Y90520D01*
X195936Y90485D01*
X196007Y90454D01*
X196079Y90427D01*
X196153Y90403D01*
X196228Y90383D01*
X196303Y90367D01*
X196380Y90355D01*
X196457Y90346D01*
X196534Y90341D01*
X196611Y90340D01*
X196689Y90343D01*
X196766Y90350D01*
X196842Y90360D01*
X196918Y90375D01*
X196994Y90393D01*
X197068Y90415D01*
X197141Y90440D01*
X197213Y90469D01*
X197283Y90502D01*
X197351Y90538D01*
X197418Y90578D01*
X197482Y90621D01*
X197544Y90667D01*
X197604Y90716D01*
X197662Y90768D01*
X197716Y90822D01*
X197768Y90880D01*
X197817Y90940D01*
X197863Y91002D01*
X197906Y91066D01*
X197946Y91133D01*
X197982Y91201D01*
X198015Y91271D01*
X198044Y91343D01*
X198069Y91416D01*
X198091Y91490D01*
X198109Y91566D01*
X198124Y91642D01*
X198134Y91718D01*
X198141Y91795D01*
X198144Y91873D01*
X198143Y91950D01*
X198138Y92027D01*
X198129Y92104D01*
X198117Y92181D01*
X198101Y92256D01*
X198081Y92331D01*
X198057Y92405D01*
X198030Y92477D01*
X197999Y92548D01*
X197964Y92617D01*
X197926Y92685D01*
X197885Y92750D01*
X197841Y92814D01*
X197793Y92875D01*
X197743Y92933D01*
X197689Y92989D01*
X199665Y94527D02*
X198348Y95844D01*
X199665Y94526D02*
X199713Y94476D01*
X199758Y94422D01*
X199800Y94367D01*
X199839Y94309D01*
X199874Y94249D01*
X199906Y94187D01*
X199934Y94123D01*
X199959Y94058D01*
X199980Y93992D01*
X199998Y93924D01*
X200011Y93856D01*
X200021Y93787D01*
X200027Y93718D01*
X200029Y93648D01*
X200027Y93578D01*
X200021Y93509D01*
X200011Y93440D01*
X199998Y93372D01*
X199980Y93304D01*
X199959Y93238D01*
X199934Y93173D01*
X199906Y93109D01*
X199874Y93047D01*
X199839Y92987D01*
X199800Y92929D01*
X199758Y92874D01*
X199713Y92820D01*
X199665Y92770D01*
X199615Y92722D01*
X199561Y92677D01*
X199506Y92635D01*
X199448Y92596D01*
X199388Y92561D01*
X199326Y92529D01*
X199262Y92501D01*
X199197Y92476D01*
X199131Y92455D01*
X199063Y92437D01*
X198995Y92424D01*
X198926Y92414D01*
X198857Y92408D01*
X198787Y92406D01*
X198717Y92408D01*
X198648Y92414D01*
X198579Y92424D01*
X198511Y92437D01*
X198443Y92455D01*
X198377Y92476D01*
X198312Y92501D01*
X198248Y92529D01*
X198186Y92561D01*
X198126Y92596D01*
X198068Y92635D01*
X198013Y92677D01*
X197959Y92722D01*
X197909Y92770D01*
X197031Y93648D01*
D10*
X254689Y65453D02*
X259359Y70123D01*
X254689Y65453D02*
X256765Y63377D01*
X259755Y62462D02*
X264425Y65057D01*
X259755Y62462D02*
X262349Y59868D01*
X262609Y61684D02*
X260533Y59608D01*
D15*
X152326Y78066D02*
X148993Y81400D01*
X229677Y155417D02*
X233084Y158824D01*
X155378Y236383D02*
X152400Y239360D01*
X75123Y162083D02*
X71790Y158750D01*
X152326Y78066D02*
X155380Y81120D01*
X233084Y158824D02*
X230104Y161803D01*
X152400Y239360D02*
X149420Y236380D01*
X71790Y158750D02*
X75123Y155417D01*
D16*
X71083Y134001D02*
X71083Y134001D01*
X71083Y134001D01*
X71083Y134001D01*
X71083Y134001D01*
X71083Y134001D01*
X71083Y134001D01*
X71083Y134001D01*
X71083Y134001D01*
D10*
X64462Y160430D02*
X69132Y165100D01*
X65500Y164581D02*
X64462Y160430D01*
X65500Y164581D02*
X61349Y163543D01*
X66018Y168213D01*
X62519Y171713D02*
X61481Y172750D01*
X62519Y171713D02*
X62570Y171659D01*
X62619Y171603D01*
X62664Y171544D01*
X62707Y171483D01*
X62746Y171420D01*
X62782Y171355D01*
X62815Y171288D01*
X62844Y171220D01*
X62870Y171150D01*
X62892Y171079D01*
X62911Y171007D01*
X62926Y170934D01*
X62937Y170860D01*
X62945Y170786D01*
X62949Y170712D01*
X62949Y170638D01*
X62945Y170564D01*
X62937Y170490D01*
X62926Y170416D01*
X62911Y170343D01*
X62892Y170271D01*
X62870Y170200D01*
X62844Y170130D01*
X62815Y170062D01*
X62782Y169995D01*
X62746Y169930D01*
X62707Y169867D01*
X62664Y169806D01*
X62619Y169747D01*
X62570Y169691D01*
X62519Y169637D01*
X59925Y167043D01*
X59871Y166992D01*
X59815Y166943D01*
X59756Y166898D01*
X59695Y166855D01*
X59632Y166816D01*
X59567Y166780D01*
X59500Y166747D01*
X59432Y166718D01*
X59362Y166692D01*
X59291Y166670D01*
X59219Y166651D01*
X59146Y166636D01*
X59073Y166625D01*
X58999Y166617D01*
X58924Y166613D01*
X58850Y166613D01*
X58776Y166617D01*
X58702Y166625D01*
X58628Y166636D01*
X58555Y166651D01*
X58483Y166670D01*
X58412Y166692D01*
X58343Y166718D01*
X58274Y166747D01*
X58207Y166780D01*
X58142Y166816D01*
X58079Y166855D01*
X58018Y166898D01*
X57959Y166943D01*
X57903Y166992D01*
X57849Y167043D01*
X56811Y168081D01*
X54665Y170227D02*
X58038Y173599D01*
X58096Y173660D01*
X58152Y173724D01*
X58205Y173791D01*
X58254Y173860D01*
X58300Y173931D01*
X58343Y174004D01*
X58383Y174079D01*
X58419Y174155D01*
X58451Y174233D01*
X58480Y174313D01*
X58505Y174394D01*
X58526Y174476D01*
X58544Y174559D01*
X58557Y174643D01*
X58567Y174727D01*
X58573Y174811D01*
X58575Y174896D01*
X58573Y174981D01*
X58567Y175065D01*
X58557Y175149D01*
X58544Y175233D01*
X58526Y175316D01*
X58505Y175398D01*
X58480Y175479D01*
X58451Y175559D01*
X58419Y175637D01*
X58383Y175713D01*
X58343Y175788D01*
X58300Y175861D01*
X58254Y175932D01*
X58205Y176001D01*
X58152Y176068D01*
X58096Y176132D01*
X58038Y176193D01*
X57977Y176251D01*
X57913Y176307D01*
X57846Y176360D01*
X57777Y176409D01*
X57706Y176455D01*
X57633Y176498D01*
X57558Y176538D01*
X57482Y176574D01*
X57404Y176606D01*
X57324Y176635D01*
X57243Y176660D01*
X57161Y176681D01*
X57078Y176699D01*
X56994Y176712D01*
X56910Y176722D01*
X56826Y176728D01*
X56741Y176730D01*
X56656Y176728D01*
X56572Y176722D01*
X56488Y176712D01*
X56404Y176699D01*
X56321Y176681D01*
X56239Y176660D01*
X56158Y176635D01*
X56078Y176606D01*
X56000Y176574D01*
X55924Y176538D01*
X55849Y176498D01*
X55776Y176455D01*
X55705Y176409D01*
X55636Y176360D01*
X55569Y176307D01*
X55505Y176251D01*
X55444Y176193D01*
X52071Y172821D01*
X48228Y176665D02*
X48173Y176721D01*
X48122Y176781D01*
X48073Y176843D01*
X48028Y176907D01*
X47985Y176973D01*
X47946Y177041D01*
X47910Y177111D01*
X47877Y177182D01*
X47848Y177255D01*
X47822Y177329D01*
X47800Y177405D01*
X47782Y177481D01*
X47767Y177558D01*
X47756Y177636D01*
X47748Y177714D01*
X47744Y177793D01*
X47744Y177871D01*
X47748Y177950D01*
X47756Y178028D01*
X47767Y178106D01*
X47782Y178183D01*
X47800Y178259D01*
X47822Y178335D01*
X47848Y178409D01*
X47877Y178482D01*
X47910Y178553D01*
X47946Y178623D01*
X47985Y178691D01*
X48028Y178757D01*
X48073Y178821D01*
X48122Y178883D01*
X48173Y178943D01*
X48228Y178999D01*
X48227Y176664D02*
X48291Y176603D01*
X48358Y176544D01*
X48427Y176488D01*
X48499Y176435D01*
X48572Y176385D01*
X48648Y176338D01*
X48725Y176295D01*
X48804Y176254D01*
X48885Y176217D01*
X48968Y176184D01*
X49051Y176154D01*
X49136Y176127D01*
X49222Y176104D01*
X49309Y176085D01*
X49396Y176069D01*
X49484Y176057D01*
X49573Y176049D01*
X49662Y176044D01*
X49751Y176043D01*
X49839Y176046D01*
X49928Y176053D01*
X50016Y176063D01*
X50104Y176077D01*
X50191Y176094D01*
X50278Y176116D01*
X50363Y176141D01*
X50447Y176169D01*
X50530Y176201D01*
X50612Y176236D01*
X50692Y176275D01*
X49525Y179518D02*
X49445Y179519D01*
X49366Y179515D01*
X49286Y179508D01*
X49207Y179498D01*
X49129Y179483D01*
X49051Y179466D01*
X48974Y179445D01*
X48898Y179420D01*
X48823Y179392D01*
X48750Y179361D01*
X48678Y179326D01*
X48608Y179289D01*
X48539Y179248D01*
X48472Y179204D01*
X48408Y179157D01*
X48345Y179107D01*
X48285Y179055D01*
X48228Y178999D01*
X49525Y179518D02*
X54324Y179907D01*
X51730Y182502D01*
D14*
X260350Y225134D02*
X288634Y196850D01*
X260350Y168566D01*
X232066Y196850D01*
X260350Y225134D01*
X253279Y232205D01*
X224995Y203921D01*
X232066Y196850D01*
D17*
X228530Y193314D03*
D10*
X262366Y234068D02*
X264441Y236144D01*
X264441Y236143D02*
X264502Y236201D01*
X264566Y236257D01*
X264633Y236310D01*
X264702Y236359D01*
X264773Y236405D01*
X264846Y236448D01*
X264921Y236488D01*
X264997Y236524D01*
X265075Y236556D01*
X265155Y236585D01*
X265236Y236610D01*
X265318Y236631D01*
X265401Y236649D01*
X265485Y236662D01*
X265569Y236672D01*
X265653Y236678D01*
X265738Y236680D01*
X265823Y236678D01*
X265907Y236672D01*
X265991Y236662D01*
X266075Y236649D01*
X266158Y236631D01*
X266240Y236610D01*
X266321Y236585D01*
X266401Y236556D01*
X266479Y236524D01*
X266555Y236488D01*
X266630Y236448D01*
X266703Y236405D01*
X266774Y236359D01*
X266843Y236310D01*
X266910Y236257D01*
X266974Y236201D01*
X267035Y236143D01*
X267093Y236082D01*
X267149Y236018D01*
X267202Y235951D01*
X267251Y235882D01*
X267297Y235811D01*
X267340Y235738D01*
X267380Y235663D01*
X267416Y235587D01*
X267448Y235509D01*
X267477Y235429D01*
X267502Y235348D01*
X267523Y235266D01*
X267541Y235183D01*
X267554Y235099D01*
X267564Y235015D01*
X267570Y234931D01*
X267572Y234846D01*
X267570Y234761D01*
X267564Y234677D01*
X267554Y234593D01*
X267541Y234509D01*
X267523Y234426D01*
X267502Y234344D01*
X267477Y234263D01*
X267448Y234183D01*
X267416Y234105D01*
X267380Y234029D01*
X267340Y233954D01*
X267297Y233881D01*
X267251Y233810D01*
X267202Y233741D01*
X267149Y233674D01*
X267093Y233610D01*
X267035Y233549D01*
X264960Y231474D01*
X264899Y231416D01*
X264835Y231360D01*
X264768Y231307D01*
X264699Y231258D01*
X264628Y231212D01*
X264555Y231169D01*
X264480Y231129D01*
X264404Y231093D01*
X264326Y231061D01*
X264246Y231032D01*
X264165Y231007D01*
X264083Y230986D01*
X264000Y230968D01*
X263916Y230955D01*
X263832Y230945D01*
X263748Y230939D01*
X263663Y230937D01*
X263578Y230939D01*
X263494Y230945D01*
X263410Y230955D01*
X263326Y230968D01*
X263243Y230986D01*
X263161Y231007D01*
X263080Y231032D01*
X263000Y231061D01*
X262922Y231093D01*
X262846Y231129D01*
X262771Y231169D01*
X262698Y231212D01*
X262627Y231258D01*
X262558Y231307D01*
X262491Y231360D01*
X262427Y231416D01*
X262366Y231474D01*
X262308Y231535D01*
X262252Y231599D01*
X262199Y231666D01*
X262150Y231735D01*
X262104Y231806D01*
X262061Y231879D01*
X262021Y231954D01*
X261985Y232030D01*
X261953Y232108D01*
X261924Y232188D01*
X261899Y232269D01*
X261878Y232351D01*
X261860Y232434D01*
X261847Y232518D01*
X261837Y232602D01*
X261831Y232686D01*
X261829Y232771D01*
X261831Y232856D01*
X261837Y232940D01*
X261847Y233024D01*
X261860Y233108D01*
X261878Y233191D01*
X261899Y233273D01*
X261924Y233354D01*
X261953Y233434D01*
X261985Y233512D01*
X262021Y233588D01*
X262061Y233663D01*
X262104Y233736D01*
X262150Y233807D01*
X262199Y233876D01*
X262252Y233943D01*
X262308Y234007D01*
X262366Y234068D01*
X264182Y231733D02*
X264182Y229658D01*
X269334Y231769D02*
X271669Y231510D01*
X266999Y226840D01*
X265702Y228137D02*
X268296Y225543D01*
D12*
X347081Y101219D02*
X347081Y95631D01*
X347081Y101219D02*
X348633Y101219D01*
X348710Y101217D01*
X348788Y101211D01*
X348864Y101202D01*
X348941Y101188D01*
X349016Y101171D01*
X349090Y101150D01*
X349164Y101125D01*
X349236Y101097D01*
X349306Y101065D01*
X349375Y101030D01*
X349442Y100991D01*
X349507Y100949D01*
X349570Y100904D01*
X349631Y100856D01*
X349689Y100805D01*
X349744Y100751D01*
X349797Y100694D01*
X349846Y100635D01*
X349893Y100573D01*
X349937Y100509D01*
X349977Y100443D01*
X350014Y100375D01*
X350048Y100305D01*
X350078Y100234D01*
X350104Y100161D01*
X350127Y100087D01*
X350146Y100012D01*
X350161Y99937D01*
X350173Y99860D01*
X350181Y99783D01*
X350185Y99706D01*
X350185Y99628D01*
X350181Y99551D01*
X350173Y99474D01*
X350161Y99397D01*
X350146Y99322D01*
X350127Y99247D01*
X350104Y99173D01*
X350078Y99100D01*
X350048Y99029D01*
X350014Y98959D01*
X349977Y98891D01*
X349937Y98825D01*
X349893Y98761D01*
X349846Y98699D01*
X349797Y98640D01*
X349744Y98583D01*
X349689Y98529D01*
X349631Y98478D01*
X349570Y98430D01*
X349507Y98385D01*
X349442Y98343D01*
X349375Y98304D01*
X349306Y98269D01*
X349236Y98237D01*
X349164Y98209D01*
X349090Y98184D01*
X349016Y98163D01*
X348941Y98146D01*
X348864Y98132D01*
X348788Y98123D01*
X348710Y98117D01*
X348633Y98115D01*
X347081Y98115D01*
X348943Y98115D02*
X350185Y95631D01*
X352750Y99977D02*
X354302Y101219D01*
X354302Y95631D01*
X352750Y95631D02*
X355854Y95631D01*
X358465Y99977D02*
X360017Y101219D01*
X360017Y95631D01*
X358465Y95631D02*
X361569Y95631D01*
D10*
X331416Y94742D02*
X331416Y88138D01*
X331416Y94742D02*
X333250Y94742D01*
X333335Y94740D01*
X333419Y94734D01*
X333503Y94724D01*
X333587Y94711D01*
X333670Y94693D01*
X333752Y94672D01*
X333833Y94647D01*
X333913Y94618D01*
X333991Y94586D01*
X334067Y94550D01*
X334142Y94510D01*
X334215Y94467D01*
X334286Y94421D01*
X334355Y94372D01*
X334422Y94319D01*
X334486Y94263D01*
X334547Y94205D01*
X334605Y94144D01*
X334661Y94080D01*
X334714Y94013D01*
X334763Y93944D01*
X334809Y93873D01*
X334852Y93800D01*
X334892Y93725D01*
X334928Y93649D01*
X334960Y93571D01*
X334989Y93491D01*
X335014Y93410D01*
X335035Y93328D01*
X335053Y93245D01*
X335066Y93161D01*
X335076Y93077D01*
X335082Y92993D01*
X335084Y92908D01*
X335082Y92823D01*
X335076Y92739D01*
X335066Y92655D01*
X335053Y92571D01*
X335035Y92488D01*
X335014Y92406D01*
X334989Y92325D01*
X334960Y92245D01*
X334928Y92167D01*
X334892Y92091D01*
X334852Y92016D01*
X334809Y91943D01*
X334763Y91872D01*
X334714Y91803D01*
X334661Y91736D01*
X334605Y91672D01*
X334547Y91611D01*
X334486Y91553D01*
X334422Y91497D01*
X334355Y91444D01*
X334286Y91395D01*
X334215Y91349D01*
X334142Y91306D01*
X334067Y91266D01*
X333991Y91230D01*
X333913Y91198D01*
X333833Y91169D01*
X333752Y91144D01*
X333670Y91123D01*
X333587Y91105D01*
X333503Y91092D01*
X333419Y91082D01*
X333335Y91076D01*
X333250Y91074D01*
X333250Y91073D02*
X331416Y91073D01*
X333617Y91073D02*
X335085Y88138D01*
X338215Y93274D02*
X340050Y94742D01*
X340050Y88138D01*
X341884Y88138D02*
X338215Y88138D01*
X347091Y94742D02*
X347170Y94740D01*
X347248Y94735D01*
X347326Y94725D01*
X347403Y94712D01*
X347480Y94695D01*
X347556Y94675D01*
X347631Y94651D01*
X347705Y94624D01*
X347777Y94593D01*
X347848Y94558D01*
X347917Y94521D01*
X347984Y94480D01*
X348049Y94436D01*
X348112Y94389D01*
X348172Y94339D01*
X348230Y94286D01*
X348286Y94230D01*
X348339Y94172D01*
X348389Y94112D01*
X348436Y94049D01*
X348480Y93984D01*
X348521Y93917D01*
X348558Y93848D01*
X348593Y93777D01*
X348624Y93705D01*
X348651Y93631D01*
X348675Y93556D01*
X348695Y93480D01*
X348712Y93403D01*
X348725Y93326D01*
X348735Y93248D01*
X348740Y93170D01*
X348742Y93091D01*
X347091Y94742D02*
X347002Y94740D01*
X346913Y94735D01*
X346825Y94725D01*
X346737Y94712D01*
X346650Y94696D01*
X346563Y94675D01*
X346478Y94651D01*
X346393Y94624D01*
X346310Y94593D01*
X346228Y94558D01*
X346147Y94520D01*
X346068Y94479D01*
X345992Y94435D01*
X345916Y94387D01*
X345843Y94336D01*
X345773Y94283D01*
X345704Y94226D01*
X345638Y94166D01*
X345575Y94104D01*
X345514Y94039D01*
X345456Y93972D01*
X345401Y93902D01*
X345348Y93830D01*
X345299Y93756D01*
X345253Y93680D01*
X345211Y93602D01*
X345171Y93522D01*
X345135Y93441D01*
X345102Y93358D01*
X345073Y93274D01*
X348192Y91807D02*
X348248Y91863D01*
X348302Y91922D01*
X348353Y91983D01*
X348402Y92047D01*
X348447Y92112D01*
X348490Y92180D01*
X348529Y92249D01*
X348566Y92320D01*
X348599Y92393D01*
X348628Y92467D01*
X348655Y92542D01*
X348678Y92618D01*
X348697Y92696D01*
X348713Y92774D01*
X348726Y92852D01*
X348735Y92932D01*
X348740Y93011D01*
X348742Y93091D01*
X348192Y91807D02*
X345073Y88138D01*
X348742Y88138D01*
D12*
X333201Y89191D02*
X333201Y94779D01*
X334753Y94779D01*
X334830Y94777D01*
X334908Y94771D01*
X334984Y94762D01*
X335061Y94748D01*
X335136Y94731D01*
X335210Y94710D01*
X335284Y94685D01*
X335356Y94657D01*
X335426Y94625D01*
X335495Y94590D01*
X335562Y94551D01*
X335627Y94509D01*
X335690Y94464D01*
X335751Y94416D01*
X335809Y94365D01*
X335864Y94311D01*
X335917Y94254D01*
X335966Y94195D01*
X336013Y94133D01*
X336057Y94069D01*
X336097Y94003D01*
X336134Y93935D01*
X336168Y93865D01*
X336198Y93794D01*
X336224Y93721D01*
X336247Y93647D01*
X336266Y93572D01*
X336281Y93497D01*
X336293Y93420D01*
X336301Y93343D01*
X336305Y93266D01*
X336305Y93188D01*
X336301Y93111D01*
X336293Y93034D01*
X336281Y92957D01*
X336266Y92882D01*
X336247Y92807D01*
X336224Y92733D01*
X336198Y92660D01*
X336168Y92589D01*
X336134Y92519D01*
X336097Y92451D01*
X336057Y92385D01*
X336013Y92321D01*
X335966Y92259D01*
X335917Y92200D01*
X335864Y92143D01*
X335809Y92089D01*
X335751Y92038D01*
X335690Y91990D01*
X335627Y91945D01*
X335562Y91903D01*
X335495Y91864D01*
X335426Y91829D01*
X335356Y91797D01*
X335284Y91769D01*
X335210Y91744D01*
X335136Y91723D01*
X335061Y91706D01*
X334984Y91692D01*
X334908Y91683D01*
X334830Y91677D01*
X334753Y91675D01*
X334753Y91674D02*
X333201Y91674D01*
X335064Y91674D02*
X336305Y89191D01*
X338870Y93537D02*
X340422Y94779D01*
X340422Y89191D01*
X338870Y89191D02*
X341974Y89191D01*
X344585Y89191D02*
X346137Y89191D01*
X346214Y89193D01*
X346292Y89199D01*
X346368Y89208D01*
X346445Y89222D01*
X346520Y89239D01*
X346594Y89260D01*
X346668Y89285D01*
X346740Y89313D01*
X346810Y89345D01*
X346879Y89380D01*
X346946Y89419D01*
X347011Y89461D01*
X347074Y89506D01*
X347135Y89554D01*
X347193Y89605D01*
X347248Y89659D01*
X347301Y89716D01*
X347350Y89775D01*
X347397Y89837D01*
X347441Y89901D01*
X347481Y89967D01*
X347518Y90035D01*
X347552Y90105D01*
X347582Y90176D01*
X347608Y90249D01*
X347631Y90323D01*
X347650Y90398D01*
X347665Y90473D01*
X347677Y90550D01*
X347685Y90627D01*
X347689Y90704D01*
X347689Y90782D01*
X347685Y90859D01*
X347677Y90936D01*
X347665Y91013D01*
X347650Y91088D01*
X347631Y91163D01*
X347608Y91237D01*
X347582Y91310D01*
X347552Y91381D01*
X347518Y91451D01*
X347481Y91519D01*
X347441Y91585D01*
X347397Y91649D01*
X347350Y91711D01*
X347301Y91770D01*
X347248Y91827D01*
X347193Y91881D01*
X347135Y91932D01*
X347074Y91980D01*
X347011Y92025D01*
X346946Y92067D01*
X346879Y92106D01*
X346810Y92141D01*
X346740Y92173D01*
X346668Y92201D01*
X346594Y92226D01*
X346520Y92247D01*
X346445Y92264D01*
X346368Y92278D01*
X346292Y92287D01*
X346214Y92293D01*
X346137Y92295D01*
X346448Y94779D02*
X344585Y94779D01*
X346448Y94779D02*
X346518Y94777D01*
X346587Y94771D01*
X346656Y94761D01*
X346724Y94748D01*
X346792Y94730D01*
X346858Y94709D01*
X346923Y94684D01*
X346987Y94656D01*
X347049Y94624D01*
X347109Y94589D01*
X347167Y94550D01*
X347222Y94508D01*
X347276Y94463D01*
X347326Y94415D01*
X347374Y94365D01*
X347419Y94311D01*
X347461Y94256D01*
X347500Y94198D01*
X347535Y94138D01*
X347567Y94076D01*
X347595Y94012D01*
X347620Y93947D01*
X347641Y93881D01*
X347659Y93813D01*
X347672Y93745D01*
X347682Y93676D01*
X347688Y93607D01*
X347690Y93537D01*
X347688Y93467D01*
X347682Y93398D01*
X347672Y93329D01*
X347659Y93261D01*
X347641Y93193D01*
X347620Y93127D01*
X347595Y93062D01*
X347567Y92998D01*
X347535Y92936D01*
X347500Y92876D01*
X347461Y92818D01*
X347419Y92763D01*
X347374Y92709D01*
X347326Y92659D01*
X347276Y92611D01*
X347222Y92566D01*
X347167Y92524D01*
X347109Y92485D01*
X347049Y92450D01*
X346987Y92418D01*
X346923Y92390D01*
X346858Y92365D01*
X346792Y92344D01*
X346724Y92326D01*
X346656Y92313D01*
X346587Y92303D01*
X346518Y92297D01*
X346448Y92295D01*
X345206Y92295D01*
D10*
X375928Y97618D02*
X375928Y104222D01*
X377763Y104222D01*
X377763Y104221D02*
X377848Y104219D01*
X377932Y104213D01*
X378016Y104203D01*
X378100Y104190D01*
X378183Y104172D01*
X378265Y104151D01*
X378346Y104126D01*
X378426Y104097D01*
X378504Y104065D01*
X378580Y104029D01*
X378655Y103989D01*
X378728Y103946D01*
X378799Y103900D01*
X378868Y103851D01*
X378935Y103798D01*
X378999Y103742D01*
X379060Y103684D01*
X379118Y103623D01*
X379174Y103559D01*
X379227Y103492D01*
X379276Y103423D01*
X379322Y103352D01*
X379365Y103279D01*
X379405Y103204D01*
X379441Y103128D01*
X379473Y103050D01*
X379502Y102970D01*
X379527Y102889D01*
X379548Y102807D01*
X379566Y102724D01*
X379579Y102640D01*
X379589Y102556D01*
X379595Y102472D01*
X379597Y102387D01*
X379595Y102302D01*
X379589Y102218D01*
X379579Y102134D01*
X379566Y102050D01*
X379548Y101967D01*
X379527Y101885D01*
X379502Y101804D01*
X379473Y101724D01*
X379441Y101646D01*
X379405Y101570D01*
X379365Y101495D01*
X379322Y101422D01*
X379276Y101351D01*
X379227Y101282D01*
X379174Y101215D01*
X379118Y101151D01*
X379060Y101090D01*
X378999Y101032D01*
X378935Y100976D01*
X378868Y100923D01*
X378799Y100874D01*
X378728Y100828D01*
X378655Y100785D01*
X378580Y100745D01*
X378504Y100709D01*
X378426Y100677D01*
X378346Y100648D01*
X378265Y100623D01*
X378183Y100602D01*
X378100Y100584D01*
X378016Y100571D01*
X377932Y100561D01*
X377848Y100555D01*
X377763Y100553D01*
X375928Y100553D01*
X378130Y100553D02*
X379597Y97618D01*
X382728Y102754D02*
X384562Y104222D01*
X384562Y97618D01*
X382728Y97618D02*
X386396Y97618D01*
X389586Y99085D02*
X391053Y104222D01*
X389586Y99085D02*
X393254Y99085D01*
X392154Y97618D02*
X392154Y100553D01*
X66040Y109938D02*
X61370Y114608D01*
X62667Y115905D01*
X62668Y115905D02*
X62729Y115963D01*
X62793Y116019D01*
X62860Y116072D01*
X62929Y116121D01*
X63000Y116167D01*
X63073Y116210D01*
X63148Y116250D01*
X63224Y116286D01*
X63302Y116318D01*
X63382Y116347D01*
X63463Y116372D01*
X63545Y116393D01*
X63628Y116411D01*
X63712Y116424D01*
X63796Y116434D01*
X63880Y116440D01*
X63965Y116442D01*
X64050Y116440D01*
X64134Y116434D01*
X64218Y116424D01*
X64302Y116411D01*
X64385Y116393D01*
X64467Y116372D01*
X64548Y116347D01*
X64628Y116318D01*
X64706Y116286D01*
X64782Y116250D01*
X64857Y116210D01*
X64930Y116167D01*
X65001Y116121D01*
X65070Y116072D01*
X65137Y116019D01*
X65201Y115963D01*
X65262Y115905D01*
X65320Y115844D01*
X65376Y115780D01*
X65429Y115713D01*
X65478Y115644D01*
X65524Y115573D01*
X65567Y115500D01*
X65607Y115425D01*
X65643Y115349D01*
X65675Y115271D01*
X65704Y115191D01*
X65729Y115110D01*
X65750Y115028D01*
X65768Y114945D01*
X65781Y114861D01*
X65791Y114777D01*
X65797Y114693D01*
X65799Y114608D01*
X65797Y114523D01*
X65791Y114439D01*
X65781Y114355D01*
X65768Y114271D01*
X65750Y114188D01*
X65729Y114106D01*
X65704Y114025D01*
X65675Y113945D01*
X65643Y113867D01*
X65607Y113790D01*
X65567Y113716D01*
X65524Y113643D01*
X65478Y113572D01*
X65429Y113503D01*
X65376Y113436D01*
X65320Y113372D01*
X65262Y113311D01*
X63965Y112014D01*
X65521Y113570D02*
X68634Y112533D01*
X67216Y118378D02*
X67475Y120713D01*
X72145Y116043D01*
X70848Y114746D02*
X73442Y117340D01*
X75697Y119595D02*
X77253Y121152D01*
X77254Y121152D02*
X77305Y121206D01*
X77354Y121262D01*
X77399Y121321D01*
X77442Y121382D01*
X77481Y121445D01*
X77517Y121510D01*
X77550Y121577D01*
X77579Y121645D01*
X77605Y121715D01*
X77627Y121786D01*
X77646Y121858D01*
X77661Y121931D01*
X77672Y122005D01*
X77680Y122079D01*
X77684Y122153D01*
X77684Y122227D01*
X77680Y122301D01*
X77672Y122375D01*
X77661Y122449D01*
X77646Y122522D01*
X77627Y122594D01*
X77605Y122665D01*
X77579Y122735D01*
X77550Y122803D01*
X77517Y122870D01*
X77481Y122935D01*
X77442Y122998D01*
X77399Y123059D01*
X77354Y123118D01*
X77305Y123174D01*
X77254Y123228D01*
X77253Y123227D02*
X76735Y123746D01*
X76681Y123797D01*
X76625Y123846D01*
X76566Y123891D01*
X76505Y123934D01*
X76442Y123973D01*
X76377Y124009D01*
X76310Y124042D01*
X76242Y124071D01*
X76172Y124097D01*
X76101Y124119D01*
X76029Y124138D01*
X75956Y124153D01*
X75882Y124164D01*
X75808Y124172D01*
X75734Y124176D01*
X75660Y124176D01*
X75586Y124172D01*
X75512Y124164D01*
X75438Y124153D01*
X75365Y124138D01*
X75293Y124119D01*
X75222Y124097D01*
X75152Y124071D01*
X75084Y124042D01*
X75017Y124009D01*
X74952Y123973D01*
X74889Y123934D01*
X74828Y123891D01*
X74769Y123846D01*
X74713Y123797D01*
X74659Y123746D01*
X73103Y122190D01*
X71027Y124265D01*
X73621Y126859D01*
X72839Y68310D02*
X77508Y63640D01*
X72839Y68310D02*
X74136Y69607D01*
X74197Y69665D01*
X74261Y69721D01*
X74328Y69774D01*
X74397Y69823D01*
X74468Y69869D01*
X74541Y69912D01*
X74616Y69952D01*
X74692Y69988D01*
X74770Y70020D01*
X74850Y70049D01*
X74931Y70074D01*
X75013Y70095D01*
X75096Y70113D01*
X75180Y70126D01*
X75264Y70136D01*
X75348Y70142D01*
X75433Y70144D01*
X75518Y70142D01*
X75602Y70136D01*
X75686Y70126D01*
X75770Y70113D01*
X75853Y70095D01*
X75935Y70074D01*
X76016Y70049D01*
X76096Y70020D01*
X76174Y69988D01*
X76250Y69952D01*
X76325Y69912D01*
X76398Y69869D01*
X76469Y69823D01*
X76538Y69774D01*
X76605Y69721D01*
X76669Y69665D01*
X76730Y69607D01*
X76788Y69546D01*
X76844Y69482D01*
X76897Y69415D01*
X76946Y69346D01*
X76992Y69275D01*
X77035Y69202D01*
X77075Y69127D01*
X77111Y69051D01*
X77143Y68973D01*
X77172Y68893D01*
X77197Y68812D01*
X77218Y68730D01*
X77236Y68647D01*
X77249Y68563D01*
X77259Y68479D01*
X77265Y68395D01*
X77267Y68310D01*
X77265Y68225D01*
X77259Y68141D01*
X77249Y68057D01*
X77236Y67973D01*
X77218Y67890D01*
X77197Y67808D01*
X77172Y67727D01*
X77143Y67647D01*
X77111Y67569D01*
X77075Y67492D01*
X77035Y67418D01*
X76992Y67345D01*
X76946Y67274D01*
X76897Y67205D01*
X76844Y67138D01*
X76788Y67074D01*
X76730Y67013D01*
X75433Y65716D01*
X76990Y67272D02*
X80103Y66235D01*
X78684Y72080D02*
X78943Y74415D01*
X83613Y69745D01*
X82316Y68448D02*
X84910Y71042D01*
X84571Y75892D02*
X86128Y77448D01*
X86127Y77449D02*
X86181Y77500D01*
X86237Y77549D01*
X86296Y77594D01*
X86357Y77637D01*
X86420Y77676D01*
X86485Y77712D01*
X86552Y77745D01*
X86620Y77774D01*
X86690Y77800D01*
X86761Y77822D01*
X86833Y77841D01*
X86906Y77856D01*
X86980Y77867D01*
X87054Y77875D01*
X87128Y77879D01*
X87202Y77879D01*
X87276Y77875D01*
X87350Y77867D01*
X87424Y77856D01*
X87497Y77841D01*
X87569Y77822D01*
X87640Y77800D01*
X87710Y77774D01*
X87778Y77745D01*
X87845Y77712D01*
X87910Y77676D01*
X87973Y77637D01*
X88034Y77594D01*
X88093Y77549D01*
X88149Y77500D01*
X88203Y77449D01*
X88203Y77448D02*
X88462Y77189D01*
X88520Y77127D01*
X88576Y77064D01*
X88629Y76997D01*
X88678Y76928D01*
X88724Y76857D01*
X88767Y76784D01*
X88807Y76709D01*
X88843Y76633D01*
X88875Y76554D01*
X88904Y76475D01*
X88929Y76394D01*
X88950Y76312D01*
X88968Y76229D01*
X88981Y76145D01*
X88991Y76061D01*
X88997Y75977D01*
X88999Y75892D01*
X88997Y75807D01*
X88991Y75723D01*
X88981Y75639D01*
X88968Y75555D01*
X88950Y75472D01*
X88929Y75390D01*
X88904Y75309D01*
X88875Y75229D01*
X88843Y75151D01*
X88807Y75074D01*
X88767Y75000D01*
X88724Y74927D01*
X88678Y74856D01*
X88629Y74787D01*
X88576Y74720D01*
X88520Y74656D01*
X88462Y74595D01*
X88401Y74537D01*
X88337Y74481D01*
X88270Y74428D01*
X88201Y74379D01*
X88130Y74333D01*
X88057Y74290D01*
X87983Y74250D01*
X87906Y74214D01*
X87828Y74182D01*
X87748Y74153D01*
X87667Y74128D01*
X87585Y74107D01*
X87502Y74089D01*
X87418Y74076D01*
X87334Y74066D01*
X87250Y74060D01*
X87165Y74058D01*
X87080Y74060D01*
X86996Y74066D01*
X86912Y74076D01*
X86828Y74089D01*
X86745Y74107D01*
X86663Y74128D01*
X86582Y74153D01*
X86503Y74182D01*
X86424Y74214D01*
X86348Y74250D01*
X86273Y74290D01*
X86200Y74333D01*
X86129Y74379D01*
X86060Y74428D01*
X85993Y74481D01*
X85930Y74537D01*
X85868Y74595D01*
X84571Y75892D01*
X84496Y75969D01*
X84425Y76049D01*
X84356Y76131D01*
X84291Y76216D01*
X84228Y76303D01*
X84169Y76393D01*
X84113Y76484D01*
X84061Y76578D01*
X84012Y76673D01*
X83966Y76770D01*
X83924Y76869D01*
X83886Y76969D01*
X83851Y77070D01*
X83820Y77173D01*
X83793Y77277D01*
X83770Y77381D01*
X83751Y77487D01*
X83735Y77593D01*
X83723Y77699D01*
X83715Y77806D01*
X83711Y77913D01*
X83711Y78021D01*
X83715Y78128D01*
X83723Y78235D01*
X83735Y78341D01*
X83751Y78447D01*
X83770Y78553D01*
X83793Y78657D01*
X83820Y78761D01*
X83851Y78864D01*
X83886Y78965D01*
X83924Y79065D01*
X83966Y79164D01*
X84012Y79261D01*
X84061Y79356D01*
X84113Y79450D01*
X84169Y79541D01*
X84228Y79631D01*
X84291Y79718D01*
X84356Y79803D01*
X84425Y79885D01*
X84496Y79965D01*
X84571Y80042D01*
X470408Y191008D02*
X470408Y197612D01*
X472242Y197612D01*
X472327Y197610D01*
X472411Y197604D01*
X472495Y197594D01*
X472579Y197581D01*
X472662Y197563D01*
X472744Y197542D01*
X472825Y197517D01*
X472905Y197488D01*
X472983Y197456D01*
X473059Y197420D01*
X473134Y197380D01*
X473207Y197337D01*
X473278Y197291D01*
X473347Y197242D01*
X473414Y197189D01*
X473478Y197133D01*
X473539Y197075D01*
X473597Y197014D01*
X473653Y196950D01*
X473706Y196883D01*
X473755Y196814D01*
X473801Y196743D01*
X473844Y196670D01*
X473884Y196595D01*
X473920Y196519D01*
X473952Y196441D01*
X473981Y196361D01*
X474006Y196280D01*
X474027Y196198D01*
X474045Y196115D01*
X474058Y196031D01*
X474068Y195947D01*
X474074Y195863D01*
X474076Y195778D01*
X474074Y195693D01*
X474068Y195609D01*
X474058Y195525D01*
X474045Y195441D01*
X474027Y195358D01*
X474006Y195276D01*
X473981Y195195D01*
X473952Y195115D01*
X473920Y195037D01*
X473884Y194961D01*
X473844Y194886D01*
X473801Y194813D01*
X473755Y194742D01*
X473706Y194673D01*
X473653Y194606D01*
X473597Y194542D01*
X473539Y194481D01*
X473478Y194423D01*
X473414Y194367D01*
X473347Y194314D01*
X473278Y194265D01*
X473207Y194219D01*
X473134Y194176D01*
X473059Y194136D01*
X472983Y194100D01*
X472905Y194068D01*
X472825Y194039D01*
X472744Y194014D01*
X472662Y193993D01*
X472579Y193975D01*
X472495Y193962D01*
X472411Y193952D01*
X472327Y193946D01*
X472242Y193944D01*
X472242Y193943D02*
X470408Y193943D01*
X472609Y193943D02*
X474077Y191008D01*
X477207Y191008D02*
X479042Y191008D01*
X479127Y191010D01*
X479211Y191016D01*
X479295Y191026D01*
X479379Y191039D01*
X479462Y191057D01*
X479544Y191078D01*
X479625Y191103D01*
X479705Y191132D01*
X479783Y191164D01*
X479859Y191200D01*
X479934Y191240D01*
X480007Y191283D01*
X480078Y191329D01*
X480147Y191378D01*
X480214Y191431D01*
X480278Y191487D01*
X480339Y191545D01*
X480397Y191606D01*
X480453Y191670D01*
X480506Y191737D01*
X480555Y191806D01*
X480601Y191877D01*
X480644Y191950D01*
X480684Y192025D01*
X480720Y192101D01*
X480752Y192179D01*
X480781Y192259D01*
X480806Y192340D01*
X480827Y192422D01*
X480845Y192505D01*
X480858Y192589D01*
X480868Y192673D01*
X480874Y192757D01*
X480876Y192842D01*
X480874Y192927D01*
X480868Y193011D01*
X480858Y193095D01*
X480845Y193179D01*
X480827Y193262D01*
X480806Y193344D01*
X480781Y193425D01*
X480752Y193505D01*
X480720Y193583D01*
X480684Y193659D01*
X480644Y193734D01*
X480601Y193807D01*
X480555Y193878D01*
X480506Y193947D01*
X480453Y194014D01*
X480397Y194078D01*
X480339Y194139D01*
X480278Y194197D01*
X480214Y194253D01*
X480147Y194306D01*
X480078Y194355D01*
X480007Y194401D01*
X479934Y194444D01*
X479859Y194484D01*
X479783Y194520D01*
X479705Y194552D01*
X479625Y194581D01*
X479544Y194606D01*
X479462Y194627D01*
X479379Y194645D01*
X479295Y194658D01*
X479211Y194668D01*
X479127Y194674D01*
X479042Y194676D01*
X479408Y197612D02*
X477207Y197612D01*
X479408Y197612D02*
X479484Y197610D01*
X479559Y197604D01*
X479634Y197595D01*
X479708Y197581D01*
X479782Y197564D01*
X479854Y197542D01*
X479926Y197518D01*
X479996Y197489D01*
X480064Y197457D01*
X480131Y197422D01*
X480196Y197383D01*
X480259Y197340D01*
X480319Y197295D01*
X480377Y197247D01*
X480433Y197195D01*
X480485Y197141D01*
X480535Y197084D01*
X480582Y197025D01*
X480626Y196964D01*
X480667Y196900D01*
X480704Y196834D01*
X480738Y196766D01*
X480768Y196697D01*
X480795Y196626D01*
X480818Y196554D01*
X480837Y196481D01*
X480852Y196407D01*
X480864Y196332D01*
X480872Y196257D01*
X480876Y196182D01*
X480876Y196106D01*
X480872Y196031D01*
X480864Y195956D01*
X480852Y195881D01*
X480837Y195807D01*
X480818Y195734D01*
X480795Y195662D01*
X480768Y195591D01*
X480738Y195522D01*
X480704Y195454D01*
X480667Y195388D01*
X480626Y195324D01*
X480582Y195263D01*
X480535Y195204D01*
X480485Y195147D01*
X480433Y195093D01*
X480377Y195041D01*
X480319Y194993D01*
X480259Y194948D01*
X480196Y194905D01*
X480131Y194866D01*
X480064Y194831D01*
X479996Y194799D01*
X479926Y194770D01*
X479854Y194746D01*
X479782Y194724D01*
X479708Y194707D01*
X479634Y194693D01*
X479559Y194684D01*
X479484Y194678D01*
X479408Y194676D01*
X479408Y194677D02*
X477941Y194677D01*
X268424Y132842D02*
X268424Y126238D01*
X268424Y132842D02*
X270258Y132842D01*
X270343Y132840D01*
X270427Y132834D01*
X270511Y132824D01*
X270595Y132811D01*
X270678Y132793D01*
X270760Y132772D01*
X270841Y132747D01*
X270921Y132718D01*
X270999Y132686D01*
X271075Y132650D01*
X271150Y132610D01*
X271223Y132567D01*
X271294Y132521D01*
X271363Y132472D01*
X271430Y132419D01*
X271494Y132363D01*
X271555Y132305D01*
X271613Y132244D01*
X271669Y132180D01*
X271722Y132113D01*
X271771Y132044D01*
X271817Y131973D01*
X271860Y131900D01*
X271900Y131825D01*
X271936Y131749D01*
X271968Y131671D01*
X271997Y131591D01*
X272022Y131510D01*
X272043Y131428D01*
X272061Y131345D01*
X272074Y131261D01*
X272084Y131177D01*
X272090Y131093D01*
X272092Y131008D01*
X272090Y130923D01*
X272084Y130839D01*
X272074Y130755D01*
X272061Y130671D01*
X272043Y130588D01*
X272022Y130506D01*
X271997Y130425D01*
X271968Y130345D01*
X271936Y130267D01*
X271900Y130191D01*
X271860Y130116D01*
X271817Y130043D01*
X271771Y129972D01*
X271722Y129903D01*
X271669Y129836D01*
X271613Y129772D01*
X271555Y129711D01*
X271494Y129653D01*
X271430Y129597D01*
X271363Y129544D01*
X271294Y129495D01*
X271223Y129449D01*
X271150Y129406D01*
X271075Y129366D01*
X270999Y129330D01*
X270921Y129298D01*
X270841Y129269D01*
X270760Y129244D01*
X270678Y129223D01*
X270595Y129205D01*
X270511Y129192D01*
X270427Y129182D01*
X270343Y129176D01*
X270258Y129174D01*
X270258Y129173D02*
X268424Y129173D01*
X270625Y129173D02*
X272093Y126238D01*
X275223Y127706D02*
X276691Y132842D01*
X275223Y127706D02*
X278892Y127706D01*
X277791Y129173D02*
X277791Y126238D01*
X300174Y189738D02*
X300174Y196342D01*
X302008Y196342D01*
X302093Y196340D01*
X302177Y196334D01*
X302261Y196324D01*
X302345Y196311D01*
X302428Y196293D01*
X302510Y196272D01*
X302591Y196247D01*
X302671Y196218D01*
X302749Y196186D01*
X302825Y196150D01*
X302900Y196110D01*
X302973Y196067D01*
X303044Y196021D01*
X303113Y195972D01*
X303180Y195919D01*
X303244Y195863D01*
X303305Y195805D01*
X303363Y195744D01*
X303419Y195680D01*
X303472Y195613D01*
X303521Y195544D01*
X303567Y195473D01*
X303610Y195400D01*
X303650Y195325D01*
X303686Y195249D01*
X303718Y195171D01*
X303747Y195091D01*
X303772Y195010D01*
X303793Y194928D01*
X303811Y194845D01*
X303824Y194761D01*
X303834Y194677D01*
X303840Y194593D01*
X303842Y194508D01*
X303840Y194423D01*
X303834Y194339D01*
X303824Y194255D01*
X303811Y194171D01*
X303793Y194088D01*
X303772Y194006D01*
X303747Y193925D01*
X303718Y193845D01*
X303686Y193767D01*
X303650Y193691D01*
X303610Y193616D01*
X303567Y193543D01*
X303521Y193472D01*
X303472Y193403D01*
X303419Y193336D01*
X303363Y193272D01*
X303305Y193211D01*
X303244Y193153D01*
X303180Y193097D01*
X303113Y193044D01*
X303044Y192995D01*
X302973Y192949D01*
X302900Y192906D01*
X302825Y192866D01*
X302749Y192830D01*
X302671Y192798D01*
X302591Y192769D01*
X302510Y192744D01*
X302428Y192723D01*
X302345Y192705D01*
X302261Y192692D01*
X302177Y192682D01*
X302093Y192676D01*
X302008Y192674D01*
X302008Y192673D02*
X300174Y192673D01*
X302375Y192673D02*
X303843Y189738D01*
X306973Y189738D02*
X309174Y189738D01*
X309248Y189740D01*
X309323Y189746D01*
X309396Y189755D01*
X309470Y189768D01*
X309542Y189785D01*
X309613Y189805D01*
X309684Y189829D01*
X309753Y189857D01*
X309820Y189888D01*
X309886Y189922D01*
X309951Y189960D01*
X310013Y190001D01*
X310073Y190045D01*
X310130Y190092D01*
X310185Y190142D01*
X310238Y190195D01*
X310288Y190250D01*
X310335Y190307D01*
X310379Y190367D01*
X310420Y190429D01*
X310458Y190494D01*
X310492Y190559D01*
X310523Y190627D01*
X310551Y190696D01*
X310575Y190767D01*
X310595Y190838D01*
X310612Y190910D01*
X310625Y190984D01*
X310634Y191057D01*
X310640Y191132D01*
X310642Y191206D01*
X310642Y191939D01*
X310640Y192013D01*
X310634Y192088D01*
X310625Y192161D01*
X310612Y192235D01*
X310595Y192307D01*
X310575Y192378D01*
X310551Y192449D01*
X310523Y192518D01*
X310492Y192585D01*
X310458Y192651D01*
X310420Y192716D01*
X310379Y192778D01*
X310335Y192838D01*
X310288Y192895D01*
X310238Y192950D01*
X310185Y193003D01*
X310130Y193053D01*
X310073Y193100D01*
X310013Y193144D01*
X309951Y193185D01*
X309886Y193223D01*
X309820Y193257D01*
X309753Y193288D01*
X309684Y193316D01*
X309613Y193340D01*
X309542Y193360D01*
X309470Y193377D01*
X309396Y193390D01*
X309323Y193399D01*
X309248Y193405D01*
X309174Y193407D01*
X306973Y193407D01*
X306973Y196342D01*
X310642Y196342D01*
X281124Y164592D02*
X281124Y157988D01*
X281124Y164592D02*
X282958Y164592D01*
X283043Y164590D01*
X283127Y164584D01*
X283211Y164574D01*
X283295Y164561D01*
X283378Y164543D01*
X283460Y164522D01*
X283541Y164497D01*
X283621Y164468D01*
X283699Y164436D01*
X283775Y164400D01*
X283850Y164360D01*
X283923Y164317D01*
X283994Y164271D01*
X284063Y164222D01*
X284130Y164169D01*
X284194Y164113D01*
X284255Y164055D01*
X284313Y163994D01*
X284369Y163930D01*
X284422Y163863D01*
X284471Y163794D01*
X284517Y163723D01*
X284560Y163650D01*
X284600Y163575D01*
X284636Y163499D01*
X284668Y163421D01*
X284697Y163341D01*
X284722Y163260D01*
X284743Y163178D01*
X284761Y163095D01*
X284774Y163011D01*
X284784Y162927D01*
X284790Y162843D01*
X284792Y162758D01*
X284790Y162673D01*
X284784Y162589D01*
X284774Y162505D01*
X284761Y162421D01*
X284743Y162338D01*
X284722Y162256D01*
X284697Y162175D01*
X284668Y162095D01*
X284636Y162017D01*
X284600Y161941D01*
X284560Y161866D01*
X284517Y161793D01*
X284471Y161722D01*
X284422Y161653D01*
X284369Y161586D01*
X284313Y161522D01*
X284255Y161461D01*
X284194Y161403D01*
X284130Y161347D01*
X284063Y161294D01*
X283994Y161245D01*
X283923Y161199D01*
X283850Y161156D01*
X283775Y161116D01*
X283699Y161080D01*
X283621Y161048D01*
X283541Y161019D01*
X283460Y160994D01*
X283378Y160973D01*
X283295Y160955D01*
X283211Y160942D01*
X283127Y160932D01*
X283043Y160926D01*
X282958Y160924D01*
X282958Y160923D02*
X281124Y160923D01*
X283325Y160923D02*
X284793Y157988D01*
X287923Y161657D02*
X290124Y161657D01*
X290198Y161655D01*
X290273Y161649D01*
X290346Y161640D01*
X290420Y161627D01*
X290492Y161610D01*
X290563Y161590D01*
X290634Y161566D01*
X290703Y161538D01*
X290770Y161507D01*
X290836Y161473D01*
X290901Y161435D01*
X290963Y161394D01*
X291023Y161350D01*
X291080Y161303D01*
X291135Y161253D01*
X291188Y161200D01*
X291238Y161145D01*
X291285Y161088D01*
X291329Y161028D01*
X291370Y160966D01*
X291408Y160901D01*
X291442Y160835D01*
X291473Y160768D01*
X291501Y160699D01*
X291525Y160628D01*
X291545Y160557D01*
X291562Y160485D01*
X291575Y160411D01*
X291584Y160338D01*
X291590Y160263D01*
X291592Y160189D01*
X291592Y159822D01*
X291590Y159737D01*
X291584Y159653D01*
X291574Y159569D01*
X291561Y159485D01*
X291543Y159402D01*
X291522Y159320D01*
X291497Y159239D01*
X291468Y159159D01*
X291436Y159081D01*
X291400Y159005D01*
X291360Y158930D01*
X291317Y158857D01*
X291271Y158786D01*
X291222Y158717D01*
X291169Y158650D01*
X291113Y158586D01*
X291055Y158525D01*
X290994Y158467D01*
X290930Y158411D01*
X290863Y158358D01*
X290794Y158309D01*
X290723Y158263D01*
X290650Y158220D01*
X290575Y158180D01*
X290499Y158144D01*
X290421Y158112D01*
X290341Y158083D01*
X290260Y158058D01*
X290178Y158037D01*
X290095Y158019D01*
X290011Y158006D01*
X289927Y157996D01*
X289843Y157990D01*
X289758Y157988D01*
X289673Y157990D01*
X289589Y157996D01*
X289505Y158006D01*
X289421Y158019D01*
X289338Y158037D01*
X289256Y158058D01*
X289175Y158083D01*
X289095Y158112D01*
X289017Y158144D01*
X288941Y158180D01*
X288866Y158220D01*
X288793Y158263D01*
X288722Y158309D01*
X288653Y158358D01*
X288586Y158411D01*
X288522Y158467D01*
X288461Y158525D01*
X288403Y158586D01*
X288347Y158650D01*
X288294Y158717D01*
X288245Y158786D01*
X288199Y158857D01*
X288156Y158930D01*
X288116Y159005D01*
X288080Y159081D01*
X288048Y159159D01*
X288019Y159239D01*
X287994Y159320D01*
X287973Y159402D01*
X287955Y159485D01*
X287942Y159569D01*
X287932Y159653D01*
X287926Y159737D01*
X287924Y159822D01*
X287923Y159822D02*
X287923Y161657D01*
X287925Y161764D01*
X287931Y161871D01*
X287941Y161978D01*
X287954Y162084D01*
X287972Y162190D01*
X287993Y162295D01*
X288018Y162399D01*
X288047Y162503D01*
X288080Y162605D01*
X288117Y162705D01*
X288157Y162805D01*
X288201Y162903D01*
X288248Y162999D01*
X288299Y163093D01*
X288353Y163186D01*
X288410Y163276D01*
X288471Y163365D01*
X288535Y163451D01*
X288602Y163534D01*
X288672Y163616D01*
X288745Y163694D01*
X288821Y163770D01*
X288899Y163843D01*
X288981Y163913D01*
X289064Y163980D01*
X289150Y164044D01*
X289239Y164105D01*
X289329Y164162D01*
X289422Y164216D01*
X289516Y164267D01*
X289612Y164314D01*
X289710Y164358D01*
X289810Y164398D01*
X289910Y164435D01*
X290012Y164468D01*
X290116Y164497D01*
X290220Y164522D01*
X290325Y164543D01*
X290431Y164561D01*
X290537Y164574D01*
X290644Y164584D01*
X290751Y164590D01*
X290858Y164592D01*
X470408Y166878D02*
X470408Y173482D01*
X472242Y173482D01*
X472327Y173480D01*
X472411Y173474D01*
X472495Y173464D01*
X472579Y173451D01*
X472662Y173433D01*
X472744Y173412D01*
X472825Y173387D01*
X472905Y173358D01*
X472983Y173326D01*
X473059Y173290D01*
X473134Y173250D01*
X473207Y173207D01*
X473278Y173161D01*
X473347Y173112D01*
X473414Y173059D01*
X473478Y173003D01*
X473539Y172945D01*
X473597Y172884D01*
X473653Y172820D01*
X473706Y172753D01*
X473755Y172684D01*
X473801Y172613D01*
X473844Y172540D01*
X473884Y172465D01*
X473920Y172389D01*
X473952Y172311D01*
X473981Y172231D01*
X474006Y172150D01*
X474027Y172068D01*
X474045Y171985D01*
X474058Y171901D01*
X474068Y171817D01*
X474074Y171733D01*
X474076Y171648D01*
X474074Y171563D01*
X474068Y171479D01*
X474058Y171395D01*
X474045Y171311D01*
X474027Y171228D01*
X474006Y171146D01*
X473981Y171065D01*
X473952Y170985D01*
X473920Y170907D01*
X473884Y170831D01*
X473844Y170756D01*
X473801Y170683D01*
X473755Y170612D01*
X473706Y170543D01*
X473653Y170476D01*
X473597Y170412D01*
X473539Y170351D01*
X473478Y170293D01*
X473414Y170237D01*
X473347Y170184D01*
X473278Y170135D01*
X473207Y170089D01*
X473134Y170046D01*
X473059Y170006D01*
X472983Y169970D01*
X472905Y169938D01*
X472825Y169909D01*
X472744Y169884D01*
X472662Y169863D01*
X472579Y169845D01*
X472495Y169832D01*
X472411Y169822D01*
X472327Y169816D01*
X472242Y169814D01*
X472242Y169813D02*
X470408Y169813D01*
X472609Y169813D02*
X474077Y166878D01*
X477207Y172748D02*
X477207Y173482D01*
X480876Y173482D01*
X479042Y166878D01*
D14*
X343500Y214650D02*
X343500Y216600D01*
X418500Y216600D01*
X418500Y214650D01*
X418500Y115550D02*
X418500Y113600D01*
X343500Y113600D01*
X343500Y115550D01*
D18*
X352500Y209650D02*
X352502Y209727D01*
X352508Y209804D01*
X352518Y209881D01*
X352532Y209957D01*
X352549Y210032D01*
X352571Y210106D01*
X352596Y210179D01*
X352626Y210251D01*
X352658Y210321D01*
X352695Y210389D01*
X352734Y210455D01*
X352777Y210519D01*
X352824Y210581D01*
X352873Y210640D01*
X352926Y210697D01*
X352981Y210751D01*
X353039Y210802D01*
X353100Y210850D01*
X353163Y210895D01*
X353228Y210936D01*
X353295Y210974D01*
X353364Y211009D01*
X353435Y211039D01*
X353507Y211067D01*
X353581Y211090D01*
X353655Y211110D01*
X353731Y211126D01*
X353807Y211138D01*
X353884Y211146D01*
X353961Y211150D01*
X354039Y211150D01*
X354116Y211146D01*
X354193Y211138D01*
X354269Y211126D01*
X354345Y211110D01*
X354419Y211090D01*
X354493Y211067D01*
X354565Y211039D01*
X354636Y211009D01*
X354705Y210974D01*
X354772Y210936D01*
X354837Y210895D01*
X354900Y210850D01*
X354961Y210802D01*
X355019Y210751D01*
X355074Y210697D01*
X355127Y210640D01*
X355176Y210581D01*
X355223Y210519D01*
X355266Y210455D01*
X355305Y210389D01*
X355342Y210321D01*
X355374Y210251D01*
X355404Y210179D01*
X355429Y210106D01*
X355451Y210032D01*
X355468Y209957D01*
X355482Y209881D01*
X355492Y209804D01*
X355498Y209727D01*
X355500Y209650D01*
X355498Y209573D01*
X355492Y209496D01*
X355482Y209419D01*
X355468Y209343D01*
X355451Y209268D01*
X355429Y209194D01*
X355404Y209121D01*
X355374Y209049D01*
X355342Y208979D01*
X355305Y208911D01*
X355266Y208845D01*
X355223Y208781D01*
X355176Y208719D01*
X355127Y208660D01*
X355074Y208603D01*
X355019Y208549D01*
X354961Y208498D01*
X354900Y208450D01*
X354837Y208405D01*
X354772Y208364D01*
X354705Y208326D01*
X354636Y208291D01*
X354565Y208261D01*
X354493Y208233D01*
X354419Y208210D01*
X354345Y208190D01*
X354269Y208174D01*
X354193Y208162D01*
X354116Y208154D01*
X354039Y208150D01*
X353961Y208150D01*
X353884Y208154D01*
X353807Y208162D01*
X353731Y208174D01*
X353655Y208190D01*
X353581Y208210D01*
X353507Y208233D01*
X353435Y208261D01*
X353364Y208291D01*
X353295Y208326D01*
X353228Y208364D01*
X353163Y208405D01*
X353100Y208450D01*
X353039Y208498D01*
X352981Y208549D01*
X352926Y208603D01*
X352873Y208660D01*
X352824Y208719D01*
X352777Y208781D01*
X352734Y208845D01*
X352695Y208911D01*
X352658Y208979D01*
X352626Y209049D01*
X352596Y209121D01*
X352571Y209194D01*
X352549Y209268D01*
X352532Y209343D01*
X352518Y209419D01*
X352508Y209496D01*
X352502Y209573D01*
X352500Y209650D01*
D10*
X375158Y224734D02*
X375158Y229870D01*
X375158Y224734D02*
X375160Y224647D01*
X375166Y224559D01*
X375175Y224472D01*
X375189Y224386D01*
X375206Y224300D01*
X375227Y224216D01*
X375252Y224132D01*
X375281Y224049D01*
X375313Y223968D01*
X375348Y223888D01*
X375387Y223810D01*
X375430Y223733D01*
X375476Y223659D01*
X375525Y223587D01*
X375577Y223517D01*
X375633Y223449D01*
X375691Y223384D01*
X375752Y223321D01*
X375816Y223262D01*
X375883Y223205D01*
X375951Y223151D01*
X376023Y223100D01*
X376096Y223053D01*
X376171Y223008D01*
X376249Y222967D01*
X376328Y222930D01*
X376408Y222896D01*
X376490Y222866D01*
X376573Y222839D01*
X376658Y222816D01*
X376743Y222797D01*
X376829Y222782D01*
X376916Y222770D01*
X377003Y222762D01*
X377090Y222758D01*
X377178Y222758D01*
X377265Y222762D01*
X377352Y222770D01*
X377439Y222782D01*
X377525Y222797D01*
X377610Y222816D01*
X377695Y222839D01*
X377778Y222866D01*
X377860Y222896D01*
X377940Y222930D01*
X378019Y222967D01*
X378097Y223008D01*
X378172Y223053D01*
X378245Y223100D01*
X378317Y223151D01*
X378385Y223205D01*
X378452Y223262D01*
X378516Y223321D01*
X378577Y223384D01*
X378635Y223449D01*
X378691Y223517D01*
X378743Y223587D01*
X378792Y223659D01*
X378838Y223733D01*
X378881Y223810D01*
X378920Y223888D01*
X378955Y223968D01*
X378987Y224049D01*
X379016Y224132D01*
X379041Y224216D01*
X379062Y224300D01*
X379079Y224386D01*
X379093Y224472D01*
X379102Y224559D01*
X379108Y224647D01*
X379110Y224734D01*
X379109Y224734D02*
X379109Y229870D01*
X384205Y229870D02*
X384205Y222758D01*
X384205Y226314D02*
X383217Y226907D01*
X383160Y226944D01*
X383105Y226984D01*
X383052Y227027D01*
X383002Y227073D01*
X382954Y227121D01*
X382910Y227173D01*
X382868Y227227D01*
X382830Y227283D01*
X382795Y227341D01*
X382764Y227401D01*
X382736Y227463D01*
X382711Y227527D01*
X382690Y227592D01*
X382673Y227657D01*
X382660Y227724D01*
X382651Y227791D01*
X382646Y227859D01*
X382644Y227927D01*
X382646Y227995D01*
X382653Y228063D01*
X382663Y228130D01*
X382677Y228197D01*
X382695Y228262D01*
X382717Y228327D01*
X382742Y228390D01*
X382771Y228451D01*
X382803Y228511D01*
X382839Y228569D01*
X382878Y228625D01*
X382920Y228678D01*
X382966Y228729D01*
X383014Y228777D01*
X383064Y228822D01*
X383118Y228864D01*
X383173Y228903D01*
X383231Y228939D01*
X383291Y228972D01*
X383352Y229001D01*
X383415Y229026D01*
X383480Y229048D01*
X383545Y229066D01*
X383612Y229080D01*
X383612Y229079D02*
X383718Y229097D01*
X383825Y229110D01*
X383932Y229121D01*
X384039Y229127D01*
X384147Y229130D01*
X384254Y229129D01*
X384362Y229124D01*
X384469Y229116D01*
X384576Y229104D01*
X384682Y229089D01*
X384788Y229069D01*
X384893Y229047D01*
X384997Y229020D01*
X385100Y228990D01*
X385202Y228957D01*
X385303Y228920D01*
X385403Y228879D01*
X385501Y228835D01*
X385597Y228788D01*
X385692Y228738D01*
X385785Y228684D01*
X384205Y226314D02*
X385193Y225721D01*
X385192Y225721D02*
X385249Y225684D01*
X385304Y225644D01*
X385357Y225601D01*
X385407Y225555D01*
X385455Y225507D01*
X385499Y225455D01*
X385541Y225401D01*
X385579Y225345D01*
X385614Y225287D01*
X385645Y225227D01*
X385673Y225165D01*
X385698Y225101D01*
X385719Y225036D01*
X385736Y224971D01*
X385749Y224904D01*
X385758Y224837D01*
X385763Y224769D01*
X385765Y224701D01*
X385763Y224633D01*
X385756Y224565D01*
X385746Y224498D01*
X385732Y224431D01*
X385714Y224366D01*
X385692Y224301D01*
X385667Y224238D01*
X385638Y224177D01*
X385606Y224117D01*
X385570Y224059D01*
X385531Y224003D01*
X385489Y223950D01*
X385443Y223899D01*
X385395Y223851D01*
X385345Y223806D01*
X385291Y223764D01*
X385236Y223725D01*
X385178Y223689D01*
X385118Y223656D01*
X385057Y223627D01*
X384994Y223602D01*
X384929Y223580D01*
X384864Y223562D01*
X384797Y223548D01*
X384798Y223549D02*
X384692Y223531D01*
X384585Y223518D01*
X384478Y223507D01*
X384371Y223501D01*
X384263Y223498D01*
X384156Y223499D01*
X384048Y223504D01*
X383941Y223512D01*
X383834Y223524D01*
X383728Y223539D01*
X383622Y223559D01*
X383517Y223581D01*
X383413Y223608D01*
X383310Y223638D01*
X383208Y223671D01*
X383107Y223708D01*
X383007Y223749D01*
X382909Y223793D01*
X382813Y223840D01*
X382718Y223890D01*
X382625Y223944D01*
X389057Y228290D02*
X391032Y229870D01*
X391032Y222758D01*
X389057Y222758D02*
X393008Y222758D01*
D14*
X474345Y269875D02*
X474345Y278765D01*
X474345Y269875D02*
X474343Y269775D01*
X474337Y269676D01*
X474327Y269576D01*
X474314Y269478D01*
X474296Y269379D01*
X474275Y269282D01*
X474250Y269186D01*
X474221Y269090D01*
X474188Y268996D01*
X474152Y268903D01*
X474112Y268812D01*
X474068Y268722D01*
X474021Y268634D01*
X473971Y268548D01*
X473917Y268464D01*
X473860Y268382D01*
X473800Y268303D01*
X473736Y268225D01*
X473670Y268151D01*
X473601Y268079D01*
X473529Y268010D01*
X473455Y267944D01*
X473377Y267880D01*
X473298Y267820D01*
X473216Y267763D01*
X473132Y267709D01*
X473046Y267659D01*
X472958Y267612D01*
X472868Y267568D01*
X472777Y267528D01*
X472684Y267492D01*
X472590Y267459D01*
X472494Y267430D01*
X472398Y267405D01*
X472301Y267384D01*
X472202Y267366D01*
X472104Y267353D01*
X472004Y267343D01*
X471905Y267337D01*
X471805Y267335D01*
X470535Y267335D01*
X480325Y267335D02*
X480325Y278765D01*
X483500Y278765D01*
X483611Y278763D01*
X483721Y278757D01*
X483832Y278748D01*
X483942Y278734D01*
X484051Y278717D01*
X484160Y278696D01*
X484268Y278671D01*
X484375Y278642D01*
X484481Y278610D01*
X484586Y278574D01*
X484689Y278534D01*
X484791Y278491D01*
X484892Y278444D01*
X484991Y278393D01*
X485088Y278340D01*
X485182Y278283D01*
X485275Y278222D01*
X485366Y278159D01*
X485455Y278092D01*
X485541Y278022D01*
X485624Y277949D01*
X485706Y277874D01*
X485784Y277796D01*
X485859Y277714D01*
X485932Y277631D01*
X486002Y277545D01*
X486069Y277456D01*
X486132Y277365D01*
X486193Y277272D01*
X486250Y277177D01*
X486303Y277081D01*
X486354Y276982D01*
X486401Y276881D01*
X486444Y276779D01*
X486484Y276676D01*
X486520Y276571D01*
X486552Y276465D01*
X486581Y276358D01*
X486606Y276250D01*
X486627Y276141D01*
X486644Y276032D01*
X486658Y275922D01*
X486667Y275811D01*
X486673Y275701D01*
X486675Y275590D01*
X486673Y275479D01*
X486667Y275369D01*
X486658Y275258D01*
X486644Y275148D01*
X486627Y275039D01*
X486606Y274930D01*
X486581Y274822D01*
X486552Y274715D01*
X486520Y274609D01*
X486484Y274504D01*
X486444Y274401D01*
X486401Y274299D01*
X486354Y274198D01*
X486303Y274099D01*
X486250Y274002D01*
X486193Y273908D01*
X486132Y273815D01*
X486069Y273724D01*
X486002Y273635D01*
X485932Y273549D01*
X485859Y273466D01*
X485784Y273384D01*
X485706Y273306D01*
X485624Y273231D01*
X485541Y273158D01*
X485455Y273088D01*
X485366Y273021D01*
X485275Y272958D01*
X485182Y272897D01*
X485088Y272840D01*
X484991Y272787D01*
X484892Y272736D01*
X484791Y272689D01*
X484689Y272646D01*
X484586Y272606D01*
X484481Y272570D01*
X484375Y272538D01*
X484268Y272509D01*
X484160Y272484D01*
X484051Y272463D01*
X483942Y272446D01*
X483832Y272432D01*
X483721Y272423D01*
X483611Y272417D01*
X483500Y272415D01*
X480325Y272415D01*
X491184Y267335D02*
X494994Y267335D01*
X495094Y267337D01*
X495193Y267343D01*
X495293Y267353D01*
X495391Y267366D01*
X495490Y267384D01*
X495587Y267405D01*
X495683Y267430D01*
X495779Y267459D01*
X495873Y267492D01*
X495966Y267528D01*
X496057Y267568D01*
X496147Y267612D01*
X496235Y267659D01*
X496321Y267709D01*
X496405Y267763D01*
X496487Y267820D01*
X496566Y267880D01*
X496644Y267944D01*
X496718Y268010D01*
X496790Y268079D01*
X496859Y268151D01*
X496925Y268225D01*
X496989Y268303D01*
X497049Y268382D01*
X497106Y268464D01*
X497160Y268548D01*
X497210Y268634D01*
X497257Y268722D01*
X497301Y268812D01*
X497341Y268903D01*
X497377Y268996D01*
X497410Y269090D01*
X497439Y269186D01*
X497464Y269282D01*
X497485Y269379D01*
X497503Y269478D01*
X497516Y269576D01*
X497526Y269676D01*
X497532Y269775D01*
X497534Y269875D01*
X497534Y271145D01*
X497532Y271245D01*
X497526Y271344D01*
X497516Y271444D01*
X497503Y271542D01*
X497485Y271641D01*
X497464Y271738D01*
X497439Y271834D01*
X497410Y271930D01*
X497377Y272024D01*
X497341Y272117D01*
X497301Y272208D01*
X497257Y272298D01*
X497210Y272386D01*
X497160Y272472D01*
X497106Y272556D01*
X497049Y272638D01*
X496989Y272717D01*
X496925Y272795D01*
X496859Y272869D01*
X496790Y272941D01*
X496718Y273010D01*
X496644Y273076D01*
X496566Y273140D01*
X496487Y273200D01*
X496405Y273257D01*
X496321Y273311D01*
X496235Y273361D01*
X496147Y273408D01*
X496057Y273452D01*
X495966Y273492D01*
X495873Y273528D01*
X495779Y273561D01*
X495683Y273590D01*
X495587Y273615D01*
X495490Y273636D01*
X495391Y273654D01*
X495293Y273667D01*
X495193Y273677D01*
X495094Y273683D01*
X494994Y273685D01*
X491184Y273685D01*
X491184Y278765D01*
X497534Y278765D01*
D19*
X137837Y30988D02*
X137837Y22296D01*
X137838Y22296D02*
X137836Y22198D01*
X137830Y22101D01*
X137821Y22004D01*
X137807Y21907D01*
X137790Y21811D01*
X137769Y21716D01*
X137745Y21622D01*
X137716Y21528D01*
X137684Y21436D01*
X137649Y21345D01*
X137610Y21256D01*
X137567Y21168D01*
X137521Y21082D01*
X137472Y20998D01*
X137419Y20916D01*
X137364Y20836D01*
X137305Y20758D01*
X137243Y20683D01*
X137178Y20610D01*
X137110Y20540D01*
X137040Y20472D01*
X136967Y20407D01*
X136892Y20345D01*
X136814Y20286D01*
X136734Y20231D01*
X136652Y20178D01*
X136568Y20129D01*
X136482Y20083D01*
X136394Y20040D01*
X136305Y20001D01*
X136214Y19966D01*
X136122Y19934D01*
X136028Y19905D01*
X135934Y19881D01*
X135839Y19860D01*
X135743Y19843D01*
X135646Y19829D01*
X135549Y19820D01*
X135451Y19814D01*
X135354Y19812D01*
X134112Y19812D01*
X143974Y19812D02*
X143974Y30988D01*
X147078Y30988D01*
X147189Y30986D01*
X147299Y30980D01*
X147410Y30970D01*
X147520Y30956D01*
X147629Y30939D01*
X147738Y30917D01*
X147846Y30892D01*
X147952Y30862D01*
X148058Y30829D01*
X148163Y30792D01*
X148266Y30752D01*
X148367Y30707D01*
X148467Y30660D01*
X148566Y30608D01*
X148662Y30553D01*
X148756Y30495D01*
X148848Y30434D01*
X148938Y30369D01*
X149026Y30301D01*
X149111Y30230D01*
X149193Y30156D01*
X149273Y30079D01*
X149350Y29999D01*
X149424Y29917D01*
X149495Y29832D01*
X149563Y29744D01*
X149628Y29654D01*
X149689Y29562D01*
X149747Y29468D01*
X149802Y29372D01*
X149854Y29273D01*
X149901Y29173D01*
X149946Y29072D01*
X149986Y28969D01*
X150023Y28864D01*
X150056Y28758D01*
X150086Y28652D01*
X150111Y28544D01*
X150133Y28435D01*
X150150Y28326D01*
X150164Y28216D01*
X150174Y28105D01*
X150180Y27995D01*
X150182Y27884D01*
X150180Y27773D01*
X150174Y27663D01*
X150164Y27552D01*
X150150Y27442D01*
X150133Y27333D01*
X150111Y27224D01*
X150086Y27116D01*
X150056Y27010D01*
X150023Y26904D01*
X149986Y26799D01*
X149946Y26696D01*
X149901Y26595D01*
X149854Y26495D01*
X149802Y26396D01*
X149747Y26300D01*
X149689Y26206D01*
X149628Y26114D01*
X149563Y26024D01*
X149495Y25936D01*
X149424Y25851D01*
X149350Y25769D01*
X149273Y25689D01*
X149193Y25612D01*
X149111Y25538D01*
X149026Y25467D01*
X148938Y25399D01*
X148848Y25334D01*
X148756Y25273D01*
X148662Y25215D01*
X148566Y25160D01*
X148467Y25108D01*
X148367Y25061D01*
X148266Y25016D01*
X148163Y24976D01*
X148058Y24939D01*
X147952Y24906D01*
X147846Y24876D01*
X147738Y24851D01*
X147629Y24829D01*
X147520Y24812D01*
X147410Y24798D01*
X147299Y24788D01*
X147189Y24782D01*
X147078Y24780D01*
X147078Y24779D02*
X143974Y24779D01*
X154811Y28504D02*
X157916Y30988D01*
X157916Y19812D01*
X161020Y19812D02*
X154811Y19812D01*
D14*
X545150Y31050D02*
X550150Y26050D01*
X545150Y31050D02*
X545150Y41050D01*
X550150Y46050D01*
X580150Y46050D01*
X585150Y41050D01*
X585150Y31050D01*
X580150Y26050D01*
X550150Y26050D01*
X550150Y46050D02*
X545150Y51050D01*
X545150Y61050D01*
X550150Y66050D01*
X580150Y66050D01*
X585150Y61050D01*
X585150Y51050D01*
X580150Y46050D01*
X550150Y66050D02*
X545150Y71050D01*
X545150Y81050D01*
X550150Y86050D01*
X545150Y91050D01*
X545150Y101050D01*
X550150Y106050D01*
X545150Y111050D01*
X545150Y121050D01*
X550150Y126050D01*
X545150Y131050D01*
X545150Y141050D01*
X550150Y146050D01*
X545150Y151050D01*
X545150Y161050D01*
X550150Y166050D01*
X545150Y171050D01*
X545150Y181050D01*
X550150Y186050D01*
X545150Y191050D01*
X545150Y201050D01*
X550150Y206050D01*
X545150Y211050D01*
X545150Y221050D01*
X550150Y226050D01*
X545150Y231050D01*
X545150Y241050D01*
X550150Y246050D01*
X545150Y251050D01*
X545150Y261050D01*
X550150Y266050D01*
X580150Y266050D01*
X585150Y261050D01*
X585150Y251050D01*
X580150Y246050D01*
X550150Y246050D01*
X580150Y246050D02*
X585150Y241050D01*
X585150Y231050D01*
X580150Y226050D01*
X585150Y221050D01*
X585150Y211050D01*
X580150Y206050D01*
X585150Y201050D01*
X585150Y191050D01*
X580150Y186050D01*
X585150Y181050D01*
X585150Y171050D01*
X580150Y166050D01*
X585150Y161050D01*
X585150Y151050D01*
X580150Y146050D01*
X585150Y141050D01*
X585150Y131050D01*
X580150Y126050D01*
X585150Y121050D01*
X585150Y111050D01*
X580150Y106050D01*
X585150Y101050D01*
X585150Y91050D01*
X580150Y86050D01*
X585150Y81050D01*
X585150Y71050D01*
X580150Y66050D01*
X580150Y86050D02*
X550150Y86050D01*
X550150Y106050D02*
X580150Y106050D01*
X580150Y126050D02*
X550150Y126050D01*
X550150Y146050D02*
X580150Y146050D01*
X580150Y166050D02*
X550150Y166050D01*
X550150Y186050D02*
X580150Y186050D01*
X580150Y206050D02*
X550150Y206050D01*
X550150Y226050D02*
X580150Y226050D01*
D19*
X553905Y276296D02*
X553905Y284988D01*
X553906Y276296D02*
X553904Y276198D01*
X553898Y276101D01*
X553889Y276004D01*
X553875Y275907D01*
X553858Y275811D01*
X553837Y275716D01*
X553813Y275622D01*
X553784Y275528D01*
X553752Y275436D01*
X553717Y275345D01*
X553678Y275256D01*
X553635Y275168D01*
X553589Y275082D01*
X553540Y274998D01*
X553487Y274916D01*
X553432Y274836D01*
X553373Y274758D01*
X553311Y274683D01*
X553246Y274610D01*
X553178Y274540D01*
X553108Y274472D01*
X553035Y274407D01*
X552960Y274345D01*
X552882Y274286D01*
X552802Y274231D01*
X552720Y274178D01*
X552636Y274129D01*
X552550Y274083D01*
X552462Y274040D01*
X552373Y274001D01*
X552282Y273966D01*
X552190Y273934D01*
X552096Y273905D01*
X552002Y273881D01*
X551907Y273860D01*
X551811Y273843D01*
X551714Y273829D01*
X551617Y273820D01*
X551519Y273814D01*
X551422Y273812D01*
X550180Y273812D01*
X560042Y273812D02*
X560042Y284988D01*
X563146Y284988D01*
X563257Y284986D01*
X563367Y284980D01*
X563478Y284970D01*
X563588Y284956D01*
X563697Y284939D01*
X563806Y284917D01*
X563914Y284892D01*
X564020Y284862D01*
X564126Y284829D01*
X564231Y284792D01*
X564334Y284752D01*
X564435Y284707D01*
X564535Y284660D01*
X564634Y284608D01*
X564730Y284553D01*
X564824Y284495D01*
X564916Y284434D01*
X565006Y284369D01*
X565094Y284301D01*
X565179Y284230D01*
X565261Y284156D01*
X565341Y284079D01*
X565418Y283999D01*
X565492Y283917D01*
X565563Y283832D01*
X565631Y283744D01*
X565696Y283654D01*
X565757Y283562D01*
X565815Y283468D01*
X565870Y283372D01*
X565922Y283273D01*
X565969Y283173D01*
X566014Y283072D01*
X566054Y282969D01*
X566091Y282864D01*
X566124Y282758D01*
X566154Y282652D01*
X566179Y282544D01*
X566201Y282435D01*
X566218Y282326D01*
X566232Y282216D01*
X566242Y282105D01*
X566248Y281995D01*
X566250Y281884D01*
X566248Y281773D01*
X566242Y281663D01*
X566232Y281552D01*
X566218Y281442D01*
X566201Y281333D01*
X566179Y281224D01*
X566154Y281116D01*
X566124Y281010D01*
X566091Y280904D01*
X566054Y280799D01*
X566014Y280696D01*
X565969Y280595D01*
X565922Y280495D01*
X565870Y280396D01*
X565815Y280300D01*
X565757Y280206D01*
X565696Y280114D01*
X565631Y280024D01*
X565563Y279936D01*
X565492Y279851D01*
X565418Y279769D01*
X565341Y279689D01*
X565261Y279612D01*
X565179Y279538D01*
X565094Y279467D01*
X565006Y279399D01*
X564916Y279334D01*
X564824Y279273D01*
X564730Y279215D01*
X564634Y279160D01*
X564535Y279108D01*
X564435Y279061D01*
X564334Y279016D01*
X564231Y278976D01*
X564126Y278939D01*
X564020Y278906D01*
X563914Y278876D01*
X563806Y278851D01*
X563697Y278829D01*
X563588Y278812D01*
X563478Y278798D01*
X563367Y278788D01*
X563257Y278782D01*
X563146Y278780D01*
X563146Y278779D02*
X560042Y278779D01*
X574294Y284988D02*
X574398Y284986D01*
X574503Y284980D01*
X574607Y284970D01*
X574710Y284957D01*
X574813Y284939D01*
X574916Y284918D01*
X575017Y284893D01*
X575118Y284864D01*
X575217Y284831D01*
X575315Y284795D01*
X575411Y284755D01*
X575506Y284711D01*
X575600Y284664D01*
X575691Y284614D01*
X575780Y284560D01*
X575868Y284503D01*
X575953Y284442D01*
X576036Y284378D01*
X576116Y284312D01*
X576194Y284242D01*
X576270Y284170D01*
X576342Y284094D01*
X576412Y284016D01*
X576478Y283936D01*
X576542Y283853D01*
X576603Y283768D01*
X576660Y283680D01*
X576714Y283591D01*
X576764Y283500D01*
X576811Y283406D01*
X576855Y283311D01*
X576895Y283215D01*
X576931Y283117D01*
X576964Y283018D01*
X576993Y282917D01*
X577018Y282816D01*
X577039Y282713D01*
X577057Y282610D01*
X577070Y282507D01*
X577080Y282403D01*
X577086Y282298D01*
X577088Y282194D01*
X574294Y284989D02*
X574175Y284987D01*
X574057Y284981D01*
X573938Y284971D01*
X573820Y284958D01*
X573703Y284940D01*
X573586Y284918D01*
X573470Y284893D01*
X573355Y284864D01*
X573240Y284831D01*
X573127Y284794D01*
X573016Y284754D01*
X572905Y284710D01*
X572797Y284662D01*
X572690Y284611D01*
X572584Y284556D01*
X572481Y284497D01*
X572379Y284436D01*
X572280Y284371D01*
X572182Y284302D01*
X572088Y284231D01*
X571995Y284156D01*
X571905Y284079D01*
X571818Y283998D01*
X571733Y283915D01*
X571651Y283829D01*
X571572Y283740D01*
X571496Y283649D01*
X571423Y283555D01*
X571354Y283459D01*
X571287Y283360D01*
X571224Y283260D01*
X571164Y283157D01*
X571107Y283053D01*
X571055Y282946D01*
X571005Y282838D01*
X570959Y282729D01*
X570917Y282617D01*
X570879Y282505D01*
X576157Y280021D02*
X576232Y280095D01*
X576304Y280172D01*
X576374Y280251D01*
X576441Y280333D01*
X576505Y280417D01*
X576566Y280503D01*
X576624Y280591D01*
X576679Y280682D01*
X576731Y280774D01*
X576779Y280868D01*
X576824Y280963D01*
X576866Y281061D01*
X576904Y281159D01*
X576939Y281259D01*
X576970Y281360D01*
X576997Y281462D01*
X577021Y281565D01*
X577042Y281668D01*
X577058Y281773D01*
X577071Y281878D01*
X577081Y281983D01*
X577086Y282088D01*
X577088Y282194D01*
X576157Y280021D02*
X570879Y273812D01*
X577088Y273812D01*
D20*
X41850Y100100D03*
X34350Y100100D03*
D21*
X38100Y100100D03*
D10*
X26162Y91167D02*
X19558Y91167D01*
X26162Y91167D02*
X26162Y94103D01*
X26162Y97111D02*
X26162Y100046D01*
X26162Y97111D02*
X19558Y97111D01*
X19558Y100046D01*
X22493Y99312D02*
X22493Y97111D01*
X19558Y103037D02*
X26162Y103037D01*
X19558Y103037D02*
X19558Y104871D01*
X19560Y104956D01*
X19566Y105040D01*
X19576Y105124D01*
X19589Y105208D01*
X19607Y105291D01*
X19628Y105373D01*
X19653Y105454D01*
X19682Y105534D01*
X19714Y105612D01*
X19750Y105688D01*
X19790Y105763D01*
X19833Y105836D01*
X19879Y105907D01*
X19928Y105976D01*
X19981Y106043D01*
X20037Y106107D01*
X20095Y106168D01*
X20156Y106226D01*
X20220Y106282D01*
X20287Y106335D01*
X20356Y106384D01*
X20427Y106430D01*
X20500Y106473D01*
X20575Y106513D01*
X20651Y106549D01*
X20730Y106581D01*
X20809Y106610D01*
X20890Y106635D01*
X20972Y106656D01*
X21055Y106674D01*
X21139Y106687D01*
X21223Y106697D01*
X21307Y106703D01*
X21392Y106705D01*
X24328Y106705D01*
X24413Y106703D01*
X24497Y106697D01*
X24581Y106687D01*
X24665Y106674D01*
X24748Y106656D01*
X24830Y106635D01*
X24911Y106610D01*
X24991Y106581D01*
X25069Y106549D01*
X25145Y106513D01*
X25220Y106473D01*
X25293Y106430D01*
X25364Y106384D01*
X25433Y106335D01*
X25500Y106282D01*
X25564Y106226D01*
X25625Y106168D01*
X25683Y106107D01*
X25739Y106043D01*
X25792Y105976D01*
X25841Y105907D01*
X25887Y105836D01*
X25930Y105763D01*
X25970Y105688D01*
X26006Y105612D01*
X26038Y105534D01*
X26067Y105454D01*
X26092Y105373D01*
X26113Y105291D01*
X26131Y105208D01*
X26144Y105124D01*
X26154Y105040D01*
X26160Y104956D01*
X26162Y104871D01*
X26162Y103037D01*
X21026Y110123D02*
X19558Y111958D01*
X26162Y111958D01*
X26162Y113792D02*
X26162Y110123D01*
D14*
X69850Y52600D02*
X69850Y23600D01*
D22*
X85850Y20310D03*
D14*
X62764Y16615D02*
X62764Y11535D01*
X62764Y16615D02*
X62766Y16726D01*
X62772Y16836D01*
X62781Y16947D01*
X62795Y17057D01*
X62812Y17166D01*
X62833Y17275D01*
X62858Y17383D01*
X62887Y17490D01*
X62919Y17596D01*
X62955Y17701D01*
X62995Y17804D01*
X63038Y17906D01*
X63085Y18007D01*
X63136Y18106D01*
X63189Y18202D01*
X63246Y18297D01*
X63307Y18390D01*
X63370Y18481D01*
X63437Y18570D01*
X63507Y18656D01*
X63580Y18739D01*
X63655Y18821D01*
X63733Y18899D01*
X63815Y18974D01*
X63898Y19047D01*
X63984Y19117D01*
X64073Y19184D01*
X64164Y19247D01*
X64257Y19308D01*
X64351Y19365D01*
X64448Y19418D01*
X64547Y19469D01*
X64648Y19516D01*
X64750Y19559D01*
X64853Y19599D01*
X64958Y19635D01*
X65064Y19667D01*
X65171Y19696D01*
X65279Y19721D01*
X65388Y19742D01*
X65497Y19759D01*
X65607Y19773D01*
X65718Y19782D01*
X65828Y19788D01*
X65939Y19790D01*
X66050Y19788D01*
X66160Y19782D01*
X66271Y19773D01*
X66381Y19759D01*
X66490Y19742D01*
X66599Y19721D01*
X66707Y19696D01*
X66814Y19667D01*
X66920Y19635D01*
X67025Y19599D01*
X67128Y19559D01*
X67230Y19516D01*
X67331Y19469D01*
X67430Y19418D01*
X67527Y19365D01*
X67621Y19308D01*
X67714Y19247D01*
X67805Y19184D01*
X67894Y19117D01*
X67980Y19047D01*
X68063Y18974D01*
X68145Y18899D01*
X68223Y18821D01*
X68298Y18739D01*
X68371Y18656D01*
X68441Y18570D01*
X68508Y18481D01*
X68571Y18390D01*
X68632Y18297D01*
X68689Y18203D01*
X68742Y18106D01*
X68793Y18007D01*
X68840Y17906D01*
X68883Y17804D01*
X68923Y17701D01*
X68959Y17596D01*
X68991Y17490D01*
X69020Y17383D01*
X69045Y17275D01*
X69066Y17166D01*
X69083Y17057D01*
X69097Y16947D01*
X69106Y16836D01*
X69112Y16726D01*
X69114Y16615D01*
X69114Y11535D01*
X69112Y11424D01*
X69106Y11314D01*
X69097Y11203D01*
X69083Y11093D01*
X69066Y10984D01*
X69045Y10875D01*
X69020Y10767D01*
X68991Y10660D01*
X68959Y10554D01*
X68923Y10449D01*
X68883Y10346D01*
X68840Y10244D01*
X68793Y10143D01*
X68742Y10044D01*
X68689Y9947D01*
X68632Y9853D01*
X68571Y9760D01*
X68508Y9669D01*
X68441Y9580D01*
X68371Y9494D01*
X68298Y9411D01*
X68223Y9329D01*
X68145Y9251D01*
X68063Y9176D01*
X67980Y9103D01*
X67894Y9033D01*
X67805Y8966D01*
X67714Y8903D01*
X67621Y8842D01*
X67526Y8785D01*
X67430Y8732D01*
X67331Y8681D01*
X67230Y8634D01*
X67128Y8591D01*
X67025Y8551D01*
X66920Y8515D01*
X66814Y8483D01*
X66707Y8454D01*
X66599Y8429D01*
X66490Y8408D01*
X66381Y8391D01*
X66271Y8377D01*
X66160Y8368D01*
X66050Y8362D01*
X65939Y8360D01*
X65828Y8362D01*
X65718Y8368D01*
X65607Y8377D01*
X65497Y8391D01*
X65388Y8408D01*
X65279Y8429D01*
X65171Y8454D01*
X65064Y8483D01*
X64958Y8515D01*
X64853Y8551D01*
X64750Y8591D01*
X64648Y8634D01*
X64547Y8681D01*
X64448Y8732D01*
X64352Y8785D01*
X64257Y8842D01*
X64164Y8903D01*
X64073Y8966D01*
X63984Y9033D01*
X63898Y9103D01*
X63815Y9176D01*
X63733Y9251D01*
X63655Y9329D01*
X63580Y9411D01*
X63507Y9494D01*
X63437Y9580D01*
X63370Y9669D01*
X63307Y9760D01*
X63246Y9853D01*
X63189Y9947D01*
X63136Y10044D01*
X63085Y10143D01*
X63038Y10244D01*
X62995Y10346D01*
X62955Y10449D01*
X62919Y10554D01*
X62887Y10660D01*
X62858Y10767D01*
X62833Y10875D01*
X62812Y10984D01*
X62795Y11093D01*
X62781Y11203D01*
X62772Y11314D01*
X62766Y11424D01*
X62764Y11535D01*
X67844Y10900D02*
X70384Y8360D01*
X73825Y11535D02*
X73827Y11646D01*
X73833Y11756D01*
X73842Y11867D01*
X73856Y11977D01*
X73873Y12086D01*
X73894Y12195D01*
X73919Y12303D01*
X73948Y12410D01*
X73980Y12516D01*
X74016Y12621D01*
X74056Y12724D01*
X74099Y12826D01*
X74146Y12927D01*
X74197Y13026D01*
X74250Y13122D01*
X74307Y13217D01*
X74368Y13310D01*
X74431Y13401D01*
X74498Y13490D01*
X74568Y13576D01*
X74641Y13659D01*
X74716Y13741D01*
X74794Y13819D01*
X74876Y13894D01*
X74959Y13967D01*
X75045Y14037D01*
X75134Y14104D01*
X75225Y14167D01*
X75318Y14228D01*
X75413Y14285D01*
X75509Y14338D01*
X75608Y14389D01*
X75709Y14436D01*
X75811Y14479D01*
X75914Y14519D01*
X76019Y14555D01*
X76125Y14587D01*
X76232Y14616D01*
X76340Y14641D01*
X76449Y14662D01*
X76558Y14679D01*
X76668Y14693D01*
X76779Y14702D01*
X76889Y14708D01*
X77000Y14710D01*
X77111Y14708D01*
X77221Y14702D01*
X77332Y14693D01*
X77442Y14679D01*
X77551Y14662D01*
X77660Y14641D01*
X77768Y14616D01*
X77875Y14587D01*
X77981Y14555D01*
X78086Y14519D01*
X78189Y14479D01*
X78291Y14436D01*
X78392Y14389D01*
X78491Y14338D01*
X78588Y14285D01*
X78682Y14228D01*
X78775Y14167D01*
X78866Y14104D01*
X78955Y14037D01*
X79041Y13967D01*
X79124Y13894D01*
X79206Y13819D01*
X79284Y13741D01*
X79359Y13659D01*
X79432Y13576D01*
X79502Y13490D01*
X79569Y13401D01*
X79632Y13310D01*
X79693Y13217D01*
X79750Y13123D01*
X79803Y13026D01*
X79854Y12927D01*
X79901Y12826D01*
X79944Y12724D01*
X79984Y12621D01*
X80020Y12516D01*
X80052Y12410D01*
X80081Y12303D01*
X80106Y12195D01*
X80127Y12086D01*
X80144Y11977D01*
X80158Y11867D01*
X80167Y11756D01*
X80173Y11646D01*
X80175Y11535D01*
X80173Y11424D01*
X80167Y11314D01*
X80158Y11203D01*
X80144Y11093D01*
X80127Y10984D01*
X80106Y10875D01*
X80081Y10767D01*
X80052Y10660D01*
X80020Y10554D01*
X79984Y10449D01*
X79944Y10346D01*
X79901Y10244D01*
X79854Y10143D01*
X79803Y10044D01*
X79750Y9947D01*
X79693Y9853D01*
X79632Y9760D01*
X79569Y9669D01*
X79502Y9580D01*
X79432Y9494D01*
X79359Y9411D01*
X79284Y9329D01*
X79206Y9251D01*
X79124Y9176D01*
X79041Y9103D01*
X78955Y9033D01*
X78866Y8966D01*
X78775Y8903D01*
X78682Y8842D01*
X78587Y8785D01*
X78491Y8732D01*
X78392Y8681D01*
X78291Y8634D01*
X78189Y8591D01*
X78086Y8551D01*
X77981Y8515D01*
X77875Y8483D01*
X77768Y8454D01*
X77660Y8429D01*
X77551Y8408D01*
X77442Y8391D01*
X77332Y8377D01*
X77221Y8368D01*
X77111Y8362D01*
X77000Y8360D01*
X76889Y8362D01*
X76779Y8368D01*
X76668Y8377D01*
X76558Y8391D01*
X76449Y8408D01*
X76340Y8429D01*
X76232Y8454D01*
X76125Y8483D01*
X76019Y8515D01*
X75914Y8551D01*
X75811Y8591D01*
X75709Y8634D01*
X75608Y8681D01*
X75509Y8732D01*
X75413Y8785D01*
X75318Y8842D01*
X75225Y8903D01*
X75134Y8966D01*
X75045Y9033D01*
X74959Y9103D01*
X74876Y9176D01*
X74794Y9251D01*
X74716Y9329D01*
X74641Y9411D01*
X74568Y9494D01*
X74498Y9580D01*
X74431Y9669D01*
X74368Y9760D01*
X74307Y9853D01*
X74250Y9947D01*
X74197Y10044D01*
X74146Y10143D01*
X74099Y10244D01*
X74056Y10346D01*
X74016Y10449D01*
X73980Y10554D01*
X73948Y10660D01*
X73919Y10767D01*
X73894Y10875D01*
X73873Y10984D01*
X73856Y11093D01*
X73842Y11203D01*
X73833Y11314D01*
X73827Y11424D01*
X73825Y11535D01*
X74460Y17250D02*
X74462Y17350D01*
X74468Y17449D01*
X74478Y17549D01*
X74491Y17647D01*
X74509Y17746D01*
X74530Y17843D01*
X74555Y17939D01*
X74584Y18035D01*
X74617Y18129D01*
X74653Y18222D01*
X74693Y18313D01*
X74737Y18403D01*
X74784Y18491D01*
X74834Y18577D01*
X74888Y18661D01*
X74945Y18743D01*
X75005Y18822D01*
X75069Y18900D01*
X75135Y18974D01*
X75204Y19046D01*
X75276Y19115D01*
X75350Y19181D01*
X75428Y19245D01*
X75507Y19305D01*
X75589Y19362D01*
X75673Y19416D01*
X75759Y19466D01*
X75847Y19513D01*
X75937Y19557D01*
X76028Y19597D01*
X76121Y19633D01*
X76215Y19666D01*
X76311Y19695D01*
X76407Y19720D01*
X76504Y19741D01*
X76603Y19759D01*
X76701Y19772D01*
X76801Y19782D01*
X76900Y19788D01*
X77000Y19790D01*
X77100Y19788D01*
X77199Y19782D01*
X77299Y19772D01*
X77397Y19759D01*
X77496Y19741D01*
X77593Y19720D01*
X77689Y19695D01*
X77785Y19666D01*
X77879Y19633D01*
X77972Y19597D01*
X78063Y19557D01*
X78153Y19513D01*
X78241Y19466D01*
X78327Y19416D01*
X78411Y19362D01*
X78493Y19305D01*
X78572Y19245D01*
X78650Y19181D01*
X78724Y19115D01*
X78796Y19046D01*
X78865Y18974D01*
X78931Y18900D01*
X78995Y18822D01*
X79055Y18743D01*
X79112Y18661D01*
X79166Y18577D01*
X79216Y18491D01*
X79263Y18403D01*
X79307Y18313D01*
X79347Y18222D01*
X79383Y18129D01*
X79416Y18035D01*
X79445Y17939D01*
X79470Y17843D01*
X79491Y17746D01*
X79509Y17647D01*
X79522Y17549D01*
X79532Y17449D01*
X79538Y17350D01*
X79540Y17250D01*
X79538Y17150D01*
X79532Y17051D01*
X79522Y16951D01*
X79509Y16853D01*
X79491Y16754D01*
X79470Y16657D01*
X79445Y16561D01*
X79416Y16465D01*
X79383Y16371D01*
X79347Y16278D01*
X79307Y16187D01*
X79263Y16097D01*
X79216Y16009D01*
X79166Y15923D01*
X79112Y15839D01*
X79055Y15757D01*
X78995Y15678D01*
X78931Y15600D01*
X78865Y15526D01*
X78796Y15454D01*
X78724Y15385D01*
X78650Y15319D01*
X78572Y15255D01*
X78493Y15195D01*
X78411Y15138D01*
X78327Y15084D01*
X78241Y15034D01*
X78153Y14987D01*
X78063Y14943D01*
X77972Y14903D01*
X77879Y14867D01*
X77785Y14834D01*
X77689Y14805D01*
X77593Y14780D01*
X77496Y14759D01*
X77397Y14741D01*
X77299Y14728D01*
X77199Y14718D01*
X77100Y14712D01*
X77000Y14710D01*
X76900Y14712D01*
X76801Y14718D01*
X76701Y14728D01*
X76603Y14741D01*
X76504Y14759D01*
X76407Y14780D01*
X76311Y14805D01*
X76215Y14834D01*
X76121Y14867D01*
X76028Y14903D01*
X75937Y14943D01*
X75847Y14987D01*
X75759Y15034D01*
X75673Y15084D01*
X75589Y15138D01*
X75507Y15195D01*
X75428Y15255D01*
X75350Y15319D01*
X75276Y15385D01*
X75204Y15454D01*
X75135Y15526D01*
X75069Y15600D01*
X75005Y15678D01*
X74945Y15757D01*
X74888Y15839D01*
X74834Y15923D01*
X74784Y16009D01*
X74737Y16097D01*
X74693Y16187D01*
X74653Y16278D01*
X74617Y16371D01*
X74584Y16465D01*
X74555Y16561D01*
X74530Y16657D01*
X74509Y16754D01*
X74491Y16853D01*
X74478Y16951D01*
X74468Y17051D01*
X74462Y17150D01*
X74460Y17250D01*
D10*
X95758Y19558D02*
X95758Y26162D01*
X97592Y26162D01*
X97677Y26160D01*
X97761Y26154D01*
X97845Y26144D01*
X97929Y26131D01*
X98012Y26113D01*
X98094Y26092D01*
X98175Y26067D01*
X98255Y26038D01*
X98333Y26006D01*
X98409Y25970D01*
X98484Y25930D01*
X98557Y25887D01*
X98628Y25841D01*
X98697Y25792D01*
X98764Y25739D01*
X98828Y25683D01*
X98889Y25625D01*
X98947Y25564D01*
X99003Y25500D01*
X99056Y25433D01*
X99105Y25364D01*
X99151Y25293D01*
X99194Y25220D01*
X99234Y25145D01*
X99270Y25069D01*
X99302Y24991D01*
X99331Y24911D01*
X99356Y24830D01*
X99377Y24748D01*
X99395Y24665D01*
X99408Y24581D01*
X99418Y24497D01*
X99424Y24413D01*
X99426Y24328D01*
X99424Y24243D01*
X99418Y24159D01*
X99408Y24075D01*
X99395Y23991D01*
X99377Y23908D01*
X99356Y23826D01*
X99331Y23745D01*
X99302Y23665D01*
X99270Y23587D01*
X99234Y23511D01*
X99194Y23436D01*
X99151Y23363D01*
X99105Y23292D01*
X99056Y23223D01*
X99003Y23156D01*
X98947Y23092D01*
X98889Y23031D01*
X98828Y22973D01*
X98764Y22917D01*
X98697Y22864D01*
X98628Y22815D01*
X98557Y22769D01*
X98484Y22726D01*
X98409Y22686D01*
X98333Y22650D01*
X98255Y22618D01*
X98175Y22589D01*
X98094Y22564D01*
X98012Y22543D01*
X97929Y22525D01*
X97845Y22512D01*
X97761Y22502D01*
X97677Y22496D01*
X97592Y22494D01*
X97592Y22493D02*
X95758Y22493D01*
X97959Y22493D02*
X99427Y19558D01*
X102557Y24694D02*
X104392Y26162D01*
X104392Y19558D01*
X106226Y19558D02*
X102557Y19558D01*
X109415Y24694D02*
X111250Y26162D01*
X111250Y19558D01*
X113084Y19558D02*
X109415Y19558D01*
X116273Y19558D02*
X118474Y19558D01*
X118548Y19560D01*
X118623Y19566D01*
X118696Y19575D01*
X118770Y19588D01*
X118842Y19605D01*
X118913Y19625D01*
X118984Y19649D01*
X119053Y19677D01*
X119120Y19708D01*
X119186Y19742D01*
X119251Y19780D01*
X119313Y19821D01*
X119373Y19865D01*
X119430Y19912D01*
X119485Y19962D01*
X119538Y20015D01*
X119588Y20070D01*
X119635Y20127D01*
X119679Y20187D01*
X119720Y20249D01*
X119758Y20314D01*
X119792Y20379D01*
X119823Y20447D01*
X119851Y20516D01*
X119875Y20587D01*
X119895Y20658D01*
X119912Y20730D01*
X119925Y20804D01*
X119934Y20877D01*
X119940Y20952D01*
X119942Y21026D01*
X119942Y21759D01*
X119940Y21833D01*
X119934Y21908D01*
X119925Y21981D01*
X119912Y22055D01*
X119895Y22127D01*
X119875Y22198D01*
X119851Y22269D01*
X119823Y22338D01*
X119792Y22405D01*
X119758Y22471D01*
X119720Y22536D01*
X119679Y22598D01*
X119635Y22658D01*
X119588Y22715D01*
X119538Y22770D01*
X119485Y22823D01*
X119430Y22873D01*
X119373Y22920D01*
X119313Y22964D01*
X119251Y23005D01*
X119186Y23043D01*
X119120Y23077D01*
X119053Y23108D01*
X118984Y23136D01*
X118913Y23160D01*
X118842Y23180D01*
X118770Y23197D01*
X118696Y23210D01*
X118623Y23219D01*
X118548Y23225D01*
X118474Y23227D01*
X116273Y23227D01*
X116273Y26162D01*
X119942Y26162D01*
X57452Y120008D02*
X50848Y120008D01*
X50848Y121842D01*
X50850Y121927D01*
X50856Y122011D01*
X50866Y122095D01*
X50879Y122179D01*
X50897Y122262D01*
X50918Y122344D01*
X50943Y122425D01*
X50972Y122505D01*
X51004Y122583D01*
X51040Y122659D01*
X51080Y122734D01*
X51123Y122807D01*
X51169Y122878D01*
X51218Y122947D01*
X51271Y123014D01*
X51327Y123078D01*
X51385Y123139D01*
X51446Y123197D01*
X51510Y123253D01*
X51577Y123306D01*
X51646Y123355D01*
X51717Y123401D01*
X51790Y123444D01*
X51865Y123484D01*
X51941Y123520D01*
X52019Y123552D01*
X52099Y123581D01*
X52180Y123606D01*
X52262Y123627D01*
X52345Y123645D01*
X52429Y123658D01*
X52513Y123668D01*
X52597Y123674D01*
X52682Y123676D01*
X52767Y123674D01*
X52851Y123668D01*
X52935Y123658D01*
X53019Y123645D01*
X53102Y123627D01*
X53184Y123606D01*
X53265Y123581D01*
X53345Y123552D01*
X53423Y123520D01*
X53499Y123484D01*
X53574Y123444D01*
X53647Y123401D01*
X53718Y123355D01*
X53787Y123306D01*
X53854Y123253D01*
X53918Y123197D01*
X53979Y123139D01*
X54037Y123078D01*
X54093Y123014D01*
X54146Y122947D01*
X54195Y122878D01*
X54241Y122807D01*
X54284Y122734D01*
X54324Y122659D01*
X54360Y122583D01*
X54392Y122505D01*
X54421Y122425D01*
X54446Y122344D01*
X54467Y122262D01*
X54485Y122179D01*
X54498Y122095D01*
X54508Y122011D01*
X54514Y121927D01*
X54516Y121842D01*
X54517Y121842D02*
X54517Y120008D01*
X54517Y122209D02*
X57452Y123677D01*
X52316Y126807D02*
X50848Y128642D01*
X57452Y128642D01*
X57452Y130476D02*
X57452Y126807D01*
M02*
