G04 EAGLE Gerber RS-274X export*
G75*
%MOMM*%
%FSLAX34Y34*%
%LPD*%
%INSoldermask Top*%
%IPNEG*%
%AMOC8*
5,1,8,0,0,1.08239X$1,22.5*%
G01*
%ADD10C,0.460734*%
%ADD11R,1.251600X1.751600*%
%ADD12C,0.360766*%
%ADD13R,10.101600X10.101600*%
%ADD14R,1.651600X0.401600*%
%ADD15R,6.201600X6.201600*%
%ADD16R,1.501600X1.901600*%
%ADD17C,0.343781*%
%ADD18R,1.251600X0.901600*%
%ADD19C,0.563219*%
%ADD20C,0.451600*%
%ADD21R,2.461600X4.951600*%
%ADD22C,0.297431*%
%ADD23R,2.901600X0.901600*%
%ADD24R,2.801600X1.134600*%
%ADD25R,2.801600X2.167600*%
%ADD26C,1.501600*%
%ADD27C,1.422400*%
%ADD28C,1.625600*%
%ADD29R,1.151600X0.601600*%
%ADD30R,0.901600X1.251600*%
%ADD31C,1.879600*%
%ADD32P,2.034460X8X22.500000*%
%ADD33P,7.093118X8X22.500000*%
%ADD34R,5.601600X4.101600*%
%ADD35R,1.251600X2.801600*%
%ADD36R,2.101600X1.601600*%
%ADD37R,2.101600X3.901600*%
%ADD38R,2.801600X1.251600*%
%ADD39C,1.625600*%
%ADD40R,1.901600X4.501600*%

G36*
X1568476Y214380D02*
X1568476Y214380D01*
X1568502Y214378D01*
X1568649Y214400D01*
X1568796Y214417D01*
X1568821Y214425D01*
X1568847Y214429D01*
X1568985Y214484D01*
X1569124Y214534D01*
X1569146Y214548D01*
X1569171Y214558D01*
X1569292Y214643D01*
X1569417Y214723D01*
X1569435Y214742D01*
X1569457Y214757D01*
X1569556Y214867D01*
X1569659Y214974D01*
X1569673Y214996D01*
X1569690Y215016D01*
X1569762Y215146D01*
X1569838Y215273D01*
X1569846Y215298D01*
X1569859Y215321D01*
X1569899Y215464D01*
X1569944Y215605D01*
X1569946Y215631D01*
X1569954Y215656D01*
X1569973Y215900D01*
X1569973Y223046D01*
X1575600Y223046D01*
X1575604Y223049D01*
X1575604Y223050D01*
X1575604Y323050D01*
X1575601Y323054D01*
X1575600Y323054D01*
X1569973Y323054D01*
X1569973Y350046D01*
X1575600Y350046D01*
X1575604Y350049D01*
X1575604Y350050D01*
X1575604Y450050D01*
X1575601Y450054D01*
X1575600Y450054D01*
X1569973Y450054D01*
X1569973Y463550D01*
X1569970Y463576D01*
X1569972Y463602D01*
X1569950Y463749D01*
X1569933Y463896D01*
X1569925Y463921D01*
X1569921Y463947D01*
X1569866Y464085D01*
X1569816Y464224D01*
X1569802Y464246D01*
X1569792Y464271D01*
X1569707Y464392D01*
X1569627Y464517D01*
X1569608Y464535D01*
X1569593Y464557D01*
X1569483Y464656D01*
X1569376Y464759D01*
X1569354Y464773D01*
X1569334Y464790D01*
X1569204Y464862D01*
X1569077Y464938D01*
X1569052Y464946D01*
X1569029Y464959D01*
X1568886Y464999D01*
X1568745Y465044D01*
X1568719Y465046D01*
X1568694Y465054D01*
X1568450Y465073D01*
X1377950Y465073D01*
X1377924Y465070D01*
X1377898Y465072D01*
X1377751Y465050D01*
X1377604Y465033D01*
X1377579Y465025D01*
X1377553Y465021D01*
X1377415Y464966D01*
X1377276Y464916D01*
X1377254Y464902D01*
X1377229Y464892D01*
X1377108Y464807D01*
X1376983Y464727D01*
X1376965Y464708D01*
X1376943Y464693D01*
X1376844Y464583D01*
X1376741Y464476D01*
X1376727Y464454D01*
X1376710Y464434D01*
X1376638Y464304D01*
X1376562Y464177D01*
X1376554Y464152D01*
X1376541Y464129D01*
X1376501Y463986D01*
X1376456Y463845D01*
X1376454Y463819D01*
X1376446Y463794D01*
X1376427Y463550D01*
X1376427Y450054D01*
X1370800Y450054D01*
X1370796Y450051D01*
X1370796Y450050D01*
X1370796Y350050D01*
X1370799Y350046D01*
X1370800Y350046D01*
X1376427Y350046D01*
X1376427Y323054D01*
X1370800Y323054D01*
X1370796Y323051D01*
X1370796Y323050D01*
X1370796Y223050D01*
X1370799Y223046D01*
X1370800Y223046D01*
X1376427Y223046D01*
X1376427Y215900D01*
X1376430Y215874D01*
X1376428Y215848D01*
X1376450Y215701D01*
X1376467Y215554D01*
X1376475Y215529D01*
X1376479Y215503D01*
X1376534Y215365D01*
X1376584Y215226D01*
X1376598Y215204D01*
X1376608Y215179D01*
X1376693Y215058D01*
X1376773Y214933D01*
X1376792Y214915D01*
X1376807Y214893D01*
X1376917Y214794D01*
X1377024Y214691D01*
X1377046Y214677D01*
X1377066Y214660D01*
X1377196Y214588D01*
X1377323Y214512D01*
X1377348Y214504D01*
X1377371Y214491D01*
X1377514Y214451D01*
X1377655Y214406D01*
X1377681Y214404D01*
X1377706Y214396D01*
X1377950Y214377D01*
X1568450Y214377D01*
X1568476Y214380D01*
G37*
G36*
X1682876Y208041D02*
X1682876Y208041D01*
X1683002Y208048D01*
X1683048Y208061D01*
X1683096Y208067D01*
X1683215Y208109D01*
X1683337Y208144D01*
X1683379Y208168D01*
X1683424Y208184D01*
X1683531Y208253D01*
X1683641Y208314D01*
X1683687Y208354D01*
X1683717Y208373D01*
X1683751Y208408D01*
X1683827Y208473D01*
X1747327Y271973D01*
X1747406Y272072D01*
X1747490Y272166D01*
X1747514Y272208D01*
X1747544Y272246D01*
X1747598Y272360D01*
X1747659Y272471D01*
X1747672Y272517D01*
X1747693Y272561D01*
X1747719Y272684D01*
X1747754Y272806D01*
X1747759Y272867D01*
X1747766Y272902D01*
X1747765Y272950D01*
X1747773Y273050D01*
X1747773Y406400D01*
X1747759Y406526D01*
X1747752Y406652D01*
X1747739Y406698D01*
X1747733Y406746D01*
X1747691Y406865D01*
X1747656Y406987D01*
X1747632Y407029D01*
X1747616Y407074D01*
X1747547Y407181D01*
X1747486Y407291D01*
X1747446Y407337D01*
X1747427Y407367D01*
X1747392Y407401D01*
X1747327Y407477D01*
X1715577Y439227D01*
X1715478Y439306D01*
X1715384Y439390D01*
X1715342Y439414D01*
X1715304Y439444D01*
X1715190Y439498D01*
X1715079Y439559D01*
X1715033Y439572D01*
X1714989Y439593D01*
X1714866Y439619D01*
X1714744Y439654D01*
X1714683Y439659D01*
X1714648Y439666D01*
X1714600Y439665D01*
X1714500Y439673D01*
X1696081Y439673D01*
X1683827Y451927D01*
X1683728Y452006D01*
X1683634Y452090D01*
X1683592Y452114D01*
X1683554Y452144D01*
X1683440Y452198D01*
X1683329Y452259D01*
X1683283Y452272D01*
X1683239Y452293D01*
X1683116Y452319D01*
X1682994Y452354D01*
X1682933Y452359D01*
X1682898Y452366D01*
X1682850Y452365D01*
X1682750Y452373D01*
X1606550Y452373D01*
X1606424Y452359D01*
X1606298Y452352D01*
X1606252Y452339D01*
X1606204Y452333D01*
X1606085Y452291D01*
X1605963Y452256D01*
X1605921Y452232D01*
X1605876Y452216D01*
X1605769Y452147D01*
X1605659Y452086D01*
X1605613Y452046D01*
X1605583Y452027D01*
X1605549Y451992D01*
X1605473Y451927D01*
X1599123Y445577D01*
X1599044Y445478D01*
X1598960Y445384D01*
X1598936Y445342D01*
X1598906Y445304D01*
X1598852Y445190D01*
X1598791Y445079D01*
X1598778Y445033D01*
X1598757Y444989D01*
X1598731Y444866D01*
X1598696Y444744D01*
X1598692Y444683D01*
X1598684Y444648D01*
X1598685Y444600D01*
X1598677Y444500D01*
X1598677Y368300D01*
X1598680Y368274D01*
X1598678Y368248D01*
X1598700Y368101D01*
X1598717Y367954D01*
X1598725Y367929D01*
X1598729Y367903D01*
X1598784Y367765D01*
X1598834Y367626D01*
X1598848Y367604D01*
X1598858Y367579D01*
X1598943Y367458D01*
X1599023Y367333D01*
X1599042Y367315D01*
X1599057Y367293D01*
X1599167Y367194D01*
X1599274Y367091D01*
X1599296Y367077D01*
X1599316Y367060D01*
X1599446Y366988D01*
X1599573Y366912D01*
X1599598Y366904D01*
X1599621Y366891D01*
X1599764Y366851D01*
X1599905Y366806D01*
X1599931Y366804D01*
X1599956Y366796D01*
X1600200Y366777D01*
X1600596Y366777D01*
X1600596Y366050D01*
X1600599Y366046D01*
X1600600Y366046D01*
X1628600Y366046D01*
X1628604Y366049D01*
X1628604Y366050D01*
X1628604Y366777D01*
X1630427Y366777D01*
X1630427Y350773D01*
X1600200Y350773D01*
X1600174Y350770D01*
X1600148Y350772D01*
X1600001Y350750D01*
X1599854Y350733D01*
X1599829Y350725D01*
X1599803Y350721D01*
X1599665Y350666D01*
X1599526Y350616D01*
X1599504Y350602D01*
X1599479Y350592D01*
X1599358Y350507D01*
X1599233Y350427D01*
X1599215Y350408D01*
X1599193Y350393D01*
X1599094Y350283D01*
X1598991Y350176D01*
X1598977Y350154D01*
X1598960Y350134D01*
X1598888Y350004D01*
X1598812Y349877D01*
X1598804Y349852D01*
X1598791Y349829D01*
X1598751Y349686D01*
X1598706Y349545D01*
X1598704Y349519D01*
X1598696Y349494D01*
X1598677Y349250D01*
X1598677Y323850D01*
X1598680Y323824D01*
X1598678Y323798D01*
X1598700Y323651D01*
X1598717Y323504D01*
X1598725Y323479D01*
X1598729Y323453D01*
X1598784Y323315D01*
X1598834Y323176D01*
X1598848Y323154D01*
X1598858Y323129D01*
X1598943Y323008D01*
X1599023Y322883D01*
X1599042Y322865D01*
X1599057Y322843D01*
X1599167Y322744D01*
X1599274Y322641D01*
X1599296Y322627D01*
X1599316Y322610D01*
X1599446Y322538D01*
X1599573Y322462D01*
X1599598Y322454D01*
X1599621Y322441D01*
X1599764Y322401D01*
X1599905Y322356D01*
X1599931Y322354D01*
X1599956Y322346D01*
X1600200Y322327D01*
X1602873Y322327D01*
X1599123Y318577D01*
X1599044Y318478D01*
X1598960Y318384D01*
X1598936Y318342D01*
X1598906Y318304D01*
X1598852Y318190D01*
X1598791Y318079D01*
X1598778Y318033D01*
X1598757Y317989D01*
X1598731Y317866D01*
X1598696Y317744D01*
X1598692Y317683D01*
X1598684Y317648D01*
X1598685Y317600D01*
X1598677Y317500D01*
X1598677Y241300D01*
X1598680Y241274D01*
X1598678Y241248D01*
X1598700Y241101D01*
X1598717Y240954D01*
X1598725Y240929D01*
X1598729Y240903D01*
X1598784Y240765D01*
X1598834Y240626D01*
X1598848Y240604D01*
X1598858Y240579D01*
X1598943Y240458D01*
X1599023Y240333D01*
X1599042Y240315D01*
X1599057Y240293D01*
X1599167Y240194D01*
X1599274Y240091D01*
X1599296Y240077D01*
X1599316Y240060D01*
X1599446Y239988D01*
X1599573Y239912D01*
X1599598Y239904D01*
X1599621Y239891D01*
X1599764Y239851D01*
X1599905Y239806D01*
X1599931Y239804D01*
X1599956Y239796D01*
X1600200Y239777D01*
X1600596Y239777D01*
X1600596Y239050D01*
X1600599Y239046D01*
X1600600Y239046D01*
X1628600Y239046D01*
X1628604Y239049D01*
X1628604Y239050D01*
X1628604Y239777D01*
X1636777Y239777D01*
X1636777Y223773D01*
X1600200Y223773D01*
X1600174Y223770D01*
X1600148Y223772D01*
X1600001Y223750D01*
X1599854Y223733D01*
X1599829Y223725D01*
X1599803Y223721D01*
X1599665Y223666D01*
X1599526Y223616D01*
X1599504Y223602D01*
X1599479Y223592D01*
X1599358Y223507D01*
X1599233Y223427D01*
X1599215Y223408D01*
X1599193Y223393D01*
X1599094Y223283D01*
X1598991Y223176D01*
X1598977Y223154D01*
X1598960Y223134D01*
X1598888Y223004D01*
X1598812Y222877D01*
X1598804Y222852D01*
X1598791Y222829D01*
X1598751Y222686D01*
X1598706Y222545D01*
X1598704Y222519D01*
X1598696Y222494D01*
X1598677Y222250D01*
X1598677Y209550D01*
X1598680Y209524D01*
X1598678Y209498D01*
X1598700Y209351D01*
X1598717Y209204D01*
X1598725Y209179D01*
X1598729Y209153D01*
X1598784Y209015D01*
X1598834Y208876D01*
X1598848Y208854D01*
X1598858Y208829D01*
X1598943Y208708D01*
X1599023Y208583D01*
X1599042Y208565D01*
X1599057Y208543D01*
X1599167Y208444D01*
X1599274Y208341D01*
X1599296Y208327D01*
X1599316Y208310D01*
X1599446Y208238D01*
X1599573Y208162D01*
X1599598Y208154D01*
X1599621Y208141D01*
X1599764Y208101D01*
X1599905Y208056D01*
X1599931Y208054D01*
X1599956Y208046D01*
X1600200Y208027D01*
X1682750Y208027D01*
X1682876Y208041D01*
G37*
G36*
X1352576Y214380D02*
X1352576Y214380D01*
X1352602Y214378D01*
X1352749Y214400D01*
X1352896Y214417D01*
X1352921Y214425D01*
X1352947Y214429D01*
X1353085Y214484D01*
X1353224Y214534D01*
X1353246Y214548D01*
X1353271Y214558D01*
X1353392Y214643D01*
X1353517Y214723D01*
X1353535Y214742D01*
X1353557Y214757D01*
X1353656Y214867D01*
X1353759Y214974D01*
X1353773Y214996D01*
X1353790Y215016D01*
X1353862Y215146D01*
X1353938Y215273D01*
X1353946Y215298D01*
X1353959Y215321D01*
X1353999Y215464D01*
X1354044Y215605D01*
X1354046Y215631D01*
X1354054Y215656D01*
X1354073Y215900D01*
X1354073Y304800D01*
X1354070Y304826D01*
X1354072Y304852D01*
X1354050Y304999D01*
X1354033Y305146D01*
X1354025Y305171D01*
X1354021Y305197D01*
X1353966Y305335D01*
X1353916Y305474D01*
X1353902Y305496D01*
X1353892Y305521D01*
X1353807Y305642D01*
X1353727Y305767D01*
X1353708Y305785D01*
X1353693Y305807D01*
X1353583Y305906D01*
X1353476Y306009D01*
X1353454Y306023D01*
X1353434Y306040D01*
X1353304Y306112D01*
X1353177Y306188D01*
X1353152Y306196D01*
X1353129Y306209D01*
X1352986Y306249D01*
X1352845Y306294D01*
X1352819Y306296D01*
X1352794Y306304D01*
X1352550Y306323D01*
X1345804Y306323D01*
X1345804Y307050D01*
X1345801Y307054D01*
X1345800Y307054D01*
X1317800Y307054D01*
X1317796Y307051D01*
X1317796Y307050D01*
X1317796Y306323D01*
X1315973Y306323D01*
X1315973Y322327D01*
X1346200Y322327D01*
X1346226Y322330D01*
X1346252Y322328D01*
X1346399Y322350D01*
X1346546Y322367D01*
X1346571Y322375D01*
X1346597Y322379D01*
X1346735Y322434D01*
X1346874Y322484D01*
X1346896Y322498D01*
X1346921Y322508D01*
X1347042Y322593D01*
X1347167Y322673D01*
X1347185Y322692D01*
X1347207Y322707D01*
X1347306Y322817D01*
X1347409Y322924D01*
X1347423Y322946D01*
X1347440Y322966D01*
X1347512Y323096D01*
X1347588Y323223D01*
X1347596Y323248D01*
X1347609Y323271D01*
X1347649Y323414D01*
X1347694Y323555D01*
X1347696Y323581D01*
X1347704Y323606D01*
X1347723Y323850D01*
X1347723Y431800D01*
X1347720Y431826D01*
X1347722Y431852D01*
X1347700Y431999D01*
X1347683Y432146D01*
X1347675Y432171D01*
X1347671Y432197D01*
X1347616Y432335D01*
X1347566Y432474D01*
X1347552Y432496D01*
X1347542Y432521D01*
X1347457Y432642D01*
X1347377Y432767D01*
X1347358Y432785D01*
X1347343Y432807D01*
X1347233Y432906D01*
X1347126Y433009D01*
X1347104Y433023D01*
X1347084Y433040D01*
X1346954Y433112D01*
X1346827Y433188D01*
X1346802Y433196D01*
X1346779Y433209D01*
X1346636Y433249D01*
X1346495Y433294D01*
X1346469Y433296D01*
X1346444Y433304D01*
X1346200Y433323D01*
X1345804Y433323D01*
X1345804Y434050D01*
X1345801Y434054D01*
X1345800Y434054D01*
X1317800Y434054D01*
X1317796Y434051D01*
X1317796Y434050D01*
X1317796Y433323D01*
X1309623Y433323D01*
X1309623Y450850D01*
X1309620Y450876D01*
X1309622Y450902D01*
X1309600Y451049D01*
X1309583Y451196D01*
X1309575Y451221D01*
X1309571Y451247D01*
X1309516Y451385D01*
X1309466Y451524D01*
X1309452Y451546D01*
X1309442Y451571D01*
X1309357Y451692D01*
X1309277Y451817D01*
X1309258Y451835D01*
X1309243Y451857D01*
X1309133Y451956D01*
X1309026Y452059D01*
X1309004Y452073D01*
X1308984Y452090D01*
X1308854Y452162D01*
X1308727Y452238D01*
X1308702Y452246D01*
X1308679Y452259D01*
X1308536Y452299D01*
X1308395Y452344D01*
X1308369Y452346D01*
X1308344Y452354D01*
X1308100Y452373D01*
X1219200Y452373D01*
X1219174Y452370D01*
X1219148Y452372D01*
X1219001Y452350D01*
X1218854Y452333D01*
X1218829Y452325D01*
X1218803Y452321D01*
X1218665Y452266D01*
X1218526Y452216D01*
X1218504Y452202D01*
X1218479Y452192D01*
X1218358Y452107D01*
X1218233Y452027D01*
X1218215Y452008D01*
X1218193Y451993D01*
X1218094Y451883D01*
X1217991Y451776D01*
X1217977Y451754D01*
X1217960Y451734D01*
X1217888Y451604D01*
X1217812Y451477D01*
X1217804Y451452D01*
X1217791Y451429D01*
X1217751Y451286D01*
X1217706Y451145D01*
X1217704Y451119D01*
X1217696Y451094D01*
X1217677Y450850D01*
X1217677Y215900D01*
X1217680Y215874D01*
X1217678Y215848D01*
X1217700Y215701D01*
X1217717Y215554D01*
X1217725Y215529D01*
X1217729Y215503D01*
X1217784Y215365D01*
X1217834Y215226D01*
X1217848Y215204D01*
X1217858Y215179D01*
X1217943Y215058D01*
X1218023Y214933D01*
X1218042Y214915D01*
X1218057Y214893D01*
X1218167Y214794D01*
X1218274Y214691D01*
X1218296Y214677D01*
X1218316Y214660D01*
X1218446Y214588D01*
X1218573Y214512D01*
X1218598Y214504D01*
X1218621Y214491D01*
X1218764Y214451D01*
X1218905Y214406D01*
X1218931Y214404D01*
X1218956Y214396D01*
X1219200Y214377D01*
X1352550Y214377D01*
X1352576Y214380D01*
G37*
G36*
X1174876Y220741D02*
X1174876Y220741D01*
X1175002Y220748D01*
X1175048Y220761D01*
X1175096Y220767D01*
X1175215Y220809D01*
X1175337Y220844D01*
X1175379Y220868D01*
X1175424Y220884D01*
X1175531Y220953D01*
X1175641Y221014D01*
X1175687Y221054D01*
X1175717Y221073D01*
X1175751Y221108D01*
X1175827Y221173D01*
X1188527Y233873D01*
X1188606Y233972D01*
X1188690Y234066D01*
X1188714Y234108D01*
X1188744Y234146D01*
X1188798Y234260D01*
X1188859Y234371D01*
X1188872Y234417D01*
X1188893Y234461D01*
X1188919Y234584D01*
X1188954Y234706D01*
X1188959Y234767D01*
X1188966Y234802D01*
X1188965Y234850D01*
X1188973Y234950D01*
X1188973Y438150D01*
X1188959Y438276D01*
X1188952Y438402D01*
X1188939Y438448D01*
X1188933Y438496D01*
X1188891Y438615D01*
X1188856Y438737D01*
X1188832Y438779D01*
X1188816Y438824D01*
X1188747Y438931D01*
X1188686Y439041D01*
X1188646Y439087D01*
X1188627Y439117D01*
X1188592Y439151D01*
X1188527Y439227D01*
X1175827Y451927D01*
X1175728Y452006D01*
X1175634Y452090D01*
X1175592Y452114D01*
X1175554Y452144D01*
X1175440Y452198D01*
X1175329Y452259D01*
X1175283Y452272D01*
X1175239Y452293D01*
X1175116Y452319D01*
X1174994Y452354D01*
X1174933Y452359D01*
X1174898Y452366D01*
X1174850Y452365D01*
X1174750Y452373D01*
X1104900Y452373D01*
X1104774Y452359D01*
X1104648Y452352D01*
X1104602Y452339D01*
X1104554Y452333D01*
X1104435Y452291D01*
X1104313Y452256D01*
X1104271Y452232D01*
X1104226Y452216D01*
X1104119Y452147D01*
X1104009Y452086D01*
X1103963Y452046D01*
X1103933Y452027D01*
X1103899Y451992D01*
X1103823Y451927D01*
X1040323Y388427D01*
X1040244Y388328D01*
X1040160Y388234D01*
X1040136Y388192D01*
X1040106Y388154D01*
X1040052Y388040D01*
X1039991Y387929D01*
X1039978Y387883D01*
X1039957Y387839D01*
X1039931Y387716D01*
X1039896Y387594D01*
X1039892Y387533D01*
X1039884Y387498D01*
X1039885Y387450D01*
X1039877Y387350D01*
X1039877Y285750D01*
X1039891Y285624D01*
X1039898Y285498D01*
X1039911Y285452D01*
X1039917Y285404D01*
X1039959Y285285D01*
X1039994Y285163D01*
X1040018Y285121D01*
X1040034Y285076D01*
X1040103Y284969D01*
X1040164Y284859D01*
X1040204Y284813D01*
X1040223Y284783D01*
X1040258Y284749D01*
X1040323Y284673D01*
X1103823Y221173D01*
X1103922Y221094D01*
X1104016Y221010D01*
X1104058Y220986D01*
X1104096Y220956D01*
X1104210Y220902D01*
X1104321Y220841D01*
X1104367Y220828D01*
X1104411Y220807D01*
X1104534Y220781D01*
X1104656Y220746D01*
X1104717Y220742D01*
X1104752Y220734D01*
X1104800Y220735D01*
X1104900Y220727D01*
X1174750Y220727D01*
X1174876Y220741D01*
G37*
G36*
X2534480Y337901D02*
X2534480Y337901D01*
X2534481Y337901D01*
X2534974Y337972D01*
X2534975Y337972D01*
X2535428Y338179D01*
X2535428Y338180D01*
X2535429Y338180D01*
X2535805Y338506D01*
X2535805Y338507D01*
X2535806Y338507D01*
X2536075Y338926D01*
X2536075Y338927D01*
X2536076Y338927D01*
X2536216Y339405D01*
X2536216Y339406D01*
X2536216Y339904D01*
X2536216Y339905D01*
X2536076Y340383D01*
X2536075Y340384D01*
X2535806Y340803D01*
X2535805Y340804D01*
X2535429Y341130D01*
X2535428Y341130D01*
X2535428Y341131D01*
X2534975Y341338D01*
X2534974Y341338D01*
X2534481Y341409D01*
X2534480Y341409D01*
X2530404Y341409D01*
X2530404Y344401D01*
X2534480Y344401D01*
X2534481Y344401D01*
X2534974Y344472D01*
X2534975Y344472D01*
X2535428Y344679D01*
X2535428Y344680D01*
X2535429Y344680D01*
X2535805Y345006D01*
X2535805Y345007D01*
X2535806Y345007D01*
X2536075Y345426D01*
X2536075Y345427D01*
X2536076Y345427D01*
X2536216Y345905D01*
X2536216Y345906D01*
X2536216Y346404D01*
X2536216Y346405D01*
X2536076Y346883D01*
X2536075Y346884D01*
X2535806Y347303D01*
X2535805Y347304D01*
X2535429Y347630D01*
X2535428Y347630D01*
X2535428Y347631D01*
X2534975Y347838D01*
X2534974Y347838D01*
X2534481Y347909D01*
X2534480Y347909D01*
X2530404Y347909D01*
X2530404Y350901D01*
X2534480Y350901D01*
X2534481Y350901D01*
X2534974Y350972D01*
X2534975Y350972D01*
X2535428Y351179D01*
X2535428Y351180D01*
X2535429Y351180D01*
X2535805Y351506D01*
X2535805Y351507D01*
X2535806Y351507D01*
X2536075Y351926D01*
X2536075Y351927D01*
X2536076Y351927D01*
X2536216Y352405D01*
X2536216Y352406D01*
X2536216Y352904D01*
X2536216Y352905D01*
X2536076Y353383D01*
X2536075Y353384D01*
X2535806Y353803D01*
X2535805Y353804D01*
X2535429Y354130D01*
X2535428Y354130D01*
X2535428Y354131D01*
X2534975Y354338D01*
X2534974Y354338D01*
X2534481Y354409D01*
X2534480Y354409D01*
X2530404Y354409D01*
X2530404Y357401D01*
X2534480Y357401D01*
X2534481Y357401D01*
X2534974Y357472D01*
X2534975Y357472D01*
X2535428Y357679D01*
X2535428Y357680D01*
X2535429Y357680D01*
X2535805Y358006D01*
X2535805Y358007D01*
X2535806Y358007D01*
X2536075Y358426D01*
X2536075Y358427D01*
X2536076Y358427D01*
X2536216Y358905D01*
X2536216Y358906D01*
X2536216Y359404D01*
X2536216Y359405D01*
X2536076Y359883D01*
X2536075Y359884D01*
X2535806Y360303D01*
X2535805Y360304D01*
X2535429Y360630D01*
X2535428Y360630D01*
X2535428Y360631D01*
X2534975Y360838D01*
X2534974Y360838D01*
X2534481Y360909D01*
X2534480Y360909D01*
X2503400Y360909D01*
X2503396Y360906D01*
X2503396Y360905D01*
X2503396Y337905D01*
X2503399Y337901D01*
X2503400Y337901D01*
X2534480Y337901D01*
X2534480Y337901D01*
G37*
G36*
X2505400Y308589D02*
X2505400Y308589D01*
X2505878Y308729D01*
X2505879Y308730D01*
X2506298Y308999D01*
X2506299Y309000D01*
X2506625Y309376D01*
X2506625Y309377D01*
X2506626Y309377D01*
X2506833Y309830D01*
X2506833Y309831D01*
X2506833Y309833D01*
X2506834Y309833D01*
X2506837Y309854D01*
X2506838Y309862D01*
X2506841Y309883D01*
X2506844Y309904D01*
X2506847Y309925D01*
X2506850Y309946D01*
X2506850Y309947D01*
X2506853Y309968D01*
X2506854Y309976D01*
X2506857Y309997D01*
X2506860Y310018D01*
X2506863Y310039D01*
X2506866Y310060D01*
X2506869Y310081D01*
X2506869Y310082D01*
X2506872Y310103D01*
X2506874Y310111D01*
X2506877Y310132D01*
X2506880Y310153D01*
X2506883Y310174D01*
X2506886Y310195D01*
X2506889Y310216D01*
X2506889Y310217D01*
X2506890Y310225D01*
X2506893Y310246D01*
X2506896Y310267D01*
X2506899Y310288D01*
X2506902Y310309D01*
X2506904Y310324D01*
X2506904Y310325D01*
X2506904Y314401D01*
X2509896Y314401D01*
X2509896Y310325D01*
X2509896Y310324D01*
X2509967Y309831D01*
X2509967Y309830D01*
X2510174Y309377D01*
X2510175Y309377D01*
X2510175Y309376D01*
X2510501Y309000D01*
X2510502Y309000D01*
X2510502Y308999D01*
X2510921Y308730D01*
X2510922Y308730D01*
X2510922Y308729D01*
X2511400Y308589D01*
X2511401Y308589D01*
X2511899Y308589D01*
X2511900Y308589D01*
X2512378Y308729D01*
X2512379Y308730D01*
X2512798Y308999D01*
X2512799Y309000D01*
X2513125Y309376D01*
X2513125Y309377D01*
X2513126Y309377D01*
X2513333Y309830D01*
X2513333Y309831D01*
X2513333Y309833D01*
X2513334Y309833D01*
X2513337Y309854D01*
X2513338Y309862D01*
X2513341Y309883D01*
X2513344Y309904D01*
X2513347Y309925D01*
X2513350Y309946D01*
X2513350Y309947D01*
X2513353Y309968D01*
X2513354Y309976D01*
X2513357Y309997D01*
X2513360Y310018D01*
X2513363Y310039D01*
X2513366Y310060D01*
X2513369Y310081D01*
X2513369Y310082D01*
X2513372Y310103D01*
X2513374Y310111D01*
X2513377Y310132D01*
X2513380Y310153D01*
X2513383Y310174D01*
X2513386Y310195D01*
X2513389Y310216D01*
X2513389Y310217D01*
X2513390Y310225D01*
X2513393Y310246D01*
X2513396Y310267D01*
X2513399Y310288D01*
X2513402Y310309D01*
X2513404Y310324D01*
X2513404Y310325D01*
X2513404Y314401D01*
X2516396Y314401D01*
X2516396Y310325D01*
X2516396Y310324D01*
X2516467Y309831D01*
X2516467Y309830D01*
X2516674Y309377D01*
X2516675Y309377D01*
X2516675Y309376D01*
X2517001Y309000D01*
X2517002Y309000D01*
X2517002Y308999D01*
X2517421Y308730D01*
X2517422Y308730D01*
X2517422Y308729D01*
X2517900Y308589D01*
X2517901Y308589D01*
X2518399Y308589D01*
X2518400Y308589D01*
X2518878Y308729D01*
X2518879Y308730D01*
X2519298Y308999D01*
X2519299Y309000D01*
X2519625Y309376D01*
X2519625Y309377D01*
X2519626Y309377D01*
X2519833Y309830D01*
X2519833Y309831D01*
X2519833Y309833D01*
X2519834Y309833D01*
X2519837Y309854D01*
X2519838Y309862D01*
X2519841Y309883D01*
X2519844Y309904D01*
X2519847Y309925D01*
X2519850Y309946D01*
X2519850Y309947D01*
X2519853Y309968D01*
X2519854Y309976D01*
X2519857Y309997D01*
X2519860Y310018D01*
X2519863Y310039D01*
X2519866Y310060D01*
X2519869Y310081D01*
X2519869Y310082D01*
X2519872Y310103D01*
X2519874Y310111D01*
X2519877Y310132D01*
X2519880Y310153D01*
X2519883Y310174D01*
X2519886Y310195D01*
X2519889Y310216D01*
X2519889Y310217D01*
X2519890Y310225D01*
X2519893Y310246D01*
X2519896Y310267D01*
X2519899Y310288D01*
X2519902Y310309D01*
X2519904Y310324D01*
X2519904Y310325D01*
X2519904Y314401D01*
X2522896Y314401D01*
X2522896Y310325D01*
X2522896Y310324D01*
X2522967Y309831D01*
X2522967Y309830D01*
X2523174Y309377D01*
X2523175Y309377D01*
X2523175Y309376D01*
X2523501Y309000D01*
X2523502Y309000D01*
X2523502Y308999D01*
X2523921Y308730D01*
X2523922Y308730D01*
X2523922Y308729D01*
X2524400Y308589D01*
X2524401Y308589D01*
X2524899Y308589D01*
X2524900Y308589D01*
X2525378Y308729D01*
X2525379Y308730D01*
X2525798Y308999D01*
X2525799Y309000D01*
X2526125Y309376D01*
X2526125Y309377D01*
X2526126Y309377D01*
X2526333Y309830D01*
X2526333Y309831D01*
X2526333Y309833D01*
X2526334Y309833D01*
X2526337Y309854D01*
X2526338Y309862D01*
X2526341Y309883D01*
X2526344Y309904D01*
X2526347Y309925D01*
X2526350Y309946D01*
X2526350Y309947D01*
X2526353Y309968D01*
X2526354Y309976D01*
X2526357Y309997D01*
X2526360Y310018D01*
X2526363Y310039D01*
X2526366Y310060D01*
X2526369Y310081D01*
X2526369Y310082D01*
X2526372Y310103D01*
X2526374Y310111D01*
X2526377Y310132D01*
X2526380Y310153D01*
X2526383Y310174D01*
X2526386Y310195D01*
X2526389Y310216D01*
X2526389Y310217D01*
X2526390Y310225D01*
X2526393Y310246D01*
X2526396Y310267D01*
X2526399Y310288D01*
X2526402Y310309D01*
X2526404Y310324D01*
X2526404Y310325D01*
X2526404Y314401D01*
X2530400Y314401D01*
X2530404Y314404D01*
X2530404Y314405D01*
X2530404Y318401D01*
X2534480Y318401D01*
X2534481Y318401D01*
X2534974Y318472D01*
X2534975Y318472D01*
X2535428Y318679D01*
X2535428Y318680D01*
X2535429Y318680D01*
X2535805Y319006D01*
X2535805Y319007D01*
X2535806Y319007D01*
X2536075Y319426D01*
X2536075Y319427D01*
X2536076Y319427D01*
X2536216Y319905D01*
X2536216Y319906D01*
X2536216Y320404D01*
X2536216Y320405D01*
X2536076Y320883D01*
X2536075Y320884D01*
X2535806Y321303D01*
X2535805Y321304D01*
X2535429Y321630D01*
X2535428Y321630D01*
X2535428Y321631D01*
X2534975Y321838D01*
X2534974Y321838D01*
X2534481Y321909D01*
X2534480Y321909D01*
X2530404Y321909D01*
X2530404Y324901D01*
X2534480Y324901D01*
X2534481Y324901D01*
X2534974Y324972D01*
X2534975Y324972D01*
X2535428Y325179D01*
X2535428Y325180D01*
X2535429Y325180D01*
X2535805Y325506D01*
X2535805Y325507D01*
X2535806Y325507D01*
X2536075Y325926D01*
X2536075Y325927D01*
X2536076Y325927D01*
X2536216Y326405D01*
X2536216Y326406D01*
X2536216Y326904D01*
X2536216Y326905D01*
X2536076Y327383D01*
X2536075Y327384D01*
X2535806Y327803D01*
X2535805Y327804D01*
X2535429Y328130D01*
X2535428Y328130D01*
X2535428Y328131D01*
X2534975Y328338D01*
X2534974Y328338D01*
X2534481Y328409D01*
X2534480Y328409D01*
X2530404Y328409D01*
X2530404Y331401D01*
X2534480Y331401D01*
X2534481Y331401D01*
X2534974Y331472D01*
X2534975Y331472D01*
X2535428Y331679D01*
X2535428Y331680D01*
X2535429Y331680D01*
X2535805Y332006D01*
X2535805Y332007D01*
X2535806Y332007D01*
X2536075Y332426D01*
X2536075Y332427D01*
X2536076Y332427D01*
X2536216Y332905D01*
X2536216Y332906D01*
X2536216Y333404D01*
X2536216Y333405D01*
X2536076Y333883D01*
X2536075Y333884D01*
X2535806Y334303D01*
X2535805Y334304D01*
X2535429Y334630D01*
X2535428Y334630D01*
X2535428Y334631D01*
X2534975Y334838D01*
X2534974Y334838D01*
X2534481Y334909D01*
X2534480Y334909D01*
X2503400Y334909D01*
X2503396Y334906D01*
X2503396Y334905D01*
X2503396Y310325D01*
X2503396Y310324D01*
X2503467Y309831D01*
X2503467Y309830D01*
X2503674Y309377D01*
X2503675Y309377D01*
X2503675Y309376D01*
X2504001Y309000D01*
X2504002Y309000D01*
X2504002Y308999D01*
X2504421Y308730D01*
X2504422Y308730D01*
X2504422Y308729D01*
X2504900Y308589D01*
X2504901Y308589D01*
X2505399Y308589D01*
X2505400Y308589D01*
G37*
G36*
X27192Y561020D02*
X27192Y561020D01*
X27235Y561032D01*
X27301Y561039D01*
X28984Y561490D01*
X29025Y561509D01*
X29088Y561528D01*
X30668Y562265D01*
X30705Y562291D01*
X30764Y562320D01*
X32192Y563320D01*
X32223Y563352D01*
X32276Y563391D01*
X33509Y564624D01*
X33534Y564660D01*
X33580Y564708D01*
X34580Y566136D01*
X34598Y566177D01*
X34635Y566232D01*
X35372Y567812D01*
X35383Y567855D01*
X35410Y567916D01*
X35861Y569599D01*
X35863Y569631D01*
X35870Y569652D01*
X35870Y569667D01*
X35880Y569708D01*
X36032Y571445D01*
X36028Y571489D01*
X36032Y571555D01*
X35880Y573292D01*
X35868Y573335D01*
X35861Y573401D01*
X35410Y575084D01*
X35391Y575125D01*
X35372Y575188D01*
X34635Y576768D01*
X34609Y576805D01*
X34580Y576864D01*
X33580Y578292D01*
X33548Y578323D01*
X33509Y578376D01*
X32276Y579609D01*
X32240Y579634D01*
X32192Y579680D01*
X30764Y580680D01*
X30723Y580698D01*
X30668Y580735D01*
X29088Y581472D01*
X29045Y581483D01*
X28984Y581510D01*
X27301Y581961D01*
X27256Y581964D01*
X27192Y581980D01*
X25455Y582132D01*
X25411Y582128D01*
X25345Y582132D01*
X23608Y581980D01*
X23565Y581968D01*
X23499Y581961D01*
X21816Y581510D01*
X21775Y581491D01*
X21712Y581472D01*
X20132Y580735D01*
X20095Y580709D01*
X20036Y580680D01*
X18608Y579680D01*
X18577Y579648D01*
X18524Y579609D01*
X17291Y578376D01*
X17266Y578340D01*
X17220Y578292D01*
X16220Y576864D01*
X16202Y576823D01*
X16165Y576768D01*
X15428Y575188D01*
X15417Y575145D01*
X15390Y575084D01*
X14939Y573401D01*
X14936Y573356D01*
X14920Y573292D01*
X14768Y571555D01*
X14772Y571511D01*
X14768Y571445D01*
X14920Y569708D01*
X14932Y569665D01*
X14936Y569631D01*
X14936Y569615D01*
X14938Y569610D01*
X14939Y569599D01*
X15390Y567916D01*
X15409Y567875D01*
X15428Y567812D01*
X16165Y566232D01*
X16191Y566195D01*
X16220Y566136D01*
X17220Y564708D01*
X17252Y564677D01*
X17291Y564624D01*
X18524Y563391D01*
X18560Y563366D01*
X18608Y563320D01*
X20036Y562320D01*
X20077Y562302D01*
X20132Y562265D01*
X21712Y561528D01*
X21755Y561517D01*
X21816Y561490D01*
X23499Y561039D01*
X23544Y561036D01*
X23608Y561020D01*
X25345Y560868D01*
X25389Y560872D01*
X25455Y560868D01*
X27192Y561020D01*
G37*
G36*
X27192Y14920D02*
X27192Y14920D01*
X27235Y14932D01*
X27301Y14939D01*
X28984Y15390D01*
X29025Y15409D01*
X29088Y15428D01*
X30668Y16165D01*
X30705Y16191D01*
X30764Y16220D01*
X32192Y17220D01*
X32223Y17252D01*
X32276Y17291D01*
X33509Y18524D01*
X33534Y18560D01*
X33580Y18608D01*
X34580Y20036D01*
X34598Y20077D01*
X34635Y20132D01*
X35372Y21712D01*
X35383Y21755D01*
X35410Y21816D01*
X35861Y23499D01*
X35863Y23531D01*
X35870Y23552D01*
X35870Y23567D01*
X35880Y23608D01*
X36032Y25345D01*
X36028Y25389D01*
X36032Y25455D01*
X35880Y27192D01*
X35868Y27235D01*
X35861Y27301D01*
X35410Y28984D01*
X35391Y29025D01*
X35372Y29088D01*
X34635Y30668D01*
X34609Y30705D01*
X34580Y30764D01*
X33580Y32192D01*
X33548Y32223D01*
X33509Y32276D01*
X32276Y33509D01*
X32240Y33534D01*
X32192Y33580D01*
X30764Y34580D01*
X30723Y34598D01*
X30668Y34635D01*
X29088Y35372D01*
X29045Y35383D01*
X28984Y35410D01*
X27301Y35861D01*
X27256Y35864D01*
X27192Y35880D01*
X25455Y36032D01*
X25411Y36028D01*
X25345Y36032D01*
X23608Y35880D01*
X23565Y35868D01*
X23499Y35861D01*
X21816Y35410D01*
X21775Y35391D01*
X21712Y35372D01*
X20132Y34635D01*
X20095Y34609D01*
X20036Y34580D01*
X18608Y33580D01*
X18577Y33548D01*
X18524Y33509D01*
X17291Y32276D01*
X17266Y32240D01*
X17220Y32192D01*
X16220Y30764D01*
X16202Y30723D01*
X16165Y30668D01*
X15428Y29088D01*
X15417Y29045D01*
X15390Y28984D01*
X14939Y27301D01*
X14936Y27256D01*
X14920Y27192D01*
X14768Y25455D01*
X14772Y25411D01*
X14768Y25345D01*
X14920Y23608D01*
X14932Y23565D01*
X14936Y23531D01*
X14936Y23515D01*
X14938Y23510D01*
X14939Y23499D01*
X15390Y21816D01*
X15409Y21775D01*
X15428Y21712D01*
X16165Y20132D01*
X16191Y20095D01*
X16220Y20036D01*
X17220Y18608D01*
X17252Y18577D01*
X17291Y18524D01*
X18524Y17291D01*
X18560Y17266D01*
X18608Y17220D01*
X20036Y16220D01*
X20077Y16202D01*
X20132Y16165D01*
X21712Y15428D01*
X21755Y15417D01*
X21816Y15390D01*
X23499Y14939D01*
X23544Y14936D01*
X23608Y14920D01*
X25345Y14768D01*
X25389Y14772D01*
X25455Y14768D01*
X27192Y14920D01*
G37*
G36*
X2694192Y14920D02*
X2694192Y14920D01*
X2694235Y14932D01*
X2694301Y14939D01*
X2695984Y15390D01*
X2696025Y15409D01*
X2696088Y15428D01*
X2697668Y16165D01*
X2697705Y16191D01*
X2697764Y16220D01*
X2699192Y17220D01*
X2699223Y17252D01*
X2699276Y17291D01*
X2700509Y18524D01*
X2700534Y18560D01*
X2700580Y18608D01*
X2701580Y20036D01*
X2701598Y20077D01*
X2701635Y20132D01*
X2702372Y21712D01*
X2702383Y21755D01*
X2702410Y21816D01*
X2702861Y23499D01*
X2702863Y23531D01*
X2702870Y23552D01*
X2702870Y23567D01*
X2702880Y23608D01*
X2703032Y25345D01*
X2703028Y25389D01*
X2703032Y25455D01*
X2702880Y27192D01*
X2702868Y27235D01*
X2702861Y27301D01*
X2702410Y28984D01*
X2702391Y29025D01*
X2702372Y29088D01*
X2701635Y30668D01*
X2701609Y30705D01*
X2701580Y30764D01*
X2700580Y32192D01*
X2700548Y32223D01*
X2700509Y32276D01*
X2699276Y33509D01*
X2699240Y33534D01*
X2699192Y33580D01*
X2697764Y34580D01*
X2697723Y34598D01*
X2697668Y34635D01*
X2696088Y35372D01*
X2696045Y35383D01*
X2695984Y35410D01*
X2694301Y35861D01*
X2694256Y35864D01*
X2694192Y35880D01*
X2692455Y36032D01*
X2692411Y36028D01*
X2692345Y36032D01*
X2690608Y35880D01*
X2690565Y35868D01*
X2690499Y35861D01*
X2688816Y35410D01*
X2688775Y35391D01*
X2688712Y35372D01*
X2687132Y34635D01*
X2687095Y34609D01*
X2687036Y34580D01*
X2685608Y33580D01*
X2685577Y33548D01*
X2685524Y33509D01*
X2684291Y32276D01*
X2684266Y32240D01*
X2684220Y32192D01*
X2683220Y30764D01*
X2683202Y30723D01*
X2683165Y30668D01*
X2682428Y29088D01*
X2682417Y29045D01*
X2682390Y28984D01*
X2681939Y27301D01*
X2681936Y27256D01*
X2681920Y27192D01*
X2681768Y25455D01*
X2681772Y25411D01*
X2681768Y25345D01*
X2681920Y23608D01*
X2681932Y23565D01*
X2681936Y23531D01*
X2681936Y23515D01*
X2681938Y23510D01*
X2681939Y23499D01*
X2682390Y21816D01*
X2682409Y21775D01*
X2682428Y21712D01*
X2683165Y20132D01*
X2683191Y20095D01*
X2683220Y20036D01*
X2684220Y18608D01*
X2684252Y18577D01*
X2684291Y18524D01*
X2685524Y17291D01*
X2685560Y17266D01*
X2685608Y17220D01*
X2687036Y16220D01*
X2687077Y16202D01*
X2687132Y16165D01*
X2688712Y15428D01*
X2688755Y15417D01*
X2688816Y15390D01*
X2690499Y14939D01*
X2690544Y14936D01*
X2690608Y14920D01*
X2692345Y14768D01*
X2692389Y14772D01*
X2692455Y14768D01*
X2694192Y14920D01*
G37*
G36*
X2534480Y363901D02*
X2534480Y363901D01*
X2534481Y363901D01*
X2534974Y363972D01*
X2534975Y363972D01*
X2535428Y364179D01*
X2535428Y364180D01*
X2535429Y364180D01*
X2535805Y364506D01*
X2535805Y364507D01*
X2535806Y364507D01*
X2536075Y364926D01*
X2536075Y364927D01*
X2536076Y364927D01*
X2536216Y365405D01*
X2536216Y365406D01*
X2536216Y365904D01*
X2536216Y365905D01*
X2536076Y366383D01*
X2536075Y366384D01*
X2535806Y366803D01*
X2535805Y366804D01*
X2535429Y367130D01*
X2535428Y367130D01*
X2535428Y367131D01*
X2534975Y367338D01*
X2534974Y367338D01*
X2534481Y367409D01*
X2534480Y367409D01*
X2530404Y367409D01*
X2530404Y371405D01*
X2530401Y371409D01*
X2530400Y371409D01*
X2526404Y371409D01*
X2526404Y375485D01*
X2526404Y375486D01*
X2526333Y375979D01*
X2526333Y375980D01*
X2526126Y376433D01*
X2526125Y376433D01*
X2526125Y376434D01*
X2525799Y376810D01*
X2525798Y376810D01*
X2525798Y376811D01*
X2525379Y377080D01*
X2525378Y377080D01*
X2525378Y377081D01*
X2524900Y377221D01*
X2524899Y377221D01*
X2524401Y377221D01*
X2524400Y377221D01*
X2523922Y377081D01*
X2523921Y377080D01*
X2523502Y376811D01*
X2523502Y376810D01*
X2523501Y376810D01*
X2523175Y376434D01*
X2523175Y376433D01*
X2523174Y376433D01*
X2522967Y375980D01*
X2522967Y375979D01*
X2522964Y375963D01*
X2522961Y375942D01*
X2522958Y375921D01*
X2522958Y375920D01*
X2522955Y375899D01*
X2522952Y375878D01*
X2522949Y375857D01*
X2522948Y375849D01*
X2522945Y375828D01*
X2522942Y375807D01*
X2522939Y375786D01*
X2522939Y375785D01*
X2522936Y375764D01*
X2522933Y375743D01*
X2522930Y375722D01*
X2522929Y375714D01*
X2522926Y375693D01*
X2522923Y375672D01*
X2522920Y375651D01*
X2522920Y375650D01*
X2522917Y375629D01*
X2522916Y375629D01*
X2522913Y375608D01*
X2522912Y375600D01*
X2522909Y375579D01*
X2522906Y375558D01*
X2522903Y375537D01*
X2522900Y375516D01*
X2522900Y375515D01*
X2522897Y375494D01*
X2522896Y375486D01*
X2522896Y375485D01*
X2522896Y371409D01*
X2519904Y371409D01*
X2519904Y375485D01*
X2519904Y375486D01*
X2519833Y375979D01*
X2519833Y375980D01*
X2519626Y376433D01*
X2519625Y376433D01*
X2519625Y376434D01*
X2519299Y376810D01*
X2519298Y376810D01*
X2519298Y376811D01*
X2518879Y377080D01*
X2518878Y377080D01*
X2518878Y377081D01*
X2518400Y377221D01*
X2518399Y377221D01*
X2517901Y377221D01*
X2517900Y377221D01*
X2517422Y377081D01*
X2517421Y377080D01*
X2517002Y376811D01*
X2517002Y376810D01*
X2517001Y376810D01*
X2516675Y376434D01*
X2516675Y376433D01*
X2516674Y376433D01*
X2516467Y375980D01*
X2516467Y375979D01*
X2516464Y375963D01*
X2516461Y375942D01*
X2516458Y375921D01*
X2516458Y375920D01*
X2516455Y375899D01*
X2516452Y375878D01*
X2516449Y375857D01*
X2516448Y375849D01*
X2516445Y375828D01*
X2516442Y375807D01*
X2516439Y375786D01*
X2516439Y375785D01*
X2516436Y375764D01*
X2516433Y375743D01*
X2516430Y375722D01*
X2516429Y375714D01*
X2516426Y375693D01*
X2516423Y375672D01*
X2516420Y375651D01*
X2516420Y375650D01*
X2516417Y375629D01*
X2516416Y375629D01*
X2516413Y375608D01*
X2516412Y375600D01*
X2516409Y375579D01*
X2516406Y375558D01*
X2516403Y375537D01*
X2516400Y375516D01*
X2516400Y375515D01*
X2516397Y375494D01*
X2516396Y375486D01*
X2516396Y375485D01*
X2516396Y371409D01*
X2513404Y371409D01*
X2513404Y375485D01*
X2513404Y375486D01*
X2513333Y375979D01*
X2513333Y375980D01*
X2513126Y376433D01*
X2513125Y376433D01*
X2513125Y376434D01*
X2512799Y376810D01*
X2512798Y376810D01*
X2512798Y376811D01*
X2512379Y377080D01*
X2512378Y377080D01*
X2512378Y377081D01*
X2511900Y377221D01*
X2511899Y377221D01*
X2511401Y377221D01*
X2511400Y377221D01*
X2510922Y377081D01*
X2510921Y377080D01*
X2510502Y376811D01*
X2510502Y376810D01*
X2510501Y376810D01*
X2510175Y376434D01*
X2510175Y376433D01*
X2510174Y376433D01*
X2509967Y375980D01*
X2509967Y375979D01*
X2509964Y375963D01*
X2509961Y375942D01*
X2509958Y375921D01*
X2509958Y375920D01*
X2509955Y375899D01*
X2509952Y375878D01*
X2509949Y375857D01*
X2509948Y375849D01*
X2509945Y375828D01*
X2509942Y375807D01*
X2509939Y375786D01*
X2509939Y375785D01*
X2509936Y375764D01*
X2509933Y375743D01*
X2509930Y375722D01*
X2509929Y375714D01*
X2509926Y375693D01*
X2509923Y375672D01*
X2509920Y375651D01*
X2509920Y375650D01*
X2509917Y375629D01*
X2509916Y375629D01*
X2509913Y375608D01*
X2509912Y375600D01*
X2509909Y375579D01*
X2509906Y375558D01*
X2509903Y375537D01*
X2509900Y375516D01*
X2509900Y375515D01*
X2509897Y375494D01*
X2509896Y375486D01*
X2509896Y375485D01*
X2509896Y363905D01*
X2509899Y363901D01*
X2509900Y363901D01*
X2534480Y363901D01*
X2534480Y363901D01*
G37*
D10*
X500615Y365335D02*
X500615Y371245D01*
X506025Y371245D01*
X506025Y365335D01*
X500615Y365335D01*
X500615Y369712D02*
X506025Y369712D01*
X484615Y371245D02*
X484615Y365335D01*
X484615Y371245D02*
X490025Y371245D01*
X490025Y365335D01*
X484615Y365335D01*
X484615Y369712D02*
X490025Y369712D01*
X500595Y295055D02*
X500595Y289145D01*
X500595Y295055D02*
X506005Y295055D01*
X506005Y289145D01*
X500595Y289145D01*
X500595Y293522D02*
X506005Y293522D01*
X484595Y295055D02*
X484595Y289145D01*
X484595Y295055D02*
X490005Y295055D01*
X490005Y289145D01*
X484595Y289145D01*
X484595Y293522D02*
X490005Y293522D01*
X505045Y208495D02*
X510955Y208495D01*
X505045Y208495D02*
X505045Y213905D01*
X510955Y213905D01*
X510955Y208495D01*
X510955Y212872D02*
X505045Y212872D01*
X505045Y192495D02*
X510955Y192495D01*
X505045Y192495D02*
X505045Y197905D01*
X510955Y197905D01*
X510955Y192495D01*
X510955Y196872D02*
X505045Y196872D01*
D11*
X554770Y393670D03*
X524770Y393670D03*
X554750Y311150D03*
X524750Y311150D03*
X554750Y234950D03*
X524750Y234950D03*
X415040Y444550D03*
X385040Y444550D03*
X542070Y419130D03*
X512070Y419130D03*
X554660Y349100D03*
X524660Y349100D03*
X554750Y273050D03*
X524750Y273050D03*
D10*
X500595Y327245D02*
X500595Y333155D01*
X506005Y333155D01*
X506005Y327245D01*
X500595Y327245D01*
X500595Y331622D02*
X506005Y331622D01*
X484595Y333155D02*
X484595Y327245D01*
X484595Y333155D02*
X490005Y333155D01*
X490005Y327245D01*
X484595Y327245D01*
X484595Y331622D02*
X490005Y331622D01*
D12*
X724319Y415932D02*
X727082Y413169D01*
X724319Y415932D02*
X727082Y418695D01*
X729845Y415932D01*
X727082Y413169D01*
X729180Y416597D02*
X724984Y416597D01*
X717955Y409568D02*
X720718Y406805D01*
X717955Y409568D02*
X720718Y412331D01*
X723481Y409568D01*
X720718Y406805D01*
X722816Y410233D02*
X718620Y410233D01*
X714382Y419519D02*
X711619Y422282D01*
X714382Y425045D01*
X717145Y422282D01*
X714382Y419519D01*
X716480Y422947D02*
X712284Y422947D01*
X705255Y415918D02*
X708018Y413155D01*
X705255Y415918D02*
X708018Y418681D01*
X710781Y415918D01*
X708018Y413155D01*
X710116Y416583D02*
X705920Y416583D01*
X698919Y403232D02*
X701682Y400469D01*
X698919Y403232D02*
X701682Y405995D01*
X704445Y403232D01*
X701682Y400469D01*
X703780Y403897D02*
X699584Y403897D01*
X692555Y396868D02*
X695318Y394105D01*
X692555Y396868D02*
X695318Y399631D01*
X698081Y396868D01*
X695318Y394105D01*
X697416Y397533D02*
X693220Y397533D01*
X676282Y400469D02*
X673519Y403232D01*
X676282Y405995D01*
X679045Y403232D01*
X676282Y400469D01*
X678380Y403897D02*
X674184Y403897D01*
X667155Y396868D02*
X669918Y394105D01*
X667155Y396868D02*
X669918Y399631D01*
X672681Y396868D01*
X669918Y394105D01*
X672016Y397533D02*
X667820Y397533D01*
X679869Y384182D02*
X682632Y381419D01*
X679869Y384182D02*
X682632Y386945D01*
X685395Y384182D01*
X682632Y381419D01*
X684730Y384847D02*
X680534Y384847D01*
X673505Y377818D02*
X676268Y375055D01*
X673505Y377818D02*
X676268Y380581D01*
X679031Y377818D01*
X676268Y375055D01*
X678366Y378483D02*
X674170Y378483D01*
X673519Y301632D02*
X676282Y298869D01*
X673519Y301632D02*
X676282Y304395D01*
X679045Y301632D01*
X676282Y298869D01*
X678380Y302297D02*
X674184Y302297D01*
X667155Y295268D02*
X669918Y292505D01*
X667155Y295268D02*
X669918Y298031D01*
X672681Y295268D01*
X669918Y292505D01*
X672016Y295933D02*
X667820Y295933D01*
X659981Y269882D02*
X657218Y267119D01*
X654455Y269882D01*
X657218Y272645D01*
X659981Y269882D01*
X659316Y270547D02*
X655120Y270547D01*
X663582Y260755D02*
X666345Y263518D01*
X663582Y260755D02*
X660819Y263518D01*
X663582Y266281D01*
X666345Y263518D01*
X665680Y264183D02*
X661484Y264183D01*
D10*
X352185Y418045D02*
X346275Y418045D01*
X346275Y423455D01*
X352185Y423455D01*
X352185Y418045D01*
X352185Y422422D02*
X346275Y422422D01*
X346275Y402045D02*
X352185Y402045D01*
X346275Y402045D02*
X346275Y407455D01*
X352185Y407455D01*
X352185Y402045D01*
X352185Y406422D02*
X346275Y406422D01*
D12*
X844969Y415918D02*
X847732Y418681D01*
X850495Y415918D01*
X847732Y413155D01*
X844969Y415918D01*
X845634Y416583D02*
X849830Y416583D01*
X841368Y425045D02*
X838605Y422282D01*
X841368Y425045D02*
X844131Y422282D01*
X841368Y419519D01*
X838605Y422282D01*
X839270Y422947D02*
X843466Y422947D01*
D10*
X883177Y258675D02*
X887355Y254497D01*
X883529Y250671D01*
X879351Y254849D01*
X883177Y258675D01*
X886804Y255048D02*
X879550Y255048D01*
X894491Y269989D02*
X898669Y265811D01*
X894843Y261985D01*
X890665Y266163D01*
X894491Y269989D01*
X898118Y266362D02*
X890864Y266362D01*
X583155Y441535D02*
X583155Y447445D01*
X588565Y447445D01*
X588565Y441535D01*
X583155Y441535D01*
X583155Y445912D02*
X588565Y445912D01*
X567155Y447445D02*
X567155Y441535D01*
X567155Y447445D02*
X572565Y447445D01*
X572565Y441535D01*
X567155Y441535D01*
X567155Y445912D02*
X572565Y445912D01*
X500595Y256955D02*
X500595Y251045D01*
X500595Y256955D02*
X506005Y256955D01*
X506005Y251045D01*
X500595Y251045D01*
X500595Y255422D02*
X506005Y255422D01*
X484595Y256955D02*
X484595Y251045D01*
X484595Y256955D02*
X490005Y256955D01*
X490005Y251045D01*
X484595Y251045D01*
X484595Y255422D02*
X490005Y255422D01*
D13*
X2025000Y540000D03*
X2025000Y60000D03*
X2405000Y540000D03*
X2405000Y60000D03*
X2595000Y540000D03*
X1645000Y540000D03*
X1645000Y60000D03*
D14*
G36*
X798554Y365989D02*
X786876Y377667D01*
X789716Y380507D01*
X801394Y368829D01*
X798554Y365989D01*
G37*
G36*
X795019Y362453D02*
X783341Y374131D01*
X786181Y376971D01*
X797859Y365293D01*
X795019Y362453D01*
G37*
G36*
X791483Y358918D02*
X779805Y370596D01*
X782645Y373436D01*
X794323Y361758D01*
X791483Y358918D01*
G37*
G36*
X787947Y355382D02*
X776269Y367060D01*
X779109Y369900D01*
X790787Y358222D01*
X787947Y355382D01*
G37*
G36*
X784412Y351847D02*
X772734Y363525D01*
X775574Y366365D01*
X787252Y354687D01*
X784412Y351847D01*
G37*
G36*
X780876Y348311D02*
X769198Y359989D01*
X772038Y362829D01*
X783716Y351151D01*
X780876Y348311D01*
G37*
G36*
X777341Y344776D02*
X765663Y356454D01*
X768503Y359294D01*
X780181Y347616D01*
X777341Y344776D01*
G37*
G36*
X773805Y341240D02*
X762127Y352918D01*
X764967Y355758D01*
X776645Y344080D01*
X773805Y341240D01*
G37*
G36*
X770270Y337705D02*
X758592Y349383D01*
X761432Y352223D01*
X773110Y340545D01*
X770270Y337705D01*
G37*
G36*
X766734Y334169D02*
X755056Y345847D01*
X757896Y348687D01*
X769574Y337009D01*
X766734Y334169D01*
G37*
G36*
X763199Y330634D02*
X751521Y342312D01*
X754361Y345152D01*
X766039Y333474D01*
X763199Y330634D01*
G37*
G36*
X759663Y327098D02*
X747985Y338776D01*
X750825Y341616D01*
X762503Y329938D01*
X759663Y327098D01*
G37*
G36*
X756128Y323563D02*
X744450Y335241D01*
X747290Y338081D01*
X758968Y326403D01*
X756128Y323563D01*
G37*
G36*
X752592Y320027D02*
X740914Y331705D01*
X743754Y334545D01*
X755432Y322867D01*
X752592Y320027D01*
G37*
G36*
X749057Y316491D02*
X737379Y328169D01*
X740219Y331009D01*
X751897Y319331D01*
X749057Y316491D01*
G37*
G36*
X745521Y312956D02*
X733843Y324634D01*
X736683Y327474D01*
X748361Y315796D01*
X745521Y312956D01*
G37*
G36*
X748361Y293804D02*
X736683Y282126D01*
X733843Y284966D01*
X745521Y296644D01*
X748361Y293804D01*
G37*
G36*
X751897Y290269D02*
X740219Y278591D01*
X737379Y281431D01*
X749057Y293109D01*
X751897Y290269D01*
G37*
G36*
X755432Y286733D02*
X743754Y275055D01*
X740914Y277895D01*
X752592Y289573D01*
X755432Y286733D01*
G37*
G36*
X758968Y283197D02*
X747290Y271519D01*
X744450Y274359D01*
X756128Y286037D01*
X758968Y283197D01*
G37*
G36*
X762503Y279662D02*
X750825Y267984D01*
X747985Y270824D01*
X759663Y282502D01*
X762503Y279662D01*
G37*
G36*
X766039Y276126D02*
X754361Y264448D01*
X751521Y267288D01*
X763199Y278966D01*
X766039Y276126D01*
G37*
G36*
X769574Y272591D02*
X757896Y260913D01*
X755056Y263753D01*
X766734Y275431D01*
X769574Y272591D01*
G37*
G36*
X773110Y269055D02*
X761432Y257377D01*
X758592Y260217D01*
X770270Y271895D01*
X773110Y269055D01*
G37*
G36*
X776645Y265520D02*
X764967Y253842D01*
X762127Y256682D01*
X773805Y268360D01*
X776645Y265520D01*
G37*
G36*
X780181Y261984D02*
X768503Y250306D01*
X765663Y253146D01*
X777341Y264824D01*
X780181Y261984D01*
G37*
G36*
X783716Y258449D02*
X772038Y246771D01*
X769198Y249611D01*
X780876Y261289D01*
X783716Y258449D01*
G37*
G36*
X787252Y254913D02*
X775574Y243235D01*
X772734Y246075D01*
X784412Y257753D01*
X787252Y254913D01*
G37*
G36*
X790787Y251378D02*
X779109Y239700D01*
X776269Y242540D01*
X787947Y254218D01*
X790787Y251378D01*
G37*
G36*
X794323Y247842D02*
X782645Y236164D01*
X779805Y239004D01*
X791483Y250682D01*
X794323Y247842D01*
G37*
G36*
X797859Y244307D02*
X786181Y232629D01*
X783341Y235469D01*
X795019Y247147D01*
X797859Y244307D01*
G37*
G36*
X801394Y240771D02*
X789716Y229093D01*
X786876Y231933D01*
X798554Y243611D01*
X801394Y240771D01*
G37*
G36*
X820546Y243611D02*
X832224Y231933D01*
X829384Y229093D01*
X817706Y240771D01*
X820546Y243611D01*
G37*
G36*
X824081Y247147D02*
X835759Y235469D01*
X832919Y232629D01*
X821241Y244307D01*
X824081Y247147D01*
G37*
G36*
X827617Y250682D02*
X839295Y239004D01*
X836455Y236164D01*
X824777Y247842D01*
X827617Y250682D01*
G37*
G36*
X831153Y254218D02*
X842831Y242540D01*
X839991Y239700D01*
X828313Y251378D01*
X831153Y254218D01*
G37*
G36*
X834688Y257753D02*
X846366Y246075D01*
X843526Y243235D01*
X831848Y254913D01*
X834688Y257753D01*
G37*
G36*
X838224Y261289D02*
X849902Y249611D01*
X847062Y246771D01*
X835384Y258449D01*
X838224Y261289D01*
G37*
G36*
X841759Y264824D02*
X853437Y253146D01*
X850597Y250306D01*
X838919Y261984D01*
X841759Y264824D01*
G37*
G36*
X845295Y268360D02*
X856973Y256682D01*
X854133Y253842D01*
X842455Y265520D01*
X845295Y268360D01*
G37*
G36*
X848830Y271895D02*
X860508Y260217D01*
X857668Y257377D01*
X845990Y269055D01*
X848830Y271895D01*
G37*
G36*
X852366Y275431D02*
X864044Y263753D01*
X861204Y260913D01*
X849526Y272591D01*
X852366Y275431D01*
G37*
G36*
X855901Y278966D02*
X867579Y267288D01*
X864739Y264448D01*
X853061Y276126D01*
X855901Y278966D01*
G37*
G36*
X859437Y282502D02*
X871115Y270824D01*
X868275Y267984D01*
X856597Y279662D01*
X859437Y282502D01*
G37*
G36*
X862972Y286037D02*
X874650Y274359D01*
X871810Y271519D01*
X860132Y283197D01*
X862972Y286037D01*
G37*
G36*
X866508Y289573D02*
X878186Y277895D01*
X875346Y275055D01*
X863668Y286733D01*
X866508Y289573D01*
G37*
G36*
X870043Y293109D02*
X881721Y281431D01*
X878881Y278591D01*
X867203Y290269D01*
X870043Y293109D01*
G37*
G36*
X873579Y296644D02*
X885257Y284966D01*
X882417Y282126D01*
X870739Y293804D01*
X873579Y296644D01*
G37*
G36*
X870739Y315796D02*
X882417Y327474D01*
X885257Y324634D01*
X873579Y312956D01*
X870739Y315796D01*
G37*
G36*
X867203Y319331D02*
X878881Y331009D01*
X881721Y328169D01*
X870043Y316491D01*
X867203Y319331D01*
G37*
G36*
X863668Y322867D02*
X875346Y334545D01*
X878186Y331705D01*
X866508Y320027D01*
X863668Y322867D01*
G37*
G36*
X860132Y326403D02*
X871810Y338081D01*
X874650Y335241D01*
X862972Y323563D01*
X860132Y326403D01*
G37*
G36*
X856597Y329938D02*
X868275Y341616D01*
X871115Y338776D01*
X859437Y327098D01*
X856597Y329938D01*
G37*
G36*
X853061Y333474D02*
X864739Y345152D01*
X867579Y342312D01*
X855901Y330634D01*
X853061Y333474D01*
G37*
G36*
X849759Y337242D02*
X861437Y348920D01*
X864277Y346080D01*
X852599Y334402D01*
X849759Y337242D01*
G37*
G36*
X845990Y340545D02*
X857668Y352223D01*
X860508Y349383D01*
X848830Y337705D01*
X845990Y340545D01*
G37*
G36*
X842455Y344080D02*
X854133Y355758D01*
X856973Y352918D01*
X845295Y341240D01*
X842455Y344080D01*
G37*
G36*
X838919Y347616D02*
X850597Y359294D01*
X853437Y356454D01*
X841759Y344776D01*
X838919Y347616D01*
G37*
G36*
X835384Y351151D02*
X847062Y362829D01*
X849902Y359989D01*
X838224Y348311D01*
X835384Y351151D01*
G37*
G36*
X831848Y354687D02*
X843526Y366365D01*
X846366Y363525D01*
X834688Y351847D01*
X831848Y354687D01*
G37*
G36*
X828313Y358222D02*
X839991Y369900D01*
X842831Y367060D01*
X831153Y355382D01*
X828313Y358222D01*
G37*
G36*
X824777Y361758D02*
X836455Y373436D01*
X839295Y370596D01*
X827617Y358918D01*
X824777Y361758D01*
G37*
G36*
X821241Y365293D02*
X832919Y376971D01*
X835759Y374131D01*
X824081Y362453D01*
X821241Y365293D01*
G37*
G36*
X817706Y368829D02*
X829384Y380507D01*
X832224Y377667D01*
X820546Y365989D01*
X817706Y368829D01*
G37*
D15*
G36*
X809550Y260949D02*
X765699Y304800D01*
X809550Y348651D01*
X853401Y304800D01*
X809550Y260949D01*
G37*
D16*
X2044700Y304800D03*
X2019300Y304800D03*
X2019300Y203200D03*
X2044700Y203200D03*
D17*
X524369Y366511D02*
X524369Y370089D01*
X524369Y366511D02*
X520791Y366511D01*
X520791Y370089D01*
X524369Y370089D01*
X524369Y369777D02*
X520791Y369777D01*
X533369Y370089D02*
X533369Y366511D01*
X529791Y366511D01*
X529791Y370089D01*
X533369Y370089D01*
X533369Y369777D02*
X529791Y369777D01*
X524339Y293889D02*
X524339Y290311D01*
X520761Y290311D01*
X520761Y293889D01*
X524339Y293889D01*
X524339Y293577D02*
X520761Y293577D01*
X533339Y293889D02*
X533339Y290311D01*
X529761Y290311D01*
X529761Y293889D01*
X533339Y293889D01*
X533339Y293577D02*
X529761Y293577D01*
X524339Y217689D02*
X524339Y214111D01*
X520761Y214111D01*
X520761Y217689D01*
X524339Y217689D01*
X524339Y217377D02*
X520761Y217377D01*
X533339Y217689D02*
X533339Y214111D01*
X529761Y214111D01*
X529761Y217689D01*
X533339Y217689D01*
X533339Y217377D02*
X529761Y217377D01*
X390989Y423681D02*
X390989Y427259D01*
X390989Y423681D02*
X387411Y423681D01*
X387411Y427259D01*
X390989Y427259D01*
X390989Y426947D02*
X387411Y426947D01*
X399989Y427259D02*
X399989Y423681D01*
X396411Y423681D01*
X396411Y427259D01*
X399989Y427259D01*
X399989Y426947D02*
X396411Y426947D01*
X580611Y427249D02*
X580611Y423671D01*
X580611Y427249D02*
X584189Y427249D01*
X584189Y423671D01*
X580611Y423671D01*
X580611Y426937D02*
X584189Y426937D01*
X571611Y427249D02*
X571611Y423671D01*
X571611Y427249D02*
X575189Y427249D01*
X575189Y423671D01*
X571611Y423671D01*
X571611Y426937D02*
X575189Y426937D01*
X524339Y331879D02*
X524339Y328301D01*
X520761Y328301D01*
X520761Y331879D01*
X524339Y331879D01*
X524339Y331567D02*
X520761Y331567D01*
X533339Y331879D02*
X533339Y328301D01*
X529761Y328301D01*
X529761Y331879D01*
X533339Y331879D01*
X533339Y331567D02*
X529761Y331567D01*
X524339Y255789D02*
X524339Y252211D01*
X520761Y252211D01*
X520761Y255789D01*
X524339Y255789D01*
X524339Y255477D02*
X520761Y255477D01*
X533339Y255789D02*
X533339Y252211D01*
X529761Y252211D01*
X529761Y255789D01*
X533339Y255789D01*
X533339Y255477D02*
X529761Y255477D01*
X575139Y410961D02*
X575139Y414539D01*
X575139Y410961D02*
X571561Y410961D01*
X571561Y414539D01*
X575139Y414539D01*
X575139Y414227D02*
X571561Y414227D01*
X584139Y414539D02*
X584139Y410961D01*
X580561Y410961D01*
X580561Y414539D01*
X584139Y414539D01*
X584139Y414227D02*
X580561Y414227D01*
X556089Y370089D02*
X556089Y366511D01*
X552511Y366511D01*
X552511Y370089D01*
X556089Y370089D01*
X556089Y369777D02*
X552511Y369777D01*
X565089Y370089D02*
X565089Y366511D01*
X561511Y366511D01*
X561511Y370089D01*
X565089Y370089D01*
X565089Y369777D02*
X561511Y369777D01*
X556089Y331989D02*
X556089Y328411D01*
X552511Y328411D01*
X552511Y331989D01*
X556089Y331989D01*
X556089Y331677D02*
X552511Y331677D01*
X565089Y331989D02*
X565089Y328411D01*
X561511Y328411D01*
X561511Y331989D01*
X565089Y331989D01*
X565089Y331677D02*
X561511Y331677D01*
X556089Y293889D02*
X556089Y290311D01*
X552511Y290311D01*
X552511Y293889D01*
X556089Y293889D01*
X556089Y293577D02*
X552511Y293577D01*
X565089Y293889D02*
X565089Y290311D01*
X561511Y290311D01*
X561511Y293889D01*
X565089Y293889D01*
X565089Y293577D02*
X561511Y293577D01*
X556089Y255789D02*
X556089Y252211D01*
X552511Y252211D01*
X552511Y255789D01*
X556089Y255789D01*
X556089Y255477D02*
X552511Y255477D01*
X565089Y255789D02*
X565089Y252211D01*
X561511Y252211D01*
X561511Y255789D01*
X565089Y255789D01*
X565089Y255477D02*
X561511Y255477D01*
X556089Y217689D02*
X556089Y214111D01*
X552511Y214111D01*
X552511Y217689D01*
X556089Y217689D01*
X556089Y217377D02*
X552511Y217377D01*
X565089Y217689D02*
X565089Y214111D01*
X561511Y214111D01*
X561511Y217689D01*
X565089Y217689D01*
X565089Y217377D02*
X561511Y217377D01*
X416389Y423661D02*
X416389Y427239D01*
X416389Y423661D02*
X412811Y423661D01*
X412811Y427239D01*
X416389Y427239D01*
X416389Y426927D02*
X412811Y426927D01*
X425389Y427239D02*
X425389Y423661D01*
X421811Y423661D01*
X421811Y427239D01*
X425389Y427239D01*
X425389Y426927D02*
X421811Y426927D01*
D10*
X940140Y166578D02*
X944672Y171110D01*
X940140Y166578D02*
X936314Y170404D01*
X940846Y174936D01*
X944672Y171110D01*
X944517Y170955D02*
X936865Y170955D01*
X951454Y155264D02*
X955986Y159796D01*
X951454Y155264D02*
X947628Y159090D01*
X952160Y163622D01*
X955986Y159796D01*
X955831Y159641D02*
X948179Y159641D01*
D17*
X922539Y174161D02*
X918961Y174161D01*
X918961Y177739D01*
X922539Y177739D01*
X922539Y174161D01*
X922539Y177427D02*
X918961Y177427D01*
X918961Y165161D02*
X922539Y165161D01*
X918961Y165161D02*
X918961Y168739D01*
X922539Y168739D01*
X922539Y165161D01*
X922539Y168427D02*
X918961Y168427D01*
X832502Y403218D02*
X835032Y405748D01*
X837562Y403218D01*
X835032Y400688D01*
X832502Y403218D01*
X833238Y403954D02*
X836826Y403954D01*
X828668Y412112D02*
X826138Y409582D01*
X828668Y412112D02*
X831198Y409582D01*
X828668Y407052D01*
X826138Y409582D01*
X826874Y410318D02*
X830462Y410318D01*
D10*
X360895Y390305D02*
X360895Y384395D01*
X360895Y390305D02*
X366305Y390305D01*
X366305Y384395D01*
X360895Y384395D01*
X360895Y388772D02*
X366305Y388772D01*
X344895Y390305D02*
X344895Y384395D01*
X344895Y390305D02*
X350305Y390305D01*
X350305Y384395D01*
X344895Y384395D01*
X344895Y388772D02*
X350305Y388772D01*
D17*
X390989Y389139D02*
X390989Y385561D01*
X387411Y385561D01*
X387411Y389139D01*
X390989Y389139D01*
X390989Y388827D02*
X387411Y388827D01*
X399989Y389139D02*
X399989Y385561D01*
X396411Y385561D01*
X396411Y389139D01*
X399989Y389139D01*
X399989Y388827D02*
X396411Y388827D01*
X417311Y403689D02*
X420889Y403689D01*
X420889Y400111D01*
X417311Y400111D01*
X417311Y403689D01*
X417311Y403377D02*
X420889Y403377D01*
X420889Y412689D02*
X417311Y412689D01*
X420889Y412689D02*
X420889Y409111D01*
X417311Y409111D01*
X417311Y412689D01*
X417311Y412377D02*
X420889Y412377D01*
D11*
X402350Y406400D03*
X372350Y406400D03*
D13*
X1265000Y60000D03*
D10*
X360885Y346325D02*
X360885Y352235D01*
X366295Y352235D01*
X366295Y346325D01*
X360885Y346325D01*
X360885Y350702D02*
X366295Y350702D01*
X344885Y352235D02*
X344885Y346325D01*
X344885Y352235D02*
X350295Y352235D01*
X350295Y346325D01*
X344885Y346325D01*
X344885Y350702D02*
X350295Y350702D01*
D17*
X391009Y351089D02*
X391009Y347511D01*
X387431Y347511D01*
X387431Y351089D01*
X391009Y351089D01*
X391009Y350777D02*
X387431Y350777D01*
X400009Y351089D02*
X400009Y347511D01*
X396431Y347511D01*
X396431Y351089D01*
X400009Y351089D01*
X400009Y350777D02*
X396431Y350777D01*
X416389Y351039D02*
X416389Y347461D01*
X412811Y347461D01*
X412811Y351039D01*
X416389Y351039D01*
X416389Y350727D02*
X412811Y350727D01*
X425389Y351039D02*
X425389Y347461D01*
X421811Y347461D01*
X421811Y351039D01*
X425389Y351039D01*
X425389Y350727D02*
X421811Y350727D01*
D11*
X413866Y366767D03*
X383866Y366767D03*
D13*
X1265000Y540000D03*
D10*
X360895Y314105D02*
X360895Y308195D01*
X360895Y314105D02*
X366305Y314105D01*
X366305Y308195D01*
X360895Y308195D01*
X360895Y312572D02*
X366305Y312572D01*
X344895Y314105D02*
X344895Y308195D01*
X344895Y314105D02*
X350305Y314105D01*
X350305Y308195D01*
X344895Y308195D01*
X344895Y312572D02*
X350305Y312572D01*
D17*
X390989Y312939D02*
X390989Y309361D01*
X387411Y309361D01*
X387411Y312939D01*
X390989Y312939D01*
X390989Y312627D02*
X387411Y312627D01*
X399989Y312939D02*
X399989Y309361D01*
X396411Y309361D01*
X396411Y312939D01*
X399989Y312939D01*
X399989Y312627D02*
X396411Y312627D01*
X416389Y312939D02*
X416389Y309361D01*
X412811Y309361D01*
X412811Y312939D01*
X416389Y312939D01*
X416389Y312627D02*
X412811Y312627D01*
X425389Y312939D02*
X425389Y309361D01*
X421811Y309361D01*
X421811Y312939D01*
X425389Y312939D01*
X425389Y312627D02*
X421811Y312627D01*
D11*
X415080Y330220D03*
X385080Y330220D03*
D12*
X701668Y178219D02*
X704431Y180982D01*
X701668Y178219D02*
X698905Y180982D01*
X701668Y183745D01*
X704431Y180982D01*
X703766Y181647D02*
X699570Y181647D01*
X708032Y171855D02*
X710795Y174618D01*
X708032Y171855D02*
X705269Y174618D01*
X708032Y177381D01*
X710795Y174618D01*
X710130Y175283D02*
X705934Y175283D01*
D13*
X885000Y60000D03*
D12*
X679031Y250832D02*
X676268Y248069D01*
X673505Y250832D01*
X676268Y253595D01*
X679031Y250832D01*
X678366Y251497D02*
X674170Y251497D01*
X682632Y241705D02*
X685395Y244468D01*
X682632Y241705D02*
X679869Y244468D01*
X682632Y247231D01*
X685395Y244468D01*
X684730Y245133D02*
X680534Y245133D01*
D10*
X360895Y270095D02*
X360895Y276005D01*
X366305Y276005D01*
X366305Y270095D01*
X360895Y270095D01*
X360895Y274472D02*
X366305Y274472D01*
X344895Y276005D02*
X344895Y270095D01*
X344895Y276005D02*
X350305Y276005D01*
X350305Y270095D01*
X344895Y270095D01*
X344895Y274472D02*
X350305Y274472D01*
D17*
X390989Y274839D02*
X390989Y271261D01*
X387411Y271261D01*
X387411Y274839D01*
X390989Y274839D01*
X390989Y274527D02*
X387411Y274527D01*
X399989Y274839D02*
X399989Y271261D01*
X396411Y271261D01*
X396411Y274839D01*
X399989Y274839D01*
X399989Y274527D02*
X396411Y274527D01*
X416389Y274839D02*
X416389Y271261D01*
X412811Y271261D01*
X412811Y274839D01*
X416389Y274839D01*
X416389Y274527D02*
X412811Y274527D01*
X425389Y274839D02*
X425389Y271261D01*
X421811Y271261D01*
X421811Y274839D01*
X425389Y274839D01*
X425389Y274527D02*
X421811Y274527D01*
D11*
X415050Y292050D03*
X385050Y292050D03*
D13*
X885000Y540000D03*
D10*
X360915Y237785D02*
X360915Y231875D01*
X360915Y237785D02*
X366325Y237785D01*
X366325Y231875D01*
X360915Y231875D01*
X360915Y236252D02*
X366325Y236252D01*
X344915Y237785D02*
X344915Y231875D01*
X344915Y237785D02*
X350325Y237785D01*
X350325Y231875D01*
X344915Y231875D01*
X344915Y236252D02*
X350325Y236252D01*
D17*
X390989Y236739D02*
X390989Y233161D01*
X387411Y233161D01*
X387411Y236739D01*
X390989Y236739D01*
X390989Y236427D02*
X387411Y236427D01*
X399989Y236739D02*
X399989Y233161D01*
X396411Y233161D01*
X396411Y236739D01*
X399989Y236739D01*
X399989Y236427D02*
X396411Y236427D01*
X416389Y236739D02*
X416389Y233161D01*
X412811Y233161D01*
X412811Y236739D01*
X416389Y236739D01*
X416389Y236427D02*
X412811Y236427D01*
X425389Y236739D02*
X425389Y233161D01*
X421811Y233161D01*
X421811Y236739D01*
X425389Y236739D01*
X425389Y236427D02*
X421811Y236427D01*
D11*
X415050Y254000D03*
X385050Y254000D03*
D12*
X727068Y152819D02*
X729831Y155582D01*
X727068Y152819D02*
X724305Y155582D01*
X727068Y158345D01*
X729831Y155582D01*
X729166Y156247D02*
X724970Y156247D01*
X733432Y146455D02*
X736195Y149218D01*
X733432Y146455D02*
X730669Y149218D01*
X733432Y151981D01*
X736195Y149218D01*
X735530Y149883D02*
X731334Y149883D01*
D13*
X505000Y60000D03*
D12*
X727068Y178219D02*
X729831Y180982D01*
X727068Y178219D02*
X724305Y180982D01*
X727068Y183745D01*
X729831Y180982D01*
X729166Y181647D02*
X724970Y181647D01*
X733432Y171855D02*
X736195Y174618D01*
X733432Y171855D02*
X730669Y174618D01*
X733432Y177381D01*
X736195Y174618D01*
X735530Y175283D02*
X731334Y175283D01*
D10*
X360875Y193905D02*
X360875Y199815D01*
X366285Y199815D01*
X366285Y193905D01*
X360875Y193905D01*
X360875Y198282D02*
X366285Y198282D01*
X344875Y199815D02*
X344875Y193905D01*
X344875Y199815D02*
X350285Y199815D01*
X350285Y193905D01*
X344875Y193905D01*
X344875Y198282D02*
X350285Y198282D01*
D17*
X390989Y198639D02*
X390989Y195061D01*
X387411Y195061D01*
X387411Y198639D01*
X390989Y198639D01*
X390989Y198327D02*
X387411Y198327D01*
X399989Y198639D02*
X399989Y195061D01*
X396411Y195061D01*
X396411Y198639D01*
X399989Y198639D01*
X399989Y198327D02*
X396411Y198327D01*
X416389Y198639D02*
X416389Y195061D01*
X412811Y195061D01*
X412811Y198639D01*
X416389Y198639D01*
X416389Y198327D02*
X412811Y198327D01*
X425389Y198639D02*
X425389Y195061D01*
X421811Y195061D01*
X421811Y198639D01*
X425389Y198639D01*
X425389Y198327D02*
X421811Y198327D01*
D11*
X414950Y216000D03*
X384950Y216000D03*
D13*
X505000Y540000D03*
D10*
X360895Y161705D02*
X360895Y155795D01*
X360895Y161705D02*
X366305Y161705D01*
X366305Y155795D01*
X360895Y155795D01*
X360895Y160172D02*
X366305Y160172D01*
X344895Y161705D02*
X344895Y155795D01*
X344895Y161705D02*
X350305Y161705D01*
X350305Y155795D01*
X344895Y155795D01*
X344895Y160172D02*
X350305Y160172D01*
D17*
X390989Y160539D02*
X390989Y156961D01*
X387411Y156961D01*
X387411Y160539D01*
X390989Y160539D01*
X390989Y160227D02*
X387411Y160227D01*
X399989Y160539D02*
X399989Y156961D01*
X396411Y156961D01*
X396411Y160539D01*
X399989Y160539D01*
X399989Y160227D02*
X396411Y160227D01*
X416389Y160539D02*
X416389Y156961D01*
X412811Y156961D01*
X412811Y160539D01*
X416389Y160539D01*
X416389Y160227D02*
X412811Y160227D01*
X425389Y160539D02*
X425389Y156961D01*
X421811Y156961D01*
X421811Y160539D01*
X425389Y160539D01*
X425389Y160227D02*
X421811Y160227D01*
D11*
X415050Y177800D03*
X385050Y177800D03*
D12*
X879468Y193891D02*
X882231Y191128D01*
X879468Y188365D01*
X876705Y191128D01*
X879468Y193891D01*
X881566Y191793D02*
X877370Y191793D01*
X885832Y200255D02*
X888595Y197492D01*
X885832Y194729D01*
X883069Y197492D01*
X885832Y200255D01*
X887930Y198157D02*
X883734Y198157D01*
D13*
X125000Y60000D03*
D12*
X873118Y171031D02*
X875881Y168268D01*
X873118Y165505D01*
X870355Y168268D01*
X873118Y171031D01*
X875216Y168933D02*
X871020Y168933D01*
X879482Y177395D02*
X882245Y174632D01*
X879482Y171869D01*
X876719Y174632D01*
X879482Y177395D01*
X881580Y175297D02*
X877384Y175297D01*
D13*
X125000Y540000D03*
D10*
X360895Y123605D02*
X360895Y117695D01*
X360895Y123605D02*
X366305Y123605D01*
X366305Y117695D01*
X360895Y117695D01*
X360895Y122072D02*
X366305Y122072D01*
X344895Y123605D02*
X344895Y117695D01*
X344895Y123605D02*
X350305Y123605D01*
X350305Y117695D01*
X344895Y117695D01*
X344895Y122072D02*
X350305Y122072D01*
D17*
X416389Y122439D02*
X416389Y118861D01*
X412811Y118861D01*
X412811Y122439D01*
X416389Y122439D01*
X416389Y122127D02*
X412811Y122127D01*
X425389Y122439D02*
X425389Y118861D01*
X421811Y118861D01*
X421811Y122439D01*
X425389Y122439D01*
X425389Y122127D02*
X421811Y122127D01*
X390989Y122439D02*
X390989Y118861D01*
X387411Y118861D01*
X387411Y122439D01*
X390989Y122439D01*
X390989Y122127D02*
X387411Y122127D01*
X399989Y122439D02*
X399989Y118861D01*
X396411Y118861D01*
X396411Y122439D01*
X399989Y122439D01*
X399989Y122127D02*
X396411Y122127D01*
D11*
X415050Y139700D03*
X385050Y139700D03*
D12*
X885818Y215481D02*
X888581Y212718D01*
X885818Y209955D01*
X883055Y212718D01*
X885818Y215481D01*
X887916Y213383D02*
X883720Y213383D01*
X892182Y221845D02*
X894945Y219082D01*
X892182Y216319D01*
X889419Y219082D01*
X892182Y221845D01*
X894280Y219747D02*
X890084Y219747D01*
X901281Y206382D02*
X898518Y203619D01*
X895755Y206382D01*
X898518Y209145D01*
X901281Y206382D01*
X900616Y207047D02*
X896420Y207047D01*
X904882Y197255D02*
X907645Y200018D01*
X904882Y197255D02*
X902119Y200018D01*
X904882Y202781D01*
X907645Y200018D01*
X906980Y200683D02*
X902784Y200683D01*
X917568Y298869D02*
X920331Y301632D01*
X917568Y298869D02*
X914805Y301632D01*
X917568Y304395D01*
X920331Y301632D01*
X919666Y302297D02*
X915470Y302297D01*
X923932Y292505D02*
X926695Y295268D01*
X923932Y292505D02*
X921169Y295268D01*
X923932Y298031D01*
X926695Y295268D01*
X926030Y295933D02*
X921834Y295933D01*
X930268Y311569D02*
X933031Y314332D01*
X930268Y311569D02*
X927505Y314332D01*
X930268Y317095D01*
X933031Y314332D01*
X932366Y314997D02*
X928170Y314997D01*
X936632Y305205D02*
X939395Y307968D01*
X936632Y305205D02*
X933869Y307968D01*
X936632Y310731D01*
X939395Y307968D01*
X938730Y308633D02*
X934534Y308633D01*
X942968Y324269D02*
X945731Y327032D01*
X942968Y324269D02*
X940205Y327032D01*
X942968Y329795D01*
X945731Y327032D01*
X945066Y327697D02*
X940870Y327697D01*
X949332Y317905D02*
X952095Y320668D01*
X949332Y317905D02*
X946569Y320668D01*
X949332Y323431D01*
X952095Y320668D01*
X951430Y321333D02*
X947234Y321333D01*
X955668Y336969D02*
X958431Y339732D01*
X955668Y336969D02*
X952905Y339732D01*
X955668Y342495D01*
X958431Y339732D01*
X957766Y340397D02*
X953570Y340397D01*
X962032Y330605D02*
X964795Y333368D01*
X962032Y330605D02*
X959269Y333368D01*
X962032Y336131D01*
X964795Y333368D01*
X964130Y334033D02*
X959934Y334033D01*
X968368Y349669D02*
X971131Y352432D01*
X968368Y349669D02*
X965605Y352432D01*
X968368Y355195D01*
X971131Y352432D01*
X970466Y353097D02*
X966270Y353097D01*
X974732Y343305D02*
X977495Y346068D01*
X974732Y343305D02*
X971969Y346068D01*
X974732Y348831D01*
X977495Y346068D01*
X976830Y346733D02*
X972634Y346733D01*
X981068Y362369D02*
X983831Y365132D01*
X981068Y362369D02*
X978305Y365132D01*
X981068Y367895D01*
X983831Y365132D01*
X983166Y365797D02*
X978970Y365797D01*
X987432Y356005D02*
X990195Y358768D01*
X987432Y356005D02*
X984669Y358768D01*
X987432Y361531D01*
X990195Y358768D01*
X989530Y359433D02*
X985334Y359433D01*
X993768Y375069D02*
X996531Y377832D01*
X993768Y375069D02*
X991005Y377832D01*
X993768Y380595D01*
X996531Y377832D01*
X995866Y378497D02*
X991670Y378497D01*
X1000132Y368705D02*
X1002895Y371468D01*
X1000132Y368705D02*
X997369Y371468D01*
X1000132Y374231D01*
X1002895Y371468D01*
X1002230Y372133D02*
X998034Y372133D01*
D10*
X672045Y498445D02*
X672045Y504855D01*
X677455Y504855D01*
X677455Y498445D01*
X672045Y498445D01*
X672045Y502822D02*
X677455Y502822D01*
X656045Y504855D02*
X656045Y498445D01*
X656045Y504855D02*
X661455Y504855D01*
X661455Y498445D01*
X656045Y498445D01*
X656045Y502822D02*
X661455Y502822D01*
D18*
X1024400Y514350D03*
X1058400Y514350D03*
X1115550Y514350D03*
X1081550Y514350D03*
D12*
X878165Y399653D02*
X875402Y396890D01*
X878165Y399653D02*
X880928Y396890D01*
X878165Y394127D01*
X875402Y396890D01*
X876067Y397555D02*
X880263Y397555D01*
X871801Y406017D02*
X869038Y403254D01*
X871801Y406017D02*
X874564Y403254D01*
X871801Y400491D01*
X869038Y403254D01*
X869703Y403919D02*
X873899Y403919D01*
D10*
X1133695Y502705D02*
X1139605Y502705D01*
X1139605Y497295D01*
X1133695Y497295D01*
X1133695Y502705D01*
X1133695Y501672D02*
X1139605Y501672D01*
X1139605Y518705D02*
X1133695Y518705D01*
X1139605Y518705D02*
X1139605Y513295D01*
X1133695Y513295D01*
X1133695Y518705D01*
X1133695Y517672D02*
X1139605Y517672D01*
X908466Y413461D02*
X903934Y417993D01*
X907760Y421819D01*
X912292Y417287D01*
X908466Y413461D01*
X911741Y417838D02*
X904089Y417838D01*
X892620Y406679D02*
X897152Y402147D01*
X892620Y406679D02*
X896446Y410505D01*
X900978Y405973D01*
X897152Y402147D01*
X900427Y406524D02*
X892775Y406524D01*
D19*
X880106Y376861D02*
X873118Y369873D01*
X880106Y376861D02*
X884974Y371993D01*
X877986Y365005D01*
X873118Y369873D01*
X873600Y370355D02*
X883336Y370355D01*
X881262Y375705D02*
X878950Y375705D01*
X867378Y389589D02*
X860390Y382601D01*
X867378Y389589D02*
X872246Y384721D01*
X865258Y377733D01*
X860390Y382601D01*
X860872Y383083D02*
X870608Y383083D01*
X868534Y388433D02*
X866222Y388433D01*
D10*
X1159095Y464605D02*
X1165005Y464605D01*
X1165005Y459195D01*
X1159095Y459195D01*
X1159095Y464605D01*
X1159095Y463572D02*
X1165005Y463572D01*
X1165005Y480605D02*
X1159095Y480605D01*
X1165005Y480605D02*
X1165005Y475195D01*
X1159095Y475195D01*
X1159095Y480605D01*
X1159095Y479572D02*
X1165005Y479572D01*
D18*
X1005250Y482550D03*
X1039250Y482550D03*
X1096500Y482600D03*
X1062500Y482600D03*
D10*
X921000Y400554D02*
X916468Y405086D01*
X920294Y408912D01*
X924826Y404380D01*
X921000Y400554D01*
X924275Y404931D02*
X916623Y404931D01*
X905155Y393772D02*
X909687Y389240D01*
X905155Y393772D02*
X908981Y397598D01*
X913513Y393066D01*
X909687Y389240D01*
X912962Y393617D02*
X905310Y393617D01*
D12*
X894931Y384182D02*
X892168Y381419D01*
X889405Y384182D01*
X892168Y386945D01*
X894931Y384182D01*
X894266Y384847D02*
X890070Y384847D01*
X898532Y375055D02*
X901295Y377818D01*
X898532Y375055D02*
X895769Y377818D01*
X898532Y380581D01*
X901295Y377818D01*
X900630Y378483D02*
X896434Y378483D01*
D20*
X2469400Y320155D02*
X2473400Y320155D01*
X2473400Y326655D02*
X2469400Y326655D01*
X2469400Y333155D02*
X2473400Y333155D01*
X2473400Y339655D02*
X2469400Y339655D01*
X2469400Y346155D02*
X2473400Y346155D01*
X2473400Y352655D02*
X2469400Y352655D01*
X2469400Y359155D02*
X2473400Y359155D01*
X2473400Y365655D02*
X2469400Y365655D01*
X2479150Y314405D02*
X2479150Y310405D01*
X2485650Y310405D02*
X2485650Y314405D01*
X2492150Y314405D02*
X2492150Y310405D01*
X2498650Y310405D02*
X2498650Y314405D01*
X2505150Y371405D02*
X2505150Y375405D01*
X2498650Y375405D02*
X2498650Y371405D01*
X2492150Y371405D02*
X2492150Y375405D01*
X2485650Y375405D02*
X2485650Y371405D01*
X2479150Y371405D02*
X2479150Y375405D01*
D21*
X2489200Y342905D03*
D10*
X2549795Y412915D02*
X2555705Y412915D01*
X2549795Y412915D02*
X2549795Y418325D01*
X2555705Y418325D01*
X2555705Y412915D01*
X2555705Y417292D02*
X2549795Y417292D01*
X2549795Y396915D02*
X2555705Y396915D01*
X2549795Y396915D02*
X2549795Y402325D01*
X2555705Y402325D01*
X2555705Y396915D01*
X2555705Y401292D02*
X2549795Y401292D01*
D19*
X2515752Y408532D02*
X2505868Y408532D01*
X2515752Y408532D02*
X2515752Y401648D01*
X2505868Y401648D01*
X2505868Y408532D01*
X2505868Y406998D02*
X2515752Y406998D01*
X2515752Y426532D02*
X2505868Y426532D01*
X2515752Y426532D02*
X2515752Y419648D01*
X2505868Y419648D01*
X2505868Y426532D01*
X2505868Y424998D02*
X2515752Y424998D01*
D10*
X2527885Y402395D02*
X2534295Y402395D01*
X2534295Y396985D01*
X2527885Y396985D01*
X2527885Y402395D01*
X2527885Y401362D02*
X2534295Y401362D01*
X2534295Y418395D02*
X2527885Y418395D01*
X2534295Y418395D02*
X2534295Y412985D01*
X2527885Y412985D01*
X2527885Y418395D01*
X2527885Y417362D02*
X2534295Y417362D01*
X2449255Y392185D02*
X2442845Y392185D01*
X2449255Y392185D02*
X2449255Y386775D01*
X2442845Y386775D01*
X2442845Y392185D01*
X2442845Y391152D02*
X2449255Y391152D01*
X2449255Y408185D02*
X2442845Y408185D01*
X2449255Y408185D02*
X2449255Y402775D01*
X2442845Y402775D01*
X2442845Y408185D01*
X2442845Y407152D02*
X2449255Y407152D01*
X2431375Y390865D02*
X2424965Y390865D01*
X2431375Y390865D02*
X2431375Y385455D01*
X2424965Y385455D01*
X2424965Y390865D01*
X2424965Y389832D02*
X2431375Y389832D01*
X2431375Y406865D02*
X2424965Y406865D01*
X2431375Y406865D02*
X2431375Y401455D01*
X2424965Y401455D01*
X2424965Y406865D01*
X2424965Y405832D02*
X2431375Y405832D01*
X2454695Y294035D02*
X2454695Y287625D01*
X2449285Y287625D01*
X2449285Y294035D01*
X2454695Y294035D01*
X2454695Y292002D02*
X2449285Y292002D01*
X2470695Y294035D02*
X2470695Y287625D01*
X2465285Y287625D01*
X2465285Y294035D01*
X2470695Y294035D01*
X2470695Y292002D02*
X2465285Y292002D01*
X2486245Y403645D02*
X2492155Y403645D01*
X2492155Y398235D01*
X2486245Y398235D01*
X2486245Y403645D01*
X2486245Y402612D02*
X2492155Y402612D01*
X2492155Y419645D02*
X2486245Y419645D01*
X2492155Y419645D02*
X2492155Y414235D01*
X2486245Y414235D01*
X2486245Y419645D01*
X2486245Y418612D02*
X2492155Y418612D01*
X2569805Y436625D02*
X2576215Y436625D01*
X2576215Y431215D01*
X2569805Y431215D01*
X2569805Y436625D01*
X2569805Y435592D02*
X2576215Y435592D01*
X2576215Y452625D02*
X2569805Y452625D01*
X2576215Y452625D02*
X2576215Y447215D01*
X2569805Y447215D01*
X2569805Y452625D01*
X2569805Y451592D02*
X2576215Y451592D01*
X2401365Y373775D02*
X2401365Y367865D01*
X2395955Y367865D01*
X2395955Y373775D01*
X2401365Y373775D01*
X2401365Y372242D02*
X2395955Y372242D01*
X2417365Y373775D02*
X2417365Y367865D01*
X2411955Y367865D01*
X2411955Y373775D01*
X2417365Y373775D01*
X2417365Y372242D02*
X2411955Y372242D01*
X2608835Y448875D02*
X2608835Y455285D01*
X2614245Y455285D01*
X2614245Y448875D01*
X2608835Y448875D01*
X2608835Y453252D02*
X2614245Y453252D01*
X2592835Y455285D02*
X2592835Y448875D01*
X2592835Y455285D02*
X2598245Y455285D01*
X2598245Y448875D01*
X2592835Y448875D01*
X2592835Y453252D02*
X2598245Y453252D01*
X2411945Y352455D02*
X2411945Y346045D01*
X2411945Y352455D02*
X2417355Y352455D01*
X2417355Y346045D01*
X2411945Y346045D01*
X2411945Y350422D02*
X2417355Y350422D01*
X2395945Y352455D02*
X2395945Y346045D01*
X2395945Y352455D02*
X2401355Y352455D01*
X2401355Y346045D01*
X2395945Y346045D01*
X2395945Y350422D02*
X2401355Y350422D01*
X2481165Y289775D02*
X2487075Y289775D01*
X2481165Y289775D02*
X2481165Y295185D01*
X2487075Y295185D01*
X2487075Y289775D01*
X2487075Y294152D02*
X2481165Y294152D01*
X2481165Y273775D02*
X2487075Y273775D01*
X2481165Y273775D02*
X2481165Y279185D01*
X2487075Y279185D01*
X2487075Y273775D01*
X2487075Y278152D02*
X2481165Y278152D01*
D19*
X2418608Y296048D02*
X2418608Y305932D01*
X2425492Y305932D01*
X2425492Y296048D01*
X2418608Y296048D01*
X2418608Y301398D02*
X2425492Y301398D01*
X2400608Y305932D02*
X2400608Y296048D01*
X2400608Y305932D02*
X2407492Y305932D01*
X2407492Y296048D01*
X2400608Y296048D01*
X2400608Y301398D02*
X2407492Y301398D01*
D10*
X2481795Y238155D02*
X2481795Y231745D01*
X2481795Y238155D02*
X2487205Y238155D01*
X2487205Y231745D01*
X2481795Y231745D01*
X2481795Y236122D02*
X2487205Y236122D01*
X2465795Y238155D02*
X2465795Y231745D01*
X2465795Y238155D02*
X2471205Y238155D01*
X2471205Y231745D01*
X2465795Y231745D01*
X2465795Y236122D02*
X2471205Y236122D01*
D17*
X1337139Y461761D02*
X1337139Y465339D01*
X1337139Y461761D02*
X1333561Y461761D01*
X1333561Y465339D01*
X1337139Y465339D01*
X1337139Y465027D02*
X1333561Y465027D01*
X1346139Y465339D02*
X1346139Y461761D01*
X1342561Y461761D01*
X1342561Y465339D01*
X1346139Y465339D01*
X1346139Y465027D02*
X1342561Y465027D01*
X1610189Y465339D02*
X1610189Y461761D01*
X1606611Y461761D01*
X1606611Y465339D01*
X1610189Y465339D01*
X1610189Y465027D02*
X1606611Y465027D01*
X1619189Y465339D02*
X1619189Y461761D01*
X1615611Y461761D01*
X1615611Y465339D01*
X1619189Y465339D01*
X1619189Y465027D02*
X1615611Y465027D01*
D22*
X1843829Y516721D02*
X1851871Y516721D01*
X1851871Y502679D01*
X1843829Y502679D01*
X1843829Y516721D01*
X1843829Y505504D02*
X1851871Y505504D01*
X1851871Y508329D02*
X1843829Y508329D01*
X1843829Y511154D02*
X1851871Y511154D01*
X1851871Y513979D02*
X1843829Y513979D01*
X1842371Y538721D02*
X1834329Y538721D01*
X1842371Y538721D02*
X1842371Y524679D01*
X1834329Y524679D01*
X1834329Y538721D01*
X1834329Y527504D02*
X1842371Y527504D01*
X1842371Y530329D02*
X1834329Y530329D01*
X1834329Y533154D02*
X1842371Y533154D01*
X1842371Y535979D02*
X1834329Y535979D01*
X1853329Y538721D02*
X1861371Y538721D01*
X1861371Y524679D01*
X1853329Y524679D01*
X1853329Y538721D01*
X1853329Y527504D02*
X1861371Y527504D01*
X1861371Y530329D02*
X1853329Y530329D01*
X1853329Y533154D02*
X1861371Y533154D01*
X1861371Y535979D02*
X1853329Y535979D01*
D23*
X1614600Y358050D03*
X1614600Y231050D03*
X1331800Y315050D03*
X1331800Y442050D03*
D22*
X1375579Y188171D02*
X1375579Y180129D01*
X1375579Y188171D02*
X1389621Y188171D01*
X1389621Y180129D01*
X1375579Y180129D01*
X1375579Y182954D02*
X1389621Y182954D01*
X1389621Y185779D02*
X1375579Y185779D01*
X1353579Y178671D02*
X1353579Y170629D01*
X1353579Y178671D02*
X1367621Y178671D01*
X1367621Y170629D01*
X1353579Y170629D01*
X1353579Y173454D02*
X1367621Y173454D01*
X1367621Y176279D02*
X1353579Y176279D01*
X1353579Y189629D02*
X1353579Y197671D01*
X1367621Y197671D01*
X1367621Y189629D01*
X1353579Y189629D01*
X1353579Y192454D02*
X1367621Y192454D01*
X1367621Y195279D02*
X1353579Y195279D01*
D17*
X2510961Y531611D02*
X2510961Y535189D01*
X2514539Y535189D01*
X2514539Y531611D01*
X2510961Y531611D01*
X2510961Y534877D02*
X2514539Y534877D01*
X2501961Y535189D02*
X2501961Y531611D01*
X2501961Y535189D02*
X2505539Y535189D01*
X2505539Y531611D01*
X2501961Y531611D01*
X2501961Y534877D02*
X2505539Y534877D01*
X2307761Y528839D02*
X2307761Y525261D01*
X2307761Y528839D02*
X2311339Y528839D01*
X2311339Y525261D01*
X2307761Y525261D01*
X2307761Y528527D02*
X2311339Y528527D01*
X2298761Y528839D02*
X2298761Y525261D01*
X2298761Y528839D02*
X2302339Y528839D01*
X2302339Y525261D01*
X2298761Y525261D01*
X2298761Y528527D02*
X2302339Y528527D01*
X1933111Y537961D02*
X1933111Y541539D01*
X1936689Y541539D01*
X1936689Y537961D01*
X1933111Y537961D01*
X1933111Y541227D02*
X1936689Y541227D01*
X1924111Y541539D02*
X1924111Y537961D01*
X1924111Y541539D02*
X1927689Y541539D01*
X1927689Y537961D01*
X1924111Y537961D01*
X1924111Y541227D02*
X1927689Y541227D01*
X1564811Y528839D02*
X1564811Y525261D01*
X1564811Y528839D02*
X1568389Y528839D01*
X1568389Y525261D01*
X1564811Y525261D01*
X1564811Y528527D02*
X1568389Y528527D01*
X1555811Y528839D02*
X1555811Y525261D01*
X1555811Y528839D02*
X1559389Y528839D01*
X1559389Y525261D01*
X1555811Y525261D01*
X1555811Y528527D02*
X1559389Y528527D01*
X1164761Y71639D02*
X1164761Y68061D01*
X1164761Y71639D02*
X1168339Y71639D01*
X1168339Y68061D01*
X1164761Y68061D01*
X1164761Y71327D02*
X1168339Y71327D01*
X1155761Y71639D02*
X1155761Y68061D01*
X1155761Y71639D02*
X1159339Y71639D01*
X1159339Y68061D01*
X1155761Y68061D01*
X1155761Y71327D02*
X1159339Y71327D01*
X1190161Y512561D02*
X1190161Y516139D01*
X1193739Y516139D01*
X1193739Y512561D01*
X1190161Y512561D01*
X1190161Y515827D02*
X1193739Y515827D01*
X1181161Y516139D02*
X1181161Y512561D01*
X1181161Y516139D02*
X1184739Y516139D01*
X1184739Y512561D01*
X1181161Y512561D01*
X1181161Y515827D02*
X1184739Y515827D01*
X809161Y84339D02*
X809161Y80761D01*
X809161Y84339D02*
X812739Y84339D01*
X812739Y80761D01*
X809161Y80761D01*
X809161Y84027D02*
X812739Y84027D01*
X800161Y84339D02*
X800161Y80761D01*
X800161Y84339D02*
X803739Y84339D01*
X803739Y80761D01*
X800161Y80761D01*
X800161Y84027D02*
X803739Y84027D01*
X802811Y499861D02*
X802811Y503439D01*
X806389Y503439D01*
X806389Y499861D01*
X802811Y499861D01*
X802811Y503127D02*
X806389Y503127D01*
X793811Y503439D02*
X793811Y499861D01*
X793811Y503439D02*
X797389Y503439D01*
X797389Y499861D01*
X793811Y499861D01*
X793811Y503127D02*
X797389Y503127D01*
X428161Y512561D02*
X428161Y516139D01*
X431739Y516139D01*
X431739Y512561D01*
X428161Y512561D01*
X428161Y515827D02*
X431739Y515827D01*
X419161Y516139D02*
X419161Y512561D01*
X419161Y516139D02*
X422739Y516139D01*
X422739Y512561D01*
X419161Y512561D01*
X419161Y515827D02*
X422739Y515827D01*
X84339Y472611D02*
X80761Y472611D01*
X80761Y476189D01*
X84339Y476189D01*
X84339Y472611D01*
X84339Y475877D02*
X80761Y475877D01*
X80761Y463611D02*
X84339Y463611D01*
X80761Y463611D02*
X80761Y467189D01*
X84339Y467189D01*
X84339Y463611D01*
X84339Y466877D02*
X80761Y466877D01*
X434511Y97039D02*
X434511Y93461D01*
X434511Y97039D02*
X438089Y97039D01*
X438089Y93461D01*
X434511Y93461D01*
X434511Y96727D02*
X438089Y96727D01*
X425511Y97039D02*
X425511Y93461D01*
X425511Y97039D02*
X429089Y97039D01*
X429089Y93461D01*
X425511Y93461D01*
X425511Y96727D02*
X429089Y96727D01*
X122409Y130639D02*
X118831Y130639D01*
X122409Y130639D02*
X122409Y127061D01*
X118831Y127061D01*
X118831Y130639D01*
X118831Y130327D02*
X122409Y130327D01*
X122409Y139639D02*
X118831Y139639D01*
X122409Y139639D02*
X122409Y136061D01*
X118831Y136061D01*
X118831Y139639D01*
X118831Y139327D02*
X122409Y139327D01*
X1920411Y58939D02*
X1920411Y55361D01*
X1920411Y58939D02*
X1923989Y58939D01*
X1923989Y55361D01*
X1920411Y55361D01*
X1920411Y58627D02*
X1923989Y58627D01*
X1911411Y58939D02*
X1911411Y55361D01*
X1911411Y58939D02*
X1914989Y58939D01*
X1914989Y55361D01*
X1911411Y55361D01*
X1911411Y58627D02*
X1914989Y58627D01*
X2320461Y68061D02*
X2320461Y71639D01*
X2324039Y71639D01*
X2324039Y68061D01*
X2320461Y68061D01*
X2320461Y71327D02*
X2324039Y71327D01*
X2311461Y71639D02*
X2311461Y68061D01*
X2311461Y71639D02*
X2315039Y71639D01*
X2315039Y68061D01*
X2311461Y68061D01*
X2311461Y71327D02*
X2315039Y71327D01*
X1533989Y58939D02*
X1533989Y55361D01*
X1530411Y55361D01*
X1530411Y58939D01*
X1533989Y58939D01*
X1533989Y58627D02*
X1530411Y58627D01*
X1542989Y58939D02*
X1542989Y55361D01*
X1539411Y55361D01*
X1539411Y58939D01*
X1542989Y58939D01*
X1542989Y58627D02*
X1539411Y58627D01*
D24*
X1248000Y400050D03*
X1165000Y400050D03*
D25*
X1248000Y375050D03*
X1248000Y425050D03*
X1165000Y424550D03*
X1165000Y377050D03*
D24*
X1248000Y273050D03*
X1165000Y273050D03*
D25*
X1248000Y248050D03*
X1248000Y298050D03*
X1165000Y297550D03*
X1165000Y250050D03*
D26*
X1828800Y457200D03*
X1854200Y457200D03*
X1879600Y457200D03*
D27*
X1866900Y235204D02*
X1866900Y221996D01*
X1841500Y221996D02*
X1841500Y235204D01*
X1866900Y298196D02*
X1866900Y311404D01*
X1841500Y311404D02*
X1841500Y298196D01*
D28*
X1831413Y136892D02*
X1831413Y121652D01*
X1856813Y119112D02*
X1856813Y134352D01*
X1882213Y136892D02*
X1882213Y121652D01*
X1907613Y119112D02*
X1907613Y134352D01*
D10*
X2291295Y238095D02*
X2291295Y244505D01*
X2296705Y244505D01*
X2296705Y238095D01*
X2291295Y238095D01*
X2291295Y242472D02*
X2296705Y242472D01*
X2275295Y244505D02*
X2275295Y238095D01*
X2275295Y244505D02*
X2280705Y244505D01*
X2280705Y238095D01*
X2275295Y238095D01*
X2275295Y242472D02*
X2280705Y242472D01*
X2263805Y280455D02*
X2257395Y280455D01*
X2263805Y280455D02*
X2263805Y275045D01*
X2257395Y275045D01*
X2257395Y280455D01*
X2257395Y279422D02*
X2263805Y279422D01*
X2263805Y296455D02*
X2257395Y296455D01*
X2263805Y296455D02*
X2263805Y291045D01*
X2257395Y291045D01*
X2257395Y296455D01*
X2257395Y295422D02*
X2263805Y295422D01*
X2291295Y314545D02*
X2291295Y320455D01*
X2296705Y320455D01*
X2296705Y314545D01*
X2291295Y314545D01*
X2291295Y318922D02*
X2296705Y318922D01*
X2275295Y320455D02*
X2275295Y314545D01*
X2275295Y320455D02*
X2280705Y320455D01*
X2280705Y314545D01*
X2275295Y314545D01*
X2275295Y318922D02*
X2280705Y318922D01*
D29*
X2286700Y298450D03*
X2310700Y298450D03*
D18*
X2347450Y260350D03*
X2313450Y260350D03*
X2372850Y292100D03*
X2338850Y292100D03*
D30*
X2247900Y385300D03*
X2247900Y351300D03*
X2279650Y385300D03*
X2279650Y351300D03*
D31*
X2336800Y317500D03*
D17*
X103389Y472611D02*
X99811Y472611D01*
X99811Y476189D01*
X103389Y476189D01*
X103389Y472611D01*
X103389Y475877D02*
X99811Y475877D01*
X99811Y463611D02*
X103389Y463611D01*
X99811Y463611D02*
X99811Y467189D01*
X103389Y467189D01*
X103389Y463611D01*
X103389Y466877D02*
X99811Y466877D01*
D10*
X927617Y141355D02*
X931795Y145533D01*
X927617Y141355D02*
X923791Y145181D01*
X927969Y149359D01*
X931795Y145533D01*
X931596Y145732D02*
X924342Y145732D01*
X938931Y130041D02*
X943109Y134219D01*
X938931Y130041D02*
X935105Y133867D01*
X939283Y138045D01*
X943109Y134219D01*
X942910Y134418D02*
X935656Y134418D01*
X1751545Y530195D02*
X1751545Y536605D01*
X1756955Y536605D01*
X1756955Y530195D01*
X1751545Y530195D01*
X1751545Y534572D02*
X1756955Y534572D01*
X1735545Y536605D02*
X1735545Y530195D01*
X1735545Y536605D02*
X1740955Y536605D01*
X1740955Y530195D01*
X1735545Y530195D01*
X1735545Y534572D02*
X1740955Y534572D01*
X1370545Y536605D02*
X1370545Y530195D01*
X1370545Y536605D02*
X1375955Y536605D01*
X1375955Y530195D01*
X1370545Y530195D01*
X1370545Y534572D02*
X1375955Y534572D01*
X1354545Y536605D02*
X1354545Y530195D01*
X1354545Y536605D02*
X1359955Y536605D01*
X1359955Y530195D01*
X1354545Y530195D01*
X1354545Y534572D02*
X1359955Y534572D01*
X1516595Y530255D02*
X1516595Y523845D01*
X1516595Y530255D02*
X1522005Y530255D01*
X1522005Y523845D01*
X1516595Y523845D01*
X1516595Y528222D02*
X1522005Y528222D01*
X1500595Y530255D02*
X1500595Y523845D01*
X1500595Y530255D02*
X1506005Y530255D01*
X1506005Y523845D01*
X1500595Y523845D01*
X1500595Y528222D02*
X1506005Y528222D01*
D28*
X191770Y145750D02*
X176530Y145750D01*
X176530Y165750D02*
X191770Y165750D01*
X191770Y185750D02*
X176530Y185750D01*
X176530Y205750D02*
X191770Y205750D01*
X191770Y225750D02*
X176530Y225750D01*
X176530Y245750D02*
X191770Y245750D01*
X191770Y265750D02*
X176530Y265750D01*
X176530Y285750D02*
X191770Y285750D01*
X191770Y305750D02*
X176530Y305750D01*
X176530Y325750D02*
X191770Y325750D01*
X191770Y345750D02*
X176530Y345750D01*
X176530Y365750D02*
X191770Y365750D01*
X191770Y385750D02*
X176530Y385750D01*
X176530Y405750D02*
X191770Y405750D01*
X191770Y425750D02*
X176530Y425750D01*
D32*
X762000Y457200D03*
X787400Y457200D03*
X812800Y457200D03*
X838200Y457200D03*
X863600Y457200D03*
X889000Y457200D03*
X736600Y457200D03*
X914400Y457200D03*
D33*
X1092200Y330200D03*
D16*
X1981200Y336550D03*
X1955800Y336550D03*
X1955800Y234950D03*
X1981200Y234950D03*
D10*
X1984405Y373595D02*
X1977995Y373595D01*
X1977995Y379005D01*
X1984405Y379005D01*
X1984405Y373595D01*
X1984405Y377972D02*
X1977995Y377972D01*
X1977995Y357595D02*
X1984405Y357595D01*
X1977995Y357595D02*
X1977995Y363005D01*
X1984405Y363005D01*
X1984405Y357595D01*
X1984405Y361972D02*
X1977995Y361972D01*
D34*
X2622550Y372700D03*
X2622550Y287700D03*
D10*
X2538945Y269655D02*
X2538945Y263745D01*
X2538945Y269655D02*
X2544355Y269655D01*
X2544355Y263745D01*
X2538945Y263745D01*
X2538945Y268122D02*
X2544355Y268122D01*
X2522945Y269655D02*
X2522945Y263745D01*
X2522945Y269655D02*
X2528355Y269655D01*
X2528355Y263745D01*
X2522945Y263745D01*
X2522945Y268122D02*
X2528355Y268122D01*
D35*
X2461500Y196850D03*
X2491500Y196850D03*
D10*
X2474625Y392215D02*
X2468215Y392215D01*
X2474625Y392215D02*
X2474625Y386805D01*
X2468215Y386805D01*
X2468215Y392215D01*
X2468215Y391182D02*
X2474625Y391182D01*
X2474625Y408215D02*
X2468215Y408215D01*
X2474625Y408215D02*
X2474625Y402805D01*
X2468215Y402805D01*
X2468215Y408215D01*
X2468215Y407182D02*
X2474625Y407182D01*
D33*
X1701800Y330200D03*
D28*
X2101550Y417830D02*
X2101550Y433070D01*
X2121550Y433070D02*
X2121550Y417830D01*
X2141550Y417830D02*
X2141550Y433070D01*
X2161550Y433070D02*
X2161550Y417830D01*
X2181550Y417830D02*
X2181550Y433070D01*
X2201550Y433070D02*
X2201550Y417830D01*
X2221550Y417830D02*
X2221550Y433070D01*
X2241550Y433070D02*
X2241550Y417830D01*
X2261550Y417830D02*
X2261550Y433070D01*
X2281550Y433070D02*
X2281550Y417830D01*
X2301550Y417830D02*
X2301550Y433070D01*
X2321550Y433070D02*
X2321550Y417830D01*
X2341550Y417830D02*
X2341550Y433070D01*
X2361550Y433070D02*
X2361550Y417830D01*
X2381550Y417830D02*
X2381550Y433070D01*
X2101550Y204470D02*
X2101550Y189230D01*
X2121550Y189230D02*
X2121550Y204470D01*
X2141550Y204470D02*
X2141550Y189230D01*
X2161550Y189230D02*
X2161550Y204470D01*
X2181550Y204470D02*
X2181550Y189230D01*
X2201550Y189230D02*
X2201550Y204470D01*
X2221550Y204470D02*
X2221550Y189230D01*
X2241550Y189230D02*
X2241550Y204470D01*
X2261550Y204470D02*
X2261550Y189230D01*
X2281550Y189230D02*
X2281550Y204470D01*
X2301550Y204470D02*
X2301550Y189230D01*
X2321550Y189230D02*
X2321550Y204470D01*
X2341550Y204470D02*
X2341550Y189230D01*
X2361550Y189230D02*
X2361550Y204470D01*
X2381550Y204470D02*
X2381550Y189230D01*
D36*
X2165100Y326250D03*
X2165100Y349250D03*
X2165100Y372250D03*
D37*
X2102100Y349250D03*
D19*
X2192158Y324642D02*
X2202042Y324642D01*
X2202042Y317758D01*
X2192158Y317758D01*
X2192158Y324642D01*
X2192158Y323108D02*
X2202042Y323108D01*
X2202042Y342642D02*
X2192158Y342642D01*
X2202042Y342642D02*
X2202042Y335758D01*
X2192158Y335758D01*
X2192158Y342642D01*
X2192158Y341108D02*
X2202042Y341108D01*
X2234408Y309742D02*
X2234408Y299858D01*
X2234408Y309742D02*
X2241292Y309742D01*
X2241292Y299858D01*
X2234408Y299858D01*
X2234408Y305208D02*
X2241292Y305208D01*
X2216408Y309742D02*
X2216408Y299858D01*
X2216408Y309742D02*
X2223292Y309742D01*
X2223292Y299858D01*
X2216408Y299858D01*
X2216408Y305208D02*
X2223292Y305208D01*
D36*
X2165100Y243700D03*
X2165100Y266700D03*
X2165100Y289700D03*
D37*
X2102100Y266700D03*
D19*
X2234408Y258942D02*
X2234408Y249058D01*
X2234408Y258942D02*
X2241292Y258942D01*
X2241292Y249058D01*
X2234408Y249058D01*
X2234408Y254408D02*
X2241292Y254408D01*
X2216408Y258942D02*
X2216408Y249058D01*
X2216408Y258942D02*
X2223292Y258942D01*
X2223292Y249058D01*
X2216408Y249058D01*
X2216408Y254408D02*
X2223292Y254408D01*
X2234408Y274458D02*
X2234408Y284342D01*
X2241292Y284342D01*
X2241292Y274458D01*
X2234408Y274458D01*
X2234408Y279808D02*
X2241292Y279808D01*
X2216408Y284342D02*
X2216408Y274458D01*
X2216408Y284342D02*
X2223292Y284342D01*
X2223292Y274458D01*
X2216408Y274458D01*
X2216408Y279808D02*
X2223292Y279808D01*
D17*
X2466511Y274839D02*
X2466511Y271261D01*
X2466511Y274839D02*
X2470089Y274839D01*
X2470089Y271261D01*
X2466511Y271261D01*
X2466511Y274527D02*
X2470089Y274527D01*
X2457511Y274839D02*
X2457511Y271261D01*
X2457511Y274839D02*
X2461089Y274839D01*
X2461089Y271261D01*
X2457511Y271261D01*
X2457511Y274527D02*
X2461089Y274527D01*
D38*
X2675890Y237250D03*
X2675890Y207250D03*
X2641600Y237250D03*
X2641600Y207250D03*
D35*
X2580400Y215900D03*
X2550400Y215900D03*
D26*
X1828800Y381000D03*
X1854200Y381000D03*
X1879600Y381000D03*
D17*
X2061961Y200489D02*
X2065539Y200489D01*
X2065539Y196911D01*
X2061961Y196911D01*
X2061961Y200489D01*
X2061961Y200177D02*
X2065539Y200177D01*
X2065539Y209489D02*
X2061961Y209489D01*
X2065539Y209489D02*
X2065539Y205911D01*
X2061961Y205911D01*
X2061961Y209489D01*
X2061961Y209177D02*
X2065539Y209177D01*
X1990261Y141489D02*
X1990261Y137911D01*
X1990261Y141489D02*
X1993839Y141489D01*
X1993839Y137911D01*
X1990261Y137911D01*
X1990261Y141177D02*
X1993839Y141177D01*
X1981261Y141489D02*
X1981261Y137911D01*
X1981261Y141489D02*
X1984839Y141489D01*
X1984839Y137911D01*
X1981261Y137911D01*
X1981261Y141177D02*
X1984839Y141177D01*
D10*
X2562645Y242155D02*
X2562645Y248065D01*
X2562645Y242155D02*
X2557235Y242155D01*
X2557235Y248065D01*
X2562645Y248065D01*
X2562645Y246532D02*
X2557235Y246532D01*
X2578645Y248065D02*
X2578645Y242155D01*
X2573235Y242155D01*
X2573235Y248065D01*
X2578645Y248065D01*
X2578645Y246532D02*
X2573235Y246532D01*
X2608795Y426305D02*
X2608795Y432215D01*
X2614205Y432215D01*
X2614205Y426305D01*
X2608795Y426305D01*
X2608795Y430682D02*
X2614205Y430682D01*
X2592795Y432215D02*
X2592795Y426305D01*
X2592795Y432215D02*
X2598205Y432215D01*
X2598205Y426305D01*
X2592795Y426305D01*
X2592795Y430682D02*
X2598205Y430682D01*
X2411945Y333155D02*
X2411945Y327245D01*
X2411945Y333155D02*
X2417355Y333155D01*
X2417355Y327245D01*
X2411945Y327245D01*
X2411945Y331622D02*
X2417355Y331622D01*
X2395945Y333155D02*
X2395945Y327245D01*
X2395945Y333155D02*
X2401355Y333155D01*
X2401355Y327245D01*
X2395945Y327245D01*
X2395945Y331622D02*
X2401355Y331622D01*
D39*
X2235200Y88900D03*
X2260600Y88900D03*
D40*
X2508250Y144950D03*
X2508250Y70950D03*
X2603500Y164000D03*
X2603500Y90000D03*
D17*
X1908639Y461761D02*
X1908639Y465339D01*
X1908639Y461761D02*
X1905061Y461761D01*
X1905061Y465339D01*
X1908639Y465339D01*
X1908639Y465027D02*
X1905061Y465027D01*
X1917639Y465339D02*
X1917639Y461761D01*
X1914061Y461761D01*
X1914061Y465339D01*
X1917639Y465339D01*
X1917639Y465027D02*
X1914061Y465027D01*
X1798839Y428161D02*
X1795261Y428161D01*
X1795261Y431739D01*
X1798839Y431739D01*
X1798839Y428161D01*
X1798839Y431427D02*
X1795261Y431427D01*
X1795261Y419161D02*
X1798839Y419161D01*
X1795261Y419161D02*
X1795261Y422739D01*
X1798839Y422739D01*
X1798839Y419161D01*
X1798839Y422427D02*
X1795261Y422427D01*
X1801611Y364661D02*
X1805189Y364661D01*
X1801611Y364661D02*
X1801611Y368239D01*
X1805189Y368239D01*
X1805189Y364661D01*
X1805189Y367927D02*
X1801611Y367927D01*
X1801611Y355661D02*
X1805189Y355661D01*
X1801611Y355661D02*
X1801611Y359239D01*
X1805189Y359239D01*
X1805189Y355661D01*
X1805189Y358927D02*
X1801611Y358927D01*
X1914989Y379211D02*
X1914989Y382789D01*
X1914989Y379211D02*
X1911411Y379211D01*
X1911411Y382789D01*
X1914989Y382789D01*
X1914989Y382477D02*
X1911411Y382477D01*
X1923989Y382789D02*
X1923989Y379211D01*
X1920411Y379211D01*
X1920411Y382789D01*
X1923989Y382789D01*
X1923989Y382477D02*
X1920411Y382477D01*
X2447461Y371359D02*
X2447461Y367781D01*
X2447461Y371359D02*
X2451039Y371359D01*
X2451039Y367781D01*
X2447461Y367781D01*
X2447461Y371047D02*
X2451039Y371047D01*
X2438461Y371359D02*
X2438461Y367781D01*
X2438461Y371359D02*
X2442039Y371359D01*
X2442039Y367781D01*
X2438461Y367781D01*
X2438461Y371047D02*
X2442039Y371047D01*
D39*
X2254250Y139700D03*
X2197100Y114300D03*
X2298700Y114300D03*
X2197100Y520700D03*
X2628900Y63500D03*
D32*
X2667000Y101600D03*
X2667000Y127000D03*
X2667000Y152400D03*
X2667000Y177800D03*
M02*
