G04 EAGLE Gerber RS-274X export*
G75*
%MOMM*%
%FSLAX34Y34*%
%LPD*%
%INSoldermask Bottom*%
%IPNEG*%
%AMOC8*
5,1,8,0,0,1.08239X$1,22.5*%
G01*
%ADD10R,1.251600X2.801600*%
%ADD11C,0.343781*%
%ADD12C,0.360766*%
%ADD13R,1.151600X0.601600*%
%ADD14R,1.251600X0.901600*%
%ADD15C,0.563219*%
%ADD16R,0.901600X1.251600*%
%ADD17R,1.351600X2.801600*%
%ADD18C,1.501600*%
%ADD19C,1.422400*%
%ADD20C,1.625600*%
%ADD21C,1.879600*%
%ADD22P,2.034460X8X22.500000*%
%ADD23P,7.093118X8X22.500000*%
%ADD24R,1.901600X1.501600*%
%ADD25C,0.460734*%
%ADD26C,1.625600*%
%ADD27C,0.751600*%
%ADD28R,1.301600X0.901600*%

G36*
X27192Y561020D02*
X27192Y561020D01*
X27235Y561032D01*
X27301Y561039D01*
X28984Y561490D01*
X29025Y561509D01*
X29088Y561528D01*
X30668Y562265D01*
X30705Y562291D01*
X30764Y562320D01*
X32192Y563320D01*
X32223Y563352D01*
X32276Y563391D01*
X33509Y564624D01*
X33534Y564660D01*
X33580Y564708D01*
X34580Y566136D01*
X34598Y566177D01*
X34635Y566232D01*
X35372Y567812D01*
X35383Y567855D01*
X35410Y567916D01*
X35861Y569599D01*
X35863Y569630D01*
X35870Y569652D01*
X35870Y569667D01*
X35880Y569708D01*
X36032Y571445D01*
X36028Y571489D01*
X36032Y571555D01*
X35880Y573292D01*
X35868Y573335D01*
X35861Y573401D01*
X35410Y575084D01*
X35391Y575125D01*
X35372Y575188D01*
X34635Y576768D01*
X34609Y576805D01*
X34580Y576864D01*
X33580Y578292D01*
X33548Y578323D01*
X33509Y578376D01*
X32276Y579609D01*
X32240Y579634D01*
X32192Y579680D01*
X30764Y580680D01*
X30723Y580698D01*
X30668Y580735D01*
X29088Y581472D01*
X29045Y581483D01*
X28984Y581510D01*
X27301Y581961D01*
X27256Y581964D01*
X27192Y581980D01*
X25455Y582132D01*
X25411Y582128D01*
X25345Y582132D01*
X23608Y581980D01*
X23565Y581968D01*
X23499Y581961D01*
X21816Y581510D01*
X21775Y581491D01*
X21712Y581472D01*
X20132Y580735D01*
X20095Y580709D01*
X20036Y580680D01*
X18608Y579680D01*
X18577Y579648D01*
X18524Y579609D01*
X17291Y578376D01*
X17266Y578340D01*
X17220Y578292D01*
X16220Y576864D01*
X16202Y576823D01*
X16165Y576768D01*
X15428Y575188D01*
X15417Y575145D01*
X15390Y575084D01*
X14939Y573401D01*
X14936Y573356D01*
X14920Y573292D01*
X14768Y571555D01*
X14772Y571511D01*
X14768Y571445D01*
X14920Y569708D01*
X14932Y569665D01*
X14936Y569631D01*
X14936Y569615D01*
X14938Y569610D01*
X14939Y569599D01*
X15390Y567916D01*
X15409Y567875D01*
X15428Y567812D01*
X16165Y566232D01*
X16191Y566195D01*
X16220Y566136D01*
X17220Y564708D01*
X17252Y564677D01*
X17291Y564624D01*
X18524Y563391D01*
X18560Y563366D01*
X18608Y563320D01*
X20036Y562320D01*
X20077Y562302D01*
X20132Y562265D01*
X21712Y561528D01*
X21755Y561517D01*
X21816Y561490D01*
X23499Y561039D01*
X23544Y561036D01*
X23608Y561020D01*
X25345Y560868D01*
X25389Y560872D01*
X25455Y560868D01*
X27192Y561020D01*
G37*
G36*
X27192Y14920D02*
X27192Y14920D01*
X27235Y14932D01*
X27301Y14939D01*
X28984Y15390D01*
X29025Y15409D01*
X29088Y15428D01*
X30668Y16165D01*
X30705Y16191D01*
X30764Y16220D01*
X32192Y17220D01*
X32223Y17252D01*
X32276Y17291D01*
X33509Y18524D01*
X33534Y18560D01*
X33580Y18608D01*
X34580Y20036D01*
X34598Y20077D01*
X34635Y20132D01*
X35372Y21712D01*
X35383Y21755D01*
X35410Y21816D01*
X35861Y23499D01*
X35863Y23530D01*
X35870Y23552D01*
X35870Y23567D01*
X35880Y23608D01*
X36032Y25345D01*
X36028Y25389D01*
X36032Y25455D01*
X35880Y27192D01*
X35868Y27235D01*
X35861Y27301D01*
X35410Y28984D01*
X35391Y29025D01*
X35372Y29088D01*
X34635Y30668D01*
X34609Y30705D01*
X34580Y30764D01*
X33580Y32192D01*
X33548Y32223D01*
X33509Y32276D01*
X32276Y33509D01*
X32240Y33534D01*
X32192Y33580D01*
X30764Y34580D01*
X30723Y34598D01*
X30668Y34635D01*
X29088Y35372D01*
X29045Y35383D01*
X28984Y35410D01*
X27301Y35861D01*
X27256Y35864D01*
X27192Y35880D01*
X25455Y36032D01*
X25411Y36028D01*
X25345Y36032D01*
X23608Y35880D01*
X23565Y35868D01*
X23499Y35861D01*
X21816Y35410D01*
X21775Y35391D01*
X21712Y35372D01*
X20132Y34635D01*
X20095Y34609D01*
X20036Y34580D01*
X18608Y33580D01*
X18577Y33548D01*
X18524Y33509D01*
X17291Y32276D01*
X17266Y32240D01*
X17220Y32192D01*
X16220Y30764D01*
X16202Y30723D01*
X16165Y30668D01*
X15428Y29088D01*
X15417Y29045D01*
X15390Y28984D01*
X14939Y27301D01*
X14936Y27256D01*
X14920Y27192D01*
X14768Y25455D01*
X14772Y25411D01*
X14768Y25345D01*
X14920Y23608D01*
X14932Y23565D01*
X14936Y23531D01*
X14936Y23515D01*
X14938Y23510D01*
X14939Y23499D01*
X15390Y21816D01*
X15409Y21775D01*
X15428Y21712D01*
X16165Y20132D01*
X16191Y20095D01*
X16220Y20036D01*
X17220Y18608D01*
X17252Y18577D01*
X17291Y18524D01*
X18524Y17291D01*
X18560Y17266D01*
X18608Y17220D01*
X20036Y16220D01*
X20077Y16202D01*
X20132Y16165D01*
X21712Y15428D01*
X21755Y15417D01*
X21816Y15390D01*
X23499Y14939D01*
X23544Y14936D01*
X23608Y14920D01*
X25345Y14768D01*
X25389Y14772D01*
X25455Y14768D01*
X27192Y14920D01*
G37*
G36*
X2694192Y14920D02*
X2694192Y14920D01*
X2694235Y14932D01*
X2694301Y14939D01*
X2695984Y15390D01*
X2696025Y15409D01*
X2696088Y15428D01*
X2697668Y16165D01*
X2697705Y16191D01*
X2697764Y16220D01*
X2699192Y17220D01*
X2699223Y17252D01*
X2699276Y17291D01*
X2700509Y18524D01*
X2700534Y18560D01*
X2700580Y18608D01*
X2701580Y20036D01*
X2701598Y20077D01*
X2701635Y20132D01*
X2702372Y21712D01*
X2702383Y21755D01*
X2702410Y21816D01*
X2702861Y23499D01*
X2702863Y23530D01*
X2702870Y23552D01*
X2702870Y23567D01*
X2702880Y23608D01*
X2703032Y25345D01*
X2703028Y25389D01*
X2703032Y25455D01*
X2702880Y27192D01*
X2702868Y27235D01*
X2702861Y27301D01*
X2702410Y28984D01*
X2702391Y29025D01*
X2702372Y29088D01*
X2701635Y30668D01*
X2701609Y30705D01*
X2701580Y30764D01*
X2700580Y32192D01*
X2700548Y32223D01*
X2700509Y32276D01*
X2699276Y33509D01*
X2699240Y33534D01*
X2699192Y33580D01*
X2697764Y34580D01*
X2697723Y34598D01*
X2697668Y34635D01*
X2696088Y35372D01*
X2696045Y35383D01*
X2695984Y35410D01*
X2694301Y35861D01*
X2694256Y35864D01*
X2694192Y35880D01*
X2692455Y36032D01*
X2692411Y36028D01*
X2692345Y36032D01*
X2690608Y35880D01*
X2690565Y35868D01*
X2690499Y35861D01*
X2688816Y35410D01*
X2688775Y35391D01*
X2688712Y35372D01*
X2687132Y34635D01*
X2687095Y34609D01*
X2687036Y34580D01*
X2685608Y33580D01*
X2685577Y33548D01*
X2685524Y33509D01*
X2684291Y32276D01*
X2684266Y32240D01*
X2684220Y32192D01*
X2683220Y30764D01*
X2683202Y30723D01*
X2683165Y30668D01*
X2682428Y29088D01*
X2682417Y29045D01*
X2682390Y28984D01*
X2681939Y27301D01*
X2681936Y27256D01*
X2681920Y27192D01*
X2681768Y25455D01*
X2681772Y25411D01*
X2681768Y25345D01*
X2681920Y23608D01*
X2681932Y23565D01*
X2681936Y23531D01*
X2681936Y23515D01*
X2681938Y23510D01*
X2681939Y23499D01*
X2682390Y21816D01*
X2682409Y21775D01*
X2682428Y21712D01*
X2683165Y20132D01*
X2683191Y20095D01*
X2683220Y20036D01*
X2684220Y18608D01*
X2684252Y18577D01*
X2684291Y18524D01*
X2685524Y17291D01*
X2685560Y17266D01*
X2685608Y17220D01*
X2687036Y16220D01*
X2687077Y16202D01*
X2687132Y16165D01*
X2688712Y15428D01*
X2688755Y15417D01*
X2688816Y15390D01*
X2690499Y14939D01*
X2690544Y14936D01*
X2690608Y14920D01*
X2692345Y14768D01*
X2692389Y14772D01*
X2692455Y14768D01*
X2694192Y14920D01*
G37*
D10*
X543800Y234950D03*
X573800Y234950D03*
X650000Y425450D03*
X620000Y425450D03*
X543800Y336550D03*
X573800Y336550D03*
X543800Y279400D03*
X573800Y279400D03*
X543800Y381000D03*
X573800Y381000D03*
X639050Y381000D03*
X669050Y381000D03*
X543800Y425450D03*
X573800Y425450D03*
X284173Y404585D03*
X314173Y404585D03*
X289800Y355600D03*
X319800Y355600D03*
X289800Y311150D03*
X319800Y311150D03*
X289800Y273050D03*
X319800Y273050D03*
X289800Y222250D03*
X319800Y222250D03*
X289800Y184150D03*
X319800Y184150D03*
X289800Y127000D03*
X319800Y127000D03*
D11*
X889638Y301632D02*
X892168Y304162D01*
X894698Y301632D01*
X892168Y299102D01*
X889638Y301632D01*
X890374Y302368D02*
X893962Y302368D01*
X898532Y297798D02*
X896002Y295268D01*
X898532Y297798D02*
X901062Y295268D01*
X898532Y292738D01*
X896002Y295268D01*
X896738Y296004D02*
X900326Y296004D01*
X902338Y314332D02*
X904868Y316862D01*
X907398Y314332D01*
X904868Y311802D01*
X902338Y314332D01*
X903074Y315068D02*
X906662Y315068D01*
X911232Y310498D02*
X908702Y307968D01*
X911232Y310498D02*
X913762Y307968D01*
X911232Y305438D01*
X908702Y307968D01*
X909438Y308704D02*
X913026Y308704D01*
X915038Y327032D02*
X917568Y329562D01*
X920098Y327032D01*
X917568Y324502D01*
X915038Y327032D01*
X915774Y327768D02*
X919362Y327768D01*
X923932Y323198D02*
X921402Y320668D01*
X923932Y323198D02*
X926462Y320668D01*
X923932Y318138D01*
X921402Y320668D01*
X922138Y321404D02*
X925726Y321404D01*
X927738Y339732D02*
X930268Y342262D01*
X932798Y339732D01*
X930268Y337202D01*
X927738Y339732D01*
X928474Y340468D02*
X932062Y340468D01*
X936632Y335898D02*
X934102Y333368D01*
X936632Y335898D02*
X939162Y333368D01*
X936632Y330838D01*
X934102Y333368D01*
X934838Y334104D02*
X938426Y334104D01*
X940438Y352432D02*
X942968Y354962D01*
X945498Y352432D01*
X942968Y349902D01*
X940438Y352432D01*
X941174Y353168D02*
X944762Y353168D01*
X949332Y348598D02*
X946802Y346068D01*
X949332Y348598D02*
X951862Y346068D01*
X949332Y343538D01*
X946802Y346068D01*
X947538Y346804D02*
X951126Y346804D01*
X953138Y365132D02*
X955668Y367662D01*
X958198Y365132D01*
X955668Y362602D01*
X953138Y365132D01*
X953874Y365868D02*
X957462Y365868D01*
X962032Y361298D02*
X959502Y358768D01*
X962032Y361298D02*
X964562Y358768D01*
X962032Y356238D01*
X959502Y358768D01*
X960238Y359504D02*
X963826Y359504D01*
X965838Y377832D02*
X968368Y380362D01*
X970898Y377832D01*
X968368Y375302D01*
X965838Y377832D01*
X966574Y378568D02*
X970162Y378568D01*
X974732Y373998D02*
X972202Y371468D01*
X974732Y373998D02*
X977262Y371468D01*
X974732Y368938D01*
X972202Y371468D01*
X972938Y372204D02*
X976526Y372204D01*
X875662Y320668D02*
X873132Y318138D01*
X870602Y320668D01*
X873132Y323198D01*
X875662Y320668D01*
X874926Y321404D02*
X871338Y321404D01*
X866768Y324502D02*
X869298Y327032D01*
X866768Y324502D02*
X864238Y327032D01*
X866768Y329562D01*
X869298Y327032D01*
X868562Y327768D02*
X864974Y327768D01*
X885832Y330838D02*
X888362Y333368D01*
X885832Y330838D02*
X883302Y333368D01*
X885832Y335898D01*
X888362Y333368D01*
X887626Y334104D02*
X884038Y334104D01*
X879468Y337202D02*
X881998Y339732D01*
X879468Y337202D02*
X876938Y339732D01*
X879468Y342262D01*
X881998Y339732D01*
X881262Y340468D02*
X877674Y340468D01*
X898532Y343538D02*
X901062Y346068D01*
X898532Y343538D02*
X896002Y346068D01*
X898532Y348598D01*
X901062Y346068D01*
X900326Y346804D02*
X896738Y346804D01*
X892168Y349902D02*
X894698Y352432D01*
X892168Y349902D02*
X889638Y352432D01*
X892168Y354962D01*
X894698Y352432D01*
X893962Y353168D02*
X890374Y353168D01*
X911232Y356238D02*
X913762Y358768D01*
X911232Y356238D02*
X908702Y358768D01*
X911232Y361298D01*
X913762Y358768D01*
X913026Y359504D02*
X909438Y359504D01*
X904868Y362602D02*
X907398Y365132D01*
X904868Y362602D02*
X902338Y365132D01*
X904868Y367662D01*
X907398Y365132D01*
X906662Y365868D02*
X903074Y365868D01*
X923932Y368938D02*
X926462Y371468D01*
X923932Y368938D02*
X921402Y371468D01*
X923932Y373998D01*
X926462Y371468D01*
X925726Y372204D02*
X922138Y372204D01*
X917568Y375302D02*
X920098Y377832D01*
X917568Y375302D02*
X915038Y377832D01*
X917568Y380362D01*
X920098Y377832D01*
X919362Y378568D02*
X915774Y378568D01*
X936632Y381638D02*
X939162Y384168D01*
X936632Y381638D02*
X934102Y384168D01*
X936632Y386698D01*
X939162Y384168D01*
X938426Y384904D02*
X934838Y384904D01*
X930268Y388002D02*
X932798Y390532D01*
X930268Y388002D02*
X927738Y390532D01*
X930268Y393062D01*
X932798Y390532D01*
X932062Y391268D02*
X928474Y391268D01*
X949332Y394338D02*
X951862Y396868D01*
X949332Y394338D02*
X946802Y396868D01*
X949332Y399398D01*
X951862Y396868D01*
X951126Y397604D02*
X947538Y397604D01*
X942968Y400702D02*
X945498Y403232D01*
X942968Y400702D02*
X940438Y403232D01*
X942968Y405762D01*
X945498Y403232D01*
X944762Y403968D02*
X941174Y403968D01*
D12*
X771518Y476655D02*
X768755Y479418D01*
X771518Y482181D01*
X774281Y479418D01*
X771518Y476655D01*
X773616Y480083D02*
X769420Y480083D01*
X775119Y485782D02*
X777882Y483019D01*
X775119Y485782D02*
X777882Y488545D01*
X780645Y485782D01*
X777882Y483019D01*
X779980Y486447D02*
X775784Y486447D01*
X794120Y479383D02*
X796883Y476620D01*
X794120Y479383D02*
X796883Y482146D01*
X799646Y479383D01*
X796883Y476620D01*
X798981Y480048D02*
X794785Y480048D01*
X800484Y485747D02*
X803247Y482984D01*
X800484Y485747D02*
X803247Y488510D01*
X806010Y485747D01*
X803247Y482984D01*
X805345Y486412D02*
X801149Y486412D01*
X816017Y478310D02*
X818780Y475547D01*
X816017Y478310D02*
X818780Y481073D01*
X821543Y478310D01*
X818780Y475547D01*
X820878Y478975D02*
X816682Y478975D01*
X822380Y484674D02*
X825143Y481911D01*
X822380Y484674D02*
X825143Y487437D01*
X827906Y484674D01*
X825143Y481911D01*
X827241Y485339D02*
X823045Y485339D01*
X838647Y479446D02*
X841410Y476683D01*
X838647Y479446D02*
X841410Y482209D01*
X844173Y479446D01*
X841410Y476683D01*
X843508Y480111D02*
X839312Y480111D01*
X845011Y485810D02*
X847774Y483047D01*
X845011Y485810D02*
X847774Y488573D01*
X850537Y485810D01*
X847774Y483047D01*
X849872Y486475D02*
X845676Y486475D01*
X864005Y479418D02*
X866768Y476655D01*
X864005Y479418D02*
X866768Y482181D01*
X869531Y479418D01*
X866768Y476655D01*
X868866Y480083D02*
X864670Y480083D01*
X870369Y485782D02*
X873132Y483019D01*
X870369Y485782D02*
X873132Y488545D01*
X875895Y485782D01*
X873132Y483019D01*
X875230Y486447D02*
X871034Y486447D01*
X889405Y479418D02*
X892168Y476655D01*
X889405Y479418D02*
X892168Y482181D01*
X894931Y479418D01*
X892168Y476655D01*
X894266Y480083D02*
X890070Y480083D01*
X895769Y485782D02*
X898532Y483019D01*
X895769Y485782D02*
X898532Y488545D01*
X901295Y485782D01*
X898532Y483019D01*
X900630Y486447D02*
X896434Y486447D01*
X914805Y479418D02*
X917568Y476655D01*
X914805Y479418D02*
X917568Y482181D01*
X920331Y479418D01*
X917568Y476655D01*
X919666Y480083D02*
X915470Y480083D01*
X921169Y485782D02*
X923932Y483019D01*
X921169Y485782D02*
X923932Y488545D01*
X926695Y485782D01*
X923932Y483019D01*
X926030Y486447D02*
X921834Y486447D01*
D13*
X525080Y467360D03*
X501080Y467360D03*
D14*
X480550Y488950D03*
X446550Y488950D03*
X683750Y457200D03*
X649750Y457200D03*
X766300Y368300D03*
X732300Y368300D03*
X700550Y490220D03*
X734550Y490220D03*
D15*
X614542Y495042D02*
X604658Y495042D01*
X614542Y495042D02*
X614542Y488158D01*
X604658Y488158D01*
X604658Y495042D01*
X604658Y493508D02*
X614542Y493508D01*
X614542Y477042D02*
X604658Y477042D01*
X614542Y477042D02*
X614542Y470158D01*
X604658Y470158D01*
X604658Y477042D01*
X604658Y475508D02*
X614542Y475508D01*
D11*
X1795161Y438109D02*
X1798739Y438109D01*
X1798739Y434531D01*
X1795161Y434531D01*
X1795161Y438109D01*
X1795161Y437797D02*
X1798739Y437797D01*
X1798739Y429109D02*
X1795161Y429109D01*
X1798739Y429109D02*
X1798739Y425531D01*
X1795161Y425531D01*
X1795161Y429109D01*
X1795161Y428797D02*
X1798739Y428797D01*
D14*
X1703850Y457200D03*
X1737850Y457200D03*
D16*
X1771650Y421150D03*
X1771650Y455150D03*
D17*
X1259200Y184150D03*
X1306200Y184150D03*
D18*
X1828800Y457200D03*
X1854200Y457200D03*
X1879600Y457200D03*
D19*
X1866900Y235204D02*
X1866900Y221996D01*
X1841500Y221996D02*
X1841500Y235204D01*
X1866900Y298196D02*
X1866900Y311404D01*
X1841500Y311404D02*
X1841500Y298196D01*
D11*
X1877811Y279339D02*
X1881389Y279339D01*
X1881389Y275761D01*
X1877811Y275761D01*
X1877811Y279339D01*
X1877811Y279027D02*
X1881389Y279027D01*
X1881389Y270339D02*
X1877811Y270339D01*
X1881389Y270339D02*
X1881389Y266761D01*
X1877811Y266761D01*
X1877811Y270339D01*
X1877811Y270027D02*
X1881389Y270027D01*
X1892361Y243089D02*
X1892361Y239511D01*
X1892361Y243089D02*
X1895939Y243089D01*
X1895939Y239511D01*
X1892361Y239511D01*
X1892361Y242777D02*
X1895939Y242777D01*
X1901361Y243089D02*
X1901361Y239511D01*
X1901361Y243089D02*
X1904939Y243089D01*
X1904939Y239511D01*
X1901361Y239511D01*
X1901361Y242777D02*
X1904939Y242777D01*
D20*
X1831413Y136892D02*
X1831413Y121652D01*
X1856813Y119112D02*
X1856813Y134352D01*
X1882213Y136892D02*
X1882213Y121652D01*
X1907613Y119112D02*
X1907613Y134352D01*
D21*
X2336800Y317500D03*
D14*
X677400Y482600D03*
X643400Y482600D03*
D20*
X191770Y145750D02*
X176530Y145750D01*
X176530Y165750D02*
X191770Y165750D01*
X191770Y185750D02*
X176530Y185750D01*
X176530Y205750D02*
X191770Y205750D01*
X191770Y225750D02*
X176530Y225750D01*
X176530Y245750D02*
X191770Y245750D01*
X191770Y265750D02*
X176530Y265750D01*
X176530Y285750D02*
X191770Y285750D01*
X191770Y305750D02*
X176530Y305750D01*
X176530Y325750D02*
X191770Y325750D01*
X191770Y345750D02*
X176530Y345750D01*
X176530Y365750D02*
X191770Y365750D01*
X191770Y385750D02*
X176530Y385750D01*
X176530Y405750D02*
X191770Y405750D01*
X191770Y425750D02*
X176530Y425750D01*
D22*
X762000Y457200D03*
X787400Y457200D03*
X812800Y457200D03*
X838200Y457200D03*
X863600Y457200D03*
X889000Y457200D03*
X736600Y457200D03*
X914400Y457200D03*
D23*
X1092200Y330200D03*
D24*
X2070100Y273050D03*
X2070100Y298450D03*
X2171700Y298450D03*
X2171700Y273050D03*
D25*
X2046730Y244831D02*
X2046730Y238421D01*
X2046730Y244831D02*
X2052140Y244831D01*
X2052140Y238421D01*
X2046730Y238421D01*
X2046730Y242798D02*
X2052140Y242798D01*
X2062730Y244831D02*
X2062730Y238421D01*
X2062730Y244831D02*
X2068140Y244831D01*
X2068140Y238421D01*
X2062730Y238421D01*
X2062730Y242798D02*
X2068140Y242798D01*
D16*
X2025650Y262400D03*
X2025650Y296400D03*
D23*
X1701800Y330200D03*
D20*
X2101550Y417830D02*
X2101550Y433070D01*
X2121550Y433070D02*
X2121550Y417830D01*
X2141550Y417830D02*
X2141550Y433070D01*
X2161550Y433070D02*
X2161550Y417830D01*
X2181550Y417830D02*
X2181550Y433070D01*
X2201550Y433070D02*
X2201550Y417830D01*
X2221550Y417830D02*
X2221550Y433070D01*
X2241550Y433070D02*
X2241550Y417830D01*
X2261550Y417830D02*
X2261550Y433070D01*
X2281550Y433070D02*
X2281550Y417830D01*
X2301550Y417830D02*
X2301550Y433070D01*
X2321550Y433070D02*
X2321550Y417830D01*
X2341550Y417830D02*
X2341550Y433070D01*
X2361550Y433070D02*
X2361550Y417830D01*
X2381550Y417830D02*
X2381550Y433070D01*
X2101550Y204470D02*
X2101550Y189230D01*
X2121550Y189230D02*
X2121550Y204470D01*
X2141550Y204470D02*
X2141550Y189230D01*
X2161550Y189230D02*
X2161550Y204470D01*
X2181550Y204470D02*
X2181550Y189230D01*
X2201550Y189230D02*
X2201550Y204470D01*
X2221550Y204470D02*
X2221550Y189230D01*
X2241550Y189230D02*
X2241550Y204470D01*
X2261550Y204470D02*
X2261550Y189230D01*
X2281550Y189230D02*
X2281550Y204470D01*
X2301550Y204470D02*
X2301550Y189230D01*
X2321550Y189230D02*
X2321550Y204470D01*
X2341550Y204470D02*
X2341550Y189230D01*
X2361550Y189230D02*
X2361550Y204470D01*
X2381550Y204470D02*
X2381550Y189230D01*
D18*
X1828800Y381000D03*
X1854200Y381000D03*
X1879600Y381000D03*
D26*
X2235200Y88900D03*
X2260600Y88900D03*
D27*
X1932950Y454000D02*
X1925450Y454000D01*
X1925450Y435000D02*
X1932950Y435000D01*
X1909950Y444500D02*
X1902450Y444500D01*
X1925450Y415900D02*
X1932950Y415900D01*
X1932950Y396900D02*
X1925450Y396900D01*
X1909950Y406400D02*
X1902450Y406400D01*
X1925450Y327000D02*
X1932950Y327000D01*
X1932950Y308000D02*
X1925450Y308000D01*
X1909950Y317500D02*
X1902450Y317500D01*
X1925450Y371450D02*
X1932950Y371450D01*
X1932950Y352450D02*
X1925450Y352450D01*
X1909950Y361950D02*
X1902450Y361950D01*
X1925450Y282550D02*
X1932950Y282550D01*
X1932950Y263550D02*
X1925450Y263550D01*
X1909950Y273050D02*
X1902450Y273050D01*
X1782950Y238150D02*
X1775450Y238150D01*
X1775450Y257150D02*
X1782950Y257150D01*
X1798450Y247650D02*
X1805950Y247650D01*
D11*
X1962211Y455411D02*
X1962211Y458989D01*
X1965789Y458989D01*
X1965789Y455411D01*
X1962211Y455411D01*
X1962211Y458677D02*
X1965789Y458677D01*
X1971211Y458989D02*
X1971211Y455411D01*
X1971211Y458989D02*
X1974789Y458989D01*
X1974789Y455411D01*
X1971211Y455411D01*
X1971211Y458677D02*
X1974789Y458677D01*
X1962211Y420889D02*
X1962211Y417311D01*
X1962211Y420889D02*
X1965789Y420889D01*
X1965789Y417311D01*
X1962211Y417311D01*
X1962211Y420577D02*
X1965789Y420577D01*
X1971211Y420889D02*
X1971211Y417311D01*
X1971211Y420889D02*
X1974789Y420889D01*
X1974789Y417311D01*
X1971211Y417311D01*
X1971211Y420577D02*
X1974789Y420577D01*
X1962211Y376439D02*
X1962211Y372861D01*
X1962211Y376439D02*
X1965789Y376439D01*
X1965789Y372861D01*
X1962211Y372861D01*
X1962211Y376127D02*
X1965789Y376127D01*
X1971211Y376439D02*
X1971211Y372861D01*
X1971211Y376439D02*
X1974789Y376439D01*
X1974789Y372861D01*
X1971211Y372861D01*
X1971211Y376127D02*
X1974789Y376127D01*
X1962211Y331989D02*
X1962211Y328411D01*
X1962211Y331989D02*
X1965789Y331989D01*
X1965789Y328411D01*
X1962211Y328411D01*
X1962211Y331677D02*
X1965789Y331677D01*
X1971211Y331989D02*
X1971211Y328411D01*
X1971211Y331989D02*
X1974789Y331989D01*
X1974789Y328411D01*
X1971211Y328411D01*
X1971211Y331677D02*
X1974789Y331677D01*
X1957589Y285811D02*
X1954011Y285811D01*
X1954011Y289389D01*
X1957589Y289389D01*
X1957589Y285811D01*
X1957589Y289077D02*
X1954011Y289077D01*
X1954011Y294811D02*
X1957589Y294811D01*
X1954011Y294811D02*
X1954011Y298389D01*
X1957589Y298389D01*
X1957589Y294811D01*
X1957589Y298077D02*
X1954011Y298077D01*
X1790761Y341111D02*
X1790761Y344689D01*
X1794339Y344689D01*
X1794339Y341111D01*
X1790761Y341111D01*
X1790761Y344377D02*
X1794339Y344377D01*
X1799761Y344689D02*
X1799761Y341111D01*
X1799761Y344689D02*
X1803339Y344689D01*
X1803339Y341111D01*
X1799761Y341111D01*
X1799761Y344377D02*
X1803339Y344377D01*
D28*
X1232150Y501650D03*
X1232150Y514350D03*
X1232150Y488950D03*
X1295150Y514350D03*
X1295150Y488950D03*
X1606800Y508000D03*
X1606800Y520700D03*
X1606800Y495300D03*
X1669800Y520700D03*
X1669800Y495300D03*
X1390900Y508000D03*
X1390900Y520700D03*
X1390900Y495300D03*
X1453900Y520700D03*
X1453900Y495300D03*
D25*
X2049055Y327055D02*
X2049055Y320645D01*
X2043645Y320645D01*
X2043645Y327055D01*
X2049055Y327055D01*
X2049055Y325022D02*
X2043645Y325022D01*
X2033055Y327055D02*
X2033055Y320645D01*
X2027645Y320645D01*
X2027645Y327055D01*
X2033055Y327055D01*
X2033055Y325022D02*
X2027645Y325022D01*
D22*
X2667000Y101600D03*
X2667000Y127000D03*
X2667000Y152400D03*
X2667000Y177800D03*
M02*
