G04 EAGLE Gerber RS-274X export*
G75*
%MOMM*%
%FSLAX34Y34*%
%LPD*%
%INSolderpaste Bottom*%
%IPPOS*%
%AMOC8*
5,1,8,0,0,1.08239X$1,22.5*%
G01*
%ADD10R,1.150000X2.700000*%
%ADD11C,0.240000*%
%ADD12C,0.260000*%
%ADD13R,1.050000X0.500000*%
%ADD14R,1.150000X0.800000*%
%ADD15C,0.460000*%
%ADD16R,0.800000X1.150000*%
%ADD17R,1.800000X1.400000*%
%ADD18C,0.650000*%
%ADD19R,1.200000X0.800000*%


D10*
X543800Y234950D03*
X573800Y234950D03*
X650000Y425450D03*
X620000Y425450D03*
X543800Y336550D03*
X573800Y336550D03*
X543800Y279400D03*
X573800Y279400D03*
X543800Y381000D03*
X573800Y381000D03*
X639050Y381000D03*
X669050Y381000D03*
X543800Y425450D03*
X573800Y425450D03*
X284173Y404585D03*
X314173Y404585D03*
X289800Y355600D03*
X319800Y355600D03*
X289800Y311150D03*
X319800Y311150D03*
X289800Y273050D03*
X319800Y273050D03*
X289800Y222250D03*
X319800Y222250D03*
X289800Y184150D03*
X319800Y184150D03*
X289800Y127000D03*
X319800Y127000D03*
D11*
X889623Y301632D02*
X892168Y304177D01*
X894713Y301632D01*
X892168Y299087D01*
X889623Y301632D01*
X889888Y301367D02*
X894448Y301367D01*
X892698Y303647D02*
X891638Y303647D01*
X898532Y297813D02*
X895987Y295268D01*
X898532Y297813D02*
X901077Y295268D01*
X898532Y292723D01*
X895987Y295268D01*
X896252Y295003D02*
X900812Y295003D01*
X899062Y297283D02*
X898002Y297283D01*
X902323Y314332D02*
X904868Y316877D01*
X907413Y314332D01*
X904868Y311787D01*
X902323Y314332D01*
X902588Y314067D02*
X907148Y314067D01*
X905398Y316347D02*
X904338Y316347D01*
X911232Y310513D02*
X908687Y307968D01*
X911232Y310513D02*
X913777Y307968D01*
X911232Y305423D01*
X908687Y307968D01*
X908952Y307703D02*
X913512Y307703D01*
X911762Y309983D02*
X910702Y309983D01*
X915023Y327032D02*
X917568Y329577D01*
X920113Y327032D01*
X917568Y324487D01*
X915023Y327032D01*
X915288Y326767D02*
X919848Y326767D01*
X918098Y329047D02*
X917038Y329047D01*
X923932Y323213D02*
X921387Y320668D01*
X923932Y323213D02*
X926477Y320668D01*
X923932Y318123D01*
X921387Y320668D01*
X921652Y320403D02*
X926212Y320403D01*
X924462Y322683D02*
X923402Y322683D01*
X927723Y339732D02*
X930268Y342277D01*
X932813Y339732D01*
X930268Y337187D01*
X927723Y339732D01*
X927988Y339467D02*
X932548Y339467D01*
X930798Y341747D02*
X929738Y341747D01*
X936632Y335913D02*
X934087Y333368D01*
X936632Y335913D02*
X939177Y333368D01*
X936632Y330823D01*
X934087Y333368D01*
X934352Y333103D02*
X938912Y333103D01*
X937162Y335383D02*
X936102Y335383D01*
X940423Y352432D02*
X942968Y354977D01*
X945513Y352432D01*
X942968Y349887D01*
X940423Y352432D01*
X940688Y352167D02*
X945248Y352167D01*
X943498Y354447D02*
X942438Y354447D01*
X949332Y348613D02*
X946787Y346068D01*
X949332Y348613D02*
X951877Y346068D01*
X949332Y343523D01*
X946787Y346068D01*
X947052Y345803D02*
X951612Y345803D01*
X949862Y348083D02*
X948802Y348083D01*
X953123Y365132D02*
X955668Y367677D01*
X958213Y365132D01*
X955668Y362587D01*
X953123Y365132D01*
X953388Y364867D02*
X957948Y364867D01*
X956198Y367147D02*
X955138Y367147D01*
X962032Y361313D02*
X959487Y358768D01*
X962032Y361313D02*
X964577Y358768D01*
X962032Y356223D01*
X959487Y358768D01*
X959752Y358503D02*
X964312Y358503D01*
X962562Y360783D02*
X961502Y360783D01*
X965823Y377832D02*
X968368Y380377D01*
X970913Y377832D01*
X968368Y375287D01*
X965823Y377832D01*
X966088Y377567D02*
X970648Y377567D01*
X968898Y379847D02*
X967838Y379847D01*
X974732Y374013D02*
X972187Y371468D01*
X974732Y374013D02*
X977277Y371468D01*
X974732Y368923D01*
X972187Y371468D01*
X972452Y371203D02*
X977012Y371203D01*
X975262Y373483D02*
X974202Y373483D01*
X875677Y320668D02*
X873132Y318123D01*
X870587Y320668D01*
X873132Y323213D01*
X875677Y320668D01*
X875412Y320403D02*
X870852Y320403D01*
X872602Y322683D02*
X873662Y322683D01*
X869313Y327032D02*
X866768Y324487D01*
X864223Y327032D01*
X866768Y329577D01*
X869313Y327032D01*
X869048Y326767D02*
X864488Y326767D01*
X866238Y329047D02*
X867298Y329047D01*
X885832Y330823D02*
X888377Y333368D01*
X885832Y330823D02*
X883287Y333368D01*
X885832Y335913D01*
X888377Y333368D01*
X888112Y333103D02*
X883552Y333103D01*
X885302Y335383D02*
X886362Y335383D01*
X882013Y339732D02*
X879468Y337187D01*
X876923Y339732D01*
X879468Y342277D01*
X882013Y339732D01*
X881748Y339467D02*
X877188Y339467D01*
X878938Y341747D02*
X879998Y341747D01*
X898532Y343523D02*
X901077Y346068D01*
X898532Y343523D02*
X895987Y346068D01*
X898532Y348613D01*
X901077Y346068D01*
X900812Y345803D02*
X896252Y345803D01*
X898002Y348083D02*
X899062Y348083D01*
X894713Y352432D02*
X892168Y349887D01*
X889623Y352432D01*
X892168Y354977D01*
X894713Y352432D01*
X894448Y352167D02*
X889888Y352167D01*
X891638Y354447D02*
X892698Y354447D01*
X911232Y356223D02*
X913777Y358768D01*
X911232Y356223D02*
X908687Y358768D01*
X911232Y361313D01*
X913777Y358768D01*
X913512Y358503D02*
X908952Y358503D01*
X910702Y360783D02*
X911762Y360783D01*
X907413Y365132D02*
X904868Y362587D01*
X902323Y365132D01*
X904868Y367677D01*
X907413Y365132D01*
X907148Y364867D02*
X902588Y364867D01*
X904338Y367147D02*
X905398Y367147D01*
X923932Y368923D02*
X926477Y371468D01*
X923932Y368923D02*
X921387Y371468D01*
X923932Y374013D01*
X926477Y371468D01*
X926212Y371203D02*
X921652Y371203D01*
X923402Y373483D02*
X924462Y373483D01*
X920113Y377832D02*
X917568Y375287D01*
X915023Y377832D01*
X917568Y380377D01*
X920113Y377832D01*
X919848Y377567D02*
X915288Y377567D01*
X917038Y379847D02*
X918098Y379847D01*
X936632Y381623D02*
X939177Y384168D01*
X936632Y381623D02*
X934087Y384168D01*
X936632Y386713D01*
X939177Y384168D01*
X938912Y383903D02*
X934352Y383903D01*
X936102Y386183D02*
X937162Y386183D01*
X932813Y390532D02*
X930268Y387987D01*
X927723Y390532D01*
X930268Y393077D01*
X932813Y390532D01*
X932548Y390267D02*
X927988Y390267D01*
X929738Y392547D02*
X930798Y392547D01*
X949332Y394323D02*
X951877Y396868D01*
X949332Y394323D02*
X946787Y396868D01*
X949332Y399413D01*
X951877Y396868D01*
X951612Y396603D02*
X947052Y396603D01*
X948802Y398883D02*
X949862Y398883D01*
X945513Y403232D02*
X942968Y400687D01*
X940423Y403232D01*
X942968Y405777D01*
X945513Y403232D01*
X945248Y402967D02*
X940688Y402967D01*
X942438Y405247D02*
X943498Y405247D01*
D12*
X771518Y476661D02*
X768761Y479418D01*
X771518Y482175D01*
X774275Y479418D01*
X771518Y476661D01*
X773988Y479131D02*
X769048Y479131D01*
X770944Y481601D02*
X772092Y481601D01*
X775125Y485782D02*
X777882Y483025D01*
X775125Y485782D02*
X777882Y488539D01*
X780639Y485782D01*
X777882Y483025D01*
X780352Y485495D02*
X775412Y485495D01*
X777308Y487965D02*
X778456Y487965D01*
X794126Y479383D02*
X796883Y476626D01*
X794126Y479383D02*
X796883Y482140D01*
X799640Y479383D01*
X796883Y476626D01*
X799353Y479096D02*
X794413Y479096D01*
X796309Y481566D02*
X797457Y481566D01*
X800490Y485747D02*
X803247Y482990D01*
X800490Y485747D02*
X803247Y488504D01*
X806004Y485747D01*
X803247Y482990D01*
X805717Y485460D02*
X800777Y485460D01*
X802673Y487930D02*
X803821Y487930D01*
X816023Y478310D02*
X818780Y475553D01*
X816023Y478310D02*
X818780Y481067D01*
X821537Y478310D01*
X818780Y475553D01*
X821250Y478023D02*
X816310Y478023D01*
X818206Y480493D02*
X819354Y480493D01*
X822386Y484674D02*
X825143Y481917D01*
X822386Y484674D02*
X825143Y487431D01*
X827900Y484674D01*
X825143Y481917D01*
X827613Y484387D02*
X822673Y484387D01*
X824569Y486857D02*
X825717Y486857D01*
X838653Y479446D02*
X841410Y476689D01*
X838653Y479446D02*
X841410Y482203D01*
X844167Y479446D01*
X841410Y476689D01*
X843880Y479159D02*
X838940Y479159D01*
X840836Y481629D02*
X841984Y481629D01*
X845017Y485810D02*
X847774Y483053D01*
X845017Y485810D02*
X847774Y488567D01*
X850531Y485810D01*
X847774Y483053D01*
X850244Y485523D02*
X845304Y485523D01*
X847200Y487993D02*
X848348Y487993D01*
X864011Y479418D02*
X866768Y476661D01*
X864011Y479418D02*
X866768Y482175D01*
X869525Y479418D01*
X866768Y476661D01*
X869238Y479131D02*
X864298Y479131D01*
X866194Y481601D02*
X867342Y481601D01*
X870375Y485782D02*
X873132Y483025D01*
X870375Y485782D02*
X873132Y488539D01*
X875889Y485782D01*
X873132Y483025D01*
X875602Y485495D02*
X870662Y485495D01*
X872558Y487965D02*
X873706Y487965D01*
X889411Y479418D02*
X892168Y476661D01*
X889411Y479418D02*
X892168Y482175D01*
X894925Y479418D01*
X892168Y476661D01*
X894638Y479131D02*
X889698Y479131D01*
X891594Y481601D02*
X892742Y481601D01*
X895775Y485782D02*
X898532Y483025D01*
X895775Y485782D02*
X898532Y488539D01*
X901289Y485782D01*
X898532Y483025D01*
X901002Y485495D02*
X896062Y485495D01*
X897958Y487965D02*
X899106Y487965D01*
X914811Y479418D02*
X917568Y476661D01*
X914811Y479418D02*
X917568Y482175D01*
X920325Y479418D01*
X917568Y476661D01*
X920038Y479131D02*
X915098Y479131D01*
X916994Y481601D02*
X918142Y481601D01*
X921175Y485782D02*
X923932Y483025D01*
X921175Y485782D02*
X923932Y488539D01*
X926689Y485782D01*
X923932Y483025D01*
X926402Y485495D02*
X921462Y485495D01*
X923358Y487965D02*
X924506Y487965D01*
D13*
X525080Y467360D03*
X501080Y467360D03*
D14*
X480550Y488950D03*
X446550Y488950D03*
X683750Y457200D03*
X649750Y457200D03*
X766300Y368300D03*
X732300Y368300D03*
X700550Y490220D03*
X734550Y490220D03*
D15*
X614550Y495050D02*
X604650Y495050D01*
X614550Y495050D02*
X614550Y488150D01*
X604650Y488150D01*
X604650Y495050D01*
X604650Y492520D02*
X614550Y492520D01*
X614550Y477050D02*
X604650Y477050D01*
X614550Y477050D02*
X614550Y470150D01*
X604650Y470150D01*
X604650Y477050D01*
X604650Y474520D02*
X614550Y474520D01*
D11*
X1795150Y438120D02*
X1798750Y438120D01*
X1798750Y434520D01*
X1795150Y434520D01*
X1795150Y438120D01*
X1795150Y436800D02*
X1798750Y436800D01*
X1798750Y429120D02*
X1795150Y429120D01*
X1798750Y429120D02*
X1798750Y425520D01*
X1795150Y425520D01*
X1795150Y429120D01*
X1795150Y427800D02*
X1798750Y427800D01*
D14*
X1703850Y457200D03*
X1737850Y457200D03*
D16*
X1771650Y421150D03*
X1771650Y455150D03*
D11*
X1877800Y279350D02*
X1881400Y279350D01*
X1881400Y275750D01*
X1877800Y275750D01*
X1877800Y279350D01*
X1877800Y278030D02*
X1881400Y278030D01*
X1881400Y270350D02*
X1877800Y270350D01*
X1881400Y270350D02*
X1881400Y266750D01*
X1877800Y266750D01*
X1877800Y270350D01*
X1877800Y269030D02*
X1881400Y269030D01*
X1892350Y243100D02*
X1892350Y239500D01*
X1892350Y243100D02*
X1895950Y243100D01*
X1895950Y239500D01*
X1892350Y239500D01*
X1892350Y241780D02*
X1895950Y241780D01*
X1901350Y243100D02*
X1901350Y239500D01*
X1901350Y243100D02*
X1904950Y243100D01*
X1904950Y239500D01*
X1901350Y239500D01*
X1901350Y241780D02*
X1904950Y241780D01*
D14*
X677400Y482600D03*
X643400Y482600D03*
D17*
X2070100Y273050D03*
X2070100Y298450D03*
X2171700Y298450D03*
X2171700Y273050D03*
D11*
X2044785Y249776D02*
X2044785Y246176D01*
X2044785Y249776D02*
X2048385Y249776D01*
X2048385Y246176D01*
X2044785Y246176D01*
X2044785Y248456D02*
X2048385Y248456D01*
X2053785Y249776D02*
X2053785Y246176D01*
X2053785Y249776D02*
X2057385Y249776D01*
X2057385Y246176D01*
X2053785Y246176D01*
X2053785Y248456D02*
X2057385Y248456D01*
D16*
X2025650Y262400D03*
X2025650Y296400D03*
D18*
X1932950Y454000D02*
X1925450Y454000D01*
X1925450Y435000D02*
X1932950Y435000D01*
X1909950Y444500D02*
X1902450Y444500D01*
X1925450Y415900D02*
X1932950Y415900D01*
X1932950Y396900D02*
X1925450Y396900D01*
X1909950Y406400D02*
X1902450Y406400D01*
X1925450Y327000D02*
X1932950Y327000D01*
X1932950Y308000D02*
X1925450Y308000D01*
X1909950Y317500D02*
X1902450Y317500D01*
X1925450Y371450D02*
X1932950Y371450D01*
X1932950Y352450D02*
X1925450Y352450D01*
X1909950Y361950D02*
X1902450Y361950D01*
X1925450Y282550D02*
X1932950Y282550D01*
X1932950Y263550D02*
X1925450Y263550D01*
X1909950Y273050D02*
X1902450Y273050D01*
X1782950Y238150D02*
X1775450Y238150D01*
X1775450Y257150D02*
X1782950Y257150D01*
X1798450Y247650D02*
X1805950Y247650D01*
D11*
X1962200Y455400D02*
X1962200Y459000D01*
X1965800Y459000D01*
X1965800Y455400D01*
X1962200Y455400D01*
X1962200Y457680D02*
X1965800Y457680D01*
X1971200Y459000D02*
X1971200Y455400D01*
X1971200Y459000D02*
X1974800Y459000D01*
X1974800Y455400D01*
X1971200Y455400D01*
X1971200Y457680D02*
X1974800Y457680D01*
X1962200Y420900D02*
X1962200Y417300D01*
X1962200Y420900D02*
X1965800Y420900D01*
X1965800Y417300D01*
X1962200Y417300D01*
X1962200Y419580D02*
X1965800Y419580D01*
X1971200Y420900D02*
X1971200Y417300D01*
X1971200Y420900D02*
X1974800Y420900D01*
X1974800Y417300D01*
X1971200Y417300D01*
X1971200Y419580D02*
X1974800Y419580D01*
X1962200Y376450D02*
X1962200Y372850D01*
X1962200Y376450D02*
X1965800Y376450D01*
X1965800Y372850D01*
X1962200Y372850D01*
X1962200Y375130D02*
X1965800Y375130D01*
X1971200Y376450D02*
X1971200Y372850D01*
X1971200Y376450D02*
X1974800Y376450D01*
X1974800Y372850D01*
X1971200Y372850D01*
X1971200Y375130D02*
X1974800Y375130D01*
X1962200Y332000D02*
X1962200Y328400D01*
X1962200Y332000D02*
X1965800Y332000D01*
X1965800Y328400D01*
X1962200Y328400D01*
X1962200Y330680D02*
X1965800Y330680D01*
X1971200Y332000D02*
X1971200Y328400D01*
X1971200Y332000D02*
X1974800Y332000D01*
X1974800Y328400D01*
X1971200Y328400D01*
X1971200Y330680D02*
X1974800Y330680D01*
X1957600Y285800D02*
X1954000Y285800D01*
X1954000Y289400D01*
X1957600Y289400D01*
X1957600Y285800D01*
X1957600Y288080D02*
X1954000Y288080D01*
X1954000Y294800D02*
X1957600Y294800D01*
X1954000Y294800D02*
X1954000Y298400D01*
X1957600Y298400D01*
X1957600Y294800D01*
X1957600Y297080D02*
X1954000Y297080D01*
X1790750Y341100D02*
X1790750Y344700D01*
X1794350Y344700D01*
X1794350Y341100D01*
X1790750Y341100D01*
X1790750Y343380D02*
X1794350Y343380D01*
X1799750Y344700D02*
X1799750Y341100D01*
X1799750Y344700D02*
X1803350Y344700D01*
X1803350Y341100D01*
X1799750Y341100D01*
X1799750Y343380D02*
X1803350Y343380D01*
D19*
X1232150Y501650D03*
X1232150Y514350D03*
X1232150Y488950D03*
X1295150Y514350D03*
X1295150Y488950D03*
X1606800Y508000D03*
X1606800Y520700D03*
X1606800Y495300D03*
X1669800Y520700D03*
X1669800Y495300D03*
X1390900Y508000D03*
X1390900Y520700D03*
X1390900Y495300D03*
X1453900Y520700D03*
X1453900Y495300D03*
D11*
X2031950Y319300D02*
X2031950Y315700D01*
X2028350Y315700D01*
X2028350Y319300D01*
X2031950Y319300D01*
X2031950Y317980D02*
X2028350Y317980D01*
X2022950Y319300D02*
X2022950Y315700D01*
X2019350Y315700D01*
X2019350Y319300D01*
X2022950Y319300D01*
X2022950Y317980D02*
X2019350Y317980D01*
M02*
