G04 EAGLE Gerber RS-274X export*
G75*
%MOMM*%
%FSLAX34Y34*%
%LPD*%
%INSoldermask Top*%
%IPNEG*%
%AMOC8*
5,1,8,0,0,1.08239X$1,22.5*%
G01*
%ADD10C,0.460734*%
%ADD11R,1.251600X1.751600*%
%ADD12C,0.360766*%
%ADD13R,10.101600X10.101600*%
%ADD14R,1.651600X0.401600*%
%ADD15R,6.201600X6.201600*%
%ADD16R,1.501600X1.901600*%
%ADD17C,0.343781*%
%ADD18R,1.251600X0.901600*%
%ADD19C,0.451600*%
%ADD20R,2.461600X4.951600*%
%ADD21C,0.563219*%
%ADD22R,0.901600X1.001600*%
%ADD23R,2.901600X0.901600*%
%ADD24C,0.224509*%
%ADD25R,2.801600X1.134600*%
%ADD26R,2.801600X2.167600*%
%ADD27C,1.501600*%
%ADD28C,1.422400*%
%ADD29C,1.625600*%
%ADD30R,1.151600X0.601600*%
%ADD31R,0.901600X1.251600*%
%ADD32C,1.879600*%
%ADD33C,1.609600*%
%ADD34P,2.034460X8X22.500000*%
%ADD35P,4.980726X8X22.500000*%
%ADD36R,5.601600X4.101600*%
%ADD37R,1.251600X2.801600*%
%ADD38R,2.101600X1.601600*%
%ADD39R,2.101600X3.901600*%
%ADD40C,1.625600*%
%ADD41R,1.701600X2.651600*%

G36*
X1450804Y349549D02*
X1450804Y349549D01*
X1450804Y349550D01*
X1450804Y450550D01*
X1450801Y450554D01*
X1450800Y450554D01*
X1436800Y450554D01*
X1436796Y450551D01*
X1436796Y450550D01*
X1436796Y443554D01*
X1407804Y443554D01*
X1407804Y450050D01*
X1407801Y450054D01*
X1407800Y450054D01*
X1370800Y450054D01*
X1370796Y450051D01*
X1370796Y450050D01*
X1370796Y350050D01*
X1370799Y350046D01*
X1370800Y350046D01*
X1407800Y350046D01*
X1407804Y350049D01*
X1407804Y350050D01*
X1407804Y356546D01*
X1436796Y356546D01*
X1436796Y349550D01*
X1436799Y349546D01*
X1436800Y349546D01*
X1450800Y349546D01*
X1450804Y349549D01*
G37*
G36*
X1509604Y349549D02*
X1509604Y349549D01*
X1509604Y349550D01*
X1509604Y356546D01*
X1538596Y356546D01*
X1538596Y350050D01*
X1538599Y350046D01*
X1538600Y350046D01*
X1575600Y350046D01*
X1575604Y350049D01*
X1575604Y350050D01*
X1575604Y450050D01*
X1575601Y450054D01*
X1575600Y450054D01*
X1538600Y450054D01*
X1538596Y450051D01*
X1538596Y450050D01*
X1538596Y443554D01*
X1509604Y443554D01*
X1509604Y450550D01*
X1509601Y450554D01*
X1509600Y450554D01*
X1495600Y450554D01*
X1495596Y450551D01*
X1495596Y450550D01*
X1495596Y349550D01*
X1495599Y349546D01*
X1495600Y349546D01*
X1509600Y349546D01*
X1509604Y349549D01*
G37*
G36*
X1450804Y222549D02*
X1450804Y222549D01*
X1450804Y222550D01*
X1450804Y323550D01*
X1450801Y323554D01*
X1450800Y323554D01*
X1436800Y323554D01*
X1436796Y323551D01*
X1436796Y323550D01*
X1436796Y316554D01*
X1407804Y316554D01*
X1407804Y323050D01*
X1407801Y323054D01*
X1407800Y323054D01*
X1370800Y323054D01*
X1370796Y323051D01*
X1370796Y323050D01*
X1370796Y223050D01*
X1370799Y223046D01*
X1370800Y223046D01*
X1407800Y223046D01*
X1407804Y223049D01*
X1407804Y223050D01*
X1407804Y229546D01*
X1436796Y229546D01*
X1436796Y222550D01*
X1436799Y222546D01*
X1436800Y222546D01*
X1450800Y222546D01*
X1450804Y222549D01*
G37*
G36*
X1509604Y222549D02*
X1509604Y222549D01*
X1509604Y222550D01*
X1509604Y229546D01*
X1538596Y229546D01*
X1538596Y223050D01*
X1538599Y223046D01*
X1538600Y223046D01*
X1575600Y223046D01*
X1575604Y223049D01*
X1575604Y223050D01*
X1575604Y323050D01*
X1575601Y323054D01*
X1575600Y323054D01*
X1538600Y323054D01*
X1538596Y323051D01*
X1538596Y323050D01*
X1538596Y316554D01*
X1509604Y316554D01*
X1509604Y323550D01*
X1509601Y323554D01*
X1509600Y323554D01*
X1495600Y323554D01*
X1495596Y323551D01*
X1495596Y323550D01*
X1495596Y222550D01*
X1495599Y222546D01*
X1495600Y222546D01*
X1509600Y222546D01*
X1509604Y222549D01*
G37*
G36*
X1345804Y354049D02*
X1345804Y354049D01*
X1345804Y354050D01*
X1345804Y434050D01*
X1345801Y434054D01*
X1345800Y434054D01*
X1317800Y434054D01*
X1317796Y434051D01*
X1317796Y434050D01*
X1317796Y426050D01*
X1317799Y426046D01*
X1317800Y426046D01*
X1338196Y426046D01*
X1338196Y422054D01*
X1317800Y422054D01*
X1317796Y422051D01*
X1317796Y422050D01*
X1317796Y414050D01*
X1317799Y414046D01*
X1317800Y414046D01*
X1338196Y414046D01*
X1338196Y410054D01*
X1317800Y410054D01*
X1317796Y410051D01*
X1317796Y410050D01*
X1317796Y402050D01*
X1317799Y402046D01*
X1317800Y402046D01*
X1338196Y402046D01*
X1338196Y398054D01*
X1317800Y398054D01*
X1317796Y398051D01*
X1317796Y398050D01*
X1317796Y390050D01*
X1317799Y390046D01*
X1317800Y390046D01*
X1338196Y390046D01*
X1338196Y386054D01*
X1317800Y386054D01*
X1317796Y386051D01*
X1317796Y386050D01*
X1317796Y378050D01*
X1317799Y378046D01*
X1317800Y378046D01*
X1338196Y378046D01*
X1338196Y374054D01*
X1317800Y374054D01*
X1317796Y374051D01*
X1317796Y374050D01*
X1317796Y366050D01*
X1317799Y366046D01*
X1317800Y366046D01*
X1338196Y366046D01*
X1338196Y362054D01*
X1317800Y362054D01*
X1317796Y362051D01*
X1317796Y362050D01*
X1317796Y354050D01*
X1317799Y354046D01*
X1317800Y354046D01*
X1345800Y354046D01*
X1345804Y354049D01*
G37*
G36*
X1345804Y227049D02*
X1345804Y227049D01*
X1345804Y227050D01*
X1345804Y307050D01*
X1345801Y307054D01*
X1345800Y307054D01*
X1317800Y307054D01*
X1317796Y307051D01*
X1317796Y307050D01*
X1317796Y299050D01*
X1317799Y299046D01*
X1317800Y299046D01*
X1338196Y299046D01*
X1338196Y295054D01*
X1317800Y295054D01*
X1317796Y295051D01*
X1317796Y295050D01*
X1317796Y287050D01*
X1317799Y287046D01*
X1317800Y287046D01*
X1338196Y287046D01*
X1338196Y283054D01*
X1317800Y283054D01*
X1317796Y283051D01*
X1317796Y283050D01*
X1317796Y275050D01*
X1317799Y275046D01*
X1317800Y275046D01*
X1338196Y275046D01*
X1338196Y271054D01*
X1317800Y271054D01*
X1317796Y271051D01*
X1317796Y271050D01*
X1317796Y263050D01*
X1317799Y263046D01*
X1317800Y263046D01*
X1338196Y263046D01*
X1338196Y259054D01*
X1317800Y259054D01*
X1317796Y259051D01*
X1317796Y259050D01*
X1317796Y251050D01*
X1317799Y251046D01*
X1317800Y251046D01*
X1338196Y251046D01*
X1338196Y247054D01*
X1317800Y247054D01*
X1317796Y247051D01*
X1317796Y247050D01*
X1317796Y239050D01*
X1317799Y239046D01*
X1317800Y239046D01*
X1338196Y239046D01*
X1338196Y235054D01*
X1317800Y235054D01*
X1317796Y235051D01*
X1317796Y235050D01*
X1317796Y227050D01*
X1317799Y227046D01*
X1317800Y227046D01*
X1345800Y227046D01*
X1345804Y227049D01*
G37*
G36*
X1628604Y366049D02*
X1628604Y366049D01*
X1628604Y366050D01*
X1628604Y374050D01*
X1628601Y374054D01*
X1628600Y374054D01*
X1608204Y374054D01*
X1608204Y378046D01*
X1628600Y378046D01*
X1628604Y378049D01*
X1628604Y378050D01*
X1628604Y386050D01*
X1628601Y386054D01*
X1628600Y386054D01*
X1608204Y386054D01*
X1608204Y390046D01*
X1628600Y390046D01*
X1628604Y390049D01*
X1628604Y390050D01*
X1628604Y398050D01*
X1628601Y398054D01*
X1628600Y398054D01*
X1608204Y398054D01*
X1608204Y402046D01*
X1628600Y402046D01*
X1628604Y402049D01*
X1628604Y402050D01*
X1628604Y410050D01*
X1628601Y410054D01*
X1628600Y410054D01*
X1608204Y410054D01*
X1608204Y414046D01*
X1628600Y414046D01*
X1628604Y414049D01*
X1628604Y414050D01*
X1628604Y422050D01*
X1628601Y422054D01*
X1628600Y422054D01*
X1608204Y422054D01*
X1608204Y426046D01*
X1628600Y426046D01*
X1628604Y426049D01*
X1628604Y426050D01*
X1628604Y434050D01*
X1628601Y434054D01*
X1628600Y434054D01*
X1608204Y434054D01*
X1608204Y438046D01*
X1628600Y438046D01*
X1628604Y438049D01*
X1628604Y438050D01*
X1628604Y446050D01*
X1628601Y446054D01*
X1628600Y446054D01*
X1600600Y446054D01*
X1600596Y446051D01*
X1600596Y446050D01*
X1600596Y366050D01*
X1600599Y366046D01*
X1600600Y366046D01*
X1628600Y366046D01*
X1628604Y366049D01*
G37*
G36*
X1628604Y239049D02*
X1628604Y239049D01*
X1628604Y239050D01*
X1628604Y247050D01*
X1628601Y247054D01*
X1628600Y247054D01*
X1608204Y247054D01*
X1608204Y251046D01*
X1628600Y251046D01*
X1628604Y251049D01*
X1628604Y251050D01*
X1628604Y259050D01*
X1628601Y259054D01*
X1628600Y259054D01*
X1608204Y259054D01*
X1608204Y263046D01*
X1628600Y263046D01*
X1628604Y263049D01*
X1628604Y263050D01*
X1628604Y271050D01*
X1628601Y271054D01*
X1628600Y271054D01*
X1608204Y271054D01*
X1608204Y275046D01*
X1628600Y275046D01*
X1628604Y275049D01*
X1628604Y275050D01*
X1628604Y283050D01*
X1628601Y283054D01*
X1628600Y283054D01*
X1608204Y283054D01*
X1608204Y287046D01*
X1628600Y287046D01*
X1628604Y287049D01*
X1628604Y287050D01*
X1628604Y295050D01*
X1628601Y295054D01*
X1628600Y295054D01*
X1608204Y295054D01*
X1608204Y299046D01*
X1628600Y299046D01*
X1628604Y299049D01*
X1628604Y299050D01*
X1628604Y307050D01*
X1628601Y307054D01*
X1628600Y307054D01*
X1608204Y307054D01*
X1608204Y311046D01*
X1628600Y311046D01*
X1628604Y311049D01*
X1628604Y311050D01*
X1628604Y319050D01*
X1628601Y319054D01*
X1628600Y319054D01*
X1600600Y319054D01*
X1600596Y319051D01*
X1600596Y319050D01*
X1600596Y239050D01*
X1600599Y239046D01*
X1600600Y239046D01*
X1628600Y239046D01*
X1628604Y239049D01*
G37*
G36*
X2534480Y337901D02*
X2534480Y337901D01*
X2534481Y337901D01*
X2534974Y337972D01*
X2534975Y337972D01*
X2535428Y338179D01*
X2535428Y338180D01*
X2535429Y338180D01*
X2535805Y338506D01*
X2535805Y338507D01*
X2535806Y338507D01*
X2536075Y338926D01*
X2536075Y338927D01*
X2536076Y338927D01*
X2536216Y339405D01*
X2536216Y339406D01*
X2536216Y339904D01*
X2536216Y339905D01*
X2536076Y340383D01*
X2536075Y340384D01*
X2535806Y340803D01*
X2535805Y340804D01*
X2535429Y341130D01*
X2535428Y341130D01*
X2535428Y341131D01*
X2534975Y341338D01*
X2534974Y341338D01*
X2534481Y341409D01*
X2534480Y341409D01*
X2530404Y341409D01*
X2530404Y344401D01*
X2534480Y344401D01*
X2534481Y344401D01*
X2534974Y344472D01*
X2534975Y344472D01*
X2535428Y344679D01*
X2535428Y344680D01*
X2535429Y344680D01*
X2535805Y345006D01*
X2535805Y345007D01*
X2535806Y345007D01*
X2536075Y345426D01*
X2536075Y345427D01*
X2536076Y345427D01*
X2536216Y345905D01*
X2536216Y345906D01*
X2536216Y346404D01*
X2536216Y346405D01*
X2536076Y346883D01*
X2536075Y346884D01*
X2535806Y347303D01*
X2535805Y347304D01*
X2535429Y347630D01*
X2535428Y347630D01*
X2535428Y347631D01*
X2534975Y347838D01*
X2534974Y347838D01*
X2534481Y347909D01*
X2534480Y347909D01*
X2530404Y347909D01*
X2530404Y350901D01*
X2534480Y350901D01*
X2534481Y350901D01*
X2534974Y350972D01*
X2534975Y350972D01*
X2535428Y351179D01*
X2535428Y351180D01*
X2535429Y351180D01*
X2535805Y351506D01*
X2535805Y351507D01*
X2535806Y351507D01*
X2536075Y351926D01*
X2536075Y351927D01*
X2536076Y351927D01*
X2536216Y352405D01*
X2536216Y352406D01*
X2536216Y352904D01*
X2536216Y352905D01*
X2536076Y353383D01*
X2536075Y353384D01*
X2535806Y353803D01*
X2535805Y353804D01*
X2535429Y354130D01*
X2535428Y354130D01*
X2535428Y354131D01*
X2534975Y354338D01*
X2534974Y354338D01*
X2534481Y354409D01*
X2534480Y354409D01*
X2530404Y354409D01*
X2530404Y357401D01*
X2534480Y357401D01*
X2534481Y357401D01*
X2534974Y357472D01*
X2534975Y357472D01*
X2535428Y357679D01*
X2535428Y357680D01*
X2535429Y357680D01*
X2535805Y358006D01*
X2535805Y358007D01*
X2535806Y358007D01*
X2536075Y358426D01*
X2536075Y358427D01*
X2536076Y358427D01*
X2536216Y358905D01*
X2536216Y358906D01*
X2536216Y359404D01*
X2536216Y359405D01*
X2536076Y359883D01*
X2536075Y359884D01*
X2535806Y360303D01*
X2535805Y360304D01*
X2535429Y360630D01*
X2535428Y360630D01*
X2535428Y360631D01*
X2534975Y360838D01*
X2534974Y360838D01*
X2534481Y360909D01*
X2534480Y360909D01*
X2503400Y360909D01*
X2503396Y360906D01*
X2503396Y360905D01*
X2503396Y337905D01*
X2503399Y337901D01*
X2503400Y337901D01*
X2534480Y337901D01*
X2534480Y337901D01*
G37*
G36*
X2505400Y308589D02*
X2505400Y308589D01*
X2505878Y308729D01*
X2505879Y308730D01*
X2506298Y308999D01*
X2506299Y309000D01*
X2506625Y309376D01*
X2506625Y309377D01*
X2506626Y309377D01*
X2506833Y309830D01*
X2506833Y309831D01*
X2506833Y309833D01*
X2506834Y309833D01*
X2506837Y309854D01*
X2506838Y309862D01*
X2506841Y309883D01*
X2506844Y309904D01*
X2506847Y309925D01*
X2506850Y309946D01*
X2506850Y309947D01*
X2506853Y309968D01*
X2506854Y309976D01*
X2506857Y309997D01*
X2506860Y310018D01*
X2506863Y310039D01*
X2506866Y310060D01*
X2506869Y310081D01*
X2506869Y310082D01*
X2506872Y310103D01*
X2506874Y310111D01*
X2506877Y310132D01*
X2506880Y310153D01*
X2506883Y310174D01*
X2506886Y310195D01*
X2506889Y310216D01*
X2506889Y310217D01*
X2506890Y310225D01*
X2506893Y310246D01*
X2506896Y310267D01*
X2506899Y310288D01*
X2506902Y310309D01*
X2506904Y310324D01*
X2506904Y310325D01*
X2506904Y314401D01*
X2509896Y314401D01*
X2509896Y310325D01*
X2509896Y310324D01*
X2509967Y309831D01*
X2509967Y309830D01*
X2510174Y309377D01*
X2510175Y309377D01*
X2510175Y309376D01*
X2510501Y309000D01*
X2510502Y309000D01*
X2510502Y308999D01*
X2510921Y308730D01*
X2510922Y308730D01*
X2510922Y308729D01*
X2511400Y308589D01*
X2511401Y308589D01*
X2511899Y308589D01*
X2511900Y308589D01*
X2512378Y308729D01*
X2512379Y308730D01*
X2512798Y308999D01*
X2512799Y309000D01*
X2513125Y309376D01*
X2513125Y309377D01*
X2513126Y309377D01*
X2513333Y309830D01*
X2513333Y309831D01*
X2513333Y309833D01*
X2513334Y309833D01*
X2513337Y309854D01*
X2513338Y309862D01*
X2513341Y309883D01*
X2513344Y309904D01*
X2513347Y309925D01*
X2513350Y309946D01*
X2513350Y309947D01*
X2513353Y309968D01*
X2513354Y309976D01*
X2513357Y309997D01*
X2513360Y310018D01*
X2513363Y310039D01*
X2513366Y310060D01*
X2513369Y310081D01*
X2513369Y310082D01*
X2513372Y310103D01*
X2513374Y310111D01*
X2513377Y310132D01*
X2513380Y310153D01*
X2513383Y310174D01*
X2513386Y310195D01*
X2513389Y310216D01*
X2513389Y310217D01*
X2513390Y310225D01*
X2513393Y310246D01*
X2513396Y310267D01*
X2513399Y310288D01*
X2513402Y310309D01*
X2513404Y310324D01*
X2513404Y310325D01*
X2513404Y314401D01*
X2516396Y314401D01*
X2516396Y310325D01*
X2516396Y310324D01*
X2516467Y309831D01*
X2516467Y309830D01*
X2516674Y309377D01*
X2516675Y309377D01*
X2516675Y309376D01*
X2517001Y309000D01*
X2517002Y309000D01*
X2517002Y308999D01*
X2517421Y308730D01*
X2517422Y308730D01*
X2517422Y308729D01*
X2517900Y308589D01*
X2517901Y308589D01*
X2518399Y308589D01*
X2518400Y308589D01*
X2518878Y308729D01*
X2518879Y308730D01*
X2519298Y308999D01*
X2519299Y309000D01*
X2519625Y309376D01*
X2519625Y309377D01*
X2519626Y309377D01*
X2519833Y309830D01*
X2519833Y309831D01*
X2519833Y309833D01*
X2519834Y309833D01*
X2519837Y309854D01*
X2519838Y309862D01*
X2519841Y309883D01*
X2519844Y309904D01*
X2519847Y309925D01*
X2519850Y309946D01*
X2519850Y309947D01*
X2519853Y309968D01*
X2519854Y309976D01*
X2519857Y309997D01*
X2519860Y310018D01*
X2519863Y310039D01*
X2519866Y310060D01*
X2519869Y310081D01*
X2519869Y310082D01*
X2519872Y310103D01*
X2519874Y310111D01*
X2519877Y310132D01*
X2519880Y310153D01*
X2519883Y310174D01*
X2519886Y310195D01*
X2519889Y310216D01*
X2519889Y310217D01*
X2519890Y310225D01*
X2519893Y310246D01*
X2519896Y310267D01*
X2519899Y310288D01*
X2519902Y310309D01*
X2519904Y310324D01*
X2519904Y310325D01*
X2519904Y314401D01*
X2522896Y314401D01*
X2522896Y310325D01*
X2522896Y310324D01*
X2522967Y309831D01*
X2522967Y309830D01*
X2523174Y309377D01*
X2523175Y309377D01*
X2523175Y309376D01*
X2523501Y309000D01*
X2523502Y309000D01*
X2523502Y308999D01*
X2523921Y308730D01*
X2523922Y308730D01*
X2523922Y308729D01*
X2524400Y308589D01*
X2524401Y308589D01*
X2524899Y308589D01*
X2524900Y308589D01*
X2525378Y308729D01*
X2525379Y308730D01*
X2525798Y308999D01*
X2525799Y309000D01*
X2526125Y309376D01*
X2526125Y309377D01*
X2526126Y309377D01*
X2526333Y309830D01*
X2526333Y309831D01*
X2526333Y309833D01*
X2526334Y309833D01*
X2526337Y309854D01*
X2526338Y309862D01*
X2526341Y309883D01*
X2526344Y309904D01*
X2526347Y309925D01*
X2526350Y309946D01*
X2526350Y309947D01*
X2526353Y309968D01*
X2526354Y309976D01*
X2526357Y309997D01*
X2526360Y310018D01*
X2526363Y310039D01*
X2526366Y310060D01*
X2526369Y310081D01*
X2526369Y310082D01*
X2526372Y310103D01*
X2526374Y310111D01*
X2526377Y310132D01*
X2526380Y310153D01*
X2526383Y310174D01*
X2526386Y310195D01*
X2526389Y310216D01*
X2526389Y310217D01*
X2526390Y310225D01*
X2526393Y310246D01*
X2526396Y310267D01*
X2526399Y310288D01*
X2526402Y310309D01*
X2526404Y310324D01*
X2526404Y310325D01*
X2526404Y314401D01*
X2530400Y314401D01*
X2530404Y314404D01*
X2530404Y314405D01*
X2530404Y318401D01*
X2534480Y318401D01*
X2534481Y318401D01*
X2534974Y318472D01*
X2534975Y318472D01*
X2535428Y318679D01*
X2535428Y318680D01*
X2535429Y318680D01*
X2535805Y319006D01*
X2535805Y319007D01*
X2535806Y319007D01*
X2536075Y319426D01*
X2536075Y319427D01*
X2536076Y319427D01*
X2536216Y319905D01*
X2536216Y319906D01*
X2536216Y320404D01*
X2536216Y320405D01*
X2536076Y320883D01*
X2536075Y320884D01*
X2535806Y321303D01*
X2535805Y321304D01*
X2535429Y321630D01*
X2535428Y321630D01*
X2535428Y321631D01*
X2534975Y321838D01*
X2534974Y321838D01*
X2534481Y321909D01*
X2534480Y321909D01*
X2530404Y321909D01*
X2530404Y324901D01*
X2534480Y324901D01*
X2534481Y324901D01*
X2534974Y324972D01*
X2534975Y324972D01*
X2535428Y325179D01*
X2535428Y325180D01*
X2535429Y325180D01*
X2535805Y325506D01*
X2535805Y325507D01*
X2535806Y325507D01*
X2536075Y325926D01*
X2536075Y325927D01*
X2536076Y325927D01*
X2536216Y326405D01*
X2536216Y326406D01*
X2536216Y326904D01*
X2536216Y326905D01*
X2536076Y327383D01*
X2536075Y327384D01*
X2535806Y327803D01*
X2535805Y327804D01*
X2535429Y328130D01*
X2535428Y328130D01*
X2535428Y328131D01*
X2534975Y328338D01*
X2534974Y328338D01*
X2534481Y328409D01*
X2534480Y328409D01*
X2530404Y328409D01*
X2530404Y331401D01*
X2534480Y331401D01*
X2534481Y331401D01*
X2534974Y331472D01*
X2534975Y331472D01*
X2535428Y331679D01*
X2535428Y331680D01*
X2535429Y331680D01*
X2535805Y332006D01*
X2535805Y332007D01*
X2535806Y332007D01*
X2536075Y332426D01*
X2536075Y332427D01*
X2536076Y332427D01*
X2536216Y332905D01*
X2536216Y332906D01*
X2536216Y333404D01*
X2536216Y333405D01*
X2536076Y333883D01*
X2536075Y333884D01*
X2535806Y334303D01*
X2535805Y334304D01*
X2535429Y334630D01*
X2535428Y334630D01*
X2535428Y334631D01*
X2534975Y334838D01*
X2534974Y334838D01*
X2534481Y334909D01*
X2534480Y334909D01*
X2503400Y334909D01*
X2503396Y334906D01*
X2503396Y334905D01*
X2503396Y310325D01*
X2503396Y310324D01*
X2503467Y309831D01*
X2503467Y309830D01*
X2503674Y309377D01*
X2503675Y309377D01*
X2503675Y309376D01*
X2504001Y309000D01*
X2504002Y309000D01*
X2504002Y308999D01*
X2504421Y308730D01*
X2504422Y308730D01*
X2504422Y308729D01*
X2504900Y308589D01*
X2504901Y308589D01*
X2505399Y308589D01*
X2505400Y308589D01*
G37*
G36*
X2534480Y363901D02*
X2534480Y363901D01*
X2534481Y363901D01*
X2534974Y363972D01*
X2534975Y363972D01*
X2535428Y364179D01*
X2535428Y364180D01*
X2535429Y364180D01*
X2535805Y364506D01*
X2535805Y364507D01*
X2535806Y364507D01*
X2536075Y364926D01*
X2536075Y364927D01*
X2536076Y364927D01*
X2536216Y365405D01*
X2536216Y365406D01*
X2536216Y365904D01*
X2536216Y365905D01*
X2536076Y366383D01*
X2536075Y366384D01*
X2535806Y366803D01*
X2535805Y366804D01*
X2535429Y367130D01*
X2535428Y367130D01*
X2535428Y367131D01*
X2534975Y367338D01*
X2534974Y367338D01*
X2534481Y367409D01*
X2534480Y367409D01*
X2530404Y367409D01*
X2530404Y371405D01*
X2530401Y371409D01*
X2530400Y371409D01*
X2526404Y371409D01*
X2526404Y375485D01*
X2526404Y375486D01*
X2526333Y375979D01*
X2526333Y375980D01*
X2526126Y376433D01*
X2526125Y376433D01*
X2526125Y376434D01*
X2525799Y376810D01*
X2525798Y376810D01*
X2525798Y376811D01*
X2525379Y377080D01*
X2525378Y377080D01*
X2525378Y377081D01*
X2524900Y377221D01*
X2524899Y377221D01*
X2524401Y377221D01*
X2524400Y377221D01*
X2523922Y377081D01*
X2523921Y377080D01*
X2523502Y376811D01*
X2523502Y376810D01*
X2523501Y376810D01*
X2523175Y376434D01*
X2523175Y376433D01*
X2523174Y376433D01*
X2522967Y375980D01*
X2522967Y375979D01*
X2522964Y375963D01*
X2522961Y375942D01*
X2522958Y375921D01*
X2522958Y375920D01*
X2522955Y375899D01*
X2522952Y375878D01*
X2522949Y375857D01*
X2522948Y375849D01*
X2522945Y375828D01*
X2522942Y375807D01*
X2522939Y375786D01*
X2522939Y375785D01*
X2522936Y375764D01*
X2522933Y375743D01*
X2522930Y375722D01*
X2522929Y375714D01*
X2522926Y375693D01*
X2522923Y375672D01*
X2522920Y375651D01*
X2522920Y375650D01*
X2522917Y375629D01*
X2522916Y375629D01*
X2522913Y375608D01*
X2522912Y375600D01*
X2522909Y375579D01*
X2522906Y375558D01*
X2522903Y375537D01*
X2522900Y375516D01*
X2522900Y375515D01*
X2522897Y375494D01*
X2522896Y375486D01*
X2522896Y375485D01*
X2522896Y371409D01*
X2519904Y371409D01*
X2519904Y375485D01*
X2519904Y375486D01*
X2519833Y375979D01*
X2519833Y375980D01*
X2519626Y376433D01*
X2519625Y376433D01*
X2519625Y376434D01*
X2519299Y376810D01*
X2519298Y376810D01*
X2519298Y376811D01*
X2518879Y377080D01*
X2518878Y377080D01*
X2518878Y377081D01*
X2518400Y377221D01*
X2518399Y377221D01*
X2517901Y377221D01*
X2517900Y377221D01*
X2517422Y377081D01*
X2517421Y377080D01*
X2517002Y376811D01*
X2517002Y376810D01*
X2517001Y376810D01*
X2516675Y376434D01*
X2516675Y376433D01*
X2516674Y376433D01*
X2516467Y375980D01*
X2516467Y375979D01*
X2516464Y375963D01*
X2516461Y375942D01*
X2516458Y375921D01*
X2516458Y375920D01*
X2516455Y375899D01*
X2516452Y375878D01*
X2516449Y375857D01*
X2516448Y375849D01*
X2516445Y375828D01*
X2516442Y375807D01*
X2516439Y375786D01*
X2516439Y375785D01*
X2516436Y375764D01*
X2516433Y375743D01*
X2516430Y375722D01*
X2516429Y375714D01*
X2516426Y375693D01*
X2516423Y375672D01*
X2516420Y375651D01*
X2516420Y375650D01*
X2516417Y375629D01*
X2516416Y375629D01*
X2516413Y375608D01*
X2516412Y375600D01*
X2516409Y375579D01*
X2516406Y375558D01*
X2516403Y375537D01*
X2516400Y375516D01*
X2516400Y375515D01*
X2516397Y375494D01*
X2516396Y375486D01*
X2516396Y375485D01*
X2516396Y371409D01*
X2513404Y371409D01*
X2513404Y375485D01*
X2513404Y375486D01*
X2513333Y375979D01*
X2513333Y375980D01*
X2513126Y376433D01*
X2513125Y376433D01*
X2513125Y376434D01*
X2512799Y376810D01*
X2512798Y376810D01*
X2512798Y376811D01*
X2512379Y377080D01*
X2512378Y377080D01*
X2512378Y377081D01*
X2511900Y377221D01*
X2511899Y377221D01*
X2511401Y377221D01*
X2511400Y377221D01*
X2510922Y377081D01*
X2510921Y377080D01*
X2510502Y376811D01*
X2510502Y376810D01*
X2510501Y376810D01*
X2510175Y376434D01*
X2510175Y376433D01*
X2510174Y376433D01*
X2509967Y375980D01*
X2509967Y375979D01*
X2509964Y375963D01*
X2509961Y375942D01*
X2509958Y375921D01*
X2509958Y375920D01*
X2509955Y375899D01*
X2509952Y375878D01*
X2509949Y375857D01*
X2509948Y375849D01*
X2509945Y375828D01*
X2509942Y375807D01*
X2509939Y375786D01*
X2509939Y375785D01*
X2509936Y375764D01*
X2509933Y375743D01*
X2509930Y375722D01*
X2509929Y375714D01*
X2509926Y375693D01*
X2509923Y375672D01*
X2509920Y375651D01*
X2509920Y375650D01*
X2509917Y375629D01*
X2509916Y375629D01*
X2509913Y375608D01*
X2509912Y375600D01*
X2509909Y375579D01*
X2509906Y375558D01*
X2509903Y375537D01*
X2509900Y375516D01*
X2509900Y375515D01*
X2509897Y375494D01*
X2509896Y375486D01*
X2509896Y375485D01*
X2509896Y363905D01*
X2509899Y363901D01*
X2509900Y363901D01*
X2534480Y363901D01*
X2534480Y363901D01*
G37*
D10*
X500615Y365335D02*
X500615Y371245D01*
X506025Y371245D01*
X506025Y365335D01*
X500615Y365335D01*
X500615Y369712D02*
X506025Y369712D01*
X484615Y371245D02*
X484615Y365335D01*
X484615Y371245D02*
X490025Y371245D01*
X490025Y365335D01*
X484615Y365335D01*
X484615Y369712D02*
X490025Y369712D01*
X500595Y295055D02*
X500595Y289145D01*
X500595Y295055D02*
X506005Y295055D01*
X506005Y289145D01*
X500595Y289145D01*
X500595Y293522D02*
X506005Y293522D01*
X484595Y295055D02*
X484595Y289145D01*
X484595Y295055D02*
X490005Y295055D01*
X490005Y289145D01*
X484595Y289145D01*
X484595Y293522D02*
X490005Y293522D01*
X505045Y208495D02*
X510955Y208495D01*
X505045Y208495D02*
X505045Y213905D01*
X510955Y213905D01*
X510955Y208495D01*
X510955Y212872D02*
X505045Y212872D01*
X505045Y192495D02*
X510955Y192495D01*
X505045Y192495D02*
X505045Y197905D01*
X510955Y197905D01*
X510955Y192495D01*
X510955Y196872D02*
X505045Y196872D01*
D11*
X554770Y393670D03*
X524770Y393670D03*
X554750Y311150D03*
X524750Y311150D03*
X554750Y234950D03*
X524750Y234950D03*
X415040Y444550D03*
X385040Y444550D03*
X542070Y419130D03*
X512070Y419130D03*
X554660Y349100D03*
X524660Y349100D03*
X554750Y273050D03*
X524750Y273050D03*
D10*
X500595Y327245D02*
X500595Y333155D01*
X506005Y333155D01*
X506005Y327245D01*
X500595Y327245D01*
X500595Y331622D02*
X506005Y331622D01*
X484595Y333155D02*
X484595Y327245D01*
X484595Y333155D02*
X490005Y333155D01*
X490005Y327245D01*
X484595Y327245D01*
X484595Y331622D02*
X490005Y331622D01*
D12*
X724319Y415932D02*
X727082Y413169D01*
X724319Y415932D02*
X727082Y418695D01*
X729845Y415932D01*
X727082Y413169D01*
X729180Y416597D02*
X724984Y416597D01*
X717955Y409568D02*
X720718Y406805D01*
X717955Y409568D02*
X720718Y412331D01*
X723481Y409568D01*
X720718Y406805D01*
X722816Y410233D02*
X718620Y410233D01*
X714382Y419519D02*
X711619Y422282D01*
X714382Y425045D01*
X717145Y422282D01*
X714382Y419519D01*
X716480Y422947D02*
X712284Y422947D01*
X705255Y415918D02*
X708018Y413155D01*
X705255Y415918D02*
X708018Y418681D01*
X710781Y415918D01*
X708018Y413155D01*
X710116Y416583D02*
X705920Y416583D01*
X698919Y403232D02*
X701682Y400469D01*
X698919Y403232D02*
X701682Y405995D01*
X704445Y403232D01*
X701682Y400469D01*
X703780Y403897D02*
X699584Y403897D01*
X692555Y396868D02*
X695318Y394105D01*
X692555Y396868D02*
X695318Y399631D01*
X698081Y396868D01*
X695318Y394105D01*
X697416Y397533D02*
X693220Y397533D01*
X676282Y400469D02*
X673519Y403232D01*
X676282Y405995D01*
X679045Y403232D01*
X676282Y400469D01*
X678380Y403897D02*
X674184Y403897D01*
X667155Y396868D02*
X669918Y394105D01*
X667155Y396868D02*
X669918Y399631D01*
X672681Y396868D01*
X669918Y394105D01*
X672016Y397533D02*
X667820Y397533D01*
X679869Y384182D02*
X682632Y381419D01*
X679869Y384182D02*
X682632Y386945D01*
X685395Y384182D01*
X682632Y381419D01*
X684730Y384847D02*
X680534Y384847D01*
X673505Y377818D02*
X676268Y375055D01*
X673505Y377818D02*
X676268Y380581D01*
X679031Y377818D01*
X676268Y375055D01*
X678366Y378483D02*
X674170Y378483D01*
X673519Y301632D02*
X676282Y298869D01*
X673519Y301632D02*
X676282Y304395D01*
X679045Y301632D01*
X676282Y298869D01*
X678380Y302297D02*
X674184Y302297D01*
X667155Y295268D02*
X669918Y292505D01*
X667155Y295268D02*
X669918Y298031D01*
X672681Y295268D01*
X669918Y292505D01*
X672016Y295933D02*
X667820Y295933D01*
X659981Y269882D02*
X657218Y267119D01*
X654455Y269882D01*
X657218Y272645D01*
X659981Y269882D01*
X659316Y270547D02*
X655120Y270547D01*
X663582Y260755D02*
X666345Y263518D01*
X663582Y260755D02*
X660819Y263518D01*
X663582Y266281D01*
X666345Y263518D01*
X665680Y264183D02*
X661484Y264183D01*
D10*
X352185Y418045D02*
X346275Y418045D01*
X346275Y423455D01*
X352185Y423455D01*
X352185Y418045D01*
X352185Y422422D02*
X346275Y422422D01*
X346275Y402045D02*
X352185Y402045D01*
X346275Y402045D02*
X346275Y407455D01*
X352185Y407455D01*
X352185Y402045D01*
X352185Y406422D02*
X346275Y406422D01*
D12*
X866768Y412331D02*
X869531Y409568D01*
X866768Y406805D01*
X864005Y409568D01*
X866768Y412331D01*
X868866Y410233D02*
X864670Y410233D01*
X873132Y418695D02*
X875895Y415932D01*
X873132Y413169D01*
X870369Y415932D01*
X873132Y418695D01*
X875230Y416597D02*
X871034Y416597D01*
D10*
X883177Y258675D02*
X887355Y254497D01*
X883529Y250671D01*
X879351Y254849D01*
X883177Y258675D01*
X886804Y255048D02*
X879550Y255048D01*
X894491Y269989D02*
X898669Y265811D01*
X894843Y261985D01*
X890665Y266163D01*
X894491Y269989D01*
X898118Y266362D02*
X890864Y266362D01*
X583155Y441535D02*
X583155Y447445D01*
X588565Y447445D01*
X588565Y441535D01*
X583155Y441535D01*
X583155Y445912D02*
X588565Y445912D01*
X567155Y447445D02*
X567155Y441535D01*
X567155Y447445D02*
X572565Y447445D01*
X572565Y441535D01*
X567155Y441535D01*
X567155Y445912D02*
X572565Y445912D01*
X500595Y256955D02*
X500595Y251045D01*
X500595Y256955D02*
X506005Y256955D01*
X506005Y251045D01*
X500595Y251045D01*
X500595Y255422D02*
X506005Y255422D01*
X484595Y256955D02*
X484595Y251045D01*
X484595Y256955D02*
X490005Y256955D01*
X490005Y251045D01*
X484595Y251045D01*
X484595Y255422D02*
X490005Y255422D01*
D13*
X2025000Y540000D03*
X2025000Y60000D03*
X2405000Y540000D03*
X2405000Y60000D03*
X2595000Y540000D03*
X1645000Y540000D03*
X1645000Y60000D03*
D14*
G36*
X798554Y365989D02*
X786876Y377667D01*
X789716Y380507D01*
X801394Y368829D01*
X798554Y365989D01*
G37*
G36*
X795019Y362453D02*
X783341Y374131D01*
X786181Y376971D01*
X797859Y365293D01*
X795019Y362453D01*
G37*
G36*
X791483Y358918D02*
X779805Y370596D01*
X782645Y373436D01*
X794323Y361758D01*
X791483Y358918D01*
G37*
G36*
X787947Y355382D02*
X776269Y367060D01*
X779109Y369900D01*
X790787Y358222D01*
X787947Y355382D01*
G37*
G36*
X784412Y351847D02*
X772734Y363525D01*
X775574Y366365D01*
X787252Y354687D01*
X784412Y351847D01*
G37*
G36*
X780876Y348311D02*
X769198Y359989D01*
X772038Y362829D01*
X783716Y351151D01*
X780876Y348311D01*
G37*
G36*
X777341Y344776D02*
X765663Y356454D01*
X768503Y359294D01*
X780181Y347616D01*
X777341Y344776D01*
G37*
G36*
X773805Y341240D02*
X762127Y352918D01*
X764967Y355758D01*
X776645Y344080D01*
X773805Y341240D01*
G37*
G36*
X770270Y337705D02*
X758592Y349383D01*
X761432Y352223D01*
X773110Y340545D01*
X770270Y337705D01*
G37*
G36*
X766734Y334169D02*
X755056Y345847D01*
X757896Y348687D01*
X769574Y337009D01*
X766734Y334169D01*
G37*
G36*
X763199Y330634D02*
X751521Y342312D01*
X754361Y345152D01*
X766039Y333474D01*
X763199Y330634D01*
G37*
G36*
X759663Y327098D02*
X747985Y338776D01*
X750825Y341616D01*
X762503Y329938D01*
X759663Y327098D01*
G37*
G36*
X756128Y323563D02*
X744450Y335241D01*
X747290Y338081D01*
X758968Y326403D01*
X756128Y323563D01*
G37*
G36*
X752592Y320027D02*
X740914Y331705D01*
X743754Y334545D01*
X755432Y322867D01*
X752592Y320027D01*
G37*
G36*
X749057Y316491D02*
X737379Y328169D01*
X740219Y331009D01*
X751897Y319331D01*
X749057Y316491D01*
G37*
G36*
X745521Y312956D02*
X733843Y324634D01*
X736683Y327474D01*
X748361Y315796D01*
X745521Y312956D01*
G37*
G36*
X748361Y293804D02*
X736683Y282126D01*
X733843Y284966D01*
X745521Y296644D01*
X748361Y293804D01*
G37*
G36*
X751897Y290269D02*
X740219Y278591D01*
X737379Y281431D01*
X749057Y293109D01*
X751897Y290269D01*
G37*
G36*
X755432Y286733D02*
X743754Y275055D01*
X740914Y277895D01*
X752592Y289573D01*
X755432Y286733D01*
G37*
G36*
X758968Y283197D02*
X747290Y271519D01*
X744450Y274359D01*
X756128Y286037D01*
X758968Y283197D01*
G37*
G36*
X762503Y279662D02*
X750825Y267984D01*
X747985Y270824D01*
X759663Y282502D01*
X762503Y279662D01*
G37*
G36*
X766039Y276126D02*
X754361Y264448D01*
X751521Y267288D01*
X763199Y278966D01*
X766039Y276126D01*
G37*
G36*
X769574Y272591D02*
X757896Y260913D01*
X755056Y263753D01*
X766734Y275431D01*
X769574Y272591D01*
G37*
G36*
X773110Y269055D02*
X761432Y257377D01*
X758592Y260217D01*
X770270Y271895D01*
X773110Y269055D01*
G37*
G36*
X776645Y265520D02*
X764967Y253842D01*
X762127Y256682D01*
X773805Y268360D01*
X776645Y265520D01*
G37*
G36*
X780181Y261984D02*
X768503Y250306D01*
X765663Y253146D01*
X777341Y264824D01*
X780181Y261984D01*
G37*
G36*
X783716Y258449D02*
X772038Y246771D01*
X769198Y249611D01*
X780876Y261289D01*
X783716Y258449D01*
G37*
G36*
X787252Y254913D02*
X775574Y243235D01*
X772734Y246075D01*
X784412Y257753D01*
X787252Y254913D01*
G37*
G36*
X790787Y251378D02*
X779109Y239700D01*
X776269Y242540D01*
X787947Y254218D01*
X790787Y251378D01*
G37*
G36*
X794323Y247842D02*
X782645Y236164D01*
X779805Y239004D01*
X791483Y250682D01*
X794323Y247842D01*
G37*
G36*
X797859Y244307D02*
X786181Y232629D01*
X783341Y235469D01*
X795019Y247147D01*
X797859Y244307D01*
G37*
G36*
X801394Y240771D02*
X789716Y229093D01*
X786876Y231933D01*
X798554Y243611D01*
X801394Y240771D01*
G37*
G36*
X820546Y243611D02*
X832224Y231933D01*
X829384Y229093D01*
X817706Y240771D01*
X820546Y243611D01*
G37*
G36*
X824081Y247147D02*
X835759Y235469D01*
X832919Y232629D01*
X821241Y244307D01*
X824081Y247147D01*
G37*
G36*
X827617Y250682D02*
X839295Y239004D01*
X836455Y236164D01*
X824777Y247842D01*
X827617Y250682D01*
G37*
G36*
X831153Y254218D02*
X842831Y242540D01*
X839991Y239700D01*
X828313Y251378D01*
X831153Y254218D01*
G37*
G36*
X834688Y257753D02*
X846366Y246075D01*
X843526Y243235D01*
X831848Y254913D01*
X834688Y257753D01*
G37*
G36*
X838224Y261289D02*
X849902Y249611D01*
X847062Y246771D01*
X835384Y258449D01*
X838224Y261289D01*
G37*
G36*
X841759Y264824D02*
X853437Y253146D01*
X850597Y250306D01*
X838919Y261984D01*
X841759Y264824D01*
G37*
G36*
X845295Y268360D02*
X856973Y256682D01*
X854133Y253842D01*
X842455Y265520D01*
X845295Y268360D01*
G37*
G36*
X848830Y271895D02*
X860508Y260217D01*
X857668Y257377D01*
X845990Y269055D01*
X848830Y271895D01*
G37*
G36*
X852366Y275431D02*
X864044Y263753D01*
X861204Y260913D01*
X849526Y272591D01*
X852366Y275431D01*
G37*
G36*
X855901Y278966D02*
X867579Y267288D01*
X864739Y264448D01*
X853061Y276126D01*
X855901Y278966D01*
G37*
G36*
X859437Y282502D02*
X871115Y270824D01*
X868275Y267984D01*
X856597Y279662D01*
X859437Y282502D01*
G37*
G36*
X862972Y286037D02*
X874650Y274359D01*
X871810Y271519D01*
X860132Y283197D01*
X862972Y286037D01*
G37*
G36*
X866508Y289573D02*
X878186Y277895D01*
X875346Y275055D01*
X863668Y286733D01*
X866508Y289573D01*
G37*
G36*
X870043Y293109D02*
X881721Y281431D01*
X878881Y278591D01*
X867203Y290269D01*
X870043Y293109D01*
G37*
G36*
X873579Y296644D02*
X885257Y284966D01*
X882417Y282126D01*
X870739Y293804D01*
X873579Y296644D01*
G37*
G36*
X870739Y315796D02*
X882417Y327474D01*
X885257Y324634D01*
X873579Y312956D01*
X870739Y315796D01*
G37*
G36*
X867203Y319331D02*
X878881Y331009D01*
X881721Y328169D01*
X870043Y316491D01*
X867203Y319331D01*
G37*
G36*
X863668Y322867D02*
X875346Y334545D01*
X878186Y331705D01*
X866508Y320027D01*
X863668Y322867D01*
G37*
G36*
X860132Y326403D02*
X871810Y338081D01*
X874650Y335241D01*
X862972Y323563D01*
X860132Y326403D01*
G37*
G36*
X856597Y329938D02*
X868275Y341616D01*
X871115Y338776D01*
X859437Y327098D01*
X856597Y329938D01*
G37*
G36*
X853061Y333474D02*
X864739Y345152D01*
X867579Y342312D01*
X855901Y330634D01*
X853061Y333474D01*
G37*
G36*
X849759Y337242D02*
X861437Y348920D01*
X864277Y346080D01*
X852599Y334402D01*
X849759Y337242D01*
G37*
G36*
X845990Y340545D02*
X857668Y352223D01*
X860508Y349383D01*
X848830Y337705D01*
X845990Y340545D01*
G37*
G36*
X842455Y344080D02*
X854133Y355758D01*
X856973Y352918D01*
X845295Y341240D01*
X842455Y344080D01*
G37*
G36*
X838919Y347616D02*
X850597Y359294D01*
X853437Y356454D01*
X841759Y344776D01*
X838919Y347616D01*
G37*
G36*
X835384Y351151D02*
X847062Y362829D01*
X849902Y359989D01*
X838224Y348311D01*
X835384Y351151D01*
G37*
G36*
X831848Y354687D02*
X843526Y366365D01*
X846366Y363525D01*
X834688Y351847D01*
X831848Y354687D01*
G37*
G36*
X828313Y358222D02*
X839991Y369900D01*
X842831Y367060D01*
X831153Y355382D01*
X828313Y358222D01*
G37*
G36*
X824777Y361758D02*
X836455Y373436D01*
X839295Y370596D01*
X827617Y358918D01*
X824777Y361758D01*
G37*
G36*
X821241Y365293D02*
X832919Y376971D01*
X835759Y374131D01*
X824081Y362453D01*
X821241Y365293D01*
G37*
G36*
X817706Y368829D02*
X829384Y380507D01*
X832224Y377667D01*
X820546Y365989D01*
X817706Y368829D01*
G37*
D15*
G36*
X809550Y260949D02*
X765699Y304800D01*
X809550Y348651D01*
X853401Y304800D01*
X809550Y260949D01*
G37*
D16*
X2044700Y304800D03*
X2019300Y304800D03*
X2019300Y203200D03*
X2044700Y203200D03*
D17*
X524369Y366511D02*
X524369Y370089D01*
X524369Y366511D02*
X520791Y366511D01*
X520791Y370089D01*
X524369Y370089D01*
X524369Y369777D02*
X520791Y369777D01*
X533369Y370089D02*
X533369Y366511D01*
X529791Y366511D01*
X529791Y370089D01*
X533369Y370089D01*
X533369Y369777D02*
X529791Y369777D01*
X524339Y293889D02*
X524339Y290311D01*
X520761Y290311D01*
X520761Y293889D01*
X524339Y293889D01*
X524339Y293577D02*
X520761Y293577D01*
X533339Y293889D02*
X533339Y290311D01*
X529761Y290311D01*
X529761Y293889D01*
X533339Y293889D01*
X533339Y293577D02*
X529761Y293577D01*
X524339Y217689D02*
X524339Y214111D01*
X520761Y214111D01*
X520761Y217689D01*
X524339Y217689D01*
X524339Y217377D02*
X520761Y217377D01*
X533339Y217689D02*
X533339Y214111D01*
X529761Y214111D01*
X529761Y217689D01*
X533339Y217689D01*
X533339Y217377D02*
X529761Y217377D01*
X390989Y423681D02*
X390989Y427259D01*
X390989Y423681D02*
X387411Y423681D01*
X387411Y427259D01*
X390989Y427259D01*
X390989Y426947D02*
X387411Y426947D01*
X399989Y427259D02*
X399989Y423681D01*
X396411Y423681D01*
X396411Y427259D01*
X399989Y427259D01*
X399989Y426947D02*
X396411Y426947D01*
X580611Y427249D02*
X580611Y423671D01*
X580611Y427249D02*
X584189Y427249D01*
X584189Y423671D01*
X580611Y423671D01*
X580611Y426937D02*
X584189Y426937D01*
X571611Y427249D02*
X571611Y423671D01*
X571611Y427249D02*
X575189Y427249D01*
X575189Y423671D01*
X571611Y423671D01*
X571611Y426937D02*
X575189Y426937D01*
X524339Y331879D02*
X524339Y328301D01*
X520761Y328301D01*
X520761Y331879D01*
X524339Y331879D01*
X524339Y331567D02*
X520761Y331567D01*
X533339Y331879D02*
X533339Y328301D01*
X529761Y328301D01*
X529761Y331879D01*
X533339Y331879D01*
X533339Y331567D02*
X529761Y331567D01*
X524339Y255789D02*
X524339Y252211D01*
X520761Y252211D01*
X520761Y255789D01*
X524339Y255789D01*
X524339Y255477D02*
X520761Y255477D01*
X533339Y255789D02*
X533339Y252211D01*
X529761Y252211D01*
X529761Y255789D01*
X533339Y255789D01*
X533339Y255477D02*
X529761Y255477D01*
X575139Y410961D02*
X575139Y414539D01*
X575139Y410961D02*
X571561Y410961D01*
X571561Y414539D01*
X575139Y414539D01*
X575139Y414227D02*
X571561Y414227D01*
X584139Y414539D02*
X584139Y410961D01*
X580561Y410961D01*
X580561Y414539D01*
X584139Y414539D01*
X584139Y414227D02*
X580561Y414227D01*
X556089Y370089D02*
X556089Y366511D01*
X552511Y366511D01*
X552511Y370089D01*
X556089Y370089D01*
X556089Y369777D02*
X552511Y369777D01*
X565089Y370089D02*
X565089Y366511D01*
X561511Y366511D01*
X561511Y370089D01*
X565089Y370089D01*
X565089Y369777D02*
X561511Y369777D01*
X556089Y331989D02*
X556089Y328411D01*
X552511Y328411D01*
X552511Y331989D01*
X556089Y331989D01*
X556089Y331677D02*
X552511Y331677D01*
X565089Y331989D02*
X565089Y328411D01*
X561511Y328411D01*
X561511Y331989D01*
X565089Y331989D01*
X565089Y331677D02*
X561511Y331677D01*
X556089Y293889D02*
X556089Y290311D01*
X552511Y290311D01*
X552511Y293889D01*
X556089Y293889D01*
X556089Y293577D02*
X552511Y293577D01*
X565089Y293889D02*
X565089Y290311D01*
X561511Y290311D01*
X561511Y293889D01*
X565089Y293889D01*
X565089Y293577D02*
X561511Y293577D01*
X556089Y255789D02*
X556089Y252211D01*
X552511Y252211D01*
X552511Y255789D01*
X556089Y255789D01*
X556089Y255477D02*
X552511Y255477D01*
X565089Y255789D02*
X565089Y252211D01*
X561511Y252211D01*
X561511Y255789D01*
X565089Y255789D01*
X565089Y255477D02*
X561511Y255477D01*
X556089Y217689D02*
X556089Y214111D01*
X552511Y214111D01*
X552511Y217689D01*
X556089Y217689D01*
X556089Y217377D02*
X552511Y217377D01*
X565089Y217689D02*
X565089Y214111D01*
X561511Y214111D01*
X561511Y217689D01*
X565089Y217689D01*
X565089Y217377D02*
X561511Y217377D01*
X416389Y423661D02*
X416389Y427239D01*
X416389Y423661D02*
X412811Y423661D01*
X412811Y427239D01*
X416389Y427239D01*
X416389Y426927D02*
X412811Y426927D01*
X425389Y427239D02*
X425389Y423661D01*
X421811Y423661D01*
X421811Y427239D01*
X425389Y427239D01*
X425389Y426927D02*
X421811Y426927D01*
X942968Y165752D02*
X945498Y168282D01*
X942968Y165752D02*
X940438Y168282D01*
X942968Y170812D01*
X945498Y168282D01*
X944762Y169018D02*
X941174Y169018D01*
X949332Y159388D02*
X951862Y161918D01*
X949332Y159388D02*
X946802Y161918D01*
X949332Y164448D01*
X951862Y161918D01*
X951126Y162654D02*
X947538Y162654D01*
X926448Y168282D02*
X923918Y165752D01*
X921388Y168282D01*
X923918Y170812D01*
X926448Y168282D01*
X925712Y169018D02*
X922124Y169018D01*
X930282Y159388D02*
X932812Y161918D01*
X930282Y159388D02*
X927752Y161918D01*
X930282Y164448D01*
X932812Y161918D01*
X932076Y162654D02*
X928488Y162654D01*
X843898Y403218D02*
X841368Y405748D01*
X843898Y403218D02*
X841368Y400688D01*
X838838Y403218D01*
X841368Y405748D01*
X843162Y403954D02*
X839574Y403954D01*
X847732Y412112D02*
X850262Y409582D01*
X847732Y407052D01*
X845202Y409582D01*
X847732Y412112D01*
X849526Y410318D02*
X845938Y410318D01*
D10*
X360895Y390305D02*
X360895Y384395D01*
X360895Y390305D02*
X366305Y390305D01*
X366305Y384395D01*
X360895Y384395D01*
X360895Y388772D02*
X366305Y388772D01*
X344895Y390305D02*
X344895Y384395D01*
X344895Y390305D02*
X350305Y390305D01*
X350305Y384395D01*
X344895Y384395D01*
X344895Y388772D02*
X350305Y388772D01*
D17*
X390989Y389139D02*
X390989Y385561D01*
X387411Y385561D01*
X387411Y389139D01*
X390989Y389139D01*
X390989Y388827D02*
X387411Y388827D01*
X399989Y389139D02*
X399989Y385561D01*
X396411Y385561D01*
X396411Y389139D01*
X399989Y389139D01*
X399989Y388827D02*
X396411Y388827D01*
X417311Y403689D02*
X420889Y403689D01*
X420889Y400111D01*
X417311Y400111D01*
X417311Y403689D01*
X417311Y403377D02*
X420889Y403377D01*
X420889Y412689D02*
X417311Y412689D01*
X420889Y412689D02*
X420889Y409111D01*
X417311Y409111D01*
X417311Y412689D01*
X417311Y412377D02*
X420889Y412377D01*
D11*
X402350Y406400D03*
X372350Y406400D03*
D13*
X1265000Y60000D03*
D10*
X360885Y346325D02*
X360885Y352235D01*
X366295Y352235D01*
X366295Y346325D01*
X360885Y346325D01*
X360885Y350702D02*
X366295Y350702D01*
X344885Y352235D02*
X344885Y346325D01*
X344885Y352235D02*
X350295Y352235D01*
X350295Y346325D01*
X344885Y346325D01*
X344885Y350702D02*
X350295Y350702D01*
D17*
X391009Y351089D02*
X391009Y347511D01*
X387431Y347511D01*
X387431Y351089D01*
X391009Y351089D01*
X391009Y350777D02*
X387431Y350777D01*
X400009Y351089D02*
X400009Y347511D01*
X396431Y347511D01*
X396431Y351089D01*
X400009Y351089D01*
X400009Y350777D02*
X396431Y350777D01*
X416389Y351039D02*
X416389Y347461D01*
X412811Y347461D01*
X412811Y351039D01*
X416389Y351039D01*
X416389Y350727D02*
X412811Y350727D01*
X425389Y351039D02*
X425389Y347461D01*
X421811Y347461D01*
X421811Y351039D01*
X425389Y351039D01*
X425389Y350727D02*
X421811Y350727D01*
D11*
X413866Y366767D03*
X383866Y366767D03*
D13*
X1265000Y540000D03*
D10*
X360895Y314105D02*
X360895Y308195D01*
X360895Y314105D02*
X366305Y314105D01*
X366305Y308195D01*
X360895Y308195D01*
X360895Y312572D02*
X366305Y312572D01*
X344895Y314105D02*
X344895Y308195D01*
X344895Y314105D02*
X350305Y314105D01*
X350305Y308195D01*
X344895Y308195D01*
X344895Y312572D02*
X350305Y312572D01*
D17*
X390989Y312939D02*
X390989Y309361D01*
X387411Y309361D01*
X387411Y312939D01*
X390989Y312939D01*
X390989Y312627D02*
X387411Y312627D01*
X399989Y312939D02*
X399989Y309361D01*
X396411Y309361D01*
X396411Y312939D01*
X399989Y312939D01*
X399989Y312627D02*
X396411Y312627D01*
X416389Y312939D02*
X416389Y309361D01*
X412811Y309361D01*
X412811Y312939D01*
X416389Y312939D01*
X416389Y312627D02*
X412811Y312627D01*
X425389Y312939D02*
X425389Y309361D01*
X421811Y309361D01*
X421811Y312939D01*
X425389Y312939D01*
X425389Y312627D02*
X421811Y312627D01*
D11*
X415080Y330220D03*
X385080Y330220D03*
D12*
X701668Y178219D02*
X704431Y180982D01*
X701668Y178219D02*
X698905Y180982D01*
X701668Y183745D01*
X704431Y180982D01*
X703766Y181647D02*
X699570Y181647D01*
X708032Y171855D02*
X710795Y174618D01*
X708032Y171855D02*
X705269Y174618D01*
X708032Y177381D01*
X710795Y174618D01*
X710130Y175283D02*
X705934Y175283D01*
D13*
X885000Y60000D03*
D12*
X679031Y250832D02*
X676268Y248069D01*
X673505Y250832D01*
X676268Y253595D01*
X679031Y250832D01*
X678366Y251497D02*
X674170Y251497D01*
X682632Y241705D02*
X685395Y244468D01*
X682632Y241705D02*
X679869Y244468D01*
X682632Y247231D01*
X685395Y244468D01*
X684730Y245133D02*
X680534Y245133D01*
D10*
X360895Y270095D02*
X360895Y276005D01*
X366305Y276005D01*
X366305Y270095D01*
X360895Y270095D01*
X360895Y274472D02*
X366305Y274472D01*
X344895Y276005D02*
X344895Y270095D01*
X344895Y276005D02*
X350305Y276005D01*
X350305Y270095D01*
X344895Y270095D01*
X344895Y274472D02*
X350305Y274472D01*
D17*
X390989Y274839D02*
X390989Y271261D01*
X387411Y271261D01*
X387411Y274839D01*
X390989Y274839D01*
X390989Y274527D02*
X387411Y274527D01*
X399989Y274839D02*
X399989Y271261D01*
X396411Y271261D01*
X396411Y274839D01*
X399989Y274839D01*
X399989Y274527D02*
X396411Y274527D01*
X416389Y274839D02*
X416389Y271261D01*
X412811Y271261D01*
X412811Y274839D01*
X416389Y274839D01*
X416389Y274527D02*
X412811Y274527D01*
X425389Y274839D02*
X425389Y271261D01*
X421811Y271261D01*
X421811Y274839D01*
X425389Y274839D01*
X425389Y274527D02*
X421811Y274527D01*
D11*
X415050Y292050D03*
X385050Y292050D03*
D13*
X885000Y540000D03*
D10*
X360915Y237785D02*
X360915Y231875D01*
X360915Y237785D02*
X366325Y237785D01*
X366325Y231875D01*
X360915Y231875D01*
X360915Y236252D02*
X366325Y236252D01*
X344915Y237785D02*
X344915Y231875D01*
X344915Y237785D02*
X350325Y237785D01*
X350325Y231875D01*
X344915Y231875D01*
X344915Y236252D02*
X350325Y236252D01*
D17*
X390989Y236739D02*
X390989Y233161D01*
X387411Y233161D01*
X387411Y236739D01*
X390989Y236739D01*
X390989Y236427D02*
X387411Y236427D01*
X399989Y236739D02*
X399989Y233161D01*
X396411Y233161D01*
X396411Y236739D01*
X399989Y236739D01*
X399989Y236427D02*
X396411Y236427D01*
X416389Y236739D02*
X416389Y233161D01*
X412811Y233161D01*
X412811Y236739D01*
X416389Y236739D01*
X416389Y236427D02*
X412811Y236427D01*
X425389Y236739D02*
X425389Y233161D01*
X421811Y233161D01*
X421811Y236739D01*
X425389Y236739D01*
X425389Y236427D02*
X421811Y236427D01*
D11*
X415050Y254000D03*
X385050Y254000D03*
D12*
X727068Y152819D02*
X729831Y155582D01*
X727068Y152819D02*
X724305Y155582D01*
X727068Y158345D01*
X729831Y155582D01*
X729166Y156247D02*
X724970Y156247D01*
X733432Y146455D02*
X736195Y149218D01*
X733432Y146455D02*
X730669Y149218D01*
X733432Y151981D01*
X736195Y149218D01*
X735530Y149883D02*
X731334Y149883D01*
D13*
X505000Y60000D03*
D12*
X727068Y178219D02*
X729831Y180982D01*
X727068Y178219D02*
X724305Y180982D01*
X727068Y183745D01*
X729831Y180982D01*
X729166Y181647D02*
X724970Y181647D01*
X733432Y171855D02*
X736195Y174618D01*
X733432Y171855D02*
X730669Y174618D01*
X733432Y177381D01*
X736195Y174618D01*
X735530Y175283D02*
X731334Y175283D01*
D10*
X360875Y193905D02*
X360875Y199815D01*
X366285Y199815D01*
X366285Y193905D01*
X360875Y193905D01*
X360875Y198282D02*
X366285Y198282D01*
X344875Y199815D02*
X344875Y193905D01*
X344875Y199815D02*
X350285Y199815D01*
X350285Y193905D01*
X344875Y193905D01*
X344875Y198282D02*
X350285Y198282D01*
D17*
X390989Y198639D02*
X390989Y195061D01*
X387411Y195061D01*
X387411Y198639D01*
X390989Y198639D01*
X390989Y198327D02*
X387411Y198327D01*
X399989Y198639D02*
X399989Y195061D01*
X396411Y195061D01*
X396411Y198639D01*
X399989Y198639D01*
X399989Y198327D02*
X396411Y198327D01*
X416389Y198639D02*
X416389Y195061D01*
X412811Y195061D01*
X412811Y198639D01*
X416389Y198639D01*
X416389Y198327D02*
X412811Y198327D01*
X425389Y198639D02*
X425389Y195061D01*
X421811Y195061D01*
X421811Y198639D01*
X425389Y198639D01*
X425389Y198327D02*
X421811Y198327D01*
D11*
X414950Y216000D03*
X384950Y216000D03*
D13*
X505000Y540000D03*
D10*
X360895Y161705D02*
X360895Y155795D01*
X360895Y161705D02*
X366305Y161705D01*
X366305Y155795D01*
X360895Y155795D01*
X360895Y160172D02*
X366305Y160172D01*
X344895Y161705D02*
X344895Y155795D01*
X344895Y161705D02*
X350305Y161705D01*
X350305Y155795D01*
X344895Y155795D01*
X344895Y160172D02*
X350305Y160172D01*
D17*
X390989Y160539D02*
X390989Y156961D01*
X387411Y156961D01*
X387411Y160539D01*
X390989Y160539D01*
X390989Y160227D02*
X387411Y160227D01*
X399989Y160539D02*
X399989Y156961D01*
X396411Y156961D01*
X396411Y160539D01*
X399989Y160539D01*
X399989Y160227D02*
X396411Y160227D01*
X416389Y160539D02*
X416389Y156961D01*
X412811Y156961D01*
X412811Y160539D01*
X416389Y160539D01*
X416389Y160227D02*
X412811Y160227D01*
X425389Y160539D02*
X425389Y156961D01*
X421811Y156961D01*
X421811Y160539D01*
X425389Y160539D01*
X425389Y160227D02*
X421811Y160227D01*
D11*
X415050Y177800D03*
X385050Y177800D03*
D12*
X879468Y193891D02*
X882231Y191128D01*
X879468Y188365D01*
X876705Y191128D01*
X879468Y193891D01*
X881566Y191793D02*
X877370Y191793D01*
X885832Y200255D02*
X888595Y197492D01*
X885832Y194729D01*
X883069Y197492D01*
X885832Y200255D01*
X887930Y198157D02*
X883734Y198157D01*
D13*
X125000Y60000D03*
D12*
X873118Y171031D02*
X875881Y168268D01*
X873118Y165505D01*
X870355Y168268D01*
X873118Y171031D01*
X875216Y168933D02*
X871020Y168933D01*
X879482Y177395D02*
X882245Y174632D01*
X879482Y171869D01*
X876719Y174632D01*
X879482Y177395D01*
X881580Y175297D02*
X877384Y175297D01*
D13*
X125000Y540000D03*
D10*
X360895Y123605D02*
X360895Y117695D01*
X360895Y123605D02*
X366305Y123605D01*
X366305Y117695D01*
X360895Y117695D01*
X360895Y122072D02*
X366305Y122072D01*
X344895Y123605D02*
X344895Y117695D01*
X344895Y123605D02*
X350305Y123605D01*
X350305Y117695D01*
X344895Y117695D01*
X344895Y122072D02*
X350305Y122072D01*
D17*
X416389Y122439D02*
X416389Y118861D01*
X412811Y118861D01*
X412811Y122439D01*
X416389Y122439D01*
X416389Y122127D02*
X412811Y122127D01*
X425389Y122439D02*
X425389Y118861D01*
X421811Y118861D01*
X421811Y122439D01*
X425389Y122439D01*
X425389Y122127D02*
X421811Y122127D01*
X390989Y122439D02*
X390989Y118861D01*
X387411Y118861D01*
X387411Y122439D01*
X390989Y122439D01*
X390989Y122127D02*
X387411Y122127D01*
X399989Y122439D02*
X399989Y118861D01*
X396411Y118861D01*
X396411Y122439D01*
X399989Y122439D01*
X399989Y122127D02*
X396411Y122127D01*
D11*
X415050Y139700D03*
X385050Y139700D03*
D12*
X885818Y215481D02*
X888581Y212718D01*
X885818Y209955D01*
X883055Y212718D01*
X885818Y215481D01*
X887916Y213383D02*
X883720Y213383D01*
X892182Y221845D02*
X894945Y219082D01*
X892182Y216319D01*
X889419Y219082D01*
X892182Y221845D01*
X894280Y219747D02*
X890084Y219747D01*
X901281Y206382D02*
X898518Y203619D01*
X895755Y206382D01*
X898518Y209145D01*
X901281Y206382D01*
X900616Y207047D02*
X896420Y207047D01*
X904882Y197255D02*
X907645Y200018D01*
X904882Y197255D02*
X902119Y200018D01*
X904882Y202781D01*
X907645Y200018D01*
X906980Y200683D02*
X902784Y200683D01*
X917568Y298869D02*
X920331Y301632D01*
X917568Y298869D02*
X914805Y301632D01*
X917568Y304395D01*
X920331Y301632D01*
X919666Y302297D02*
X915470Y302297D01*
X923932Y292505D02*
X926695Y295268D01*
X923932Y292505D02*
X921169Y295268D01*
X923932Y298031D01*
X926695Y295268D01*
X926030Y295933D02*
X921834Y295933D01*
X930268Y311569D02*
X933031Y314332D01*
X930268Y311569D02*
X927505Y314332D01*
X930268Y317095D01*
X933031Y314332D01*
X932366Y314997D02*
X928170Y314997D01*
X936632Y305205D02*
X939395Y307968D01*
X936632Y305205D02*
X933869Y307968D01*
X936632Y310731D01*
X939395Y307968D01*
X938730Y308633D02*
X934534Y308633D01*
X942968Y324269D02*
X945731Y327032D01*
X942968Y324269D02*
X940205Y327032D01*
X942968Y329795D01*
X945731Y327032D01*
X945066Y327697D02*
X940870Y327697D01*
X949332Y317905D02*
X952095Y320668D01*
X949332Y317905D02*
X946569Y320668D01*
X949332Y323431D01*
X952095Y320668D01*
X951430Y321333D02*
X947234Y321333D01*
X955668Y336969D02*
X958431Y339732D01*
X955668Y336969D02*
X952905Y339732D01*
X955668Y342495D01*
X958431Y339732D01*
X957766Y340397D02*
X953570Y340397D01*
X962032Y330605D02*
X964795Y333368D01*
X962032Y330605D02*
X959269Y333368D01*
X962032Y336131D01*
X964795Y333368D01*
X964130Y334033D02*
X959934Y334033D01*
X968368Y349669D02*
X971131Y352432D01*
X968368Y349669D02*
X965605Y352432D01*
X968368Y355195D01*
X971131Y352432D01*
X970466Y353097D02*
X966270Y353097D01*
X974732Y343305D02*
X977495Y346068D01*
X974732Y343305D02*
X971969Y346068D01*
X974732Y348831D01*
X977495Y346068D01*
X976830Y346733D02*
X972634Y346733D01*
X981068Y362369D02*
X983831Y365132D01*
X981068Y362369D02*
X978305Y365132D01*
X981068Y367895D01*
X983831Y365132D01*
X983166Y365797D02*
X978970Y365797D01*
X987432Y356005D02*
X990195Y358768D01*
X987432Y356005D02*
X984669Y358768D01*
X987432Y361531D01*
X990195Y358768D01*
X989530Y359433D02*
X985334Y359433D01*
X993768Y375069D02*
X996531Y377832D01*
X993768Y375069D02*
X991005Y377832D01*
X993768Y380595D01*
X996531Y377832D01*
X995866Y378497D02*
X991670Y378497D01*
X1000132Y368705D02*
X1002895Y371468D01*
X1000132Y368705D02*
X997369Y371468D01*
X1000132Y374231D01*
X1002895Y371468D01*
X1002230Y372133D02*
X998034Y372133D01*
D10*
X672045Y498445D02*
X672045Y504855D01*
X677455Y504855D01*
X677455Y498445D01*
X672045Y498445D01*
X672045Y502822D02*
X677455Y502822D01*
X656045Y504855D02*
X656045Y498445D01*
X656045Y504855D02*
X661455Y504855D01*
X661455Y498445D01*
X656045Y498445D01*
X656045Y502822D02*
X661455Y502822D01*
D18*
X1024400Y514350D03*
X1058400Y514350D03*
X1115550Y514350D03*
X1081550Y514350D03*
D12*
X875903Y398185D02*
X873140Y400948D01*
X875903Y398185D02*
X873140Y395422D01*
X870377Y398185D01*
X873140Y400948D01*
X875238Y398850D02*
X871042Y398850D01*
X879504Y407312D02*
X882267Y404549D01*
X879504Y401786D01*
X876741Y404549D01*
X879504Y407312D01*
X881602Y405214D02*
X877406Y405214D01*
D10*
X1133695Y502705D02*
X1139605Y502705D01*
X1139605Y497295D01*
X1133695Y497295D01*
X1133695Y502705D01*
X1133695Y501672D02*
X1139605Y501672D01*
X1139605Y518705D02*
X1133695Y518705D01*
X1139605Y518705D02*
X1139605Y513295D01*
X1133695Y513295D01*
X1133695Y518705D01*
X1133695Y517672D02*
X1139605Y517672D01*
X908466Y413461D02*
X903934Y417993D01*
X907760Y421819D01*
X912292Y417287D01*
X908466Y413461D01*
X911741Y417838D02*
X904089Y417838D01*
X892620Y406679D02*
X897152Y402147D01*
X892620Y406679D02*
X896446Y410505D01*
X900978Y405973D01*
X897152Y402147D01*
X900427Y406524D02*
X892775Y406524D01*
D12*
X875864Y376878D02*
X873101Y374115D01*
X875864Y376878D02*
X878627Y374115D01*
X875864Y371352D01*
X873101Y374115D01*
X873766Y374780D02*
X877962Y374780D01*
X869500Y383242D02*
X866737Y380479D01*
X869500Y383242D02*
X872263Y380479D01*
X869500Y377716D01*
X866737Y380479D01*
X867402Y381144D02*
X871598Y381144D01*
D10*
X1159095Y464605D02*
X1165005Y464605D01*
X1165005Y459195D01*
X1159095Y459195D01*
X1159095Y464605D01*
X1159095Y463572D02*
X1165005Y463572D01*
X1165005Y480605D02*
X1159095Y480605D01*
X1165005Y480605D02*
X1165005Y475195D01*
X1159095Y475195D01*
X1159095Y480605D01*
X1159095Y479572D02*
X1165005Y479572D01*
D18*
X1005250Y482550D03*
X1039250Y482550D03*
X1096500Y482600D03*
X1062500Y482600D03*
D10*
X921000Y400554D02*
X916468Y405086D01*
X920294Y408912D01*
X924826Y404380D01*
X921000Y400554D01*
X924275Y404931D02*
X916623Y404931D01*
X905155Y393772D02*
X909687Y389240D01*
X905155Y393772D02*
X908981Y397598D01*
X913513Y393066D01*
X909687Y389240D01*
X912962Y393617D02*
X905310Y393617D01*
D12*
X898518Y374231D02*
X901281Y371468D01*
X898518Y368705D01*
X895755Y371468D01*
X898518Y374231D01*
X900616Y372133D02*
X896420Y372133D01*
X904882Y380595D02*
X907645Y377832D01*
X904882Y375069D01*
X902119Y377832D01*
X904882Y380595D01*
X906980Y378497D02*
X902784Y378497D01*
D19*
X2469400Y320155D02*
X2473400Y320155D01*
X2473400Y326655D02*
X2469400Y326655D01*
X2469400Y333155D02*
X2473400Y333155D01*
X2473400Y339655D02*
X2469400Y339655D01*
X2469400Y346155D02*
X2473400Y346155D01*
X2473400Y352655D02*
X2469400Y352655D01*
X2469400Y359155D02*
X2473400Y359155D01*
X2473400Y365655D02*
X2469400Y365655D01*
X2479150Y314405D02*
X2479150Y310405D01*
X2485650Y310405D02*
X2485650Y314405D01*
X2492150Y314405D02*
X2492150Y310405D01*
X2498650Y310405D02*
X2498650Y314405D01*
X2505150Y371405D02*
X2505150Y375405D01*
X2498650Y375405D02*
X2498650Y371405D01*
X2492150Y371405D02*
X2492150Y375405D01*
X2485650Y375405D02*
X2485650Y371405D01*
X2479150Y371405D02*
X2479150Y375405D01*
D20*
X2489200Y342905D03*
D10*
X2581545Y419265D02*
X2587455Y419265D01*
X2581545Y419265D02*
X2581545Y424675D01*
X2587455Y424675D01*
X2587455Y419265D01*
X2587455Y423642D02*
X2581545Y423642D01*
X2581545Y403265D02*
X2587455Y403265D01*
X2581545Y403265D02*
X2581545Y408675D01*
X2587455Y408675D01*
X2587455Y403265D01*
X2587455Y407642D02*
X2581545Y407642D01*
D21*
X2522102Y402182D02*
X2512218Y402182D01*
X2522102Y402182D02*
X2522102Y395298D01*
X2512218Y395298D01*
X2512218Y402182D01*
X2512218Y400648D02*
X2522102Y400648D01*
X2522102Y420182D02*
X2512218Y420182D01*
X2522102Y420182D02*
X2522102Y413298D01*
X2512218Y413298D01*
X2512218Y420182D01*
X2512218Y418648D02*
X2522102Y418648D01*
D10*
X2559635Y408745D02*
X2566045Y408745D01*
X2566045Y403335D01*
X2559635Y403335D01*
X2559635Y408745D01*
X2559635Y407712D02*
X2566045Y407712D01*
X2566045Y424745D02*
X2559635Y424745D01*
X2566045Y424745D02*
X2566045Y419335D01*
X2559635Y419335D01*
X2559635Y424745D01*
X2559635Y423712D02*
X2566045Y423712D01*
X2461955Y392185D02*
X2455545Y392185D01*
X2461955Y392185D02*
X2461955Y386775D01*
X2455545Y386775D01*
X2455545Y392185D01*
X2455545Y391152D02*
X2461955Y391152D01*
X2461955Y408185D02*
X2455545Y408185D01*
X2461955Y408185D02*
X2461955Y402775D01*
X2455545Y402775D01*
X2455545Y408185D01*
X2455545Y407152D02*
X2461955Y407152D01*
X2444075Y403565D02*
X2437665Y403565D01*
X2444075Y403565D02*
X2444075Y398155D01*
X2437665Y398155D01*
X2437665Y403565D01*
X2437665Y402532D02*
X2444075Y402532D01*
X2444075Y419565D02*
X2437665Y419565D01*
X2444075Y419565D02*
X2444075Y414155D01*
X2437665Y414155D01*
X2437665Y419565D01*
X2437665Y418532D02*
X2444075Y418532D01*
X2448345Y306735D02*
X2448345Y300325D01*
X2442935Y300325D01*
X2442935Y306735D01*
X2448345Y306735D01*
X2448345Y304702D02*
X2442935Y304702D01*
X2464345Y306735D02*
X2464345Y300325D01*
X2458935Y300325D01*
X2458935Y306735D01*
X2464345Y306735D01*
X2464345Y304702D02*
X2458935Y304702D01*
X2492595Y397295D02*
X2498505Y397295D01*
X2498505Y391885D01*
X2492595Y391885D01*
X2492595Y397295D01*
X2492595Y396262D02*
X2498505Y396262D01*
X2498505Y413295D02*
X2492595Y413295D01*
X2498505Y413295D02*
X2498505Y407885D01*
X2492595Y407885D01*
X2492595Y413295D01*
X2492595Y412262D02*
X2498505Y412262D01*
X2614255Y398525D02*
X2620665Y398525D01*
X2620665Y393115D01*
X2614255Y393115D01*
X2614255Y398525D01*
X2614255Y397492D02*
X2620665Y397492D01*
X2620665Y414525D02*
X2614255Y414525D01*
X2620665Y414525D02*
X2620665Y409115D01*
X2614255Y409115D01*
X2614255Y414525D01*
X2614255Y413492D02*
X2620665Y413492D01*
X2615135Y439025D02*
X2615135Y444935D01*
X2620545Y444935D01*
X2620545Y439025D01*
X2615135Y439025D01*
X2615135Y443402D02*
X2620545Y443402D01*
X2599135Y444935D02*
X2599135Y439025D01*
X2599135Y444935D02*
X2604545Y444935D01*
X2604545Y439025D01*
X2599135Y439025D01*
X2599135Y443402D02*
X2604545Y443402D01*
X2426715Y370275D02*
X2426715Y363865D01*
X2421305Y363865D01*
X2421305Y370275D01*
X2426715Y370275D01*
X2426715Y368242D02*
X2421305Y368242D01*
X2442715Y370275D02*
X2442715Y363865D01*
X2437305Y363865D01*
X2437305Y370275D01*
X2442715Y370275D01*
X2442715Y368242D02*
X2437305Y368242D01*
D17*
X2404251Y385551D02*
X2404251Y389129D01*
X2407829Y389129D01*
X2407829Y385551D01*
X2404251Y385551D01*
X2404251Y388817D02*
X2407829Y388817D01*
X2395251Y389129D02*
X2395251Y385551D01*
X2395251Y389129D02*
X2398829Y389129D01*
X2398829Y385551D01*
X2395251Y385551D01*
X2395251Y388817D02*
X2398829Y388817D01*
D10*
X2493225Y287435D02*
X2493225Y281525D01*
X2493225Y287435D02*
X2498635Y287435D01*
X2498635Y281525D01*
X2493225Y281525D01*
X2493225Y285902D02*
X2498635Y285902D01*
X2477225Y287435D02*
X2477225Y281525D01*
X2477225Y287435D02*
X2482635Y287435D01*
X2482635Y281525D01*
X2477225Y281525D01*
X2477225Y285902D02*
X2482635Y285902D01*
X2450095Y323435D02*
X2450095Y329345D01*
X2455505Y329345D01*
X2455505Y323435D01*
X2450095Y323435D01*
X2450095Y327812D02*
X2455505Y327812D01*
X2434095Y329345D02*
X2434095Y323435D01*
X2434095Y329345D02*
X2439505Y329345D01*
X2439505Y323435D01*
X2434095Y323435D01*
X2434095Y327812D02*
X2439505Y327812D01*
X2439455Y344775D02*
X2439455Y351185D01*
X2439455Y344775D02*
X2434045Y344775D01*
X2434045Y351185D01*
X2439455Y351185D01*
X2439455Y349152D02*
X2434045Y349152D01*
X2455455Y351185D02*
X2455455Y344775D01*
X2450045Y344775D01*
X2450045Y351185D01*
X2455455Y351185D01*
X2455455Y349152D02*
X2450045Y349152D01*
D17*
X1337139Y461761D02*
X1337139Y465339D01*
X1337139Y461761D02*
X1333561Y461761D01*
X1333561Y465339D01*
X1337139Y465339D01*
X1337139Y465027D02*
X1333561Y465027D01*
X1346139Y465339D02*
X1346139Y461761D01*
X1342561Y461761D01*
X1342561Y465339D01*
X1346139Y465339D01*
X1346139Y465027D02*
X1342561Y465027D01*
X1610189Y465339D02*
X1610189Y461761D01*
X1606611Y461761D01*
X1606611Y465339D01*
X1610189Y465339D01*
X1610189Y465027D02*
X1606611Y465027D01*
X1619189Y465339D02*
X1619189Y461761D01*
X1615611Y461761D01*
X1615611Y465339D01*
X1619189Y465339D01*
X1619189Y465027D02*
X1615611Y465027D01*
D22*
X1863750Y510700D03*
X1882750Y510700D03*
X1873250Y530700D03*
D23*
X1614600Y358050D03*
X1614600Y231050D03*
X1331800Y315050D03*
X1331800Y442050D03*
D24*
X1403086Y186536D02*
X1403086Y181764D01*
X1397814Y181764D01*
X1397814Y186536D01*
X1403086Y186536D01*
X1403086Y183897D02*
X1397814Y183897D01*
X1397814Y186030D02*
X1403086Y186030D01*
X1421586Y188264D02*
X1421586Y193036D01*
X1421586Y188264D02*
X1416314Y188264D01*
X1416314Y193036D01*
X1421586Y193036D01*
X1421586Y190397D02*
X1416314Y190397D01*
X1416314Y192530D02*
X1421586Y192530D01*
X1421586Y180036D02*
X1421586Y175264D01*
X1416314Y175264D01*
X1416314Y180036D01*
X1421586Y180036D01*
X1421586Y177397D02*
X1416314Y177397D01*
X1416314Y179530D02*
X1421586Y179530D01*
D17*
X1375239Y195061D02*
X1375239Y198639D01*
X1375239Y195061D02*
X1371661Y195061D01*
X1371661Y198639D01*
X1375239Y198639D01*
X1375239Y198327D02*
X1371661Y198327D01*
X1384239Y198639D02*
X1384239Y195061D01*
X1380661Y195061D01*
X1380661Y198639D01*
X1384239Y198639D01*
X1384239Y198327D02*
X1380661Y198327D01*
X2510961Y531611D02*
X2510961Y535189D01*
X2514539Y535189D01*
X2514539Y531611D01*
X2510961Y531611D01*
X2510961Y534877D02*
X2514539Y534877D01*
X2501961Y535189D02*
X2501961Y531611D01*
X2501961Y535189D02*
X2505539Y535189D01*
X2505539Y531611D01*
X2501961Y531611D01*
X2501961Y534877D02*
X2505539Y534877D01*
X2307761Y528839D02*
X2307761Y525261D01*
X2307761Y528839D02*
X2311339Y528839D01*
X2311339Y525261D01*
X2307761Y525261D01*
X2307761Y528527D02*
X2311339Y528527D01*
X2298761Y528839D02*
X2298761Y525261D01*
X2298761Y528839D02*
X2302339Y528839D01*
X2302339Y525261D01*
X2298761Y525261D01*
X2298761Y528527D02*
X2302339Y528527D01*
X1933111Y537961D02*
X1933111Y541539D01*
X1936689Y541539D01*
X1936689Y537961D01*
X1933111Y537961D01*
X1933111Y541227D02*
X1936689Y541227D01*
X1924111Y541539D02*
X1924111Y537961D01*
X1924111Y541539D02*
X1927689Y541539D01*
X1927689Y537961D01*
X1924111Y537961D01*
X1924111Y541227D02*
X1927689Y541227D01*
X1564811Y528839D02*
X1564811Y525261D01*
X1564811Y528839D02*
X1568389Y528839D01*
X1568389Y525261D01*
X1564811Y525261D01*
X1564811Y528527D02*
X1568389Y528527D01*
X1555811Y528839D02*
X1555811Y525261D01*
X1555811Y528839D02*
X1559389Y528839D01*
X1559389Y525261D01*
X1555811Y525261D01*
X1555811Y528527D02*
X1559389Y528527D01*
X1164761Y71639D02*
X1164761Y68061D01*
X1164761Y71639D02*
X1168339Y71639D01*
X1168339Y68061D01*
X1164761Y68061D01*
X1164761Y71327D02*
X1168339Y71327D01*
X1155761Y71639D02*
X1155761Y68061D01*
X1155761Y71639D02*
X1159339Y71639D01*
X1159339Y68061D01*
X1155761Y68061D01*
X1155761Y71327D02*
X1159339Y71327D01*
X1190161Y512561D02*
X1190161Y516139D01*
X1193739Y516139D01*
X1193739Y512561D01*
X1190161Y512561D01*
X1190161Y515827D02*
X1193739Y515827D01*
X1181161Y516139D02*
X1181161Y512561D01*
X1181161Y516139D02*
X1184739Y516139D01*
X1184739Y512561D01*
X1181161Y512561D01*
X1181161Y515827D02*
X1184739Y515827D01*
X809161Y84339D02*
X809161Y80761D01*
X809161Y84339D02*
X812739Y84339D01*
X812739Y80761D01*
X809161Y80761D01*
X809161Y84027D02*
X812739Y84027D01*
X800161Y84339D02*
X800161Y80761D01*
X800161Y84339D02*
X803739Y84339D01*
X803739Y80761D01*
X800161Y80761D01*
X800161Y84027D02*
X803739Y84027D01*
X802811Y499861D02*
X802811Y503439D01*
X806389Y503439D01*
X806389Y499861D01*
X802811Y499861D01*
X802811Y503127D02*
X806389Y503127D01*
X793811Y503439D02*
X793811Y499861D01*
X793811Y503439D02*
X797389Y503439D01*
X797389Y499861D01*
X793811Y499861D01*
X793811Y503127D02*
X797389Y503127D01*
X428161Y512561D02*
X428161Y516139D01*
X431739Y516139D01*
X431739Y512561D01*
X428161Y512561D01*
X428161Y515827D02*
X431739Y515827D01*
X419161Y516139D02*
X419161Y512561D01*
X419161Y516139D02*
X422739Y516139D01*
X422739Y512561D01*
X419161Y512561D01*
X419161Y515827D02*
X422739Y515827D01*
X84339Y472611D02*
X80761Y472611D01*
X80761Y476189D01*
X84339Y476189D01*
X84339Y472611D01*
X84339Y475877D02*
X80761Y475877D01*
X80761Y463611D02*
X84339Y463611D01*
X80761Y463611D02*
X80761Y467189D01*
X84339Y467189D01*
X84339Y463611D01*
X84339Y466877D02*
X80761Y466877D01*
X434511Y97039D02*
X434511Y93461D01*
X434511Y97039D02*
X438089Y97039D01*
X438089Y93461D01*
X434511Y93461D01*
X434511Y96727D02*
X438089Y96727D01*
X425511Y97039D02*
X425511Y93461D01*
X425511Y97039D02*
X429089Y97039D01*
X429089Y93461D01*
X425511Y93461D01*
X425511Y96727D02*
X429089Y96727D01*
X122409Y130639D02*
X118831Y130639D01*
X122409Y130639D02*
X122409Y127061D01*
X118831Y127061D01*
X118831Y130639D01*
X118831Y130327D02*
X122409Y130327D01*
X122409Y139639D02*
X118831Y139639D01*
X122409Y139639D02*
X122409Y136061D01*
X118831Y136061D01*
X118831Y139639D01*
X118831Y139327D02*
X122409Y139327D01*
X1920411Y58939D02*
X1920411Y55361D01*
X1920411Y58939D02*
X1923989Y58939D01*
X1923989Y55361D01*
X1920411Y55361D01*
X1920411Y58627D02*
X1923989Y58627D01*
X1911411Y58939D02*
X1911411Y55361D01*
X1911411Y58939D02*
X1914989Y58939D01*
X1914989Y55361D01*
X1911411Y55361D01*
X1911411Y58627D02*
X1914989Y58627D01*
X2320461Y68061D02*
X2320461Y71639D01*
X2324039Y71639D01*
X2324039Y68061D01*
X2320461Y68061D01*
X2320461Y71327D02*
X2324039Y71327D01*
X2311461Y71639D02*
X2311461Y68061D01*
X2311461Y71639D02*
X2315039Y71639D01*
X2315039Y68061D01*
X2311461Y68061D01*
X2311461Y71327D02*
X2315039Y71327D01*
X1533989Y58939D02*
X1533989Y55361D01*
X1530411Y55361D01*
X1530411Y58939D01*
X1533989Y58939D01*
X1533989Y58627D02*
X1530411Y58627D01*
X1542989Y58939D02*
X1542989Y55361D01*
X1539411Y55361D01*
X1539411Y58939D01*
X1542989Y58939D01*
X1542989Y58627D02*
X1539411Y58627D01*
D25*
X1248000Y400050D03*
X1165000Y400050D03*
D26*
X1248000Y375050D03*
X1248000Y425050D03*
X1165000Y424550D03*
X1165000Y377050D03*
D25*
X1248000Y273050D03*
X1165000Y273050D03*
D26*
X1248000Y248050D03*
X1248000Y298050D03*
X1165000Y297550D03*
X1165000Y250050D03*
D27*
X1828800Y457200D03*
X1854200Y457200D03*
X1879600Y457200D03*
D28*
X1866900Y235204D02*
X1866900Y221996D01*
X1841500Y221996D02*
X1841500Y235204D01*
X1866900Y298196D02*
X1866900Y311404D01*
X1841500Y311404D02*
X1841500Y298196D01*
D29*
X1831413Y136892D02*
X1831413Y121652D01*
X1856813Y119112D02*
X1856813Y134352D01*
X1882213Y136892D02*
X1882213Y121652D01*
X1907613Y119112D02*
X1907613Y134352D01*
D17*
X2282361Y258561D02*
X2282361Y262139D01*
X2285939Y262139D01*
X2285939Y258561D01*
X2282361Y258561D01*
X2282361Y261827D02*
X2285939Y261827D01*
X2273361Y262139D02*
X2273361Y258561D01*
X2273361Y262139D02*
X2276939Y262139D01*
X2276939Y258561D01*
X2273361Y258561D01*
X2273361Y261827D02*
X2276939Y261827D01*
X2276011Y277611D02*
X2276011Y281189D01*
X2279589Y281189D01*
X2279589Y277611D01*
X2276011Y277611D01*
X2276011Y280877D02*
X2279589Y280877D01*
X2267011Y281189D02*
X2267011Y277611D01*
X2267011Y281189D02*
X2270589Y281189D01*
X2270589Y277611D01*
X2267011Y277611D01*
X2267011Y280877D02*
X2270589Y280877D01*
D10*
X2291295Y314545D02*
X2291295Y320455D01*
X2296705Y320455D01*
X2296705Y314545D01*
X2291295Y314545D01*
X2291295Y318922D02*
X2296705Y318922D01*
X2275295Y320455D02*
X2275295Y314545D01*
X2275295Y320455D02*
X2280705Y320455D01*
X2280705Y314545D01*
X2275295Y314545D01*
X2275295Y318922D02*
X2280705Y318922D01*
D30*
X2286700Y298450D03*
X2310700Y298450D03*
D18*
X2341100Y266700D03*
X2307100Y266700D03*
X2372850Y292100D03*
X2338850Y292100D03*
D31*
X2247900Y385300D03*
X2247900Y351300D03*
X2279650Y385300D03*
X2279650Y351300D03*
D32*
X2336800Y317500D03*
X2686050Y209550D03*
D33*
X2668190Y101600D02*
X2653110Y101600D01*
X2653110Y127000D02*
X2668190Y127000D01*
X2668190Y152400D02*
X2653110Y152400D01*
X2653110Y177800D02*
X2668190Y177800D01*
D17*
X103389Y472611D02*
X99811Y472611D01*
X99811Y476189D01*
X103389Y476189D01*
X103389Y472611D01*
X103389Y475877D02*
X99811Y475877D01*
X99811Y463611D02*
X103389Y463611D01*
X99811Y463611D02*
X99811Y467189D01*
X103389Y467189D01*
X103389Y463611D01*
X103389Y466877D02*
X99811Y466877D01*
D10*
X927617Y141355D02*
X931795Y145533D01*
X927617Y141355D02*
X923791Y145181D01*
X927969Y149359D01*
X931795Y145533D01*
X931596Y145732D02*
X924342Y145732D01*
X938931Y130041D02*
X943109Y134219D01*
X938931Y130041D02*
X935105Y133867D01*
X939283Y138045D01*
X943109Y134219D01*
X942910Y134418D02*
X935656Y134418D01*
X1751545Y530195D02*
X1751545Y536605D01*
X1756955Y536605D01*
X1756955Y530195D01*
X1751545Y530195D01*
X1751545Y534572D02*
X1756955Y534572D01*
X1735545Y536605D02*
X1735545Y530195D01*
X1735545Y536605D02*
X1740955Y536605D01*
X1740955Y530195D01*
X1735545Y530195D01*
X1735545Y534572D02*
X1740955Y534572D01*
X1370545Y536605D02*
X1370545Y530195D01*
X1370545Y536605D02*
X1375955Y536605D01*
X1375955Y530195D01*
X1370545Y530195D01*
X1370545Y534572D02*
X1375955Y534572D01*
X1354545Y536605D02*
X1354545Y530195D01*
X1354545Y536605D02*
X1359955Y536605D01*
X1359955Y530195D01*
X1354545Y530195D01*
X1354545Y534572D02*
X1359955Y534572D01*
X1516595Y530255D02*
X1516595Y523845D01*
X1516595Y530255D02*
X1522005Y530255D01*
X1522005Y523845D01*
X1516595Y523845D01*
X1516595Y528222D02*
X1522005Y528222D01*
X1500595Y530255D02*
X1500595Y523845D01*
X1500595Y530255D02*
X1506005Y530255D01*
X1506005Y523845D01*
X1500595Y523845D01*
X1500595Y528222D02*
X1506005Y528222D01*
D29*
X191770Y145750D02*
X176530Y145750D01*
X176530Y165750D02*
X191770Y165750D01*
X191770Y185750D02*
X176530Y185750D01*
X176530Y205750D02*
X191770Y205750D01*
X191770Y225750D02*
X176530Y225750D01*
X176530Y245750D02*
X191770Y245750D01*
X191770Y265750D02*
X176530Y265750D01*
X176530Y285750D02*
X191770Y285750D01*
X191770Y305750D02*
X176530Y305750D01*
X176530Y325750D02*
X191770Y325750D01*
X191770Y345750D02*
X176530Y345750D01*
X176530Y365750D02*
X191770Y365750D01*
X191770Y385750D02*
X176530Y385750D01*
X176530Y405750D02*
X191770Y405750D01*
X191770Y425750D02*
X176530Y425750D01*
D34*
X762000Y457200D03*
X787400Y457200D03*
X812800Y457200D03*
X838200Y457200D03*
X863600Y457200D03*
X889000Y457200D03*
X736600Y457200D03*
X914400Y457200D03*
D35*
X1079500Y349250D03*
D16*
X1981200Y336550D03*
X1955800Y336550D03*
X1955800Y234950D03*
X1981200Y234950D03*
D17*
X1982989Y371011D02*
X1979411Y371011D01*
X1979411Y374589D01*
X1982989Y374589D01*
X1982989Y371011D01*
X1982989Y374277D02*
X1979411Y374277D01*
X1979411Y362011D02*
X1982989Y362011D01*
X1979411Y362011D02*
X1979411Y365589D01*
X1982989Y365589D01*
X1982989Y362011D01*
X1982989Y365277D02*
X1979411Y365277D01*
D36*
X2628900Y347300D03*
X2628900Y262300D03*
D10*
X2420405Y263305D02*
X2420405Y257395D01*
X2414995Y257395D01*
X2414995Y263305D01*
X2420405Y263305D01*
X2420405Y261772D02*
X2414995Y261772D01*
X2436405Y263305D02*
X2436405Y257395D01*
X2430995Y257395D01*
X2430995Y263305D01*
X2436405Y263305D01*
X2436405Y261772D02*
X2430995Y261772D01*
D37*
X2412855Y230539D03*
X2442855Y230539D03*
D10*
X2474565Y392215D02*
X2480975Y392215D01*
X2480975Y386805D01*
X2474565Y386805D01*
X2474565Y392215D01*
X2474565Y391182D02*
X2480975Y391182D01*
X2480975Y408215D02*
X2474565Y408215D01*
X2480975Y408215D02*
X2480975Y402805D01*
X2474565Y402805D01*
X2474565Y408215D01*
X2474565Y407182D02*
X2480975Y407182D01*
D35*
X1714500Y349250D03*
D29*
X2101550Y417830D02*
X2101550Y433070D01*
X2121550Y433070D02*
X2121550Y417830D01*
X2141550Y417830D02*
X2141550Y433070D01*
X2161550Y433070D02*
X2161550Y417830D01*
X2181550Y417830D02*
X2181550Y433070D01*
X2201550Y433070D02*
X2201550Y417830D01*
X2221550Y417830D02*
X2221550Y433070D01*
X2241550Y433070D02*
X2241550Y417830D01*
X2261550Y417830D02*
X2261550Y433070D01*
X2281550Y433070D02*
X2281550Y417830D01*
X2301550Y417830D02*
X2301550Y433070D01*
X2321550Y433070D02*
X2321550Y417830D01*
X2341550Y417830D02*
X2341550Y433070D01*
X2361550Y433070D02*
X2361550Y417830D01*
X2381550Y417830D02*
X2381550Y433070D01*
X2101550Y204470D02*
X2101550Y189230D01*
X2121550Y189230D02*
X2121550Y204470D01*
X2141550Y204470D02*
X2141550Y189230D01*
X2161550Y189230D02*
X2161550Y204470D01*
X2181550Y204470D02*
X2181550Y189230D01*
X2201550Y189230D02*
X2201550Y204470D01*
X2221550Y204470D02*
X2221550Y189230D01*
X2241550Y189230D02*
X2241550Y204470D01*
X2261550Y204470D02*
X2261550Y189230D01*
X2281550Y189230D02*
X2281550Y204470D01*
X2301550Y204470D02*
X2301550Y189230D01*
X2321550Y189230D02*
X2321550Y204470D01*
X2341550Y204470D02*
X2341550Y189230D01*
X2361550Y189230D02*
X2361550Y204470D01*
X2381550Y204470D02*
X2381550Y189230D01*
D38*
X2165100Y326250D03*
X2165100Y349250D03*
X2165100Y372250D03*
D39*
X2102100Y349250D03*
D12*
X2195146Y327654D02*
X2199054Y327654D01*
X2199054Y323746D01*
X2195146Y323746D01*
X2195146Y327654D01*
X2195146Y327174D02*
X2199054Y327174D01*
X2199054Y336654D02*
X2195146Y336654D01*
X2199054Y336654D02*
X2199054Y332746D01*
X2195146Y332746D01*
X2195146Y336654D01*
X2195146Y336174D02*
X2199054Y336174D01*
X2225046Y294054D02*
X2225046Y290146D01*
X2225046Y294054D02*
X2228954Y294054D01*
X2228954Y290146D01*
X2225046Y290146D01*
X2225046Y293574D02*
X2228954Y293574D01*
X2216046Y294054D02*
X2216046Y290146D01*
X2216046Y294054D02*
X2219954Y294054D01*
X2219954Y290146D01*
X2216046Y290146D01*
X2216046Y293574D02*
X2219954Y293574D01*
D38*
X2165100Y243700D03*
X2165100Y266700D03*
X2165100Y289700D03*
D39*
X2102100Y266700D03*
D12*
X2195146Y245104D02*
X2199054Y245104D01*
X2199054Y241196D01*
X2195146Y241196D01*
X2195146Y245104D01*
X2195146Y244624D02*
X2199054Y244624D01*
X2199054Y254104D02*
X2195146Y254104D01*
X2199054Y254104D02*
X2199054Y250196D01*
X2195146Y250196D01*
X2195146Y254104D01*
X2195146Y253624D02*
X2199054Y253624D01*
X2231396Y271096D02*
X2231396Y275004D01*
X2235304Y275004D01*
X2235304Y271096D01*
X2231396Y271096D01*
X2231396Y274524D02*
X2235304Y274524D01*
X2222396Y275004D02*
X2222396Y271096D01*
X2222396Y275004D02*
X2226304Y275004D01*
X2226304Y271096D01*
X2222396Y271096D01*
X2222396Y274524D02*
X2226304Y274524D01*
D10*
X2522005Y282545D02*
X2522005Y288955D01*
X2522005Y282545D02*
X2516595Y282545D01*
X2516595Y288955D01*
X2522005Y288955D01*
X2522005Y286922D02*
X2516595Y286922D01*
X2538005Y288955D02*
X2538005Y282545D01*
X2532595Y282545D01*
X2532595Y288955D01*
X2538005Y288955D01*
X2538005Y286922D02*
X2532595Y286922D01*
D37*
X2532140Y219710D03*
X2502140Y219710D03*
X2532140Y180340D03*
X2502140Y180340D03*
X2532140Y140970D03*
X2502140Y140970D03*
D27*
X1828800Y381000D03*
X1854200Y381000D03*
X1879600Y381000D03*
D17*
X2061961Y200489D02*
X2065539Y200489D01*
X2065539Y196911D01*
X2061961Y196911D01*
X2061961Y200489D01*
X2061961Y200177D02*
X2065539Y200177D01*
X2065539Y209489D02*
X2061961Y209489D01*
X2065539Y209489D02*
X2065539Y205911D01*
X2061961Y205911D01*
X2061961Y209489D01*
X2061961Y209177D02*
X2065539Y209177D01*
X1990261Y141489D02*
X1990261Y137911D01*
X1990261Y141489D02*
X1993839Y141489D01*
X1993839Y137911D01*
X1990261Y137911D01*
X1990261Y141177D02*
X1993839Y141177D01*
X1981261Y141489D02*
X1981261Y137911D01*
X1981261Y141489D02*
X1984839Y141489D01*
X1984839Y137911D01*
X1981261Y137911D01*
X1981261Y141177D02*
X1984839Y141177D01*
D10*
X2518195Y254855D02*
X2518195Y260765D01*
X2518195Y254855D02*
X2512785Y254855D01*
X2512785Y260765D01*
X2518195Y260765D01*
X2518195Y259232D02*
X2512785Y259232D01*
X2534195Y260765D02*
X2534195Y254855D01*
X2528785Y254855D01*
X2528785Y260765D01*
X2534195Y260765D01*
X2534195Y259232D02*
X2528785Y259232D01*
X2615145Y458055D02*
X2615145Y463965D01*
X2620555Y463965D01*
X2620555Y458055D01*
X2615145Y458055D01*
X2615145Y462432D02*
X2620555Y462432D01*
X2599145Y463965D02*
X2599145Y458055D01*
X2599145Y463965D02*
X2604555Y463965D01*
X2604555Y458055D01*
X2599145Y458055D01*
X2599145Y462432D02*
X2604555Y462432D01*
X2411945Y352205D02*
X2411945Y346295D01*
X2411945Y352205D02*
X2417355Y352205D01*
X2417355Y346295D01*
X2411945Y346295D01*
X2411945Y350672D02*
X2417355Y350672D01*
X2395945Y352205D02*
X2395945Y346295D01*
X2395945Y352205D02*
X2401355Y352205D01*
X2401355Y346295D01*
X2395945Y346295D01*
X2395945Y350672D02*
X2401355Y350672D01*
D40*
X2647950Y412750D03*
X2647950Y438150D03*
D41*
X2444750Y187680D03*
X2444750Y152680D03*
X2579370Y145770D03*
X2579370Y110770D03*
D17*
X1908639Y461761D02*
X1908639Y465339D01*
X1908639Y461761D02*
X1905061Y461761D01*
X1905061Y465339D01*
X1908639Y465339D01*
X1908639Y465027D02*
X1905061Y465027D01*
X1917639Y465339D02*
X1917639Y461761D01*
X1914061Y461761D01*
X1914061Y465339D01*
X1917639Y465339D01*
X1917639Y465027D02*
X1914061Y465027D01*
X1798839Y428161D02*
X1795261Y428161D01*
X1795261Y431739D01*
X1798839Y431739D01*
X1798839Y428161D01*
X1798839Y431427D02*
X1795261Y431427D01*
X1795261Y419161D02*
X1798839Y419161D01*
X1795261Y419161D02*
X1795261Y422739D01*
X1798839Y422739D01*
X1798839Y419161D01*
X1798839Y422427D02*
X1795261Y422427D01*
X1801611Y364661D02*
X1805189Y364661D01*
X1801611Y364661D02*
X1801611Y368239D01*
X1805189Y368239D01*
X1805189Y364661D01*
X1805189Y367927D02*
X1801611Y367927D01*
X1801611Y355661D02*
X1805189Y355661D01*
X1801611Y355661D02*
X1801611Y359239D01*
X1805189Y359239D01*
X1805189Y355661D01*
X1805189Y358927D02*
X1801611Y358927D01*
X1914989Y379211D02*
X1914989Y382789D01*
X1914989Y379211D02*
X1911411Y379211D01*
X1911411Y382789D01*
X1914989Y382789D01*
X1914989Y382477D02*
X1911411Y382477D01*
X1923989Y382789D02*
X1923989Y379211D01*
X1920411Y379211D01*
X1920411Y382789D01*
X1923989Y382789D01*
X1923989Y382477D02*
X1920411Y382477D01*
X2418831Y390989D02*
X2422409Y390989D01*
X2422409Y387411D01*
X2418831Y387411D01*
X2418831Y390989D01*
X2418831Y390677D02*
X2422409Y390677D01*
X2422409Y399989D02*
X2418831Y399989D01*
X2422409Y399989D02*
X2422409Y396411D01*
X2418831Y396411D01*
X2418831Y399989D01*
X2418831Y399677D02*
X2422409Y399677D01*
D35*
X44450Y381000D03*
D40*
X2254250Y139700D03*
X2197100Y114300D03*
X2298700Y114300D03*
X2197100Y520700D03*
X2501900Y88900D03*
X2597150Y69850D03*
M02*
