G04 EAGLE Gerber RS-274X export*
G75*
%MOMM*%
%FSLAX34Y34*%
%LPD*%
%INSolderpaste Top*%
%IPPOS*%
%AMOC8*
5,1,8,0,0,1.08239X$1,22.5*%
G01*
%ADD10C,0.360000*%
%ADD11R,1.150000X1.650000*%
%ADD12C,0.260000*%
%ADD13R,10.000000X10.000000*%
%ADD14R,1.550000X0.300000*%
%ADD15R,6.100000X6.100000*%
%ADD16R,1.400000X1.800000*%
%ADD17C,0.240000*%
%ADD18R,1.150000X0.800000*%
%ADD19C,0.350000*%
%ADD20R,2.360000X4.850000*%
%ADD21C,0.460000*%
%ADD22R,0.800000X0.900000*%
%ADD23R,2.800000X0.800000*%
%ADD24C,0.120000*%
%ADD25R,2.700000X1.033000*%
%ADD26R,2.700000X2.066000*%
%ADD27R,1.050000X0.500000*%
%ADD28R,0.800000X1.150000*%
%ADD29R,5.500000X4.000000*%
%ADD30R,1.150000X2.700000*%
%ADD31R,2.000000X1.500000*%
%ADD32R,2.000000X3.800000*%
%ADD33R,1.600000X2.550000*%
%ADD34C,1.524000*%

G36*
X1450804Y349549D02*
X1450804Y349549D01*
X1450804Y349550D01*
X1450804Y450550D01*
X1450801Y450554D01*
X1450800Y450554D01*
X1436800Y450554D01*
X1436796Y450551D01*
X1436796Y450550D01*
X1436796Y443554D01*
X1407804Y443554D01*
X1407804Y450050D01*
X1407801Y450054D01*
X1407800Y450054D01*
X1370800Y450054D01*
X1370796Y450051D01*
X1370796Y450050D01*
X1370796Y350050D01*
X1370799Y350046D01*
X1370800Y350046D01*
X1407800Y350046D01*
X1407804Y350049D01*
X1407804Y350050D01*
X1407804Y356546D01*
X1436796Y356546D01*
X1436796Y349550D01*
X1436799Y349546D01*
X1436800Y349546D01*
X1450800Y349546D01*
X1450804Y349549D01*
G37*
G36*
X1509604Y349549D02*
X1509604Y349549D01*
X1509604Y349550D01*
X1509604Y356546D01*
X1538596Y356546D01*
X1538596Y350050D01*
X1538599Y350046D01*
X1538600Y350046D01*
X1575600Y350046D01*
X1575604Y350049D01*
X1575604Y350050D01*
X1575604Y450050D01*
X1575601Y450054D01*
X1575600Y450054D01*
X1538600Y450054D01*
X1538596Y450051D01*
X1538596Y450050D01*
X1538596Y443554D01*
X1509604Y443554D01*
X1509604Y450550D01*
X1509601Y450554D01*
X1509600Y450554D01*
X1495600Y450554D01*
X1495596Y450551D01*
X1495596Y450550D01*
X1495596Y349550D01*
X1495599Y349546D01*
X1495600Y349546D01*
X1509600Y349546D01*
X1509604Y349549D01*
G37*
G36*
X1450804Y222549D02*
X1450804Y222549D01*
X1450804Y222550D01*
X1450804Y323550D01*
X1450801Y323554D01*
X1450800Y323554D01*
X1436800Y323554D01*
X1436796Y323551D01*
X1436796Y323550D01*
X1436796Y316554D01*
X1407804Y316554D01*
X1407804Y323050D01*
X1407801Y323054D01*
X1407800Y323054D01*
X1370800Y323054D01*
X1370796Y323051D01*
X1370796Y323050D01*
X1370796Y223050D01*
X1370799Y223046D01*
X1370800Y223046D01*
X1407800Y223046D01*
X1407804Y223049D01*
X1407804Y223050D01*
X1407804Y229546D01*
X1436796Y229546D01*
X1436796Y222550D01*
X1436799Y222546D01*
X1436800Y222546D01*
X1450800Y222546D01*
X1450804Y222549D01*
G37*
G36*
X1509604Y222549D02*
X1509604Y222549D01*
X1509604Y222550D01*
X1509604Y229546D01*
X1538596Y229546D01*
X1538596Y223050D01*
X1538599Y223046D01*
X1538600Y223046D01*
X1575600Y223046D01*
X1575604Y223049D01*
X1575604Y223050D01*
X1575604Y323050D01*
X1575601Y323054D01*
X1575600Y323054D01*
X1538600Y323054D01*
X1538596Y323051D01*
X1538596Y323050D01*
X1538596Y316554D01*
X1509604Y316554D01*
X1509604Y323550D01*
X1509601Y323554D01*
X1509600Y323554D01*
X1495600Y323554D01*
X1495596Y323551D01*
X1495596Y323550D01*
X1495596Y222550D01*
X1495599Y222546D01*
X1495600Y222546D01*
X1509600Y222546D01*
X1509604Y222549D01*
G37*
G36*
X1345804Y354049D02*
X1345804Y354049D01*
X1345804Y354050D01*
X1345804Y434050D01*
X1345801Y434054D01*
X1345800Y434054D01*
X1317800Y434054D01*
X1317796Y434051D01*
X1317796Y434050D01*
X1317796Y426050D01*
X1317799Y426046D01*
X1317800Y426046D01*
X1338196Y426046D01*
X1338196Y422054D01*
X1317800Y422054D01*
X1317796Y422051D01*
X1317796Y422050D01*
X1317796Y414050D01*
X1317799Y414046D01*
X1317800Y414046D01*
X1338196Y414046D01*
X1338196Y410054D01*
X1317800Y410054D01*
X1317796Y410051D01*
X1317796Y410050D01*
X1317796Y402050D01*
X1317799Y402046D01*
X1317800Y402046D01*
X1338196Y402046D01*
X1338196Y398054D01*
X1317800Y398054D01*
X1317796Y398051D01*
X1317796Y398050D01*
X1317796Y390050D01*
X1317799Y390046D01*
X1317800Y390046D01*
X1338196Y390046D01*
X1338196Y386054D01*
X1317800Y386054D01*
X1317796Y386051D01*
X1317796Y386050D01*
X1317796Y378050D01*
X1317799Y378046D01*
X1317800Y378046D01*
X1338196Y378046D01*
X1338196Y374054D01*
X1317800Y374054D01*
X1317796Y374051D01*
X1317796Y374050D01*
X1317796Y366050D01*
X1317799Y366046D01*
X1317800Y366046D01*
X1338196Y366046D01*
X1338196Y362054D01*
X1317800Y362054D01*
X1317796Y362051D01*
X1317796Y362050D01*
X1317796Y354050D01*
X1317799Y354046D01*
X1317800Y354046D01*
X1345800Y354046D01*
X1345804Y354049D01*
G37*
G36*
X1345804Y227049D02*
X1345804Y227049D01*
X1345804Y227050D01*
X1345804Y307050D01*
X1345801Y307054D01*
X1345800Y307054D01*
X1317800Y307054D01*
X1317796Y307051D01*
X1317796Y307050D01*
X1317796Y299050D01*
X1317799Y299046D01*
X1317800Y299046D01*
X1338196Y299046D01*
X1338196Y295054D01*
X1317800Y295054D01*
X1317796Y295051D01*
X1317796Y295050D01*
X1317796Y287050D01*
X1317799Y287046D01*
X1317800Y287046D01*
X1338196Y287046D01*
X1338196Y283054D01*
X1317800Y283054D01*
X1317796Y283051D01*
X1317796Y283050D01*
X1317796Y275050D01*
X1317799Y275046D01*
X1317800Y275046D01*
X1338196Y275046D01*
X1338196Y271054D01*
X1317800Y271054D01*
X1317796Y271051D01*
X1317796Y271050D01*
X1317796Y263050D01*
X1317799Y263046D01*
X1317800Y263046D01*
X1338196Y263046D01*
X1338196Y259054D01*
X1317800Y259054D01*
X1317796Y259051D01*
X1317796Y259050D01*
X1317796Y251050D01*
X1317799Y251046D01*
X1317800Y251046D01*
X1338196Y251046D01*
X1338196Y247054D01*
X1317800Y247054D01*
X1317796Y247051D01*
X1317796Y247050D01*
X1317796Y239050D01*
X1317799Y239046D01*
X1317800Y239046D01*
X1338196Y239046D01*
X1338196Y235054D01*
X1317800Y235054D01*
X1317796Y235051D01*
X1317796Y235050D01*
X1317796Y227050D01*
X1317799Y227046D01*
X1317800Y227046D01*
X1345800Y227046D01*
X1345804Y227049D01*
G37*
G36*
X1628604Y366049D02*
X1628604Y366049D01*
X1628604Y366050D01*
X1628604Y374050D01*
X1628601Y374054D01*
X1628600Y374054D01*
X1608204Y374054D01*
X1608204Y378046D01*
X1628600Y378046D01*
X1628604Y378049D01*
X1628604Y378050D01*
X1628604Y386050D01*
X1628601Y386054D01*
X1628600Y386054D01*
X1608204Y386054D01*
X1608204Y390046D01*
X1628600Y390046D01*
X1628604Y390049D01*
X1628604Y390050D01*
X1628604Y398050D01*
X1628601Y398054D01*
X1628600Y398054D01*
X1608204Y398054D01*
X1608204Y402046D01*
X1628600Y402046D01*
X1628604Y402049D01*
X1628604Y402050D01*
X1628604Y410050D01*
X1628601Y410054D01*
X1628600Y410054D01*
X1608204Y410054D01*
X1608204Y414046D01*
X1628600Y414046D01*
X1628604Y414049D01*
X1628604Y414050D01*
X1628604Y422050D01*
X1628601Y422054D01*
X1628600Y422054D01*
X1608204Y422054D01*
X1608204Y426046D01*
X1628600Y426046D01*
X1628604Y426049D01*
X1628604Y426050D01*
X1628604Y434050D01*
X1628601Y434054D01*
X1628600Y434054D01*
X1608204Y434054D01*
X1608204Y438046D01*
X1628600Y438046D01*
X1628604Y438049D01*
X1628604Y438050D01*
X1628604Y446050D01*
X1628601Y446054D01*
X1628600Y446054D01*
X1600600Y446054D01*
X1600596Y446051D01*
X1600596Y446050D01*
X1600596Y366050D01*
X1600599Y366046D01*
X1600600Y366046D01*
X1628600Y366046D01*
X1628604Y366049D01*
G37*
G36*
X1628604Y239049D02*
X1628604Y239049D01*
X1628604Y239050D01*
X1628604Y247050D01*
X1628601Y247054D01*
X1628600Y247054D01*
X1608204Y247054D01*
X1608204Y251046D01*
X1628600Y251046D01*
X1628604Y251049D01*
X1628604Y251050D01*
X1628604Y259050D01*
X1628601Y259054D01*
X1628600Y259054D01*
X1608204Y259054D01*
X1608204Y263046D01*
X1628600Y263046D01*
X1628604Y263049D01*
X1628604Y263050D01*
X1628604Y271050D01*
X1628601Y271054D01*
X1628600Y271054D01*
X1608204Y271054D01*
X1608204Y275046D01*
X1628600Y275046D01*
X1628604Y275049D01*
X1628604Y275050D01*
X1628604Y283050D01*
X1628601Y283054D01*
X1628600Y283054D01*
X1608204Y283054D01*
X1608204Y287046D01*
X1628600Y287046D01*
X1628604Y287049D01*
X1628604Y287050D01*
X1628604Y295050D01*
X1628601Y295054D01*
X1628600Y295054D01*
X1608204Y295054D01*
X1608204Y299046D01*
X1628600Y299046D01*
X1628604Y299049D01*
X1628604Y299050D01*
X1628604Y307050D01*
X1628601Y307054D01*
X1628600Y307054D01*
X1608204Y307054D01*
X1608204Y311046D01*
X1628600Y311046D01*
X1628604Y311049D01*
X1628604Y311050D01*
X1628604Y319050D01*
X1628601Y319054D01*
X1628600Y319054D01*
X1600600Y319054D01*
X1600596Y319051D01*
X1600596Y319050D01*
X1600596Y239050D01*
X1600599Y239046D01*
X1600600Y239046D01*
X1628600Y239046D01*
X1628604Y239049D01*
G37*
G36*
X2534480Y337901D02*
X2534480Y337901D01*
X2534481Y337901D01*
X2534974Y337972D01*
X2534975Y337972D01*
X2535428Y338179D01*
X2535428Y338180D01*
X2535429Y338180D01*
X2535805Y338506D01*
X2535805Y338507D01*
X2535806Y338507D01*
X2536075Y338926D01*
X2536075Y338927D01*
X2536076Y338927D01*
X2536216Y339405D01*
X2536216Y339406D01*
X2536216Y339904D01*
X2536216Y339905D01*
X2536076Y340383D01*
X2536075Y340384D01*
X2535806Y340803D01*
X2535805Y340804D01*
X2535429Y341130D01*
X2535428Y341130D01*
X2535428Y341131D01*
X2534975Y341338D01*
X2534974Y341338D01*
X2534481Y341409D01*
X2534480Y341409D01*
X2530404Y341409D01*
X2530404Y344401D01*
X2534480Y344401D01*
X2534481Y344401D01*
X2534974Y344472D01*
X2534975Y344472D01*
X2535428Y344679D01*
X2535428Y344680D01*
X2535429Y344680D01*
X2535805Y345006D01*
X2535805Y345007D01*
X2535806Y345007D01*
X2536075Y345426D01*
X2536075Y345427D01*
X2536076Y345427D01*
X2536216Y345905D01*
X2536216Y345906D01*
X2536216Y346404D01*
X2536216Y346405D01*
X2536076Y346883D01*
X2536075Y346884D01*
X2535806Y347303D01*
X2535805Y347304D01*
X2535429Y347630D01*
X2535428Y347630D01*
X2535428Y347631D01*
X2534975Y347838D01*
X2534974Y347838D01*
X2534481Y347909D01*
X2534480Y347909D01*
X2530404Y347909D01*
X2530404Y350901D01*
X2534480Y350901D01*
X2534481Y350901D01*
X2534974Y350972D01*
X2534975Y350972D01*
X2535428Y351179D01*
X2535428Y351180D01*
X2535429Y351180D01*
X2535805Y351506D01*
X2535805Y351507D01*
X2535806Y351507D01*
X2536075Y351926D01*
X2536075Y351927D01*
X2536076Y351927D01*
X2536216Y352405D01*
X2536216Y352406D01*
X2536216Y352904D01*
X2536216Y352905D01*
X2536076Y353383D01*
X2536075Y353384D01*
X2535806Y353803D01*
X2535805Y353804D01*
X2535429Y354130D01*
X2535428Y354130D01*
X2535428Y354131D01*
X2534975Y354338D01*
X2534974Y354338D01*
X2534481Y354409D01*
X2534480Y354409D01*
X2530404Y354409D01*
X2530404Y357401D01*
X2534480Y357401D01*
X2534481Y357401D01*
X2534974Y357472D01*
X2534975Y357472D01*
X2535428Y357679D01*
X2535428Y357680D01*
X2535429Y357680D01*
X2535805Y358006D01*
X2535805Y358007D01*
X2535806Y358007D01*
X2536075Y358426D01*
X2536075Y358427D01*
X2536076Y358427D01*
X2536216Y358905D01*
X2536216Y358906D01*
X2536216Y359404D01*
X2536216Y359405D01*
X2536076Y359883D01*
X2536075Y359884D01*
X2535806Y360303D01*
X2535805Y360304D01*
X2535429Y360630D01*
X2535428Y360630D01*
X2535428Y360631D01*
X2534975Y360838D01*
X2534974Y360838D01*
X2534481Y360909D01*
X2534480Y360909D01*
X2503400Y360909D01*
X2503396Y360906D01*
X2503396Y360905D01*
X2503396Y337905D01*
X2503399Y337901D01*
X2503400Y337901D01*
X2534480Y337901D01*
X2534480Y337901D01*
G37*
G36*
X2505400Y308589D02*
X2505400Y308589D01*
X2505878Y308729D01*
X2505879Y308730D01*
X2506298Y308999D01*
X2506299Y309000D01*
X2506625Y309376D01*
X2506625Y309377D01*
X2506626Y309377D01*
X2506833Y309830D01*
X2506833Y309831D01*
X2506833Y309833D01*
X2506834Y309833D01*
X2506837Y309854D01*
X2506838Y309862D01*
X2506841Y309883D01*
X2506844Y309904D01*
X2506847Y309925D01*
X2506850Y309946D01*
X2506850Y309947D01*
X2506853Y309968D01*
X2506854Y309976D01*
X2506857Y309997D01*
X2506860Y310018D01*
X2506863Y310039D01*
X2506866Y310060D01*
X2506869Y310081D01*
X2506869Y310082D01*
X2506872Y310103D01*
X2506874Y310111D01*
X2506877Y310132D01*
X2506880Y310153D01*
X2506883Y310174D01*
X2506886Y310195D01*
X2506889Y310216D01*
X2506889Y310217D01*
X2506890Y310225D01*
X2506893Y310246D01*
X2506896Y310267D01*
X2506899Y310288D01*
X2506902Y310309D01*
X2506904Y310324D01*
X2506904Y310325D01*
X2506904Y314401D01*
X2509896Y314401D01*
X2509896Y310325D01*
X2509896Y310324D01*
X2509967Y309831D01*
X2509967Y309830D01*
X2510174Y309377D01*
X2510175Y309377D01*
X2510175Y309376D01*
X2510501Y309000D01*
X2510502Y309000D01*
X2510502Y308999D01*
X2510921Y308730D01*
X2510922Y308730D01*
X2510922Y308729D01*
X2511400Y308589D01*
X2511401Y308589D01*
X2511899Y308589D01*
X2511900Y308589D01*
X2512378Y308729D01*
X2512379Y308730D01*
X2512798Y308999D01*
X2512799Y309000D01*
X2513125Y309376D01*
X2513125Y309377D01*
X2513126Y309377D01*
X2513333Y309830D01*
X2513333Y309831D01*
X2513333Y309833D01*
X2513334Y309833D01*
X2513337Y309854D01*
X2513338Y309862D01*
X2513341Y309883D01*
X2513344Y309904D01*
X2513347Y309925D01*
X2513350Y309946D01*
X2513350Y309947D01*
X2513353Y309968D01*
X2513354Y309976D01*
X2513357Y309997D01*
X2513360Y310018D01*
X2513363Y310039D01*
X2513366Y310060D01*
X2513369Y310081D01*
X2513369Y310082D01*
X2513372Y310103D01*
X2513374Y310111D01*
X2513377Y310132D01*
X2513380Y310153D01*
X2513383Y310174D01*
X2513386Y310195D01*
X2513389Y310216D01*
X2513389Y310217D01*
X2513390Y310225D01*
X2513393Y310246D01*
X2513396Y310267D01*
X2513399Y310288D01*
X2513402Y310309D01*
X2513404Y310324D01*
X2513404Y310325D01*
X2513404Y314401D01*
X2516396Y314401D01*
X2516396Y310325D01*
X2516396Y310324D01*
X2516467Y309831D01*
X2516467Y309830D01*
X2516674Y309377D01*
X2516675Y309377D01*
X2516675Y309376D01*
X2517001Y309000D01*
X2517002Y309000D01*
X2517002Y308999D01*
X2517421Y308730D01*
X2517422Y308730D01*
X2517422Y308729D01*
X2517900Y308589D01*
X2517901Y308589D01*
X2518399Y308589D01*
X2518400Y308589D01*
X2518878Y308729D01*
X2518879Y308730D01*
X2519298Y308999D01*
X2519299Y309000D01*
X2519625Y309376D01*
X2519625Y309377D01*
X2519626Y309377D01*
X2519833Y309830D01*
X2519833Y309831D01*
X2519833Y309833D01*
X2519834Y309833D01*
X2519837Y309854D01*
X2519838Y309862D01*
X2519841Y309883D01*
X2519844Y309904D01*
X2519847Y309925D01*
X2519850Y309946D01*
X2519850Y309947D01*
X2519853Y309968D01*
X2519854Y309976D01*
X2519857Y309997D01*
X2519860Y310018D01*
X2519863Y310039D01*
X2519866Y310060D01*
X2519869Y310081D01*
X2519869Y310082D01*
X2519872Y310103D01*
X2519874Y310111D01*
X2519877Y310132D01*
X2519880Y310153D01*
X2519883Y310174D01*
X2519886Y310195D01*
X2519889Y310216D01*
X2519889Y310217D01*
X2519890Y310225D01*
X2519893Y310246D01*
X2519896Y310267D01*
X2519899Y310288D01*
X2519902Y310309D01*
X2519904Y310324D01*
X2519904Y310325D01*
X2519904Y314401D01*
X2522896Y314401D01*
X2522896Y310325D01*
X2522896Y310324D01*
X2522967Y309831D01*
X2522967Y309830D01*
X2523174Y309377D01*
X2523175Y309377D01*
X2523175Y309376D01*
X2523501Y309000D01*
X2523502Y309000D01*
X2523502Y308999D01*
X2523921Y308730D01*
X2523922Y308730D01*
X2523922Y308729D01*
X2524400Y308589D01*
X2524401Y308589D01*
X2524899Y308589D01*
X2524900Y308589D01*
X2525378Y308729D01*
X2525379Y308730D01*
X2525798Y308999D01*
X2525799Y309000D01*
X2526125Y309376D01*
X2526125Y309377D01*
X2526126Y309377D01*
X2526333Y309830D01*
X2526333Y309831D01*
X2526333Y309833D01*
X2526334Y309833D01*
X2526337Y309854D01*
X2526338Y309862D01*
X2526341Y309883D01*
X2526344Y309904D01*
X2526347Y309925D01*
X2526350Y309946D01*
X2526350Y309947D01*
X2526353Y309968D01*
X2526354Y309976D01*
X2526357Y309997D01*
X2526360Y310018D01*
X2526363Y310039D01*
X2526366Y310060D01*
X2526369Y310081D01*
X2526369Y310082D01*
X2526372Y310103D01*
X2526374Y310111D01*
X2526377Y310132D01*
X2526380Y310153D01*
X2526383Y310174D01*
X2526386Y310195D01*
X2526389Y310216D01*
X2526389Y310217D01*
X2526390Y310225D01*
X2526393Y310246D01*
X2526396Y310267D01*
X2526399Y310288D01*
X2526402Y310309D01*
X2526404Y310324D01*
X2526404Y310325D01*
X2526404Y314401D01*
X2530400Y314401D01*
X2530404Y314404D01*
X2530404Y314405D01*
X2530404Y318401D01*
X2534480Y318401D01*
X2534481Y318401D01*
X2534974Y318472D01*
X2534975Y318472D01*
X2535428Y318679D01*
X2535428Y318680D01*
X2535429Y318680D01*
X2535805Y319006D01*
X2535805Y319007D01*
X2535806Y319007D01*
X2536075Y319426D01*
X2536075Y319427D01*
X2536076Y319427D01*
X2536216Y319905D01*
X2536216Y319906D01*
X2536216Y320404D01*
X2536216Y320405D01*
X2536076Y320883D01*
X2536075Y320884D01*
X2535806Y321303D01*
X2535805Y321304D01*
X2535429Y321630D01*
X2535428Y321630D01*
X2535428Y321631D01*
X2534975Y321838D01*
X2534974Y321838D01*
X2534481Y321909D01*
X2534480Y321909D01*
X2530404Y321909D01*
X2530404Y324901D01*
X2534480Y324901D01*
X2534481Y324901D01*
X2534974Y324972D01*
X2534975Y324972D01*
X2535428Y325179D01*
X2535428Y325180D01*
X2535429Y325180D01*
X2535805Y325506D01*
X2535805Y325507D01*
X2535806Y325507D01*
X2536075Y325926D01*
X2536075Y325927D01*
X2536076Y325927D01*
X2536216Y326405D01*
X2536216Y326406D01*
X2536216Y326904D01*
X2536216Y326905D01*
X2536076Y327383D01*
X2536075Y327384D01*
X2535806Y327803D01*
X2535805Y327804D01*
X2535429Y328130D01*
X2535428Y328130D01*
X2535428Y328131D01*
X2534975Y328338D01*
X2534974Y328338D01*
X2534481Y328409D01*
X2534480Y328409D01*
X2530404Y328409D01*
X2530404Y331401D01*
X2534480Y331401D01*
X2534481Y331401D01*
X2534974Y331472D01*
X2534975Y331472D01*
X2535428Y331679D01*
X2535428Y331680D01*
X2535429Y331680D01*
X2535805Y332006D01*
X2535805Y332007D01*
X2535806Y332007D01*
X2536075Y332426D01*
X2536075Y332427D01*
X2536076Y332427D01*
X2536216Y332905D01*
X2536216Y332906D01*
X2536216Y333404D01*
X2536216Y333405D01*
X2536076Y333883D01*
X2536075Y333884D01*
X2535806Y334303D01*
X2535805Y334304D01*
X2535429Y334630D01*
X2535428Y334630D01*
X2535428Y334631D01*
X2534975Y334838D01*
X2534974Y334838D01*
X2534481Y334909D01*
X2534480Y334909D01*
X2503400Y334909D01*
X2503396Y334906D01*
X2503396Y334905D01*
X2503396Y310325D01*
X2503396Y310324D01*
X2503467Y309831D01*
X2503467Y309830D01*
X2503674Y309377D01*
X2503675Y309377D01*
X2503675Y309376D01*
X2504001Y309000D01*
X2504002Y309000D01*
X2504002Y308999D01*
X2504421Y308730D01*
X2504422Y308730D01*
X2504422Y308729D01*
X2504900Y308589D01*
X2504901Y308589D01*
X2505399Y308589D01*
X2505400Y308589D01*
G37*
G36*
X2534480Y363901D02*
X2534480Y363901D01*
X2534481Y363901D01*
X2534974Y363972D01*
X2534975Y363972D01*
X2535428Y364179D01*
X2535428Y364180D01*
X2535429Y364180D01*
X2535805Y364506D01*
X2535805Y364507D01*
X2535806Y364507D01*
X2536075Y364926D01*
X2536075Y364927D01*
X2536076Y364927D01*
X2536216Y365405D01*
X2536216Y365406D01*
X2536216Y365904D01*
X2536216Y365905D01*
X2536076Y366383D01*
X2536075Y366384D01*
X2535806Y366803D01*
X2535805Y366804D01*
X2535429Y367130D01*
X2535428Y367130D01*
X2535428Y367131D01*
X2534975Y367338D01*
X2534974Y367338D01*
X2534481Y367409D01*
X2534480Y367409D01*
X2530404Y367409D01*
X2530404Y371405D01*
X2530401Y371409D01*
X2530400Y371409D01*
X2526404Y371409D01*
X2526404Y375485D01*
X2526404Y375486D01*
X2526333Y375979D01*
X2526333Y375980D01*
X2526126Y376433D01*
X2526125Y376433D01*
X2526125Y376434D01*
X2525799Y376810D01*
X2525798Y376810D01*
X2525798Y376811D01*
X2525379Y377080D01*
X2525378Y377080D01*
X2525378Y377081D01*
X2524900Y377221D01*
X2524899Y377221D01*
X2524401Y377221D01*
X2524400Y377221D01*
X2523922Y377081D01*
X2523921Y377080D01*
X2523502Y376811D01*
X2523502Y376810D01*
X2523501Y376810D01*
X2523175Y376434D01*
X2523175Y376433D01*
X2523174Y376433D01*
X2522967Y375980D01*
X2522967Y375979D01*
X2522964Y375963D01*
X2522961Y375942D01*
X2522958Y375921D01*
X2522958Y375920D01*
X2522955Y375899D01*
X2522952Y375878D01*
X2522949Y375857D01*
X2522948Y375849D01*
X2522945Y375828D01*
X2522942Y375807D01*
X2522939Y375786D01*
X2522939Y375785D01*
X2522936Y375764D01*
X2522933Y375743D01*
X2522930Y375722D01*
X2522929Y375714D01*
X2522926Y375693D01*
X2522923Y375672D01*
X2522920Y375651D01*
X2522920Y375650D01*
X2522917Y375629D01*
X2522916Y375629D01*
X2522913Y375608D01*
X2522912Y375600D01*
X2522909Y375579D01*
X2522906Y375558D01*
X2522903Y375537D01*
X2522900Y375516D01*
X2522900Y375515D01*
X2522897Y375494D01*
X2522896Y375486D01*
X2522896Y375485D01*
X2522896Y371409D01*
X2519904Y371409D01*
X2519904Y375485D01*
X2519904Y375486D01*
X2519833Y375979D01*
X2519833Y375980D01*
X2519626Y376433D01*
X2519625Y376433D01*
X2519625Y376434D01*
X2519299Y376810D01*
X2519298Y376810D01*
X2519298Y376811D01*
X2518879Y377080D01*
X2518878Y377080D01*
X2518878Y377081D01*
X2518400Y377221D01*
X2518399Y377221D01*
X2517901Y377221D01*
X2517900Y377221D01*
X2517422Y377081D01*
X2517421Y377080D01*
X2517002Y376811D01*
X2517002Y376810D01*
X2517001Y376810D01*
X2516675Y376434D01*
X2516675Y376433D01*
X2516674Y376433D01*
X2516467Y375980D01*
X2516467Y375979D01*
X2516464Y375963D01*
X2516461Y375942D01*
X2516458Y375921D01*
X2516458Y375920D01*
X2516455Y375899D01*
X2516452Y375878D01*
X2516449Y375857D01*
X2516448Y375849D01*
X2516445Y375828D01*
X2516442Y375807D01*
X2516439Y375786D01*
X2516439Y375785D01*
X2516436Y375764D01*
X2516433Y375743D01*
X2516430Y375722D01*
X2516429Y375714D01*
X2516426Y375693D01*
X2516423Y375672D01*
X2516420Y375651D01*
X2516420Y375650D01*
X2516417Y375629D01*
X2516416Y375629D01*
X2516413Y375608D01*
X2516412Y375600D01*
X2516409Y375579D01*
X2516406Y375558D01*
X2516403Y375537D01*
X2516400Y375516D01*
X2516400Y375515D01*
X2516397Y375494D01*
X2516396Y375486D01*
X2516396Y375485D01*
X2516396Y371409D01*
X2513404Y371409D01*
X2513404Y375485D01*
X2513404Y375486D01*
X2513333Y375979D01*
X2513333Y375980D01*
X2513126Y376433D01*
X2513125Y376433D01*
X2513125Y376434D01*
X2512799Y376810D01*
X2512798Y376810D01*
X2512798Y376811D01*
X2512379Y377080D01*
X2512378Y377080D01*
X2512378Y377081D01*
X2511900Y377221D01*
X2511899Y377221D01*
X2511401Y377221D01*
X2511400Y377221D01*
X2510922Y377081D01*
X2510921Y377080D01*
X2510502Y376811D01*
X2510502Y376810D01*
X2510501Y376810D01*
X2510175Y376434D01*
X2510175Y376433D01*
X2510174Y376433D01*
X2509967Y375980D01*
X2509967Y375979D01*
X2509964Y375963D01*
X2509961Y375942D01*
X2509958Y375921D01*
X2509958Y375920D01*
X2509955Y375899D01*
X2509952Y375878D01*
X2509949Y375857D01*
X2509948Y375849D01*
X2509945Y375828D01*
X2509942Y375807D01*
X2509939Y375786D01*
X2509939Y375785D01*
X2509936Y375764D01*
X2509933Y375743D01*
X2509930Y375722D01*
X2509929Y375714D01*
X2509926Y375693D01*
X2509923Y375672D01*
X2509920Y375651D01*
X2509920Y375650D01*
X2509917Y375629D01*
X2509916Y375629D01*
X2509913Y375608D01*
X2509912Y375600D01*
X2509909Y375579D01*
X2509906Y375558D01*
X2509903Y375537D01*
X2509900Y375516D01*
X2509900Y375515D01*
X2509897Y375494D01*
X2509896Y375486D01*
X2509896Y375485D01*
X2509896Y363905D01*
X2509899Y363901D01*
X2509900Y363901D01*
X2534480Y363901D01*
X2534480Y363901D01*
G37*
D10*
X500620Y365340D02*
X500620Y371240D01*
X506020Y371240D01*
X506020Y365340D01*
X500620Y365340D01*
X500620Y368760D02*
X506020Y368760D01*
X484620Y371240D02*
X484620Y365340D01*
X484620Y371240D02*
X490020Y371240D01*
X490020Y365340D01*
X484620Y365340D01*
X484620Y368760D02*
X490020Y368760D01*
X500600Y295050D02*
X500600Y289150D01*
X500600Y295050D02*
X506000Y295050D01*
X506000Y289150D01*
X500600Y289150D01*
X500600Y292570D02*
X506000Y292570D01*
X484600Y295050D02*
X484600Y289150D01*
X484600Y295050D02*
X490000Y295050D01*
X490000Y289150D01*
X484600Y289150D01*
X484600Y292570D02*
X490000Y292570D01*
X505050Y208500D02*
X510950Y208500D01*
X505050Y208500D02*
X505050Y213900D01*
X510950Y213900D01*
X510950Y208500D01*
X510950Y211920D02*
X505050Y211920D01*
X505050Y192500D02*
X510950Y192500D01*
X505050Y192500D02*
X505050Y197900D01*
X510950Y197900D01*
X510950Y192500D01*
X510950Y195920D02*
X505050Y195920D01*
D11*
X554770Y393670D03*
X524770Y393670D03*
X554750Y311150D03*
X524750Y311150D03*
X554750Y234950D03*
X524750Y234950D03*
X415040Y444550D03*
X385040Y444550D03*
X542070Y419130D03*
X512070Y419130D03*
X554660Y349100D03*
X524660Y349100D03*
X554750Y273050D03*
X524750Y273050D03*
D10*
X500600Y327250D02*
X500600Y333150D01*
X506000Y333150D01*
X506000Y327250D01*
X500600Y327250D01*
X500600Y330670D02*
X506000Y330670D01*
X484600Y333150D02*
X484600Y327250D01*
X484600Y333150D02*
X490000Y333150D01*
X490000Y327250D01*
X484600Y327250D01*
X484600Y330670D02*
X490000Y330670D01*
D12*
X724325Y415932D02*
X727082Y413175D01*
X724325Y415932D02*
X727082Y418689D01*
X729839Y415932D01*
X727082Y413175D01*
X729552Y415645D02*
X724612Y415645D01*
X726508Y418115D02*
X727656Y418115D01*
X717961Y409568D02*
X720718Y406811D01*
X717961Y409568D02*
X720718Y412325D01*
X723475Y409568D01*
X720718Y406811D01*
X723188Y409281D02*
X718248Y409281D01*
X720144Y411751D02*
X721292Y411751D01*
X714382Y419525D02*
X711625Y422282D01*
X714382Y425039D01*
X717139Y422282D01*
X714382Y419525D01*
X716852Y421995D02*
X711912Y421995D01*
X713808Y424465D02*
X714956Y424465D01*
X705261Y415918D02*
X708018Y413161D01*
X705261Y415918D02*
X708018Y418675D01*
X710775Y415918D01*
X708018Y413161D01*
X710488Y415631D02*
X705548Y415631D01*
X707444Y418101D02*
X708592Y418101D01*
X698925Y403232D02*
X701682Y400475D01*
X698925Y403232D02*
X701682Y405989D01*
X704439Y403232D01*
X701682Y400475D01*
X704152Y402945D02*
X699212Y402945D01*
X701108Y405415D02*
X702256Y405415D01*
X692561Y396868D02*
X695318Y394111D01*
X692561Y396868D02*
X695318Y399625D01*
X698075Y396868D01*
X695318Y394111D01*
X697788Y396581D02*
X692848Y396581D01*
X694744Y399051D02*
X695892Y399051D01*
X676282Y400475D02*
X673525Y403232D01*
X676282Y405989D01*
X679039Y403232D01*
X676282Y400475D01*
X678752Y402945D02*
X673812Y402945D01*
X675708Y405415D02*
X676856Y405415D01*
X667161Y396868D02*
X669918Y394111D01*
X667161Y396868D02*
X669918Y399625D01*
X672675Y396868D01*
X669918Y394111D01*
X672388Y396581D02*
X667448Y396581D01*
X669344Y399051D02*
X670492Y399051D01*
X679875Y384182D02*
X682632Y381425D01*
X679875Y384182D02*
X682632Y386939D01*
X685389Y384182D01*
X682632Y381425D01*
X685102Y383895D02*
X680162Y383895D01*
X682058Y386365D02*
X683206Y386365D01*
X673511Y377818D02*
X676268Y375061D01*
X673511Y377818D02*
X676268Y380575D01*
X679025Y377818D01*
X676268Y375061D01*
X678738Y377531D02*
X673798Y377531D01*
X675694Y380001D02*
X676842Y380001D01*
X673525Y301632D02*
X676282Y298875D01*
X673525Y301632D02*
X676282Y304389D01*
X679039Y301632D01*
X676282Y298875D01*
X678752Y301345D02*
X673812Y301345D01*
X675708Y303815D02*
X676856Y303815D01*
X667161Y295268D02*
X669918Y292511D01*
X667161Y295268D02*
X669918Y298025D01*
X672675Y295268D01*
X669918Y292511D01*
X672388Y294981D02*
X667448Y294981D01*
X669344Y297451D02*
X670492Y297451D01*
X659975Y269882D02*
X657218Y267125D01*
X654461Y269882D01*
X657218Y272639D01*
X659975Y269882D01*
X659688Y269595D02*
X654748Y269595D01*
X656644Y272065D02*
X657792Y272065D01*
X666339Y263518D02*
X663582Y260761D01*
X660825Y263518D01*
X663582Y266275D01*
X666339Y263518D01*
X666052Y263231D02*
X661112Y263231D01*
X663008Y265701D02*
X664156Y265701D01*
D10*
X352180Y418050D02*
X346280Y418050D01*
X346280Y423450D01*
X352180Y423450D01*
X352180Y418050D01*
X352180Y421470D02*
X346280Y421470D01*
X346280Y402050D02*
X352180Y402050D01*
X346280Y402050D02*
X346280Y407450D01*
X352180Y407450D01*
X352180Y402050D01*
X352180Y405470D02*
X346280Y405470D01*
D12*
X866768Y412325D02*
X869525Y409568D01*
X866768Y406811D01*
X864011Y409568D01*
X866768Y412325D01*
X869238Y409281D02*
X864298Y409281D01*
X866194Y411751D02*
X867342Y411751D01*
X873132Y418689D02*
X875889Y415932D01*
X873132Y413175D01*
X870375Y415932D01*
X873132Y418689D01*
X875602Y415645D02*
X870662Y415645D01*
X872558Y418115D02*
X873706Y418115D01*
D10*
X883177Y258668D02*
X887348Y254497D01*
X883529Y250678D01*
X879358Y254849D01*
X883177Y258668D01*
X880109Y254098D02*
X886949Y254098D01*
X884327Y257518D02*
X882027Y257518D01*
X894491Y269982D02*
X898662Y265811D01*
X894843Y261992D01*
X890672Y266163D01*
X894491Y269982D01*
X891423Y265412D02*
X898263Y265412D01*
X895641Y268832D02*
X893341Y268832D01*
X583160Y441540D02*
X583160Y447440D01*
X588560Y447440D01*
X588560Y441540D01*
X583160Y441540D01*
X583160Y444960D02*
X588560Y444960D01*
X567160Y447440D02*
X567160Y441540D01*
X567160Y447440D02*
X572560Y447440D01*
X572560Y441540D01*
X567160Y441540D01*
X567160Y444960D02*
X572560Y444960D01*
X500600Y256950D02*
X500600Y251050D01*
X500600Y256950D02*
X506000Y256950D01*
X506000Y251050D01*
X500600Y251050D01*
X500600Y254470D02*
X506000Y254470D01*
X484600Y256950D02*
X484600Y251050D01*
X484600Y256950D02*
X490000Y256950D01*
X490000Y251050D01*
X484600Y251050D01*
X484600Y254470D02*
X490000Y254470D01*
D13*
X2025000Y540000D03*
X2025000Y60000D03*
X2405000Y540000D03*
X2405000Y60000D03*
X2595000Y540000D03*
X1645000Y540000D03*
X1645000Y60000D03*
D14*
G36*
X798554Y366708D02*
X787595Y377667D01*
X789716Y379788D01*
X800675Y368829D01*
X798554Y366708D01*
G37*
G36*
X795019Y363172D02*
X784060Y374131D01*
X786181Y376252D01*
X797140Y365293D01*
X795019Y363172D01*
G37*
G36*
X791483Y359637D02*
X780524Y370596D01*
X782645Y372717D01*
X793604Y361758D01*
X791483Y359637D01*
G37*
G36*
X787947Y356101D02*
X776988Y367060D01*
X779109Y369181D01*
X790068Y358222D01*
X787947Y356101D01*
G37*
G36*
X784412Y352566D02*
X773453Y363525D01*
X775574Y365646D01*
X786533Y354687D01*
X784412Y352566D01*
G37*
G36*
X780876Y349030D02*
X769917Y359989D01*
X772038Y362110D01*
X782997Y351151D01*
X780876Y349030D01*
G37*
G36*
X777341Y345495D02*
X766382Y356454D01*
X768503Y358575D01*
X779462Y347616D01*
X777341Y345495D01*
G37*
G36*
X773805Y341959D02*
X762846Y352918D01*
X764967Y355039D01*
X775926Y344080D01*
X773805Y341959D01*
G37*
G36*
X770270Y338424D02*
X759311Y349383D01*
X761432Y351504D01*
X772391Y340545D01*
X770270Y338424D01*
G37*
G36*
X766734Y334888D02*
X755775Y345847D01*
X757896Y347968D01*
X768855Y337009D01*
X766734Y334888D01*
G37*
G36*
X763199Y331353D02*
X752240Y342312D01*
X754361Y344433D01*
X765320Y333474D01*
X763199Y331353D01*
G37*
G36*
X759663Y327817D02*
X748704Y338776D01*
X750825Y340897D01*
X761784Y329938D01*
X759663Y327817D01*
G37*
G36*
X756128Y324282D02*
X745169Y335241D01*
X747290Y337362D01*
X758249Y326403D01*
X756128Y324282D01*
G37*
G36*
X752592Y320746D02*
X741633Y331705D01*
X743754Y333826D01*
X754713Y322867D01*
X752592Y320746D01*
G37*
G36*
X749057Y317210D02*
X738098Y328169D01*
X740219Y330290D01*
X751178Y319331D01*
X749057Y317210D01*
G37*
G36*
X745521Y313675D02*
X734562Y324634D01*
X736683Y326755D01*
X747642Y315796D01*
X745521Y313675D01*
G37*
G36*
X747642Y293804D02*
X736683Y282845D01*
X734562Y284966D01*
X745521Y295925D01*
X747642Y293804D01*
G37*
G36*
X751178Y290269D02*
X740219Y279310D01*
X738098Y281431D01*
X749057Y292390D01*
X751178Y290269D01*
G37*
G36*
X754713Y286733D02*
X743754Y275774D01*
X741633Y277895D01*
X752592Y288854D01*
X754713Y286733D01*
G37*
G36*
X758249Y283197D02*
X747290Y272238D01*
X745169Y274359D01*
X756128Y285318D01*
X758249Y283197D01*
G37*
G36*
X761784Y279662D02*
X750825Y268703D01*
X748704Y270824D01*
X759663Y281783D01*
X761784Y279662D01*
G37*
G36*
X765320Y276126D02*
X754361Y265167D01*
X752240Y267288D01*
X763199Y278247D01*
X765320Y276126D01*
G37*
G36*
X768855Y272591D02*
X757896Y261632D01*
X755775Y263753D01*
X766734Y274712D01*
X768855Y272591D01*
G37*
G36*
X772391Y269055D02*
X761432Y258096D01*
X759311Y260217D01*
X770270Y271176D01*
X772391Y269055D01*
G37*
G36*
X775926Y265520D02*
X764967Y254561D01*
X762846Y256682D01*
X773805Y267641D01*
X775926Y265520D01*
G37*
G36*
X779462Y261984D02*
X768503Y251025D01*
X766382Y253146D01*
X777341Y264105D01*
X779462Y261984D01*
G37*
G36*
X782997Y258449D02*
X772038Y247490D01*
X769917Y249611D01*
X780876Y260570D01*
X782997Y258449D01*
G37*
G36*
X786533Y254913D02*
X775574Y243954D01*
X773453Y246075D01*
X784412Y257034D01*
X786533Y254913D01*
G37*
G36*
X790068Y251378D02*
X779109Y240419D01*
X776988Y242540D01*
X787947Y253499D01*
X790068Y251378D01*
G37*
G36*
X793604Y247842D02*
X782645Y236883D01*
X780524Y239004D01*
X791483Y249963D01*
X793604Y247842D01*
G37*
G36*
X797140Y244307D02*
X786181Y233348D01*
X784060Y235469D01*
X795019Y246428D01*
X797140Y244307D01*
G37*
G36*
X800675Y240771D02*
X789716Y229812D01*
X787595Y231933D01*
X798554Y242892D01*
X800675Y240771D01*
G37*
G36*
X820546Y242892D02*
X831505Y231933D01*
X829384Y229812D01*
X818425Y240771D01*
X820546Y242892D01*
G37*
G36*
X824081Y246428D02*
X835040Y235469D01*
X832919Y233348D01*
X821960Y244307D01*
X824081Y246428D01*
G37*
G36*
X827617Y249963D02*
X838576Y239004D01*
X836455Y236883D01*
X825496Y247842D01*
X827617Y249963D01*
G37*
G36*
X831153Y253499D02*
X842112Y242540D01*
X839991Y240419D01*
X829032Y251378D01*
X831153Y253499D01*
G37*
G36*
X834688Y257034D02*
X845647Y246075D01*
X843526Y243954D01*
X832567Y254913D01*
X834688Y257034D01*
G37*
G36*
X838224Y260570D02*
X849183Y249611D01*
X847062Y247490D01*
X836103Y258449D01*
X838224Y260570D01*
G37*
G36*
X841759Y264105D02*
X852718Y253146D01*
X850597Y251025D01*
X839638Y261984D01*
X841759Y264105D01*
G37*
G36*
X845295Y267641D02*
X856254Y256682D01*
X854133Y254561D01*
X843174Y265520D01*
X845295Y267641D01*
G37*
G36*
X848830Y271176D02*
X859789Y260217D01*
X857668Y258096D01*
X846709Y269055D01*
X848830Y271176D01*
G37*
G36*
X852366Y274712D02*
X863325Y263753D01*
X861204Y261632D01*
X850245Y272591D01*
X852366Y274712D01*
G37*
G36*
X855901Y278247D02*
X866860Y267288D01*
X864739Y265167D01*
X853780Y276126D01*
X855901Y278247D01*
G37*
G36*
X859437Y281783D02*
X870396Y270824D01*
X868275Y268703D01*
X857316Y279662D01*
X859437Y281783D01*
G37*
G36*
X862972Y285318D02*
X873931Y274359D01*
X871810Y272238D01*
X860851Y283197D01*
X862972Y285318D01*
G37*
G36*
X866508Y288854D02*
X877467Y277895D01*
X875346Y275774D01*
X864387Y286733D01*
X866508Y288854D01*
G37*
G36*
X870043Y292390D02*
X881002Y281431D01*
X878881Y279310D01*
X867922Y290269D01*
X870043Y292390D01*
G37*
G36*
X873579Y295925D02*
X884538Y284966D01*
X882417Y282845D01*
X871458Y293804D01*
X873579Y295925D01*
G37*
G36*
X871458Y315796D02*
X882417Y326755D01*
X884538Y324634D01*
X873579Y313675D01*
X871458Y315796D01*
G37*
G36*
X867922Y319331D02*
X878881Y330290D01*
X881002Y328169D01*
X870043Y317210D01*
X867922Y319331D01*
G37*
G36*
X864387Y322867D02*
X875346Y333826D01*
X877467Y331705D01*
X866508Y320746D01*
X864387Y322867D01*
G37*
G36*
X860851Y326403D02*
X871810Y337362D01*
X873931Y335241D01*
X862972Y324282D01*
X860851Y326403D01*
G37*
G36*
X857316Y329938D02*
X868275Y340897D01*
X870396Y338776D01*
X859437Y327817D01*
X857316Y329938D01*
G37*
G36*
X853780Y333474D02*
X864739Y344433D01*
X866860Y342312D01*
X855901Y331353D01*
X853780Y333474D01*
G37*
G36*
X850478Y337242D02*
X861437Y348201D01*
X863558Y346080D01*
X852599Y335121D01*
X850478Y337242D01*
G37*
G36*
X846709Y340545D02*
X857668Y351504D01*
X859789Y349383D01*
X848830Y338424D01*
X846709Y340545D01*
G37*
G36*
X843174Y344080D02*
X854133Y355039D01*
X856254Y352918D01*
X845295Y341959D01*
X843174Y344080D01*
G37*
G36*
X839638Y347616D02*
X850597Y358575D01*
X852718Y356454D01*
X841759Y345495D01*
X839638Y347616D01*
G37*
G36*
X836103Y351151D02*
X847062Y362110D01*
X849183Y359989D01*
X838224Y349030D01*
X836103Y351151D01*
G37*
G36*
X832567Y354687D02*
X843526Y365646D01*
X845647Y363525D01*
X834688Y352566D01*
X832567Y354687D01*
G37*
G36*
X829032Y358222D02*
X839991Y369181D01*
X842112Y367060D01*
X831153Y356101D01*
X829032Y358222D01*
G37*
G36*
X825496Y361758D02*
X836455Y372717D01*
X838576Y370596D01*
X827617Y359637D01*
X825496Y361758D01*
G37*
G36*
X821960Y365293D02*
X832919Y376252D01*
X835040Y374131D01*
X824081Y363172D01*
X821960Y365293D01*
G37*
G36*
X818425Y368829D02*
X829384Y379788D01*
X831505Y377667D01*
X820546Y366708D01*
X818425Y368829D01*
G37*
D15*
G36*
X809550Y261667D02*
X766417Y304800D01*
X809550Y347933D01*
X852683Y304800D01*
X809550Y261667D01*
G37*
D16*
X2044700Y304800D03*
X2019300Y304800D03*
X2019300Y203200D03*
X2044700Y203200D03*
D17*
X524380Y366500D02*
X524380Y370100D01*
X524380Y366500D02*
X520780Y366500D01*
X520780Y370100D01*
X524380Y370100D01*
X524380Y368780D02*
X520780Y368780D01*
X533380Y370100D02*
X533380Y366500D01*
X529780Y366500D01*
X529780Y370100D01*
X533380Y370100D01*
X533380Y368780D02*
X529780Y368780D01*
X524350Y293900D02*
X524350Y290300D01*
X520750Y290300D01*
X520750Y293900D01*
X524350Y293900D01*
X524350Y292580D02*
X520750Y292580D01*
X533350Y293900D02*
X533350Y290300D01*
X529750Y290300D01*
X529750Y293900D01*
X533350Y293900D01*
X533350Y292580D02*
X529750Y292580D01*
X524350Y217700D02*
X524350Y214100D01*
X520750Y214100D01*
X520750Y217700D01*
X524350Y217700D01*
X524350Y216380D02*
X520750Y216380D01*
X533350Y217700D02*
X533350Y214100D01*
X529750Y214100D01*
X529750Y217700D01*
X533350Y217700D01*
X533350Y216380D02*
X529750Y216380D01*
X391000Y423670D02*
X391000Y427270D01*
X391000Y423670D02*
X387400Y423670D01*
X387400Y427270D01*
X391000Y427270D01*
X391000Y425950D02*
X387400Y425950D01*
X400000Y427270D02*
X400000Y423670D01*
X396400Y423670D01*
X396400Y427270D01*
X400000Y427270D01*
X400000Y425950D02*
X396400Y425950D01*
X580600Y427260D02*
X580600Y423660D01*
X580600Y427260D02*
X584200Y427260D01*
X584200Y423660D01*
X580600Y423660D01*
X580600Y425940D02*
X584200Y425940D01*
X571600Y427260D02*
X571600Y423660D01*
X571600Y427260D02*
X575200Y427260D01*
X575200Y423660D01*
X571600Y423660D01*
X571600Y425940D02*
X575200Y425940D01*
X524350Y331890D02*
X524350Y328290D01*
X520750Y328290D01*
X520750Y331890D01*
X524350Y331890D01*
X524350Y330570D02*
X520750Y330570D01*
X533350Y331890D02*
X533350Y328290D01*
X529750Y328290D01*
X529750Y331890D01*
X533350Y331890D01*
X533350Y330570D02*
X529750Y330570D01*
X524350Y255800D02*
X524350Y252200D01*
X520750Y252200D01*
X520750Y255800D01*
X524350Y255800D01*
X524350Y254480D02*
X520750Y254480D01*
X533350Y255800D02*
X533350Y252200D01*
X529750Y252200D01*
X529750Y255800D01*
X533350Y255800D01*
X533350Y254480D02*
X529750Y254480D01*
X575150Y410950D02*
X575150Y414550D01*
X575150Y410950D02*
X571550Y410950D01*
X571550Y414550D01*
X575150Y414550D01*
X575150Y413230D02*
X571550Y413230D01*
X584150Y414550D02*
X584150Y410950D01*
X580550Y410950D01*
X580550Y414550D01*
X584150Y414550D01*
X584150Y413230D02*
X580550Y413230D01*
X556100Y370100D02*
X556100Y366500D01*
X552500Y366500D01*
X552500Y370100D01*
X556100Y370100D01*
X556100Y368780D02*
X552500Y368780D01*
X565100Y370100D02*
X565100Y366500D01*
X561500Y366500D01*
X561500Y370100D01*
X565100Y370100D01*
X565100Y368780D02*
X561500Y368780D01*
X556100Y332000D02*
X556100Y328400D01*
X552500Y328400D01*
X552500Y332000D01*
X556100Y332000D01*
X556100Y330680D02*
X552500Y330680D01*
X565100Y332000D02*
X565100Y328400D01*
X561500Y328400D01*
X561500Y332000D01*
X565100Y332000D01*
X565100Y330680D02*
X561500Y330680D01*
X556100Y293900D02*
X556100Y290300D01*
X552500Y290300D01*
X552500Y293900D01*
X556100Y293900D01*
X556100Y292580D02*
X552500Y292580D01*
X565100Y293900D02*
X565100Y290300D01*
X561500Y290300D01*
X561500Y293900D01*
X565100Y293900D01*
X565100Y292580D02*
X561500Y292580D01*
X556100Y255800D02*
X556100Y252200D01*
X552500Y252200D01*
X552500Y255800D01*
X556100Y255800D01*
X556100Y254480D02*
X552500Y254480D01*
X565100Y255800D02*
X565100Y252200D01*
X561500Y252200D01*
X561500Y255800D01*
X565100Y255800D01*
X565100Y254480D02*
X561500Y254480D01*
X556100Y217700D02*
X556100Y214100D01*
X552500Y214100D01*
X552500Y217700D01*
X556100Y217700D01*
X556100Y216380D02*
X552500Y216380D01*
X565100Y217700D02*
X565100Y214100D01*
X561500Y214100D01*
X561500Y217700D01*
X565100Y217700D01*
X565100Y216380D02*
X561500Y216380D01*
X416400Y423650D02*
X416400Y427250D01*
X416400Y423650D02*
X412800Y423650D01*
X412800Y427250D01*
X416400Y427250D01*
X416400Y425930D02*
X412800Y425930D01*
X425400Y427250D02*
X425400Y423650D01*
X421800Y423650D01*
X421800Y427250D01*
X425400Y427250D01*
X425400Y425930D02*
X421800Y425930D01*
X942968Y165737D02*
X945513Y168282D01*
X942968Y165737D02*
X940423Y168282D01*
X942968Y170827D01*
X945513Y168282D01*
X945248Y168017D02*
X940688Y168017D01*
X942438Y170297D02*
X943498Y170297D01*
X951877Y161918D02*
X949332Y159373D01*
X946787Y161918D01*
X949332Y164463D01*
X951877Y161918D01*
X951612Y161653D02*
X947052Y161653D01*
X948802Y163933D02*
X949862Y163933D01*
X926463Y168282D02*
X923918Y165737D01*
X921373Y168282D01*
X923918Y170827D01*
X926463Y168282D01*
X926198Y168017D02*
X921638Y168017D01*
X923388Y170297D02*
X924448Y170297D01*
X932827Y161918D02*
X930282Y159373D01*
X927737Y161918D01*
X930282Y164463D01*
X932827Y161918D01*
X932562Y161653D02*
X928002Y161653D01*
X929752Y163933D02*
X930812Y163933D01*
X843913Y403218D02*
X841368Y405763D01*
X843913Y403218D02*
X841368Y400673D01*
X838823Y403218D01*
X841368Y405763D01*
X843648Y402953D02*
X839088Y402953D01*
X840838Y405233D02*
X841898Y405233D01*
X847732Y412127D02*
X850277Y409582D01*
X847732Y407037D01*
X845187Y409582D01*
X847732Y412127D01*
X850012Y409317D02*
X845452Y409317D01*
X847202Y411597D02*
X848262Y411597D01*
D10*
X360900Y390300D02*
X360900Y384400D01*
X360900Y390300D02*
X366300Y390300D01*
X366300Y384400D01*
X360900Y384400D01*
X360900Y387820D02*
X366300Y387820D01*
X344900Y390300D02*
X344900Y384400D01*
X344900Y390300D02*
X350300Y390300D01*
X350300Y384400D01*
X344900Y384400D01*
X344900Y387820D02*
X350300Y387820D01*
D17*
X391000Y389150D02*
X391000Y385550D01*
X387400Y385550D01*
X387400Y389150D01*
X391000Y389150D01*
X391000Y387830D02*
X387400Y387830D01*
X400000Y389150D02*
X400000Y385550D01*
X396400Y385550D01*
X396400Y389150D01*
X400000Y389150D01*
X400000Y387830D02*
X396400Y387830D01*
X417300Y403700D02*
X420900Y403700D01*
X420900Y400100D01*
X417300Y400100D01*
X417300Y403700D01*
X417300Y402380D02*
X420900Y402380D01*
X420900Y412700D02*
X417300Y412700D01*
X420900Y412700D02*
X420900Y409100D01*
X417300Y409100D01*
X417300Y412700D01*
X417300Y411380D02*
X420900Y411380D01*
D11*
X402350Y406400D03*
X372350Y406400D03*
D13*
X1265000Y60000D03*
D10*
X360890Y346330D02*
X360890Y352230D01*
X366290Y352230D01*
X366290Y346330D01*
X360890Y346330D01*
X360890Y349750D02*
X366290Y349750D01*
X344890Y352230D02*
X344890Y346330D01*
X344890Y352230D02*
X350290Y352230D01*
X350290Y346330D01*
X344890Y346330D01*
X344890Y349750D02*
X350290Y349750D01*
D17*
X391020Y351100D02*
X391020Y347500D01*
X387420Y347500D01*
X387420Y351100D01*
X391020Y351100D01*
X391020Y349780D02*
X387420Y349780D01*
X400020Y351100D02*
X400020Y347500D01*
X396420Y347500D01*
X396420Y351100D01*
X400020Y351100D01*
X400020Y349780D02*
X396420Y349780D01*
X416400Y351050D02*
X416400Y347450D01*
X412800Y347450D01*
X412800Y351050D01*
X416400Y351050D01*
X416400Y349730D02*
X412800Y349730D01*
X425400Y351050D02*
X425400Y347450D01*
X421800Y347450D01*
X421800Y351050D01*
X425400Y351050D01*
X425400Y349730D02*
X421800Y349730D01*
D11*
X413866Y366767D03*
X383866Y366767D03*
D13*
X1265000Y540000D03*
D10*
X360900Y314100D02*
X360900Y308200D01*
X360900Y314100D02*
X366300Y314100D01*
X366300Y308200D01*
X360900Y308200D01*
X360900Y311620D02*
X366300Y311620D01*
X344900Y314100D02*
X344900Y308200D01*
X344900Y314100D02*
X350300Y314100D01*
X350300Y308200D01*
X344900Y308200D01*
X344900Y311620D02*
X350300Y311620D01*
D17*
X391000Y312950D02*
X391000Y309350D01*
X387400Y309350D01*
X387400Y312950D01*
X391000Y312950D01*
X391000Y311630D02*
X387400Y311630D01*
X400000Y312950D02*
X400000Y309350D01*
X396400Y309350D01*
X396400Y312950D01*
X400000Y312950D01*
X400000Y311630D02*
X396400Y311630D01*
X416400Y312950D02*
X416400Y309350D01*
X412800Y309350D01*
X412800Y312950D01*
X416400Y312950D01*
X416400Y311630D02*
X412800Y311630D01*
X425400Y312950D02*
X425400Y309350D01*
X421800Y309350D01*
X421800Y312950D01*
X425400Y312950D01*
X425400Y311630D02*
X421800Y311630D01*
D11*
X415080Y330220D03*
X385080Y330220D03*
D12*
X701668Y178225D02*
X704425Y180982D01*
X701668Y178225D02*
X698911Y180982D01*
X701668Y183739D01*
X704425Y180982D01*
X704138Y180695D02*
X699198Y180695D01*
X701094Y183165D02*
X702242Y183165D01*
X710789Y174618D02*
X708032Y171861D01*
X705275Y174618D01*
X708032Y177375D01*
X710789Y174618D01*
X710502Y174331D02*
X705562Y174331D01*
X707458Y176801D02*
X708606Y176801D01*
D13*
X885000Y60000D03*
D12*
X679025Y250832D02*
X676268Y248075D01*
X673511Y250832D01*
X676268Y253589D01*
X679025Y250832D01*
X678738Y250545D02*
X673798Y250545D01*
X675694Y253015D02*
X676842Y253015D01*
X685389Y244468D02*
X682632Y241711D01*
X679875Y244468D01*
X682632Y247225D01*
X685389Y244468D01*
X685102Y244181D02*
X680162Y244181D01*
X682058Y246651D02*
X683206Y246651D01*
D10*
X360900Y270100D02*
X360900Y276000D01*
X366300Y276000D01*
X366300Y270100D01*
X360900Y270100D01*
X360900Y273520D02*
X366300Y273520D01*
X344900Y276000D02*
X344900Y270100D01*
X344900Y276000D02*
X350300Y276000D01*
X350300Y270100D01*
X344900Y270100D01*
X344900Y273520D02*
X350300Y273520D01*
D17*
X391000Y274850D02*
X391000Y271250D01*
X387400Y271250D01*
X387400Y274850D01*
X391000Y274850D01*
X391000Y273530D02*
X387400Y273530D01*
X400000Y274850D02*
X400000Y271250D01*
X396400Y271250D01*
X396400Y274850D01*
X400000Y274850D01*
X400000Y273530D02*
X396400Y273530D01*
X416400Y274850D02*
X416400Y271250D01*
X412800Y271250D01*
X412800Y274850D01*
X416400Y274850D01*
X416400Y273530D02*
X412800Y273530D01*
X425400Y274850D02*
X425400Y271250D01*
X421800Y271250D01*
X421800Y274850D01*
X425400Y274850D01*
X425400Y273530D02*
X421800Y273530D01*
D11*
X415050Y292050D03*
X385050Y292050D03*
D13*
X885000Y540000D03*
D10*
X360920Y237780D02*
X360920Y231880D01*
X360920Y237780D02*
X366320Y237780D01*
X366320Y231880D01*
X360920Y231880D01*
X360920Y235300D02*
X366320Y235300D01*
X344920Y237780D02*
X344920Y231880D01*
X344920Y237780D02*
X350320Y237780D01*
X350320Y231880D01*
X344920Y231880D01*
X344920Y235300D02*
X350320Y235300D01*
D17*
X391000Y236750D02*
X391000Y233150D01*
X387400Y233150D01*
X387400Y236750D01*
X391000Y236750D01*
X391000Y235430D02*
X387400Y235430D01*
X400000Y236750D02*
X400000Y233150D01*
X396400Y233150D01*
X396400Y236750D01*
X400000Y236750D01*
X400000Y235430D02*
X396400Y235430D01*
X416400Y236750D02*
X416400Y233150D01*
X412800Y233150D01*
X412800Y236750D01*
X416400Y236750D01*
X416400Y235430D02*
X412800Y235430D01*
X425400Y236750D02*
X425400Y233150D01*
X421800Y233150D01*
X421800Y236750D01*
X425400Y236750D01*
X425400Y235430D02*
X421800Y235430D01*
D11*
X415050Y254000D03*
X385050Y254000D03*
D12*
X727068Y152825D02*
X729825Y155582D01*
X727068Y152825D02*
X724311Y155582D01*
X727068Y158339D01*
X729825Y155582D01*
X729538Y155295D02*
X724598Y155295D01*
X726494Y157765D02*
X727642Y157765D01*
X736189Y149218D02*
X733432Y146461D01*
X730675Y149218D01*
X733432Y151975D01*
X736189Y149218D01*
X735902Y148931D02*
X730962Y148931D01*
X732858Y151401D02*
X734006Y151401D01*
D13*
X505000Y60000D03*
D12*
X727068Y178225D02*
X729825Y180982D01*
X727068Y178225D02*
X724311Y180982D01*
X727068Y183739D01*
X729825Y180982D01*
X729538Y180695D02*
X724598Y180695D01*
X726494Y183165D02*
X727642Y183165D01*
X736189Y174618D02*
X733432Y171861D01*
X730675Y174618D01*
X733432Y177375D01*
X736189Y174618D01*
X735902Y174331D02*
X730962Y174331D01*
X732858Y176801D02*
X734006Y176801D01*
D10*
X360880Y193910D02*
X360880Y199810D01*
X366280Y199810D01*
X366280Y193910D01*
X360880Y193910D01*
X360880Y197330D02*
X366280Y197330D01*
X344880Y199810D02*
X344880Y193910D01*
X344880Y199810D02*
X350280Y199810D01*
X350280Y193910D01*
X344880Y193910D01*
X344880Y197330D02*
X350280Y197330D01*
D17*
X391000Y198650D02*
X391000Y195050D01*
X387400Y195050D01*
X387400Y198650D01*
X391000Y198650D01*
X391000Y197330D02*
X387400Y197330D01*
X400000Y198650D02*
X400000Y195050D01*
X396400Y195050D01*
X396400Y198650D01*
X400000Y198650D01*
X400000Y197330D02*
X396400Y197330D01*
X416400Y198650D02*
X416400Y195050D01*
X412800Y195050D01*
X412800Y198650D01*
X416400Y198650D01*
X416400Y197330D02*
X412800Y197330D01*
X425400Y198650D02*
X425400Y195050D01*
X421800Y195050D01*
X421800Y198650D01*
X425400Y198650D01*
X425400Y197330D02*
X421800Y197330D01*
D11*
X414950Y216000D03*
X384950Y216000D03*
D13*
X505000Y540000D03*
D10*
X360900Y161700D02*
X360900Y155800D01*
X360900Y161700D02*
X366300Y161700D01*
X366300Y155800D01*
X360900Y155800D01*
X360900Y159220D02*
X366300Y159220D01*
X344900Y161700D02*
X344900Y155800D01*
X344900Y161700D02*
X350300Y161700D01*
X350300Y155800D01*
X344900Y155800D01*
X344900Y159220D02*
X350300Y159220D01*
D17*
X391000Y160550D02*
X391000Y156950D01*
X387400Y156950D01*
X387400Y160550D01*
X391000Y160550D01*
X391000Y159230D02*
X387400Y159230D01*
X400000Y160550D02*
X400000Y156950D01*
X396400Y156950D01*
X396400Y160550D01*
X400000Y160550D01*
X400000Y159230D02*
X396400Y159230D01*
X416400Y160550D02*
X416400Y156950D01*
X412800Y156950D01*
X412800Y160550D01*
X416400Y160550D01*
X416400Y159230D02*
X412800Y159230D01*
X425400Y160550D02*
X425400Y156950D01*
X421800Y156950D01*
X421800Y160550D01*
X425400Y160550D01*
X425400Y159230D02*
X421800Y159230D01*
D11*
X415050Y177800D03*
X385050Y177800D03*
D12*
X879468Y193885D02*
X882225Y191128D01*
X879468Y188371D01*
X876711Y191128D01*
X879468Y193885D01*
X881938Y190841D02*
X876998Y190841D01*
X878894Y193311D02*
X880042Y193311D01*
X885832Y200249D02*
X888589Y197492D01*
X885832Y194735D01*
X883075Y197492D01*
X885832Y200249D01*
X888302Y197205D02*
X883362Y197205D01*
X885258Y199675D02*
X886406Y199675D01*
D13*
X125000Y60000D03*
D12*
X873118Y171025D02*
X875875Y168268D01*
X873118Y165511D01*
X870361Y168268D01*
X873118Y171025D01*
X875588Y167981D02*
X870648Y167981D01*
X872544Y170451D02*
X873692Y170451D01*
X879482Y177389D02*
X882239Y174632D01*
X879482Y171875D01*
X876725Y174632D01*
X879482Y177389D01*
X881952Y174345D02*
X877012Y174345D01*
X878908Y176815D02*
X880056Y176815D01*
D13*
X125000Y540000D03*
D10*
X360900Y123600D02*
X360900Y117700D01*
X360900Y123600D02*
X366300Y123600D01*
X366300Y117700D01*
X360900Y117700D01*
X360900Y121120D02*
X366300Y121120D01*
X344900Y123600D02*
X344900Y117700D01*
X344900Y123600D02*
X350300Y123600D01*
X350300Y117700D01*
X344900Y117700D01*
X344900Y121120D02*
X350300Y121120D01*
D17*
X416400Y122450D02*
X416400Y118850D01*
X412800Y118850D01*
X412800Y122450D01*
X416400Y122450D01*
X416400Y121130D02*
X412800Y121130D01*
X425400Y122450D02*
X425400Y118850D01*
X421800Y118850D01*
X421800Y122450D01*
X425400Y122450D01*
X425400Y121130D02*
X421800Y121130D01*
X391000Y122450D02*
X391000Y118850D01*
X387400Y118850D01*
X387400Y122450D01*
X391000Y122450D01*
X391000Y121130D02*
X387400Y121130D01*
X400000Y122450D02*
X400000Y118850D01*
X396400Y118850D01*
X396400Y122450D01*
X400000Y122450D01*
X400000Y121130D02*
X396400Y121130D01*
D11*
X415050Y139700D03*
X385050Y139700D03*
D12*
X885818Y215475D02*
X888575Y212718D01*
X885818Y209961D01*
X883061Y212718D01*
X885818Y215475D01*
X888288Y212431D02*
X883348Y212431D01*
X885244Y214901D02*
X886392Y214901D01*
X892182Y221839D02*
X894939Y219082D01*
X892182Y216325D01*
X889425Y219082D01*
X892182Y221839D01*
X894652Y218795D02*
X889712Y218795D01*
X891608Y221265D02*
X892756Y221265D01*
X901275Y206382D02*
X898518Y203625D01*
X895761Y206382D01*
X898518Y209139D01*
X901275Y206382D01*
X900988Y206095D02*
X896048Y206095D01*
X897944Y208565D02*
X899092Y208565D01*
X907639Y200018D02*
X904882Y197261D01*
X902125Y200018D01*
X904882Y202775D01*
X907639Y200018D01*
X907352Y199731D02*
X902412Y199731D01*
X904308Y202201D02*
X905456Y202201D01*
X917568Y298875D02*
X920325Y301632D01*
X917568Y298875D02*
X914811Y301632D01*
X917568Y304389D01*
X920325Y301632D01*
X920038Y301345D02*
X915098Y301345D01*
X916994Y303815D02*
X918142Y303815D01*
X926689Y295268D02*
X923932Y292511D01*
X921175Y295268D01*
X923932Y298025D01*
X926689Y295268D01*
X926402Y294981D02*
X921462Y294981D01*
X923358Y297451D02*
X924506Y297451D01*
X930268Y311575D02*
X933025Y314332D01*
X930268Y311575D02*
X927511Y314332D01*
X930268Y317089D01*
X933025Y314332D01*
X932738Y314045D02*
X927798Y314045D01*
X929694Y316515D02*
X930842Y316515D01*
X939389Y307968D02*
X936632Y305211D01*
X933875Y307968D01*
X936632Y310725D01*
X939389Y307968D01*
X939102Y307681D02*
X934162Y307681D01*
X936058Y310151D02*
X937206Y310151D01*
X942968Y324275D02*
X945725Y327032D01*
X942968Y324275D02*
X940211Y327032D01*
X942968Y329789D01*
X945725Y327032D01*
X945438Y326745D02*
X940498Y326745D01*
X942394Y329215D02*
X943542Y329215D01*
X952089Y320668D02*
X949332Y317911D01*
X946575Y320668D01*
X949332Y323425D01*
X952089Y320668D01*
X951802Y320381D02*
X946862Y320381D01*
X948758Y322851D02*
X949906Y322851D01*
X955668Y336975D02*
X958425Y339732D01*
X955668Y336975D02*
X952911Y339732D01*
X955668Y342489D01*
X958425Y339732D01*
X958138Y339445D02*
X953198Y339445D01*
X955094Y341915D02*
X956242Y341915D01*
X964789Y333368D02*
X962032Y330611D01*
X959275Y333368D01*
X962032Y336125D01*
X964789Y333368D01*
X964502Y333081D02*
X959562Y333081D01*
X961458Y335551D02*
X962606Y335551D01*
X968368Y349675D02*
X971125Y352432D01*
X968368Y349675D02*
X965611Y352432D01*
X968368Y355189D01*
X971125Y352432D01*
X970838Y352145D02*
X965898Y352145D01*
X967794Y354615D02*
X968942Y354615D01*
X977489Y346068D02*
X974732Y343311D01*
X971975Y346068D01*
X974732Y348825D01*
X977489Y346068D01*
X977202Y345781D02*
X972262Y345781D01*
X974158Y348251D02*
X975306Y348251D01*
X981068Y362375D02*
X983825Y365132D01*
X981068Y362375D02*
X978311Y365132D01*
X981068Y367889D01*
X983825Y365132D01*
X983538Y364845D02*
X978598Y364845D01*
X980494Y367315D02*
X981642Y367315D01*
X990189Y358768D02*
X987432Y356011D01*
X984675Y358768D01*
X987432Y361525D01*
X990189Y358768D01*
X989902Y358481D02*
X984962Y358481D01*
X986858Y360951D02*
X988006Y360951D01*
X993768Y375075D02*
X996525Y377832D01*
X993768Y375075D02*
X991011Y377832D01*
X993768Y380589D01*
X996525Y377832D01*
X996238Y377545D02*
X991298Y377545D01*
X993194Y380015D02*
X994342Y380015D01*
X1002889Y371468D02*
X1000132Y368711D01*
X997375Y371468D01*
X1000132Y374225D01*
X1002889Y371468D01*
X1002602Y371181D02*
X997662Y371181D01*
X999558Y373651D02*
X1000706Y373651D01*
D10*
X672050Y498450D02*
X672050Y504850D01*
X677450Y504850D01*
X677450Y498450D01*
X672050Y498450D01*
X672050Y501870D02*
X677450Y501870D01*
X656050Y504850D02*
X656050Y498450D01*
X656050Y504850D02*
X661450Y504850D01*
X661450Y498450D01*
X656050Y498450D01*
X656050Y501870D02*
X661450Y501870D01*
D18*
X1024400Y514350D03*
X1058400Y514350D03*
X1115550Y514350D03*
X1081550Y514350D03*
D12*
X875897Y398185D02*
X873140Y400942D01*
X875897Y398185D02*
X873140Y395428D01*
X870383Y398185D01*
X873140Y400942D01*
X875610Y397898D02*
X870670Y397898D01*
X872566Y400368D02*
X873714Y400368D01*
X879504Y407306D02*
X882261Y404549D01*
X879504Y401792D01*
X876747Y404549D01*
X879504Y407306D01*
X881974Y404262D02*
X877034Y404262D01*
X878930Y406732D02*
X880078Y406732D01*
D10*
X1133700Y502700D02*
X1139600Y502700D01*
X1139600Y497300D01*
X1133700Y497300D01*
X1133700Y502700D01*
X1133700Y500720D02*
X1139600Y500720D01*
X1139600Y518700D02*
X1133700Y518700D01*
X1139600Y518700D02*
X1139600Y513300D01*
X1133700Y513300D01*
X1133700Y518700D01*
X1133700Y516720D02*
X1139600Y516720D01*
X908466Y413469D02*
X903942Y417993D01*
X907760Y421811D01*
X912284Y417287D01*
X908466Y413469D01*
X911886Y416889D02*
X905046Y416889D01*
X906258Y420309D02*
X909262Y420309D01*
X892628Y406679D02*
X897152Y402155D01*
X892628Y406679D02*
X896446Y410497D01*
X900970Y405973D01*
X897152Y402155D01*
X900572Y405575D02*
X893732Y405575D01*
X894944Y408995D02*
X897948Y408995D01*
D12*
X875864Y376872D02*
X873107Y374115D01*
X875864Y376872D02*
X878621Y374115D01*
X875864Y371358D01*
X873107Y374115D01*
X873394Y373828D02*
X878334Y373828D01*
X876438Y376298D02*
X875290Y376298D01*
X869500Y383236D02*
X866743Y380479D01*
X869500Y383236D02*
X872257Y380479D01*
X869500Y377722D01*
X866743Y380479D01*
X867030Y380192D02*
X871970Y380192D01*
X870074Y382662D02*
X868926Y382662D01*
D10*
X1159100Y464600D02*
X1165000Y464600D01*
X1165000Y459200D01*
X1159100Y459200D01*
X1159100Y464600D01*
X1159100Y462620D02*
X1165000Y462620D01*
X1165000Y480600D02*
X1159100Y480600D01*
X1165000Y480600D02*
X1165000Y475200D01*
X1159100Y475200D01*
X1159100Y480600D01*
X1159100Y478620D02*
X1165000Y478620D01*
D18*
X1005250Y482550D03*
X1039250Y482550D03*
X1096500Y482600D03*
X1062500Y482600D03*
D10*
X921000Y400562D02*
X916476Y405086D01*
X920294Y408904D01*
X924818Y404380D01*
X921000Y400562D01*
X924420Y403982D02*
X917580Y403982D01*
X918792Y407402D02*
X921796Y407402D01*
X905163Y393772D02*
X909687Y389248D01*
X905163Y393772D02*
X908981Y397590D01*
X913505Y393066D01*
X909687Y389248D01*
X913107Y392668D02*
X906267Y392668D01*
X907479Y396088D02*
X910483Y396088D01*
D12*
X898518Y374225D02*
X901275Y371468D01*
X898518Y368711D01*
X895761Y371468D01*
X898518Y374225D01*
X900988Y371181D02*
X896048Y371181D01*
X897944Y373651D02*
X899092Y373651D01*
X904882Y380589D02*
X907639Y377832D01*
X904882Y375075D01*
X902125Y377832D01*
X904882Y380589D01*
X907352Y377545D02*
X902412Y377545D01*
X904308Y380015D02*
X905456Y380015D01*
D19*
X2469400Y320155D02*
X2473400Y320155D01*
X2473400Y326655D02*
X2469400Y326655D01*
X2469400Y333155D02*
X2473400Y333155D01*
X2473400Y339655D02*
X2469400Y339655D01*
X2469400Y346155D02*
X2473400Y346155D01*
X2473400Y352655D02*
X2469400Y352655D01*
X2469400Y359155D02*
X2473400Y359155D01*
X2473400Y365655D02*
X2469400Y365655D01*
X2479150Y314405D02*
X2479150Y310405D01*
X2485650Y310405D02*
X2485650Y314405D01*
X2492150Y314405D02*
X2492150Y310405D01*
X2498650Y310405D02*
X2498650Y314405D01*
X2505150Y371405D02*
X2505150Y375405D01*
X2498650Y375405D02*
X2498650Y371405D01*
X2492150Y371405D02*
X2492150Y375405D01*
X2485650Y375405D02*
X2485650Y371405D01*
X2479150Y371405D02*
X2479150Y375405D01*
D20*
X2489200Y342905D03*
D10*
X2581550Y419270D02*
X2587450Y419270D01*
X2581550Y419270D02*
X2581550Y424670D01*
X2587450Y424670D01*
X2587450Y419270D01*
X2587450Y422690D02*
X2581550Y422690D01*
X2581550Y403270D02*
X2587450Y403270D01*
X2581550Y403270D02*
X2581550Y408670D01*
X2587450Y408670D01*
X2587450Y403270D01*
X2587450Y406690D02*
X2581550Y406690D01*
D21*
X2522110Y402190D02*
X2512210Y402190D01*
X2522110Y402190D02*
X2522110Y395290D01*
X2512210Y395290D01*
X2512210Y402190D01*
X2512210Y399660D02*
X2522110Y399660D01*
X2522110Y420190D02*
X2512210Y420190D01*
X2522110Y420190D02*
X2522110Y413290D01*
X2512210Y413290D01*
X2512210Y420190D01*
X2512210Y417660D02*
X2522110Y417660D01*
D10*
X2559640Y408740D02*
X2566040Y408740D01*
X2566040Y403340D01*
X2559640Y403340D01*
X2559640Y408740D01*
X2559640Y406760D02*
X2566040Y406760D01*
X2566040Y424740D02*
X2559640Y424740D01*
X2566040Y424740D02*
X2566040Y419340D01*
X2559640Y419340D01*
X2559640Y424740D01*
X2559640Y422760D02*
X2566040Y422760D01*
X2461950Y392180D02*
X2455550Y392180D01*
X2461950Y392180D02*
X2461950Y386780D01*
X2455550Y386780D01*
X2455550Y392180D01*
X2455550Y390200D02*
X2461950Y390200D01*
X2461950Y408180D02*
X2455550Y408180D01*
X2461950Y408180D02*
X2461950Y402780D01*
X2455550Y402780D01*
X2455550Y408180D01*
X2455550Y406200D02*
X2461950Y406200D01*
X2444070Y403560D02*
X2437670Y403560D01*
X2444070Y403560D02*
X2444070Y398160D01*
X2437670Y398160D01*
X2437670Y403560D01*
X2437670Y401580D02*
X2444070Y401580D01*
X2444070Y419560D02*
X2437670Y419560D01*
X2444070Y419560D02*
X2444070Y414160D01*
X2437670Y414160D01*
X2437670Y419560D01*
X2437670Y417580D02*
X2444070Y417580D01*
X2448340Y306730D02*
X2448340Y300330D01*
X2442940Y300330D01*
X2442940Y306730D01*
X2448340Y306730D01*
X2448340Y303750D02*
X2442940Y303750D01*
X2464340Y306730D02*
X2464340Y300330D01*
X2458940Y300330D01*
X2458940Y306730D01*
X2464340Y306730D01*
X2464340Y303750D02*
X2458940Y303750D01*
X2492600Y397290D02*
X2498500Y397290D01*
X2498500Y391890D01*
X2492600Y391890D01*
X2492600Y397290D01*
X2492600Y395310D02*
X2498500Y395310D01*
X2498500Y413290D02*
X2492600Y413290D01*
X2498500Y413290D02*
X2498500Y407890D01*
X2492600Y407890D01*
X2492600Y413290D01*
X2492600Y411310D02*
X2498500Y411310D01*
X2614260Y398520D02*
X2620660Y398520D01*
X2620660Y393120D01*
X2614260Y393120D01*
X2614260Y398520D01*
X2614260Y396540D02*
X2620660Y396540D01*
X2620660Y414520D02*
X2614260Y414520D01*
X2620660Y414520D02*
X2620660Y409120D01*
X2614260Y409120D01*
X2614260Y414520D01*
X2614260Y412540D02*
X2620660Y412540D01*
X2615140Y439030D02*
X2615140Y444930D01*
X2620540Y444930D01*
X2620540Y439030D01*
X2615140Y439030D01*
X2615140Y442450D02*
X2620540Y442450D01*
X2599140Y444930D02*
X2599140Y439030D01*
X2599140Y444930D02*
X2604540Y444930D01*
X2604540Y439030D01*
X2599140Y439030D01*
X2599140Y442450D02*
X2604540Y442450D01*
X2426710Y370270D02*
X2426710Y363870D01*
X2421310Y363870D01*
X2421310Y370270D01*
X2426710Y370270D01*
X2426710Y367290D02*
X2421310Y367290D01*
X2442710Y370270D02*
X2442710Y363870D01*
X2437310Y363870D01*
X2437310Y370270D01*
X2442710Y370270D01*
X2442710Y367290D02*
X2437310Y367290D01*
D17*
X2404240Y385540D02*
X2404240Y389140D01*
X2407840Y389140D01*
X2407840Y385540D01*
X2404240Y385540D01*
X2404240Y387820D02*
X2407840Y387820D01*
X2395240Y389140D02*
X2395240Y385540D01*
X2395240Y389140D02*
X2398840Y389140D01*
X2398840Y385540D01*
X2395240Y385540D01*
X2395240Y387820D02*
X2398840Y387820D01*
D10*
X2493230Y287430D02*
X2493230Y281530D01*
X2493230Y287430D02*
X2498630Y287430D01*
X2498630Y281530D01*
X2493230Y281530D01*
X2493230Y284950D02*
X2498630Y284950D01*
X2477230Y287430D02*
X2477230Y281530D01*
X2477230Y287430D02*
X2482630Y287430D01*
X2482630Y281530D01*
X2477230Y281530D01*
X2477230Y284950D02*
X2482630Y284950D01*
X2450100Y323440D02*
X2450100Y329340D01*
X2455500Y329340D01*
X2455500Y323440D01*
X2450100Y323440D01*
X2450100Y326860D02*
X2455500Y326860D01*
X2434100Y329340D02*
X2434100Y323440D01*
X2434100Y329340D02*
X2439500Y329340D01*
X2439500Y323440D01*
X2434100Y323440D01*
X2434100Y326860D02*
X2439500Y326860D01*
X2439450Y344780D02*
X2439450Y351180D01*
X2439450Y344780D02*
X2434050Y344780D01*
X2434050Y351180D01*
X2439450Y351180D01*
X2439450Y348200D02*
X2434050Y348200D01*
X2455450Y351180D02*
X2455450Y344780D01*
X2450050Y344780D01*
X2450050Y351180D01*
X2455450Y351180D01*
X2455450Y348200D02*
X2450050Y348200D01*
D17*
X1337150Y461750D02*
X1337150Y465350D01*
X1337150Y461750D02*
X1333550Y461750D01*
X1333550Y465350D01*
X1337150Y465350D01*
X1337150Y464030D02*
X1333550Y464030D01*
X1346150Y465350D02*
X1346150Y461750D01*
X1342550Y461750D01*
X1342550Y465350D01*
X1346150Y465350D01*
X1346150Y464030D02*
X1342550Y464030D01*
X1610200Y465350D02*
X1610200Y461750D01*
X1606600Y461750D01*
X1606600Y465350D01*
X1610200Y465350D01*
X1610200Y464030D02*
X1606600Y464030D01*
X1619200Y465350D02*
X1619200Y461750D01*
X1615600Y461750D01*
X1615600Y465350D01*
X1619200Y465350D01*
X1619200Y464030D02*
X1615600Y464030D01*
D22*
X1863750Y510700D03*
X1882750Y510700D03*
X1873250Y530700D03*
D23*
X1614600Y358050D03*
X1614600Y231050D03*
X1331800Y315050D03*
X1331800Y442050D03*
D24*
X1403100Y186550D02*
X1403100Y181750D01*
X1397800Y181750D01*
X1397800Y186550D01*
X1403100Y186550D01*
X1403100Y182890D02*
X1397800Y182890D01*
X1397800Y184030D02*
X1403100Y184030D01*
X1403100Y185170D02*
X1397800Y185170D01*
X1397800Y186310D02*
X1403100Y186310D01*
X1421600Y188250D02*
X1421600Y193050D01*
X1421600Y188250D02*
X1416300Y188250D01*
X1416300Y193050D01*
X1421600Y193050D01*
X1421600Y189390D02*
X1416300Y189390D01*
X1416300Y190530D02*
X1421600Y190530D01*
X1421600Y191670D02*
X1416300Y191670D01*
X1416300Y192810D02*
X1421600Y192810D01*
X1421600Y180050D02*
X1421600Y175250D01*
X1416300Y175250D01*
X1416300Y180050D01*
X1421600Y180050D01*
X1421600Y176390D02*
X1416300Y176390D01*
X1416300Y177530D02*
X1421600Y177530D01*
X1421600Y178670D02*
X1416300Y178670D01*
X1416300Y179810D02*
X1421600Y179810D01*
D17*
X1375250Y195050D02*
X1375250Y198650D01*
X1375250Y195050D02*
X1371650Y195050D01*
X1371650Y198650D01*
X1375250Y198650D01*
X1375250Y197330D02*
X1371650Y197330D01*
X1384250Y198650D02*
X1384250Y195050D01*
X1380650Y195050D01*
X1380650Y198650D01*
X1384250Y198650D01*
X1384250Y197330D02*
X1380650Y197330D01*
X2510950Y531600D02*
X2510950Y535200D01*
X2514550Y535200D01*
X2514550Y531600D01*
X2510950Y531600D01*
X2510950Y533880D02*
X2514550Y533880D01*
X2501950Y535200D02*
X2501950Y531600D01*
X2501950Y535200D02*
X2505550Y535200D01*
X2505550Y531600D01*
X2501950Y531600D01*
X2501950Y533880D02*
X2505550Y533880D01*
X2307750Y528850D02*
X2307750Y525250D01*
X2307750Y528850D02*
X2311350Y528850D01*
X2311350Y525250D01*
X2307750Y525250D01*
X2307750Y527530D02*
X2311350Y527530D01*
X2298750Y528850D02*
X2298750Y525250D01*
X2298750Y528850D02*
X2302350Y528850D01*
X2302350Y525250D01*
X2298750Y525250D01*
X2298750Y527530D02*
X2302350Y527530D01*
X1933100Y537950D02*
X1933100Y541550D01*
X1936700Y541550D01*
X1936700Y537950D01*
X1933100Y537950D01*
X1933100Y540230D02*
X1936700Y540230D01*
X1924100Y541550D02*
X1924100Y537950D01*
X1924100Y541550D02*
X1927700Y541550D01*
X1927700Y537950D01*
X1924100Y537950D01*
X1924100Y540230D02*
X1927700Y540230D01*
X1564800Y528850D02*
X1564800Y525250D01*
X1564800Y528850D02*
X1568400Y528850D01*
X1568400Y525250D01*
X1564800Y525250D01*
X1564800Y527530D02*
X1568400Y527530D01*
X1555800Y528850D02*
X1555800Y525250D01*
X1555800Y528850D02*
X1559400Y528850D01*
X1559400Y525250D01*
X1555800Y525250D01*
X1555800Y527530D02*
X1559400Y527530D01*
X1164750Y71650D02*
X1164750Y68050D01*
X1164750Y71650D02*
X1168350Y71650D01*
X1168350Y68050D01*
X1164750Y68050D01*
X1164750Y70330D02*
X1168350Y70330D01*
X1155750Y71650D02*
X1155750Y68050D01*
X1155750Y71650D02*
X1159350Y71650D01*
X1159350Y68050D01*
X1155750Y68050D01*
X1155750Y70330D02*
X1159350Y70330D01*
X1190150Y512550D02*
X1190150Y516150D01*
X1193750Y516150D01*
X1193750Y512550D01*
X1190150Y512550D01*
X1190150Y514830D02*
X1193750Y514830D01*
X1181150Y516150D02*
X1181150Y512550D01*
X1181150Y516150D02*
X1184750Y516150D01*
X1184750Y512550D01*
X1181150Y512550D01*
X1181150Y514830D02*
X1184750Y514830D01*
X809150Y84350D02*
X809150Y80750D01*
X809150Y84350D02*
X812750Y84350D01*
X812750Y80750D01*
X809150Y80750D01*
X809150Y83030D02*
X812750Y83030D01*
X800150Y84350D02*
X800150Y80750D01*
X800150Y84350D02*
X803750Y84350D01*
X803750Y80750D01*
X800150Y80750D01*
X800150Y83030D02*
X803750Y83030D01*
X802800Y499850D02*
X802800Y503450D01*
X806400Y503450D01*
X806400Y499850D01*
X802800Y499850D01*
X802800Y502130D02*
X806400Y502130D01*
X793800Y503450D02*
X793800Y499850D01*
X793800Y503450D02*
X797400Y503450D01*
X797400Y499850D01*
X793800Y499850D01*
X793800Y502130D02*
X797400Y502130D01*
X428150Y512550D02*
X428150Y516150D01*
X431750Y516150D01*
X431750Y512550D01*
X428150Y512550D01*
X428150Y514830D02*
X431750Y514830D01*
X419150Y516150D02*
X419150Y512550D01*
X419150Y516150D02*
X422750Y516150D01*
X422750Y512550D01*
X419150Y512550D01*
X419150Y514830D02*
X422750Y514830D01*
X84350Y472600D02*
X80750Y472600D01*
X80750Y476200D01*
X84350Y476200D01*
X84350Y472600D01*
X84350Y474880D02*
X80750Y474880D01*
X80750Y463600D02*
X84350Y463600D01*
X80750Y463600D02*
X80750Y467200D01*
X84350Y467200D01*
X84350Y463600D01*
X84350Y465880D02*
X80750Y465880D01*
X434500Y97050D02*
X434500Y93450D01*
X434500Y97050D02*
X438100Y97050D01*
X438100Y93450D01*
X434500Y93450D01*
X434500Y95730D02*
X438100Y95730D01*
X425500Y97050D02*
X425500Y93450D01*
X425500Y97050D02*
X429100Y97050D01*
X429100Y93450D01*
X425500Y93450D01*
X425500Y95730D02*
X429100Y95730D01*
X122420Y130650D02*
X118820Y130650D01*
X122420Y130650D02*
X122420Y127050D01*
X118820Y127050D01*
X118820Y130650D01*
X118820Y129330D02*
X122420Y129330D01*
X122420Y139650D02*
X118820Y139650D01*
X122420Y139650D02*
X122420Y136050D01*
X118820Y136050D01*
X118820Y139650D01*
X118820Y138330D02*
X122420Y138330D01*
X1920400Y58950D02*
X1920400Y55350D01*
X1920400Y58950D02*
X1924000Y58950D01*
X1924000Y55350D01*
X1920400Y55350D01*
X1920400Y57630D02*
X1924000Y57630D01*
X1911400Y58950D02*
X1911400Y55350D01*
X1911400Y58950D02*
X1915000Y58950D01*
X1915000Y55350D01*
X1911400Y55350D01*
X1911400Y57630D02*
X1915000Y57630D01*
X2320450Y68050D02*
X2320450Y71650D01*
X2324050Y71650D01*
X2324050Y68050D01*
X2320450Y68050D01*
X2320450Y70330D02*
X2324050Y70330D01*
X2311450Y71650D02*
X2311450Y68050D01*
X2311450Y71650D02*
X2315050Y71650D01*
X2315050Y68050D01*
X2311450Y68050D01*
X2311450Y70330D02*
X2315050Y70330D01*
X1534000Y58950D02*
X1534000Y55350D01*
X1530400Y55350D01*
X1530400Y58950D01*
X1534000Y58950D01*
X1534000Y57630D02*
X1530400Y57630D01*
X1543000Y58950D02*
X1543000Y55350D01*
X1539400Y55350D01*
X1539400Y58950D01*
X1543000Y58950D01*
X1543000Y57630D02*
X1539400Y57630D01*
D25*
X1248000Y400050D03*
X1165000Y400050D03*
D26*
X1248000Y375050D03*
X1248000Y425050D03*
X1165000Y424550D03*
X1165000Y377050D03*
D25*
X1248000Y273050D03*
X1165000Y273050D03*
D26*
X1248000Y248050D03*
X1248000Y298050D03*
X1165000Y297550D03*
X1165000Y250050D03*
D17*
X2282350Y258550D02*
X2282350Y262150D01*
X2285950Y262150D01*
X2285950Y258550D01*
X2282350Y258550D01*
X2282350Y260830D02*
X2285950Y260830D01*
X2273350Y262150D02*
X2273350Y258550D01*
X2273350Y262150D02*
X2276950Y262150D01*
X2276950Y258550D01*
X2273350Y258550D01*
X2273350Y260830D02*
X2276950Y260830D01*
X2276000Y277600D02*
X2276000Y281200D01*
X2279600Y281200D01*
X2279600Y277600D01*
X2276000Y277600D01*
X2276000Y279880D02*
X2279600Y279880D01*
X2267000Y281200D02*
X2267000Y277600D01*
X2267000Y281200D02*
X2270600Y281200D01*
X2270600Y277600D01*
X2267000Y277600D01*
X2267000Y279880D02*
X2270600Y279880D01*
D10*
X2291300Y314550D02*
X2291300Y320450D01*
X2296700Y320450D01*
X2296700Y314550D01*
X2291300Y314550D01*
X2291300Y317970D02*
X2296700Y317970D01*
X2275300Y320450D02*
X2275300Y314550D01*
X2275300Y320450D02*
X2280700Y320450D01*
X2280700Y314550D01*
X2275300Y314550D01*
X2275300Y317970D02*
X2280700Y317970D01*
D27*
X2286700Y298450D03*
X2310700Y298450D03*
D18*
X2341100Y266700D03*
X2307100Y266700D03*
X2372850Y292100D03*
X2338850Y292100D03*
D28*
X2247900Y385300D03*
X2247900Y351300D03*
X2279650Y385300D03*
X2279650Y351300D03*
D17*
X103400Y472600D02*
X99800Y472600D01*
X99800Y476200D01*
X103400Y476200D01*
X103400Y472600D01*
X103400Y474880D02*
X99800Y474880D01*
X99800Y463600D02*
X103400Y463600D01*
X99800Y463600D02*
X99800Y467200D01*
X103400Y467200D01*
X103400Y463600D01*
X103400Y465880D02*
X99800Y465880D01*
D10*
X927617Y141362D02*
X931788Y145533D01*
X927617Y141362D02*
X923798Y145181D01*
X927969Y149352D01*
X931788Y145533D01*
X931037Y144782D02*
X924197Y144782D01*
X926819Y148202D02*
X929119Y148202D01*
X943102Y134219D02*
X938931Y130048D01*
X935112Y133867D01*
X939283Y138038D01*
X943102Y134219D01*
X942351Y133468D02*
X935511Y133468D01*
X938133Y136888D02*
X940433Y136888D01*
X1751550Y530200D02*
X1751550Y536600D01*
X1756950Y536600D01*
X1756950Y530200D01*
X1751550Y530200D01*
X1751550Y533620D02*
X1756950Y533620D01*
X1735550Y536600D02*
X1735550Y530200D01*
X1735550Y536600D02*
X1740950Y536600D01*
X1740950Y530200D01*
X1735550Y530200D01*
X1735550Y533620D02*
X1740950Y533620D01*
X1370550Y536600D02*
X1370550Y530200D01*
X1370550Y536600D02*
X1375950Y536600D01*
X1375950Y530200D01*
X1370550Y530200D01*
X1370550Y533620D02*
X1375950Y533620D01*
X1354550Y536600D02*
X1354550Y530200D01*
X1354550Y536600D02*
X1359950Y536600D01*
X1359950Y530200D01*
X1354550Y530200D01*
X1354550Y533620D02*
X1359950Y533620D01*
X1516600Y530250D02*
X1516600Y523850D01*
X1516600Y530250D02*
X1522000Y530250D01*
X1522000Y523850D01*
X1516600Y523850D01*
X1516600Y527270D02*
X1522000Y527270D01*
X1500600Y530250D02*
X1500600Y523850D01*
X1500600Y530250D02*
X1506000Y530250D01*
X1506000Y523850D01*
X1500600Y523850D01*
X1500600Y527270D02*
X1506000Y527270D01*
D16*
X1981200Y336550D03*
X1955800Y336550D03*
X1955800Y234950D03*
X1981200Y234950D03*
D17*
X1983000Y371000D02*
X1979400Y371000D01*
X1979400Y374600D01*
X1983000Y374600D01*
X1983000Y371000D01*
X1983000Y373280D02*
X1979400Y373280D01*
X1979400Y362000D02*
X1983000Y362000D01*
X1979400Y362000D02*
X1979400Y365600D01*
X1983000Y365600D01*
X1983000Y362000D01*
X1983000Y364280D02*
X1979400Y364280D01*
D29*
X2628900Y347300D03*
X2628900Y262300D03*
D10*
X2420400Y263300D02*
X2420400Y257400D01*
X2415000Y257400D01*
X2415000Y263300D01*
X2420400Y263300D01*
X2420400Y260820D02*
X2415000Y260820D01*
X2436400Y263300D02*
X2436400Y257400D01*
X2431000Y257400D01*
X2431000Y263300D01*
X2436400Y263300D01*
X2436400Y260820D02*
X2431000Y260820D01*
D30*
X2412855Y230539D03*
X2442855Y230539D03*
D10*
X2474570Y392210D02*
X2480970Y392210D01*
X2480970Y386810D01*
X2474570Y386810D01*
X2474570Y392210D01*
X2474570Y390230D02*
X2480970Y390230D01*
X2480970Y408210D02*
X2474570Y408210D01*
X2480970Y408210D02*
X2480970Y402810D01*
X2474570Y402810D01*
X2474570Y408210D01*
X2474570Y406230D02*
X2480970Y406230D01*
D31*
X2165100Y326250D03*
X2165100Y349250D03*
X2165100Y372250D03*
D32*
X2102100Y349250D03*
D12*
X2195150Y327650D02*
X2199050Y327650D01*
X2199050Y323750D01*
X2195150Y323750D01*
X2195150Y327650D01*
X2195150Y326220D02*
X2199050Y326220D01*
X2199050Y336650D02*
X2195150Y336650D01*
X2199050Y336650D02*
X2199050Y332750D01*
X2195150Y332750D01*
X2195150Y336650D01*
X2195150Y335220D02*
X2199050Y335220D01*
X2225050Y294050D02*
X2225050Y290150D01*
X2225050Y294050D02*
X2228950Y294050D01*
X2228950Y290150D01*
X2225050Y290150D01*
X2225050Y292620D02*
X2228950Y292620D01*
X2216050Y294050D02*
X2216050Y290150D01*
X2216050Y294050D02*
X2219950Y294050D01*
X2219950Y290150D01*
X2216050Y290150D01*
X2216050Y292620D02*
X2219950Y292620D01*
D31*
X2165100Y243700D03*
X2165100Y266700D03*
X2165100Y289700D03*
D32*
X2102100Y266700D03*
D12*
X2195150Y245100D02*
X2199050Y245100D01*
X2199050Y241200D01*
X2195150Y241200D01*
X2195150Y245100D01*
X2195150Y243670D02*
X2199050Y243670D01*
X2199050Y254100D02*
X2195150Y254100D01*
X2199050Y254100D02*
X2199050Y250200D01*
X2195150Y250200D01*
X2195150Y254100D01*
X2195150Y252670D02*
X2199050Y252670D01*
X2231400Y271100D02*
X2231400Y275000D01*
X2235300Y275000D01*
X2235300Y271100D01*
X2231400Y271100D01*
X2231400Y273570D02*
X2235300Y273570D01*
X2222400Y275000D02*
X2222400Y271100D01*
X2222400Y275000D02*
X2226300Y275000D01*
X2226300Y271100D01*
X2222400Y271100D01*
X2222400Y273570D02*
X2226300Y273570D01*
D10*
X2522000Y282550D02*
X2522000Y288950D01*
X2522000Y282550D02*
X2516600Y282550D01*
X2516600Y288950D01*
X2522000Y288950D01*
X2522000Y285970D02*
X2516600Y285970D01*
X2538000Y288950D02*
X2538000Y282550D01*
X2532600Y282550D01*
X2532600Y288950D01*
X2538000Y288950D01*
X2538000Y285970D02*
X2532600Y285970D01*
D30*
X2532140Y219710D03*
X2502140Y219710D03*
X2532140Y180340D03*
X2502140Y180340D03*
X2532140Y140970D03*
X2502140Y140970D03*
D17*
X2065550Y200500D02*
X2061950Y200500D01*
X2065550Y200500D02*
X2065550Y196900D01*
X2061950Y196900D01*
X2061950Y200500D01*
X2061950Y199180D02*
X2065550Y199180D01*
X2065550Y209500D02*
X2061950Y209500D01*
X2065550Y209500D02*
X2065550Y205900D01*
X2061950Y205900D01*
X2061950Y209500D01*
X2061950Y208180D02*
X2065550Y208180D01*
X1990250Y141500D02*
X1990250Y137900D01*
X1990250Y141500D02*
X1993850Y141500D01*
X1993850Y137900D01*
X1990250Y137900D01*
X1990250Y140180D02*
X1993850Y140180D01*
X1981250Y141500D02*
X1981250Y137900D01*
X1981250Y141500D02*
X1984850Y141500D01*
X1984850Y137900D01*
X1981250Y137900D01*
X1981250Y140180D02*
X1984850Y140180D01*
D10*
X2518190Y254860D02*
X2518190Y260760D01*
X2518190Y254860D02*
X2512790Y254860D01*
X2512790Y260760D01*
X2518190Y260760D01*
X2518190Y258280D02*
X2512790Y258280D01*
X2534190Y260760D02*
X2534190Y254860D01*
X2528790Y254860D01*
X2528790Y260760D01*
X2534190Y260760D01*
X2534190Y258280D02*
X2528790Y258280D01*
X2615150Y458060D02*
X2615150Y463960D01*
X2620550Y463960D01*
X2620550Y458060D01*
X2615150Y458060D01*
X2615150Y461480D02*
X2620550Y461480D01*
X2599150Y463960D02*
X2599150Y458060D01*
X2599150Y463960D02*
X2604550Y463960D01*
X2604550Y458060D01*
X2599150Y458060D01*
X2599150Y461480D02*
X2604550Y461480D01*
X2411950Y352200D02*
X2411950Y346300D01*
X2411950Y352200D02*
X2417350Y352200D01*
X2417350Y346300D01*
X2411950Y346300D01*
X2411950Y349720D02*
X2417350Y349720D01*
X2395950Y352200D02*
X2395950Y346300D01*
X2395950Y352200D02*
X2401350Y352200D01*
X2401350Y346300D01*
X2395950Y346300D01*
X2395950Y349720D02*
X2401350Y349720D01*
D33*
X2444750Y187680D03*
X2444750Y152680D03*
X2579370Y145770D03*
X2579370Y110770D03*
D17*
X1908650Y461750D02*
X1908650Y465350D01*
X1908650Y461750D02*
X1905050Y461750D01*
X1905050Y465350D01*
X1908650Y465350D01*
X1908650Y464030D02*
X1905050Y464030D01*
X1917650Y465350D02*
X1917650Y461750D01*
X1914050Y461750D01*
X1914050Y465350D01*
X1917650Y465350D01*
X1917650Y464030D02*
X1914050Y464030D01*
X1798850Y428150D02*
X1795250Y428150D01*
X1795250Y431750D01*
X1798850Y431750D01*
X1798850Y428150D01*
X1798850Y430430D02*
X1795250Y430430D01*
X1795250Y419150D02*
X1798850Y419150D01*
X1795250Y419150D02*
X1795250Y422750D01*
X1798850Y422750D01*
X1798850Y419150D01*
X1798850Y421430D02*
X1795250Y421430D01*
X1801600Y364650D02*
X1805200Y364650D01*
X1801600Y364650D02*
X1801600Y368250D01*
X1805200Y368250D01*
X1805200Y364650D01*
X1805200Y366930D02*
X1801600Y366930D01*
X1801600Y355650D02*
X1805200Y355650D01*
X1801600Y355650D02*
X1801600Y359250D01*
X1805200Y359250D01*
X1805200Y355650D01*
X1805200Y357930D02*
X1801600Y357930D01*
X1915000Y379200D02*
X1915000Y382800D01*
X1915000Y379200D02*
X1911400Y379200D01*
X1911400Y382800D01*
X1915000Y382800D01*
X1915000Y381480D02*
X1911400Y381480D01*
X1924000Y382800D02*
X1924000Y379200D01*
X1920400Y379200D01*
X1920400Y382800D01*
X1924000Y382800D01*
X1924000Y381480D02*
X1920400Y381480D01*
X2418820Y391000D02*
X2422420Y391000D01*
X2422420Y387400D01*
X2418820Y387400D01*
X2418820Y391000D01*
X2418820Y389680D02*
X2422420Y389680D01*
X2422420Y400000D02*
X2418820Y400000D01*
X2422420Y400000D02*
X2422420Y396400D01*
X2418820Y396400D01*
X2418820Y400000D01*
X2418820Y398680D02*
X2422420Y398680D01*
D34*
X2254250Y139700D03*
X2197100Y114300D03*
X2298700Y114300D03*
X2197100Y520700D03*
X2501900Y88900D03*
X2597150Y69850D03*
M02*
